<?xml version="1.0" encoding="UTF-8" standalone="no"?>
<!-- Created with Inkscape (http://www.inkscape.org/) -->

<svg
   xmlns:dc="http://purl.org/dc/elements/1.1/"
   xmlns:cc="http://creativecommons.org/ns#"
   xmlns:rdf="http://www.w3.org/1999/02/22-rdf-syntax-ns#"
   xmlns:svg="http://www.w3.org/2000/svg"
   xmlns="http://www.w3.org/2000/svg"
   xmlns:sodipodi="http://sodipodi.sourceforge.net/DTD/sodipodi-0.dtd"
   xmlns:inkscape="http://www.inkscape.org/namespaces/inkscape"
   width="169.33337mm"
   height="36.787994mm"
   viewBox="0 0 600.00014 130.35115"
   id="svg10036"
   version="1.1"
   inkscape:version="0.92.1 r"
   sodipodi:docname="Processing-data.svg">
  <defs
     id="defs10038">
    <filter
       inkscape:collect="always"
       style="color-interpolation-filters:sRGB"
       id="filter36766"
       x="-0.033586685"
       width="1.0671734"
       y="-0.28092802"
       height="1.561856">
      <feGaussianBlur
         inkscape:collect="always"
         stdDeviation="1.2791229"
         id="feGaussianBlur36768" />
    </filter>
    <marker
       inkscape:stockid="DotS"
       orient="auto"
       refY="0"
       refX="0"
       id="DotS"
       style="overflow:visible">
      <path
         id="path6442"
         d="m -2.5,-1 c 0,2.76 -2.24,5 -5,5 -2.76,0 -5,-2.24 -5,-5 0,-2.76 2.24,-5 5,-5 2.76,0 5,2.24 5,5 z"
         style="fill-rule:evenodd;stroke:#000000;stroke-width:1.00000003pt"
         transform="matrix(0.2,0,0,0.2,1.48,0.2)"
         inkscape:connector-curvature="0" />
    </marker>
    <marker
       inkscape:stockid="DotS"
       orient="auto"
       refY="0"
       refX="0"
       id="marker9816"
       style="overflow:visible">
      <path
         id="path9818"
         d="m -2.5,-1 c 0,2.76 -2.24,5 -5,5 -2.76,0 -5,-2.24 -5,-5 0,-2.76 2.24,-5 5,-5 2.76,0 5,2.24 5,5 z"
         style="fill-rule:evenodd;stroke:#000000;stroke-width:1.00000003pt"
         transform="matrix(0.2,0,0,0.2,1.48,0.2)"
         inkscape:connector-curvature="0" />
    </marker>
    <marker
       inkscape:stockid="DotS"
       orient="auto"
       refY="0"
       refX="0"
       id="marker9836"
       style="overflow:visible">
      <path
         id="path9838"
         d="m -2.5,-1 c 0,2.76 -2.24,5 -5,5 -2.76,0 -5,-2.24 -5,-5 0,-2.76 2.24,-5 5,-5 2.76,0 5,2.24 5,5 z"
         style="fill-rule:evenodd;stroke:#000000;stroke-width:1.00000003pt"
         transform="matrix(0.2,0,0,0.2,1.48,0.2)"
         inkscape:connector-curvature="0" />
    </marker>
    <marker
       inkscape:stockid="DotS"
       orient="auto"
       refY="0"
       refX="0"
       id="marker9840"
       style="overflow:visible">
      <path
         id="path9842"
         d="m -2.5,-1 c 0,2.76 -2.24,5 -5,5 -2.76,0 -5,-2.24 -5,-5 0,-2.76 2.24,-5 5,-5 2.76,0 5,2.24 5,5 z"
         style="fill-rule:evenodd;stroke:#000000;stroke-width:1.00000003pt"
         transform="matrix(0.2,0,0,0.2,1.48,0.2)"
         inkscape:connector-curvature="0" />
    </marker>
    <marker
       inkscape:stockid="DotS"
       orient="auto"
       refY="0"
       refX="0"
       id="marker9844"
       style="overflow:visible">
      <path
         id="path9846"
         d="m -2.5,-1 c 0,2.76 -2.24,5 -5,5 -2.76,0 -5,-2.24 -5,-5 0,-2.76 2.24,-5 5,-5 2.76,0 5,2.24 5,5 z"
         style="fill-rule:evenodd;stroke:#000000;stroke-width:1.00000003pt"
         transform="matrix(0.2,0,0,0.2,1.48,0.2)"
         inkscape:connector-curvature="0" />
    </marker>
    <marker
       inkscape:stockid="DotS"
       orient="auto"
       refY="0"
       refX="0"
       id="marker9848"
       style="overflow:visible">
      <path
         id="path9850"
         d="m -2.5,-1 c 0,2.76 -2.24,5 -5,5 -2.76,0 -5,-2.24 -5,-5 0,-2.76 2.24,-5 5,-5 2.76,0 5,2.24 5,5 z"
         style="fill-rule:evenodd;stroke:#000000;stroke-width:1.00000003pt"
         transform="matrix(0.2,0,0,0.2,1.48,0.2)"
         inkscape:connector-curvature="0" />
    </marker>
    <marker
       inkscape:stockid="DotS"
       orient="auto"
       refY="0"
       refX="0"
       id="marker9852"
       style="overflow:visible">
      <path
         id="path9854"
         d="m -2.5,-1 c 0,2.76 -2.24,5 -5,5 -2.76,0 -5,-2.24 -5,-5 0,-2.76 2.24,-5 5,-5 2.76,0 5,2.24 5,5 z"
         style="fill-rule:evenodd;stroke:#000000;stroke-width:1.00000003pt"
         transform="matrix(0.2,0,0,0.2,1.48,0.2)"
         inkscape:connector-curvature="0" />
    </marker>
    <marker
       inkscape:stockid="DotS"
       orient="auto"
       refY="0"
       refX="0"
       id="marker9856"
       style="overflow:visible">
      <path
         id="path9858"
         d="m -2.5,-1 c 0,2.76 -2.24,5 -5,5 -2.76,0 -5,-2.24 -5,-5 0,-2.76 2.24,-5 5,-5 2.76,0 5,2.24 5,5 z"
         style="fill-rule:evenodd;stroke:#000000;stroke-width:1.00000003pt"
         transform="matrix(0.2,0,0,0.2,1.48,0.2)"
         inkscape:connector-curvature="0" />
    </marker>
    <marker
       inkscape:stockid="DotS"
       orient="auto"
       refY="0"
       refX="0"
       id="marker9860"
       style="overflow:visible">
      <path
         id="path9862"
         d="m -2.5,-1 c 0,2.76 -2.24,5 -5,5 -2.76,0 -5,-2.24 -5,-5 0,-2.76 2.24,-5 5,-5 2.76,0 5,2.24 5,5 z"
         style="fill-rule:evenodd;stroke:#000000;stroke-width:1.00000003pt"
         transform="matrix(0.2,0,0,0.2,1.48,0.2)"
         inkscape:connector-curvature="0" />
    </marker>
    <marker
       inkscape:stockid="DotS"
       orient="auto"
       refY="0"
       refX="0"
       id="marker3986"
       style="overflow:visible">
      <path
         id="path3988"
         d="m -2.5,-1 c 0,2.76 -2.24,5 -5,5 -2.76,0 -5,-2.24 -5,-5 0,-2.76 2.24,-5 5,-5 2.76,0 5,2.24 5,5 z"
         style="fill-rule:evenodd;stroke:#000000;stroke-width:1.00000003pt"
         transform="matrix(0.2,0,0,0.2,1.48,0.2)"
         inkscape:connector-curvature="0" />
    </marker>
    <marker
       inkscape:stockid="DotS"
       orient="auto"
       refY="0"
       refX="0"
       id="marker9866"
       style="overflow:visible">
      <path
         id="path9868"
         d="m -2.5,-1 c 0,2.76 -2.24,5 -5,5 -2.76,0 -5,-2.24 -5,-5 0,-2.76 2.24,-5 5,-5 2.76,0 5,2.24 5,5 z"
         style="fill-rule:evenodd;stroke:#000000;stroke-width:1.00000003pt"
         transform="matrix(0.2,0,0,0.2,1.48,0.2)"
         inkscape:connector-curvature="0" />
    </marker>
    <marker
       inkscape:stockid="DotS"
       orient="auto"
       refY="0"
       refX="0"
       id="marker9870"
       style="overflow:visible">
      <path
         id="path9872"
         d="m -2.5,-1 c 0,2.76 -2.24,5 -5,5 -2.76,0 -5,-2.24 -5,-5 0,-2.76 2.24,-5 5,-5 2.76,0 5,2.24 5,5 z"
         style="fill-rule:evenodd;stroke:#000000;stroke-width:1.00000003pt"
         transform="matrix(0.2,0,0,0.2,1.48,0.2)"
         inkscape:connector-curvature="0" />
    </marker>
    <marker
       inkscape:stockid="DotS"
       orient="auto"
       refY="0"
       refX="0"
       id="marker9874"
       style="overflow:visible">
      <path
         id="path9876"
         d="m -2.5,-1 c 0,2.76 -2.24,5 -5,5 -2.76,0 -5,-2.24 -5,-5 0,-2.76 2.24,-5 5,-5 2.76,0 5,2.24 5,5 z"
         style="fill-rule:evenodd;stroke:#000000;stroke-width:1.00000003pt"
         transform="matrix(0.2,0,0,0.2,1.48,0.2)"
         inkscape:connector-curvature="0" />
    </marker>
    <marker
       inkscape:stockid="DotS"
       orient="auto"
       refY="0"
       refX="0"
       id="marker9878"
       style="overflow:visible">
      <path
         id="path9880"
         d="m -2.5,-1 c 0,2.76 -2.24,5 -5,5 -2.76,0 -5,-2.24 -5,-5 0,-2.76 2.24,-5 5,-5 2.76,0 5,2.24 5,5 z"
         style="fill-rule:evenodd;stroke:#000000;stroke-width:1.00000003pt"
         transform="matrix(0.2,0,0,0.2,1.48,0.2)"
         inkscape:connector-curvature="0" />
    </marker>
    <marker
       inkscape:stockid="DotS"
       orient="auto"
       refY="0"
       refX="0"
       id="marker9886"
       style="overflow:visible">
      <path
         id="path9888"
         d="m -2.5,-1 c 0,2.76 -2.24,5 -5,5 -2.76,0 -5,-2.24 -5,-5 0,-2.76 2.24,-5 5,-5 2.76,0 5,2.24 5,5 z"
         style="fill-rule:evenodd;stroke:#000000;stroke-width:1.00000003pt"
         transform="matrix(0.2,0,0,0.2,1.48,0.2)"
         inkscape:connector-curvature="0" />
    </marker>
    <marker
       inkscape:stockid="DotS"
       orient="auto"
       refY="0"
       refX="0"
       id="marker9890"
       style="overflow:visible">
      <path
         id="path9892"
         d="m -2.5,-1 c 0,2.76 -2.24,5 -5,5 -2.76,0 -5,-2.24 -5,-5 0,-2.76 2.24,-5 5,-5 2.76,0 5,2.24 5,5 z"
         style="fill-rule:evenodd;stroke:#000000;stroke-width:1.00000003pt"
         transform="matrix(0.2,0,0,0.2,1.48,0.2)"
         inkscape:connector-curvature="0" />
    </marker>
    <marker
       inkscape:stockid="DotS"
       orient="auto"
       refY="0"
       refX="0"
       id="marker9898"
       style="overflow:visible">
      <path
         id="path9900"
         d="m -2.5,-1 c 0,2.76 -2.24,5 -5,5 -2.76,0 -5,-2.24 -5,-5 0,-2.76 2.24,-5 5,-5 2.76,0 5,2.24 5,5 z"
         style="fill-rule:evenodd;stroke:#000000;stroke-width:1.00000003pt"
         transform="matrix(0.2,0,0,0.2,1.48,0.2)"
         inkscape:connector-curvature="0" />
    </marker>
    <marker
       inkscape:stockid="DotS"
       orient="auto"
       refY="0"
       refX="0"
       id="marker9902"
       style="overflow:visible">
      <path
         id="path9904"
         d="m -2.5,-1 c 0,2.76 -2.24,5 -5,5 -2.76,0 -5,-2.24 -5,-5 0,-2.76 2.24,-5 5,-5 2.76,0 5,2.24 5,5 z"
         style="fill-rule:evenodd;stroke:#000000;stroke-width:1.00000003pt"
         transform="matrix(0.2,0,0,0.2,1.48,0.2)"
         inkscape:connector-curvature="0" />
    </marker>
    <marker
       inkscape:stockid="DotS"
       orient="auto"
       refY="0"
       refX="0"
       id="marker9906"
       style="overflow:visible">
      <path
         id="path9908"
         d="m -2.5,-1 c 0,2.76 -2.24,5 -5,5 -2.76,0 -5,-2.24 -5,-5 0,-2.76 2.24,-5 5,-5 2.76,0 5,2.24 5,5 z"
         style="fill-rule:evenodd;stroke:#000000;stroke-width:1.00000003pt"
         transform="matrix(0.2,0,0,0.2,1.48,0.2)"
         inkscape:connector-curvature="0" />
    </marker>
    <marker
       inkscape:stockid="DotS"
       orient="auto"
       refY="0"
       refX="0"
       id="marker9910"
       style="overflow:visible">
      <path
         id="path9912"
         d="m -2.5,-1 c 0,2.76 -2.24,5 -5,5 -2.76,0 -5,-2.24 -5,-5 0,-2.76 2.24,-5 5,-5 2.76,0 5,2.24 5,5 z"
         style="fill-rule:evenodd;stroke:#000000;stroke-width:1.00000003pt"
         transform="matrix(0.2,0,0,0.2,1.48,0.2)"
         inkscape:connector-curvature="0" />
    </marker>
    <marker
       inkscape:stockid="DotS"
       orient="auto"
       refY="0"
       refX="0"
       id="marker9914"
       style="overflow:visible">
      <path
         id="path9916"
         d="m -2.5,-1 c 0,2.76 -2.24,5 -5,5 -2.76,0 -5,-2.24 -5,-5 0,-2.76 2.24,-5 5,-5 2.76,0 5,2.24 5,5 z"
         style="fill-rule:evenodd;stroke:#000000;stroke-width:1.00000003pt"
         transform="matrix(0.2,0,0,0.2,1.48,0.2)"
         inkscape:connector-curvature="0" />
    </marker>
    <marker
       inkscape:stockid="DotS"
       orient="auto"
       refY="0"
       refX="0"
       id="marker9918"
       style="overflow:visible">
      <path
         id="path9920"
         d="m -2.5,-1 c 0,2.76 -2.24,5 -5,5 -2.76,0 -5,-2.24 -5,-5 0,-2.76 2.24,-5 5,-5 2.76,0 5,2.24 5,5 z"
         style="fill-rule:evenodd;stroke:#000000;stroke-width:1.00000003pt"
         transform="matrix(0.2,0,0,0.2,1.48,0.2)"
         inkscape:connector-curvature="0" />
    </marker>
  </defs>
  <sodipodi:namedview
     id="base"
     pagecolor="#ffffff"
     bordercolor="#666666"
     borderopacity="1.0"
     inkscape:pageopacity="0.0"
     inkscape:pageshadow="2"
     inkscape:zoom="1.138198"
     inkscape:cx="315.59371"
     inkscape:cy="67.881456"
     inkscape:document-units="px"
     inkscape:current-layer="layer1"
     showgrid="false"
     showborder="false"
     fit-margin-top="0"
     fit-margin-left="0"
     fit-margin-right="0"
     fit-margin-bottom="0"
     inkscape:window-width="1366"
     inkscape:window-height="708"
     inkscape:window-x="0"
     inkscape:window-y="23"
     inkscape:window-maximized="1" />
  <metadata
     id="metadata10041">
    <rdf:RDF>
      <cc:Work
         rdf:about="">
        <dc:format>image/svg+xml</dc:format>
        <dc:type
           rdf:resource="http://purl.org/dc/dcmitype/StillImage" />
        <dc:title></dc:title>
      </cc:Work>
    </rdf:RDF>
  </metadata>
  <g
     inkscape:label="Layer 1"
     inkscape:groupmode="layer"
     id="layer1"
     transform="translate(309.32616,-269.77428)">
    <g
       id="g1404"
       inkscape:export-xdpi="96"
       inkscape:export-ydpi="96">
      <g
         transform="matrix(1.137313,0,0,1.137313,-1540.962,-216.119)"
         id="g6875">
        <rect
           y="430.86749"
           x="1082.9348"
           height="27.644871"
           width="96.543121"
           id="rect6716"
           style="opacity:1;fill:#ffaaaa;fill-opacity:1;stroke:none;stroke-width:5;stroke-linecap:round;stroke-linejoin:round;stroke-miterlimit:4;stroke-dasharray:none;stroke-dashoffset:0;stroke-opacity:1" />
        <text
           id="text6718"
           y="-11615.255"
           x="1568.1039"
           style="font-style:normal;font-weight:normal;line-height:0%;font-family:sans-serif;letter-spacing:0px;word-spacing:0px;fill:#1a1a1a;fill-opacity:1;stroke:none;stroke-width:1px;stroke-linecap:butt;stroke-linejoin:miter;stroke-opacity:1;filter:url(#filter36766)"
           xml:space="preserve"
           transform="matrix(0.68167284,0,0,0.68167284,62.552362,8366.2512)"><tspan
             id="tspan6720"
             style="font-style:normal;font-variant:normal;font-weight:normal;font-stretch:normal;font-size:14.12873363px;line-height:1.25;font-family:monaco;-inkscape-font-specification:monaco;text-align:center;text-anchor:middle;fill:#1a1a1a"
             y="-11615.255"
             x="1568.1039"
             sodipodi:role="line">Add Raster</tspan></text>
        <text
           xml:space="preserve"
           style="font-style:normal;font-weight:normal;line-height:0%;font-family:sans-serif;letter-spacing:0px;word-spacing:0px;fill:#1a1a1a;fill-opacity:1;stroke:none;stroke-width:1px;stroke-linecap:butt;stroke-linejoin:miter;stroke-opacity:1"
           x="1131.4862"
           y="448.44739"
           id="text6722"><tspan
             sodipodi:role="line"
             x="1131.4862"
             y="448.44739"
             style="font-style:normal;font-variant:normal;font-weight:normal;font-stretch:normal;font-size:9.63117409px;line-height:1.25;font-family:monaco;-inkscape-font-specification:monaco;text-align:center;text-anchor:middle;fill:#1a1a1a"
             id="tspan6724">Add Raster</tspan></text>
      </g>
      <g
         id="g6726"
         transform="matrix(0.77527542,0,0,0.77527542,-1310.8045,9251.9022)">
        <rect
           style="opacity:1;fill:#d5d5ff;fill-opacity:1;stroke:none;stroke-width:5;stroke-linecap:round;stroke-linejoin:round;stroke-miterlimit:4;stroke-dasharray:none;stroke-dashoffset:0;stroke-opacity:1"
           id="rect6728"
           width="129.95695"
           height="40.554455"
           x="1503.2599"
           y="-11580.775" />
        <text
           xml:space="preserve"
           style="font-style:normal;font-weight:normal;line-height:0%;font-family:sans-serif;letter-spacing:0px;word-spacing:0px;fill:#1a1a1a;fill-opacity:1;stroke:none;stroke-width:1px;stroke-linecap:butt;stroke-linejoin:miter;stroke-opacity:1;filter:url(#filter36766)"
           x="1568.1039"
           y="-11555.255"
           id="text6730"><tspan
             sodipodi:role="line"
             x="1568.1039"
             y="-11555.255"
             style="font-style:normal;font-variant:normal;font-weight:normal;font-stretch:normal;font-size:14.12873363px;line-height:1.25;font-family:monaco;-inkscape-font-specification:monaco;text-align:center;text-anchor:middle;fill:#1a1a1a"
             id="tspan6732">Fill Voids</tspan></text>
        <text
           id="text6734"
           y="-11555.255"
           x="1568.1039"
           style="font-style:normal;font-weight:normal;line-height:0%;font-family:sans-serif;letter-spacing:0px;word-spacing:0px;fill:#1a1a1a;fill-opacity:1;stroke:none;stroke-width:1px;stroke-linecap:butt;stroke-linejoin:miter;stroke-opacity:1"
           xml:space="preserve"><tspan
             id="tspan6736"
             style="font-style:normal;font-variant:normal;font-weight:normal;font-stretch:normal;font-size:14.12873363px;line-height:1.25;font-family:monaco;-inkscape-font-specification:monaco;text-align:center;text-anchor:middle;fill:#1a1a1a"
             y="-11555.255"
             x="1568.1039"
             sodipodi:role="line">Fill Voids</tspan></text>
      </g>
      <g
         id="g1316">
        <path
           sodipodi:nodetypes="cc"
           inkscape:connector-curvature="0"
           id="path6882"
           d="m -187.68969,289.87849 h 29.90575"
           style="fill:none;fill-rule:evenodd;stroke:#333333;stroke-width:2.32593727;stroke-linecap:round;stroke-linejoin:round;stroke-miterlimit:4;stroke-dasharray:none;stroke-opacity:1" />
        <g
           id="g1310"
           transform="translate(13.124999)">
          <path
             style="fill:none;fill-rule:evenodd;stroke:#333333;stroke-width:2.32580519;stroke-linecap:round;stroke-linejoin:round;stroke-miterlimit:4;stroke-dasharray:none;stroke-opacity:1"
             d="m -177.16751,281.95998 7.73999,7.73987"
             id="path8374"
             inkscape:connector-curvature="0"
             sodipodi:nodetypes="cc" />
          <path
             sodipodi:nodetypes="cc"
             inkscape:connector-curvature="0"
             id="path8376"
             d="m -177.16751,297.73006 7.73999,-7.73987"
             style="fill:none;fill-rule:evenodd;stroke:#333333;stroke-width:2.32580519;stroke-linecap:round;stroke-linejoin:round;stroke-miterlimit:4;stroke-dasharray:none;stroke-opacity:1" />
        </g>
      </g>
      <g
         transform="matrix(0.87313959,0,0,0.87313959,-39.241232,53.360878)"
         id="g10540">
        <rect
           style="opacity:1;fill:#ffaaaa;fill-opacity:1;stroke:none;stroke-width:5;stroke-linecap:round;stroke-linejoin:round;stroke-miterlimit:4;stroke-dasharray:none;stroke-dashoffset:0;stroke-opacity:1"
           id="rect10521"
           width="140.82597"
           height="36.008987"
           x="56.673923"
           y="252.59575" />
        <text
           transform="matrix(0.88791691,0,0,0.88791691,-1264.9405,10587.592)"
           xml:space="preserve"
           style="font-style:normal;font-weight:normal;line-height:0%;font-family:sans-serif;letter-spacing:0px;word-spacing:0px;fill:#1a1a1a;fill-opacity:1;stroke:none;stroke-width:1px;stroke-linecap:butt;stroke-linejoin:miter;stroke-opacity:1;filter:url(#filter36766)"
           x="1568.1039"
           y="-11615.255"
           id="text10523"><tspan
             id="tspan10531"
             sodipodi:role="line"
             x="1568.1039"
             y="-11615.255"
             style="font-style:normal;font-variant:normal;font-weight:normal;font-stretch:normal;font-size:14.12873363px;line-height:1.25;font-family:monaco;-inkscape-font-specification:monaco;text-align:center;text-anchor:middle;fill:#1a1a1a">Terrain Analysis</tspan></text>
        <text
           id="text10527"
           y="274.21127"
           x="127.40544"
           style="font-style:normal;font-weight:normal;line-height:0%;font-family:sans-serif;letter-spacing:0px;word-spacing:0px;fill:#1a1a1a;fill-opacity:1;stroke:none;stroke-width:1px;stroke-linecap:butt;stroke-linejoin:miter;stroke-opacity:1"
           xml:space="preserve"><tspan
             id="tspan10529"
             style="font-style:normal;font-variant:normal;font-weight:normal;font-stretch:normal;font-size:12.54514122px;line-height:1.25;font-family:monaco;-inkscape-font-specification:monaco;text-align:center;text-anchor:middle;fill:#1a1a1a"
             y="274.21127"
             x="127.40544"
             sodipodi:role="line">Terrain Analysis</tspan></text>
      </g>
      <rect
         y="270.34741"
         x="7.0933213"
         height="129.20488"
         width="129.14212"
         id="rect10547"
         style="opacity:1;fill:none;fill-opacity:1;stroke:#1a1a1a;stroke-width:1.14627075;stroke-linecap:round;stroke-linejoin:round;stroke-miterlimit:4;stroke-dasharray:2.29254141, 2.29254141;stroke-dashoffset:0;stroke-opacity:1" />
      <g
         transform="translate(0,-20)"
         id="g3552">
        <g
           id="g11459"
           transform="matrix(0.87313959,0,0,0.87313959,-71.077665,67.284412)">
          <text
             id="text11461"
             y="-11555.255"
             x="1568.1039"
             style="font-style:normal;font-weight:normal;line-height:0%;font-family:sans-serif;letter-spacing:0px;word-spacing:0px;fill:#1a1a1a;fill-opacity:1;stroke:none;stroke-width:1px;stroke-linecap:butt;stroke-linejoin:miter;stroke-opacity:1;filter:url(#filter36766)"
             xml:space="preserve"
             transform="matrix(0.88791692,0,0,0.88791692,-1277.7888,10574.585)"><tspan
               id="tspan11463"
               style="font-style:normal;font-variant:normal;font-weight:normal;font-stretch:normal;font-size:14.12873363px;line-height:1.25;font-family:monaco;-inkscape-font-specification:monaco;text-align:center;text-anchor:middle;fill:#1a1a1a"
               y="-11555.255"
               x="1568.1039"
               sodipodi:role="line">Slope</tspan></text>
          <text
             xml:space="preserve"
             style="font-style:normal;font-weight:normal;line-height:0%;font-family:sans-serif;letter-spacing:0px;word-spacing:0px;fill:#1a1a1a;fill-opacity:1;stroke:none;stroke-width:1px;stroke-linecap:butt;stroke-linejoin:miter;stroke-opacity:1"
             x="114.55717"
             y="314.47867"
             id="text11465"><tspan
               sodipodi:role="line"
               x="114.55717"
               y="314.47867"
               style="font-style:normal;font-variant:normal;font-weight:normal;font-stretch:normal;font-size:12.54514122px;line-height:1.25;font-family:monaco;-inkscape-font-specification:monaco;text-align:center;text-anchor:middle;fill:#1a1a1a"
               id="tspan11467">Slope</tspan></text>
        </g>
        <g
           transform="matrix(0.87313959,0,0,0.87313959,-66.889603,86.174185)"
           id="g11469">
          <text
             transform="matrix(0.88791692,0,0,0.88791692,-1277.7888,10574.585)"
             xml:space="preserve"
             style="font-style:normal;font-weight:normal;line-height:0%;font-family:sans-serif;letter-spacing:0px;word-spacing:0px;fill:#1a1a1a;fill-opacity:1;stroke:none;stroke-width:1px;stroke-linecap:butt;stroke-linejoin:miter;stroke-opacity:1;filter:url(#filter36766)"
             x="1568.1039"
             y="-11555.255"
             id="text11471"><tspan
               sodipodi:role="line"
               x="1568.1039"
               y="-11555.255"
               style="font-style:normal;font-variant:normal;font-weight:normal;font-stretch:normal;font-size:14.12873363px;line-height:1.25;font-family:monaco;-inkscape-font-specification:monaco;text-align:center;text-anchor:middle;fill:#1a1a1a"
               id="tspan11473">Aspect</tspan></text>
          <text
             id="text11475"
             y="314.47867"
             x="114.55717"
             style="font-style:normal;font-weight:normal;line-height:0%;font-family:sans-serif;letter-spacing:0px;word-spacing:0px;fill:#1a1a1a;fill-opacity:1;stroke:none;stroke-width:1px;stroke-linecap:butt;stroke-linejoin:miter;stroke-opacity:1"
             xml:space="preserve"><tspan
               id="tspan11477"
               style="font-style:normal;font-variant:normal;font-weight:normal;font-stretch:normal;font-size:12.54514122px;line-height:1.25;font-family:monaco;-inkscape-font-specification:monaco;text-align:center;text-anchor:middle;fill:#1a1a1a"
               y="314.47867"
               x="114.55717"
               sodipodi:role="line">Aspect</tspan></text>
        </g>
        <g
           id="g11479"
           transform="matrix(0.87313959,0,0,0.87313959,-53.543843,105.00393)">
          <text
             id="text11481"
             y="-11555.255"
             x="1568.1039"
             style="font-style:normal;font-weight:normal;line-height:0%;font-family:sans-serif;letter-spacing:0px;word-spacing:0px;fill:#1a1a1a;fill-opacity:1;stroke:none;stroke-width:1px;stroke-linecap:butt;stroke-linejoin:miter;stroke-opacity:1;filter:url(#filter36766)"
             xml:space="preserve"
             transform="matrix(0.88791692,0,0,0.88791692,-1277.7888,10574.585)"><tspan
               id="tspan11483"
               style="font-style:normal;font-variant:normal;font-weight:normal;font-stretch:normal;font-size:14.12873363px;line-height:1.25;font-family:monaco;-inkscape-font-specification:monaco;text-align:center;text-anchor:middle;fill:#1a1a1a"
               y="-11555.255"
               x="1568.1039"
               sodipodi:role="line">Derivative</tspan></text>
          <text
             xml:space="preserve"
             style="font-style:normal;font-weight:normal;line-height:0%;font-family:sans-serif;letter-spacing:0px;word-spacing:0px;fill:#1a1a1a;fill-opacity:1;stroke:none;stroke-width:1px;stroke-linecap:butt;stroke-linejoin:miter;stroke-opacity:1"
             x="114.55717"
             y="314.47867"
             id="text11485"><tspan
               sodipodi:role="line"
               x="114.55717"
               y="314.47867"
               style="font-style:normal;font-variant:normal;font-weight:normal;font-stretch:normal;font-size:12.54514122px;line-height:1.25;font-family:monaco;-inkscape-font-specification:monaco;text-align:center;text-anchor:middle;fill:#1a1a1a"
               id="tspan11487">Derivative</tspan></text>
        </g>
        <g
           transform="matrix(0.87313959,0,0,0.87313959,-43.030462,121.24184)"
           id="g11489">
          <text
             transform="matrix(0.88791692,0,0,0.88791692,-1277.7888,10574.585)"
             xml:space="preserve"
             style="font-style:normal;font-weight:normal;line-height:0%;font-family:sans-serif;letter-spacing:0px;word-spacing:0px;fill:#1a1a1a;fill-opacity:1;stroke:none;stroke-width:1px;stroke-linecap:butt;stroke-linejoin:miter;stroke-opacity:1;filter:url(#filter36766)"
             x="1568.1039"
             y="-11555.255"
             id="text11491"><tspan
               sodipodi:role="line"
               x="1568.1039"
               y="-11555.255"
               style="font-style:normal;font-variant:normal;font-weight:normal;font-stretch:normal;font-size:14.12873363px;line-height:1.25;font-family:monaco;-inkscape-font-specification:monaco;text-align:center;text-anchor:middle;fill:#1a1a1a"
               id="tspan11493">Shaded Relief</tspan></text>
          <text
             id="text11495"
             y="314.47867"
             x="114.55717"
             style="font-style:normal;font-weight:normal;line-height:0%;font-family:sans-serif;letter-spacing:0px;word-spacing:0px;fill:#1a1a1a;fill-opacity:1;stroke:none;stroke-width:1px;stroke-linecap:butt;stroke-linejoin:miter;stroke-opacity:1"
             xml:space="preserve"><tspan
               id="tspan11497"
               style="font-style:normal;font-variant:normal;font-weight:normal;font-stretch:normal;font-size:12.54514122px;line-height:1.25;font-family:monaco;-inkscape-font-specification:monaco;text-align:center;text-anchor:middle;fill:#1a1a1a"
               y="314.47867"
               x="114.55717"
               sodipodi:role="line">Shaded Relief</tspan></text>
        </g>
        <g
           id="g11499"
           transform="matrix(0.87313959,0,0,0.87313959,-28.424776,137.99819)">
          <text
             id="text11501"
             y="-11555.255"
             x="1568.1039"
             style="font-style:normal;font-weight:normal;line-height:0%;font-family:sans-serif;letter-spacing:0px;word-spacing:0px;fill:#1a1a1a;fill-opacity:1;stroke:none;stroke-width:1px;stroke-linecap:butt;stroke-linejoin:miter;stroke-opacity:1;filter:url(#filter36766)"
             xml:space="preserve"
             transform="matrix(0.88791692,0,0,0.88791692,-1277.7888,10574.585)"><tspan
               id="tspan11503"
               style="font-style:normal;font-variant:normal;font-weight:normal;font-stretch:normal;font-size:14.12873363px;line-height:1.25;font-family:monaco;-inkscape-font-specification:monaco;text-align:center;text-anchor:middle;fill:#1a1a1a"
               y="-11555.255"
               x="1568.1039"
               sodipodi:role="line">TRI,TPI,Roughness</tspan></text>
          <text
             xml:space="preserve"
             style="font-style:normal;font-weight:normal;line-height:0%;font-family:sans-serif;letter-spacing:0px;word-spacing:0px;fill:#1a1a1a;fill-opacity:1;stroke:none;stroke-width:1px;stroke-linecap:butt;stroke-linejoin:miter;stroke-opacity:1"
             x="114.55717"
             y="314.47867"
             id="text11505"><tspan
               sodipodi:role="line"
               x="114.55717"
               y="314.47867"
               style="font-style:normal;font-variant:normal;font-weight:normal;font-stretch:normal;font-size:12.54514122px;line-height:1.25;font-family:monaco;-inkscape-font-specification:monaco;text-align:center;text-anchor:middle;fill:#1a1a1a"
               id="tspan11507">TRI,TPI,Roughness</tspan></text>
        </g>
      </g>
      <g
         transform="matrix(0.77527542,0,0,0.77527542,-975.51894,9251.9022)"
         id="g11603">
        <rect
           y="-11580.775"
           x="1503.2599"
           height="40.554455"
           width="129.95695"
           id="rect11605"
           style="opacity:1;fill:#d5d5ff;fill-opacity:1;stroke:none;stroke-width:5;stroke-linecap:round;stroke-linejoin:round;stroke-miterlimit:4;stroke-dasharray:none;stroke-dashoffset:0;stroke-opacity:1" />
        <text
           id="text11607"
           y="-11555.255"
           x="1568.1039"
           style="font-style:normal;font-weight:normal;line-height:0%;font-family:sans-serif;letter-spacing:0px;word-spacing:0px;fill:#1a1a1a;fill-opacity:1;stroke:none;stroke-width:1px;stroke-linecap:butt;stroke-linejoin:miter;stroke-opacity:1;filter:url(#filter36766)"
           xml:space="preserve"><tspan
             id="tspan11609"
             style="font-style:normal;font-variant:normal;font-weight:normal;font-stretch:normal;font-size:14.12873363px;line-height:1.25;font-family:monaco;-inkscape-font-specification:monaco;text-align:center;text-anchor:middle;fill:#1a1a1a"
             y="-11555.255"
             x="1568.1039"
             sodipodi:role="line">Vectorization</tspan></text>
        <text
           xml:space="preserve"
           style="font-style:normal;font-weight:normal;line-height:0%;font-family:sans-serif;letter-spacing:0px;word-spacing:0px;fill:#1a1a1a;fill-opacity:1;stroke:none;stroke-width:1px;stroke-linecap:butt;stroke-linejoin:miter;stroke-opacity:1"
           x="1568.1039"
           y="-11555.255"
           id="text11611"><tspan
             sodipodi:role="line"
             x="1568.1039"
             y="-11555.255"
             style="font-style:normal;font-variant:normal;font-weight:normal;font-stretch:normal;font-size:14.12873363px;line-height:1.25;font-family:monaco;-inkscape-font-specification:monaco;text-align:center;text-anchor:middle;fill:#1a1a1a"
             id="tspan11613">Vectorization</tspan></text>
      </g>
      <g
         transform="translate(153.74999)"
         id="g1326">
        <path
           style="fill:none;fill-rule:evenodd;stroke:#333333;stroke-width:2.32593727;stroke-linecap:round;stroke-linejoin:round;stroke-miterlimit:4;stroke-dasharray:none;stroke-opacity:1"
           d="m -187.68969,289.87849 h 29.90575"
           id="path1318"
           inkscape:connector-curvature="0"
           sodipodi:nodetypes="cc" />
        <g
           transform="translate(13.124999)"
           id="g1324">
          <path
             sodipodi:nodetypes="cc"
             inkscape:connector-curvature="0"
             id="path1320"
             d="m -177.16751,281.95998 7.73999,7.73987"
             style="fill:none;fill-rule:evenodd;stroke:#333333;stroke-width:2.32580519;stroke-linecap:round;stroke-linejoin:round;stroke-miterlimit:4;stroke-dasharray:none;stroke-opacity:1" />
          <path
             style="fill:none;fill-rule:evenodd;stroke:#333333;stroke-width:2.32580519;stroke-linecap:round;stroke-linejoin:round;stroke-miterlimit:4;stroke-dasharray:none;stroke-opacity:1"
             d="m -177.16751,297.73006 7.73999,-7.73987"
             id="path1322"
             inkscape:connector-curvature="0"
             sodipodi:nodetypes="cc" />
        </g>
      </g>
      <g
         id="g1336"
         transform="translate(335.62499)">
        <path
           sodipodi:nodetypes="cc"
           inkscape:connector-curvature="0"
           id="path1328"
           d="m -187.68969,289.87849 h 29.90575"
           style="fill:none;fill-rule:evenodd;stroke:#333333;stroke-width:2.32593727;stroke-linecap:round;stroke-linejoin:round;stroke-miterlimit:4;stroke-dasharray:none;stroke-opacity:1" />
        <g
           id="g1334"
           transform="translate(13.124999)">
          <path
             style="fill:none;fill-rule:evenodd;stroke:#333333;stroke-width:2.32580519;stroke-linecap:round;stroke-linejoin:round;stroke-miterlimit:4;stroke-dasharray:none;stroke-opacity:1"
             d="m -177.16751,281.95998 7.73999,7.73987"
             id="path1330"
             inkscape:connector-curvature="0"
             sodipodi:nodetypes="cc" />
          <path
             sodipodi:nodetypes="cc"
             inkscape:connector-curvature="0"
             id="path1332"
             d="m -177.16751,297.73006 7.73999,-7.73987"
             style="fill:none;fill-rule:evenodd;stroke:#333333;stroke-width:2.32580519;stroke-linecap:round;stroke-linejoin:round;stroke-miterlimit:4;stroke-dasharray:none;stroke-opacity:1" />
        </g>
      </g>
    </g>
  </g>
</svg>
