<?xml version="1.0" encoding="UTF-8" standalone="no"?>
<!-- Created with Inkscape (http://www.inkscape.org/) -->

<svg
   xmlns:dc="http://purl.org/dc/elements/1.1/"
   xmlns:cc="http://creativecommons.org/ns#"
   xmlns:rdf="http://www.w3.org/1999/02/22-rdf-syntax-ns#"
   xmlns:svg="http://www.w3.org/2000/svg"
   xmlns="http://www.w3.org/2000/svg"
   xmlns:xlink="http://www.w3.org/1999/xlink"
   xmlns:sodipodi="http://sodipodi.sourceforge.net/DTD/sodipodi-0.dtd"
   xmlns:inkscape="http://www.inkscape.org/namespaces/inkscape"
   width="161.52242mm"
   height="24.249109mm"
   viewBox="0 0 572.32352 85.92204"
   id="svg61170"
   version="1.1"
   inkscape:version="0.91 r13725"
   sodipodi:docname="from-necessity-to-infrastructure.svg">
  <defs
     id="defs61172">
    <filter
       inkscape:collect="always"
       style="color-interpolation-filters:sRGB"
       id="filter9948"
       x="-0.060000721"
       width="1.1200014"
       y="-0.059999276"
       height="1.1199986">
      <feGaussianBlur
         inkscape:collect="always"
         stdDeviation="1.8000218"
         id="feGaussianBlur9950" />
    </filter>
    <radialGradient
       inkscape:collect="always"
       xlink:href="#linearGradient6549"
       id="radialGradient6555"
       cx="-196.30548"
       cy="-26.230572"
       fx="-196.30548"
       fy="-26.230572"
       r="8.4664373"
       gradientTransform="matrix(-0.29764698,-3.9289326,2.3469876,-0.17780181,-193.17239,-791.24114)"
       gradientUnits="userSpaceOnUse" />
    <linearGradient
       inkscape:collect="always"
       id="linearGradient6549">
      <stop
         style="stop-color:#ffff00;stop-opacity:1;"
         offset="0"
         id="stop6551" />
      <stop
         style="stop-color:#ffff00;stop-opacity:0;"
         offset="1"
         id="stop6553" />
    </linearGradient>
    <clipPath
       clipPathUnits="userSpaceOnUse"
       id="clipPath6545-9">
      <rect
         style="opacity:1;fill:#cccccc;fill-opacity:1;stroke:none;stroke-width:0.2;stroke-linecap:round;stroke-linejoin:round;stroke-miterlimit:4;stroke-dasharray:none;stroke-dashoffset:0;stroke-opacity:1"
         id="rect6547-1"
         width="71.568138"
         height="71.568138"
         x="-196.50887"
         y="94.819542"
         rx="0"
         ry="0"
         transform="matrix(0.70710678,0.70710678,-0.70710678,0.70710678,0,0)" />
    </clipPath>
    <radialGradient
       inkscape:collect="always"
       xlink:href="#linearGradient6549"
       id="radialGradient6594"
       gradientUnits="userSpaceOnUse"
       gradientTransform="matrix(-0.29764698,-3.9289326,2.3469876,-0.17780181,-193.17239,-791.24114)"
       cx="-196.30548"
       cy="-26.230572"
       fx="-196.30548"
       fy="-26.230572"
       r="8.4664373" />
    <filter
       inkscape:collect="always"
       style="color-interpolation-filters:sRGB"
       id="filter6581"
       x="-0.12001453"
       width="1.2400291"
       y="-0.11998547"
       height="1.2399709">
      <feGaussianBlur
         inkscape:collect="always"
         stdDeviation="3.6191047"
         id="feGaussianBlur6583" />
    </filter>
    <filter
       inkscape:collect="always"
       style="color-interpolation-filters:sRGB"
       id="filter54097"
       x="-0.12852792"
       width="1.2570558"
       y="-0.11253333"
       height="1.2250667">
      <feGaussianBlur
         inkscape:collect="always"
         stdDeviation="4.22"
         id="feGaussianBlur54099" />
    </filter>
    <filter
       inkscape:collect="always"
       style="color-interpolation-filters:sRGB"
       id="filter9932"
       x="-0.060000721"
       width="1.1200014"
       y="-0.059999276"
       height="1.1199986">
      <feGaussianBlur
         inkscape:collect="always"
         stdDeviation="1.8000218"
         id="feGaussianBlur9934" />
    </filter>
    <filter
       inkscape:collect="always"
       style="color-interpolation-filters:sRGB"
       id="filter59573"
       x="-0.11428571"
       width="1.2285714"
       y="-0.12631579"
       height="1.2526315">
      <feGaussianBlur
         inkscape:collect="always"
         stdDeviation="4"
         id="feGaussianBlur59575" />
    </filter>
    <filter
       inkscape:collect="always"
       style="color-interpolation-filters:sRGB"
       id="filter59942"
       x="-0.11165319"
       width="1.2233064"
       y="-0.12969559"
       height="1.2593912">
      <feGaussianBlur
         inkscape:collect="always"
         stdDeviation="1.442187"
         id="feGaussianBlur59944" />
    </filter>
    <filter
       inkscape:collect="always"
       style="color-interpolation-filters:sRGB"
       id="filter60108"
       x="-0.119995"
       width="1.23999"
       y="-0.120005"
       height="1.24001">
      <feGaussianBlur
         inkscape:collect="always"
         stdDeviation="2.1154127"
         id="feGaussianBlur60110" />
    </filter>
  </defs>
  <sodipodi:namedview
     id="base"
     pagecolor="#ffffff"
     bordercolor="#666666"
     borderopacity="1.0"
     inkscape:pageopacity="0.0"
     inkscape:pageshadow="2"
     inkscape:zoom="0.75058594"
     inkscape:cx="337.4147"
     inkscape:cy="88.664899"
     inkscape:document-units="px"
     inkscape:current-layer="layer1"
     showgrid="false"
     fit-margin-top="0"
     fit-margin-left="0"
     fit-margin-right="0"
     fit-margin-bottom="0"
     showborder="false"
     inkscape:window-width="1366"
     inkscape:window-height="713"
     inkscape:window-x="0"
     inkscape:window-y="27"
     inkscape:window-maximized="1" />
  <metadata
     id="metadata61175">
    <rdf:RDF>
      <cc:Work
         rdf:about="">
        <dc:format>image/svg+xml</dc:format>
        <dc:type
           rdf:resource="http://purl.org/dc/dcmitype/StillImage" />
        <dc:title></dc:title>
      </cc:Work>
    </rdf:RDF>
  </metadata>
  <g
     inkscape:label="Layer 1"
     inkscape:groupmode="layer"
     id="layer1"
     transform="translate(-37.585299,-535.10506)">
    <g
       transform="translate(-858.6183,62.661976)"
       id="g60898"
       inkscape:export-xdpi="90"
       inkscape:export-ydpi="90">
      <path
         inkscape:connector-curvature="0"
         id="path4531"
         d="m 1003.0292,510.75924 c 0,0.0309 -0.01,0.0594 -0.01,0.0895 0,0.0483 0,0.0958 -0.014,0.14257 -0.048,0.23921 -0.1664,0.45069 -0.3343,0.61464 l -8.95504,8.95502 c -0.2321,0.23207 -0.5362,0.34771 -0.8404,0.34771 -0.3041,0 -0.6083,-0.11564 -0.84033,-0.34771 -0.46414,-0.46415 -0.46414,-1.21581 0,-1.67996 l 6.93527,-6.93368 -18.71318,0 c -0.65582,0 -1.18809,-0.53226 -1.18809,-1.18809 0,-0.65582 0.53227,-1.18809 1.18809,-1.18809 l 18.71718,0 -6.93374,-6.93368 c -0.46413,-0.46414 -0.46413,-1.21581 0,-1.67995 0.4642,-0.46415 1.2158,-0.46415 1.68,0 l 8.96054,8.96056 c 0.096,0.0958 0.1695,0.20831 0.2266,0.32791 0.01,0.0174 0.021,0.0349 0.029,0.0531 0.02,0.0475 0.032,0.0966 0.046,0.14653 0.01,0.0261 0.017,0.0499 0.023,0.0776 0.016,0.0768 0.024,0.15524 0.024,0.23524 l 0,7.9e-4 z"
         style="clip-rule:evenodd;fill-rule:evenodd" />
      <g
         transform="translate(-1.0159757e-5,0)"
         id="g60709">
        <g
           id="g34558"
           transform="matrix(1.1812222,0,0,1.1812222,-126.58994,-282.55407)">
          <path
             style="fill:#333333;filter:url(#filter9948)"
             inkscape:connector-curvature="0"
             id="path6100"
             d="m 647.23931,323.38195 c -1.52019,-8.15999 -7.92697,-14.39975 -15.93294,-15.92093 -6.08474,-1.19815 -12.2515,-1.75922 -18.25523,-1.75922 -6.16574,0 -12.33149,0.56107 -18.41523,1.75922 -8.16699,1.52118 -14.33174,7.84095 -15.85392,15.84092 -2.32129,12.15948 -2.32129,24.56098 0,36.64045 1.52118,8.241 7.84595,14.40074 15.85392,15.92193 6.08374,1.27815 12.24949,1.83922 18.41523,1.83922 6.16475,0 12.24849,-0.56107 18.33424,-1.76021 8.16799,-1.6002 14.33374,-7.83995 15.85393,-15.91993 2.40229,-12.16148 2.40229,-24.56198 0,-36.64145 z"
             transform="matrix(0.67054484,0,0,0.67054484,484.70716,437.0761)" />
          <g
             transform="matrix(0.59862592,0.59862592,-0.59862592,0.59862592,703.95967,-148.46097)"
             id="g6596">
            <path
               style="fill:#666666"
               inkscape:connector-curvature="0"
               id="path6102"
               d="m 849.55362,490.81461 c -5.42158,-3.71876 -12.50452,-3.62521 -17.8404,0.007 -4.07893,2.73683 -7.84698,5.87641 -11.20949,9.23892 -3.45325,3.45325 -6.59226,7.22073 -9.32853,11.2991 -3.72212,5.42605 -3.6353,12.41826 -0.007,17.75133 5.51007,8.11024 12.45578,15.05595 20.52121,20.52121 5.46751,3.76358 12.45971,3.67115 17.7967,0.0381 4.12318,-2.69146 7.89066,-5.83047 11.34391,-9.28372 3.45269,-3.45269 6.54577,-7.17425 9.28261,-11.2543 3.67843,-5.47087 3.63699,-12.41882 -0.037,-17.79558 -5.46584,-8.15674 -12.41098,-15.10188 -20.52178,-20.52178 z" />
            <g
               id="g6585"
               transform="matrix(0.85738414,0,0,0.85738414,96.53167,28.261752)">
              <g
                 id="g6557">
                <g
                   id="g6515"
                   transform="matrix(0.2480154,-0.2480154,0.2480154,0.2480154,925.16292,539.96978)"
                   style="fill:#37abc8">
                  <path
                     style="clip-rule:evenodd;fill:#37abc8;fill-rule:evenodd"
                     inkscape:connector-curvature="0"
                     d="m -152.047,-30.649 c 0.254,13.881 -11.318,26.542 -26.345,28.78 -15.229,2.27 -29.737,-5.224 -35.149,-18.117 -3.025,-7.208 -2.597,-14.425 -0.203,-21.666 3.156,-9.551 8.152,-18.309 13.747,-26.807 4.69,-7.122 9.911,-13.909 15.351,-20.562 0.627,-0.767 0.953,-0.597 1.464,0.009 2.954,3.504 5.768,7.099 8.481,10.763 6.769,9.139 13.003,18.556 17.646,28.789 2.286,5.038 4.12,10.203 4.77,15.664 0.125,1.044 0.162,2.098 0.238,3.147 z m -46.374,-23.579 c -0.322,0.385 -0.442,0.485 -0.508,0.609 -2.813,5.243 -5.431,10.543 -6.945,16.268 -1.755,6.644 -1.64,12.644 2.301,18.41 1.485,2.176 3.858,4.004 7.179,4.477 2.264,0.42 4.545,-0.659 5.674,-2.267 1.233,-1.759 0.67,-3.396 -0.482,-4.966 -0.817,-1.114 -1.676,-2.201 -2.482,-3.322 -3.873,-5.397 -6.03,-11.294 -6.169,-17.789 -0.082,-3.758 0.587,-7.434 1.432,-11.42 z"
                     id="path6517" />
                </g>
                <g
                   style="fill:url(#radialGradient6555);fill-opacity:1"
                   transform="matrix(0.2480154,-0.2480154,0.2480154,0.2480154,924.98614,539.96978)"
                   id="g6541"
                   clip-path="url(#clipPath6545-9)">
                  <path
                     id="path6543"
                     d="m -198.421,-54.228 c -0.322,0.385 -0.442,0.485 -0.508,0.609 -2.813,5.243 -5.431,10.543 -6.945,16.268 -1.755,6.644 -1.64,12.644 2.301,18.41 1.485,2.176 3.858,4.004 7.179,4.477 2.264,0.42 4.545,-0.659 5.674,-2.267 1.233,-1.759 0.67,-3.396 -0.482,-4.966 -0.817,-1.114 -1.676,-2.201 -2.482,-3.322 -3.873,-5.397 -6.03,-11.294 -6.169,-17.789 -0.082,-3.758 0.587,-7.434 1.432,-11.42 z"
                     inkscape:connector-curvature="0"
                     style="clip-rule:evenodd;fill:url(#radialGradient6594);fill-opacity:1;fill-rule:evenodd"
                     sodipodi:nodetypes="cccccccccc" />
                </g>
              </g>
              <g
                 id="g6565"
                 transform="matrix(0.2480154,-0.2480154,0.2480154,0.2480154,925.36047,540.19998)"
                 style="fill:#37abc8;filter:url(#filter6581)">
                <path
                   style="clip-rule:evenodd;fill:#37abc8;fill-rule:evenodd"
                   inkscape:connector-curvature="0"
                   d="m -152.047,-30.649 c 0.254,13.881 -11.318,26.542 -26.345,28.78 -15.229,2.27 -29.737,-5.224 -35.149,-18.117 -3.025,-7.208 -2.597,-14.425 -0.203,-21.666 3.156,-9.551 8.152,-18.309 13.747,-26.807 4.69,-7.122 9.911,-13.909 15.351,-20.562 0.627,-0.767 0.953,-0.597 1.464,0.009 2.954,3.504 5.768,7.099 8.481,10.763 6.769,9.139 13.003,18.556 17.646,28.789 2.286,5.038 4.12,10.203 4.77,15.664 0.125,1.044 0.162,2.098 0.238,3.147 z m -46.374,-23.579 c -0.322,0.385 -0.442,0.485 -0.508,0.609 -2.813,5.243 -5.431,10.543 -6.945,16.268 -1.755,6.644 -1.64,12.644 2.301,18.41 1.485,2.176 3.858,4.004 7.179,4.477 2.264,0.42 4.545,-0.659 5.674,-2.267 1.233,-1.759 0.67,-3.396 -0.482,-4.966 -0.817,-1.114 -1.676,-2.201 -2.482,-3.322 -3.873,-5.397 -6.03,-11.294 -6.169,-17.789 -0.082,-3.758 0.587,-7.434 1.432,-11.42 z"
                   id="path6567" />
              </g>
            </g>
          </g>
        </g>
        <text
           xml:space="preserve"
           style="font-style:normal;font-weight:normal;font-size:31.68234253px;line-height:125%;font-family:sans-serif;text-align:center;letter-spacing:0px;word-spacing:0px;text-anchor:middle;fill:#000000;fill-opacity:1;stroke:none;stroke-width:1px;stroke-linecap:butt;stroke-linejoin:miter;stroke-opacity:1"
           x="931.18463"
           y="557.69977"
           id="text34720"
           sodipodi:linespacing="125%"><tspan
             sodipodi:role="line"
             id="tspan34722"
             x="931.18463"
             y="557.69977"
             style="font-style:normal;font-variant:normal;font-weight:bold;font-stretch:normal;font-size:11.8808794px;font-family:Purisa;-inkscape-font-specification:'Purisa Bold';text-align:center;text-anchor:middle">necessities</tspan></text>
      </g>
      <g
         transform="translate(-17.332471,0)"
         id="g60725">
        <text
           sodipodi:linespacing="125%"
           id="text34901"
           y="557.62848"
           x="1064.3508"
           style="font-style:normal;font-weight:normal;font-size:31.68234253px;line-height:125%;font-family:sans-serif;text-align:center;letter-spacing:0px;word-spacing:0px;text-anchor:middle;fill:#000000;fill-opacity:1;stroke:none;stroke-width:1px;stroke-linecap:butt;stroke-linejoin:miter;stroke-opacity:1"
           xml:space="preserve"><tspan
             style="font-style:normal;font-variant:normal;font-weight:bold;font-stretch:normal;font-size:11.8808794px;font-family:Purisa;-inkscape-font-specification:'Purisa Bold';text-align:center;text-anchor:middle"
             y="557.62848"
             x="1064.3508"
             id="tspan34903"
             sodipodi:role="line">ideas</tspan></text>
        <g
           id="g54557"
           transform="matrix(1.1812221,0,0,1.1812221,-278.75976,-87.712336)">
          <g
             transform="matrix(0.42329245,-0.73316403,0.73316403,0.42329245,271.84784,1017.6293)"
             id="g54446">
            <path
               transform="matrix(0.3960293,0.68594286,-0.68594286,0.3960293,1030.9224,24.410534)"
               d="m 647.23931,323.38195 c -1.52019,-8.15999 -7.92697,-14.39975 -15.93294,-15.92093 -6.08474,-1.19815 -12.2515,-1.75922 -18.25523,-1.75922 -6.16574,0 -12.33149,0.56107 -18.41523,1.75922 -8.16699,1.52118 -14.33174,7.84095 -15.85392,15.84092 -2.32129,12.15948 -2.32129,24.56098 0,36.64045 1.52118,8.241 7.84595,14.40074 15.85392,15.92193 6.08374,1.27815 12.24949,1.83922 18.41523,1.83922 6.16475,0 12.24849,-0.56107 18.33424,-1.76021 8.16799,-1.6002 14.33374,-7.83995 15.85393,-15.91993 2.40229,-12.16148 2.40229,-24.56198 0,-36.64145 z"
               id="path54448"
               inkscape:connector-curvature="0"
               style="fill:#333333;filter:url(#filter9948)" />
            <path
               style="fill:#666666"
               inkscape:connector-curvature="0"
               id="path54450"
               d="m 1065.4266,596.44844 c 4.9952,-4.27435 6.7381,-11.14017 4.6109,-17.23424 -1.5878,-4.64829 -3.6452,-9.10053 -6.0228,-13.21875 -2.4419,-4.22934 -5.2685,-8.23649 -8.4997,-11.93509 -4.2779,-4.99965 -11.0543,-6.72551 -17.1446,-4.60141 -9.26,3.22323 -17.7667,8.13459 -25.1333,14.51069 -5.0504,4.30712 -6.7708,11.08498 -4.6429,17.18043 1.5326,4.67928 3.5896,9.13083 6.0314,13.36018 2.4414,4.22866 5.2356,8.17956 8.4683,11.87914 4.3324,4.96905 11.0543,6.72729 17.1988,4.57014 9.2934,-3.16847 17.7995,-8.07943 25.1339,-14.51109 z" />
          </g>
          <g
             style="fill:#808080;filter:url(#filter54097)"
             transform="matrix(0.40381201,0,0,0.40381201,1117.0073,481.06319)"
             id="g54452">
            <path
               style="fill:#808080"
               id="path54454"
               d="m 50,85.2 c -4.4,0 -8,-1 -10.9,-3.1 -0.7,-0.5 -0.8,-1.4 -0.3,-2.1 0.5,-0.7 1.4,-0.8 2.1,-0.3 2.4,1.7 5.3,2.5 9.1,2.5 3.7,0 6.7,-0.8 9,-2.5 0.7,-0.5 1.6,-0.3 2.1,0.3 0.5,0.7 0.3,1.6 -0.3,2.1 -2.8,2.1 -6.4,3.1 -10.8,3.1 z"
               inkscape:connector-curvature="0" />
            <path
               style="fill:#808080"
               id="path54456"
               d="m 61.2,85.4 c -0.5,-0.7 -1.4,-0.8 -2.1,-0.3 -2.7,1.9 -6.1,2.2 -9,2.2 -4.2,0 -6.9,-0.7 -9.1,-2.3 -0.7,-0.5 -1.6,-0.3 -2.1,0.3 -0.5,0.7 -0.3,1.6 0.3,2.1 1.6,1.1 3.2,1.8 4.9,2.2 0.3,3 2.9,5.4 6,5.4 3.1,0 5.7,-2.4 6,-5.4 1.7,-0.4 3.3,-1.1 4.8,-2.2 0.6,-0.4 0.8,-1.4 0.3,-2 z M 50,92 c -1.3,0 -2.3,-0.8 -2.8,-1.9 0.9,0.1 1.9,0.1 2.8,0.1 0.9,0 1.8,0 2.8,-0.1 C 52.4,91.2 51.3,92 50,92 Z"
               inkscape:connector-curvature="0" />
            <g
               style="fill:#808080"
               id="g54458">
              <path
                 style="fill:#808080"
                 sodipodi:nodetypes="sscssscsscscccscc"
                 id="path54460"
                 d="m 50,20.3 c -13.8,0 -23.7,10.2 -23.7,24.3 0,8.2 3.7,13.5 6.9,18.1 2.5,3.6 4.6,6.7 4.6,10.4 0,4.9 8.1,7 12.2,7 4.1,0 12.2,-2.1 12.2,-7 0,-3.8 2.2,-6.9 4.6,-10.4 3.2,-4.6 6.9,-9.9 6.9,-18.1 0,-14 -9.9,-24.3 -23.7,-24.3 z M 38.1,34.9 c -0.3,0.4 -0.7,0.6 -1.2,0.6 -0.3,0 -0.7,-0.1 -0.9,-0.3 -0.6,-0.5 -0.8,-1.5 -0.2,-2.1 3.2,-4 6.8,-6.3 11.4,-7.1 0.8,-0.1 1.6,0.4 1.7,1.2 0.1,0.8 -0.4,1.6 -1.2,1.7 -4,0.8 -6.9,2.6 -9.6,6 z"
                 inkscape:connector-curvature="0" />
              <polygon
                 style="fill:#808080"
                 id="polygon54462"
                 points="50,65 51.4,59.3 48.6,59.3 " />
              <polygon
                 style="fill:#808080"
                 id="polygon54464"
                 points="54.3,56.3 55,54.3 45,54.3 45.7,56.3 " />
            </g>
            <g
               style="fill:#808080"
               id="g54466">
              <path
                 style="fill:#808080"
                 id="path54468"
                 d="M 52,7 C 52,6.5 51.8,6 51.4,5.6 50.7,4.8 49.3,4.8 48.6,5.6 48.2,6 48,6.5 48,7 c 0,0.5 0.2,1 0.6,1.4 0.3,0.3 0.7,0.5 1.1,0.6 -1,0.1 -1.7,1 -1.7,2 0,1 0.8,1.9 1.8,2 -0.5,0 -0.9,0.2 -1.2,0.5 -0.4,0.4 -0.6,0.9 -0.6,1.4 0,0.5 0.2,1 0.6,1.4 0.4,0.4 0.9,0.6 1.4,0.6 0.5,0 1,-0.2 1.4,-0.6 C 51.8,15.9 52,15.4 52,14.9 52,14.4 51.8,13.8 51.4,13.5 51.1,13.2 50.6,13 50.2,13 51.2,12.9 52,12.1 52,11 52,10 51.3,9.2 50.3,9 50.7,8.9 51.1,8.7 51.4,8.4 51.8,8 52,7.5 52,7 Z"
                 inkscape:connector-curvature="0" />
              <path
                 style="fill:#808080"
                 id="path54470"
                 d="m 32.8,17.9 c 0.7,-0.6 0.9,-1.7 0.4,-2.6 -0.6,-0.8 -1.6,-1.1 -2.5,-0.7 0,0 0.1,0 0.1,-0.1 0.4,-0.4 0.6,-0.9 0.6,-1.4 0,-0.5 -0.2,-1 -0.6,-1.4 C 30,11 28.7,11 28,11.7 c -0.4,0.4 -0.6,0.9 -0.6,1.4 0,0.5 0.2,1 0.6,1.4 0.4,0.4 0.9,0.6 1.4,0.6 0.3,0 0.6,-0.1 0.8,-0.2 -0.7,0.6 -0.9,1.7 -0.3,2.6 0.4,0.6 1,0.9 1.7,0.9 0.3,0 0.6,-0.1 0.9,-0.2 0,0 -0.1,0.1 -0.1,0.1 -0.4,0.4 -0.6,0.9 -0.6,1.4 0,0.5 0.2,1 0.6,1.4 0.4,0.4 0.9,0.6 1.4,0.6 0.5,0 1,-0.2 1.4,-0.6 0.4,-0.4 0.6,-0.9 0.6,-1.4 0,-0.5 -0.2,-1 -0.6,-1.4 -0.8,-0.6 -1.7,-0.7 -2.4,-0.4 z"
                 inkscape:connector-curvature="0" />
              <path
                 style="fill:#808080"
                 id="path54472"
                 d="m 15.4,31.5 c 0.5,0 1,-0.2 1.4,-0.6 0.1,-0.1 0.2,-0.2 0.3,-0.3 -0.2,0.9 0.2,1.9 1.1,2.3 0.3,0.1 0.5,0.2 0.8,0.2 0.7,0 1.3,-0.4 1.7,-1 -0.1,0.2 -0.1,0.4 -0.1,0.6 0,0.5 0.2,1.1 0.6,1.4 0.4,0.4 0.9,0.6 1.4,0.6 0.5,0 1,-0.2 1.4,-0.6 0.4,-0.4 0.6,-0.9 0.6,-1.4 0,-0.5 -0.2,-1 -0.6,-1.4 -0.8,-0.8 -2.1,-0.8 -2.8,0 -0.1,0.1 -0.2,0.2 -0.3,0.3 0.2,-0.9 -0.2,-1.9 -1.1,-2.3 -0.9,-0.4 -2,-0.1 -2.5,0.7 0,-0.2 0.1,-0.3 0.1,-0.5 0,-0.5 -0.2,-1 -0.6,-1.4 -0.7,-0.8 -2.1,-0.8 -2.8,0 -0.4,0.4 -0.6,0.9 -0.6,1.4 0,0.5 0.2,1 0.6,1.4 0.3,0.4 0.8,0.6 1.4,0.6 z"
                 inkscape:connector-curvature="0" />
              <path
                 style="fill:#808080"
                 id="path54474"
                 d="m 21.8,51 c 0.4,-0.4 0.6,-0.9 0.6,-1.4 0,-0.5 -0.2,-1 -0.6,-1.4 -0.8,-0.7 -2.1,-0.7 -2.8,0 -0.4,0.4 -0.6,0.9 -0.6,1.4 -0.3,-0.9 -1.2,-1.5 -2.2,-1.3 -1,0.2 -1.7,1 -1.7,2 -0.1,-0.3 -0.3,-0.6 -0.5,-0.8 -0.8,-0.8 -2.1,-0.8 -2.8,0 -0.4,0.4 -0.6,0.9 -0.6,1.4 0,0.5 0.2,1 0.6,1.4 0.4,0.4 0.9,0.6 1.4,0.6 0.5,0 1,-0.2 1.4,-0.6 0.4,-0.4 0.6,-0.8 0.6,-1.4 0.3,0.8 1,1.3 1.9,1.3 0.1,0 0.2,0 0.3,0 1,-0.2 1.7,-1 1.7,-2 0.1,0.3 0.3,0.6 0.5,0.8 0.4,0.4 0.9,0.6 1.4,0.6 0.5,0 1,-0.2 1.4,-0.6 z"
                 inkscape:connector-curvature="0" />
              <path
                 style="fill:#808080"
                 id="path54476"
                 d="m 26.3,63.6 c -0.4,0.4 -0.6,0.9 -0.6,1.4 0,0.4 0.1,0.8 0.3,1.1 -0.8,-0.6 -1.8,-0.6 -2.6,0.1 -0.8,0.7 -0.9,1.8 -0.3,2.6 -0.8,-0.6 -2,-0.6 -2.7,0.1 -0.4,0.4 -0.6,0.9 -0.6,1.4 0,0.5 0.2,1 0.6,1.4 0.4,0.4 0.9,0.6 1.4,0.6 0.5,0 1,-0.2 1.4,-0.6 0.4,-0.4 0.6,-0.9 0.6,-1.4 0,-0.4 -0.1,-0.8 -0.3,-1.1 0.4,0.3 0.8,0.5 1.3,0.5 0.5,0 0.9,-0.2 1.3,-0.5 0.7,-0.7 0.9,-1.8 0.3,-2.6 0.4,0.3 0.8,0.5 1.3,0.5 0.5,0 1,-0.2 1.4,-0.6 0.4,-0.4 0.6,-0.9 0.6,-1.4 0,-0.5 -0.2,-1 -0.6,-1.4 -0.7,-0.8 -2.1,-0.8 -2.8,-0.1 z"
                 inkscape:connector-curvature="0" />
              <path
                 style="fill:#808080"
                 id="path54478"
                 d="m 69.8,14.9 c 0.3,0.1 0.5,0.2 0.8,0.2 0.5,0 1,-0.2 1.4,-0.6 0.4,-0.4 0.6,-0.9 0.6,-1.4 0,-0.5 -0.2,-1 -0.6,-1.4 -0.7,-0.8 -2.1,-0.8 -2.8,0 -0.4,0.4 -0.6,0.9 -0.6,1.4 0,0.5 0.2,1 0.6,1.4 0,0 0.1,0 0.1,0.1 -0.9,-0.4 -1.9,-0.1 -2.5,0.7 -0.6,0.8 -0.4,2 0.4,2.6 -0.7,-0.3 -1.7,-0.2 -2.3,0.4 -0.4,0.4 -0.6,0.9 -0.6,1.4 0,0.5 0.2,1 0.6,1.4 0.4,0.4 0.9,0.6 1.4,0.6 0.5,0 1,-0.2 1.4,-0.6 0.4,-0.4 0.6,-0.9 0.6,-1.4 0,-0.5 -0.2,-1 -0.6,-1.4 0,0 -0.1,-0.1 -0.1,-0.1 0.3,0.1 0.6,0.2 0.9,0.2 0.7,0 1.3,-0.3 1.7,-0.9 0.5,-0.9 0.3,-1.9 -0.4,-2.6 z"
                 inkscape:connector-curvature="0" />
              <path
                 style="fill:#808080"
                 id="path54480"
                 d="m 77.4,34.6 c 0.5,0 1,-0.2 1.4,-0.6 0.4,-0.4 0.6,-0.9 0.6,-1.4 0,-0.2 0,-0.4 -0.1,-0.6 0.4,0.6 1,1 1.7,1 0.3,0 0.5,0 0.8,-0.2 0.9,-0.4 1.4,-1.4 1.1,-2.3 0.1,0.1 0.2,0.2 0.2,0.3 0.4,0.4 0.9,0.6 1.4,0.6 0.5,0 1,-0.2 1.4,-0.6 0.4,-0.4 0.6,-0.9 0.6,-1.4 0,-0.5 -0.2,-1 -0.6,-1.4 -0.8,-0.7 -2.1,-0.7 -2.8,0 -0.4,0.4 -0.6,0.9 -0.6,1.4 0,0.2 0,0.4 0.1,0.5 -0.5,-0.8 -1.6,-1.2 -2.5,-0.8 -0.9,0.4 -1.4,1.4 -1.1,2.3 -0.1,-0.1 -0.2,-0.2 -0.2,-0.3 -0.8,-0.8 -2.1,-0.8 -2.8,0 -0.4,0.4 -0.6,0.9 -0.6,1.4 0,0.5 0.2,1 0.6,1.4 0.4,0.5 0.9,0.7 1.4,0.7 z"
                 inkscape:connector-curvature="0" />
              <path
                 style="fill:#808080"
                 id="path54482"
                 d="m 88.8,49.4 c -0.7,-0.8 -2.1,-0.8 -2.8,0 -0.2,0.2 -0.4,0.5 -0.5,0.8 0,-1 -0.7,-1.8 -1.7,-2 -1,-0.2 -1.9,0.4 -2.2,1.4 0,-0.5 -0.2,-1 -0.6,-1.4 -0.8,-0.7 -2.1,-0.7 -2.8,0 -0.4,0.4 -0.6,0.9 -0.6,1.4 0,0.5 0.2,1 0.6,1.4 0.4,0.4 0.9,0.6 1.4,0.6 0.5,0 1,-0.2 1.4,-0.6 0.2,-0.2 0.4,-0.5 0.5,-0.8 0,1 0.7,1.8 1.7,2 0.1,0 0.2,0 0.3,0 0.9,0 1.6,-0.5 1.9,-1.3 0,0.5 0.2,1 0.6,1.4 0.4,0.4 0.9,0.6 1.4,0.6 0.5,0 1,-0.2 1.4,-0.6 0.4,-0.4 0.6,-0.9 0.6,-1.4 0,-0.6 -0.2,-1.1 -0.6,-1.5 z"
                 inkscape:connector-curvature="0" />
              <path
                 style="fill:#808080"
                 id="path54484"
                 d="m 76.9,68.7 c 0.6,-0.8 0.5,-1.9 -0.3,-2.6 -0.7,-0.7 -1.8,-0.7 -2.6,-0.1 0.2,-0.3 0.3,-0.7 0.3,-1.1 0,-0.5 -0.2,-1 -0.6,-1.4 -0.7,-0.7 -2.1,-0.7 -2.8,0 -0.4,0.4 -0.6,0.9 -0.6,1.4 0,0.5 0.2,1 0.6,1.4 0.4,0.4 0.9,0.6 1.4,0.6 0.5,0 0.9,-0.2 1.3,-0.5 -0.5,0.8 -0.4,1.9 0.3,2.6 0.4,0.3 0.9,0.5 1.3,0.5 0.4,0 0.9,-0.2 1.3,-0.5 -0.2,0.3 -0.3,0.7 -0.3,1.1 0,0.5 0.2,1 0.6,1.4 0.4,0.4 0.9,0.6 1.4,0.6 0.5,0 1,-0.2 1.4,-0.6 0.4,-0.4 0.6,-0.9 0.6,-1.4 0,-0.5 -0.2,-1 -0.6,-1.4 -0.7,-0.6 -1.9,-0.6 -2.7,0 z"
                 inkscape:connector-curvature="0" />
            </g>
          </g>
          <g
             id="g54486"
             transform="matrix(0.40381201,0,0,0.40381201,1117.0073,481.06319)"
             style="fill:#37abc8;fill-opacity:1">
            <path
               inkscape:connector-curvature="0"
               d="m 50,85.2 c -4.4,0 -8,-1 -10.9,-3.1 -0.7,-0.5 -0.8,-1.4 -0.3,-2.1 0.5,-0.7 1.4,-0.8 2.1,-0.3 2.4,1.7 5.3,2.5 9.1,2.5 3.7,0 6.7,-0.8 9,-2.5 0.7,-0.5 1.6,-0.3 2.1,0.3 0.5,0.7 0.3,1.6 -0.3,2.1 -2.8,2.1 -6.4,3.1 -10.8,3.1 z"
               id="path54488"
               style="fill:#37abc8;fill-opacity:1" />
            <path
               inkscape:connector-curvature="0"
               d="m 61.2,85.4 c -0.5,-0.7 -1.4,-0.8 -2.1,-0.3 -2.7,1.9 -6.1,2.2 -9,2.2 -4.2,0 -6.9,-0.7 -9.1,-2.3 -0.7,-0.5 -1.6,-0.3 -2.1,0.3 -0.5,0.7 -0.3,1.6 0.3,2.1 1.6,1.1 3.2,1.8 4.9,2.2 0.3,3 2.9,5.4 6,5.4 3.1,0 5.7,-2.4 6,-5.4 1.7,-0.4 3.3,-1.1 4.8,-2.2 0.6,-0.4 0.8,-1.4 0.3,-2 z M 50,92 c -1.3,0 -2.3,-0.8 -2.8,-1.9 0.9,0.1 1.9,0.1 2.8,0.1 0.9,0 1.8,0 2.8,-0.1 C 52.4,91.2 51.3,92 50,92 Z"
               id="path54490"
               style="fill:#37abc8;fill-opacity:1" />
            <g
               id="g54492"
               style="fill:#37abc8;fill-opacity:1">
              <path
                 inkscape:connector-curvature="0"
                 d="m 50,20.3 c -13.8,0 -23.7,10.2 -23.7,24.3 0,8.2 3.7,13.5 6.9,18.1 2.5,3.6 4.6,6.7 4.6,10.4 0,4.9 8.1,7 12.2,7 4.1,0 12.2,-2.1 12.2,-7 0,-3.8 2.2,-6.9 4.6,-10.4 3.2,-4.6 6.9,-9.9 6.9,-18.1 0,-14 -9.9,-24.3 -23.7,-24.3 z M 38.1,34.9 c -0.3,0.4 -0.7,0.6 -1.2,0.6 -0.3,0 -0.7,-0.1 -0.9,-0.3 -0.6,-0.5 -0.8,-1.5 -0.2,-2.1 3.2,-4 6.8,-6.3 11.4,-7.1 0.8,-0.1 1.6,0.4 1.7,1.2 0.1,0.8 -0.4,1.6 -1.2,1.7 -4,0.8 -6.9,2.6 -9.6,6 z"
                 id="path54494"
                 sodipodi:nodetypes="sscssscsscscccscc"
                 style="fill:#37abc8;fill-opacity:1" />
              <polygon
                 points="48.6,59.3 50,65 51.4,59.3 "
                 id="polygon54496"
                 style="fill:#37abc8;fill-opacity:1" />
              <polygon
                 points="45,54.3 45.7,56.3 54.3,56.3 55,54.3 "
                 id="polygon54498"
                 style="fill:#37abc8;fill-opacity:1" />
            </g>
            <g
               id="g54500"
               style="fill:#37abc8;fill-opacity:1">
              <path
                 inkscape:connector-curvature="0"
                 d="M 52,7 C 52,6.5 51.8,6 51.4,5.6 50.7,4.8 49.3,4.8 48.6,5.6 48.2,6 48,6.5 48,7 c 0,0.5 0.2,1 0.6,1.4 0.3,0.3 0.7,0.5 1.1,0.6 -1,0.1 -1.7,1 -1.7,2 0,1 0.8,1.9 1.8,2 -0.5,0 -0.9,0.2 -1.2,0.5 -0.4,0.4 -0.6,0.9 -0.6,1.4 0,0.5 0.2,1 0.6,1.4 0.4,0.4 0.9,0.6 1.4,0.6 0.5,0 1,-0.2 1.4,-0.6 C 51.8,15.9 52,15.4 52,14.9 52,14.4 51.8,13.8 51.4,13.5 51.1,13.2 50.6,13 50.2,13 51.2,12.9 52,12.1 52,11 52,10 51.3,9.2 50.3,9 50.7,8.9 51.1,8.7 51.4,8.4 51.8,8 52,7.5 52,7 Z"
                 id="path54502"
                 style="fill:#37abc8;fill-opacity:1" />
              <path
                 inkscape:connector-curvature="0"
                 d="m 32.8,17.9 c 0.7,-0.6 0.9,-1.7 0.4,-2.6 -0.6,-0.8 -1.6,-1.1 -2.5,-0.7 0,0 0.1,0 0.1,-0.1 0.4,-0.4 0.6,-0.9 0.6,-1.4 0,-0.5 -0.2,-1 -0.6,-1.4 C 30,11 28.7,11 28,11.7 c -0.4,0.4 -0.6,0.9 -0.6,1.4 0,0.5 0.2,1 0.6,1.4 0.4,0.4 0.9,0.6 1.4,0.6 0.3,0 0.6,-0.1 0.8,-0.2 -0.7,0.6 -0.9,1.7 -0.3,2.6 0.4,0.6 1,0.9 1.7,0.9 0.3,0 0.6,-0.1 0.9,-0.2 0,0 -0.1,0.1 -0.1,0.1 -0.4,0.4 -0.6,0.9 -0.6,1.4 0,0.5 0.2,1 0.6,1.4 0.4,0.4 0.9,0.6 1.4,0.6 0.5,0 1,-0.2 1.4,-0.6 0.4,-0.4 0.6,-0.9 0.6,-1.4 0,-0.5 -0.2,-1 -0.6,-1.4 -0.8,-0.6 -1.7,-0.7 -2.4,-0.4 z"
                 id="path54504"
                 style="fill:#37abc8;fill-opacity:1" />
              <path
                 inkscape:connector-curvature="0"
                 d="m 15.4,31.5 c 0.5,0 1,-0.2 1.4,-0.6 0.1,-0.1 0.2,-0.2 0.3,-0.3 -0.2,0.9 0.2,1.9 1.1,2.3 0.3,0.1 0.5,0.2 0.8,0.2 0.7,0 1.3,-0.4 1.7,-1 -0.1,0.2 -0.1,0.4 -0.1,0.6 0,0.5 0.2,1.1 0.6,1.4 0.4,0.4 0.9,0.6 1.4,0.6 0.5,0 1,-0.2 1.4,-0.6 0.4,-0.4 0.6,-0.9 0.6,-1.4 0,-0.5 -0.2,-1 -0.6,-1.4 -0.8,-0.8 -2.1,-0.8 -2.8,0 -0.1,0.1 -0.2,0.2 -0.3,0.3 0.2,-0.9 -0.2,-1.9 -1.1,-2.3 -0.9,-0.4 -2,-0.1 -2.5,0.7 0,-0.2 0.1,-0.3 0.1,-0.5 0,-0.5 -0.2,-1 -0.6,-1.4 -0.7,-0.8 -2.1,-0.8 -2.8,0 -0.4,0.4 -0.6,0.9 -0.6,1.4 0,0.5 0.2,1 0.6,1.4 0.3,0.4 0.8,0.6 1.4,0.6 z"
                 id="path54506"
                 style="fill:#37abc8;fill-opacity:1" />
              <path
                 inkscape:connector-curvature="0"
                 d="m 21.8,51 c 0.4,-0.4 0.6,-0.9 0.6,-1.4 0,-0.5 -0.2,-1 -0.6,-1.4 -0.8,-0.7 -2.1,-0.7 -2.8,0 -0.4,0.4 -0.6,0.9 -0.6,1.4 -0.3,-0.9 -1.2,-1.5 -2.2,-1.3 -1,0.2 -1.7,1 -1.7,2 -0.1,-0.3 -0.3,-0.6 -0.5,-0.8 -0.8,-0.8 -2.1,-0.8 -2.8,0 -0.4,0.4 -0.6,0.9 -0.6,1.4 0,0.5 0.2,1 0.6,1.4 0.4,0.4 0.9,0.6 1.4,0.6 0.5,0 1,-0.2 1.4,-0.6 0.4,-0.4 0.6,-0.8 0.6,-1.4 0.3,0.8 1,1.3 1.9,1.3 0.1,0 0.2,0 0.3,0 1,-0.2 1.7,-1 1.7,-2 0.1,0.3 0.3,0.6 0.5,0.8 0.4,0.4 0.9,0.6 1.4,0.6 0.5,0 1,-0.2 1.4,-0.6 z"
                 id="path54508"
                 style="fill:#37abc8;fill-opacity:1" />
              <path
                 inkscape:connector-curvature="0"
                 d="m 26.3,63.6 c -0.4,0.4 -0.6,0.9 -0.6,1.4 0,0.4 0.1,0.8 0.3,1.1 -0.8,-0.6 -1.8,-0.6 -2.6,0.1 -0.8,0.7 -0.9,1.8 -0.3,2.6 -0.8,-0.6 -2,-0.6 -2.7,0.1 -0.4,0.4 -0.6,0.9 -0.6,1.4 0,0.5 0.2,1 0.6,1.4 0.4,0.4 0.9,0.6 1.4,0.6 0.5,0 1,-0.2 1.4,-0.6 0.4,-0.4 0.6,-0.9 0.6,-1.4 0,-0.4 -0.1,-0.8 -0.3,-1.1 0.4,0.3 0.8,0.5 1.3,0.5 0.5,0 0.9,-0.2 1.3,-0.5 0.7,-0.7 0.9,-1.8 0.3,-2.6 0.4,0.3 0.8,0.5 1.3,0.5 0.5,0 1,-0.2 1.4,-0.6 0.4,-0.4 0.6,-0.9 0.6,-1.4 0,-0.5 -0.2,-1 -0.6,-1.4 -0.7,-0.8 -2.1,-0.8 -2.8,-0.1 z"
                 id="path54510"
                 style="fill:#37abc8;fill-opacity:1" />
              <path
                 inkscape:connector-curvature="0"
                 d="m 69.8,14.9 c 0.3,0.1 0.5,0.2 0.8,0.2 0.5,0 1,-0.2 1.4,-0.6 0.4,-0.4 0.6,-0.9 0.6,-1.4 0,-0.5 -0.2,-1 -0.6,-1.4 -0.7,-0.8 -2.1,-0.8 -2.8,0 -0.4,0.4 -0.6,0.9 -0.6,1.4 0,0.5 0.2,1 0.6,1.4 0,0 0.1,0 0.1,0.1 -0.9,-0.4 -1.9,-0.1 -2.5,0.7 -0.6,0.8 -0.4,2 0.4,2.6 -0.7,-0.3 -1.7,-0.2 -2.3,0.4 -0.4,0.4 -0.6,0.9 -0.6,1.4 0,0.5 0.2,1 0.6,1.4 0.4,0.4 0.9,0.6 1.4,0.6 0.5,0 1,-0.2 1.4,-0.6 0.4,-0.4 0.6,-0.9 0.6,-1.4 0,-0.5 -0.2,-1 -0.6,-1.4 0,0 -0.1,-0.1 -0.1,-0.1 0.3,0.1 0.6,0.2 0.9,0.2 0.7,0 1.3,-0.3 1.7,-0.9 0.5,-0.9 0.3,-1.9 -0.4,-2.6 z"
                 id="path54512"
                 style="fill:#37abc8;fill-opacity:1" />
              <path
                 inkscape:connector-curvature="0"
                 d="m 77.4,34.6 c 0.5,0 1,-0.2 1.4,-0.6 0.4,-0.4 0.6,-0.9 0.6,-1.4 0,-0.2 0,-0.4 -0.1,-0.6 0.4,0.6 1,1 1.7,1 0.3,0 0.5,0 0.8,-0.2 0.9,-0.4 1.4,-1.4 1.1,-2.3 0.1,0.1 0.2,0.2 0.2,0.3 0.4,0.4 0.9,0.6 1.4,0.6 0.5,0 1,-0.2 1.4,-0.6 0.4,-0.4 0.6,-0.9 0.6,-1.4 0,-0.5 -0.2,-1 -0.6,-1.4 -0.8,-0.7 -2.1,-0.7 -2.8,0 -0.4,0.4 -0.6,0.9 -0.6,1.4 0,0.2 0,0.4 0.1,0.5 -0.5,-0.8 -1.6,-1.2 -2.5,-0.8 -0.9,0.4 -1.4,1.4 -1.1,2.3 -0.1,-0.1 -0.2,-0.2 -0.2,-0.3 -0.8,-0.8 -2.1,-0.8 -2.8,0 -0.4,0.4 -0.6,0.9 -0.6,1.4 0,0.5 0.2,1 0.6,1.4 0.4,0.5 0.9,0.7 1.4,0.7 z"
                 id="path54514"
                 style="fill:#37abc8;fill-opacity:1" />
              <path
                 inkscape:connector-curvature="0"
                 d="m 88.8,49.4 c -0.7,-0.8 -2.1,-0.8 -2.8,0 -0.2,0.2 -0.4,0.5 -0.5,0.8 0,-1 -0.7,-1.8 -1.7,-2 -1,-0.2 -1.9,0.4 -2.2,1.4 0,-0.5 -0.2,-1 -0.6,-1.4 -0.8,-0.7 -2.1,-0.7 -2.8,0 -0.4,0.4 -0.6,0.9 -0.6,1.4 0,0.5 0.2,1 0.6,1.4 0.4,0.4 0.9,0.6 1.4,0.6 0.5,0 1,-0.2 1.4,-0.6 0.2,-0.2 0.4,-0.5 0.5,-0.8 0,1 0.7,1.8 1.7,2 0.1,0 0.2,0 0.3,0 0.9,0 1.6,-0.5 1.9,-1.3 0,0.5 0.2,1 0.6,1.4 0.4,0.4 0.9,0.6 1.4,0.6 0.5,0 1,-0.2 1.4,-0.6 0.4,-0.4 0.6,-0.9 0.6,-1.4 0,-0.6 -0.2,-1.1 -0.6,-1.5 z"
                 id="path54516"
                 style="fill:#37abc8;fill-opacity:1" />
              <path
                 inkscape:connector-curvature="0"
                 d="m 76.9,68.7 c 0.6,-0.8 0.5,-1.9 -0.3,-2.6 -0.7,-0.7 -1.8,-0.7 -2.6,-0.1 0.2,-0.3 0.3,-0.7 0.3,-1.1 0,-0.5 -0.2,-1 -0.6,-1.4 -0.7,-0.7 -2.1,-0.7 -2.8,0 -0.4,0.4 -0.6,0.9 -0.6,1.4 0,0.5 0.2,1 0.6,1.4 0.4,0.4 0.9,0.6 1.4,0.6 0.5,0 0.9,-0.2 1.3,-0.5 -0.5,0.8 -0.4,1.9 0.3,2.6 0.4,0.3 0.9,0.5 1.3,0.5 0.4,0 0.9,-0.2 1.3,-0.5 -0.2,0.3 -0.3,0.7 -0.3,1.1 0,0.5 0.2,1 0.6,1.4 0.4,0.4 0.9,0.6 1.4,0.6 0.5,0 1,-0.2 1.4,-0.6 0.4,-0.4 0.6,-0.9 0.6,-1.4 0,-0.5 -0.2,-1 -0.6,-1.4 -0.7,-0.6 -1.9,-0.6 -2.7,0 z"
                 id="path54518"
                 style="fill:#37abc8;fill-opacity:1" />
            </g>
          </g>
        </g>
      </g>
      <g
         transform="translate(-16.117466,0)"
         id="g60767">
        <g
           id="g59577"
           transform="translate(-3.6757022,0)">
          <g
             transform="translate(509,-130)"
             id="g32326">
            <path
               style="fill:#333333;filter:url(#filter9932)"
               inkscape:connector-curvature="0"
               id="path9930"
               d="m 292.46178,323.43445 c -1.52019,-8.15999 -7.92697,-14.39975 -15.93294,-15.92093 -6.08474,-1.19815 -12.2515,-1.75922 -18.25523,-1.75922 -6.16574,0 -12.33149,0.56107 -18.41523,1.75922 -8.16699,1.52118 -14.33174,7.84095 -15.85392,15.84092 -2.32129,12.15948 -2.32129,24.56098 0,36.64045 1.52118,8.241 7.84595,14.40074 15.85392,15.92193 6.08374,1.27815 12.24949,1.83922 18.41523,1.83922 6.16475,0 12.24849,-0.56107 18.33424,-1.76021 8.16799,-1.6002 14.33374,-7.83995 15.85393,-15.91993 2.40229,-12.16148 2.40229,-24.56198 0,-36.64145 z"
               transform="matrix(0.79205859,0,0,0.79205859,465.70756,363.6895)" />
            <path
               d="m 697.35443,619.86853 c -1.20408,-6.46319 -6.27863,-11.40544 -12.61983,-12.6103 -4.81947,-0.94901 -9.7039,-1.39341 -14.45921,-1.39341 -4.88363,0 -9.76726,0.4444 -14.58594,1.39341 -6.46873,1.20486 -11.35158,6.21049 -12.55723,12.54693 -1.8386,9.63102 -1.8386,19.45374 0,29.02138 1.20486,6.52736 6.21445,11.40623 12.55723,12.61111 4.81868,1.01237 9.70231,1.45677 14.58594,1.45677 4.88284,0 9.70152,-0.4444 14.52179,-1.39419 6.46953,-1.26746 11.35317,-6.2097 12.55725,-12.60952 1.90275,-9.63261 1.90275,-19.45453 0,-29.02218 z"
               id="path3918"
               inkscape:connector-curvature="0"
               style="fill:#666666" />
          </g>
          <g
             style="fill:#cccccc;filter:url(#filter59573)"
             transform="matrix(0.52318295,0,0,0.52318295,487.63616,295.46463)"
             id="g59532">
            <path
               style="fill:#cccccc"
               inkscape:connector-curvature="0"
               d="m 1329.8842,381.31537 -16,0 c -1.1,0 -2,-0.896 -2,-2 l 0,-16 c 0,-1.104 0.9,-2 2,-2 l 16,0 c 1.1,0 2,0.896 2,2 l 0,16 c 0,1.104 -0.9,2 -2,2 z m -14,-4 12,0 0,-12 -12,0 0,12 z"
               id="path59472" />
            <path
               style="fill:#cccccc"
               inkscape:connector-curvature="0"
               d="m 1287.8842,369.31537 24,0 0,4 -24,0 0,-4 z"
               id="path59474" />
            <path
               style="fill:#cccccc"
               inkscape:connector-curvature="0"
               d="m 1331.8842,369.31537 24,0 0,4 -24,0 0,-4 z"
               id="path59476" />
            <path
               style="fill:#cccccc"
               inkscape:connector-curvature="0"
               d="m 1357.9682,377.31537 c -3.312,0 -6,-2.692 -6,-6 0,-3.308 2.688,-6 6,-6 3.304,0 6,2.692 6,6 0,3.308 -2.688,6 -6,6 z m 0,-8 c -1.1,0 -2,0.9 -2,2 0,1.1 0.9,2 2,2 1.092,0 2,-0.9 2,-2 0,-1.1 -0.9,-2 -2,-2 z"
               id="path59478" />
            <path
               style="fill:#cccccc"
               inkscape:connector-curvature="0"
               d="m 1285.9682,377.31537 c -3.312,0 -6,-2.692 -6,-6 0,-3.308 2.688,-6 6,-6 3.304,0 6,2.692 6,6 0,3.308 -2.688,6 -6,6 z m 0,-8 c -1.1,0 -2,0.9 -2,2 0,1.1 0.9,2 2,2 1.092,0 2,-0.9 2,-2 0,-1.1 -0.9,-2 -2,-2 z"
               id="path59480" />
            <path
               style="fill:#cccccc"
               inkscape:connector-curvature="0"
               d="m 1361.2202,408.06737 c -1.1,0 -2,-0.9 -2,-2 0,-16.236 -11.584,-30.036 -27.532,-32.832 -1.084,-0.188 -1.82,-1.224 -1.624,-2.316 0.188,-1.092 1.236,-1.82 2.312,-1.624 17.876,3.132 30.844,18.596 30.844,36.768 0,1.108 -0.892,2.004 -2,2.004 z"
               id="path59482" />
            <path
               style="fill:#cccccc"
               inkscape:connector-curvature="0"
               d="m 1282.5442,408.06737 c -1.104,0 -2,-0.9 -2,-2 0,-18.172 12.972,-33.648 30.848,-36.768 1.068,-0.2 2.12,0.524 2.312,1.616 0.192,1.088 -0.54,2.124 -1.624,2.316 -15.956,2.796 -27.536,16.604 -27.536,32.836 0,1.104 -0.896,2 -2,2 z"
               id="path59484" />
            <path
               style="fill:#cccccc"
               inkscape:connector-curvature="0"
               d="m 1334.8842,434.56737 c -0.156,0 -0.32,-0.024 -0.492,-0.064 -1.072,-0.272 -1.72,-1.36 -1.44,-2.428 l 4.776,-18.904 -15.84,-24.208 -15.844,24.208 4.78,18.904 c 0.264,1.08 -0.376,2.156 -1.444,2.428 -1.1,0.272 -2.164,-0.384 -2.428,-1.444 l -5,-19.752 c -0.14,-0.548 -0.044,-1.12 0.264,-1.584 l 18,-27.5 c 0.736,-1.128 2.608,-1.128 3.344,0 l 18,27.5 c 0.312,0.464 0.412,1.048 0.264,1.584 l -5,19.752 c -0.232,0.904 -1.044,1.508 -1.94,1.508 z"
               id="path59486" />
            <path
               style="fill:#cccccc"
               inkscape:connector-curvature="0"
               d="m 1321.8842,423.31537 c -1.1,0 -2,-0.9 -2,-2 l 0,-32 c 0,-1.104 0.9,-2 2,-2 1.1,0 2,0.896 2,2 l 0,32 c 0,1.1 -0.9,2 -2,2 z"
               id="path59488" />
            <path
               style="fill:#cccccc"
               inkscape:connector-curvature="0"
               d="m 1321.8842,431.06737 c -3.308,0 -6,-2.696 -6,-6 0,-3.312 2.692,-6 6,-6 3.312,0 6,2.688 6,6 0,3.304 -2.688,6 -6,6 z m 0,-8 c -1.1,0 -2,0.904 -2,2 0,1.1 0.9,2 2,2 1.1,0 2,-0.9 2,-2 0,-1.1 -0.9,-2 -2,-2 z"
               id="path59490" />
            <path
               style="fill:#cccccc"
               inkscape:connector-curvature="0"
               d="m 1339.8842,437.31537 -36,0 c -1.1,0 -2,-0.9 -2,-2 0,-1.1 0.9,-2 2,-2 l 36,0 c 1.1,0 2,0.9 2,2 0,1.1 -0.9,2 -2,2 z"
               id="path59492" />
          </g>
          <g
             id="g59545"
             transform="matrix(0.52318295,0,0,0.52318295,487.63616,295.46463)"
             style="fill:#333333">
            <path
               id="path59547"
               d="m 1329.8842,381.31537 -16,0 c -1.1,0 -2,-0.896 -2,-2 l 0,-16 c 0,-1.104 0.9,-2 2,-2 l 16,0 c 1.1,0 2,0.896 2,2 l 0,16 c 0,1.104 -0.9,2 -2,2 z m -14,-4 12,0 0,-12 -12,0 0,12 z"
               inkscape:connector-curvature="0"
               style="fill:#333333" />
            <path
               id="path59549"
               d="m 1287.8842,369.31537 24,0 0,4 -24,0 0,-4 z"
               inkscape:connector-curvature="0"
               style="fill:#333333" />
            <path
               id="path59551"
               d="m 1331.8842,369.31537 24,0 0,4 -24,0 0,-4 z"
               inkscape:connector-curvature="0"
               style="fill:#333333" />
            <path
               id="path59553"
               d="m 1357.9682,377.31537 c -3.312,0 -6,-2.692 -6,-6 0,-3.308 2.688,-6 6,-6 3.304,0 6,2.692 6,6 0,3.308 -2.688,6 -6,6 z m 0,-8 c -1.1,0 -2,0.9 -2,2 0,1.1 0.9,2 2,2 1.092,0 2,-0.9 2,-2 0,-1.1 -0.9,-2 -2,-2 z"
               inkscape:connector-curvature="0"
               style="fill:#333333" />
            <path
               id="path59555"
               d="m 1285.9682,377.31537 c -3.312,0 -6,-2.692 -6,-6 0,-3.308 2.688,-6 6,-6 3.304,0 6,2.692 6,6 0,3.308 -2.688,6 -6,6 z m 0,-8 c -1.1,0 -2,0.9 -2,2 0,1.1 0.9,2 2,2 1.092,0 2,-0.9 2,-2 0,-1.1 -0.9,-2 -2,-2 z"
               inkscape:connector-curvature="0"
               style="fill:#333333" />
            <path
               id="path59557"
               d="m 1361.2202,408.06737 c -1.1,0 -2,-0.9 -2,-2 0,-16.236 -11.584,-30.036 -27.532,-32.832 -1.084,-0.188 -1.82,-1.224 -1.624,-2.316 0.188,-1.092 1.236,-1.82 2.312,-1.624 17.876,3.132 30.844,18.596 30.844,36.768 0,1.108 -0.892,2.004 -2,2.004 z"
               inkscape:connector-curvature="0"
               style="fill:#333333" />
            <path
               id="path59559"
               d="m 1282.5442,408.06737 c -1.104,0 -2,-0.9 -2,-2 0,-18.172 12.972,-33.648 30.848,-36.768 1.068,-0.2 2.12,0.524 2.312,1.616 0.192,1.088 -0.54,2.124 -1.624,2.316 -15.956,2.796 -27.536,16.604 -27.536,32.836 0,1.104 -0.896,2 -2,2 z"
               inkscape:connector-curvature="0"
               style="fill:#333333" />
            <path
               id="path59561"
               d="m 1334.8842,434.56737 c -0.156,0 -0.32,-0.024 -0.492,-0.064 -1.072,-0.272 -1.72,-1.36 -1.44,-2.428 l 4.776,-18.904 -15.84,-24.208 -15.844,24.208 4.78,18.904 c 0.264,1.08 -0.376,2.156 -1.444,2.428 -1.1,0.272 -2.164,-0.384 -2.428,-1.444 l -5,-19.752 c -0.14,-0.548 -0.044,-1.12 0.264,-1.584 l 18,-27.5 c 0.736,-1.128 2.608,-1.128 3.344,0 l 18,27.5 c 0.312,0.464 0.412,1.048 0.264,1.584 l -5,19.752 c -0.232,0.904 -1.044,1.508 -1.94,1.508 z"
               inkscape:connector-curvature="0"
               style="fill:#333333" />
            <path
               id="path59563"
               d="m 1321.8842,423.31537 c -1.1,0 -2,-0.9 -2,-2 l 0,-32 c 0,-1.104 0.9,-2 2,-2 1.1,0 2,0.896 2,2 l 0,32 c 0,1.1 -0.9,2 -2,2 z"
               inkscape:connector-curvature="0"
               style="fill:#333333" />
            <path
               id="path59565"
               d="m 1321.8842,431.06737 c -3.308,0 -6,-2.696 -6,-6 0,-3.312 2.692,-6 6,-6 3.312,0 6,2.688 6,6 0,3.304 -2.688,6 -6,6 z m 0,-8 c -1.1,0 -2,0.904 -2,2 0,1.1 0.9,2 2,2 1.1,0 2,-0.9 2,-2 0,-1.1 -0.9,-2 -2,-2 z"
               inkscape:connector-curvature="0"
               style="fill:#333333" />
            <path
               id="path59567"
               d="m 1339.8842,437.31537 -36,0 c -1.1,0 -2,-0.9 -2,-2 0,-1.1 0.9,-2 2,-2 l 36,0 c 1.1,0 2,0.9 2,2 0,1.1 -0.9,2 -2,2 z"
               inkscape:connector-curvature="0"
               style="fill:#333333" />
          </g>
        </g>
        <text
           xml:space="preserve"
           style="font-style:normal;font-weight:normal;font-size:31.68234253px;line-height:125%;font-family:sans-serif;text-align:center;letter-spacing:0px;word-spacing:0px;text-anchor:middle;fill:#000000;fill-opacity:1;stroke:none;stroke-width:1px;stroke-linecap:butt;stroke-linejoin:miter;stroke-opacity:1"
           x="1175.6919"
           y="555.41864"
           id="text59608"
           sodipodi:linespacing="125%"><tspan
             sodipodi:role="line"
             id="tspan59610"
             x="1175.6919"
             y="555.41864"
             style="font-style:normal;font-variant:normal;font-weight:bold;font-stretch:normal;font-size:11.8808794px;font-family:Purisa;-inkscape-font-specification:'Purisa Bold';text-align:center;text-anchor:middle">design</tspan></text>
      </g>
      <path
         inkscape:connector-curvature="0"
         id="path59668"
         d="m 1227.5954,510.75924 c 0,0.0309 -0.01,0.0594 -0.01,0.0895 0,0.0483 0,0.0958 -0.014,0.14257 -0.048,0.23921 -0.1664,0.45069 -0.3343,0.61464 l -8.955,8.95502 c -0.2321,0.23207 -0.5362,0.34771 -0.8404,0.34771 -0.3041,0 -0.6083,-0.11564 -0.8403,-0.34771 -0.4642,-0.46415 -0.4642,-1.21581 0,-1.67996 l 6.9352,-6.93368 -18.7131,0 c -0.6559,0 -1.1881,-0.53226 -1.1881,-1.18809 0,-0.65582 0.5322,-1.18809 1.1881,-1.18809 l 18.7171,0 -6.9337,-6.93368 c -0.4641,-0.46414 -0.4641,-1.21581 0,-1.67995 0.4642,-0.46415 1.2158,-0.46415 1.68,0 l 8.9605,8.96056 c 0.096,0.0958 0.1695,0.20831 0.2266,0.32791 0.01,0.0174 0.021,0.0349 0.029,0.0531 0.02,0.0475 0.032,0.0966 0.046,0.14653 0.01,0.0261 0.017,0.0499 0.023,0.0776 0.016,0.0768 0.024,0.15524 0.024,0.23524 l 0,7.9e-4 z"
         style="clip-rule:evenodd;fill-rule:evenodd" />
      <g
         transform="translate(-18.534762,0)"
         id="g60819">
        <text
           sodipodi:linespacing="125%"
           id="text59670"
           y="557.88989"
           x="1299.3677"
           style="font-style:normal;font-weight:normal;font-size:31.68234253px;line-height:125%;font-family:sans-serif;text-align:center;letter-spacing:0px;word-spacing:0px;text-anchor:middle;fill:#000000;fill-opacity:1;stroke:none;stroke-width:1px;stroke-linecap:butt;stroke-linejoin:miter;stroke-opacity:1"
           xml:space="preserve"><tspan
             style="font-style:normal;font-variant:normal;font-weight:bold;font-stretch:normal;font-size:11.8808794px;font-family:Purisa;-inkscape-font-specification:'Purisa Bold';text-align:center;text-anchor:middle"
             y="557.88989"
             x="1299.3677"
             id="tspan59672"
             sodipodi:role="line">architecture</tspan></text>
        <g
           id="g59958"
           transform="translate(0.39189248,0)">
          <g
             style="fill:#4d4d4d"
             id="g59614"
             transform="translate(628.99995,-130)">
            <path
               transform="matrix(0.79205859,0,0,0.79205859,465.70756,363.6895)"
               d="m 292.46178,323.43445 c -1.52019,-8.15999 -7.92697,-14.39975 -15.93294,-15.92093 -6.08474,-1.19815 -12.2515,-1.75922 -18.25523,-1.75922 -6.16574,0 -12.33149,0.56107 -18.41523,1.75922 -8.16699,1.52118 -14.33174,7.84095 -15.85392,15.84092 -2.32129,12.15948 -2.32129,24.56098 0,36.64045 1.52118,8.241 7.84595,14.40074 15.85392,15.92193 6.08374,1.27815 12.24949,1.83922 18.41523,1.83922 6.16475,0 12.24849,-0.56107 18.33424,-1.76021 8.16799,-1.6002 14.33374,-7.83995 15.85393,-15.91993 2.40229,-12.16148 2.40229,-24.56198 0,-36.64145 z"
               id="path59616"
               inkscape:connector-curvature="0"
               style="fill:#4d4d4d;filter:url(#filter9932)" />
            <path
               style="fill:#4d4d4d"
               inkscape:connector-curvature="0"
               id="path59618"
               d="m 697.35443,619.86853 c -1.20408,-6.46319 -6.27863,-11.40544 -12.61983,-12.6103 -4.81947,-0.94901 -9.7039,-1.39341 -14.45921,-1.39341 -4.88363,0 -9.76726,0.4444 -14.58594,1.39341 -6.46873,1.20486 -11.35158,6.21049 -12.55723,12.54693 -1.8386,9.63102 -1.8386,19.45374 0,29.02138 1.20486,6.52736 6.21445,11.40623 12.55723,12.61111 4.81868,1.01237 9.70231,1.45677 14.58594,1.45677 4.88284,0 9.70152,-0.4444 14.52179,-1.39419 6.46953,-1.26746 11.35317,-6.2097 12.55725,-12.60952 1.90275,-9.63261 1.90275,-19.45453 0,-29.02218 z" />
          </g>
          <g
             transform="translate(-4.5860078,-0.77397607)"
             id="g59954">
            <path
               sodipodi:nodetypes="cssccsccscccsssccscssccccccccccccccccccccccccccccccccccccccssssssccccccccccccccccccsccscccccccccccccccccccscccssscccccccccccccccsccccccccccc"
               id="path59918"
               d="m 1364.8146,492.16189 0.5,0 c 0.8396,0 1.5,0.6604 1.5,1.5 l 0,2 0,15.12305 c -0.4267,-0.3386 -0.9155,-0.62305 -1.5,-0.62305 l -0.5,0 z m -20.5,4 2,0 17.5,0 0,15 1.5,0 c 0.8396,0 1.5,0.6604 1.5,1.5 0,0.8397 -0.6604,1.5 -1.5,1.5 l -2,0 -18.7324,0 -0.2676,0 c -0.5645,0 -1.0806,0.19577 -1.5,0.51367 l 0,-17.01367 c 0,-0.8396 0.6604,-1.5 1.5,-1.5 z m 25.5,1 4,0 0,17 -4,0 0,-1 2,0 0,-1 -2,0 0,-1 1,0 0,-1 -1,0 0,-1 2,0 0,-1 -2,0 0,-1 1,0 0,-1 -1,0 0,-1 2,0 0,-1 -2,0 0,-1 1,0 0,-1 -1,0 0,-1 2,0 0,-1 -2,0 0,-1 1,0 0,-1 -1,0 z m -23.5,1 c -0.2761,10e-5 -0.5,0.2239 -0.5,0.5 l 0,13 c 0,0.2762 0.2239,0.5 0.5,0.5 l 15,0 c 0.2761,0 0.5,-0.2238 0.5,-0.5 l 0,-13 c 0,-0.2761 -0.2239,-0.4999 -0.5,-0.5 l -10.5,0 0,1 2,0 0,3 1,0 0,-3 7,0 0,6 -3,0 0,-4 -1,0 0,4 -2,0 0,1 6,0 0,5 -1,0 0,-3.5 c 0,-0.2761 -0.2239,-0.4999 -0.5,-0.5 l -4,0 c -0.2761,10e-5 -0.5,0.2239 -0.5,0.5 l 0,3.5 -1,0 0,-6.95117 -1,0 0,6.95117 -6,0 0,-4 4,0 0,-1 -4,0 0,-7 2,0 0,-1 z m 9.5,10 3,0 0,3 -3,0 z m -11.5,7 0.2676,0 0.2324,0 0,3 -0.5,0 c -0.8396,0 -1.5,-0.6603 -1.5,-1.5 0,-0.8396 0.6604,-1.5 1.5,-1.5 z m 8.5488,1.65039 0,0.98438 0,1.01562 -1.3047,-0.98437 1.3008,-1.01563 z m 8.9961,0 0,0.61133 -7.998,-0.0215 0,-0.57617 7.998,-0.0137 z m 0.7637,0.0449 0.5215,0 c 0.4168,-10e-4 0.7196,0.29374 0.7207,0.61914 l 0,0.74805 c 0,0.3301 -0.2865,0.6231 -0.7149,0.625 l -0.5175,0 -0.012,-1.99219 z m -8.7559,1.34571 8,0.0195 0,0.57618 0,0.0293 -8,0 0,-0.625 z"
               style="fill:#000000;fill-opacity:1;stroke:none;filter:url(#filter59942)"
               inkscape:connector-curvature="0"
               transform="matrix(1.3184785,0,0,1.3184785,-487.05526,-161.34471)" />
            <path
               inkscape:connector-curvature="0"
               style="fill:#808080;fill-opacity:1;stroke:none"
               d="m 1312.4234,487.56016 0.6593,0 c 1.107,0 1.9777,0.87072 1.9777,1.97772 l 0,2.63696 0,19.93941 c -0.5626,-0.44644 -1.2071,-0.82148 -1.9777,-0.82148 l -0.6593,0 z m -27.0288,5.27391 2.637,0 23.0734,0 0,19.77718 1.9777,0 c 1.107,0 1.9777,0.87073 1.9777,1.97772 0,1.10713 -0.8707,1.97772 -1.9777,1.97772 l -2.637,0 -24.6982,0 -0.3529,0 c -0.7442,0 -1.4247,0.25812 -1.9777,0.67726 l 0,-22.43216 c 0,-1.10699 0.8707,-1.97772 1.9777,-1.97772 z m 33.6212,1.31848 5.274,0 0,22.41414 -5.274,0 0,-1.31848 2.637,0 0,-1.31848 -2.637,0 0,-1.31848 1.3185,0 0,-1.31848 -1.3185,0 0,-1.31848 2.637,0 0,-1.31847 -2.637,0 0,-1.31848 1.3185,0 0,-1.31848 -1.3185,0 0,-1.31848 2.637,0 0,-1.31848 -2.637,0 0,-1.31848 1.3185,0 0,-1.31847 -1.3185,0 0,-1.31848 2.637,0 0,-1.31848 -2.637,0 0,-1.31848 1.3185,0 0,-1.31848 -1.3185,0 z m -30.9842,1.31848 c -0.364,1.3e-4 -0.6592,0.29521 -0.6592,0.65924 l 0,17.14022 c 0,0.36416 0.2952,0.65924 0.6592,0.65924 l 19.7772,0 c 0.364,0 0.6592,-0.29508 0.6592,-0.65924 l 0,-17.14022 c 0,-0.36403 -0.2952,-0.65911 -0.6592,-0.65924 l -13.8441,0 0,1.31848 2.637,0 0,3.95544 1.3185,0 0,-3.95544 9.2293,0 0,7.91087 -3.9554,0 0,-5.27391 -1.3185,0 0,5.27391 -2.6369,0 0,1.31848 7.9108,0 0,6.59239 -1.3184,0 0,-4.61467 c 0,-0.36403 -0.2953,-0.65911 -0.6593,-0.65924 l -5.2739,0 c -0.364,1.3e-4 -0.6592,0.29521 -0.6592,0.65924 l 0,4.61467 -1.3185,0 0,-9.16497 -1.3185,0 0,9.16497 -7.9109,0 0,-5.27391 5.2739,0 0,-1.31848 -5.2739,0 0,-9.22935 2.637,0 0,-1.31848 z m 12.5255,13.18479 3.9555,0 0,3.95543 -3.9555,0 z m -15.1625,9.22935 0.3529,0 0.3064,0 0,3.95543 -0.6593,0 c -1.107,0 -1.9777,-0.87059 -1.9777,-1.97772 0,-1.10699 0.8707,-1.97771 1.9777,-1.97771 z m 11.2714,2.176 0,1.29788 0,1.33908 -1.7202,-1.29787 1.7151,-1.33909 z m 11.8612,0 0,0.80603 -10.5452,-0.0284 0,-0.75967 10.5452,-0.0181 z m 1.0069,0.0592 0.6876,0 c 0.5496,-10e-4 0.9488,0.38729 0.9502,0.81632 l 0,0.98629 c 0,0.43523 -0.3777,0.82154 -0.9425,0.82405 l -0.6823,0 -0.016,-2.62666 z m -11.5444,1.77429 10.5478,0.0257 0,0.75968 0,0.0386 -10.5478,0 0,-0.82405 z"
               id="path59891"
               sodipodi:nodetypes="cssccsccscccsssccscssccccccccccccccccccccccccccccccccccccccssssssccccccccccccccccccsccscccccccccccccccccccscccssscccccccccccccccsccccccccccc" />
          </g>
        </g>
      </g>
      <path
         style="clip-rule:evenodd;fill-rule:evenodd"
         d="m 1358.6129,510.75924 c 0,0.0309 -0.01,0.0594 -0.01,0.0895 0,0.0483 0,0.0958 -0.014,0.14257 -0.048,0.23921 -0.1664,0.45069 -0.3343,0.61464 l -8.955,8.95502 c -0.2321,0.23207 -0.5362,0.34771 -0.8404,0.34771 -0.3041,0 -0.6083,-0.11564 -0.8403,-0.34771 -0.4642,-0.46415 -0.4642,-1.21581 0,-1.67996 l 6.9352,-6.93368 -18.7131,0 c -0.6559,0 -1.1881,-0.53226 -1.1881,-1.18809 0,-0.65582 0.5322,-1.18809 1.1881,-1.18809 l 18.7171,0 -6.9337,-6.93368 c -0.4641,-0.46414 -0.4641,-1.21581 0,-1.67995 0.4642,-0.46415 1.2158,-0.46415 1.68,0 l 8.9605,8.96056 c 0.096,0.0958 0.1695,0.20831 0.2266,0.32791 0.01,0.0174 0.021,0.0349 0.029,0.0531 0.02,0.0475 0.032,0.0966 0.046,0.14653 0.01,0.0261 0.017,0.0499 0.023,0.0776 0.016,0.0768 0.024,0.15524 0.024,0.23524 l 0,7.9e-4 z"
         id="path59977"
         inkscape:connector-curvature="0" />
      <g
         transform="translate(1.0342713e-5,0)"
         id="g60830">
        <text
           xml:space="preserve"
           style="font-style:normal;font-weight:normal;font-size:31.68234253px;line-height:125%;font-family:sans-serif;text-align:center;letter-spacing:0px;word-spacing:0px;text-anchor:middle;fill:#000000;fill-opacity:1;stroke:none;stroke-width:1px;stroke-linecap:butt;stroke-linejoin:miter;stroke-opacity:1"
           x="1419.3677"
           y="557.69977"
           id="text59981"
           sodipodi:linespacing="125%"><tspan
             sodipodi:role="line"
             id="tspan59983"
             x="1419.3677"
             y="557.69977"
             style="font-style:normal;font-variant:normal;font-weight:bold;font-stretch:normal;font-size:11.8808794px;font-family:Purisa;-inkscape-font-specification:'Purisa Bold';text-align:center;text-anchor:middle">infrastructure</tspan></text>
        <g
           id="g60701"
           transform="translate(0.02376293,0)">
          <g
             transform="translate(749.39184,-130)"
             id="g59987"
             style="fill:#4d4d4d">
            <path
               style="fill:#4d4d4d;filter:url(#filter9932)"
               inkscape:connector-curvature="0"
               id="path59989"
               d="m 292.46178,323.43445 c -1.52019,-8.15999 -7.92697,-14.39975 -15.93294,-15.92093 -6.08474,-1.19815 -12.2515,-1.75922 -18.25523,-1.75922 -6.16574,0 -12.33149,0.56107 -18.41523,1.75922 -8.16699,1.52118 -14.33174,7.84095 -15.85392,15.84092 -2.32129,12.15948 -2.32129,24.56098 0,36.64045 1.52118,8.241 7.84595,14.40074 15.85392,15.92193 6.08374,1.27815 12.24949,1.83922 18.41523,1.83922 6.16475,0 12.24849,-0.56107 18.33424,-1.76021 8.16799,-1.6002 14.33374,-7.83995 15.85393,-15.91993 2.40229,-12.16148 2.40229,-24.56198 0,-36.64145 z"
               transform="matrix(0.79205859,0,0,0.79205859,465.70756,363.6895)" />
            <path
               d="m 697.35443,619.86853 c -1.20408,-6.46319 -6.27863,-11.40544 -12.61983,-12.6103 -4.81947,-0.94901 -9.7039,-1.39341 -14.45921,-1.39341 -4.88363,0 -9.76726,0.4444 -14.58594,1.39341 -6.46873,1.20486 -11.35158,6.21049 -12.55723,12.54693 -1.8386,9.63102 -1.8386,19.45374 0,29.02138 1.20486,6.52736 6.21445,11.40623 12.55723,12.61111 4.81868,1.01237 9.70231,1.45677 14.58594,1.45677 4.88284,0 9.70152,-0.4444 14.52179,-1.39419 6.46953,-1.26746 11.35317,-6.2097 12.55725,-12.60952 1.90275,-9.63261 1.90275,-19.45453 0,-29.02218 z"
               id="path59991"
               inkscape:connector-curvature="0"
               style="fill:#4d4d4d" />
          </g>
          <g
             transform="matrix(0.9530345,0,0,0.9530345,66.675015,23.688444)"
             id="g60683">
            <path
               id="path60106"
               d="m 1440.0764,513.0365 -8.3435,-4.2247 7.8979,-4.0831 c 0.2515,-0.13072 0.2515,-0.34067 0,-0.46792 l -8.907,-4.50943 9.3645,-4.84167 c 0.455,-0.23619 0.7249,-0.6551 0.7224,-1.12104 0,-0.46496 -0.2778,-0.8799 -0.7328,-1.10966 l -18.2635,-9.24563 c -0.3382,-0.17083 -0.6912,-0.20698 -0.9284,-0.20698 -0.2179,0 -0.5437,0.0307 -0.8591,0.17826 l -20.7611,9.7195 c -0.4724,0.22134 -0.7571,0.63529 -0.7616,1.10668 0,0.47189 0.2734,0.89129 0.7423,1.12204 l 9.972,4.90357 -9.5323,4.46238 c -0.2545,0.11934 -0.2555,0.31839 0,0.44267 l 8.4642,4.16232 -8.8821,4.15737 c -0.4729,0.22133 -0.7576,0.63529 -0.7616,1.10668 0,0.47189 0.2738,0.89129 0.7423,1.12104 l 19.5855,9.63186 c 0.3224,0.15894 0.6571,0.19212 0.8809,0.19212 0.2357,0 0.5873,-0.0362 0.927,-0.21044 l 19.4493,-10.05572 c 0.4551,-0.23619 0.725,-0.65509 0.7225,-1.12104 0,-0.46446 -0.2783,-0.8799 -0.7338,-1.10916 z m -19.2444,-27.82503 c 0,-9.9e-4 0.024,-0.004 0.053,-0.004 0.03,0 0.053,0.004 0.041,-0.003 l 16.9884,8.59995 -18.151,9.38724 c 0,9.9e-4 -0.024,0.005 -0.051,0.005 l -0.01,0.0104 -18.1946,-8.94705 19.3221,-9.04806 z m -1.0671,38.3358 c -0.01,10e-4 -0.025,0.005 -0.054,0.005 l -0.01,0.0114 -18.1942,-8.94755 8.6035,-4.02763 8.7153,4.28561 c 0.3228,0.15895 0.6575,0.19262 0.8814,0.19262 0.2361,0 0.5882,-0.0366 0.9259,-0.21094 l 9.2268,-4.76988 8.0488,4.07517 -18.1476,9.38626 z"
               inkscape:connector-curvature="0"
               style="fill:#ffffff;filter:url(#filter60108)" />
            <path
               inkscape:connector-curvature="0"
               d="m 1440.0764,513.0365 -8.3435,-4.2247 7.8979,-4.0831 c 0.2515,-0.13072 0.2515,-0.34067 0,-0.46792 l -8.907,-4.50943 9.3645,-4.84167 c 0.455,-0.23619 0.7249,-0.6551 0.7224,-1.12104 0,-0.46496 -0.2778,-0.8799 -0.7328,-1.10966 l -18.2635,-9.24563 c -0.3382,-0.17083 -0.6912,-0.20698 -0.9284,-0.20698 -0.2179,0 -0.5437,0.0307 -0.8591,0.17826 l -20.7611,9.7195 c -0.4724,0.22134 -0.7571,0.63529 -0.7616,1.10668 0,0.47189 0.2734,0.89129 0.7423,1.12204 l 9.972,4.90357 -9.5323,4.46238 c -0.2545,0.11934 -0.2555,0.31839 0,0.44267 l 8.4642,4.16232 -8.8821,4.15737 c -0.4729,0.22133 -0.7576,0.63529 -0.7616,1.10668 0,0.47189 0.2738,0.89129 0.7423,1.12104 l 19.5855,9.63186 c 0.3224,0.15894 0.6571,0.19212 0.8809,0.19212 0.2357,0 0.5873,-0.0362 0.927,-0.21044 l 19.4493,-10.05572 c 0.4551,-0.23619 0.725,-0.65509 0.7225,-1.12104 0,-0.46446 -0.2783,-0.8799 -0.7338,-1.10916 z m -19.2444,-27.82503 c 0,-9.9e-4 0.024,-0.004 0.053,-0.004 0.03,0 0.053,0.004 0.041,-0.003 l 16.9884,8.59995 -18.151,9.38724 c 0,9.9e-4 -0.024,0.005 -0.051,0.005 l -0.01,0.0104 -18.1946,-8.94705 19.3221,-9.04806 z m -1.0671,38.3358 c -0.01,10e-4 -0.025,0.005 -0.054,0.005 l -0.01,0.0114 -18.1942,-8.94755 8.6035,-4.02763 8.7153,4.28561 c 0.3228,0.15895 0.6575,0.19262 0.8814,0.19262 0.2361,0 0.5882,-0.0366 0.9259,-0.21094 l 9.2268,-4.76988 8.0488,4.07517 -18.1476,9.38626 z"
               id="path60086"
               style="fill:#1a1a1a" />
          </g>
        </g>
      </g>
      <path
         style="clip-rule:evenodd;fill-rule:evenodd"
         d="m 1115.3125,510.75924 c 0,0.0309 -0.01,0.0594 -0.01,0.0895 0,0.0483 0,0.0958 -0.014,0.14257 -0.048,0.23921 -0.1664,0.45069 -0.3343,0.61464 l -8.955,8.95502 c -0.2321,0.23207 -0.5362,0.34771 -0.8404,0.34771 -0.3041,0 -0.6083,-0.11564 -0.8403,-0.34771 -0.4642,-0.46415 -0.4642,-1.21581 0,-1.67996 l 6.9352,-6.93368 -18.7131,0 c -0.6559,0 -1.1881,-0.53226 -1.1881,-1.18809 0,-0.65582 0.5322,-1.18809 1.1881,-1.18809 l 18.7171,0 -6.9337,-6.93368 c -0.4641,-0.46414 -0.4641,-1.21581 0,-1.67995 0.4642,-0.46415 1.2158,-0.46415 1.68,0 l 8.9605,8.96056 c 0.096,0.0958 0.1695,0.20831 0.2266,0.32791 0.01,0.0174 0.021,0.0349 0.029,0.0531 0.02,0.0475 0.032,0.0966 0.046,0.14653 0.01,0.0261 0.017,0.0499 0.023,0.0776 0.016,0.0768 0.024,0.15524 0.024,0.23524 l 0,7.9e-4 z"
         id="path60635"
         inkscape:connector-curvature="0" />
    </g>
  </g>
</svg>
