<?xml version="1.0" encoding="UTF-8" standalone="no"?>
<!-- Created with Inkscape (http://www.inkscape.org/) -->

<svg
   xmlns:dc="http://purl.org/dc/elements/1.1/"
   xmlns:cc="http://creativecommons.org/ns#"
   xmlns:rdf="http://www.w3.org/1999/02/22-rdf-syntax-ns#"
   xmlns:svg="http://www.w3.org/2000/svg"
   xmlns="http://www.w3.org/2000/svg"
   xmlns:sodipodi="http://sodipodi.sourceforge.net/DTD/sodipodi-0.dtd"
   xmlns:inkscape="http://www.inkscape.org/namespaces/inkscape"
   width="141.11111mm"
   height="133.44943mm"
   viewBox="0 0 500.00001 472.85232"
   id="svg7922"
   version="1.1"
   inkscape:version="0.91 r13725"
   sodipodi:docname="super-structures.svg">
  <defs
     id="defs7924">
    <filter
       inkscape:collect="always"
       style="color-interpolation-filters:sRGB"
       id="filter11148"
       x="-0.11999733"
       width="1.2399946"
       y="-0.12000267"
       height="1.2400053">
      <feGaussianBlur
         inkscape:collect="always"
         stdDeviation="0.96845153"
         id="feGaussianBlur11150" />
    </filter>
  </defs>
  <sodipodi:namedview
     id="base"
     pagecolor="#ffffff"
     bordercolor="#666666"
     borderopacity="1.0"
     inkscape:pageopacity="0.0"
     inkscape:pageshadow="2"
     inkscape:zoom="0.98994949"
     inkscape:cx="432.80349"
     inkscape:cy="237.56621"
     inkscape:document-units="px"
     inkscape:current-layer="layer1"
     showgrid="false"
     inkscape:window-width="1366"
     inkscape:window-height="713"
     inkscape:window-x="0"
     inkscape:window-y="27"
     inkscape:window-maximized="1"
     fit-margin-top="0"
     fit-margin-left="0"
     fit-margin-right="0"
     fit-margin-bottom="0"
     showborder="false" />
  <metadata
     id="metadata7927">
    <rdf:RDF>
      <cc:Work
         rdf:about="">
        <dc:format>image/svg+xml</dc:format>
        <dc:type
           rdf:resource="http://purl.org/dc/dcmitype/StillImage" />
        <dc:title></dc:title>
      </cc:Work>
    </rdf:RDF>
  </metadata>
  <g
     inkscape:label="Layer 1"
     inkscape:groupmode="layer"
     id="layer1"
     transform="translate(-136.9812,-31.833646)">
    <g
       id="g11229"
       inkscape:export-xdpi="90"
       inkscape:export-ydpi="90"
       transform="matrix(5.2632132,0,0,5.2632132,-2801.0222,-593.80598)">
      <g
         style="fill:#4d4d4d"
         transform="translate(555.71378,115.23128)"
         id="g10218">
        <line
           style="fill:#4d4d4d"
           x1="73.177002"
           y1="78.422997"
           x2="49.939999"
           y2="71.268997"
           id="line10128" />
        <rect
           style="fill:#4d4d4d"
           x="49.402"
           y="74.056999"
           transform="matrix(0.9557,0.2943,-0.2943,0.9557,24.7557,-14.8031)"
           width="24.313999"
           height="1.579"
           id="rect10130" />
        <line
           style="fill:#4d4d4d"
           x1="64.638"
           y1="85.190002"
           x2="49.939999"
           y2="71.268997"
           id="line10132" />
        <rect
           style="fill:#4d4d4d"
           x="47.166"
           y="77.440002"
           transform="matrix(0.726,0.6877,-0.6877,0.726,69.4926,-17.9632)"
           width="20.246"
           height="1.579"
           id="rect10134" />
        <line
           style="fill:#4d4d4d"
           x1="55.188"
           y1="87.842003"
           x2="49.939999"
           y2="71.268997"
           id="line10136" />
        <rect
           style="fill:#4d4d4d"
           x="43.870998"
           y="78.765999"
           transform="matrix(0.3018,0.9534,-0.9534,0.3018,112.5449,5.4317)"
           width="17.385"
           height="1.579"
           id="rect10138" />
        <line
           style="fill:#4d4d4d"
           x1="44.902"
           y1="87.842003"
           x2="49.939999"
           y2="71.268997"
           id="line10140" />
        <rect
           style="fill:#4d4d4d"
           x="46.631001"
           y="70.893997"
           transform="matrix(0.9567,0.2912,-0.2912,0.9567,25.2193,-10.3605)"
           width="1.58"
           height="17.322001"
           id="rect10142" />
        <line
           style="fill:#4d4d4d"
           x1="34.893002"
           y1="85.190002"
           x2="49.939999"
           y2="71.268997"
           id="line10144" />
        <rect
           style="fill:#4d4d4d"
           x="41.626999"
           y="67.978996"
           transform="matrix(0.6795,0.7336,-0.7336,0.6795,70.9836,-6.0499)"
           width="1.58"
           height="20.500999"
           id="rect10146" />
        <line
           style="fill:#4d4d4d"
           x1="28.886"
           y1="78.920998"
           x2="49.939999"
           y2="71.268997"
           id="line10148" />
        <rect
           style="fill:#4d4d4d"
           x="38.623001"
           y="63.894001"
           transform="matrix(0.3414,0.9399,-0.9399,0.3414,96.5396,12.4112)"
           width="1.58"
           height="22.402"
           id="rect10150" />
        <line
           style="fill:#4d4d4d"
           x1="6.1430001"
           y1="53.963001"
           x2="26.700001"
           y2="53.740002"
           id="line10152" />
        <rect
           style="fill:#4d4d4d"
           x="15.63"
           y="43.573002"
           transform="matrix(0.0108,0.9999,-0.9999,0.0108,70.0918,36.8496)"
           width="1.581"
           height="20.556999"
           id="rect10154" />
        <line
           style="fill:#4d4d4d"
           x1="7.105"
           y1="62.688"
           x2="26.700001"
           y2="53.740002"
           id="line10156" />
        <rect
           style="fill:#4d4d4d"
           x="16.112"
           y="47.444"
           transform="matrix(0.4148,0.9099,-0.9099,0.4148,62.8609,18.6874)"
           width="1.581"
           height="21.541"
           id="rect10158" />
        <line
           style="fill:#4d4d4d"
           x1="14.879"
           y1="68.959"
           x2="26.700001"
           y2="53.740002"
           id="line10160" />
        <rect
           style="fill:#4d4d4d"
           x="19.999001"
           y="51.715"
           transform="matrix(0.7895,0.6137,-0.6137,0.7895,42.0263,0.1535)"
           width="1.58"
           height="19.27"
           id="rect10162" />
        <rect
           style="fill:#4d4d4d"
           x="41.852001"
           y="30.693001"
           transform="matrix(0.3452,0.9385,-0.9385,0.3452,73.4832,-9.3356)"
           width="3.1589999"
           height="34.596001"
           id="rect10164" />
        <rect
           style="fill:#4d4d4d"
           x="54.691002"
           y="49.276001"
           transform="matrix(0.7874,0.6164,-0.6164,0.7874,46.0667,-31.8704)"
           width="29.1"
           height="3.1600001"
           id="rect10166" />
        <rect
           style="fill:#4d4d4d"
           x="37.106998"
           y="27.132"
           transform="matrix(0.3605,0.9327,-0.9327,0.3605,60.2405,-30.4442)"
           width="30.433001"
           height="3.1600001"
           id="rect10168" />
        <rect
           style="fill:#4d4d4d"
           x="64.962997"
           y="12.56"
           transform="matrix(0.8408,0.5414,-0.5414,0.8408,26.0402,-31.4835)"
           width="3.1589999"
           height="31.934"
           id="rect10170" />
        <rect
           style="fill:#4d4d4d"
           x="53.269001"
           y="38.985001"
           transform="matrix(0.9683,0.2499,-0.2499,0.9683,15.4004,-11.9747)"
           width="3.161"
           height="31.330999"
           id="rect10172" />
        <rect
           style="fill:#4d4d4d"
           x="72.100998"
           y="24.837999"
           transform="matrix(0.1128,0.9936,-0.9936,0.1128,105.3928,-37.4759)"
           width="3.1600001"
           height="30.882"
           id="rect10174" />
        <rect
           style="fill:#4d4d4d"
           x="28.341"
           y="34.469002"
           transform="matrix(0.9299,0.3678,-0.3678,0.9299,16.3855,-13.8684)"
           width="32.464001"
           height="3.161"
           id="rect10176" />
        <circle
           style="fill:#4d4d4d"
           cx="57.862999"
           cy="42.021"
           r="15.715"
           id="circle10178" />
        <circle
           style="fill:#4d4d4d"
           cx="46.012001"
           cy="12.115"
           r="8.4759998"
           id="circle10180" />
        <circle
           style="fill:#4d4d4d"
           cx="81.653"
           cy="61.477001"
           r="8.4759998"
           id="circle10182" />
        <circle
           style="fill:#4d4d4d"
           cx="75.184998"
           cy="15.1"
           r="8.4759998"
           id="circle10184" />
        <circle
           style="fill:#4d4d4d"
           cx="49.993999"
           cy="72.422997"
           r="8.4759998"
           id="circle10186" />
        <circle
           style="fill:#4d4d4d"
           cx="89.024002"
           cy="38.537998"
           r="8.4759998"
           id="circle10188" />
        <circle
           style="fill:#4d4d4d"
           cx="27.198"
           cy="30.079"
           r="8.4759998"
           id="circle10190" />
        <circle
           style="fill:#4d4d4d"
           cx="6.1430001"
           cy="53.740002"
           r="3.642"
           id="circle10192" />
        <circle
           style="fill:#4d4d4d"
           cx="7.105"
           cy="62.688"
           r="3.642"
           id="circle10194" />
        <circle
           style="fill:#4d4d4d"
           cx="14.741"
           cy="68.959999"
           r="3.6429999"
           id="circle10196" />
        <circle
           style="fill:#4d4d4d"
           cx="28.886999"
           cy="78.920998"
           r="3.6429999"
           id="circle10198" />
        <circle
           style="fill:#4d4d4d"
           cx="34.893002"
           cy="85.190002"
           r="3.642"
           id="circle10200" />
        <circle
           style="fill:#4d4d4d"
           cx="44.902"
           cy="89.836998"
           r="3.6429999"
           id="circle10202" />
        <circle
           style="fill:#4d4d4d"
           cx="55.687"
           cy="89.833"
           r="3.642"
           id="circle10204" />
        <circle
           style="fill:#4d4d4d"
           cx="71.684998"
           cy="78.422997"
           r="3.642"
           id="circle10206" />
        <circle
           style="fill:#4d4d4d"
           cx="65.136002"
           cy="85.190002"
           r="3.642"
           id="circle10208" />
        <circle
           style="fill:#4d4d4d"
           cx="27.198"
           cy="53.963001"
           r="8.4759998"
           id="circle10210" />
      </g>
      <g
         id="g11168">
        <path
           inkscape:connector-curvature="0"
           d="m 622.41684,161.24758 -3.81976,-1.93414 3.61574,-1.8693 c 0.11515,-0.0598 0.11515,-0.15596 -6.9e-4,-0.21422 l -4.07774,-2.06449 4.28721,-2.21659 c 0.20832,-0.10813 0.33188,-0.29992 0.33074,-0.51324 -10e-4,-0.21286 -0.12718,-0.40282 -0.3355,-0.50801 l -8.36131,-4.2328 c -0.15483,-0.0782 -0.31646,-0.0948 -0.42505,-0.0948 -0.0998,0 -0.24891,0.014 -0.39331,0.0816 l -9.50475,4.44974 c -0.21626,0.10133 -0.34661,0.29084 -0.34865,0.50665 -0.002,0.21604 0.12513,0.40805 0.33981,0.51369 l 4.56535,2.24493 -4.36405,2.04295 c -0.11651,0.0547 -0.11697,0.14576 -0.002,0.20266 l 3.87508,1.90557 -4.0664,1.90331 c -0.2165,0.10133 -0.34684,0.29084 -0.34865,0.50666 -0.002,0.21603 0.12535,0.40804 0.3398,0.51323 l 8.96658,4.40961 c 0.14758,0.0728 0.30082,0.088 0.40328,0.088 0.10791,0 0.26887,-0.0165 0.42437,-0.0963 l 8.90424,-4.60366 c 0.20833,-0.10813 0.33188,-0.29992 0.33074,-0.51323 -0.002,-0.21264 -0.12739,-0.40283 -0.33595,-0.50779 z m -8.81039,-12.73873 c 0.002,-4.6e-4 0.0111,-0.002 0.024,-0.002 0.0138,0 0.024,0.001 0.0186,-10e-4 l 7.77757,3.93719 -8.30985,4.29763 c -0.002,4.5e-4 -0.0109,0.002 -0.0233,0.002 l -0.003,0.005 -8.32981,-4.09609 8.84599,-4.14235 z m -0.48852,17.55072 c -0.002,6.8e-4 -0.0116,0.002 -0.0247,0.002 l -0.003,0.005 -8.32957,-4.09633 3.93877,-1.84391 3.99001,1.96202 c 0.1478,0.0728 0.30105,0.0882 0.40351,0.0882 0.10813,0 0.26931,-0.0167 0.42392,-0.0966 l 4.22417,-2.18372 3.68488,1.86567 -8.30826,4.29717 z"
           id="path10328"
           style="fill:#ffffff;filter:url(#filter11148)" />
        <path
           style="fill:#ffffff;filter:url(#filter11148)"
           id="path11166"
           d="m 622.41684,161.24758 -3.81976,-1.93414 3.61574,-1.8693 c 0.11515,-0.0598 0.11515,-0.15596 -6.9e-4,-0.21422 l -4.07774,-2.06449 4.28721,-2.21659 c 0.20832,-0.10813 0.33188,-0.29992 0.33074,-0.51324 -10e-4,-0.21286 -0.12718,-0.40282 -0.3355,-0.50801 l -8.36131,-4.2328 c -0.15483,-0.0782 -0.31646,-0.0948 -0.42505,-0.0948 -0.0998,0 -0.24891,0.014 -0.39331,0.0816 l -9.50475,4.44974 c -0.21626,0.10133 -0.34661,0.29084 -0.34865,0.50665 -0.002,0.21604 0.12513,0.40805 0.33981,0.51369 l 4.56535,2.24493 -4.36405,2.04295 c -0.11651,0.0547 -0.11697,0.14576 -0.002,0.20266 l 3.87508,1.90557 -4.0664,1.90331 c -0.2165,0.10133 -0.34684,0.29084 -0.34865,0.50666 -0.002,0.21603 0.12535,0.40804 0.3398,0.51323 l 8.96658,4.40961 c 0.14758,0.0728 0.30082,0.088 0.40328,0.088 0.10791,0 0.26887,-0.0165 0.42437,-0.0963 l 8.90424,-4.60366 c 0.20833,-0.10813 0.33188,-0.29992 0.33074,-0.51323 -0.002,-0.21264 -0.12739,-0.40283 -0.33595,-0.50779 z m -8.81039,-12.73873 c 0.002,-4.6e-4 0.0111,-0.002 0.024,-0.002 0.0138,0 0.024,0.001 0.0186,-10e-4 l 7.77757,3.93719 -8.30985,4.29763 c -0.002,4.5e-4 -0.0109,0.002 -0.0233,0.002 l -0.003,0.005 -8.32981,-4.09609 8.84599,-4.14235 z m -0.48852,17.55072 c -0.002,6.8e-4 -0.0116,0.002 -0.0247,0.002 l -0.003,0.005 -8.32957,-4.09633 3.93877,-1.84391 3.99001,1.96202 c 0.1478,0.0728 0.30105,0.0882 0.40351,0.0882 0.10813,0 0.26931,-0.0167 0.42392,-0.0966 l 4.22417,-2.18372 3.68488,1.86567 -8.30826,4.29717 z"
           inkscape:connector-curvature="0" />
        <path
           style="fill:#1a1a1a"
           id="path11152"
           d="m 622.41684,161.24758 -3.81976,-1.93414 3.61574,-1.8693 c 0.11515,-0.0598 0.11515,-0.15596 -6.9e-4,-0.21422 l -4.07774,-2.06449 4.28721,-2.21659 c 0.20832,-0.10813 0.33188,-0.29992 0.33074,-0.51324 -10e-4,-0.21286 -0.12718,-0.40282 -0.3355,-0.50801 l -8.36131,-4.2328 c -0.15483,-0.0782 -0.31646,-0.0948 -0.42505,-0.0948 -0.0998,0 -0.24891,0.014 -0.39331,0.0816 l -9.50475,4.44974 c -0.21626,0.10133 -0.34661,0.29084 -0.34865,0.50665 -0.002,0.21604 0.12513,0.40805 0.33981,0.51369 l 4.56535,2.24493 -4.36405,2.04295 c -0.11651,0.0547 -0.11697,0.14576 -0.002,0.20266 l 3.87508,1.90557 -4.0664,1.90331 c -0.2165,0.10133 -0.34684,0.29084 -0.34865,0.50666 -0.002,0.21603 0.12535,0.40804 0.3398,0.51323 l 8.96658,4.40961 c 0.14758,0.0728 0.30082,0.088 0.40328,0.088 0.10791,0 0.26887,-0.0165 0.42437,-0.0963 l 8.90424,-4.60366 c 0.20833,-0.10813 0.33188,-0.29992 0.33074,-0.51323 -0.002,-0.21264 -0.12739,-0.40283 -0.33595,-0.50779 z m -8.81039,-12.73873 c 0.002,-4.6e-4 0.0111,-0.002 0.024,-0.002 0.0138,0 0.024,0.001 0.0186,-10e-4 l 7.77757,3.93719 -8.30985,4.29763 c -0.002,4.5e-4 -0.0109,0.002 -0.0233,0.002 l -0.003,0.005 -8.32981,-4.09609 8.84599,-4.14235 z m -0.48852,17.55072 c -0.002,6.8e-4 -0.0116,0.002 -0.0247,0.002 l -0.003,0.005 -8.32957,-4.09633 3.93877,-1.84391 3.99001,1.96202 c 0.1478,0.0728 0.30105,0.0882 0.40351,0.0882 0.10813,0 0.26931,-0.0167 0.42392,-0.0966 l 4.22417,-2.18372 3.68488,1.86567 -8.30826,4.29717 z"
           inkscape:connector-curvature="0" />
      </g>
      <g
         transform="matrix(0.56876082,0,0,0.56876082,234.20002,55.50571)"
         id="g11173">
        <path
           style="fill:#ffffff;filter:url(#filter11148)"
           id="path11175"
           d="m 622.41684,161.24758 -3.81976,-1.93414 3.61574,-1.8693 c 0.11515,-0.0598 0.11515,-0.15596 -6.9e-4,-0.21422 l -4.07774,-2.06449 4.28721,-2.21659 c 0.20832,-0.10813 0.33188,-0.29992 0.33074,-0.51324 -10e-4,-0.21286 -0.12718,-0.40282 -0.3355,-0.50801 l -8.36131,-4.2328 c -0.15483,-0.0782 -0.31646,-0.0948 -0.42505,-0.0948 -0.0998,0 -0.24891,0.014 -0.39331,0.0816 l -9.50475,4.44974 c -0.21626,0.10133 -0.34661,0.29084 -0.34865,0.50665 -0.002,0.21604 0.12513,0.40805 0.33981,0.51369 l 4.56535,2.24493 -4.36405,2.04295 c -0.11651,0.0547 -0.11697,0.14576 -0.002,0.20266 l 3.87508,1.90557 -4.0664,1.90331 c -0.2165,0.10133 -0.34684,0.29084 -0.34865,0.50666 -0.002,0.21603 0.12535,0.40804 0.3398,0.51323 l 8.96658,4.40961 c 0.14758,0.0728 0.30082,0.088 0.40328,0.088 0.10791,0 0.26887,-0.0165 0.42437,-0.0963 l 8.90424,-4.60366 c 0.20833,-0.10813 0.33188,-0.29992 0.33074,-0.51323 -0.002,-0.21264 -0.12739,-0.40283 -0.33595,-0.50779 z m -8.81039,-12.73873 c 0.002,-4.6e-4 0.0111,-0.002 0.024,-0.002 0.0138,0 0.024,0.001 0.0186,-10e-4 l 7.77757,3.93719 -8.30985,4.29763 c -0.002,4.5e-4 -0.0109,0.002 -0.0233,0.002 l -0.003,0.005 -8.32981,-4.09609 8.84599,-4.14235 z m -0.48852,17.55072 c -0.002,6.8e-4 -0.0116,0.002 -0.0247,0.002 l -0.003,0.005 -8.32957,-4.09633 3.93877,-1.84391 3.99001,1.96202 c 0.1478,0.0728 0.30105,0.0882 0.40351,0.0882 0.10813,0 0.26931,-0.0167 0.42392,-0.0966 l 4.22417,-2.18372 3.68488,1.86567 -8.30826,4.29717 z"
           inkscape:connector-curvature="0" />
        <path
           inkscape:connector-curvature="0"
           d="m 622.41684,161.24758 -3.81976,-1.93414 3.61574,-1.8693 c 0.11515,-0.0598 0.11515,-0.15596 -6.9e-4,-0.21422 l -4.07774,-2.06449 4.28721,-2.21659 c 0.20832,-0.10813 0.33188,-0.29992 0.33074,-0.51324 -10e-4,-0.21286 -0.12718,-0.40282 -0.3355,-0.50801 l -8.36131,-4.2328 c -0.15483,-0.0782 -0.31646,-0.0948 -0.42505,-0.0948 -0.0998,0 -0.24891,0.014 -0.39331,0.0816 l -9.50475,4.44974 c -0.21626,0.10133 -0.34661,0.29084 -0.34865,0.50665 -0.002,0.21604 0.12513,0.40805 0.33981,0.51369 l 4.56535,2.24493 -4.36405,2.04295 c -0.11651,0.0547 -0.11697,0.14576 -0.002,0.20266 l 3.87508,1.90557 -4.0664,1.90331 c -0.2165,0.10133 -0.34684,0.29084 -0.34865,0.50666 -0.002,0.21603 0.12535,0.40804 0.3398,0.51323 l 8.96658,4.40961 c 0.14758,0.0728 0.30082,0.088 0.40328,0.088 0.10791,0 0.26887,-0.0165 0.42437,-0.0963 l 8.90424,-4.60366 c 0.20833,-0.10813 0.33188,-0.29992 0.33074,-0.51323 -0.002,-0.21264 -0.12739,-0.40283 -0.33595,-0.50779 z m -8.81039,-12.73873 c 0.002,-4.6e-4 0.0111,-0.002 0.024,-0.002 0.0138,0 0.024,0.001 0.0186,-10e-4 l 7.77757,3.93719 -8.30985,4.29763 c -0.002,4.5e-4 -0.0109,0.002 -0.0233,0.002 l -0.003,0.005 -8.32981,-4.09609 8.84599,-4.14235 z m -0.48852,17.55072 c -0.002,6.8e-4 -0.0116,0.002 -0.0247,0.002 l -0.003,0.005 -8.32957,-4.09633 3.93877,-1.84391 3.99001,1.96202 c 0.1478,0.0728 0.30105,0.0882 0.40351,0.0882 0.10813,0 0.26931,-0.0167 0.42392,-0.0966 l 4.22417,-2.18372 3.68488,1.86567 -8.30826,4.29717 z"
           id="path11177"
           style="fill:#ffffff;filter:url(#filter11148)" />
        <path
           inkscape:connector-curvature="0"
           d="m 622.41684,161.24758 -3.81976,-1.93414 3.61574,-1.8693 c 0.11515,-0.0598 0.11515,-0.15596 -6.9e-4,-0.21422 l -4.07774,-2.06449 4.28721,-2.21659 c 0.20832,-0.10813 0.33188,-0.29992 0.33074,-0.51324 -10e-4,-0.21286 -0.12718,-0.40282 -0.3355,-0.50801 l -8.36131,-4.2328 c -0.15483,-0.0782 -0.31646,-0.0948 -0.42505,-0.0948 -0.0998,0 -0.24891,0.014 -0.39331,0.0816 l -9.50475,4.44974 c -0.21626,0.10133 -0.34661,0.29084 -0.34865,0.50665 -0.002,0.21604 0.12513,0.40805 0.33981,0.51369 l 4.56535,2.24493 -4.36405,2.04295 c -0.11651,0.0547 -0.11697,0.14576 -0.002,0.20266 l 3.87508,1.90557 -4.0664,1.90331 c -0.2165,0.10133 -0.34684,0.29084 -0.34865,0.50666 -0.002,0.21603 0.12535,0.40804 0.3398,0.51323 l 8.96658,4.40961 c 0.14758,0.0728 0.30082,0.088 0.40328,0.088 0.10791,0 0.26887,-0.0165 0.42437,-0.0963 l 8.90424,-4.60366 c 0.20833,-0.10813 0.33188,-0.29992 0.33074,-0.51323 -0.002,-0.21264 -0.12739,-0.40283 -0.33595,-0.50779 z m -8.81039,-12.73873 c 0.002,-4.6e-4 0.0111,-0.002 0.024,-0.002 0.0138,0 0.024,0.001 0.0186,-10e-4 l 7.77757,3.93719 -8.30985,4.29763 c -0.002,4.5e-4 -0.0109,0.002 -0.0233,0.002 l -0.003,0.005 -8.32981,-4.09609 8.84599,-4.14235 z m -0.48852,17.55072 c -0.002,6.8e-4 -0.0116,0.002 -0.0247,0.002 l -0.003,0.005 -8.32957,-4.09633 3.93877,-1.84391 3.99001,1.96202 c 0.1478,0.0728 0.30105,0.0882 0.40351,0.0882 0.10813,0 0.26931,-0.0167 0.42392,-0.0966 l 4.22417,-2.18372 3.68488,1.86567 -8.30826,4.29717 z"
           id="path11179"
           style="fill:#1a1a1a" />
      </g>
      <g
         id="g11181"
         transform="matrix(0.56876082,0,0,0.56876082,253.12863,37.916425)">
        <path
           inkscape:connector-curvature="0"
           d="m 622.41684,161.24758 -3.81976,-1.93414 3.61574,-1.8693 c 0.11515,-0.0598 0.11515,-0.15596 -6.9e-4,-0.21422 l -4.07774,-2.06449 4.28721,-2.21659 c 0.20832,-0.10813 0.33188,-0.29992 0.33074,-0.51324 -10e-4,-0.21286 -0.12718,-0.40282 -0.3355,-0.50801 l -8.36131,-4.2328 c -0.15483,-0.0782 -0.31646,-0.0948 -0.42505,-0.0948 -0.0998,0 -0.24891,0.014 -0.39331,0.0816 l -9.50475,4.44974 c -0.21626,0.10133 -0.34661,0.29084 -0.34865,0.50665 -0.002,0.21604 0.12513,0.40805 0.33981,0.51369 l 4.56535,2.24493 -4.36405,2.04295 c -0.11651,0.0547 -0.11697,0.14576 -0.002,0.20266 l 3.87508,1.90557 -4.0664,1.90331 c -0.2165,0.10133 -0.34684,0.29084 -0.34865,0.50666 -0.002,0.21603 0.12535,0.40804 0.3398,0.51323 l 8.96658,4.40961 c 0.14758,0.0728 0.30082,0.088 0.40328,0.088 0.10791,0 0.26887,-0.0165 0.42437,-0.0963 l 8.90424,-4.60366 c 0.20833,-0.10813 0.33188,-0.29992 0.33074,-0.51323 -0.002,-0.21264 -0.12739,-0.40283 -0.33595,-0.50779 z m -8.81039,-12.73873 c 0.002,-4.6e-4 0.0111,-0.002 0.024,-0.002 0.0138,0 0.024,0.001 0.0186,-10e-4 l 7.77757,3.93719 -8.30985,4.29763 c -0.002,4.5e-4 -0.0109,0.002 -0.0233,0.002 l -0.003,0.005 -8.32981,-4.09609 8.84599,-4.14235 z m -0.48852,17.55072 c -0.002,6.8e-4 -0.0116,0.002 -0.0247,0.002 l -0.003,0.005 -8.32957,-4.09633 3.93877,-1.84391 3.99001,1.96202 c 0.1478,0.0728 0.30105,0.0882 0.40351,0.0882 0.10813,0 0.26931,-0.0167 0.42392,-0.0966 l 4.22417,-2.18372 3.68488,1.86567 -8.30826,4.29717 z"
           id="path11183"
           style="fill:#ffffff;filter:url(#filter11148)" />
        <path
           style="fill:#ffffff;filter:url(#filter11148)"
           id="path11185"
           d="m 622.41684,161.24758 -3.81976,-1.93414 3.61574,-1.8693 c 0.11515,-0.0598 0.11515,-0.15596 -6.9e-4,-0.21422 l -4.07774,-2.06449 4.28721,-2.21659 c 0.20832,-0.10813 0.33188,-0.29992 0.33074,-0.51324 -10e-4,-0.21286 -0.12718,-0.40282 -0.3355,-0.50801 l -8.36131,-4.2328 c -0.15483,-0.0782 -0.31646,-0.0948 -0.42505,-0.0948 -0.0998,0 -0.24891,0.014 -0.39331,0.0816 l -9.50475,4.44974 c -0.21626,0.10133 -0.34661,0.29084 -0.34865,0.50665 -0.002,0.21604 0.12513,0.40805 0.33981,0.51369 l 4.56535,2.24493 -4.36405,2.04295 c -0.11651,0.0547 -0.11697,0.14576 -0.002,0.20266 l 3.87508,1.90557 -4.0664,1.90331 c -0.2165,0.10133 -0.34684,0.29084 -0.34865,0.50666 -0.002,0.21603 0.12535,0.40804 0.3398,0.51323 l 8.96658,4.40961 c 0.14758,0.0728 0.30082,0.088 0.40328,0.088 0.10791,0 0.26887,-0.0165 0.42437,-0.0963 l 8.90424,-4.60366 c 0.20833,-0.10813 0.33188,-0.29992 0.33074,-0.51323 -0.002,-0.21264 -0.12739,-0.40283 -0.33595,-0.50779 z m -8.81039,-12.73873 c 0.002,-4.6e-4 0.0111,-0.002 0.024,-0.002 0.0138,0 0.024,0.001 0.0186,-10e-4 l 7.77757,3.93719 -8.30985,4.29763 c -0.002,4.5e-4 -0.0109,0.002 -0.0233,0.002 l -0.003,0.005 -8.32981,-4.09609 8.84599,-4.14235 z m -0.48852,17.55072 c -0.002,6.8e-4 -0.0116,0.002 -0.0247,0.002 l -0.003,0.005 -8.32957,-4.09633 3.93877,-1.84391 3.99001,1.96202 c 0.1478,0.0728 0.30105,0.0882 0.40351,0.0882 0.10813,0 0.26931,-0.0167 0.42392,-0.0966 l 4.22417,-2.18372 3.68488,1.86567 -8.30826,4.29717 z"
           inkscape:connector-curvature="0" />
        <path
           style="fill:#1a1a1a"
           id="path11187"
           d="m 622.41684,161.24758 -3.81976,-1.93414 3.61574,-1.8693 c 0.11515,-0.0598 0.11515,-0.15596 -6.9e-4,-0.21422 l -4.07774,-2.06449 4.28721,-2.21659 c 0.20832,-0.10813 0.33188,-0.29992 0.33074,-0.51324 -10e-4,-0.21286 -0.12718,-0.40282 -0.3355,-0.50801 l -8.36131,-4.2328 c -0.15483,-0.0782 -0.31646,-0.0948 -0.42505,-0.0948 -0.0998,0 -0.24891,0.014 -0.39331,0.0816 l -9.50475,4.44974 c -0.21626,0.10133 -0.34661,0.29084 -0.34865,0.50665 -0.002,0.21604 0.12513,0.40805 0.33981,0.51369 l 4.56535,2.24493 -4.36405,2.04295 c -0.11651,0.0547 -0.11697,0.14576 -0.002,0.20266 l 3.87508,1.90557 -4.0664,1.90331 c -0.2165,0.10133 -0.34684,0.29084 -0.34865,0.50666 -0.002,0.21603 0.12535,0.40804 0.3398,0.51323 l 8.96658,4.40961 c 0.14758,0.0728 0.30082,0.088 0.40328,0.088 0.10791,0 0.26887,-0.0165 0.42437,-0.0963 l 8.90424,-4.60366 c 0.20833,-0.10813 0.33188,-0.29992 0.33074,-0.51323 -0.002,-0.21264 -0.12739,-0.40283 -0.33595,-0.50779 z m -8.81039,-12.73873 c 0.002,-4.6e-4 0.0111,-0.002 0.024,-0.002 0.0138,0 0.024,0.001 0.0186,-10e-4 l 7.77757,3.93719 -8.30985,4.29763 c -0.002,4.5e-4 -0.0109,0.002 -0.0233,0.002 l -0.003,0.005 -8.32981,-4.09609 8.84599,-4.14235 z m -0.48852,17.55072 c -0.002,6.8e-4 -0.0116,0.002 -0.0247,0.002 l -0.003,0.005 -8.32957,-4.09633 3.93877,-1.84391 3.99001,1.96202 c 0.1478,0.0728 0.30105,0.0882 0.40351,0.0882 0.10813,0 0.26931,-0.0167 0.42392,-0.0966 l 4.22417,-2.18372 3.68488,1.86567 -8.30826,4.29717 z"
           inkscape:connector-curvature="0" />
      </g>
      <g
         transform="matrix(0.56876082,0,0,0.56876082,282.05717,40.862853)"
         id="g11189">
        <path
           style="fill:#ffffff;filter:url(#filter11148)"
           id="path11191"
           d="m 622.41684,161.24758 -3.81976,-1.93414 3.61574,-1.8693 c 0.11515,-0.0598 0.11515,-0.15596 -6.9e-4,-0.21422 l -4.07774,-2.06449 4.28721,-2.21659 c 0.20832,-0.10813 0.33188,-0.29992 0.33074,-0.51324 -10e-4,-0.21286 -0.12718,-0.40282 -0.3355,-0.50801 l -8.36131,-4.2328 c -0.15483,-0.0782 -0.31646,-0.0948 -0.42505,-0.0948 -0.0998,0 -0.24891,0.014 -0.39331,0.0816 l -9.50475,4.44974 c -0.21626,0.10133 -0.34661,0.29084 -0.34865,0.50665 -0.002,0.21604 0.12513,0.40805 0.33981,0.51369 l 4.56535,2.24493 -4.36405,2.04295 c -0.11651,0.0547 -0.11697,0.14576 -0.002,0.20266 l 3.87508,1.90557 -4.0664,1.90331 c -0.2165,0.10133 -0.34684,0.29084 -0.34865,0.50666 -0.002,0.21603 0.12535,0.40804 0.3398,0.51323 l 8.96658,4.40961 c 0.14758,0.0728 0.30082,0.088 0.40328,0.088 0.10791,0 0.26887,-0.0165 0.42437,-0.0963 l 8.90424,-4.60366 c 0.20833,-0.10813 0.33188,-0.29992 0.33074,-0.51323 -0.002,-0.21264 -0.12739,-0.40283 -0.33595,-0.50779 z m -8.81039,-12.73873 c 0.002,-4.6e-4 0.0111,-0.002 0.024,-0.002 0.0138,0 0.024,0.001 0.0186,-10e-4 l 7.77757,3.93719 -8.30985,4.29763 c -0.002,4.5e-4 -0.0109,0.002 -0.0233,0.002 l -0.003,0.005 -8.32981,-4.09609 8.84599,-4.14235 z m -0.48852,17.55072 c -0.002,6.8e-4 -0.0116,0.002 -0.0247,0.002 l -0.003,0.005 -8.32957,-4.09633 3.93877,-1.84391 3.99001,1.96202 c 0.1478,0.0728 0.30105,0.0882 0.40351,0.0882 0.10813,0 0.26931,-0.0167 0.42392,-0.0966 l 4.22417,-2.18372 3.68488,1.86567 -8.30826,4.29717 z"
           inkscape:connector-curvature="0" />
        <path
           inkscape:connector-curvature="0"
           d="m 622.41684,161.24758 -3.81976,-1.93414 3.61574,-1.8693 c 0.11515,-0.0598 0.11515,-0.15596 -6.9e-4,-0.21422 l -4.07774,-2.06449 4.28721,-2.21659 c 0.20832,-0.10813 0.33188,-0.29992 0.33074,-0.51324 -10e-4,-0.21286 -0.12718,-0.40282 -0.3355,-0.50801 l -8.36131,-4.2328 c -0.15483,-0.0782 -0.31646,-0.0948 -0.42505,-0.0948 -0.0998,0 -0.24891,0.014 -0.39331,0.0816 l -9.50475,4.44974 c -0.21626,0.10133 -0.34661,0.29084 -0.34865,0.50665 -0.002,0.21604 0.12513,0.40805 0.33981,0.51369 l 4.56535,2.24493 -4.36405,2.04295 c -0.11651,0.0547 -0.11697,0.14576 -0.002,0.20266 l 3.87508,1.90557 -4.0664,1.90331 c -0.2165,0.10133 -0.34684,0.29084 -0.34865,0.50666 -0.002,0.21603 0.12535,0.40804 0.3398,0.51323 l 8.96658,4.40961 c 0.14758,0.0728 0.30082,0.088 0.40328,0.088 0.10791,0 0.26887,-0.0165 0.42437,-0.0963 l 8.90424,-4.60366 c 0.20833,-0.10813 0.33188,-0.29992 0.33074,-0.51323 -0.002,-0.21264 -0.12739,-0.40283 -0.33595,-0.50779 z m -8.81039,-12.73873 c 0.002,-4.6e-4 0.0111,-0.002 0.024,-0.002 0.0138,0 0.024,0.001 0.0186,-10e-4 l 7.77757,3.93719 -8.30985,4.29763 c -0.002,4.5e-4 -0.0109,0.002 -0.0233,0.002 l -0.003,0.005 -8.32981,-4.09609 8.84599,-4.14235 z m -0.48852,17.55072 c -0.002,6.8e-4 -0.0116,0.002 -0.0247,0.002 l -0.003,0.005 -8.32957,-4.09633 3.93877,-1.84391 3.99001,1.96202 c 0.1478,0.0728 0.30105,0.0882 0.40351,0.0882 0.10813,0 0.26931,-0.0167 0.42392,-0.0966 l 4.22417,-2.18372 3.68488,1.86567 -8.30826,4.29717 z"
           id="path11193"
           style="fill:#ffffff;filter:url(#filter11148)" />
        <path
           inkscape:connector-curvature="0"
           d="m 622.41684,161.24758 -3.81976,-1.93414 3.61574,-1.8693 c 0.11515,-0.0598 0.11515,-0.15596 -6.9e-4,-0.21422 l -4.07774,-2.06449 4.28721,-2.21659 c 0.20832,-0.10813 0.33188,-0.29992 0.33074,-0.51324 -10e-4,-0.21286 -0.12718,-0.40282 -0.3355,-0.50801 l -8.36131,-4.2328 c -0.15483,-0.0782 -0.31646,-0.0948 -0.42505,-0.0948 -0.0998,0 -0.24891,0.014 -0.39331,0.0816 l -9.50475,4.44974 c -0.21626,0.10133 -0.34661,0.29084 -0.34865,0.50665 -0.002,0.21604 0.12513,0.40805 0.33981,0.51369 l 4.56535,2.24493 -4.36405,2.04295 c -0.11651,0.0547 -0.11697,0.14576 -0.002,0.20266 l 3.87508,1.90557 -4.0664,1.90331 c -0.2165,0.10133 -0.34684,0.29084 -0.34865,0.50666 -0.002,0.21603 0.12535,0.40804 0.3398,0.51323 l 8.96658,4.40961 c 0.14758,0.0728 0.30082,0.088 0.40328,0.088 0.10791,0 0.26887,-0.0165 0.42437,-0.0963 l 8.90424,-4.60366 c 0.20833,-0.10813 0.33188,-0.29992 0.33074,-0.51323 -0.002,-0.21264 -0.12739,-0.40283 -0.33595,-0.50779 z m -8.81039,-12.73873 c 0.002,-4.6e-4 0.0111,-0.002 0.024,-0.002 0.0138,0 0.024,0.001 0.0186,-10e-4 l 7.77757,3.93719 -8.30985,4.29763 c -0.002,4.5e-4 -0.0109,0.002 -0.0233,0.002 l -0.003,0.005 -8.32981,-4.09609 8.84599,-4.14235 z m -0.48852,17.55072 c -0.002,6.8e-4 -0.0116,0.002 -0.0247,0.002 l -0.003,0.005 -8.32957,-4.09633 3.93877,-1.84391 3.99001,1.96202 c 0.1478,0.0728 0.30105,0.0882 0.40351,0.0882 0.10813,0 0.26931,-0.0167 0.42392,-0.0966 l 4.22417,-2.18372 3.68488,1.86567 -8.30826,4.29717 z"
           id="path11195"
           style="fill:#1a1a1a" />
      </g>
      <g
         id="g11197"
         transform="matrix(0.56876082,0,0,0.56876082,295.89643,64.166426)">
        <path
           inkscape:connector-curvature="0"
           d="m 622.41684,161.24758 -3.81976,-1.93414 3.61574,-1.8693 c 0.11515,-0.0598 0.11515,-0.15596 -6.9e-4,-0.21422 l -4.07774,-2.06449 4.28721,-2.21659 c 0.20832,-0.10813 0.33188,-0.29992 0.33074,-0.51324 -10e-4,-0.21286 -0.12718,-0.40282 -0.3355,-0.50801 l -8.36131,-4.2328 c -0.15483,-0.0782 -0.31646,-0.0948 -0.42505,-0.0948 -0.0998,0 -0.24891,0.014 -0.39331,0.0816 l -9.50475,4.44974 c -0.21626,0.10133 -0.34661,0.29084 -0.34865,0.50665 -0.002,0.21604 0.12513,0.40805 0.33981,0.51369 l 4.56535,2.24493 -4.36405,2.04295 c -0.11651,0.0547 -0.11697,0.14576 -0.002,0.20266 l 3.87508,1.90557 -4.0664,1.90331 c -0.2165,0.10133 -0.34684,0.29084 -0.34865,0.50666 -0.002,0.21603 0.12535,0.40804 0.3398,0.51323 l 8.96658,4.40961 c 0.14758,0.0728 0.30082,0.088 0.40328,0.088 0.10791,0 0.26887,-0.0165 0.42437,-0.0963 l 8.90424,-4.60366 c 0.20833,-0.10813 0.33188,-0.29992 0.33074,-0.51323 -0.002,-0.21264 -0.12739,-0.40283 -0.33595,-0.50779 z m -8.81039,-12.73873 c 0.002,-4.6e-4 0.0111,-0.002 0.024,-0.002 0.0138,0 0.024,0.001 0.0186,-10e-4 l 7.77757,3.93719 -8.30985,4.29763 c -0.002,4.5e-4 -0.0109,0.002 -0.0233,0.002 l -0.003,0.005 -8.32981,-4.09609 8.84599,-4.14235 z m -0.48852,17.55072 c -0.002,6.8e-4 -0.0116,0.002 -0.0247,0.002 l -0.003,0.005 -8.32957,-4.09633 3.93877,-1.84391 3.99001,1.96202 c 0.1478,0.0728 0.30105,0.0882 0.40351,0.0882 0.10813,0 0.26931,-0.0167 0.42392,-0.0966 l 4.22417,-2.18372 3.68488,1.86567 -8.30826,4.29717 z"
           id="path11199"
           style="fill:#ffffff;filter:url(#filter11148)" />
        <path
           style="fill:#ffffff;filter:url(#filter11148)"
           id="path11201"
           d="m 622.41684,161.24758 -3.81976,-1.93414 3.61574,-1.8693 c 0.11515,-0.0598 0.11515,-0.15596 -6.9e-4,-0.21422 l -4.07774,-2.06449 4.28721,-2.21659 c 0.20832,-0.10813 0.33188,-0.29992 0.33074,-0.51324 -10e-4,-0.21286 -0.12718,-0.40282 -0.3355,-0.50801 l -8.36131,-4.2328 c -0.15483,-0.0782 -0.31646,-0.0948 -0.42505,-0.0948 -0.0998,0 -0.24891,0.014 -0.39331,0.0816 l -9.50475,4.44974 c -0.21626,0.10133 -0.34661,0.29084 -0.34865,0.50665 -0.002,0.21604 0.12513,0.40805 0.33981,0.51369 l 4.56535,2.24493 -4.36405,2.04295 c -0.11651,0.0547 -0.11697,0.14576 -0.002,0.20266 l 3.87508,1.90557 -4.0664,1.90331 c -0.2165,0.10133 -0.34684,0.29084 -0.34865,0.50666 -0.002,0.21603 0.12535,0.40804 0.3398,0.51323 l 8.96658,4.40961 c 0.14758,0.0728 0.30082,0.088 0.40328,0.088 0.10791,0 0.26887,-0.0165 0.42437,-0.0963 l 8.90424,-4.60366 c 0.20833,-0.10813 0.33188,-0.29992 0.33074,-0.51323 -0.002,-0.21264 -0.12739,-0.40283 -0.33595,-0.50779 z m -8.81039,-12.73873 c 0.002,-4.6e-4 0.0111,-0.002 0.024,-0.002 0.0138,0 0.024,0.001 0.0186,-10e-4 l 7.77757,3.93719 -8.30985,4.29763 c -0.002,4.5e-4 -0.0109,0.002 -0.0233,0.002 l -0.003,0.005 -8.32981,-4.09609 8.84599,-4.14235 z m -0.48852,17.55072 c -0.002,6.8e-4 -0.0116,0.002 -0.0247,0.002 l -0.003,0.005 -8.32957,-4.09633 3.93877,-1.84391 3.99001,1.96202 c 0.1478,0.0728 0.30105,0.0882 0.40351,0.0882 0.10813,0 0.26931,-0.0167 0.42392,-0.0966 l 4.22417,-2.18372 3.68488,1.86567 -8.30826,4.29717 z"
           inkscape:connector-curvature="0" />
        <path
           style="fill:#1a1a1a"
           id="path11203"
           d="m 622.41684,161.24758 -3.81976,-1.93414 3.61574,-1.8693 c 0.11515,-0.0598 0.11515,-0.15596 -6.9e-4,-0.21422 l -4.07774,-2.06449 4.28721,-2.21659 c 0.20832,-0.10813 0.33188,-0.29992 0.33074,-0.51324 -10e-4,-0.21286 -0.12718,-0.40282 -0.3355,-0.50801 l -8.36131,-4.2328 c -0.15483,-0.0782 -0.31646,-0.0948 -0.42505,-0.0948 -0.0998,0 -0.24891,0.014 -0.39331,0.0816 l -9.50475,4.44974 c -0.21626,0.10133 -0.34661,0.29084 -0.34865,0.50665 -0.002,0.21604 0.12513,0.40805 0.33981,0.51369 l 4.56535,2.24493 -4.36405,2.04295 c -0.11651,0.0547 -0.11697,0.14576 -0.002,0.20266 l 3.87508,1.90557 -4.0664,1.90331 c -0.2165,0.10133 -0.34684,0.29084 -0.34865,0.50666 -0.002,0.21603 0.12535,0.40804 0.3398,0.51323 l 8.96658,4.40961 c 0.14758,0.0728 0.30082,0.088 0.40328,0.088 0.10791,0 0.26887,-0.0165 0.42437,-0.0963 l 8.90424,-4.60366 c 0.20833,-0.10813 0.33188,-0.29992 0.33074,-0.51323 -0.002,-0.21264 -0.12739,-0.40283 -0.33595,-0.50779 z m -8.81039,-12.73873 c 0.002,-4.6e-4 0.0111,-0.002 0.024,-0.002 0.0138,0 0.024,0.001 0.0186,-10e-4 l 7.77757,3.93719 -8.30985,4.29763 c -0.002,4.5e-4 -0.0109,0.002 -0.0233,0.002 l -0.003,0.005 -8.32981,-4.09609 8.84599,-4.14235 z m -0.48852,17.55072 c -0.002,6.8e-4 -0.0116,0.002 -0.0247,0.002 l -0.003,0.005 -8.32957,-4.09633 3.93877,-1.84391 3.99001,1.96202 c 0.1478,0.0728 0.30105,0.0882 0.40351,0.0882 0.10813,0 0.26931,-0.0167 0.42392,-0.0966 l 4.22417,-2.18372 3.68488,1.86567 -8.30826,4.29717 z"
           inkscape:connector-curvature="0" />
      </g>
      <g
         transform="matrix(0.56876082,0,0,0.56876082,288.75361,87.202141)"
         id="g11205">
        <path
           style="fill:#ffffff;filter:url(#filter11148)"
           id="path11207"
           d="m 622.41684,161.24758 -3.81976,-1.93414 3.61574,-1.8693 c 0.11515,-0.0598 0.11515,-0.15596 -6.9e-4,-0.21422 l -4.07774,-2.06449 4.28721,-2.21659 c 0.20832,-0.10813 0.33188,-0.29992 0.33074,-0.51324 -10e-4,-0.21286 -0.12718,-0.40282 -0.3355,-0.50801 l -8.36131,-4.2328 c -0.15483,-0.0782 -0.31646,-0.0948 -0.42505,-0.0948 -0.0998,0 -0.24891,0.014 -0.39331,0.0816 l -9.50475,4.44974 c -0.21626,0.10133 -0.34661,0.29084 -0.34865,0.50665 -0.002,0.21604 0.12513,0.40805 0.33981,0.51369 l 4.56535,2.24493 -4.36405,2.04295 c -0.11651,0.0547 -0.11697,0.14576 -0.002,0.20266 l 3.87508,1.90557 -4.0664,1.90331 c -0.2165,0.10133 -0.34684,0.29084 -0.34865,0.50666 -0.002,0.21603 0.12535,0.40804 0.3398,0.51323 l 8.96658,4.40961 c 0.14758,0.0728 0.30082,0.088 0.40328,0.088 0.10791,0 0.26887,-0.0165 0.42437,-0.0963 l 8.90424,-4.60366 c 0.20833,-0.10813 0.33188,-0.29992 0.33074,-0.51323 -0.002,-0.21264 -0.12739,-0.40283 -0.33595,-0.50779 z m -8.81039,-12.73873 c 0.002,-4.6e-4 0.0111,-0.002 0.024,-0.002 0.0138,0 0.024,0.001 0.0186,-10e-4 l 7.77757,3.93719 -8.30985,4.29763 c -0.002,4.5e-4 -0.0109,0.002 -0.0233,0.002 l -0.003,0.005 -8.32981,-4.09609 8.84599,-4.14235 z m -0.48852,17.55072 c -0.002,6.8e-4 -0.0116,0.002 -0.0247,0.002 l -0.003,0.005 -8.32957,-4.09633 3.93877,-1.84391 3.99001,1.96202 c 0.1478,0.0728 0.30105,0.0882 0.40351,0.0882 0.10813,0 0.26931,-0.0167 0.42392,-0.0966 l 4.22417,-2.18372 3.68488,1.86567 -8.30826,4.29717 z"
           inkscape:connector-curvature="0" />
        <path
           inkscape:connector-curvature="0"
           d="m 622.41684,161.24758 -3.81976,-1.93414 3.61574,-1.8693 c 0.11515,-0.0598 0.11515,-0.15596 -6.9e-4,-0.21422 l -4.07774,-2.06449 4.28721,-2.21659 c 0.20832,-0.10813 0.33188,-0.29992 0.33074,-0.51324 -10e-4,-0.21286 -0.12718,-0.40282 -0.3355,-0.50801 l -8.36131,-4.2328 c -0.15483,-0.0782 -0.31646,-0.0948 -0.42505,-0.0948 -0.0998,0 -0.24891,0.014 -0.39331,0.0816 l -9.50475,4.44974 c -0.21626,0.10133 -0.34661,0.29084 -0.34865,0.50665 -0.002,0.21604 0.12513,0.40805 0.33981,0.51369 l 4.56535,2.24493 -4.36405,2.04295 c -0.11651,0.0547 -0.11697,0.14576 -0.002,0.20266 l 3.87508,1.90557 -4.0664,1.90331 c -0.2165,0.10133 -0.34684,0.29084 -0.34865,0.50666 -0.002,0.21603 0.12535,0.40804 0.3398,0.51323 l 8.96658,4.40961 c 0.14758,0.0728 0.30082,0.088 0.40328,0.088 0.10791,0 0.26887,-0.0165 0.42437,-0.0963 l 8.90424,-4.60366 c 0.20833,-0.10813 0.33188,-0.29992 0.33074,-0.51323 -0.002,-0.21264 -0.12739,-0.40283 -0.33595,-0.50779 z m -8.81039,-12.73873 c 0.002,-4.6e-4 0.0111,-0.002 0.024,-0.002 0.0138,0 0.024,0.001 0.0186,-10e-4 l 7.77757,3.93719 -8.30985,4.29763 c -0.002,4.5e-4 -0.0109,0.002 -0.0233,0.002 l -0.003,0.005 -8.32981,-4.09609 8.84599,-4.14235 z m -0.48852,17.55072 c -0.002,6.8e-4 -0.0116,0.002 -0.0247,0.002 l -0.003,0.005 -8.32957,-4.09633 3.93877,-1.84391 3.99001,1.96202 c 0.1478,0.0728 0.30105,0.0882 0.40351,0.0882 0.10813,0 0.26931,-0.0167 0.42392,-0.0966 l 4.22417,-2.18372 3.68488,1.86567 -8.30826,4.29717 z"
           id="path11209"
           style="fill:#ffffff;filter:url(#filter11148)" />
        <path
           inkscape:connector-curvature="0"
           d="m 622.41684,161.24758 -3.81976,-1.93414 3.61574,-1.8693 c 0.11515,-0.0598 0.11515,-0.15596 -6.9e-4,-0.21422 l -4.07774,-2.06449 4.28721,-2.21659 c 0.20832,-0.10813 0.33188,-0.29992 0.33074,-0.51324 -10e-4,-0.21286 -0.12718,-0.40282 -0.3355,-0.50801 l -8.36131,-4.2328 c -0.15483,-0.0782 -0.31646,-0.0948 -0.42505,-0.0948 -0.0998,0 -0.24891,0.014 -0.39331,0.0816 l -9.50475,4.44974 c -0.21626,0.10133 -0.34661,0.29084 -0.34865,0.50665 -0.002,0.21604 0.12513,0.40805 0.33981,0.51369 l 4.56535,2.24493 -4.36405,2.04295 c -0.11651,0.0547 -0.11697,0.14576 -0.002,0.20266 l 3.87508,1.90557 -4.0664,1.90331 c -0.2165,0.10133 -0.34684,0.29084 -0.34865,0.50666 -0.002,0.21603 0.12535,0.40804 0.3398,0.51323 l 8.96658,4.40961 c 0.14758,0.0728 0.30082,0.088 0.40328,0.088 0.10791,0 0.26887,-0.0165 0.42437,-0.0963 l 8.90424,-4.60366 c 0.20833,-0.10813 0.33188,-0.29992 0.33074,-0.51323 -0.002,-0.21264 -0.12739,-0.40283 -0.33595,-0.50779 z m -8.81039,-12.73873 c 0.002,-4.6e-4 0.0111,-0.002 0.024,-0.002 0.0138,0 0.024,0.001 0.0186,-10e-4 l 7.77757,3.93719 -8.30985,4.29763 c -0.002,4.5e-4 -0.0109,0.002 -0.0233,0.002 l -0.003,0.005 -8.32981,-4.09609 8.84599,-4.14235 z m -0.48852,17.55072 c -0.002,6.8e-4 -0.0116,0.002 -0.0247,0.002 l -0.003,0.005 -8.32957,-4.09633 3.93877,-1.84391 3.99001,1.96202 c 0.1478,0.0728 0.30105,0.0882 0.40351,0.0882 0.10813,0 0.26931,-0.0167 0.42392,-0.0966 l 4.22417,-2.18372 3.68488,1.86567 -8.30826,4.29717 z"
           id="path11211"
           style="fill:#1a1a1a" />
      </g>
      <g
         id="g11213"
         transform="matrix(0.56876082,0,0,0.56876082,257.05719,98.273567)">
        <path
           inkscape:connector-curvature="0"
           d="m 622.41684,161.24758 -3.81976,-1.93414 3.61574,-1.8693 c 0.11515,-0.0598 0.11515,-0.15596 -6.9e-4,-0.21422 l -4.07774,-2.06449 4.28721,-2.21659 c 0.20832,-0.10813 0.33188,-0.29992 0.33074,-0.51324 -10e-4,-0.21286 -0.12718,-0.40282 -0.3355,-0.50801 l -8.36131,-4.2328 c -0.15483,-0.0782 -0.31646,-0.0948 -0.42505,-0.0948 -0.0998,0 -0.24891,0.014 -0.39331,0.0816 l -9.50475,4.44974 c -0.21626,0.10133 -0.34661,0.29084 -0.34865,0.50665 -0.002,0.21604 0.12513,0.40805 0.33981,0.51369 l 4.56535,2.24493 -4.36405,2.04295 c -0.11651,0.0547 -0.11697,0.14576 -0.002,0.20266 l 3.87508,1.90557 -4.0664,1.90331 c -0.2165,0.10133 -0.34684,0.29084 -0.34865,0.50666 -0.002,0.21603 0.12535,0.40804 0.3398,0.51323 l 8.96658,4.40961 c 0.14758,0.0728 0.30082,0.088 0.40328,0.088 0.10791,0 0.26887,-0.0165 0.42437,-0.0963 l 8.90424,-4.60366 c 0.20833,-0.10813 0.33188,-0.29992 0.33074,-0.51323 -0.002,-0.21264 -0.12739,-0.40283 -0.33595,-0.50779 z m -8.81039,-12.73873 c 0.002,-4.6e-4 0.0111,-0.002 0.024,-0.002 0.0138,0 0.024,0.001 0.0186,-10e-4 l 7.77757,3.93719 -8.30985,4.29763 c -0.002,4.5e-4 -0.0109,0.002 -0.0233,0.002 l -0.003,0.005 -8.32981,-4.09609 8.84599,-4.14235 z m -0.48852,17.55072 c -0.002,6.8e-4 -0.0116,0.002 -0.0247,0.002 l -0.003,0.005 -8.32957,-4.09633 3.93877,-1.84391 3.99001,1.96202 c 0.1478,0.0728 0.30105,0.0882 0.40351,0.0882 0.10813,0 0.26931,-0.0167 0.42392,-0.0966 l 4.22417,-2.18372 3.68488,1.86567 -8.30826,4.29717 z"
           id="path11215"
           style="fill:#ffffff;filter:url(#filter11148)" />
        <path
           style="fill:#ffffff;filter:url(#filter11148)"
           id="path11217"
           d="m 622.41684,161.24758 -3.81976,-1.93414 3.61574,-1.8693 c 0.11515,-0.0598 0.11515,-0.15596 -6.9e-4,-0.21422 l -4.07774,-2.06449 4.28721,-2.21659 c 0.20832,-0.10813 0.33188,-0.29992 0.33074,-0.51324 -10e-4,-0.21286 -0.12718,-0.40282 -0.3355,-0.50801 l -8.36131,-4.2328 c -0.15483,-0.0782 -0.31646,-0.0948 -0.42505,-0.0948 -0.0998,0 -0.24891,0.014 -0.39331,0.0816 l -9.50475,4.44974 c -0.21626,0.10133 -0.34661,0.29084 -0.34865,0.50665 -0.002,0.21604 0.12513,0.40805 0.33981,0.51369 l 4.56535,2.24493 -4.36405,2.04295 c -0.11651,0.0547 -0.11697,0.14576 -0.002,0.20266 l 3.87508,1.90557 -4.0664,1.90331 c -0.2165,0.10133 -0.34684,0.29084 -0.34865,0.50666 -0.002,0.21603 0.12535,0.40804 0.3398,0.51323 l 8.96658,4.40961 c 0.14758,0.0728 0.30082,0.088 0.40328,0.088 0.10791,0 0.26887,-0.0165 0.42437,-0.0963 l 8.90424,-4.60366 c 0.20833,-0.10813 0.33188,-0.29992 0.33074,-0.51323 -0.002,-0.21264 -0.12739,-0.40283 -0.33595,-0.50779 z m -8.81039,-12.73873 c 0.002,-4.6e-4 0.0111,-0.002 0.024,-0.002 0.0138,0 0.024,0.001 0.0186,-10e-4 l 7.77757,3.93719 -8.30985,4.29763 c -0.002,4.5e-4 -0.0109,0.002 -0.0233,0.002 l -0.003,0.005 -8.32981,-4.09609 8.84599,-4.14235 z m -0.48852,17.55072 c -0.002,6.8e-4 -0.0116,0.002 -0.0247,0.002 l -0.003,0.005 -8.32957,-4.09633 3.93877,-1.84391 3.99001,1.96202 c 0.1478,0.0728 0.30105,0.0882 0.40351,0.0882 0.10813,0 0.26931,-0.0167 0.42392,-0.0966 l 4.22417,-2.18372 3.68488,1.86567 -8.30826,4.29717 z"
           inkscape:connector-curvature="0" />
        <path
           style="fill:#1a1a1a"
           id="path11219"
           d="m 622.41684,161.24758 -3.81976,-1.93414 3.61574,-1.8693 c 0.11515,-0.0598 0.11515,-0.15596 -6.9e-4,-0.21422 l -4.07774,-2.06449 4.28721,-2.21659 c 0.20832,-0.10813 0.33188,-0.29992 0.33074,-0.51324 -10e-4,-0.21286 -0.12718,-0.40282 -0.3355,-0.50801 l -8.36131,-4.2328 c -0.15483,-0.0782 -0.31646,-0.0948 -0.42505,-0.0948 -0.0998,0 -0.24891,0.014 -0.39331,0.0816 l -9.50475,4.44974 c -0.21626,0.10133 -0.34661,0.29084 -0.34865,0.50665 -0.002,0.21604 0.12513,0.40805 0.33981,0.51369 l 4.56535,2.24493 -4.36405,2.04295 c -0.11651,0.0547 -0.11697,0.14576 -0.002,0.20266 l 3.87508,1.90557 -4.0664,1.90331 c -0.2165,0.10133 -0.34684,0.29084 -0.34865,0.50666 -0.002,0.21603 0.12535,0.40804 0.3398,0.51323 l 8.96658,4.40961 c 0.14758,0.0728 0.30082,0.088 0.40328,0.088 0.10791,0 0.26887,-0.0165 0.42437,-0.0963 l 8.90424,-4.60366 c 0.20833,-0.10813 0.33188,-0.29992 0.33074,-0.51323 -0.002,-0.21264 -0.12739,-0.40283 -0.33595,-0.50779 z m -8.81039,-12.73873 c 0.002,-4.6e-4 0.0111,-0.002 0.024,-0.002 0.0138,0 0.024,0.001 0.0186,-10e-4 l 7.77757,3.93719 -8.30985,4.29763 c -0.002,4.5e-4 -0.0109,0.002 -0.0233,0.002 l -0.003,0.005 -8.32981,-4.09609 8.84599,-4.14235 z m -0.48852,17.55072 c -0.002,6.8e-4 -0.0116,0.002 -0.0247,0.002 l -0.003,0.005 -8.32957,-4.09633 3.93877,-1.84391 3.99001,1.96202 c 0.1478,0.0728 0.30105,0.0882 0.40351,0.0882 0.10813,0 0.26931,-0.0167 0.42392,-0.0966 l 4.22417,-2.18372 3.68488,1.86567 -8.30826,4.29717 z"
           inkscape:connector-curvature="0" />
      </g>
      <g
         transform="matrix(0.56876082,0,0,0.56876082,234.20001,79.791424)"
         id="g11221">
        <path
           style="fill:#ffffff;filter:url(#filter11148)"
           id="path11223"
           d="m 622.41684,161.24758 -3.81976,-1.93414 3.61574,-1.8693 c 0.11515,-0.0598 0.11515,-0.15596 -6.9e-4,-0.21422 l -4.07774,-2.06449 4.28721,-2.21659 c 0.20832,-0.10813 0.33188,-0.29992 0.33074,-0.51324 -10e-4,-0.21286 -0.12718,-0.40282 -0.3355,-0.50801 l -8.36131,-4.2328 c -0.15483,-0.0782 -0.31646,-0.0948 -0.42505,-0.0948 -0.0998,0 -0.24891,0.014 -0.39331,0.0816 l -9.50475,4.44974 c -0.21626,0.10133 -0.34661,0.29084 -0.34865,0.50665 -0.002,0.21604 0.12513,0.40805 0.33981,0.51369 l 4.56535,2.24493 -4.36405,2.04295 c -0.11651,0.0547 -0.11697,0.14576 -0.002,0.20266 l 3.87508,1.90557 -4.0664,1.90331 c -0.2165,0.10133 -0.34684,0.29084 -0.34865,0.50666 -0.002,0.21603 0.12535,0.40804 0.3398,0.51323 l 8.96658,4.40961 c 0.14758,0.0728 0.30082,0.088 0.40328,0.088 0.10791,0 0.26887,-0.0165 0.42437,-0.0963 l 8.90424,-4.60366 c 0.20833,-0.10813 0.33188,-0.29992 0.33074,-0.51323 -0.002,-0.21264 -0.12739,-0.40283 -0.33595,-0.50779 z m -8.81039,-12.73873 c 0.002,-4.6e-4 0.0111,-0.002 0.024,-0.002 0.0138,0 0.024,0.001 0.0186,-10e-4 l 7.77757,3.93719 -8.30985,4.29763 c -0.002,4.5e-4 -0.0109,0.002 -0.0233,0.002 l -0.003,0.005 -8.32981,-4.09609 8.84599,-4.14235 z m -0.48852,17.55072 c -0.002,6.8e-4 -0.0116,0.002 -0.0247,0.002 l -0.003,0.005 -8.32957,-4.09633 3.93877,-1.84391 3.99001,1.96202 c 0.1478,0.0728 0.30105,0.0882 0.40351,0.0882 0.10813,0 0.26931,-0.0167 0.42392,-0.0966 l 4.22417,-2.18372 3.68488,1.86567 -8.30826,4.29717 z"
           inkscape:connector-curvature="0" />
        <path
           inkscape:connector-curvature="0"
           d="m 622.41684,161.24758 -3.81976,-1.93414 3.61574,-1.8693 c 0.11515,-0.0598 0.11515,-0.15596 -6.9e-4,-0.21422 l -4.07774,-2.06449 4.28721,-2.21659 c 0.20832,-0.10813 0.33188,-0.29992 0.33074,-0.51324 -10e-4,-0.21286 -0.12718,-0.40282 -0.3355,-0.50801 l -8.36131,-4.2328 c -0.15483,-0.0782 -0.31646,-0.0948 -0.42505,-0.0948 -0.0998,0 -0.24891,0.014 -0.39331,0.0816 l -9.50475,4.44974 c -0.21626,0.10133 -0.34661,0.29084 -0.34865,0.50665 -0.002,0.21604 0.12513,0.40805 0.33981,0.51369 l 4.56535,2.24493 -4.36405,2.04295 c -0.11651,0.0547 -0.11697,0.14576 -0.002,0.20266 l 3.87508,1.90557 -4.0664,1.90331 c -0.2165,0.10133 -0.34684,0.29084 -0.34865,0.50666 -0.002,0.21603 0.12535,0.40804 0.3398,0.51323 l 8.96658,4.40961 c 0.14758,0.0728 0.30082,0.088 0.40328,0.088 0.10791,0 0.26887,-0.0165 0.42437,-0.0963 l 8.90424,-4.60366 c 0.20833,-0.10813 0.33188,-0.29992 0.33074,-0.51323 -0.002,-0.21264 -0.12739,-0.40283 -0.33595,-0.50779 z m -8.81039,-12.73873 c 0.002,-4.6e-4 0.0111,-0.002 0.024,-0.002 0.0138,0 0.024,0.001 0.0186,-10e-4 l 7.77757,3.93719 -8.30985,4.29763 c -0.002,4.5e-4 -0.0109,0.002 -0.0233,0.002 l -0.003,0.005 -8.32981,-4.09609 8.84599,-4.14235 z m -0.48852,17.55072 c -0.002,6.8e-4 -0.0116,0.002 -0.0247,0.002 l -0.003,0.005 -8.32957,-4.09633 3.93877,-1.84391 3.99001,1.96202 c 0.1478,0.0728 0.30105,0.0882 0.40351,0.0882 0.10813,0 0.26931,-0.0167 0.42392,-0.0966 l 4.22417,-2.18372 3.68488,1.86567 -8.30826,4.29717 z"
           id="path11225"
           style="fill:#ffffff;filter:url(#filter11148)" />
        <path
           inkscape:connector-curvature="0"
           d="m 622.41684,161.24758 -3.81976,-1.93414 3.61574,-1.8693 c 0.11515,-0.0598 0.11515,-0.15596 -6.9e-4,-0.21422 l -4.07774,-2.06449 4.28721,-2.21659 c 0.20832,-0.10813 0.33188,-0.29992 0.33074,-0.51324 -10e-4,-0.21286 -0.12718,-0.40282 -0.3355,-0.50801 l -8.36131,-4.2328 c -0.15483,-0.0782 -0.31646,-0.0948 -0.42505,-0.0948 -0.0998,0 -0.24891,0.014 -0.39331,0.0816 l -9.50475,4.44974 c -0.21626,0.10133 -0.34661,0.29084 -0.34865,0.50665 -0.002,0.21604 0.12513,0.40805 0.33981,0.51369 l 4.56535,2.24493 -4.36405,2.04295 c -0.11651,0.0547 -0.11697,0.14576 -0.002,0.20266 l 3.87508,1.90557 -4.0664,1.90331 c -0.2165,0.10133 -0.34684,0.29084 -0.34865,0.50666 -0.002,0.21603 0.12535,0.40804 0.3398,0.51323 l 8.96658,4.40961 c 0.14758,0.0728 0.30082,0.088 0.40328,0.088 0.10791,0 0.26887,-0.0165 0.42437,-0.0963 l 8.90424,-4.60366 c 0.20833,-0.10813 0.33188,-0.29992 0.33074,-0.51323 -0.002,-0.21264 -0.12739,-0.40283 -0.33595,-0.50779 z m -8.81039,-12.73873 c 0.002,-4.6e-4 0.0111,-0.002 0.024,-0.002 0.0138,0 0.024,0.001 0.0186,-10e-4 l 7.77757,3.93719 -8.30985,4.29763 c -0.002,4.5e-4 -0.0109,0.002 -0.0233,0.002 l -0.003,0.005 -8.32981,-4.09609 8.84599,-4.14235 z m -0.48852,17.55072 c -0.002,6.8e-4 -0.0116,0.002 -0.0247,0.002 l -0.003,0.005 -8.32957,-4.09633 3.93877,-1.84391 3.99001,1.96202 c 0.1478,0.0728 0.30105,0.0882 0.40351,0.0882 0.10813,0 0.26931,-0.0167 0.42392,-0.0966 l 4.22417,-2.18372 3.68488,1.86567 -8.30826,4.29717 z"
           id="path11227"
           style="fill:#1a1a1a" />
      </g>
    </g>
  </g>
</svg>
