<?xml version="1.0" encoding="UTF-8" standalone="no"?>
<!-- Created with Inkscape (http://www.inkscape.org/) -->

<svg
   xmlns:dc="http://purl.org/dc/elements/1.1/"
   xmlns:cc="http://creativecommons.org/ns#"
   xmlns:rdf="http://www.w3.org/1999/02/22-rdf-syntax-ns#"
   xmlns:svg="http://www.w3.org/2000/svg"
   xmlns="http://www.w3.org/2000/svg"
   xmlns:xlink="http://www.w3.org/1999/xlink"
   xmlns:sodipodi="http://sodipodi.sourceforge.net/DTD/sodipodi-0.dtd"
   xmlns:inkscape="http://www.inkscape.org/namespaces/inkscape"
   width="112.88889mm"
   height="95.734848mm"
   viewBox="0 0 400.00001 339.21797"
   id="svg18126"
   version="1.1"
   inkscape:version="0.91 r13725"
   sodipodi:docname="unsustainable-perpetuation.svg">
  <defs
     id="defs18128">
    <path
       transform="scale(-1,1)"
       style="opacity:1;fill:none;fill-opacity:1;stroke:#00d4aa;stroke-width:3.31200099;stroke-linecap:round;stroke-linejoin:round;stroke-miterlimit:4;stroke-dasharray:none;stroke-dashoffset:0;stroke-opacity:1"
       id="path6917"
       sodipodi:type="arc"
       sodipodi:cx="-1756.1945"
       sodipodi:cy="-156.46022"
       sodipodi:rx="63.343994"
       sodipodi:ry="63.343994"
       sodipodi:start="1.0471976"
       sodipodi:end="5.2359878"
       d="m -1724.5225,-101.60271 a 63.343994,63.343994 0 0 1 -80.1963,-14.14078 63.343994,63.343994 0 0 1 0,-81.43347 63.343994,63.343994 0 0 1 80.1963,-14.14077"
       sodipodi:open="true" />
    <path
       sodipodi:open="true"
       d="m 1673.5127,-101.60271 a 63.343994,63.343994 0 0 1 -80.1963,-14.14078 63.343994,63.343994 0 0 1 0,-81.43347 63.343994,63.343994 0 0 1 80.1963,-14.14077"
       sodipodi:end="5.2359878"
       sodipodi:start="1.0471976"
       sodipodi:ry="63.343994"
       sodipodi:rx="63.343994"
       sodipodi:cy="-156.46022"
       sodipodi:cx="1641.8407"
       sodipodi:type="arc"
       id="path6913"
       style="opacity:1;fill:none;fill-opacity:1;stroke:#ff5555;stroke-width:3.31200099;stroke-linecap:round;stroke-linejoin:round;stroke-miterlimit:4;stroke-dasharray:none;stroke-dashoffset:0;stroke-opacity:1" />
    <linearGradient
       inkscape:collect="always"
       xlink:href="#linearGradient17948"
       id="linearGradient17954"
       x1="1698.5656"
       y1="-171.90504"
       x2="1698.5656"
       y2="-139.1595"
       gradientUnits="userSpaceOnUse"
       gradientTransform="translate(-1544.3926,664.2094)"
       spreadMethod="pad" />
    <linearGradient
       inkscape:collect="always"
       id="linearGradient17948">
      <stop
         style="stop-color:#e580ff;stop-opacity:0"
         offset="0"
         id="stop17950" />
      <stop
         id="stop17956"
         offset="0.4779875"
         style="stop-color:#ca00fd;stop-opacity:0.87349397" />
      <stop
         style="stop-color:#e580ff;stop-opacity:0;"
         offset="1"
         id="stop17952" />
    </linearGradient>
  </defs>
  <sodipodi:namedview
     id="base"
     pagecolor="#ffffff"
     bordercolor="#666666"
     borderopacity="1.0"
     inkscape:pageopacity="0.0"
     inkscape:pageshadow="2"
     inkscape:zoom="1.5011719"
     inkscape:cx="224.44288"
     inkscape:cy="204.24275"
     inkscape:document-units="px"
     inkscape:current-layer="layer1"
     showgrid="false"
     fit-margin-top="0"
     fit-margin-left="0"
     fit-margin-right="0"
     fit-margin-bottom="0"
     inkscape:showpageshadow="false"
     inkscape:window-width="1366"
     inkscape:window-height="713"
     inkscape:window-x="0"
     inkscape:window-y="27"
     inkscape:window-maximized="1"
     showborder="false"
     showguides="true"
     inkscape:guide-bbox="true" />
  <metadata
     id="metadata18131">
    <rdf:RDF>
      <cc:Work
         rdf:about="">
        <dc:format>image/svg+xml</dc:format>
        <dc:type
           rdf:resource="http://purl.org/dc/dcmitype/StillImage" />
        <dc:title></dc:title>
      </cc:Work>
    </rdf:RDF>
  </metadata>
  <g
     inkscape:label="Layer 1"
     inkscape:groupmode="layer"
     id="layer1"
     transform="translate(-16.278502,-285.77203)">
    <g
       id="g18427"
       inkscape:export-xdpi="90"
       inkscape:export-ydpi="90"
       transform="matrix(1.4488758,0,0,1.4488758,-7.3070247,-280.54285)">
      <g
         style="fill:#ffa3a3;fill-opacity:1"
         transform="translate(48.7905,454.66117)"
         id="g9996">
        <g
           style="fill:#ffa3a3;fill-opacity:1"
           id="Layer_1">
          <g
             style="fill:#ffa3a3;fill-opacity:1"
             id="g9908">
            <polygon
               style="fill:#ffa3a3;fill-opacity:1"
               points="35.661,48.256 44.486,39.434 44.486,27.077 47.965,21.933 47.965,3.223 50.645,3.223 50.645,22.754 47.166,27.898 47.166,40.544 38.341,49.367 38.341,53.298 15.88,75.262 14.006,73.346 35.661,52.171 "
               id="polygon9910" />
          </g>
          <g
             style="fill:#ffa3a3;fill-opacity:1"
             id="g9912">
            <polygon
               style="fill:#ffa3a3;fill-opacity:1"
               points="65.068,28.841 75.484,28.841 75.484,31.521 66.293,31.521 55.266,44.268 48.415,44.268 42.998,50.77 42.998,72.05 40.318,72.05 40.318,49.8 47.16,41.588 54.041,41.588 "
               id="polygon9914" />
          </g>
          <g
             style="fill:#ffa3a3;fill-opacity:1"
             id="g9916">
            <polygon
               style="fill:#ffa3a3;fill-opacity:1"
               points="53.313,84.698 53.313,71.493 45.221,64.634 45.221,49.942 49.225,46.247 59.487,46.247 62.526,43.208 64.421,45.103 60.597,48.927 50.271,48.927 47.9,51.115 47.9,63.392 55.993,70.251 55.993,83.515 60.944,88.023 59.14,90.004 "
               id="polygon9918" />
          </g>
          <g
             style="fill:#ffa3a3;fill-opacity:1"
             id="g9920">
            <polygon
               style="fill:#ffa3a3;fill-opacity:1"
               points="43.89,36.65 28.026,51.507 26.194,49.551 41.21,35.488 41.21,7.773 43.89,7.773 "
               id="polygon9922" />
          </g>
          <g
             style="fill:#ffa3a3;fill-opacity:1"
             id="g9924">
            <path
               style="fill:#ffa3a3;fill-opacity:1"
               inkscape:connector-curvature="0"
               d="m 41.658,72.05 c -2.357,0 -4.272,1.915 -4.272,4.276 0,2.359 1.915,4.271 4.272,4.271 2.363,0 4.274,-1.912 4.274,-4.271 0,-2.361 -1.911,-4.276 -4.274,-4.276 z"
               id="path9926" />
          </g>
          <g
             style="fill:#ffa3a3;fill-opacity:1"
             id="g9928">
            <path
               style="fill:#ffa3a3;fill-opacity:1"
               inkscape:connector-curvature="0"
               d="m 29.038,75.541 c -2.364,0 -4.276,1.92 -4.276,4.278 0,2.361 1.913,4.272 4.276,4.272 2.359,0 4.271,-1.911 4.271,-4.272 0.001,-2.358 -1.912,-4.278 -4.271,-4.278 z"
               id="path9930" />
          </g>
          <g
             style="fill:#ffa3a3;fill-opacity:1"
             id="g9932">
            <circle
               style="fill:#ffa3a3;fill-opacity:1"
               cx="29.038"
               cy="79.819"
               r="2.138"
               id="circle9934" />
          </g>
          <g
             style="fill:#ffa3a3;fill-opacity:1"
             id="g9936">
            <path
               style="fill:#ffa3a3;fill-opacity:1"
               inkscape:connector-curvature="0"
               d="m 41.658,88.231 c -2.357,0 -4.272,1.91 -4.272,4.27 0,2.361 1.915,4.276 4.272,4.276 2.363,0 4.274,-1.915 4.274,-4.276 0,-2.359 -1.911,-4.27 -4.274,-4.27 z"
               id="path9938" />
          </g>
          <g
             style="fill:#ffa3a3;fill-opacity:1"
             id="g9940">
            <path
               style="fill:#ffa3a3;fill-opacity:1"
               inkscape:connector-curvature="0"
               d="m 41.658,90.366 c -1.179,0 -2.137,0.956 -2.137,2.135 0,1.183 0.958,2.139 2.137,2.139 1.185,0 2.139,-0.956 2.139,-2.139 0,-1.179 -0.954,-2.135 -2.139,-2.135 z"
               id="path9942" />
          </g>
          <g
             style="fill:#ffa3a3;fill-opacity:1"
             id="g9944">
            <path
               style="fill:#ffa3a3;fill-opacity:1"
               inkscape:connector-curvature="0"
               d="m 11.76,73.409 c -2.366,0 -4.276,1.912 -4.276,4.271 0,2.361 1.911,4.276 4.276,4.276 2.361,0 4.27,-1.915 4.27,-4.276 -0.001,-2.359 -1.909,-4.271 -4.27,-4.271 z"
               id="path9946" />
          </g>
          <g
             style="fill:#ffa3a3;fill-opacity:1"
             id="g9948">
            <path
               style="fill:#ffa3a3;fill-opacity:1"
               inkscape:connector-curvature="0"
               d="m 11.76,75.541 c -1.183,0 -2.139,0.959 -2.139,2.14 0,1.183 0.956,2.139 2.139,2.139 1.174,0 2.135,-0.956 2.135,-2.139 0,-1.181 -0.961,-2.14 -2.135,-2.14 z"
               id="path9950" />
          </g>
          <g
             style="fill:#ffa3a3;fill-opacity:1"
             id="g9952">
            <path
               style="fill:#ffa3a3;fill-opacity:1"
               inkscape:connector-curvature="0"
               d="m 66.721,38.318 c -2.358,0 -4.27,1.913 -4.27,4.276 0,2.359 1.911,4.271 4.27,4.271 2.366,0 4.276,-1.913 4.276,-4.271 0,-2.364 -1.91,-4.276 -4.276,-4.276 z"
               id="path9954" />
          </g>
          <g
             style="fill:#ffa3a3;fill-opacity:1"
             id="g9956">
            <path
               style="fill:#ffa3a3;fill-opacity:1"
               inkscape:connector-curvature="0"
               d="m 66.721,40.455 c -1.181,0 -2.135,0.958 -2.135,2.139 0,1.174 0.954,2.137 2.135,2.137 1.183,0 2.14,-0.963 2.14,-2.137 -0.001,-1.18 -0.958,-2.139 -2.14,-2.139 z"
               id="path9958" />
          </g>
          <g
             style="fill:#ffa3a3;fill-opacity:1"
             id="g9960">
            <path
               style="fill:#ffa3a3;fill-opacity:1"
               inkscape:connector-curvature="0"
               d="m 78.856,25.912 c -2.363,0 -4.275,1.911 -4.275,4.27 0,2.366 1.912,4.278 4.275,4.278 2.364,0 4.274,-1.913 4.274,-4.278 0.001,-2.36 -1.909,-4.27 -4.274,-4.27 z"
               id="path9962" />
          </g>
          <g
             style="fill:#ffa3a3;fill-opacity:1"
             id="g9964">
            <path
               style="fill:#ffa3a3;fill-opacity:1"
               inkscape:connector-curvature="0"
               d="m 78.856,28.046 c -1.183,0 -2.139,0.954 -2.139,2.135 0,1.185 0.956,2.137 2.139,2.137 1.179,0 2.135,-0.952 2.135,-2.137 0,-1.181 -0.956,-2.135 -2.135,-2.135 z"
               id="path9966" />
          </g>
          <g
             style="fill:#ffa3a3;fill-opacity:1"
             id="g9968">
            <path
               style="fill:#ffa3a3;fill-opacity:1"
               inkscape:connector-curvature="0"
               d="m 53.903,51.115 c -2.366,0 -4.276,1.918 -4.276,4.274 0,2.361 1.91,4.276 4.276,4.276 2.359,0 4.27,-1.915 4.27,-4.276 0,-2.356 -1.91,-4.274 -4.27,-4.274 z"
               id="path9970" />
          </g>
          <g
             style="fill:#ffa3a3;fill-opacity:1"
             id="g9972">
            <path
               style="fill:#ffa3a3;fill-opacity:1"
               inkscape:connector-curvature="0"
               d="m 53.903,53.252 c -1.183,0 -2.14,0.959 -2.14,2.138 0,1.183 0.957,2.139 2.14,2.139 1.177,0 2.133,-0.956 2.133,-2.139 0,-1.179 -0.956,-2.138 -2.133,-2.138 z"
               id="path9974" />
          </g>
          <g
             style="fill:#ffa3a3;fill-opacity:1"
             id="g9976">
            <polygon
               style="fill:#ffa3a3;fill-opacity:1"
               points="94.541,25.862 65.648,56.729 58.173,56.729 58.173,54.05 64.486,54.05 92.584,24.031 "
               id="polygon9978" />
          </g>
          <g
             style="fill:#ffa3a3;fill-opacity:1"
             id="g9980">
            <path
               style="fill:#ffa3a3;fill-opacity:1"
               inkscape:connector-curvature="0"
               d="m 24.968,48.798 c -2.363,0 -4.278,1.913 -4.278,4.272 0,2.358 1.915,4.276 4.278,4.276 2.359,0 4.272,-1.918 4.272,-4.276 0,-2.359 -1.912,-4.272 -4.272,-4.272 z"
               id="path9982" />
          </g>
          <g
             style="fill:#ffa3a3;fill-opacity:1"
             id="g9984">
            <path
               style="fill:#ffa3a3;fill-opacity:1"
               inkscape:connector-curvature="0"
               d="m 62.11,87.126 c -2.361,0 -4.273,1.914 -4.273,4.278 0,2.354 1.912,4.271 4.273,4.271 2.363,0 4.274,-1.917 4.274,-4.271 0.001,-2.364 -1.91,-4.278 -4.274,-4.278 z"
               id="path9986" />
          </g>
        </g>
        <g
           style="fill:#ffa3a3;fill-opacity:1"
           id="_x3C_Layer_x3E_" />
        <g
           style="fill:#ffa3a3;fill-opacity:1"
           id="toolbar" />
      </g>
      <path
         style="fill:#00ebbd;fill-opacity:1"
         inkscape:connector-curvature="0"
         d="m 255.2314,489.41343 c 0,0 -1.878,-2.459 -4.65,-3.22 0,0 -0.355,-1.162 0.315,-1.743 0.67,-0.581 2.459,-3.825 -2.057,-5.624 0,0 -5.902,-0.681 -3.667,4.236 0,0 0.627,1.387 -0.178,1.789 -0.805,0.402 -3.444,0.716 -5.769,3.533 -2.325,2.817 -1.968,3.891 -1.968,3.891 0,0 -2.057,-3.398 -5.991,-3.398 l -0.226,-1.118 c 0,0 2.013,0.582 2.327,-1.744 0.312,-2.325 -1.209,-1.744 -1.209,-1.744 0,0 1.565,-3.98 -3.531,-3.98 0,0 -3.399,0.537 -2.817,4.115 0.581,3.577 1.476,3.532 1.476,3.532 l 0.224,0.894 c 0,0 -1.521,-0.045 -1.834,0.224 0,0 -1.296,-2.236 -4.918,-3.265 0,0 3.442,-5.813 -2.416,-7.467 0,0 -3.845,-0.045 -3.89,2.281 -0.045,2.325 1.208,5.231 1.208,5.231 0,0 -3.399,0.806 -4.204,2.326 -0.805,1.52 -0.626,2.682 -0.626,2.682 l -1.47,-0.179 c 0,0 2.23,-2.996 1.022,-5.947 -1.207,-2.952 -4.203,-3.354 -6.484,-2.146 0,0 -3.979,1.654 -2.772,4.739 0,0 0.358,1.341 0.828,2.102 0,0 -1.588,0.089 -1.946,0.582 0,0 -1.655,-4.248 -5.947,-5.099 0,0 4.203,-6.215 -2.594,-7.244 0,0 -4.114,0.493 -4.025,2.773 0,0 0.134,2.504 0.805,3.755 l 0.089,0.805 c 0,0 -1.967,-0.581 -3.845,1.207 l -0.447,1.834 c 0,0 -1.699,-1.968 -4.695,-1.834 0,0 0.491,-2.683 0.491,-3.085 0,-0.402 0.671,-0.582 0.671,-0.582 0,0 -0.984,-4.472 -5.612,-3.645 0,0 -1.621,-0.347 -2.605,0.682 -0.983,1.029 -0.833,3.583 -0.833,4.298 0,0.716 1.344,1.21 1.75,1.121 0.405,-0.089 0.768,0.538 0.768,0.538 l 0.181,0.313 c 0,0 -3.89,0.269 -4.829,1.879 -0.939,1.61 -1.788,5.858 -2.236,6.574 -0.447,0.715 -5.053,8.854 -5.053,8.854 0,0 0.313,1.161 0.761,1.341 0,0 -0.76,1.117 -1.028,1.43 -0.268,0.313 -0.134,1.924 0,2.147 0.134,0.223 0.715,0 0.715,0 0,0 -0.268,-1.028 0.402,-1.655 0.671,-0.625 0.358,-0.312 0.358,-0.312 l 0.134,0.805 0.402,0.313 c 0,0 0,-0.851 0.178,-1.298 0.179,-0.446 0.134,-0.893 0.134,-0.893 l 1.032,0.407 c 0,0 3.309,-5.949 3.622,-6.665 0.313,-0.715 1.564,-4.785 2.013,-4.694 0.446,0.089 0.268,1.118 0.268,1.118 0,0 0.224,3.667 -1.251,5.724 -1.476,2.057 -3.042,6.35 -3.042,6.886 0,0 0.716,0.973 3.935,2.135 l 0.089,4.725 -0.313,0 c 0,0 -0.787,1.13 -0.563,2.829 l 0.242,0.462 0,8.49399 0.184,1.833 c 0,0 -1.117,1.03 -1.072,1.656 0.045,0.624 0.829,1.653 1.365,2.057 0.537,0.401 2.649,0.626 2.917,0.356 0,0 0.633,-2.146 0.409,-3.532 l -0.58,-0.49 c 0,0 0.777,-8.22899 1,-9.61499 l 0.777,-0.537 0,-2.996 -0.348,-0.179 c 0,0 0.875,-4.204 1.099,-4.381 0.223,-0.18 0.393,0.313 0.393,0.313 0,0 -0.386,8.139 0.016,8.766 0.403,0.623 0.771,1.071 0.771,1.071 l 0.316,-0.135 1.075,8.22899 c 0,0 0.091,3.936 -0.221,4.336 -0.313,0.403 -0.289,0.717 0.235,0.984 0.525,0.269 3.388,0.269 3.521,0 0.134,-0.268 0.536,-1.341 0.357,-1.967 -0.179,-0.627 -0.536,-3.89 -1.789,-4.069 0,0 0.805,-7.37899 0.895,-7.69099 l 0.67,-0.313 c 0,0 -0.313,-2.279 -0.402,-2.504 -0.089,-0.223 0.358,-6.663 0.358,-6.663 l 2.057,-0.717 c 0,0 -0.895,-2.1 -0.895,-3.083 0,-0.984 -0.268,-6.842 -2.325,-9.794 l 0.067,-1.788 1.811,-1.141 c 0,0 2.08,2.549 3.958,2.951 0,0 -1.542,8.249 -1.408,10.53 0.134,2.282 1.408,8.184 1.408,8.184 0,0 0.872,1.341 0.804,1.946 -0.066,0.603 -0.469,3.555 2.282,6.438 0,0 -1.41,3.55699 -1.812,4.09199 -0.402,0.536 -2.08,3.02 -1.476,4.025 0,0 0.336,0.604 2.348,0.67 0,0 -0.67,0.94 0.336,1.811 1.006,0.874 3.798,0.521 3.798,0.521 0,0 0.226,-1.794 1.367,-2.397 1.141,-0.603 1.878,-1.072 1.476,-2.012 -0.403,-0.939 -1.274,-2.013 -1.274,-2.013 0,0 -1.745,-2.951 -1.61,-5.50099 0.134,-2.549 0.604,-6.171 0.671,-8.585 l 2.682,-0.603 c 0,0 2.952,-0.201 3.019,-1.274 0.067,-1.075 -0.201,-9.191 -2.347,-14.422 0,0 2.615,-0.738 2.884,-1.14 0,0 1.139,4.494 0.335,7.245 0,0 -0.939,2.078 -0.738,4.491 0.201,2.417 2.46,11.873 2.46,11.873 l 0.691,-0.067 c 0,0 1.074,6.70999 1.946,8.04999 0,0 -0.067,0.939 -0.939,1.811 -0.872,0.874 -0.67,1.945 -0.67,1.945 0,0 0.134,1.007 0.134,1.342 0,0.337 0.336,2.146 3.153,2.08 0,0 2.012,-2.415 2.28,-2.749 0.269,-0.337 0.202,-1.678 0,-1.88 -0.2,-0.2 -0.804,-1.006 -0.804,-1.006 0,0 -0.537,-0.604 -0.469,-1.878 0.067,-1.273 0.804,-3.75599 0.872,-8.31699 0,0 4.025,-1.542 6.169,-2.684 0,0 1.208,6.037 1.276,6.641 0.065,0.604 1.341,0.469 1.341,0.469 0,0 2.214,5.83599 2.482,7.11199 0.268,1.273 0,2.013 0,2.013 0,0 -2.013,0.066 -2.013,1.273 0,1.208 2.079,2.616 5.634,1.811 0,0 1.408,-0.671 0.872,-3.151 -0.536,-2.482 -1.609,-9.45799 -0.872,-10.80099 l 1.343,0.269 0.603,-2.482 0.806,-0.134 c 0,0 -0.27,5.97099 2.549,10.06099 l 0.508,2.244 c 0,0 -0.912,-0.7 -1.85,0.037 -0.939,0.738 -1.477,3.823 3.086,3.689 0,0 2.146,0 2.348,-0.671 0.201,-0.67 -0.47,-1.544 -0.47,-1.544 l -0.068,-0.469 c 0,0 1.175,-0.065 1.493,-0.132 0.317,-0.067 0.453,-1.611 0.453,-1.611 l -0.605,-2.146 c 0,0 -0.602,-0.873 -0.468,-2.079 0.133,-1.21 1.207,-3.95699 -0.2,-8.45199 0,0 -0.874,-1.476 0,-2.952 0.869,-1.477 1.676,-3.688 2.815,-5.633 0,0 0.134,0.536 1.142,0.737 0,0 -0.672,-2.684 0,-2.55 0,0 -0.023,0.604 0.515,0.739 0,0 -0.135,-0.579 0,-1.498 0.134,-0.918 0,-3.02 0,-3.02 l 1.832,-3.711 c 0,0 -1.162,6.484 -0.849,6.975 l 0.849,0.091 c 0,0 -1.291,10.418 0.721,13.37 2.01,2.94999 3.54,7.37699 3.54,8.31499 0,0.94 0,7.514 0,7.514 0,0 3.435,0.268 4.104,-1.478 0.674,-1.744 0.38,-1.878 1.183,-2.95 0.805,-1.073 2.335,-2.146 2.335,-2.146 0,0 -2.253,-2.416 -2.118,-5.233 0.134,-2.81599 1.623,-12.47599 3.5,-14.75699 1.878,-2.281 0.796,-5.231 0.796,-5.231 l 1.2,-0.268 0,6.037 c 0,0 -0.588,2.549 0.483,3.486 1.074,0.94 1.384,-0.938 1.384,-0.938 0,0 -0.718,-2.549 -0.046,-3.087 0.67,-0.536 0.916,-1.609 0.916,-1.609 0,0 1.18,-12.608 -1.636,-20.658 z m -42.031,16.812 -0.18,0.941 -2.258,-6.156 2.617,-2.357 0.536,0 0.581,0.611 -1.296,6.961 z m 23.969,-7.108 c -0.449,0.358 -1.699,3.734 -1.699,3.734 l -0.404,-0.202 c 0,0 -1.073,-2.057 -0.984,-3.174 0.091,-1.117 0.762,-3.175 0.762,-3.175 0,0 0.268,-0.85 0.581,-0.582 0.313,0.269 1.745,2.102 1.745,2.102 0,0 0.446,0.939 0,1.297 z"
         id="path17910" />
      <path
         sodipodi:nodetypes="csssssssssssccssssssssssscc"
         inkscape:connector-curvature="0"
         id="path6890"
         d="m 132.7422,541.49919 c -4.3907,4.39077 -9.619,8.52654 -15.4246,10.9821 -5.8056,2.45557 -12.1886,3.81344 -18.8887,3.81344 -6.7001,-10e-6 -13.083,-1.35788 -18.8886,-3.81345 -5.8056,-2.45556 -11.0339,-6.00882 -15.4246,-10.39959 -4.3908,-4.39076 -7.9441,-9.61904 -10.3996,-15.42465 -2.4556,-5.8056 -3.8135,-12.18854 -3.8135,-18.88862 0,-6.70009 1.3579,-13.08302 3.8135,-18.88863 2.4555,-5.80561 6.0088,-11.03389 10.3996,-15.42466 4.3907,-4.39074 9.619,-7.94401 15.4246,-10.39958 5.8056,-2.45558 12.1885,-3.81344 18.8886,-3.81344 6.7001,0 13.0831,1.35786 18.8887,3.81344 5.8056,2.45555 11.0339,6.00881 15.4246,10.39958 21.9504,21.36821 21.4665,49.52159 43.4516,68.62657 4.3907,4.39077 9.619,7.94403 15.4246,10.39959 5.8056,2.45557 12.1886,3.81344 18.8887,3.81344 6.7001,-10e-6 13.083,-1.35788 18.8886,-3.81345 5.8056,-2.45556 11.0339,-6.00882 15.4246,-10.39959 4.3908,-4.39076 7.9441,-9.61904 10.3996,-15.42465 2.4556,-5.8056 3.8135,-12.18854 3.8135,-18.88862 0,-6.70009 -1.3579,-13.08302 -3.8135,-18.88863 -2.4555,-5.80561 -6.0088,-11.03389 -10.3996,-15.42466 -4.3907,-4.39074 -9.619,-7.94401 -15.4246,-10.39958 -5.8056,-2.45558 -12.1885,-3.81344 -18.8886,-3.81344 -6.7001,0 -13.0831,1.35786 -18.8887,3.81344 -5.8056,2.45555 -11.0339,5.4263 -15.4246,9.81707 -21.3963,21.31406 -22.1318,49.59066 -43.4516,68.62657 z"
         style="opacity:1;fill:none;fill-opacity:1;stroke:#666666;stroke-width:9.99999905;stroke-linecap:round;stroke-linejoin:round;stroke-miterlimit:4;stroke-dasharray:none;stroke-dashoffset:0;stroke-opacity:1" />
      <path
         sodipodi:open="true"
         d="m 129.2231,562.81265 a 63.343994,63.343994 0 0 1 -80.196315,-14.14078 63.343994,63.343994 0 0 1 4e-6,-81.43347 63.343994,63.343994 0 0 1 80.196311,-14.14077"
         sodipodi:end="5.2359878"
         sodipodi:start="1.0471976"
         sodipodi:ry="63.343994"
         sodipodi:rx="63.343994"
         sodipodi:cy="507.95514"
         sodipodi:cx="97.551102"
         sodipodi:type="arc"
         id="path18106"
         style="opacity:1;fill:none;fill-opacity:1;stroke:#ff5555;stroke-width:3.31200099;stroke-linecap:round;stroke-linejoin:round;stroke-miterlimit:4;stroke-dasharray:none;stroke-dashoffset:0;stroke-opacity:1" />
      <path
         transform="scale(-1,1)"
         style="opacity:1;fill:none;fill-opacity:1;stroke:#00d4aa;stroke-width:3.31200099;stroke-linecap:round;stroke-linejoin:round;stroke-miterlimit:4;stroke-dasharray:none;stroke-dashoffset:0;stroke-opacity:1"
         id="path18108"
         sodipodi:type="arc"
         sodipodi:cx="-211.90486"
         sodipodi:cy="507.95514"
         sodipodi:rx="63.343994"
         sodipodi:ry="63.343994"
         sodipodi:start="1.0471976"
         sodipodi:end="5.2359878"
         d="m -180.23287,562.81265 a 63.343994,63.343994 0 0 1 -80.19631,-14.14078 63.343994,63.343994 0 0 1 10e-6,-81.43347 63.343994,63.343994 0 0 1 80.19631,-14.14077"
         sodipodi:open="true" />
      <g
         style="fill:#4d4d4d;stroke:#ff5555;stroke-width:2.83714128;stroke-miterlimit:4;stroke-dasharray:none;stroke-opacity:1"
         id="g25846"
         transform="matrix(0.01872243,-1.0572366,1.0572366,0.01872243,-207.9306,1945.0556)">
        <path
           inkscape:connector-curvature="0"
           id="path25848"
           d="m 1366.6445,204.68734 -6.3927,-6.39277"
           style="fill:#4d4d4d;fill-rule:evenodd;stroke:#ff5555;stroke-width:2.83714128;stroke-linecap:round;stroke-linejoin:round;stroke-miterlimit:4;stroke-dasharray:none;stroke-opacity:1"
           sodipodi:nodetypes="cc" />
        <path
           sodipodi:nodetypes="cc"
           style="fill:#4d4d4d;fill-rule:evenodd;stroke:#ff5555;stroke-width:2.83714128;stroke-linecap:round;stroke-linejoin:round;stroke-miterlimit:4;stroke-dasharray:none;stroke-opacity:1"
           d="m 1366.6445,204.82896 -6.3927,6.39277"
           id="path25850"
           inkscape:connector-curvature="0" />
      </g>
      <g
         transform="matrix(0.01872243,-1.0572366,1.0572366,0.01872243,32.8932,1945.0556)"
         id="g7864"
         style="fill:#4d4d4d;stroke:#00d4aa;stroke-width:2.83714128;stroke-miterlimit:4;stroke-dasharray:none;stroke-opacity:1">
        <path
           sodipodi:nodetypes="cc"
           style="fill:#4d4d4d;fill-rule:evenodd;stroke:#00d4aa;stroke-width:2.83714128;stroke-linecap:round;stroke-linejoin:round;stroke-miterlimit:4;stroke-dasharray:none;stroke-opacity:1"
           d="m 1366.6445,204.68734 -6.3927,-6.39277"
           id="path7866"
           inkscape:connector-curvature="0" />
        <path
           inkscape:connector-curvature="0"
           id="path7868"
           d="m 1366.6445,204.82896 -6.3927,6.39277"
           style="fill:#4d4d4d;fill-rule:evenodd;stroke:#00d4aa;stroke-width:2.83714128;stroke-linecap:round;stroke-linejoin:round;stroke-miterlimit:4;stroke-dasharray:none;stroke-opacity:1"
           sodipodi:nodetypes="cc" />
      </g>
      <text
         transform="matrix(0.82246575,-0.56881463,0.56881463,0.82246575,-252.14253,210.57553)"
         inkscape:transform-center-y="44.559142"
         inkscape:transform-center-x="-43.756125"
         sodipodi:linespacing="125%"
         id="text17919"
         style="font-style:normal;font-weight:normal;font-size:40px;line-height:125%;font-family:sans-serif;letter-spacing:0px;word-spacing:0px;fill:#000000;fill-opacity:1;stroke:none;stroke-width:1px;stroke-linecap:butt;stroke-linejoin:miter;stroke-opacity:1"
         xml:space="preserve"><textPath
           id="textPath18422"
           xlink:href="#path18108"><tspan
   dy="16"
   id="tspan17921"
   style="font-style:normal;font-variant:normal;font-weight:bold;font-stretch:normal;font-size:12.49999905px;font-family:purisa;-inkscape-font-specification:'purisa Bold';text-align:center;text-anchor:middle">dependency</tspan></textPath></text>
      <text
         transform="matrix(0.70710679,0.70710678,-0.70710679,0.70710678,-1173.6599,-542.99625)"
         inkscape:transform-center-x="42.928887"
         inkscape:transform-center-y="-40.900369"
         xml:space="preserve"
         style="font-style:normal;font-weight:normal;font-size:40px;line-height:200%;font-family:sans-serif;letter-spacing:0px;word-spacing:0px;fill:#000000;fill-opacity:1;stroke:none;stroke-width:1px;stroke-linecap:butt;stroke-linejoin:miter;stroke-opacity:1"
         id="text17923"
         sodipodi:linespacing="200%"><textPath
           dy="-8"
           style="font-style:normal;font-variant:normal;font-weight:bold;font-stretch:normal;font-size:12.49999905px;line-height:200%;font-family:purisa;-inkscape-font-specification:'purisa Bold';text-align:center;text-anchor:middle"
           id="textPath17958"
           startOffset="50%"
           xlink:href="#path6913">technology</textPath></text>
      <path
         inkscape:connector-curvature="0"
         id="path17933"
         d="m 161.9355,486.97894 a 5.0004995,5.0004995 0 0 0 -4.3359,2.67969 c -1.2352,2.27934 -2.1779,4.50364 -3.2734,6.77344 -1.0724,-2.25019 -1.9687,-4.45404 -3.1954,-6.71485 a 5.0007524,5.0007524 0 1 0 -8.791,4.76953 c 2.3545,4.33939 4.3631,8.88898 6.4024,13.46875 -1.9791,4.30405 -3.9309,8.5494 -6.1446,12.4961 a 5.0004995,5.0004995 0 1 0 8.7207,4.89258 c 1.097,-1.95583 1.9344,-3.94669 2.918,-5.92383 0.9826,2.02941 1.8107,4.06487 2.918,6.07617 a 5.0004995,5.0004995 0 1 0 8.7597,-4.82227 c -2.2025,-4.00082 -4.1223,-8.30644 -6.0742,-12.67382 2.1044,-4.60818 4.1749,-9.19384 6.5508,-13.57813 a 5.0004995,5.0004995 0 0 0 -4.4551,-7.44336 z"
         style="color:#000000;font-style:normal;font-variant:normal;font-weight:normal;font-stretch:normal;font-size:medium;line-height:normal;font-family:sans-serif;text-indent:0;text-align:start;text-decoration:none;text-decoration-line:none;text-decoration-style:solid;text-decoration-color:#000000;letter-spacing:normal;word-spacing:normal;text-transform:none;direction:ltr;block-progression:tb;writing-mode:lr-tb;baseline-shift:baseline;text-anchor:start;white-space:normal;clip-rule:nonzero;display:inline;overflow:visible;visibility:visible;opacity:1;isolation:auto;mix-blend-mode:normal;color-interpolation:sRGB;color-interpolation-filters:linearRGB;solid-color:#000000;solid-opacity:1;fill:url(#linearGradient17954);fill-opacity:1;fill-rule:nonzero;stroke:none;stroke-width:9.99999905;stroke-linecap:round;stroke-linejoin:round;stroke-miterlimit:4;stroke-dasharray:none;stroke-dashoffset:0;stroke-opacity:1;color-rendering:auto;image-rendering:auto;shape-rendering:auto;text-rendering:auto;enable-background:accumulate" />
      <g
         transform="translate(45.921819,18.076534)"
         id="g18389">
        <path
           style="fill:none;fill-rule:evenodd;stroke:#999999;stroke-width:2.99999976;stroke-linecap:round;stroke-linejoin:round;stroke-miterlimit:4;stroke-dasharray:none;stroke-dashoffset:0;stroke-opacity:1"
           d="m 130.0658,598.56475 -37.589967,0"
           id="path18381"
           inkscape:connector-curvature="0"
           sodipodi:nodetypes="cc" />
        <g
           transform="matrix(1.0572366,0.01872243,-0.01872243,1.0572366,-1308.6416,356.61999)"
           id="g18383"
           style="fill:#4d4d4d;stroke:#999999;stroke-width:2.83714128;stroke-miterlimit:4;stroke-dasharray:none;stroke-opacity:1">
          <path
             sodipodi:nodetypes="cc"
             style="fill:#4d4d4d;fill-rule:evenodd;stroke:#999999;stroke-width:2.83714128;stroke-linecap:round;stroke-linejoin:round;stroke-miterlimit:4;stroke-dasharray:none;stroke-opacity:1"
             d="m 1366.6445,204.68734 -6.3927,-6.39277"
             id="path18385"
             inkscape:connector-curvature="0" />
          <path
             inkscape:connector-curvature="0"
             id="path18387"
             d="m 1366.6445,204.82896 -6.3927,6.39277"
             style="fill:#4d4d4d;fill-rule:evenodd;stroke:#999999;stroke-width:2.83714128;stroke-linecap:round;stroke-linejoin:round;stroke-miterlimit:4;stroke-dasharray:none;stroke-opacity:1"
             sodipodi:nodetypes="cc" />
        </g>
      </g>
      <text
         xml:space="preserve"
         style="font-style:normal;font-weight:normal;font-size:40px;line-height:125%;font-family:sans-serif;letter-spacing:0px;word-spacing:0px;fill:#000000;fill-opacity:1;stroke:none;stroke-width:1px;stroke-linecap:butt;stroke-linejoin:miter;stroke-opacity:1"
         x="158.40088"
         y="603.26501"
         id="text18397"
         sodipodi:linespacing="125%"><tspan
           sodipodi:role="line"
           x="158.40088"
           y="603.26501"
           style="font-style:normal;font-variant:normal;font-weight:bold;font-stretch:normal;font-size:12.49999905px;font-family:purisa;-inkscape-font-specification:'purisa Bold';text-align:center;text-anchor:middle"
           id="tspan18401">sales profit</tspan></text>
      <g
         id="g18407"
         transform="matrix(-1,0,0,1,268.17756,-181.81097)">
        <path
           sodipodi:nodetypes="cc"
           inkscape:connector-curvature="0"
           id="path18409"
           d="m 130.0658,598.56475 -37.589967,0"
           style="fill:none;fill-rule:evenodd;stroke:#999999;stroke-width:2.99999976;stroke-linecap:round;stroke-linejoin:round;stroke-miterlimit:4;stroke-dasharray:none;stroke-dashoffset:0;stroke-opacity:1" />
        <g
           style="fill:#4d4d4d;stroke:#999999;stroke-width:2.83714128;stroke-miterlimit:4;stroke-dasharray:none;stroke-opacity:1"
           id="g18411"
           transform="matrix(1.0572366,0.01872243,-0.01872243,1.0572366,-1308.6416,356.61999)">
          <path
             inkscape:connector-curvature="0"
             id="path18413"
             d="m 1366.6445,204.68734 -6.3927,-6.39277"
             style="fill:#4d4d4d;fill-rule:evenodd;stroke:#999999;stroke-width:2.83714128;stroke-linecap:round;stroke-linejoin:round;stroke-miterlimit:4;stroke-dasharray:none;stroke-opacity:1"
             sodipodi:nodetypes="cc" />
          <path
             sodipodi:nodetypes="cc"
             style="fill:#4d4d4d;fill-rule:evenodd;stroke:#999999;stroke-width:2.83714128;stroke-linecap:round;stroke-linejoin:round;stroke-miterlimit:4;stroke-dasharray:none;stroke-opacity:1"
             d="m 1366.6445,204.82896 -6.3927,6.39277"
             id="path18415"
             inkscape:connector-curvature="0" />
        </g>
      </g>
      <text
         sodipodi:linespacing="125%"
         id="text18417"
         y="403.15253"
         x="155.67494"
         style="font-style:normal;font-weight:normal;font-size:40px;line-height:125%;font-family:sans-serif;letter-spacing:0px;word-spacing:0px;fill:#000000;fill-opacity:1;stroke:none;stroke-width:1px;stroke-linecap:butt;stroke-linejoin:miter;stroke-opacity:1"
         xml:space="preserve"><tspan
           id="tspan18419"
           style="font-style:normal;font-variant:normal;font-weight:bold;font-stretch:normal;font-size:12.49999905px;font-family:purisa;-inkscape-font-specification:'purisa Bold';text-align:center;text-anchor:middle"
           y="403.15253"
           x="155.67494"
           sodipodi:role="line">social density</tspan></text>
    </g>
  </g>
</svg>
