<?xml version="1.0" encoding="UTF-8" standalone="no"?>
<!-- Created with Inkscape (http://www.inkscape.org/) -->

<svg
   xmlns:dc="http://purl.org/dc/elements/1.1/"
   xmlns:cc="http://creativecommons.org/ns#"
   xmlns:rdf="http://www.w3.org/1999/02/22-rdf-syntax-ns#"
   xmlns:svg="http://www.w3.org/2000/svg"
   xmlns="http://www.w3.org/2000/svg"
   xmlns:sodipodi="http://sodipodi.sourceforge.net/DTD/sodipodi-0.dtd"
   xmlns:inkscape="http://www.inkscape.org/namespaces/inkscape"
   width="42.333332mm"
   height="42.333332mm"
   viewBox="0 0 149.99999 150"
   id="svg4759"
   version="1.1"
   inkscape:version="0.91 r13725"
   sodipodi:docname="Auditing.svg">
  <defs
     id="defs4761">
    <filter
       inkscape:collect="always"
       style="color-interpolation-filters:sRGB"
       id="filter4527"
       x="-0.067525094"
       width="1.1350502"
       y="-0.05398395"
       height="1.1079679">
      <feGaussianBlur
         inkscape:collect="always"
         stdDeviation="1.4152333"
         id="feGaussianBlur4529" />
    </filter>
  </defs>
  <sodipodi:namedview
     id="base"
     pagecolor="#ffffff"
     bordercolor="#666666"
     borderopacity="1.0"
     inkscape:pageopacity="0.0"
     inkscape:pageshadow="2"
     inkscape:zoom="2"
     inkscape:cx="137.38175"
     inkscape:cy="90.288192"
     inkscape:document-units="px"
     inkscape:current-layer="layer1"
     showgrid="false"
     fit-margin-top="0"
     fit-margin-left="0"
     fit-margin-right="0"
     fit-margin-bottom="0"
     inkscape:window-width="1366"
     inkscape:window-height="713"
     inkscape:window-x="0"
     inkscape:window-y="27"
     inkscape:window-maximized="1"
     showborder="false"
     showguides="true"
     inkscape:guide-bbox="true" />
  <metadata
     id="metadata4764">
    <rdf:RDF>
      <cc:Work
         rdf:about="">
        <dc:format>image/svg+xml</dc:format>
        <dc:type
           rdf:resource="http://purl.org/dc/dcmitype/StillImage" />
        <dc:title></dc:title>
      </cc:Work>
    </rdf:RDF>
  </metadata>
  <g
     inkscape:label="Layer 1"
     inkscape:groupmode="layer"
     id="layer1"
     transform="translate(-263.37482,-945.53693)">
    <g
       id="g4559">
      <rect
         ry="0"
         rx="0"
         style="opacity:1;fill:#b3b3b3;fill-opacity:1;stroke:none;stroke-width:6.79094839;stroke-linecap:round;stroke-linejoin:round;stroke-miterlimit:4;stroke-dasharray:none;stroke-dashoffset:0;stroke-opacity:1"
         id="rect5453"
         width="150"
         height="150"
         x="259.47977"
         y="941.85193" />
      <g
         id="g4531">
        <g
           style="fill:#000000;filter:url(#filter4527)"
           transform="translate(302.47957,984.85291)"
           id="g4497">
          <path
             id="path4499"
             d="m 57.14,47.574 c 0.012,-10.24 0.016,-20.48 0,-30.717 -0.008,-5.48 -4.002,-9.463 -9.497,-9.471 l -1.762,-0.001 0,3.37 0.043,0.5 0.5,-0.009 c 1.057,-0.02 2.125,-0.064 3.213,0.307 2.246,0.768 3.588,2.741 3.589,5.278 l 10e-4,18.394 -10e-4,9.197 c 0,0.971 -0.006,1.943 -0.012,2.914 -0.014,2.189 -0.029,4.454 0.032,6.682 0.039,1.466 -0.499,2.848 -1.516,3.892 -1.061,1.09 -2.514,1.691 -4.125,1.691 -4.588,-0.026 -9.177,-0.034 -13.764,-0.034 L 16.339,59.58 c -3.31,0 -5.622,-2.305 -5.623,-5.606 -0.006,-12.12 -0.007,-24.238 0.013,-36.357 0.001,-0.903 0.025,-1.852 0.29,-2.659 0.704,-2.145 2.173,-3.36 4.368,-3.612 0.611,-0.071 1.4,-0.071 2.225,-0.044 l 0.506,0.015 0,-3.934 -2.157,0.012 C 15.283,7.4 14.635,7.473 14.038,7.612 9.741,8.611 6.853,12.255 6.853,16.68 L 6.851,39.702 c -0.002,4.854 -0.004,9.708 0.018,14.562 0.004,0.812 0.13,1.684 0.373,2.592 0.851,3.18 3.989,6.602 8.87,6.602 l 0.168,-10e-4 c 2.403,-0.041 4.806,-0.033 7.21,-0.021 1.047,0.004 2.095,0.008 3.142,0.008 l 1.92,-0.001 9.402,0.007 c 3.512,0 7.022,-0.008 10.533,-0.041 4.334,-0.04 8.244,-3.732 8.537,-8.062 0.138,-2.048 0.13,-4.132 0.12,-6.147 L 57.14,47.574 Z"
             inkscape:connector-curvature="0"
             style="fill:#000000" />
          <path
             id="path4501"
             d="m 43.901,10.85 c -0.01,0.954 -0.413,1.367 -1.367,1.367 l -21.029,0 c -1.17,0 -1.525,-0.364 -1.525,-1.564 -0.01,-0.934 -0.01,-2.282 0,-3.216 0.01,-0.826 0.433,-1.229 1.259,-1.269 0.885,-0.03 1.79,0.02 2.656,-0.148 1.505,-0.305 2.685,-1.17 3.462,-2.528 0.266,-0.462 0.511,-0.934 0.787,-1.397 0.6,-1.013 1.495,-1.525 2.665,-1.544 0.679,-0.02 1.357,0.01 2.036,-0.01 1.377,-0.029 2.341,0.6 3.029,1.77 0.521,0.875 1.052,1.79 1.761,2.498 1.102,1.092 2.528,1.426 4.072,1.377 2.065,-0.059 2.193,0.108 2.193,2.144 0.001,0.711 0.011,1.822 0.001,2.52 z"
             inkscape:connector-curvature="0"
             style="fill:#000000" />
          <path
             id="path4503"
             d="m 35.277,25.37 c 0,1.096 0,2.149 0,3.259 4.437,0 8.853,0 13.314,0 0,-1.06 0,-2.133 0,-3.259 -4.418,0 -8.835,0 -13.314,0 z"
             inkscape:connector-curvature="0"
             style="fill:#000000" />
          <g
             style="fill:#000000"
             id="g4505">
            <g
               style="fill:#000000"
               id="g4507">
              <path
                 id="path4509"
                 d="m 30.714,21.618 c -0.157,0.244 -0.322,0.496 -0.478,0.739 -0.409,0.6 -0.809,1.209 -1.209,1.818 -0.487,0.731 -0.966,1.453 -1.453,2.183 -0.435,0.652 -0.87,1.305 -1.296,1.957 -0.244,0.357 -0.478,0.722 -0.722,1.07 -0.304,0.426 -0.957,0.739 -1.461,0.487 -0.2,-0.096 -0.444,-0.287 -0.574,-0.47 C 23.504,29.376 23.486,29.35 23.46,29.324 23.408,29.246 23.356,29.176 23.303,29.098 23.225,28.985 23.146,28.872 23.068,28.759 22.972,28.62 22.877,28.489 22.772,28.35 22.668,28.193 22.555,28.037 22.45,27.889 22.337,27.724 22.224,27.567 22.111,27.411 22.007,27.263 21.894,27.107 21.789,26.95 21.693,26.811 21.598,26.672 21.493,26.532 21.423,26.428 21.345,26.323 21.267,26.21 21.206,26.123 21.145,26.036 21.084,25.949 21.075,25.94 21.067,25.923 21.058,25.906 21.006,25.819 20.98,25.723 20.962,25.619 c -0.017,-0.157 0.043,-0.322 0.148,-0.435 0.096,-0.096 0.226,-0.165 0.357,-0.2 0,0 0.174,-0.061 0.461,0.122 l 2.462,2.062 c 0.174,-0.191 0.339,-0.391 0.513,-0.592 0.418,-0.478 0.844,-0.966 1.261,-1.444 0.522,-0.592 1.035,-1.192 1.548,-1.783 0.47,-0.531 0.939,-1.061 1.401,-1.601 0.27,-0.322 0.539,-0.644 0.852,-0.939 0.244,-0.226 0.539,-0.113 0.748,0.096 10e-4,0 0.306,0.304 10e-4,0.713 z"
                 inkscape:connector-curvature="0"
                 style="fill:#000000" />
              <path
                 id="path4511"
                 d="m 29.574,25.25 c -0.004,0.006 -0.008,0.012 -0.012,0.019 -0.128,0.193 -0.159,0.426 -0.11,0.651 0.056,0.261 0.091,0.529 0.105,0.803 0.141,2.725 -1.855,5.212 -4.554,5.618 -3.685,0.554 -6.816,-2.643 -6.145,-6.344 0.387,-2.138 2.098,-3.873 4.23,-4.292 1.255,-0.247 2.449,-0.052 3.463,0.453 0.334,0.166 0.738,0.083 0.985,-0.196 0.004,-0.004 0.008,-0.009 0.011,-0.013 0.358,-0.404 0.252,-1.052 -0.231,-1.293 -1.338,-0.667 -2.919,-0.925 -4.561,-0.601 -2.876,0.568 -5.148,2.947 -5.588,5.845 -0.731,4.818 3.438,8.922 8.272,8.076 3.044,-0.533 5.421,-3.095 5.763,-6.166 0.087,-0.781 0.046,-1.538 -0.103,-2.254 -0.154,-0.737 -1.11,-0.933 -1.525,-0.306 z"
                 inkscape:connector-curvature="0"
                 style="fill:#000000" />
            </g>
          </g>
          <path
             id="path4513"
             d="m 35.277,45.454 c 0,1.096 0,2.149 0,3.259 4.437,0 8.853,0 13.314,0 0,-1.06 0,-2.133 0,-3.259 -4.418,0 -8.835,0 -13.314,0 z"
             inkscape:connector-curvature="0"
             style="fill:#000000" />
          <g
             style="fill:#000000"
             id="g4515">
            <g
               style="fill:#000000"
               id="g4517">
              <path
                 id="path4519"
                 d="m 30.714,41.701 c -0.157,0.244 -0.322,0.496 -0.478,0.739 -0.409,0.6 -0.809,1.209 -1.209,1.818 -0.487,0.731 -0.966,1.453 -1.453,2.183 -0.435,0.652 -0.87,1.305 -1.296,1.957 -0.244,0.357 -0.478,0.722 -0.722,1.07 -0.304,0.426 -0.957,0.739 -1.461,0.487 -0.2,-0.096 -0.444,-0.287 -0.574,-0.47 -0.017,-0.026 -0.035,-0.052 -0.061,-0.078 -0.052,-0.078 -0.104,-0.148 -0.157,-0.226 -0.078,-0.113 -0.157,-0.226 -0.235,-0.339 -0.096,-0.139 -0.191,-0.27 -0.296,-0.409 -0.104,-0.157 -0.217,-0.313 -0.322,-0.461 -0.113,-0.165 -0.226,-0.322 -0.339,-0.478 -0.104,-0.148 -0.217,-0.304 -0.322,-0.461 -0.096,-0.139 -0.191,-0.278 -0.296,-0.418 -0.07,-0.104 -0.148,-0.209 -0.226,-0.322 -0.061,-0.087 -0.122,-0.174 -0.183,-0.261 -0.009,-0.009 -0.017,-0.026 -0.026,-0.043 -0.052,-0.087 -0.078,-0.183 -0.096,-0.287 -0.017,-0.157 0.043,-0.322 0.148,-0.435 0.096,-0.096 0.226,-0.165 0.357,-0.2 0,0 0.174,-0.061 0.461,0.122 l 2.462,2.062 c 0.174,-0.191 0.339,-0.391 0.513,-0.592 0.418,-0.478 0.844,-0.966 1.261,-1.444 0.522,-0.592 1.035,-1.192 1.548,-1.783 0.47,-0.531 0.939,-1.061 1.401,-1.601 0.27,-0.322 0.539,-0.644 0.852,-0.939 0.244,-0.226 0.539,-0.113 0.748,0.096 10e-4,0 0.306,0.305 10e-4,0.713 z"
                 inkscape:connector-curvature="0"
                 style="fill:#000000" />
              <path
                 id="path4521"
                 d="m 29.574,45.333 c -0.004,0.006 -0.008,0.012 -0.012,0.019 -0.128,0.193 -0.159,0.426 -0.11,0.651 0.056,0.261 0.091,0.529 0.105,0.803 0.141,2.725 -1.855,5.212 -4.554,5.618 -3.685,0.554 -6.816,-2.643 -6.145,-6.344 0.387,-2.138 2.098,-3.873 4.23,-4.292 1.255,-0.247 2.449,-0.052 3.463,0.453 0.334,0.166 0.738,0.083 0.985,-0.196 0.004,-0.004 0.008,-0.009 0.011,-0.013 0.358,-0.404 0.252,-1.052 -0.231,-1.293 -1.338,-0.667 -2.919,-0.925 -4.561,-0.601 -2.876,0.568 -5.148,2.947 -5.588,5.845 -0.731,4.818 3.438,8.922 8.272,8.076 3.044,-0.533 5.421,-3.095 5.763,-6.166 0.087,-0.781 0.046,-1.538 -0.103,-2.254 -0.154,-0.736 -1.11,-0.932 -1.525,-0.306 z"
                 inkscape:connector-curvature="0"
                 style="fill:#000000" />
            </g>
          </g>
        </g>
        <g
           id="g4429"
           transform="translate(302.47957,984.85291)"
           style="fill:#333333">
          <path
             style="fill:#333333"
             inkscape:connector-curvature="0"
             d="m 57.14,47.574 c 0.012,-10.24 0.016,-20.48 0,-30.717 -0.008,-5.48 -4.002,-9.463 -9.497,-9.471 l -1.762,-0.001 0,3.37 0.043,0.5 0.5,-0.009 c 1.057,-0.02 2.125,-0.064 3.213,0.307 2.246,0.768 3.588,2.741 3.589,5.278 l 10e-4,18.394 -10e-4,9.197 c 0,0.971 -0.006,1.943 -0.012,2.914 -0.014,2.189 -0.029,4.454 0.032,6.682 0.039,1.466 -0.499,2.848 -1.516,3.892 -1.061,1.09 -2.514,1.691 -4.125,1.691 -4.588,-0.026 -9.177,-0.034 -13.764,-0.034 L 16.339,59.58 c -3.31,0 -5.622,-2.305 -5.623,-5.606 -0.006,-12.12 -0.007,-24.238 0.013,-36.357 0.001,-0.903 0.025,-1.852 0.29,-2.659 0.704,-2.145 2.173,-3.36 4.368,-3.612 0.611,-0.071 1.4,-0.071 2.225,-0.044 l 0.506,0.015 0,-3.934 -2.157,0.012 C 15.283,7.4 14.635,7.473 14.038,7.612 9.741,8.611 6.853,12.255 6.853,16.68 L 6.851,39.702 c -0.002,4.854 -0.004,9.708 0.018,14.562 0.004,0.812 0.13,1.684 0.373,2.592 0.851,3.18 3.989,6.602 8.87,6.602 l 0.168,-10e-4 c 2.403,-0.041 4.806,-0.033 7.21,-0.021 1.047,0.004 2.095,0.008 3.142,0.008 l 1.92,-0.001 9.402,0.007 c 3.512,0 7.022,-0.008 10.533,-0.041 4.334,-0.04 8.244,-3.732 8.537,-8.062 0.138,-2.048 0.13,-4.132 0.12,-6.147 L 57.14,47.574 Z"
             id="path4431" />
          <path
             style="fill:#333333"
             inkscape:connector-curvature="0"
             d="m 43.901,10.85 c -0.01,0.954 -0.413,1.367 -1.367,1.367 l -21.029,0 c -1.17,0 -1.525,-0.364 -1.525,-1.564 -0.01,-0.934 -0.01,-2.282 0,-3.216 0.01,-0.826 0.433,-1.229 1.259,-1.269 0.885,-0.03 1.79,0.02 2.656,-0.148 1.505,-0.305 2.685,-1.17 3.462,-2.528 0.266,-0.462 0.511,-0.934 0.787,-1.397 0.6,-1.013 1.495,-1.525 2.665,-1.544 0.679,-0.02 1.357,0.01 2.036,-0.01 1.377,-0.029 2.341,0.6 3.029,1.77 0.521,0.875 1.052,1.79 1.761,2.498 1.102,1.092 2.528,1.426 4.072,1.377 2.065,-0.059 2.193,0.108 2.193,2.144 0.001,0.711 0.011,1.822 0.001,2.52 z"
             id="path4433" />
          <path
             style="fill:#333333"
             inkscape:connector-curvature="0"
             d="m 35.277,25.37 c 0,1.096 0,2.149 0,3.259 4.437,0 8.853,0 13.314,0 0,-1.06 0,-2.133 0,-3.259 -4.418,0 -8.835,0 -13.314,0 z"
             id="path4435" />
          <g
             id="g4437"
             style="fill:#333333">
            <g
               id="g4439"
               style="fill:#333333">
              <path
                 style="fill:#333333"
                 inkscape:connector-curvature="0"
                 d="m 30.714,21.618 c -0.157,0.244 -0.322,0.496 -0.478,0.739 -0.409,0.6 -0.809,1.209 -1.209,1.818 -0.487,0.731 -0.966,1.453 -1.453,2.183 -0.435,0.652 -0.87,1.305 -1.296,1.957 -0.244,0.357 -0.478,0.722 -0.722,1.07 -0.304,0.426 -0.957,0.739 -1.461,0.487 -0.2,-0.096 -0.444,-0.287 -0.574,-0.47 C 23.504,29.376 23.486,29.35 23.46,29.324 23.408,29.246 23.356,29.176 23.303,29.098 23.225,28.985 23.146,28.872 23.068,28.759 22.972,28.62 22.877,28.489 22.772,28.35 22.668,28.193 22.555,28.037 22.45,27.889 22.337,27.724 22.224,27.567 22.111,27.411 22.007,27.263 21.894,27.107 21.789,26.95 21.693,26.811 21.598,26.672 21.493,26.532 21.423,26.428 21.345,26.323 21.267,26.21 21.206,26.123 21.145,26.036 21.084,25.949 21.075,25.94 21.067,25.923 21.058,25.906 21.006,25.819 20.98,25.723 20.962,25.619 c -0.017,-0.157 0.043,-0.322 0.148,-0.435 0.096,-0.096 0.226,-0.165 0.357,-0.2 0,0 0.174,-0.061 0.461,0.122 l 2.462,2.062 c 0.174,-0.191 0.339,-0.391 0.513,-0.592 0.418,-0.478 0.844,-0.966 1.261,-1.444 0.522,-0.592 1.035,-1.192 1.548,-1.783 0.47,-0.531 0.939,-1.061 1.401,-1.601 0.27,-0.322 0.539,-0.644 0.852,-0.939 0.244,-0.226 0.539,-0.113 0.748,0.096 10e-4,0 0.306,0.304 10e-4,0.713 z"
                 id="path4441" />
              <path
                 style="fill:#333333"
                 inkscape:connector-curvature="0"
                 d="m 29.574,25.25 c -0.004,0.006 -0.008,0.012 -0.012,0.019 -0.128,0.193 -0.159,0.426 -0.11,0.651 0.056,0.261 0.091,0.529 0.105,0.803 0.141,2.725 -1.855,5.212 -4.554,5.618 -3.685,0.554 -6.816,-2.643 -6.145,-6.344 0.387,-2.138 2.098,-3.873 4.23,-4.292 1.255,-0.247 2.449,-0.052 3.463,0.453 0.334,0.166 0.738,0.083 0.985,-0.196 0.004,-0.004 0.008,-0.009 0.011,-0.013 0.358,-0.404 0.252,-1.052 -0.231,-1.293 -1.338,-0.667 -2.919,-0.925 -4.561,-0.601 -2.876,0.568 -5.148,2.947 -5.588,5.845 -0.731,4.818 3.438,8.922 8.272,8.076 3.044,-0.533 5.421,-3.095 5.763,-6.166 0.087,-0.781 0.046,-1.538 -0.103,-2.254 -0.154,-0.737 -1.11,-0.933 -1.525,-0.306 z"
                 id="path4443" />
            </g>
          </g>
          <path
             style="fill:#333333"
             inkscape:connector-curvature="0"
             d="m 35.277,45.454 c 0,1.096 0,2.149 0,3.259 4.437,0 8.853,0 13.314,0 0,-1.06 0,-2.133 0,-3.259 -4.418,0 -8.835,0 -13.314,0 z"
             id="path4445" />
          <g
             id="g4447"
             style="fill:#333333">
            <g
               id="g4449"
               style="fill:#333333">
              <path
                 style="fill:#333333"
                 inkscape:connector-curvature="0"
                 d="m 30.714,41.701 c -0.157,0.244 -0.322,0.496 -0.478,0.739 -0.409,0.6 -0.809,1.209 -1.209,1.818 -0.487,0.731 -0.966,1.453 -1.453,2.183 -0.435,0.652 -0.87,1.305 -1.296,1.957 -0.244,0.357 -0.478,0.722 -0.722,1.07 -0.304,0.426 -0.957,0.739 -1.461,0.487 -0.2,-0.096 -0.444,-0.287 -0.574,-0.47 -0.017,-0.026 -0.035,-0.052 -0.061,-0.078 -0.052,-0.078 -0.104,-0.148 -0.157,-0.226 -0.078,-0.113 -0.157,-0.226 -0.235,-0.339 -0.096,-0.139 -0.191,-0.27 -0.296,-0.409 -0.104,-0.157 -0.217,-0.313 -0.322,-0.461 -0.113,-0.165 -0.226,-0.322 -0.339,-0.478 -0.104,-0.148 -0.217,-0.304 -0.322,-0.461 -0.096,-0.139 -0.191,-0.278 -0.296,-0.418 -0.07,-0.104 -0.148,-0.209 -0.226,-0.322 -0.061,-0.087 -0.122,-0.174 -0.183,-0.261 -0.009,-0.009 -0.017,-0.026 -0.026,-0.043 -0.052,-0.087 -0.078,-0.183 -0.096,-0.287 -0.017,-0.157 0.043,-0.322 0.148,-0.435 0.096,-0.096 0.226,-0.165 0.357,-0.2 0,0 0.174,-0.061 0.461,0.122 l 2.462,2.062 c 0.174,-0.191 0.339,-0.391 0.513,-0.592 0.418,-0.478 0.844,-0.966 1.261,-1.444 0.522,-0.592 1.035,-1.192 1.548,-1.783 0.47,-0.531 0.939,-1.061 1.401,-1.601 0.27,-0.322 0.539,-0.644 0.852,-0.939 0.244,-0.226 0.539,-0.113 0.748,0.096 10e-4,0 0.306,0.305 10e-4,0.713 z"
                 id="path4451" />
              <path
                 style="fill:#333333"
                 inkscape:connector-curvature="0"
                 d="m 29.574,45.333 c -0.004,0.006 -0.008,0.012 -0.012,0.019 -0.128,0.193 -0.159,0.426 -0.11,0.651 0.056,0.261 0.091,0.529 0.105,0.803 0.141,2.725 -1.855,5.212 -4.554,5.618 -3.685,0.554 -6.816,-2.643 -6.145,-6.344 0.387,-2.138 2.098,-3.873 4.23,-4.292 1.255,-0.247 2.449,-0.052 3.463,0.453 0.334,0.166 0.738,0.083 0.985,-0.196 0.004,-0.004 0.008,-0.009 0.011,-0.013 0.358,-0.404 0.252,-1.052 -0.231,-1.293 -1.338,-0.667 -2.919,-0.925 -4.561,-0.601 -2.876,0.568 -5.148,2.947 -5.588,5.845 -0.731,4.818 3.438,8.922 8.272,8.076 3.044,-0.533 5.421,-3.095 5.763,-6.166 0.087,-0.781 0.046,-1.538 -0.103,-2.254 -0.154,-0.736 -1.11,-0.932 -1.525,-0.306 z"
                 id="path4453" />
            </g>
          </g>
        </g>
      </g>
    </g>
  </g>
</svg>
