<?xml version="1.0" encoding="UTF-8" standalone="no"?>
<!-- Created with Inkscape (http://www.inkscape.org/) -->

<svg
   xmlns:dc="http://purl.org/dc/elements/1.1/"
   xmlns:cc="http://creativecommons.org/ns#"
   xmlns:rdf="http://www.w3.org/1999/02/22-rdf-syntax-ns#"
   xmlns:svg="http://www.w3.org/2000/svg"
   xmlns="http://www.w3.org/2000/svg"
   xmlns:sodipodi="http://sodipodi.sourceforge.net/DTD/sodipodi-0.dtd"
   xmlns:inkscape="http://www.inkscape.org/namespaces/inkscape"
   width="31.75mm"
   height="31.75mm"
   viewBox="0 0 112.49999 112.5"
   id="svg4759"
   version="1.1"
   inkscape:version="0.92.1 r"
   sodipodi:docname="Battery-Auto.svg">
  <defs
     id="defs4761">
    <filter
       inkscape:collect="always"
       style="color-interpolation-filters:sRGB"
       id="filter11946"
       x="-0.053361703"
       width="1.1067234"
       y="-0.068524592"
       height="1.1370492">
      <feGaussianBlur
         inkscape:collect="always"
         stdDeviation="5.1333425"
         id="feGaussianBlur11948" />
    </filter>
    <filter
       inkscape:collect="always"
       style="color-interpolation-filters:sRGB"
       id="filter4095"
       x="-0.059999619"
       width="1.1199992"
       y="-0.060000379"
       height="1.1200008">
      <feGaussianBlur
         inkscape:collect="always"
         stdDeviation="1.9715375"
         id="feGaussianBlur4097" />
    </filter>
  </defs>
  <sodipodi:namedview
     id="base"
     pagecolor="#ffffff"
     bordercolor="#666666"
     borderopacity="1.0"
     inkscape:pageopacity="0.0"
     inkscape:pageshadow="2"
     inkscape:zoom="2"
     inkscape:cx="59.609793"
     inkscape:cy="87.015955"
     inkscape:document-units="px"
     inkscape:current-layer="layer1"
     showgrid="false"
     fit-margin-top="0"
     fit-margin-left="0"
     fit-margin-right="0"
     fit-margin-bottom="0"
     inkscape:window-width="1366"
     inkscape:window-height="708"
     inkscape:window-x="0"
     inkscape:window-y="23"
     inkscape:window-maximized="1"
     showborder="false" />
  <metadata
     id="metadata4764">
    <rdf:RDF>
      <cc:Work
         rdf:about="">
        <dc:format>image/svg+xml</dc:format>
        <dc:type
           rdf:resource="http://purl.org/dc/dcmitype/StillImage" />
        <dc:title></dc:title>
      </cc:Work>
    </rdf:RDF>
  </metadata>
  <g
     inkscape:label="Layer 1"
     inkscape:groupmode="layer"
     id="layer1"
     transform="translate(-263.37482,-983.03693)">
    <g
       id="g4150"
       transform="matrix(0.74999995,0,0,0.74999995,65.843716,273.88428)"
       inkscape:export-xdpi="96"
       inkscape:export-ydpi="96">
      <rect
         ry="0"
         rx="0"
         style="opacity:1;fill:#333333;fill-opacity:1;stroke:none;stroke-width:6.79094839;stroke-linecap:round;stroke-linejoin:round;stroke-miterlimit:4;stroke-dasharray:none;stroke-dashoffset:0;stroke-opacity:1"
         id="rect5453"
         width="150"
         height="150"
         x="263.37482"
         y="945.53693" />
      <g
         transform="matrix(0.6228161,0,0,0.6228161,161.48186,426.1898)"
         id="g11950">
        <g
           transform="matrix(0.36816045,0,0,0.36816045,-2043.1924,3910.5736)"
           id="g11392"
           style="fill:#ffffff;filter:url(#filter11946)">
          <path
             style="fill:#ffffff;fill-opacity:1"
             inkscape:connector-curvature="0"
             d="m 6582.7947,-7910.8502 h -11.2982 c -0.9825,0 -1.4737,-0.4913 -1.4737,-1.4737 v -22.1053 c 0,-2.9474 -2.4562,-5.4036 -5.4035,-5.4036 h -11.7895 c -2.9474,0 -5.4035,2.4562 -5.4035,5.4036 v 21.614 c 0,0.9825 -0.4913,1.4737 -1.4737,1.4737 h -15.2281 c -0.9825,0 -1.4737,-0.4912 -1.4737,-1.4737 v -11.7895 c 0,-0.9824 -0.4912,-1.4736 -1.4737,-1.4736 h -28.4913 c -0.9824,0 -1.4737,0.4912 -1.4737,1.4736 v 11.7895 c 0,0.9825 -0.4912,1.4737 -1.4736,1.4737 h -10.8071 c -0.9824,0 -1.4737,-0.4912 -1.4737,-1.4737 v -11.7895 c 0,-0.9824 -0.4912,-1.4736 -1.4737,-1.4736 h -28.4912 c -0.9825,0 -1.4737,0.4912 -1.4737,1.4736 v 11.7895 c 0,0.9825 -0.4912,1.4737 -1.4737,1.4737 h -10.807 c -0.9825,0 -1.4737,-0.4912 -1.4737,-1.4737 v -11.7895 c 0,-0.9824 -0.4913,-1.4736 -1.4737,-1.4736 h -28.4913 c -0.9824,0 -1.4737,0.4912 -1.4737,1.4736 v 11.7895 c 0,0.9825 -0.4912,1.4737 -1.4737,1.4737 h -14.7368 c -0.9825,0 -1.4737,-0.4912 -1.4737,-1.4737 v -21.1228 c 0,-3.4386 -2.4562,-5.8948 -5.8948,-5.8948 h -10.3158 c -3.4386,0 -5.8947,2.4562 -5.8947,5.8948 v 21.1228 c 0,0.9825 -0.4912,1.4737 -1.4737,1.4737 h -11.2983 c -0.9824,0 -1.4737,0.4913 -1.4737,1.4737 v 148.3511 c 0,0.9825 0.4913,1.4737 1.4737,1.4737 h 227.9302 c 0.9825,0 1.4737,-0.4912 1.4737,-1.4737 v -148.3511 c 0,-0.4912 -0.4912,-0.9824 -1.4737,-0.9824 z"
             id="path11394"
             sodipodi:nodetypes="sssssssssssssssssssssssssssssssssssssssssssssssss" />
          <circle
             style="opacity:1;fill:#ffffff;fill-opacity:1;stroke:none;stroke-width:1;stroke-linecap:butt;stroke-linejoin:miter;stroke-miterlimit:4;stroke-dasharray:none;stroke-dashoffset:0;stroke-opacity:1"
             id="circle11396"
             cx="6426.0405"
             cy="-7868.6382"
             r="19.5" />
          <circle
             r="19.5"
             cy="-7868.6382"
             cx="6506.0405"
             id="circle11398"
             style="opacity:1;fill:#ffffff;fill-opacity:1;stroke:none;stroke-width:1;stroke-linecap:butt;stroke-linejoin:miter;stroke-miterlimit:4;stroke-dasharray:none;stroke-dashoffset:0;stroke-opacity:1" />
          <path
             id="path11400"
             style="opacity:1;fill:#ffffff;fill-opacity:1;stroke:none;stroke-width:1;stroke-linecap:butt;stroke-linejoin:miter;stroke-miterlimit:4;stroke-dasharray:none;stroke-dashoffset:0;stroke-opacity:1"
             sodipodi:type="arc"
             sodipodi:cx="6468.8296"
             sodipodi:cy="-7814.6382"
             sodipodi:rx="29.5"
             sodipodi:ry="29.5"
             sodipodi:start="0"
             sodipodi:end="3.1415927"
             sodipodi:open="true"
             d="m 6498.3296,-7814.6382 a 29.5,29.5 0 0 1 -14.75,25.5478 29.5,29.5 0 0 1 -29.5,0 29.5,29.5 0 0 1 -14.75,-25.5478" />
          <circle
             r="12.428932"
             cy="-7861.5669"
             cx="6426.0405"
             id="circle11402"
             style="opacity:1;fill:#ffffff;fill-opacity:1;stroke:none;stroke-width:1;stroke-linecap:butt;stroke-linejoin:miter;stroke-miterlimit:4;stroke-dasharray:none;stroke-dashoffset:0;stroke-opacity:1" />
          <circle
             style="opacity:1;fill:#ffffff;fill-opacity:1;stroke:none;stroke-width:1;stroke-linecap:butt;stroke-linejoin:miter;stroke-miterlimit:4;stroke-dasharray:none;stroke-dashoffset:0;stroke-opacity:1"
             id="circle11404"
             cx="6506.0405"
             cy="-7861.5669"
             r="12.428932" />
        </g>
        <g
           id="g33901"
           transform="matrix(0.36816045,0,0,0.36816045,-2043.1924,3910.5736)">
          <path
             sodipodi:nodetypes="sssssssssssssssssssssssssssssssssssssssssssssssss"
             id="path10468"
             d="m 6582.7947,-7910.8502 h -11.2982 c -0.9825,0 -1.4737,-0.4913 -1.4737,-1.4737 v -22.1053 c 0,-2.9474 -2.4562,-5.4036 -5.4035,-5.4036 h -11.7895 c -2.9474,0 -5.4035,2.4562 -5.4035,5.4036 v 21.614 c 0,0.9825 -0.4913,1.4737 -1.4737,1.4737 h -15.2281 c -0.9825,0 -1.4737,-0.4912 -1.4737,-1.4737 v -11.7895 c 0,-0.9824 -0.4912,-1.4736 -1.4737,-1.4736 h -28.4913 c -0.9824,0 -1.4737,0.4912 -1.4737,1.4736 v 11.7895 c 0,0.9825 -0.4912,1.4737 -1.4736,1.4737 h -10.8071 c -0.9824,0 -1.4737,-0.4912 -1.4737,-1.4737 v -11.7895 c 0,-0.9824 -0.4912,-1.4736 -1.4737,-1.4736 h -28.4912 c -0.9825,0 -1.4737,0.4912 -1.4737,1.4736 v 11.7895 c 0,0.9825 -0.4912,1.4737 -1.4737,1.4737 h -10.807 c -0.9825,0 -1.4737,-0.4912 -1.4737,-1.4737 v -11.7895 c 0,-0.9824 -0.4913,-1.4736 -1.4737,-1.4736 h -28.4913 c -0.9824,0 -1.4737,0.4912 -1.4737,1.4736 v 11.7895 c 0,0.9825 -0.4912,1.4737 -1.4737,1.4737 h -14.7368 c -0.9825,0 -1.4737,-0.4912 -1.4737,-1.4737 v -21.1228 c 0,-3.4386 -2.4562,-5.8948 -5.8948,-5.8948 h -10.3158 c -3.4386,0 -5.8947,2.4562 -5.8947,5.8948 v 21.1228 c 0,0.9825 -0.4912,1.4737 -1.4737,1.4737 h -11.2983 c -0.9824,0 -1.4737,0.4913 -1.4737,1.4737 v 148.3511 c 0,0.9825 0.4913,1.4737 1.4737,1.4737 h 227.9302 c 0.9825,0 1.4737,-0.4912 1.4737,-1.4737 v -148.3511 c 0,-0.4912 -0.4912,-0.9824 -1.4737,-0.9824 z"
             inkscape:connector-curvature="0"
             style="fill:#999999;fill-opacity:1" />
          <circle
             r="19.5"
             cy="-7868.6382"
             cx="6426.0405"
             id="path10488"
             style="opacity:1;fill:#ffffff;fill-opacity:1;stroke:none;stroke-width:1;stroke-linecap:butt;stroke-linejoin:miter;stroke-miterlimit:4;stroke-dasharray:none;stroke-dashoffset:0;stroke-opacity:1" />
          <circle
             style="opacity:1;fill:#ffffff;fill-opacity:1;stroke:none;stroke-width:1;stroke-linecap:butt;stroke-linejoin:miter;stroke-miterlimit:4;stroke-dasharray:none;stroke-dashoffset:0;stroke-opacity:1"
             id="circle11800"
             cx="6506.0405"
             cy="-7868.6382"
             r="19.5" />
          <path
             d="m 6498.3296,-7814.6382 a 29.5,29.5 0 0 1 -14.75,25.5478 29.5,29.5 0 0 1 -29.5,0 29.5,29.5 0 0 1 -14.75,-25.5478"
             sodipodi:open="true"
             sodipodi:end="3.1415927"
             sodipodi:start="0"
             sodipodi:ry="29.5"
             sodipodi:rx="29.5"
             sodipodi:cy="-7814.6382"
             sodipodi:cx="6468.8296"
             sodipodi:type="arc"
             style="opacity:1;fill:#ffffff;fill-opacity:1;stroke:none;stroke-width:1;stroke-linecap:butt;stroke-linejoin:miter;stroke-miterlimit:4;stroke-dasharray:none;stroke-dashoffset:0;stroke-opacity:1"
             id="circle11802" />
          <circle
             style="opacity:1;fill:#000000;fill-opacity:1;stroke:none;stroke-width:1;stroke-linecap:butt;stroke-linejoin:miter;stroke-miterlimit:4;stroke-dasharray:none;stroke-dashoffset:0;stroke-opacity:1"
             id="circle11804"
             cx="6426.0405"
             cy="-7861.5669"
             r="12.428932" />
          <circle
             r="12.428932"
             cy="-7861.5669"
             cx="6506.0405"
             id="circle11806"
             style="opacity:1;fill:#000000;fill-opacity:1;stroke:none;stroke-width:1;stroke-linecap:butt;stroke-linejoin:miter;stroke-miterlimit:4;stroke-dasharray:none;stroke-dashoffset:0;stroke-opacity:1" />
        </g>
      </g>
      <g
         transform="matrix(1.0416659,0,0,1.0416659,-10.753422,-40.456389)"
         id="g4115">
        <g
           id="g4021"
           transform="matrix(0.7132803,0,0,0.7132803,268.73988,952.2294)"
           style="fill:#000000;filter:url(#filter4095)">
          <path
             inkscape:connector-curvature="0"
             d="M 45,5.773 C 23.224,5.773 5.57,23.425 5.569,45.202 5.57,66.978 23.221,84.634 44.999,84.634 H 84.431 V 45.202 C 84.431,23.424 66.777,5.773 45,5.773 Z m -10e-4,71.661 c -17.8,0 -32.23,-14.433 -32.23,-32.23 0,-17.802 14.431,-32.233 32.231,-32.233 17.8,0 32.231,14.432 32.231,32.231 0,17.801 -14.429,32.232 -32.232,32.232 z"
             id="path4007"
             style="fill:#000000" />
          <g
             id="g4019"
             style="fill:#000000">
            <path
               style="fill:#000000"
               inkscape:connector-curvature="0"
               d="m 73.443,44.77 c 0,0 -0.466,-0.345 -0.466,-0.911 l -1.636,-7.543 c 0,0 -0.086,-0.816 -1.107,-0.816 -1.021,0 -51.284,0 -51.284,0 0,0 -2.744,0.125 -2.744,2.419 v 13.074 l 11.811,2.481 c -0.004,-0.079 -0.012,-0.156 -0.012,-0.237 0,-2.149 1.742,-3.891 3.89,-3.891 2.149,0 3.89,1.741 3.89,3.891 0,0.091 -0.007,0.181 -0.014,0.269 h 21.106 c -0.007,-0.089 -0.014,-0.179 -0.014,-0.269 0,-2.149 1.741,-3.891 3.89,-3.891 1.704,0 3.148,1.099 3.675,2.623 h 0.033 c 0.011,0.056 0.016,0.121 0.025,0.179 0.1,0.347 0.156,0.712 0.156,1.089 0,0.091 -0.007,0.181 -0.014,0.269 h 7.44 c 0,0 1.722,0.314 1.722,-2.514 v -5.625 c 0.005,0 -0.112,-0.503 -0.347,-0.597 z M 31.121,43.462 c 0,0.385 -0.289,0.695 -0.646,0.695 H 23.47 c -0.357,0 -0.646,-0.311 -0.646,-0.695 v -4.289 c 0,-0.385 0.289,-0.695 0.646,-0.695 h 7.005 c 0.356,0 0.646,0.311 0.646,0.695 z m 10.567,0 c 0,0.385 -0.288,0.695 -0.646,0.695 h -7.005 c -0.357,0 -0.646,-0.311 -0.646,-0.695 v -4.289 c 0,-0.385 0.289,-0.695 0.646,-0.695 h 7.005 c 0.357,0 0.646,0.311 0.646,0.695 z m 10.566,-0.001 c 0,0.385 -0.291,0.696 -0.646,0.696 h -7.006 c -0.356,0 -0.645,-0.311 -0.645,-0.696 v -4.29 c 0,-0.385 0.288,-0.695 0.645,-0.695 h 7.006 c 0.355,0 0.646,0.311 0.646,0.695 z m 11.207,0 c 0,0.385 -0.289,0.696 -0.646,0.696 -0.031,0 -0.06,-0.015 -0.088,-0.019 v 0.019 h -4.203 v -0.019 c -0.313,-0.049 -0.559,-0.326 -0.559,-0.677 v -4.289 c 0,-0.385 0.29,-0.695 0.646,-0.695 h 4.204 c 0.356,0 0.646,0.311 0.646,0.695 z m 7.057,6.702 c 0,1.023 -0.897,0.933 -0.897,0.933 h -2.015 c -0.984,0 -0.963,-1 -0.963,-1 V 39.342 c 0,-0.932 0.811,-0.864 0.811,-0.864 h 1.072 c 0.424,0 0.467,0.432 0.467,0.432 l 0.48,4.001 c 0.088,0.47 0.41,0.849 0.41,0.849 l 0.459,0.534 c 0.174,0.18 0.176,0.493 0.176,0.493 z"
               id="path4009" />
            <path
               style="fill:#000000"
               inkscape:connector-curvature="0"
               d="m 31.917,49.884 c -1.874,0 -3.395,1.518 -3.395,3.396 0,1.874 1.521,3.395 3.395,3.395 1.878,0 3.397,-1.521 3.397,-3.395 10e-4,-1.88 -1.52,-3.396 -3.397,-3.396 z m 0.002,5.167 c -0.98,0 -1.771,-0.794 -1.771,-1.771 0,-0.98 0.791,-1.774 1.771,-1.774 0.979,0 1.773,0.794 1.773,1.774 0,0.978 -0.794,1.771 -1.773,1.771 z"
               id="path4011" />
            <path
               style="fill:#000000"
               inkscape:connector-curvature="0"
               d="m 31.919,51.939 c -0.739,0 -1.336,0.599 -1.336,1.338 0,0.738 0.597,1.339 1.336,1.339 0.741,0 1.339,-0.601 1.339,-1.339 0,-0.739 -0.599,-1.338 -1.339,-1.338 z m 0,2.038 c -0.385,0 -0.698,-0.313 -0.698,-0.699 0,-0.385 0.312,-0.697 0.698,-0.697 0.386,0 0.7,0.312 0.7,0.697 0,0.385 -0.314,0.699 -0.7,0.699 z"
               id="path4013" />
            <path
               style="fill:#000000"
               inkscape:connector-curvature="0"
               d="m 60.777,49.884 c -1.875,0 -3.396,1.518 -3.396,3.396 0,1.874 1.521,3.395 3.396,3.395 1.878,0 3.396,-1.521 3.396,-3.395 0.002,-1.88 -1.521,-3.396 -3.396,-3.396 z m 10e-4,5.167 c -0.98,0 -1.772,-0.794 -1.772,-1.771 0,-0.98 0.792,-1.774 1.772,-1.774 0.979,0 1.772,0.794 1.772,1.774 0.001,0.978 -0.792,1.771 -1.772,1.771 z"
               id="path4015" />
            <path
               style="fill:#000000"
               inkscape:connector-curvature="0"
               d="m 60.778,51.939 c -0.739,0 -1.337,0.599 -1.337,1.338 0,0.738 0.598,1.339 1.337,1.339 0.741,0 1.339,-0.601 1.339,-1.339 0,-0.739 -0.597,-1.338 -1.339,-1.338 z m 0,2.038 c -0.386,0 -0.698,-0.313 -0.698,-0.699 0,-0.385 0.312,-0.697 0.698,-0.697 0.386,0 0.698,0.312 0.698,0.697 10e-4,0.385 -0.312,0.699 -0.698,0.699 z"
               id="path4017" />
          </g>
        </g>
        <g
           style="fill:#808080;fill-opacity:1"
           transform="matrix(0.7132803,0,0,0.7132803,268.73988,952.2294)"
           id="g5393">
          <path
             style="fill:#808080;fill-opacity:1"
             id="path5379"
             d="M 45,5.773 C 23.224,5.773 5.57,23.425 5.569,45.202 5.57,66.978 23.221,84.634 44.999,84.634 H 84.431 V 45.202 C 84.431,23.424 66.777,5.773 45,5.773 Z m -10e-4,71.661 c -17.8,0 -32.23,-14.433 -32.23,-32.23 0,-17.802 14.431,-32.233 32.231,-32.233 17.8,0 32.231,14.432 32.231,32.231 0,17.801 -14.429,32.232 -32.232,32.232 z"
             inkscape:connector-curvature="0" />
          <g
             style="fill:#808080;fill-opacity:1"
             id="g5391">
            <path
               id="path5381"
               d="m 73.443,44.77 c 0,0 -0.466,-0.345 -0.466,-0.911 l -1.636,-7.543 c 0,0 -0.086,-0.816 -1.107,-0.816 -1.021,0 -51.284,0 -51.284,0 0,0 -2.744,0.125 -2.744,2.419 v 13.074 l 11.811,2.481 c -0.004,-0.079 -0.012,-0.156 -0.012,-0.237 0,-2.149 1.742,-3.891 3.89,-3.891 2.149,0 3.89,1.741 3.89,3.891 0,0.091 -0.007,0.181 -0.014,0.269 h 21.106 c -0.007,-0.089 -0.014,-0.179 -0.014,-0.269 0,-2.149 1.741,-3.891 3.89,-3.891 1.704,0 3.148,1.099 3.675,2.623 h 0.033 c 0.011,0.056 0.016,0.121 0.025,0.179 0.1,0.347 0.156,0.712 0.156,1.089 0,0.091 -0.007,0.181 -0.014,0.269 h 7.44 c 0,0 1.722,0.314 1.722,-2.514 v -5.625 c 0.005,0 -0.112,-0.503 -0.347,-0.597 z M 31.121,43.462 c 0,0.385 -0.289,0.695 -0.646,0.695 H 23.47 c -0.357,0 -0.646,-0.311 -0.646,-0.695 v -4.289 c 0,-0.385 0.289,-0.695 0.646,-0.695 h 7.005 c 0.356,0 0.646,0.311 0.646,0.695 z m 10.567,0 c 0,0.385 -0.288,0.695 -0.646,0.695 h -7.005 c -0.357,0 -0.646,-0.311 -0.646,-0.695 v -4.289 c 0,-0.385 0.289,-0.695 0.646,-0.695 h 7.005 c 0.357,0 0.646,0.311 0.646,0.695 z m 10.566,-0.001 c 0,0.385 -0.291,0.696 -0.646,0.696 h -7.006 c -0.356,0 -0.645,-0.311 -0.645,-0.696 v -4.29 c 0,-0.385 0.288,-0.695 0.645,-0.695 h 7.006 c 0.355,0 0.646,0.311 0.646,0.695 z m 11.207,0 c 0,0.385 -0.289,0.696 -0.646,0.696 -0.031,0 -0.06,-0.015 -0.088,-0.019 v 0.019 h -4.203 v -0.019 c -0.313,-0.049 -0.559,-0.326 -0.559,-0.677 v -4.289 c 0,-0.385 0.29,-0.695 0.646,-0.695 h 4.204 c 0.356,0 0.646,0.311 0.646,0.695 z m 7.057,6.702 c 0,1.023 -0.897,0.933 -0.897,0.933 h -2.015 c -0.984,0 -0.963,-1 -0.963,-1 V 39.342 c 0,-0.932 0.811,-0.864 0.811,-0.864 h 1.072 c 0.424,0 0.467,0.432 0.467,0.432 l 0.48,4.001 c 0.088,0.47 0.41,0.849 0.41,0.849 l 0.459,0.534 c 0.174,0.18 0.176,0.493 0.176,0.493 z"
               inkscape:connector-curvature="0"
               style="fill:#808080;fill-opacity:1" />
            <path
               id="path5383"
               d="m 31.917,49.884 c -1.874,0 -3.395,1.518 -3.395,3.396 0,1.874 1.521,3.395 3.395,3.395 1.878,0 3.397,-1.521 3.397,-3.395 10e-4,-1.88 -1.52,-3.396 -3.397,-3.396 z m 0.002,5.167 c -0.98,0 -1.771,-0.794 -1.771,-1.771 0,-0.98 0.791,-1.774 1.771,-1.774 0.979,0 1.773,0.794 1.773,1.774 0,0.978 -0.794,1.771 -1.773,1.771 z"
               inkscape:connector-curvature="0"
               style="fill:#808080;fill-opacity:1" />
            <path
               id="path5385"
               d="m 31.919,51.939 c -0.739,0 -1.336,0.599 -1.336,1.338 0,0.738 0.597,1.339 1.336,1.339 0.741,0 1.339,-0.601 1.339,-1.339 0,-0.739 -0.599,-1.338 -1.339,-1.338 z m 0,2.038 c -0.385,0 -0.698,-0.313 -0.698,-0.699 0,-0.385 0.312,-0.697 0.698,-0.697 0.386,0 0.7,0.312 0.7,0.697 0,0.385 -0.314,0.699 -0.7,0.699 z"
               inkscape:connector-curvature="0"
               style="fill:#808080;fill-opacity:1" />
            <path
               id="path5387"
               d="m 60.777,49.884 c -1.875,0 -3.396,1.518 -3.396,3.396 0,1.874 1.521,3.395 3.396,3.395 1.878,0 3.396,-1.521 3.396,-3.395 0.002,-1.88 -1.521,-3.396 -3.396,-3.396 z m 10e-4,5.167 c -0.98,0 -1.772,-0.794 -1.772,-1.771 0,-0.98 0.792,-1.774 1.772,-1.774 0.979,0 1.772,0.794 1.772,1.774 0.001,0.978 -0.792,1.771 -1.772,1.771 z"
               inkscape:connector-curvature="0"
               style="fill:#808080;fill-opacity:1" />
            <path
               id="path5389"
               d="m 60.778,51.939 c -0.739,0 -1.337,0.599 -1.337,1.338 0,0.738 0.598,1.339 1.337,1.339 0.741,0 1.339,-0.601 1.339,-1.339 0,-0.739 -0.597,-1.338 -1.339,-1.338 z m 0,2.038 c -0.386,0 -0.698,-0.313 -0.698,-0.699 0,-0.385 0.312,-0.697 0.698,-0.697 0.386,0 0.698,0.312 0.698,0.697 10e-4,0.385 -0.312,0.699 -0.698,0.699 z"
               inkscape:connector-curvature="0"
               style="fill:#808080;fill-opacity:1" />
          </g>
        </g>
      </g>
    </g>
  </g>
</svg>
