<?xml version="1.0" encoding="UTF-8" standalone="no"?>
<svg
   xmlns:dc="http://purl.org/dc/elements/1.1/"
   xmlns:cc="http://creativecommons.org/ns#"
   xmlns:rdf="http://www.w3.org/1999/02/22-rdf-syntax-ns#"
   xmlns:svg="http://www.w3.org/2000/svg"
   xmlns="http://www.w3.org/2000/svg"
   xmlns:sodipodi="http://sodipodi.sourceforge.net/DTD/sodipodi-0.dtd"
   xmlns:inkscape="http://www.inkscape.org/namespaces/inkscape"
   version="1.1"
   x="0px"
   y="0px"
   viewBox="0 0 120 120"
   enable-background="new 0 0 100 100"
   xml:space="preserve"
   id="svg3555"
   inkscape:version="0.92+devel unknown"
   sodipodi:docname="Bicycling-Science.svg"
   width="120"
   height="120"><sodipodi:namedview
     pagecolor="#ffffff"
     bordercolor="#666666"
     borderopacity="1"
     objecttolerance="10"
     gridtolerance="10"
     guidetolerance="10"
     inkscape:pageopacity="0"
     inkscape:pageshadow="2"
     inkscape:window-width="1366"
     inkscape:window-height="708"
     id="namedview3589"
     showgrid="false"
     showborder="false"
     inkscape:zoom="3.187499"
     inkscape:cx="88.244339"
     inkscape:cy="52.868854"
     inkscape:window-x="0"
     inkscape:window-y="23"
     inkscape:window-maximized="1"
     inkscape:current-layer="svg3555"
     showguides="true"
     inkscape:guide-bbox="true"
     fit-margin-top="0"
     fit-margin-left="0"
     fit-margin-right="0"
     fit-margin-bottom="0"
     inkscape:document-rotation="0"
     inkscape:document-units="px" /><metadata
     id="metadata3593"><rdf:RDF><cc:Work
         rdf:about=""><dc:format>image/svg+xml</dc:format><dc:type
           rdf:resource="http://purl.org/dc/dcmitype/StillImage" /><dc:title></dc:title></cc:Work></rdf:RDF></metadata><defs
     id="defs3591"><filter
       id="filter14038"
       style="color-interpolation-filters:sRGB"
       inkscape:label="Dark And Glow"
       inkscape:menu="Shadows and Glows"
       inkscape:menu-tooltip="Darkens the edge with an inner blur and adds a flexible glow"
       height="1.5"
       y="-0.25"><feGaussianBlur
         id="feGaussianBlur14040"
         result="result6"
         stdDeviation="5" /><feComposite
         id="feComposite14042"
         in2="result6"
         operator="atop"
         in="SourceGraphic"
         result="result8" /><feComposite
         id="feComposite14044"
         in="result8"
         in2="SourceAlpha"
         operator="over"
         result="result9" /><feColorMatrix
         id="feColorMatrix14046"
         result="result10"
         values="1 0 0 0 0 0 1 0 0 0 0 0 1 0 0 0 0 0 1 0 " /><feBlend
         id="feBlend14048"
         in2="result6"
         mode="normal"
         in="result10" /></filter><filter
       inkscape:collect="always"
       style="color-interpolation-filters:sRGB"
       id="filter4912"
       x="-0.056697067"
       width="1.1133941"
       y="-0.063711569"
       height="1.127423"><feGaussianBlur
         inkscape:collect="always"
         stdDeviation="2.6773703"
         id="feGaussianBlur4914" /></filter></defs><g
     id="g4940"
     inkscape:export-xdpi="96"
     inkscape:export-ydpi="96"
     transform="translate(1.5460671,-45.543949)"><rect
       y="45.543949"
       x="-1.5460671"
       height="120"
       width="120"
       id="rect5453"
       style="opacity:1;fill:#333333;fill-opacity:1;stroke:none;stroke-width:5.43275881;stroke-linecap:round;stroke-linejoin:round;stroke-miterlimit:4;stroke-dasharray:none;stroke-dashoffset:0;stroke-opacity:1"
       rx="0"
       ry="0" /><g
       id="g4934"><path
         style="fill:#d4d4d4;fill-opacity:1;stroke:#d1d1d1;stroke-width:1.33333373;stroke-miterlimit:4;stroke-dasharray:none;stroke-opacity:1;filter:url(#filter4912)"
         inkscape:connector-curvature="0"
         d="m 35.109206,109.33106 c 0.747988,0 1.482376,0.0657 2.196364,0.1836 L 45.676231,81.246404 C 48.844978,69.863394 55.928194,60.324282 65.211172,53.923331 h -9.58444 c -0.925917,0 -1.676172,-0.751387 -1.676172,-1.676172 0,-0.924784 0.750255,-1.676172 1.676172,-1.676172 h 11.233413 c 0.788787,0 1.448376,0.54512 1.62744,1.278379 6.898485,-3.999476 14.796553,-6.356765 23.092414,-6.61629 v -1.163923 h 0.665255 v -1.702234 c 0,-1.9663 1.427974,-3.393144 3.394274,-3.393144 h 4.764462 c 0.41479,0 0.75252,-0.337727 0.75252,-0.75252 0,-0.414793 -0.33773,-0.75252 -0.75252,-0.75252 h -5.010392 c -0.10087,0.281061 -0.36832,0.485057 -0.68452,0.485057 H 84.07859 c -0.401193,0 -0.729853,-0.32866 -0.729853,-0.729853 v -1.378111 c 0,-0.401194 0.32866,-0.729854 0.729853,-0.729854 h 10.630488 c 0.30373,0 0.56439,0.189263 0.67432,0.454458 h 5.020592 c 1.46084,0 2.64969,1.188847 2.64969,2.648556 0,1.460843 -1.18885,2.64969 -2.64969,2.64969 h -4.764462 c -0.92252,0 -1.49711,0.573456 -1.49711,1.495975 v 1.702243 h 0.68906 v 8.107722 c 22.395432,0.854528 40.289332,19.275421 40.289332,41.879373 0,23.149079 -18.76542,41.913369 -41.913372,41.913369 -23.147947,0 -41.913366,-18.76543 -41.913366,-41.913369 0,-22.603952 17.892767,-41.024845 40.28706,-41.879373 v -3.691196 c -19.935,0.667518 -37.392576,14.30809 -42.779219,33.659438 l -8.378594,28.29318 c 4.711189,2.05244 8.005734,6.74776 8.005734,12.21487 0,7.35635 -5.963501,13.32098 -13.320975,13.32098 -7.356349,0 -13.320978,-5.96463 -13.320978,-13.32098 0,-7.35635 5.965758,-13.31985 13.322106,-13.31985 z M 65.868494,66.716175 C 58.56655,74.018125 54.54555,83.727234 54.54555,94.053991 c 0,10.327899 4.021,20.036989 11.322944,27.338939 7.301945,7.30081 17.011051,11.32294 27.338944,11.32294 10.327892,0 20.035872,-4.02213 27.338942,-11.32294 7.30195,-7.30195 11.32408,-17.01104 11.32408,-27.338939 0,-10.326757 -4.021,-20.035866 -11.32408,-27.337816 -6.91775,-6.917742 -15.9956,-10.888876 -25.712632,-11.287811 v 35.650677 c 1.05171,0.57686 1.76457,1.69204 1.76457,2.97495 0,0.36492 -0.0589,0.71739 -0.1666,1.04718 l 5.966902,4.1774 h 3.52121 v 3.251479 h -5.69037 v -2.45476 l -4.864192,-3.404469 c -0.58592,0.48279 -1.33731,0.77404 -2.1567,0.77404 -1.872232,0 -3.389739,-1.5175 -3.389739,-3.38974 0,-0.39665 0.0714,-0.77632 0.197196,-1.12991 L 83.996992,88.71155 h -3.482675 v -3.252616 h 5.690372 v 2.481958 l 4.918584,3.444139 c 0.143931,-0.11328 0.296929,-0.21646 0.457859,-0.30599 V 55.428364 C 81.864094,55.827299 72.786246,59.798433 65.868494,66.716175 Z M 35.109206,132.99241 c 5.701707,0 10.340363,-4.63867 10.340363,-10.34037 0,-4.10599 -2.404894,-7.66008 -5.880769,-9.32718 l -2.395828,8.09414 c 0.216468,0.36039 0.343394,0.78199 0.343394,1.23418 0,1.32938 -1.076653,2.40602 -2.406031,2.40602 -1.328235,0 -2.406017,-1.07664 -2.406017,-2.40602 0,-0.95086 0.551919,-1.76911 1.350906,-2.16011 l 2.395831,-8.08959 c -0.439735,-0.0578 -0.886256,-0.0907 -1.341849,-0.0907 -5.700576,0 -10.339227,4.63979 -10.339227,10.34035 0,5.70058 4.638651,10.33923 10.339227,10.33923 z"
         id="path4894"
         transform="matrix(0.74999979,0,0,0.74999979,-0.3865172,41.386023)" /><path
         id="path4079"
         d="m 25.945382,123.3843 c 0.560991,0 1.111782,0.0493 1.647272,0.1377 l 6.277994,-21.20119 c 2.37656,-8.53726 7.688971,-15.691592 14.651202,-20.492304 h -7.188328 c -0.694437,0 -1.257129,-0.56354 -1.257129,-1.257129 0,-0.693588 0.562692,-1.257128 1.257129,-1.257128 h 8.425058 c 0.59159,0 1.086281,0.40884 1.220579,0.958784 5.173862,-2.999607 11.097412,-4.767573 17.319306,-4.962216 v -0.872943 h 0.498941 v -1.276675 c 0,-1.474724 1.07098,-2.544857 2.545705,-2.544857 h 3.573345 c 0.311093,0 0.56439,-0.253295 0.56439,-0.56439 0,-0.311094 -0.253297,-0.56439 -0.56439,-0.56439 h -3.757793 c -0.07565,0.210796 -0.27624,0.363793 -0.51339,0.363793 H 62.67241 c -0.300895,0 -0.54739,-0.246495 -0.54739,-0.54739 v -1.033583 c 0,-0.300895 0.246495,-0.54739 0.54739,-0.54739 h 7.972863 c 0.227798,0 0.423293,0.141947 0.50574,0.340844 h 3.765443 c 1.09563,0 1.987267,0.891635 1.987267,1.986416 0,1.095632 -0.891637,1.987267 -1.987267,1.987267 h -3.573345 c -0.69189,0 -1.122832,0.430092 -1.122832,1.121981 v 1.276682 h 0.516794 v 6.08079 c 16.796567,0.640895 30.216987,14.456561 30.216987,31.409528 0,17.3618 -14.07406,31.43501 -31.435016,31.43501 -17.360956,0 -31.435016,-14.07406 -31.435016,-31.43501 0,-16.952967 13.419572,-30.768633 30.215287,-31.409528 V 77.748575 C 53.348069,78.249214 40.25489,88.47964 36.214909,102.99315 l -6.283943,21.21988 c 3.53339,1.53933 6.004298,5.06082 6.004298,9.16115 0,5.51726 -4.472624,9.99073 -9.990728,9.99073 -5.51726,0 -9.990731,-4.47347 -9.990731,-9.99073 0,-5.51726 4.474317,-9.98988 9.991577,-9.98988 z M 49.014841,91.423136 c -5.476456,5.476461 -8.492205,12.758294 -8.492205,20.503364 0,7.74592 3.015749,15.02773 8.492205,20.5042 5.476458,5.4756 12.758285,8.4922 20.504203,8.4922 7.745917,0 15.026896,-3.0166 20.504196,-8.4922 5.47646,-5.47647 8.49306,-12.75828 8.49306,-20.5042 0,-7.74507 -3.01575,-15.026903 -8.49306,-20.503364 C 84.83493,86.234831 78.026548,83.256482 70.738776,82.95728 v 26.738 c 0.788782,0.43265 1.323427,1.26903 1.323427,2.23122 0,0.27369 -0.04417,0.53804 -0.12495,0.78538 l 4.475175,3.13305 h 2.640907 v 2.43861 h -4.267776 v -1.84107 l -3.648143,-2.55335 c -0.43944,0.36209 -1.002982,0.58053 -1.617525,0.58053 -1.404173,0 -2.542303,-1.13813 -2.542303,-2.54231 0,-0.29748 0.05355,-0.58224 0.147897,-0.84743 l -4.514274,-3.16024 h -2.612005 v -2.43946 h 4.267777 v 1.86146 l 3.688937,2.58311 c 0.107949,-0.085 0.222697,-0.16235 0.343395,-0.2295 v -26.738 c -7.287777,0.299202 -14.096161,3.277551 -19.284474,8.465856 z M 25.945382,141.1303 c 4.276279,0 7.75527,-3.479 7.75527,-7.75527 0,-3.07949 -1.80367,-5.74506 -4.410576,-6.99539 l -1.79687,6.07061 c 0.162351,0.27029 0.257545,0.58649 0.257545,0.92563 0,0.99704 -0.807489,1.80452 -1.804522,1.80452 -0.996176,0 -1.804513,-0.80748 -1.804513,-1.80452 0,-0.71314 0.41394,-1.32683 1.01318,-1.62008 l 1.796872,-6.06719 c -0.329801,-0.0434 -0.664691,-0.068 -1.006386,-0.068 -4.275431,0 -7.754418,3.47985 -7.754418,7.75526 0,4.27544 3.478987,7.75443 7.754418,7.75443 z"
         inkscape:connector-curvature="0"
         style="fill:#d7d7d7;fill-opacity:1;stroke:#101010;stroke-width:0.05;stroke-miterlimit:4;stroke-dasharray:none;stroke-opacity:1" /></g></g></svg>