<?xml version="1.0" encoding="UTF-8" standalone="no"?>
<!-- Created with Inkscape (http://www.inkscape.org/) -->

<svg
   xmlns:dc="http://purl.org/dc/elements/1.1/"
   xmlns:cc="http://creativecommons.org/ns#"
   xmlns:rdf="http://www.w3.org/1999/02/22-rdf-syntax-ns#"
   xmlns:svg="http://www.w3.org/2000/svg"
   xmlns="http://www.w3.org/2000/svg"
   xmlns:sodipodi="http://sodipodi.sourceforge.net/DTD/sodipodi-0.dtd"
   xmlns:inkscape="http://www.inkscape.org/namespaces/inkscape"
   width="42.333332mm"
   height="42.333332mm"
   viewBox="0 0 149.99999 150"
   id="svg4759"
   version="1.1"
   inkscape:version="0.91 r13725"
   sodipodi:docname="Bootstrap-black.svg">
  <defs
     id="defs4761">
    <filter
       inkscape:collect="always"
       style="color-interpolation-filters:sRGB"
       id="filter11929"
       x="-0.17886753"
       width="1.3577352"
       y="-0.090285815"
       height="1.1805716">
      <feGaussianBlur
         inkscape:collect="always"
         stdDeviation="2.2139671"
         id="feGaussianBlur11931" />
    </filter>
  </defs>
  <sodipodi:namedview
     id="base"
     pagecolor="#ffffff"
     bordercolor="#666666"
     borderopacity="1.0"
     inkscape:pageopacity="0.0"
     inkscape:pageshadow="2"
     inkscape:zoom="2.1115385"
     inkscape:cx="106.7241"
     inkscape:cy="66.004754"
     inkscape:document-units="px"
     inkscape:current-layer="layer1"
     showgrid="false"
     fit-margin-top="0"
     fit-margin-left="0"
     fit-margin-right="0"
     fit-margin-bottom="0"
     inkscape:window-width="1366"
     inkscape:window-height="713"
     inkscape:window-x="0"
     inkscape:window-y="27"
     inkscape:window-maximized="1"
     showborder="false"
     showguides="true"
     inkscape:guide-bbox="true" />
  <metadata
     id="metadata4764">
    <rdf:RDF>
      <cc:Work
         rdf:about="">
        <dc:format>image/svg+xml</dc:format>
        <dc:type
           rdf:resource="http://purl.org/dc/dcmitype/StillImage" />
        <dc:title></dc:title>
      </cc:Work>
    </rdf:RDF>
  </metadata>
  <g
     inkscape:label="Layer 1"
     inkscape:groupmode="layer"
     id="layer1"
     transform="translate(-283.17573,-935.61328)">
    <g
       id="g4167"
       transform="matrix(0.8,0,0,0.8,56.635144,217.12266)"
       inkscape:export-xdpi="90"
       inkscape:export-ydpi="90">
      <rect
         ry="0"
         rx="0"
         style="opacity:1;fill:#333333;fill-opacity:1;stroke:none;stroke-width:6.79094839;stroke-linecap:round;stroke-linejoin:round;stroke-miterlimit:4;stroke-dasharray:none;stroke-dashoffset:0;stroke-opacity:1"
         id="rect5453"
         width="150"
         height="150"
         x="283.17572"
         y="935.61328" />
      <path
         transform="matrix(1.25,0,0,1.25,-70.793918,-271.40333)"
         id="path11927"
         d="m 342.63015,996.4491 0.005,0 c -0.0261,0.029 -0.0499,0.06 -0.0712,0.092 -2.87392,2.901 -4.9362,6.1576 -6.34144,9.5816 -0.009,0.019 -0.0172,0.038 -0.0245,0.057 -0.0118,0.032 -0.0319,0.062 -0.0449,0.095 -0.0255,0.065 -0.0421,0.132 -0.049,0.2001 -0.10477,0.291 -0.20962,0.621 -0.31462,0.9806 -0.009,0.019 -0.0158,0.04 -0.0224,0.059 -0.0117,0.037 -0.0201,0.076 -0.0327,0.1145 -0.0454,0.1562 -0.0745,0.2441 -0.1165,0.3944 -1.61228,5.1961 -1.95971,10.5911 -1.44234,15.7392 -0.63119,0.2588 -1.22786,0.5762 -1.75903,0.9908 -1.98175,1.5468 -3.26263,4.1041 -3.79791,7.1362 -0.71369,4.0429 -0.15206,9.0076 1.84481,13.9842 0.28448,0.7068 1.32263,0.5739 1.41988,-0.1818 0.48428,-3.8328 1.2601,-6.4135 2.22277,-7.8002 0.48132,-0.6932 0.98386,-1.0864 1.53631,-1.2829 0.47605,-0.1698 1.02248,-0.1915 1.67324,-0.059 0.0891,0.2236 0.16376,0.4645 0.25538,0.6843 0.11488,0.2765 0.38506,0.4563 0.68439,0.4557 l 2.24728,0 c 0.49458,2.4458 1.16338,5.124 1.9531,8.0861 -0.002,0 -0.005,0 0.005,0.016 0.003,0.015 0.006,0.023 0.0103,0.035 l 0.007,0.02 0.006,0.015 c 0.007,0.019 0.0155,0.038 0.0245,0.057 l 0.007,0.016 c 0.009,0.017 0.0169,0.032 0.0262,0.047 0.0132,0.022 0.0274,0.043 0.0427,0.063 0.007,0.015 0.016,0.022 0.0244,0.032 0.007,0.015 0.0132,0.016 0.0204,0.025 l 0.0117,0.015 c 0.0176,0.017 0.0359,0.034 0.0552,0.05 0.0147,0.015 0.0295,0.025 0.0451,0.037 l 0.0117,0.015 c 0.0204,0.014 0.0415,0.026 0.0632,0.038 0.0206,0.015 0.0417,0.022 0.0632,0.032 0.0181,0.014 0.0365,0.016 0.0552,0.022 0.0215,0.015 0.0433,0.015 0.0655,0.02 l 0.002,0 0.0167,0 c 0.0189,0 0.038,0.015 0.0572,0.015 l 0.0167,0 c 0.0204,0 0.041,0 0.0614,0 0.017,5e-4 0.034,5e-4 0.0511,0 l 0.0226,0 0.0206,0 c 0.0186,0 0.037,-0.015 0.0552,-0.015 l 0.0188,0 c 0.0207,0 0.0411,-0.015 0.0614,-0.015 0.0242,0 0.048,-0.015 0.0715,-0.022 0.0118,0 0.0233,-0.015 0.0349,-0.015 0.0117,0 0.0221,-0.015 0.033,-0.015 l 0.0103,-0.015 c 0.0176,-0.015 0.0346,-0.02 0.0514,-0.031 0.016,-0.015 0.0319,-0.018 0.0473,-0.026 0.009,-0.015 0.0164,-0.015 0.0244,-0.023 0.0148,-0.015 0.0292,-0.028 0.0428,-0.043 l 0.009,-0.015 c 0.0349,-0.035 0.0664,-0.073 0.0937,-0.1144 0.0132,-0.02 0.0255,-0.041 0.0368,-0.062 0.0117,-0.022 0.023,-0.046 0.0327,-0.069 0.0117,-0.028 0.021,-0.055 0.0287,-0.085 0.001,-0.022 0.007,-0.034 0.0117,-0.053 0.78324,-2.9491 1.44808,-5.6193 1.94085,-8.0575 l 2.16965,0 c 0.2993,6e-4 0.56945,-0.1792 0.6844,-0.4555 0.0899,-0.2156 0.16385,-0.4532 0.2513,-0.6724 1.39191,-0.2901 2.33509,0.053 3.24426,1.3361 0.98382,1.3878 1.78172,3.9641 2.26568,7.7941 0.0971,0.7557 1.13527,0.8887 1.41985,0.1819 1.99693,-4.9769 2.55854,-9.9415 1.84484,-13.9842 -0.68097,-3.8583 -2.58573,-6.924 -5.58758,-8.1414 0.53884,-5.093 0.24283,-10.4269 -1.29932,-15.5552 -0.0546,-0.2 -0.0948,-0.329 -0.15324,-0.5454 -0.12223,-0.4515 -0.24681,-0.8642 -0.37795,-1.232 -0.009,-0.044 -0.0219,-0.087 -0.0387,-0.1292 7.5e-4,-7e-4 0.001,-7e-4 -0.009,-0.015 -0.0117,-0.028 -0.0198,-0.072 -0.0307,-0.1 -0.0227,-0.056 -0.0522,-0.1086 -0.0879,-0.1575 -1.42834,-3.4313 -3.56541,-6.699 -6.45628,-9.59 -0.28942,-0.2897 -0.75929,-0.2893 -1.04806,0 l -10e-4,0 -0.0117,0.015 z m 0.54546,1.6733 c 2.21326,2.3416 3.90343,4.9089 5.13813,7.5977 l -10.21291,0 c 1.22393,-2.6953 2.86973,-5.2593 5.07478,-7.5998 z m -5.77347,9.1728 11.64094,0.015 c 0.0425,0.135 0.0885,0.2913 0.13279,0.4395 l -10e-4,0 c 0.006,0.043 0.0169,0.084 0.0307,0.1247 0.087,0.2658 0.15512,0.5352 0.23494,0.8027 0.0747,0.2753 0.15532,0.5847 0.22267,0.7907 0.0103,0.031 0.0226,0.061 0.0368,0.091 2.45346,9.1516 0.87695,19.0258 -2.2105,26.6571 l -1.36878,0 c 0.26183,-1.4925 0.46966,-2.9192 0.53728,-4.2068 0.1961,-3.734 -0.57039,-6.7295 -2.96437,-8.6274 -0.0424,-0.034 -0.0882,-0.063 -0.13689,-0.087 l -0.035,-0.015 c -0.15496,-0.075 -0.33124,-0.094 -0.49849,-0.053 l -0.0635,0.018 c -0.1033,0.025 -0.20021,0.071 -0.28398,0.1364 l -0.0103,-0.014 c -2.39402,1.8977 -3.16293,4.8974 -2.96845,8.6317 0.0672,1.2904 0.27488,2.7195 0.53728,4.2145 l -1.4464,0 c -3.08054,-7.619 -4.57747,-17.3947 -2.12064,-26.5343 0.0152,-0.031 0.0282,-0.063 0.0389,-0.095 0.19049,-0.5828 0.47928,-1.6098 0.69667,-2.2901 z m 3.18909,5.833 c -0.66315,0.6632 -1.07667,1.5791 -1.07665,2.5843 3e-5,2.0105 1.64853,3.6551 3.65904,3.6548 2.01039,0 3.65493,-1.6446 3.6549,-3.6548 -2e-5,-2.0105 -1.64458,-3.659 -3.65484,-3.6591 -1.00531,0 -1.9192,0.4114 -2.58234,1.0746 z m 1.03989,1.04 c 0.39325,-0.3934 0.937,-0.6356 1.54244,-0.6356 1.2109,0 2.17588,0.9689 2.17575,2.18 -2e-5,1.2108 -0.96491,2.1758 -2.17577,2.1758 -1.21087,0 -2.17981,-0.965 -2.17993,-2.1758 2e-5,-0.6054 0.24417,-1.1514 0.63741,-1.5444 z m -9.24045,12.697 c 0.58175,-0.5608 1.26774,-0.9461 1.96332,-1.3096 0.0619,0.4044 0.14218,0.8154 0.21451,1.2238 0.005,0.031 0.0117,0.062 0.0184,0.091 0.17814,0.9953 0.38254,1.9995 0.62923,3.0154 0.20071,0.8484 0.43118,1.6709 0.67214,2.4905 0.0442,0.1467 0.0835,0.2891 0.12868,0.4349 0.24801,0.8151 0.51159,1.6084 0.79473,2.3884 -0.56438,-0.028 -1.15184,-0.1646 -1.66505,0.017 -0.88456,0.3155 -1.64304,0.9525 -2.25546,1.8347 -0.83311,1.1999 -1.39233,3.0544 -1.85707,5.232 -1.02293,-3.6681 -1.47156,-7.2363 -0.96019,-10.1332 0.32696,-1.8522 0.93279,-3.4307 1.78148,-4.6539 0.16382,-0.2349 0.34271,-0.445 0.53523,-0.6333 z m 10.78494,-1.7305 c 1.50218,1.529 2.16107,3.646 1.996,6.7889 -0.14803,2.8191 -0.9633,6.475 -1.99805,10.5745 -1.03738,-4.0997 -1.85525,-7.7554 -2.00211,-10.5745 -0.16373,-3.144 0.49964,-5.2597 2.00416,-6.7889 z m 8.81142,0.4106 c 2.13782,1.1121 3.70847,3.3205 4.28823,6.605 0.51213,2.9012 0.0607,6.4776 -0.96632,10.1516 -0.47435,-2.1886 -1.04759,-4.0521 -1.9,-5.2545 -0.9844,-1.3887 -2.41714,-1.8671 -3.94908,-1.8284 0.29355,-0.8051 0.56787,-1.6246 0.82536,-2.4681 0.0117,-0.041 0.0233,-0.081 0.0368,-0.1232 0.22541,-0.7452 0.45833,-1.4826 0.65171,-2.2532 0.42984,-1.6343 0.76408,-3.2455 1.01334,-4.8297 z m -11.29364,16.3767 10e-4,8.1616 0.99085,0 0,-4.3271 c -0.35345,-1.3284 -0.6888,-2.6094 -0.99289,-3.8366 z m 4.95627,0.073 c -0.30411,1.228 -0.63829,2.5096 -0.99083,3.8387 l 0,5.2422 0.99086,0 -3e-5,-9.0791 z m -2.97255,5.0113 0,6.0514 0.99087,0 -10e-6,-6.0514 c -0.0132,0.014 -0.0368,0.016 -0.0552,0.022 l -0.0226,0 c -0.0271,0 -0.0531,0.015 -0.0797,0.018 l 0.0167,0 c -0.0308,0.015 -0.0637,0.015 -0.096,0.018 -0.0382,0 -0.0775,0.015 -0.1165,0.015 l -0.0244,0 c -0.0155,4e-4 -0.0313,4e-4 -0.0468,0 l -0.006,0 -0.002,0 -0.0167,0 -0.043,0 -0.0206,0 -0.0511,0 c -0.0322,0 -0.0637,0 -0.096,0 l -0.0164,-0.015 c -0.0414,0 -0.0813,-0.016 -0.12266,-0.025 -0.0558,0 -0.11064,-0.019 -0.16349,-0.038 l -0.0289,0 z m -1.98168,4.0696 -10e-4,0.991 0.9929,0 -10e-4,-0.991 -0.9888,0 z m 1.97967,2.9726 0.002,0.9909 0.98881,0 10e-4,-0.9909 -0.9929,0 z m 1.98168,-1.9816 10e-4,0.9908 0.98881,0 0.002,-0.9908 -0.99291,0 z"
         style="color:#000000;font-style:normal;font-variant:normal;font-weight:normal;font-stretch:normal;font-size:medium;line-height:normal;font-family:sans-serif;text-indent:0;text-align:start;text-decoration:none;text-decoration-line:none;text-decoration-style:solid;text-decoration-color:#000000;letter-spacing:normal;word-spacing:normal;text-transform:none;direction:ltr;block-progression:tb;writing-mode:lr-tb;baseline-shift:baseline;text-anchor:start;white-space:normal;clip-rule:nonzero;display:inline;overflow:visible;visibility:visible;opacity:1;isolation:auto;mix-blend-mode:normal;color-interpolation:sRGB;color-interpolation-filters:linearRGB;solid-color:#000000;solid-opacity:1;fill:#ffffff;fill-opacity:1;fill-rule:evenodd;stroke:#333333;stroke-width:0.2934511;stroke-linecap:round;stroke-linejoin:round;stroke-miterlimit:4;stroke-dasharray:none;stroke-dashoffset:0;stroke-opacity:1;filter:url(#filter11929);color-rendering:auto;image-rendering:auto;shape-rendering:auto;text-rendering:auto;enable-background:accumulate"
         inkscape:connector-curvature="0"
         sodipodi:nodetypes="cccccccccccccsccccccccccccccccccccccccccccccccccccccccccccccccccccccccccccccccccccccccccccccccccccccccscccccccscccccccscsccccscsccccccccccccccccccccccccscscccccccccccccccccccccccscccscccccccccccccccccccccccccccacccc" />
      <path
         sodipodi:nodetypes="cccccccccccccsccccccccccccccccccccccccccccccccccccccccccccccccccccccccccccccccccccccccccccccccccccccccscccccccscccccccscsccccscsccccccccccccccccccccccccscscccccccccccccccccccccccscccscccccccccccccccccccccccccccacccc"
         inkscape:connector-curvature="0"
         style="color:#000000;font-style:normal;font-variant:normal;font-weight:normal;font-stretch:normal;font-size:medium;line-height:normal;font-family:sans-serif;text-indent:0;text-align:start;text-decoration:none;text-decoration-line:none;text-decoration-style:solid;text-decoration-color:#000000;letter-spacing:normal;word-spacing:normal;text-transform:none;direction:ltr;block-progression:tb;writing-mode:lr-tb;baseline-shift:baseline;text-anchor:start;white-space:normal;clip-rule:nonzero;display:inline;overflow:visible;visibility:visible;opacity:1;isolation:auto;mix-blend-mode:normal;color-interpolation:sRGB;color-interpolation-filters:linearRGB;solid-color:#000000;solid-opacity:1;fill:#cccccc;fill-opacity:1;fill-rule:evenodd;stroke:#cccccc;stroke-width:0.36681387;stroke-linecap:round;stroke-linejoin:round;stroke-miterlimit:4;stroke-dasharray:none;stroke-dashoffset:0;stroke-opacity:1;color-rendering:auto;image-rendering:auto;shape-rendering:auto;text-rendering:auto;enable-background:accumulate"
         d="m 357.49431,974.15806 0.006,0 c -0.0326,0.0362 -0.0624,0.075 -0.089,0.11499 -3.5924,3.62625 -6.17025,7.69701 -7.9268,11.977 -0.0113,0.0238 -0.0215,0.0475 -0.0306,0.0713 -0.0147,0.04 -0.0399,0.0775 -0.0561,0.11875 -0.0319,0.0812 -0.0526,0.16499 -0.0613,0.25012 -0.13096,0.36375 -0.26203,0.77625 -0.39328,1.22575 -0.0113,0.0237 -0.0197,0.05 -0.028,0.0738 -0.0146,0.0462 -0.0251,0.095 -0.0409,0.14313 -0.0567,0.19525 -0.0931,0.30512 -0.14563,0.493 -2.01535,6.49512 -2.44963,13.2389 -1.80292,19.674 -0.78899,0.3235 -1.53483,0.7203 -2.19879,1.2385 -2.47719,1.9335 -4.07829,5.1301 -4.74739,8.9203 -0.89211,5.0536 -0.19007,11.2595 2.30602,17.4802 0.3556,0.8835 1.65328,0.7174 1.77485,-0.2272 0.60535,-4.791 1.57512,-8.0169 2.77846,-9.7503 0.60165,-0.8665 1.22982,-1.358 1.92039,-1.6036 0.59506,-0.2123 1.2781,-0.2394 2.09155,-0.074 0.11137,0.2795 0.2047,0.5807 0.31922,0.8554 0.1436,0.3456 0.48133,0.5704 0.85549,0.5696 l 2.8091,0 c 0.61822,3.0573 1.45422,6.405 2.44137,10.1077 -0.002,0 -0.006,0 0.006,0.02 0.004,0.019 0.007,0.029 0.0129,0.044 l 0.009,0.025 0.007,0.019 c 0.009,0.024 0.0194,0.048 0.0306,0.071 l 0.009,0.02 c 0.0113,0.021 0.0211,0.04 0.0328,0.059 0.0165,0.027 0.0342,0.054 0.0534,0.079 0.009,0.019 0.02,0.027 0.0305,0.04 0.009,0.019 0.0165,0.02 0.0255,0.031 l 0.0146,0.019 c 0.022,0.021 0.0449,0.043 0.069,0.063 0.0184,0.019 0.0369,0.031 0.0564,0.046 l 0.0146,0.019 c 0.0255,0.017 0.0519,0.033 0.079,0.047 0.0258,0.019 0.0521,0.028 0.079,0.04 0.0226,0.018 0.0456,0.02 0.069,0.028 0.0269,0.019 0.0541,0.019 0.0819,0.025 l 0.002,0 0.0209,0 c 0.0236,0 0.0475,0.019 0.0715,0.019 l 0.0209,0 c 0.0255,0 0.0512,0 0.0768,0 0.0213,6e-4 0.0425,6e-4 0.0639,0 l 0.0282,0 0.0258,0 c 0.0233,0 0.0462,-0.019 0.069,-0.019 l 0.0235,0 c 0.0259,0 0.0514,-0.019 0.0768,-0.019 0.0302,0 0.06,-0.019 0.0894,-0.028 0.0147,0 0.0291,-0.019 0.0436,-0.019 0.0146,0 0.0276,-0.019 0.0412,-0.019 l 0.0129,-0.019 c 0.022,-0.019 0.0433,-0.025 0.0643,-0.039 0.02,-0.019 0.0399,-0.022 0.0591,-0.032 0.0112,-0.019 0.0205,-0.019 0.0305,-0.029 0.0185,-0.019 0.0365,-0.035 0.0535,-0.054 l 0.0112,-0.019 c 0.0436,-0.044 0.083,-0.091 0.11713,-0.143 0.0165,-0.025 0.0319,-0.051 0.046,-0.078 0.0146,-0.027 0.0288,-0.057 0.0409,-0.086 0.0146,-0.035 0.0263,-0.069 0.0359,-0.1063 10e-4,-0.028 0.009,-0.043 0.0146,-0.066 0.97905,-3.6864 1.8101,-7.0242 2.42607,-10.0719 l 2.71206,0 c 0.37412,7e-4 0.71181,-0.224 0.8555,-0.5694 0.11237,-0.2695 0.20481,-0.5665 0.31412,-0.8405 1.73989,-0.3626 2.91887,0.066 4.05533,1.6701 1.22977,1.7348 2.22715,4.9552 2.8321,9.7427 0.12137,0.9446 1.41909,1.1108 1.77481,0.2273 2.49616,-6.2211 3.19818,-12.4268 2.30605,-17.4802 -0.85121,-4.8229 -3.23216,-8.655 -6.98447,-10.1768 0.67355,-6.3662 0.30353,-13.0336 -1.62415,-19.44398 -0.0682,-0.25 -0.1185,-0.41125 -0.19155,-0.68175 -0.15279,-0.56437 -0.30852,-1.08025 -0.47244,-1.54 -0.0113,-0.055 -0.0274,-0.10875 -0.0484,-0.1615 9.4e-4,-8.7e-4 10e-4,-8.7e-4 -0.0113,-0.0187 -0.0146,-0.035 -0.0247,-0.09 -0.0384,-0.125 -0.0284,-0.07 -0.0652,-0.13575 -0.10988,-0.19687 -1.78542,-4.28913 -4.45676,-8.37375 -8.07035,-11.9875 -0.36177,-0.36213 -0.94911,-0.36163 -1.31007,0 l -10e-4,0 -0.0146,0.0187 z m 0.68182,2.09162 c 2.76658,2.927 4.87929,6.13613 6.42267,9.49713 l -12.76614,0 c 1.52991,-3.36913 3.58716,-6.57413 6.34347,-9.49975 z m -7.21683,11.466 14.55117,0.0187 c 0.0531,0.16875 0.11063,0.36413 0.16599,0.54938 l -0.001,0 c 0.007,0.0538 0.0211,0.105 0.0384,0.15587 0.10875,0.33225 0.1939,0.669 0.29368,1.00337 0.0934,0.34413 0.19415,0.73088 0.27834,0.98838 0.0129,0.0388 0.0283,0.0763 0.046,0.11375 3.06682,11.43957 1.09618,23.78227 -2.76313,33.32147 l -1.71097,0 c 0.32728,-1.8657 0.58707,-3.649 0.6716,-5.2585 0.24512,-4.6675 -0.71299,-8.4119 -3.70547,-10.7843 -0.053,-0.043 -0.11025,-0.079 -0.17111,-0.1087 l -0.0437,-0.019 c -0.1937,-0.094 -0.41405,-0.1175 -0.62311,-0.066 l -0.0794,0.023 c -0.12912,0.031 -0.25026,0.089 -0.35497,0.1704 l -0.0129,-0.017 c -2.99252,2.3721 -3.95366,6.1217 -3.71056,10.7896 0.084,1.613 0.3436,3.3994 0.6716,5.2681 l -1.808,0 c -3.85067,-9.5237 -5.72184,-21.7434 -2.6508,-33.16782 0.019,-0.0387 0.0353,-0.0788 0.0486,-0.11875 0.23811,-0.7285 0.5991,-2.01225 0.87083,-2.86262 z m 3.98636,7.29125 c -0.82894,0.829 -1.34584,1.97388 -1.34581,3.23038 3e-5,2.51309 2.06066,4.56889 4.5738,4.56849 2.51298,0 4.56866,-2.0557 4.56862,-4.56849 -2e-5,-2.51313 -2.05572,-4.57375 -4.56855,-4.57388 -1.25664,0 -2.399,0.51425 -3.22792,1.34325 z m 1.29986,1.3 c 0.49156,-0.49175 1.17125,-0.7945 1.92805,-0.7945 1.51363,0 2.71985,1.21113 2.71969,2.725 -3e-5,1.5135 -1.20614,2.71977 -2.71971,2.71977 -1.51359,0 -2.72477,-1.20627 -2.72492,-2.71977 3e-5,-0.75675 0.30522,-1.43925 0.79677,-1.9305 z m -11.55056,15.87127 c 0.72719,-0.701 1.58467,-1.1826 2.45415,-1.637 0.0774,0.5055 0.17772,1.0192 0.26814,1.5297 0.006,0.039 0.0146,0.077 0.023,0.1138 0.22267,1.2441 0.47817,2.4994 0.78653,3.7692 0.25089,1.0605 0.53898,2.0887 0.84018,3.1132 0.0553,0.1833 0.10437,0.3613 0.16085,0.5436 0.31001,1.0189 0.63949,2.0105 0.99341,2.9855 -0.70547,-0.035 -1.4398,-0.2058 -2.08131,0.021 -1.1057,0.3944 -2.0538,1.1907 -2.81933,2.2934 -1.04138,1.4999 -1.74041,3.818 -2.32134,6.54 -1.27866,-4.5851 -1.83945,-9.0454 -1.20023,-12.6665 0.4087,-2.3152 1.16599,-4.2884 2.22685,-5.8174 0.20477,-0.2936 0.42839,-0.5562 0.66903,-0.7916 z m 13.48117,-2.1631 c 1.87773,1.9112 2.70134,4.5575 2.495,8.4861 -0.18503,3.5239 -1.20412,8.0937 -2.49756,13.2181 -1.29672,-5.1246 -2.31906,-9.6942 -2.50264,-13.2181 -0.20466,-3.93 0.62455,-6.5746 2.5052,-8.4861 z m 11.01428,0.5132 c 2.67227,1.3901 4.63559,4.1506 5.36029,8.2563 0.64016,3.6265 0.0759,8.097 -1.2079,12.6895 -0.59294,-2.7358 -1.30949,-5.0652 -2.375,-6.5682 -1.2305,-1.7358 -3.02143,-2.3338 -4.93635,-2.2855 0.36693,-1.0063 0.70983,-2.0307 1.0317,-3.0851 0.0146,-0.051 0.0291,-0.1012 0.046,-0.154 0.28176,-0.9315 0.57291,-1.8532 0.81463,-2.8165 0.5373,-2.0429 0.9551,-4.0569 1.26668,-6.0371 z m -14.11705,20.4709 0.001,10.202 1.23856,0 0,-5.4089 c -0.44181,-1.6605 -0.861,-3.2617 -1.24111,-4.7957 z m 6.19534,0.091 c -0.38014,1.535 -0.79787,3.137 -1.23854,4.7984 l 0,6.5528 1.23857,0 -3e-5,-11.3489 z m -3.71569,6.2642 0,7.5642 1.23859,0 -2e-5,-7.5642 c -0.0165,0.018 -0.046,0.02 -0.069,0.028 l -0.0283,0 c -0.0339,0 -0.0664,0.019 -0.0996,0.023 l 0.0209,0 c -0.0385,0.019 -0.0796,0.019 -0.12,0.023 -0.0478,0 -0.0969,0.019 -0.14562,0.019 l -0.0305,0 c -0.0194,5e-4 -0.0391,5e-4 -0.0585,0 l -0.007,0 -0.002,0 -0.0209,0 -0.0538,0 -0.0257,0 -0.0639,0 c -0.0403,0 -0.0796,0 -0.12,0 l -0.0205,-0.019 c -0.0517,0 -0.10163,-0.02 -0.15333,-0.031 -0.0697,0 -0.1383,-0.024 -0.20436,-0.047 l -0.0361,0 z m -2.4771,5.087 -0.001,1.2387 1.24112,0 -0.001,-1.2387 -1.236,0 z m 2.47459,3.7157 0.002,1.2386 1.23601,0 0.001,-1.2386 -1.24113,0 z m 2.4771,-2.477 10e-4,1.2385 1.23601,0 0.002,-1.2385 -1.24114,0 z"
         id="path11828" />
    </g>
  </g>
</svg>
