<?xml version="1.0" encoding="UTF-8" standalone="no"?>
<!-- Created with Inkscape (http://www.inkscape.org/) -->

<svg
   xmlns:dc="http://purl.org/dc/elements/1.1/"
   xmlns:cc="http://creativecommons.org/ns#"
   xmlns:rdf="http://www.w3.org/1999/02/22-rdf-syntax-ns#"
   xmlns:svg="http://www.w3.org/2000/svg"
   xmlns="http://www.w3.org/2000/svg"
   xmlns:sodipodi="http://sodipodi.sourceforge.net/DTD/sodipodi-0.dtd"
   xmlns:inkscape="http://www.inkscape.org/namespaces/inkscape"
   width="42.333332mm"
   height="42.333332mm"
   viewBox="0 0 149.99999 150"
   id="svg4759"
   version="1.1"
   inkscape:version="0.91 r13725"
   sodipodi:docname="Budget-Plan.svg">
  <defs
     id="defs4761">
    <filter
       inkscape:collect="always"
       style="color-interpolation-filters:sRGB"
       id="filter6955"
       x="-0.07"
       width="1.14"
       y="-0.42"
       height="1.84">
      <feGaussianBlur
         inkscape:collect="always"
         stdDeviation="3.5"
         id="feGaussianBlur6957" />
    </filter>
    <filter
       inkscape:collect="always"
       style="color-interpolation-filters:sRGB"
       id="filter7112"
       x="-0.11165312"
       width="1.2233062"
       y="-0.1296957"
       height="1.2593914">
      <feGaussianBlur
         inkscape:collect="always"
         stdDeviation="2.7661553"
         id="feGaussianBlur7114" />
    </filter>
  </defs>
  <sodipodi:namedview
     id="base"
     pagecolor="#ffffff"
     bordercolor="#666666"
     borderopacity="1.0"
     inkscape:pageopacity="0.0"
     inkscape:pageshadow="2"
     inkscape:zoom="2"
     inkscape:cx="220.38175"
     inkscape:cy="90.288192"
     inkscape:document-units="px"
     inkscape:current-layer="layer1"
     showgrid="false"
     fit-margin-top="0"
     fit-margin-left="0"
     fit-margin-right="0"
     fit-margin-bottom="0"
     inkscape:window-width="1366"
     inkscape:window-height="713"
     inkscape:window-x="0"
     inkscape:window-y="27"
     inkscape:window-maximized="1"
     showborder="false"
     showguides="true"
     inkscape:guide-bbox="true" />
  <metadata
     id="metadata4764">
    <rdf:RDF>
      <cc:Work
         rdf:about="">
        <dc:format>image/svg+xml</dc:format>
        <dc:type
           rdf:resource="http://purl.org/dc/dcmitype/StillImage" />
        <dc:title></dc:title>
      </cc:Work>
    </rdf:RDF>
  </metadata>
  <g
     inkscape:label="Layer 1"
     inkscape:groupmode="layer"
     id="layer1"
     transform="translate(-263.37482,-945.53693)">
    <g
       id="g7146">
      <rect
         ry="0"
         rx="0"
         style="opacity:1;fill:#b3b3b3;fill-opacity:1;stroke:none;stroke-width:6.79094839;stroke-linecap:round;stroke-linejoin:round;stroke-miterlimit:4;stroke-dasharray:none;stroke-dashoffset:0;stroke-opacity:1"
         id="rect5453"
         width="150"
         height="150"
         x="259.47977"
         y="941.85193" />
      <g
         transform="translate(0.39968519,-3.7052743)"
         id="g7120">
        <ellipse
           style="opacity:0.9;fill:#4d4d4d;fill-opacity:1;stroke:none;stroke-width:1;stroke-linecap:round;stroke-linejoin:round;stroke-miterlimit:4;stroke-dasharray:2, 2;stroke-dashoffset:0;stroke-opacity:1;filter:url(#filter6955)"
           id="path6909"
           cx="334.87482"
           cy="979.03693"
           rx="60"
           ry="10"
           transform="matrix(0.74956049,0,0,0.57151512,82.865888,419.50252)" />
        <g
           id="g6858"
           transform="matrix(0.61258197,0,0,0.61258197,-30.03604,375.32072)"
           style="fill:#1a1a1a">
          <path
             id="path6806"
             d="m 519.44672,976.24793 -4.062,0 c -0.634,0 -1.149,0.515 -1.149,1.149 l 0,5.667 -0.256,0.188 c -0.005,-0.25 -0.018,-0.492 -0.06,-0.708 -0.067,-0.344 -0.445,-1.046 -0.903,-0.778 -0.458,0.269 -0.35,1.155 -0.341,1.583 0.007,0.299 0,0.589 -0.015,0.875 l -0.733,0.541 0,-5.091 c 0,-0.747 -0.607,-1.354 -1.354,-1.354 l -0.842,0 -0.003,-10.335 c -0.115,-0.282 -0.994,-0.501 -2.076,-0.501 -1.082,0 -1.961,0.219 -2.077,0.501 l -0.006,10.335 -0.903,0 c -0.747,0 -1.354,0.607 -1.354,1.354 l 0,5.158 -0.712,-0.525 c -0.01,-0.253 -0.013,-0.509 -0.006,-0.771 0.012,-0.426 0.116,-1.315 -0.34,-1.583 -0.48,-0.281 -0.8,0.451 -0.903,0.778 -0.058,0.184 -0.083,0.38 -0.097,0.581 l -0.193,-0.143 0,-5.773 c 0,-0.634 -0.515,-1.149 -1.149,-1.149 l -4.062,0 c -0.634,0 -1.149,0.515 -1.149,1.149 l 0,16.645 c 0,0.634 0.515,1.149 1.149,1.149 l 4.062,0 c 0.634,0 1.149,-0.515 1.149,-1.149 l 0,-7.419 c 0.42,-0.387 0.604,-0.829 0.671,-1.46 0.014,-0.135 0.012,-0.274 0.013,-0.412 l 0.479,0.354 c 0.016,0.236 0.026,0.471 0.051,0.709 0.094,0.875 0.514,1.482 1.037,2.15 l 0,8.124 c 0,0.747 0.607,1.354 1.354,1.354 l 0.892,0 -0.02,37.15397 4.213,0 -0.013,-37.15497 0.836,0 c 0.746,0 1.354,-0.607 1.354,-1.354 l 0,-8.27 c 0.442,-0.559 0.938,-1.14 1.028,-1.873 0.038,-0.313 0.066,-0.623 0.097,-0.933 l 0.476,-0.351 c 0,0.006 0,0.011 0,0.017 0.003,0.743 0.198,1.308 0.707,1.771 l 0,7.593 c 0,0.634 0.516,1.149 1.149,1.149 l 4.062,0 c 0.634,0 1.149,-0.515 1.149,-1.149 l 0,-16.643 c -10e-4,-0.634 -0.516,-1.149 -1.15,-1.149 z m -19.373,17.794 c 0,0.087 -0.074,0.161 -0.161,0.161 l -4.062,0 c -0.087,0 -0.161,-0.074 -0.161,-0.161 l 0,-16.645 c 0,-0.087 0.074,-0.161 0.161,-0.161 l 4.062,0 c 0.087,0 0.161,0.074 0.161,0.161 l 0,16.645 z m 0.988,-8.23 0,-1.566 0.197,0.145 c 0.016,0.505 0.004,1 -0.197,1.421 z m 0.695,-2.129 c 0.063,-0.5 0.288,-1.509 0.339,-0.752 0.024,0.349 0.039,0.696 0.055,1.043 l -0.394,-0.291 z m 1.557,3.377 c -0.283,-0.502 -0.468,-1.028 -0.578,-1.579 l 0.578,0.426 0,1.153 z m 7.45,9.027 c 0,0.103 -0.087,0.189 -0.189,0.189 l -5.907,0 c -0.103,0 -0.189,-0.087 -0.189,-0.189 l 0,-16.413 c 0,-0.103 0.087,-0.189 0.189,-0.189 l 5.907,0 c 0.103,0 0.189,0.087 0.189,0.189 l 0,16.413 z m 1.164,-9.158 0,-1.087 0.582,-0.429 c -0.114,0.527 -0.301,1.032 -0.582,1.516 z m 1.206,-3.054 c 0.016,-0.306 0.038,-0.611 0.037,-0.92 -0.004,-1.058 0.326,-0.039 0.356,0.469 0.003,0.053 0.001,0.107 0.002,0.16 l -0.395,0.291 z m 1.102,1.732 c -0.173,-0.378 -0.235,-0.821 -0.246,-1.286 l 0.246,-0.182 0,1.468 z m 5.372,8.435 c 0,0.087 -0.074,0.161 -0.161,0.161 l -4.062,0 c -0.087,0 -0.161,-0.074 -0.161,-0.161 l 0,-16.645 c 0,-0.087 0.074,-0.161 0.161,-0.161 l 4.062,0 c 0.087,0 0.161,0.074 0.161,0.161 l 0,16.645 z"
             inkscape:connector-curvature="0"
             style="fill:#1a1a1a" />
          <path
             id="path6808"
             d="m 530.37872,988.57993 c -0.009,-0.01 -0.017,-0.027 -0.027,-0.029 -0.233,-0.043 -0.378,-0.189 -0.445,-0.406 -0.043,-0.136 -0.005,-0.279 0.082,-0.384 0.105,-0.128 0.244,-0.229 0.358,-0.35 0.16,-0.17 0.318,-0.342 0.464,-0.525 0.154,-0.194 0.296,-0.398 0.435,-0.604 0.066,-0.099 0.115,-0.209 0.167,-0.316 0.086,-0.177 0.172,-0.355 0.251,-0.535 0.036,-0.082 0.061,-0.168 0.086,-0.253 0.036,-0.122 0.068,-0.246 0.103,-0.369 0.089,-0.318 0.138,-0.643 0.148,-0.973 0.007,-0.19 0.032,-0.381 0.023,-0.57 -0.012,-0.255 -0.039,-0.51 -0.078,-0.763 -0.031,-0.198 -0.081,-0.395 -0.138,-0.588 -0.057,-0.191 -0.121,-0.381 -0.202,-0.563 -0.106,-0.239 -0.219,-0.479 -0.354,-0.703 -0.133,-0.221 -0.283,-0.434 -0.449,-0.631 -0.204,-0.242 -0.423,-0.474 -0.651,-0.692 -0.112,-0.108 -0.21,-0.217 -0.249,-0.367 -0.034,-0.135 0.03,-0.318 0.143,-0.433 0.095,-0.098 0.217,-0.137 0.334,-0.191 0.088,0 0.177,0 0.265,0 0.092,0.05 0.194,0.086 0.272,0.152 0.146,0.125 0.284,0.261 0.415,0.402 0.136,0.145 0.26,0.3 0.388,0.452 0.048,0.058 0.093,0.12 0.137,0.181 0.085,0.117 0.172,0.233 0.253,0.354 0.062,0.092 0.115,0.19 0.17,0.287 0.082,0.146 0.168,0.292 0.241,0.442 0.066,0.139 0.113,0.287 0.178,0.427 0.112,0.246 0.19,0.504 0.255,0.766 0.054,0.22 0.099,0.443 0.136,0.667 0.033,0.197 0.05,0.397 0.074,0.596 0,0.264 0,0.529 0,0.793 -0.016,0.104 -0.037,0.207 -0.045,0.311 -0.02,0.287 -0.065,0.569 -0.143,0.847 -0.038,0.138 -0.07,0.277 -0.108,0.415 -0.024,0.085 -0.05,0.17 -0.082,0.253 -0.059,0.151 -0.12,0.301 -0.185,0.45 -0.05,0.116 -0.101,0.232 -0.16,0.343 -0.079,0.148 -0.164,0.293 -0.253,0.436 -0.081,0.13 -0.169,0.256 -0.258,0.381 -0.071,0.1 -0.145,0.198 -0.222,0.293 -0.105,0.131 -0.21,0.264 -0.325,0.387 -0.119,0.128 -0.25,0.244 -0.375,0.367 -0.098,0.096 -0.191,0.197 -0.339,0.215 -0.009,10e-4 -0.017,0.02 -0.024,0.03 -0.089,-0.002 -0.178,-0.002 -0.266,-0.002 z"
             inkscape:connector-curvature="0"
             style="clip-rule:evenodd;fill:#1a1a1a;fill-rule:evenodd" />
          <path
             id="path6810"
             d="m 530.93772,983.34993 c -0.021,0.283 -0.023,0.504 -0.055,0.721 -0.03,0.209 -0.079,0.417 -0.14,0.62 -0.056,0.189 -0.13,0.374 -0.211,0.554 -0.064,0.143 -0.15,0.277 -0.231,0.413 -0.07,0.119 -0.141,0.237 -0.222,0.349 -0.182,0.25 -0.388,0.477 -0.617,0.686 -0.112,0.102 -0.224,0.201 -0.37,0.235 -0.091,0.021 -0.194,0.023 -0.284,0.002 -0.153,-0.036 -0.286,-0.112 -0.397,-0.235 -0.141,-0.157 -0.138,-0.434 0.013,-0.576 0.134,-0.125 0.273,-0.245 0.403,-0.374 0.093,-0.091 0.181,-0.189 0.259,-0.293 0.094,-0.124 0.18,-0.254 0.263,-0.386 0.054,-0.088 0.101,-0.182 0.143,-0.277 0.097,-0.219 0.178,-0.443 0.228,-0.679 0.077,-0.37 0.094,-0.743 0.047,-1.116 -0.026,-0.212 -0.078,-0.422 -0.142,-0.626 -0.051,-0.165 -0.128,-0.324 -0.208,-0.479 -0.069,-0.133 -0.153,-0.26 -0.241,-0.382 -0.097,-0.134 -0.198,-0.267 -0.311,-0.388 -0.103,-0.11 -0.22,-0.208 -0.337,-0.305 -0.173,-0.144 -0.26,-0.297 -0.203,-0.521 0.035,-0.142 0.142,-0.229 0.256,-0.305 0.177,-0.118 0.376,-0.127 0.57,-0.071 0.095,0.027 0.187,0.093 0.261,0.161 0.148,0.136 0.29,0.281 0.423,0.433 0.112,0.128 0.211,0.268 0.311,0.407 0.085,0.121 0.17,0.243 0.242,0.372 0.069,0.122 0.131,0.249 0.18,0.378 0.079,0.209 0.149,0.421 0.215,0.635 0.035,0.117 0.06,0.238 0.075,0.359 0.032,0.249 0.058,0.499 0.08,0.688 z"
             inkscape:connector-curvature="0"
             style="clip-rule:evenodd;fill:#1a1a1a;fill-rule:evenodd" />
          <path
             id="path6812"
             d="m 528.67572,983.44293 c -0.034,0.219 -0.054,0.451 -0.109,0.674 -0.048,0.194 -0.123,0.382 -0.22,0.562 -0.095,0.175 -0.198,0.342 -0.322,0.493 -0.09,0.11 -0.179,0.231 -0.317,0.289 -0.147,0.062 -0.301,0.056 -0.449,0.012 -0.136,-0.041 -0.24,-0.128 -0.329,-0.24 -0.102,-0.127 -0.104,-0.27 -0.058,-0.409 0.03,-0.09 0.091,-0.176 0.156,-0.246 0.132,-0.141 0.241,-0.292 0.329,-0.464 0.104,-0.203 0.148,-0.417 0.155,-0.636 0.007,-0.237 -0.018,-0.477 -0.119,-0.698 -0.091,-0.197 -0.211,-0.371 -0.363,-0.53 -0.134,-0.14 -0.227,-0.308 -0.171,-0.52 0.034,-0.128 0.129,-0.208 0.222,-0.288 0.104,-0.091 0.242,-0.12 0.37,-0.126 0.173,-0.009 0.335,0.056 0.449,0.2 0.132,0.166 0.27,0.329 0.384,0.506 0.082,0.128 0.139,0.276 0.19,0.421 0.056,0.155 0.102,0.315 0.134,0.476 0.033,0.167 0.045,0.34 0.068,0.524 z"
             inkscape:connector-curvature="0"
             style="clip-rule:evenodd;fill:#1a1a1a;fill-rule:evenodd" />
          <ellipse
             id="ellipse6814"
             ry="0.67199999"
             rx="0.70300001"
             cy="983.45294"
             cx="525.86969"
             style="clip-rule:evenodd;fill:#1a1a1a;fill-rule:evenodd" />
          <path
             id="path6816"
             d="m 485.37472,988.65793 c 0.009,-0.01 0.017,-0.027 0.027,-0.029 0.233,-0.043 0.378,-0.189 0.445,-0.406 0.043,-0.136 0.005,-0.279 -0.082,-0.384 -0.105,-0.128 -0.244,-0.229 -0.358,-0.35 -0.16,-0.17 -0.318,-0.342 -0.464,-0.525 -0.154,-0.194 -0.296,-0.398 -0.435,-0.604 -0.066,-0.099 -0.115,-0.209 -0.167,-0.316 -0.086,-0.177 -0.172,-0.355 -0.251,-0.535 -0.036,-0.082 -0.061,-0.168 -0.086,-0.253 -0.036,-0.122 -0.068,-0.246 -0.103,-0.369 -0.089,-0.318 -0.138,-0.643 -0.148,-0.973 -0.007,-0.19 -0.032,-0.381 -0.023,-0.57 0.012,-0.255 0.039,-0.51 0.078,-0.763 0.031,-0.198 0.081,-0.395 0.138,-0.588 0.057,-0.191 0.121,-0.381 0.202,-0.563 0.106,-0.239 0.219,-0.479 0.354,-0.703 0.133,-0.221 0.283,-0.434 0.449,-0.631 0.204,-0.242 0.423,-0.474 0.651,-0.692 0.112,-0.108 0.21,-0.217 0.249,-0.367 0.034,-0.135 -0.03,-0.318 -0.143,-0.433 -0.095,-0.098 -0.217,-0.137 -0.334,-0.191 -0.088,0 -0.177,0 -0.265,0 -0.092,0.05 -0.194,0.086 -0.272,0.152 -0.146,0.125 -0.284,0.261 -0.415,0.402 -0.136,0.145 -0.26,0.3 -0.388,0.452 -0.048,0.058 -0.093,0.12 -0.137,0.181 -0.085,0.117 -0.172,0.233 -0.253,0.354 -0.062,0.092 -0.115,0.19 -0.17,0.287 -0.082,0.146 -0.168,0.292 -0.241,0.442 -0.066,0.139 -0.113,0.287 -0.178,0.427 -0.112,0.246 -0.19,0.504 -0.255,0.766 -0.054,0.22 -0.099,0.443 -0.136,0.667 -0.033,0.197 -0.05,0.397 -0.074,0.596 0,0.264 0,0.529 0,0.793 0.016,0.104 0.037,0.207 0.045,0.311 0.02,0.287 0.065,0.569 0.143,0.847 0.038,0.138 0.07,0.277 0.108,0.415 0.024,0.085 0.05,0.17 0.082,0.253 0.059,0.151 0.12,0.301 0.185,0.45 0.05,0.116 0.101,0.232 0.16,0.343 0.079,0.148 0.164,0.293 0.253,0.436 0.081,0.13 0.169,0.256 0.258,0.381 0.071,0.1 0.145,0.198 0.222,0.293 0.105,0.131 0.21,0.264 0.325,0.387 0.119,0.128 0.25,0.244 0.375,0.367 0.098,0.096 0.191,0.197 0.339,0.215 0.009,0.001 0.017,0.02 0.024,0.03 0.089,-0.002 0.178,-0.002 0.266,-0.002 z"
             inkscape:connector-curvature="0"
             style="clip-rule:evenodd;fill:#1a1a1a;fill-rule:evenodd" />
          <path
             id="path6818"
             d="m 484.81572,983.42793 c 0.021,0.283 0.023,0.504 0.055,0.721 0.03,0.209 0.079,0.417 0.14,0.62 0.056,0.189 0.13,0.374 0.211,0.554 0.064,0.143 0.15,0.277 0.231,0.413 0.07,0.119 0.141,0.237 0.222,0.349 0.182,0.25 0.388,0.477 0.617,0.686 0.112,0.102 0.224,0.201 0.37,0.235 0.091,0.021 0.194,0.023 0.284,0.002 0.153,-0.036 0.286,-0.112 0.397,-0.235 0.141,-0.157 0.138,-0.434 -0.013,-0.576 -0.134,-0.125 -0.273,-0.245 -0.403,-0.374 -0.093,-0.091 -0.181,-0.189 -0.259,-0.293 -0.094,-0.124 -0.18,-0.254 -0.263,-0.386 -0.054,-0.088 -0.101,-0.182 -0.143,-0.277 -0.097,-0.219 -0.178,-0.443 -0.228,-0.679 -0.077,-0.37 -0.094,-0.743 -0.047,-1.116 0.026,-0.212 0.078,-0.422 0.142,-0.626 0.051,-0.165 0.128,-0.324 0.208,-0.479 0.069,-0.133 0.153,-0.26 0.241,-0.382 0.097,-0.134 0.198,-0.267 0.311,-0.388 0.103,-0.11 0.22,-0.208 0.337,-0.305 0.173,-0.144 0.26,-0.297 0.203,-0.521 -0.035,-0.142 -0.142,-0.229 -0.256,-0.305 -0.177,-0.118 -0.376,-0.127 -0.57,-0.071 -0.095,0.027 -0.187,0.093 -0.261,0.161 -0.148,0.136 -0.29,0.281 -0.423,0.433 -0.112,0.128 -0.211,0.268 -0.311,0.407 -0.085,0.121 -0.17,0.243 -0.242,0.372 -0.069,0.122 -0.131,0.249 -0.18,0.378 -0.079,0.209 -0.149,0.421 -0.215,0.635 -0.035,0.117 -0.06,0.238 -0.075,0.359 -0.032,0.249 -0.058,0.499 -0.08,0.688 z"
             inkscape:connector-curvature="0"
             style="clip-rule:evenodd;fill:#1a1a1a;fill-rule:evenodd" />
          <path
             id="path6820"
             d="m 487.07772,983.52093 c 0.034,0.219 0.054,0.451 0.109,0.674 0.048,0.194 0.123,0.382 0.22,0.562 0.095,0.175 0.198,0.342 0.322,0.493 0.09,0.11 0.179,0.231 0.317,0.289 0.147,0.062 0.301,0.056 0.449,0.012 0.136,-0.041 0.24,-0.128 0.329,-0.24 0.102,-0.127 0.104,-0.27 0.058,-0.409 -0.03,-0.09 -0.091,-0.176 -0.156,-0.246 -0.132,-0.141 -0.241,-0.292 -0.329,-0.464 -0.104,-0.203 -0.148,-0.417 -0.155,-0.636 -0.007,-0.237 0.018,-0.477 0.119,-0.698 0.091,-0.197 0.211,-0.371 0.363,-0.53 0.134,-0.14 0.227,-0.308 0.171,-0.52 -0.034,-0.128 -0.129,-0.208 -0.222,-0.288 -0.104,-0.091 -0.242,-0.12 -0.37,-0.126 -0.173,-0.009 -0.335,0.056 -0.449,0.2 -0.132,0.166 -0.27,0.329 -0.384,0.506 -0.082,0.128 -0.139,0.276 -0.19,0.421 -0.056,0.155 -0.102,0.315 -0.134,0.476 -0.033,0.168 -0.045,0.34 -0.068,0.524 z"
             inkscape:connector-curvature="0"
             style="clip-rule:evenodd;fill:#1a1a1a;fill-rule:evenodd" />
          <ellipse
             id="ellipse6822"
             ry="0.67199999"
             rx="0.70300001"
             cy="983.53094"
             cx="489.88373"
             style="clip-rule:evenodd;fill:#1a1a1a;fill-rule:evenodd" />
        </g>
        <g
           transform="matrix(0.61258197,0,0,0.61258197,75.96396,375.32072)"
           id="g6889"
           style="fill:#1a1a1a">
          <path
             inkscape:connector-curvature="0"
             d="m 519.44672,976.24793 -4.062,0 c -0.634,0 -1.149,0.515 -1.149,1.149 l 0,5.667 -0.256,0.188 c -0.005,-0.25 -0.018,-0.492 -0.06,-0.708 -0.067,-0.344 -0.445,-1.046 -0.903,-0.778 -0.458,0.269 -0.35,1.155 -0.341,1.583 0.007,0.299 0,0.589 -0.015,0.875 l -0.733,0.541 0,-5.091 c 0,-0.747 -0.607,-1.354 -1.354,-1.354 l -0.842,0 -0.003,-10.335 c -0.115,-0.282 -0.994,-0.501 -2.076,-0.501 -1.082,0 -1.961,0.219 -2.077,0.501 l -0.006,10.335 -0.903,0 c -0.747,0 -1.354,0.607 -1.354,1.354 l 0,5.158 -0.712,-0.525 c -0.01,-0.253 -0.013,-0.509 -0.006,-0.771 0.012,-0.426 0.116,-1.315 -0.34,-1.583 -0.48,-0.281 -0.8,0.451 -0.903,0.778 -0.058,0.184 -0.083,0.38 -0.097,0.581 l -0.193,-0.143 0,-5.773 c 0,-0.634 -0.515,-1.149 -1.149,-1.149 l -4.062,0 c -0.634,0 -1.149,0.515 -1.149,1.149 l 0,16.645 c 0,0.634 0.515,1.149 1.149,1.149 l 4.062,0 c 0.634,0 1.149,-0.515 1.149,-1.149 l 0,-7.419 c 0.42,-0.387 0.604,-0.829 0.671,-1.46 0.014,-0.135 0.012,-0.274 0.013,-0.412 l 0.479,0.354 c 0.016,0.236 0.026,0.471 0.051,0.709 0.094,0.875 0.514,1.482 1.037,2.15 l 0,8.124 c 0,0.747 0.607,1.354 1.354,1.354 l 0.892,0 -0.02,37.15397 4.213,0 -0.013,-37.15497 0.836,0 c 0.746,0 1.354,-0.607 1.354,-1.354 l 0,-8.27 c 0.442,-0.559 0.938,-1.14 1.028,-1.873 0.038,-0.313 0.066,-0.623 0.097,-0.933 l 0.476,-0.351 c 0,0.006 0,0.011 0,0.017 0.003,0.743 0.198,1.308 0.707,1.771 l 0,7.593 c 0,0.634 0.516,1.149 1.149,1.149 l 4.062,0 c 0.634,0 1.149,-0.515 1.149,-1.149 l 0,-16.643 c -10e-4,-0.634 -0.516,-1.149 -1.15,-1.149 z m -19.373,17.794 c 0,0.087 -0.074,0.161 -0.161,0.161 l -4.062,0 c -0.087,0 -0.161,-0.074 -0.161,-0.161 l 0,-16.645 c 0,-0.087 0.074,-0.161 0.161,-0.161 l 4.062,0 c 0.087,0 0.161,0.074 0.161,0.161 l 0,16.645 z m 0.988,-8.23 0,-1.566 0.197,0.145 c 0.016,0.505 0.004,1 -0.197,1.421 z m 0.695,-2.129 c 0.063,-0.5 0.288,-1.509 0.339,-0.752 0.024,0.349 0.039,0.696 0.055,1.043 l -0.394,-0.291 z m 1.557,3.377 c -0.283,-0.502 -0.468,-1.028 -0.578,-1.579 l 0.578,0.426 0,1.153 z m 7.45,9.027 c 0,0.103 -0.087,0.189 -0.189,0.189 l -5.907,0 c -0.103,0 -0.189,-0.087 -0.189,-0.189 l 0,-16.413 c 0,-0.103 0.087,-0.189 0.189,-0.189 l 5.907,0 c 0.103,0 0.189,0.087 0.189,0.189 l 0,16.413 z m 1.164,-9.158 0,-1.087 0.582,-0.429 c -0.114,0.527 -0.301,1.032 -0.582,1.516 z m 1.206,-3.054 c 0.016,-0.306 0.038,-0.611 0.037,-0.92 -0.004,-1.058 0.326,-0.039 0.356,0.469 0.003,0.053 0.001,0.107 0.002,0.16 l -0.395,0.291 z m 1.102,1.732 c -0.173,-0.378 -0.235,-0.821 -0.246,-1.286 l 0.246,-0.182 0,1.468 z m 5.372,8.435 c 0,0.087 -0.074,0.161 -0.161,0.161 l -4.062,0 c -0.087,0 -0.161,-0.074 -0.161,-0.161 l 0,-16.645 c 0,-0.087 0.074,-0.161 0.161,-0.161 l 4.062,0 c 0.087,0 0.161,0.074 0.161,0.161 l 0,16.645 z"
             id="path6891"
             style="fill:#1a1a1a" />
          <path
             style="clip-rule:evenodd;fill:#1a1a1a;fill-rule:evenodd"
             inkscape:connector-curvature="0"
             d="m 530.37872,988.57993 c -0.009,-0.01 -0.017,-0.027 -0.027,-0.029 -0.233,-0.043 -0.378,-0.189 -0.445,-0.406 -0.043,-0.136 -0.005,-0.279 0.082,-0.384 0.105,-0.128 0.244,-0.229 0.358,-0.35 0.16,-0.17 0.318,-0.342 0.464,-0.525 0.154,-0.194 0.296,-0.398 0.435,-0.604 0.066,-0.099 0.115,-0.209 0.167,-0.316 0.086,-0.177 0.172,-0.355 0.251,-0.535 0.036,-0.082 0.061,-0.168 0.086,-0.253 0.036,-0.122 0.068,-0.246 0.103,-0.369 0.089,-0.318 0.138,-0.643 0.148,-0.973 0.007,-0.19 0.032,-0.381 0.023,-0.57 -0.012,-0.255 -0.039,-0.51 -0.078,-0.763 -0.031,-0.198 -0.081,-0.395 -0.138,-0.588 -0.057,-0.191 -0.121,-0.381 -0.202,-0.563 -0.106,-0.239 -0.219,-0.479 -0.354,-0.703 -0.133,-0.221 -0.283,-0.434 -0.449,-0.631 -0.204,-0.242 -0.423,-0.474 -0.651,-0.692 -0.112,-0.108 -0.21,-0.217 -0.249,-0.367 -0.034,-0.135 0.03,-0.318 0.143,-0.433 0.095,-0.098 0.217,-0.137 0.334,-0.191 0.088,0 0.177,0 0.265,0 0.092,0.05 0.194,0.086 0.272,0.152 0.146,0.125 0.284,0.261 0.415,0.402 0.136,0.145 0.26,0.3 0.388,0.452 0.048,0.058 0.093,0.12 0.137,0.181 0.085,0.117 0.172,0.233 0.253,0.354 0.062,0.092 0.115,0.19 0.17,0.287 0.082,0.146 0.168,0.292 0.241,0.442 0.066,0.139 0.113,0.287 0.178,0.427 0.112,0.246 0.19,0.504 0.255,0.766 0.054,0.22 0.099,0.443 0.136,0.667 0.033,0.197 0.05,0.397 0.074,0.596 0,0.264 0,0.529 0,0.793 -0.016,0.104 -0.037,0.207 -0.045,0.311 -0.02,0.287 -0.065,0.569 -0.143,0.847 -0.038,0.138 -0.07,0.277 -0.108,0.415 -0.024,0.085 -0.05,0.17 -0.082,0.253 -0.059,0.151 -0.12,0.301 -0.185,0.45 -0.05,0.116 -0.101,0.232 -0.16,0.343 -0.079,0.148 -0.164,0.293 -0.253,0.436 -0.081,0.13 -0.169,0.256 -0.258,0.381 -0.071,0.1 -0.145,0.198 -0.222,0.293 -0.105,0.131 -0.21,0.264 -0.325,0.387 -0.119,0.128 -0.25,0.244 -0.375,0.367 -0.098,0.096 -0.191,0.197 -0.339,0.215 -0.009,10e-4 -0.017,0.02 -0.024,0.03 -0.089,-0.002 -0.178,-0.002 -0.266,-0.002 z"
             id="path6893" />
          <path
             style="clip-rule:evenodd;fill:#1a1a1a;fill-rule:evenodd"
             inkscape:connector-curvature="0"
             d="m 530.93772,983.34993 c -0.021,0.283 -0.023,0.504 -0.055,0.721 -0.03,0.209 -0.079,0.417 -0.14,0.62 -0.056,0.189 -0.13,0.374 -0.211,0.554 -0.064,0.143 -0.15,0.277 -0.231,0.413 -0.07,0.119 -0.141,0.237 -0.222,0.349 -0.182,0.25 -0.388,0.477 -0.617,0.686 -0.112,0.102 -0.224,0.201 -0.37,0.235 -0.091,0.021 -0.194,0.023 -0.284,0.002 -0.153,-0.036 -0.286,-0.112 -0.397,-0.235 -0.141,-0.157 -0.138,-0.434 0.013,-0.576 0.134,-0.125 0.273,-0.245 0.403,-0.374 0.093,-0.091 0.181,-0.189 0.259,-0.293 0.094,-0.124 0.18,-0.254 0.263,-0.386 0.054,-0.088 0.101,-0.182 0.143,-0.277 0.097,-0.219 0.178,-0.443 0.228,-0.679 0.077,-0.37 0.094,-0.743 0.047,-1.116 -0.026,-0.212 -0.078,-0.422 -0.142,-0.626 -0.051,-0.165 -0.128,-0.324 -0.208,-0.479 -0.069,-0.133 -0.153,-0.26 -0.241,-0.382 -0.097,-0.134 -0.198,-0.267 -0.311,-0.388 -0.103,-0.11 -0.22,-0.208 -0.337,-0.305 -0.173,-0.144 -0.26,-0.297 -0.203,-0.521 0.035,-0.142 0.142,-0.229 0.256,-0.305 0.177,-0.118 0.376,-0.127 0.57,-0.071 0.095,0.027 0.187,0.093 0.261,0.161 0.148,0.136 0.29,0.281 0.423,0.433 0.112,0.128 0.211,0.268 0.311,0.407 0.085,0.121 0.17,0.243 0.242,0.372 0.069,0.122 0.131,0.249 0.18,0.378 0.079,0.209 0.149,0.421 0.215,0.635 0.035,0.117 0.06,0.238 0.075,0.359 0.032,0.249 0.058,0.499 0.08,0.688 z"
             id="path6895" />
          <path
             style="clip-rule:evenodd;fill:#1a1a1a;fill-rule:evenodd"
             inkscape:connector-curvature="0"
             d="m 528.67572,983.44293 c -0.034,0.219 -0.054,0.451 -0.109,0.674 -0.048,0.194 -0.123,0.382 -0.22,0.562 -0.095,0.175 -0.198,0.342 -0.322,0.493 -0.09,0.11 -0.179,0.231 -0.317,0.289 -0.147,0.062 -0.301,0.056 -0.449,0.012 -0.136,-0.041 -0.24,-0.128 -0.329,-0.24 -0.102,-0.127 -0.104,-0.27 -0.058,-0.409 0.03,-0.09 0.091,-0.176 0.156,-0.246 0.132,-0.141 0.241,-0.292 0.329,-0.464 0.104,-0.203 0.148,-0.417 0.155,-0.636 0.007,-0.237 -0.018,-0.477 -0.119,-0.698 -0.091,-0.197 -0.211,-0.371 -0.363,-0.53 -0.134,-0.14 -0.227,-0.308 -0.171,-0.52 0.034,-0.128 0.129,-0.208 0.222,-0.288 0.104,-0.091 0.242,-0.12 0.37,-0.126 0.173,-0.009 0.335,0.056 0.449,0.2 0.132,0.166 0.27,0.329 0.384,0.506 0.082,0.128 0.139,0.276 0.19,0.421 0.056,0.155 0.102,0.315 0.134,0.476 0.033,0.167 0.045,0.34 0.068,0.524 z"
             id="path6897" />
          <ellipse
             style="clip-rule:evenodd;fill:#1a1a1a;fill-rule:evenodd"
             cx="525.86969"
             cy="983.45294"
             rx="0.70300001"
             ry="0.67199999"
             id="ellipse6899" />
          <path
             style="clip-rule:evenodd;fill:#1a1a1a;fill-rule:evenodd"
             inkscape:connector-curvature="0"
             d="m 485.37472,988.65793 c 0.009,-0.01 0.017,-0.027 0.027,-0.029 0.233,-0.043 0.378,-0.189 0.445,-0.406 0.043,-0.136 0.005,-0.279 -0.082,-0.384 -0.105,-0.128 -0.244,-0.229 -0.358,-0.35 -0.16,-0.17 -0.318,-0.342 -0.464,-0.525 -0.154,-0.194 -0.296,-0.398 -0.435,-0.604 -0.066,-0.099 -0.115,-0.209 -0.167,-0.316 -0.086,-0.177 -0.172,-0.355 -0.251,-0.535 -0.036,-0.082 -0.061,-0.168 -0.086,-0.253 -0.036,-0.122 -0.068,-0.246 -0.103,-0.369 -0.089,-0.318 -0.138,-0.643 -0.148,-0.973 -0.007,-0.19 -0.032,-0.381 -0.023,-0.57 0.012,-0.255 0.039,-0.51 0.078,-0.763 0.031,-0.198 0.081,-0.395 0.138,-0.588 0.057,-0.191 0.121,-0.381 0.202,-0.563 0.106,-0.239 0.219,-0.479 0.354,-0.703 0.133,-0.221 0.283,-0.434 0.449,-0.631 0.204,-0.242 0.423,-0.474 0.651,-0.692 0.112,-0.108 0.21,-0.217 0.249,-0.367 0.034,-0.135 -0.03,-0.318 -0.143,-0.433 -0.095,-0.098 -0.217,-0.137 -0.334,-0.191 -0.088,0 -0.177,0 -0.265,0 -0.092,0.05 -0.194,0.086 -0.272,0.152 -0.146,0.125 -0.284,0.261 -0.415,0.402 -0.136,0.145 -0.26,0.3 -0.388,0.452 -0.048,0.058 -0.093,0.12 -0.137,0.181 -0.085,0.117 -0.172,0.233 -0.253,0.354 -0.062,0.092 -0.115,0.19 -0.17,0.287 -0.082,0.146 -0.168,0.292 -0.241,0.442 -0.066,0.139 -0.113,0.287 -0.178,0.427 -0.112,0.246 -0.19,0.504 -0.255,0.766 -0.054,0.22 -0.099,0.443 -0.136,0.667 -0.033,0.197 -0.05,0.397 -0.074,0.596 0,0.264 0,0.529 0,0.793 0.016,0.104 0.037,0.207 0.045,0.311 0.02,0.287 0.065,0.569 0.143,0.847 0.038,0.138 0.07,0.277 0.108,0.415 0.024,0.085 0.05,0.17 0.082,0.253 0.059,0.151 0.12,0.301 0.185,0.45 0.05,0.116 0.101,0.232 0.16,0.343 0.079,0.148 0.164,0.293 0.253,0.436 0.081,0.13 0.169,0.256 0.258,0.381 0.071,0.1 0.145,0.198 0.222,0.293 0.105,0.131 0.21,0.264 0.325,0.387 0.119,0.128 0.25,0.244 0.375,0.367 0.098,0.096 0.191,0.197 0.339,0.215 0.009,0.001 0.017,0.02 0.024,0.03 0.089,-0.002 0.178,-0.002 0.266,-0.002 z"
             id="path6901" />
          <path
             style="clip-rule:evenodd;fill:#1a1a1a;fill-rule:evenodd"
             inkscape:connector-curvature="0"
             d="m 484.81572,983.42793 c 0.021,0.283 0.023,0.504 0.055,0.721 0.03,0.209 0.079,0.417 0.14,0.62 0.056,0.189 0.13,0.374 0.211,0.554 0.064,0.143 0.15,0.277 0.231,0.413 0.07,0.119 0.141,0.237 0.222,0.349 0.182,0.25 0.388,0.477 0.617,0.686 0.112,0.102 0.224,0.201 0.37,0.235 0.091,0.021 0.194,0.023 0.284,0.002 0.153,-0.036 0.286,-0.112 0.397,-0.235 0.141,-0.157 0.138,-0.434 -0.013,-0.576 -0.134,-0.125 -0.273,-0.245 -0.403,-0.374 -0.093,-0.091 -0.181,-0.189 -0.259,-0.293 -0.094,-0.124 -0.18,-0.254 -0.263,-0.386 -0.054,-0.088 -0.101,-0.182 -0.143,-0.277 -0.097,-0.219 -0.178,-0.443 -0.228,-0.679 -0.077,-0.37 -0.094,-0.743 -0.047,-1.116 0.026,-0.212 0.078,-0.422 0.142,-0.626 0.051,-0.165 0.128,-0.324 0.208,-0.479 0.069,-0.133 0.153,-0.26 0.241,-0.382 0.097,-0.134 0.198,-0.267 0.311,-0.388 0.103,-0.11 0.22,-0.208 0.337,-0.305 0.173,-0.144 0.26,-0.297 0.203,-0.521 -0.035,-0.142 -0.142,-0.229 -0.256,-0.305 -0.177,-0.118 -0.376,-0.127 -0.57,-0.071 -0.095,0.027 -0.187,0.093 -0.261,0.161 -0.148,0.136 -0.29,0.281 -0.423,0.433 -0.112,0.128 -0.211,0.268 -0.311,0.407 -0.085,0.121 -0.17,0.243 -0.242,0.372 -0.069,0.122 -0.131,0.249 -0.18,0.378 -0.079,0.209 -0.149,0.421 -0.215,0.635 -0.035,0.117 -0.06,0.238 -0.075,0.359 -0.032,0.249 -0.058,0.499 -0.08,0.688 z"
             id="path6903" />
          <path
             style="clip-rule:evenodd;fill:#1a1a1a;fill-rule:evenodd"
             inkscape:connector-curvature="0"
             d="m 487.07772,983.52093 c 0.034,0.219 0.054,0.451 0.109,0.674 0.048,0.194 0.123,0.382 0.22,0.562 0.095,0.175 0.198,0.342 0.322,0.493 0.09,0.11 0.179,0.231 0.317,0.289 0.147,0.062 0.301,0.056 0.449,0.012 0.136,-0.041 0.24,-0.128 0.329,-0.24 0.102,-0.127 0.104,-0.27 0.058,-0.409 -0.03,-0.09 -0.091,-0.176 -0.156,-0.246 -0.132,-0.141 -0.241,-0.292 -0.329,-0.464 -0.104,-0.203 -0.148,-0.417 -0.155,-0.636 -0.007,-0.237 0.018,-0.477 0.119,-0.698 0.091,-0.197 0.211,-0.371 0.363,-0.53 0.134,-0.14 0.227,-0.308 0.171,-0.52 -0.034,-0.128 -0.129,-0.208 -0.222,-0.288 -0.104,-0.091 -0.242,-0.12 -0.37,-0.126 -0.173,-0.009 -0.335,0.056 -0.449,0.2 -0.132,0.166 -0.27,0.329 -0.384,0.506 -0.082,0.128 -0.139,0.276 -0.19,0.421 -0.056,0.155 -0.102,0.315 -0.134,0.476 -0.033,0.168 -0.045,0.34 -0.068,0.524 z"
             id="path6905" />
          <ellipse
             style="clip-rule:evenodd;fill:#1a1a1a;fill-rule:evenodd"
             cx="489.88373"
             cy="983.53094"
             rx="0.70300001"
             ry="0.67199999"
             id="ellipse6907" />
        </g>
        <g
           id="g7116">
          <path
             inkscape:connector-curvature="0"
             style="fill:#ffffff;fill-opacity:1;stroke:none;filter:url(#filter7112)"
             d="m 348.59709,1015.3044 0.95901,0 c 1.61047,0 2.87704,1.2667 2.87704,2.877 l 0,3.8361 0,29.0064 c -0.81832,-0.6495 -1.75589,-1.195 -2.87704,-1.195 l -0.95901,0 z m -39.31961,7.6721 3.83606,0 33.56552,0 0,28.7705 2.87704,0 c 1.61047,0 2.87704,1.2666 2.87704,2.877 0,1.6106 -1.26657,2.877 -2.87704,2.877 l -3.83606,0 -35.92933,0 -0.51323,0 c -1.0827,0 -2.07264,0.3756 -2.87704,0.9853 l 0,-32.6327 c 0,-1.6104 1.26659,-2.8771 2.87704,-2.8771 z m 48.90975,1.918 7.67212,0 0,32.6065 -7.67212,0 0,-1.918 3.83606,0 0,-1.918 -3.83606,0 0,-1.918 1.91803,0 0,-1.9181 -1.91803,0 0,-1.918 3.83606,0 0,-1.918 -3.83606,0 0,-1.9181 1.91803,0 0,-1.918 -1.91803,0 0,-1.918 3.83606,0 0,-1.918 -3.83606,0 0,-1.9181 1.91803,0 0,-1.918 -1.91803,0 0,-1.918 3.83606,0 0,-1.9181 -3.83606,0 0,-1.918 1.91803,0 0,-1.918 -1.91803,0 z m -45.07369,1.9181 c -0.52962,2e-4 -0.95895,0.4294 -0.95901,0.959 l 0,24.9344 c 6e-5,0.5297 0.42939,0.959 0.95901,0.959 l 28.77044,0 c 0.52963,0 0.95896,-0.4293 0.95902,-0.959 l 0,-24.9344 c -6e-5,-0.5296 -0.42939,-0.9588 -0.95902,-0.959 l -20.13931,0 0,1.918 3.83606,0 0,5.7541 1.91803,0 0,-5.7541 13.42621,0 0,11.5082 -5.75409,0 0,-7.6721 -1.91803,0 0,7.6721 -3.83606,0 0,1.918 11.50818,0 0,9.5902 -1.91803,0 0,-6.7131 c -6e-5,-0.5296 -0.42939,-0.9589 -0.95902,-0.9591 l -7.67211,0 c -0.52963,2e-4 -0.95896,0.4295 -0.95902,0.9591 l 0,6.7131 -1.91803,0 0,-13.3326 -1.91803,0 0,13.3326 -11.50817,0 0,-7.6722 7.67211,0 0,-1.918 -7.67211,0 0,-13.4262 3.83606,0 0,-1.918 z m 18.22128,19.1803 5.75409,0 0,5.7541 -5.75409,0 z m -22.05734,13.4262 0.51323,0 0.44579,0 0,5.7541 -0.95902,0 c -1.61045,0 -2.87704,-1.2665 -2.87704,-2.8771 0,-1.6104 1.26659,-2.877 2.87704,-2.877 z m 16.39691,3.1655 0.004,1.8881 0.004,1.9479 -2.50243,-1.8881 2.49493,-1.9479 z m 17.25477,0 0.004,1.1725 -15.34047,-0.042 -0.004,-1.105 15.34048,-0.027 z m 1.46474,0.086 1.00023,0 c 0.7994,0 1.38031,0.5635 1.38232,1.1876 l 0.004,1.4347 c 0.002,0.6332 -0.5495,1.1952 -1.37108,1.1988 l -0.99274,0 -0.0224,-3.8211 z m -16.794,2.5811 15.34424,0.038 0.004,1.1051 0,0.056 -15.34423,0 -0.004,-1.1987 z"
             id="path7066"
             sodipodi:nodetypes="cssccsccscccsssccscssccccccccccccccccccccccccccccccccccccccccsscccccccccccccccccccccccccccccccccccccccccccscccsssccccccccccccccccccccccccccc" />
          <path
             sodipodi:nodetypes="cssccsccscccsssccscssccccccccccccccccccccccccccccccccccccccccsscccccccccccccccccccccccccccccccccccccccccccscccsssccccccccccccccccccccccccccc"
             id="path7039"
             d="m 348.59709,1015.3044 0.95901,0 c 1.61047,0 2.87704,1.2667 2.87704,2.877 l 0,3.8361 0,29.0064 c -0.81832,-0.6495 -1.75589,-1.195 -2.87704,-1.195 l -0.95901,0 z m -39.31961,7.6721 3.83606,0 33.56552,0 0,28.7705 2.87704,0 c 1.61047,0 2.87704,1.2666 2.87704,2.877 0,1.6106 -1.26657,2.877 -2.87704,2.877 l -3.83606,0 -35.92933,0 -0.51323,0 c -1.0827,0 -2.07264,0.3756 -2.87704,0.9853 l 0,-32.6327 c 0,-1.6104 1.26659,-2.8771 2.87704,-2.8771 z m 48.90975,1.918 7.67212,0 0,32.6065 -7.67212,0 0,-1.918 3.83606,0 0,-1.918 -3.83606,0 0,-1.918 1.91803,0 0,-1.9181 -1.91803,0 0,-1.918 3.83606,0 0,-1.918 -3.83606,0 0,-1.9181 1.91803,0 0,-1.918 -1.91803,0 0,-1.918 3.83606,0 0,-1.918 -3.83606,0 0,-1.9181 1.91803,0 0,-1.918 -1.91803,0 0,-1.918 3.83606,0 0,-1.9181 -3.83606,0 0,-1.918 1.91803,0 0,-1.918 -1.91803,0 z m -45.07369,1.9181 c -0.52962,2e-4 -0.95895,0.4294 -0.95901,0.959 l 0,24.9344 c 6e-5,0.5297 0.42939,0.959 0.95901,0.959 l 28.77044,0 c 0.52963,0 0.95896,-0.4293 0.95902,-0.959 l 0,-24.9344 c -6e-5,-0.5296 -0.42939,-0.9588 -0.95902,-0.959 l -20.13931,0 0,1.918 3.83606,0 0,5.7541 1.91803,0 0,-5.7541 13.42621,0 0,11.5082 -5.75409,0 0,-7.6721 -1.91803,0 0,7.6721 -3.83606,0 0,1.918 11.50818,0 0,9.5902 -1.91803,0 0,-6.7131 c -6e-5,-0.5296 -0.42939,-0.9589 -0.95902,-0.9591 l -7.67211,0 c -0.52963,2e-4 -0.95896,0.4295 -0.95902,0.9591 l 0,6.7131 -1.91803,0 0,-13.3326 -1.91803,0 0,13.3326 -11.50817,0 0,-7.6722 7.67211,0 0,-1.918 -7.67211,0 0,-13.4262 3.83606,0 0,-1.918 z m 18.22128,19.1803 5.75409,0 0,5.7541 -5.75409,0 z m -22.05734,13.4262 0.51323,0 0.44579,0 0,5.7541 -0.95902,0 c -1.61045,0 -2.87704,-1.2665 -2.87704,-2.8771 0,-1.6104 1.26659,-2.877 2.87704,-2.877 z m 16.39691,3.1655 0.004,1.8881 0.004,1.9479 -2.50243,-1.8881 2.49493,-1.9479 z m 17.25477,0 0.004,1.1725 -15.34047,-0.042 -0.004,-1.105 15.34048,-0.027 z m 1.46474,0.086 1.00023,0 c 0.7994,0 1.38031,0.5635 1.38232,1.1876 l 0.004,1.4347 c 0.002,0.6332 -0.5495,1.1952 -1.37108,1.1988 l -0.99274,0 -0.0224,-3.8211 z m -16.794,2.5811 15.34424,0.038 0.004,1.1051 0,0.056 -15.34423,0 -0.004,-1.1987 z"
             style="fill:#333333;fill-opacity:1;stroke:none"
             inkscape:connector-curvature="0" />
        </g>
      </g>
    </g>
  </g>
</svg>
