<?xml version="1.0" encoding="UTF-8" standalone="no"?>
<!-- Created with Inkscape (http://www.inkscape.org/) -->

<svg
   xmlns:dc="http://purl.org/dc/elements/1.1/"
   xmlns:cc="http://creativecommons.org/ns#"
   xmlns:rdf="http://www.w3.org/1999/02/22-rdf-syntax-ns#"
   xmlns:svg="http://www.w3.org/2000/svg"
   xmlns="http://www.w3.org/2000/svg"
   xmlns:sodipodi="http://sodipodi.sourceforge.net/DTD/sodipodi-0.dtd"
   xmlns:inkscape="http://www.inkscape.org/namespaces/inkscape"
   width="42.333332mm"
   height="42.333332mm"
   viewBox="0 0 149.99999 150"
   id="svg4759"
   version="1.1"
   inkscape:version="0.91 r13725"
   sodipodi:docname="Commons-Data.svg">
  <defs
     id="defs4761">
    <filter
       inkscape:collect="always"
       style="color-interpolation-filters:sRGB"
       id="filter4720"
       x="-0.057804301"
       width="1.1156086"
       y="-0.062369093"
       height="1.1247382">
      <feGaussianBlur
         inkscape:collect="always"
         stdDeviation="2.4041531"
         id="feGaussianBlur4722" />
    </filter>
  </defs>
  <sodipodi:namedview
     id="base"
     pagecolor="#ffffff"
     bordercolor="#666666"
     borderopacity="1.0"
     inkscape:pageopacity="0.0"
     inkscape:pageshadow="2"
     inkscape:zoom="2"
     inkscape:cx="68.373904"
     inkscape:cy="47.018082"
     inkscape:document-units="px"
     inkscape:current-layer="layer1"
     showgrid="false"
     fit-margin-top="0"
     fit-margin-left="0"
     fit-margin-right="0"
     fit-margin-bottom="0"
     inkscape:window-width="1366"
     inkscape:window-height="713"
     inkscape:window-x="0"
     inkscape:window-y="27"
     inkscape:window-maximized="1"
     showborder="false"
     showguides="true"
     inkscape:guide-bbox="true" />
  <metadata
     id="metadata4764">
    <rdf:RDF>
      <cc:Work
         rdf:about="">
        <dc:format>image/svg+xml</dc:format>
        <dc:type
           rdf:resource="http://purl.org/dc/dcmitype/StillImage" />
        <dc:title></dc:title>
      </cc:Work>
    </rdf:RDF>
  </metadata>
  <g
     inkscape:label="Layer 1"
     inkscape:groupmode="layer"
     id="layer1"
     transform="translate(-263.37482,-945.53693)">
    <g
       id="g4786"
       inkscape:export-xdpi="90"
       inkscape:export-ydpi="90"
       transform="matrix(1.25,0,0,1.25,-65.843704,-273.88423)">
      <rect
         ry="0"
         rx="0"
         style="opacity:1;fill:#333333;fill-opacity:1;stroke:none;stroke-width:6.79094839;stroke-linecap:round;stroke-linejoin:round;stroke-miterlimit:4;stroke-dasharray:none;stroke-dashoffset:0;stroke-opacity:1"
         id="rect5453"
         width="120"
         height="120"
         x="263.37482"
         y="975.53693" />
      <g
         id="g4774">
        <g
           style="fill:#ffffff;filter:url(#filter4720)"
           transform="matrix(0.7183977,0,0,0.7183977,293.91995,1000.2087)"
           id="g3910">
          <path
             style="fill:#ffffff"
             inkscape:connector-curvature="0"
             d="m 79.312,46.303 c -1.586,0 -2.872,1.286 -2.872,2.873 l 0,20.498 -32.475,18.008 0,-40.649 14.626,-8.11 c 1.387,-0.769 1.888,-2.518 1.119,-3.906 -0.771,-1.387 -2.518,-1.888 -3.904,-1.119 L 41.092,42.057 9.127,24.332 41.093,8.979 55.437,15.858 c 1.431,0.687 3.146,0.082 3.832,-1.348 0.688,-1.431 0.083,-3.146 -1.347,-3.833 L 42.335,3.202 C 41.549,2.825 40.634,2.826 39.849,3.203 L 1.629,21.559 c -0.006,0.002 -0.011,0.006 -0.017,0.01 -0.112,0.054 -0.219,0.116 -0.324,0.185 -0.015,0.01 -0.03,0.021 -0.045,0.032 -0.088,0.061 -0.174,0.127 -0.255,0.199 -0.017,0.014 -0.035,0.029 -0.051,0.044 -0.09,0.083 -0.176,0.169 -0.256,0.264 -0.006,0.008 -0.012,0.017 -0.019,0.024 -0.068,0.083 -0.132,0.17 -0.191,0.262 -0.019,0.03 -0.038,0.06 -0.056,0.09 -0.018,0.028 -0.037,0.056 -0.054,0.086 -0.03,0.053 -0.054,0.108 -0.08,0.162 -0.012,0.025 -0.025,0.048 -0.035,0.073 -0.049,0.111 -0.091,0.224 -0.125,0.338 -0.006,0.02 -0.01,0.04 -0.016,0.06 C 0.077,23.49 0.055,23.592 0.038,23.696 0.034,23.721 0.03,23.746 0.027,23.771 0.01,23.895 0.001,24.019 0.001,24.143 0.001,24.144 0,24.146 0,24.148 l 0,47.218 c 0,1.044 0.566,2.006 1.48,2.512 l 38.219,21.194 c 0.001,0 0.003,0 0.004,0 0.1,0.059 0.206,0.107 0.314,0.15 0.018,0.008 0.036,0.013 0.054,0.021 0.086,0.032 0.174,0.062 0.265,0.085 0.028,0.009 0.057,0.016 0.085,0.023 0.083,0.02 0.167,0.036 0.252,0.047 0.028,0.005 0.056,0.011 0.085,0.015 0.109,0.011 0.221,0.02 0.334,0.02 0.113,0 0.224,-0.009 0.333,-0.02 0.029,-0.004 0.057,-0.01 0.085,-0.015 0.085,-0.011 0.17,-0.027 0.252,-0.047 0.028,-0.008 0.057,-0.015 0.085,-0.023 0.09,-0.023 0.179,-0.053 0.265,-0.085 0.018,-0.008 0.036,-0.013 0.054,-0.021 0.109,-0.043 0.213,-0.092 0.315,-0.15 10e-4,0 0.003,0 0.003,0 L 80.703,73.878 c 0.913,-0.506 1.48,-1.468 1.48,-2.512 l 0,-22.19 C 82.186,47.589 80.9,46.303 79.312,46.303 Z M 38.22,87.682 5.745,69.674 l 0,-40.648 32.475,18.007 0,40.649 z"
             id="path3912" />
          <path
             style="fill:#ffffff"
             inkscape:connector-curvature="0"
             d="m 79.312,3.642 c -11.308,0 -20.506,9.199 -20.506,20.506 0,11.307 9.198,20.506 20.506,20.506 11.307,0 20.507,-9.199 20.507,-20.506 0,-11.307 -9.2,-20.506 -20.507,-20.506 z m 0,35.267 c -8.139,0 -14.76,-6.622 -14.76,-14.76 0,-8.139 6.621,-14.761 14.76,-14.761 8.138,0 14.761,6.622 14.761,14.761 0,8.138 -6.623,14.76 -14.761,14.76 z"
             id="path3914" />
          <path
             style="fill:#ffffff"
             inkscape:connector-curvature="0"
             d="m 77.006,26.089 c -0.385,0.497 -1.249,1.332 -2.72,1.332 -1.855,0 -3.255,-1.407 -3.255,-3.273 0,-1.835 1.387,-3.272 3.159,-3.272 0.859,0 1.684,0.35 2.318,0.986 l 0.418,0.417 2.192,-2.316 -0.409,-0.395 c -1.176,-1.138 -2.774,-1.765 -4.503,-1.765 -3.699,0 -6.489,2.728 -6.489,6.345 0,3.617 2.803,6.345 6.521,6.345 2.102,0 3.984,-0.862 5.163,-2.368 l 0.335,-0.424 -2.354,-2.1 -0.376,0.488 z"
             id="path3916" />
          <path
             style="fill:#ffffff"
             inkscape:connector-curvature="0"
             d="m 79.099,24.148 c 0,3.617 2.804,6.345 6.521,6.345 2.102,0 3.982,-0.862 5.165,-2.368 l 0.333,-0.424 -2.353,-2.1 -0.378,0.487 c -0.386,0.497 -1.25,1.332 -2.721,1.332 -1.855,0 -3.255,-1.407 -3.255,-3.273 0,-1.835 1.387,-3.272 3.159,-3.272 0.859,0 1.684,0.35 2.32,0.986 l 0.416,0.417 2.19,-2.316 -0.407,-0.395 c -1.175,-1.138 -2.774,-1.765 -4.503,-1.765 -3.698,0.001 -6.487,2.729 -6.487,6.346 z"
             id="path3918" />
        </g>
        <g
           id="g3904"
           transform="matrix(0.7183977,0,0,0.7183977,293.91995,1000.2087)"
           style="fill:#cccccc">
          <path
             id="path3890"
             d="m 79.312,46.303 c -1.586,0 -2.872,1.286 -2.872,2.873 l 0,20.498 -32.475,18.008 0,-40.649 14.626,-8.11 c 1.387,-0.769 1.888,-2.518 1.119,-3.906 -0.771,-1.387 -2.518,-1.888 -3.904,-1.119 L 41.092,42.057 9.127,24.332 41.093,8.979 55.437,15.858 c 1.431,0.687 3.146,0.082 3.832,-1.348 0.688,-1.431 0.083,-3.146 -1.347,-3.833 L 42.335,3.202 C 41.549,2.825 40.634,2.826 39.849,3.203 L 1.629,21.559 c -0.006,0.002 -0.011,0.006 -0.017,0.01 -0.112,0.054 -0.219,0.116 -0.324,0.185 -0.015,0.01 -0.03,0.021 -0.045,0.032 -0.088,0.061 -0.174,0.127 -0.255,0.199 -0.017,0.014 -0.035,0.029 -0.051,0.044 -0.09,0.083 -0.176,0.169 -0.256,0.264 -0.006,0.008 -0.012,0.017 -0.019,0.024 -0.068,0.083 -0.132,0.17 -0.191,0.262 -0.019,0.03 -0.038,0.06 -0.056,0.09 -0.018,0.028 -0.037,0.056 -0.054,0.086 -0.03,0.053 -0.054,0.108 -0.08,0.162 -0.012,0.025 -0.025,0.048 -0.035,0.073 -0.049,0.111 -0.091,0.224 -0.125,0.338 -0.006,0.02 -0.01,0.04 -0.016,0.06 C 0.077,23.49 0.055,23.592 0.038,23.696 0.034,23.721 0.03,23.746 0.027,23.771 0.01,23.895 0.001,24.019 0.001,24.143 0.001,24.144 0,24.146 0,24.148 l 0,47.218 c 0,1.044 0.566,2.006 1.48,2.512 l 38.219,21.194 c 0.001,0 0.003,0 0.004,0 0.1,0.059 0.206,0.107 0.314,0.15 0.018,0.008 0.036,0.013 0.054,0.021 0.086,0.032 0.174,0.062 0.265,0.085 0.028,0.009 0.057,0.016 0.085,0.023 0.083,0.02 0.167,0.036 0.252,0.047 0.028,0.005 0.056,0.011 0.085,0.015 0.109,0.011 0.221,0.02 0.334,0.02 0.113,0 0.224,-0.009 0.333,-0.02 0.029,-0.004 0.057,-0.01 0.085,-0.015 0.085,-0.011 0.17,-0.027 0.252,-0.047 0.028,-0.008 0.057,-0.015 0.085,-0.023 0.09,-0.023 0.179,-0.053 0.265,-0.085 0.018,-0.008 0.036,-0.013 0.054,-0.021 0.109,-0.043 0.213,-0.092 0.315,-0.15 10e-4,0 0.003,0 0.003,0 L 80.703,73.878 c 0.913,-0.506 1.48,-1.468 1.48,-2.512 l 0,-22.19 C 82.186,47.589 80.9,46.303 79.312,46.303 Z M 38.22,87.682 5.745,69.674 l 0,-40.648 32.475,18.007 0,40.649 z"
             inkscape:connector-curvature="0"
             style="fill:#cccccc" />
          <path
             id="path3892"
             d="m 79.312,3.642 c -11.308,0 -20.506,9.199 -20.506,20.506 0,11.307 9.198,20.506 20.506,20.506 11.307,0 20.507,-9.199 20.507,-20.506 0,-11.307 -9.2,-20.506 -20.507,-20.506 z m 0,35.267 c -8.139,0 -14.76,-6.622 -14.76,-14.76 0,-8.139 6.621,-14.761 14.76,-14.761 8.138,0 14.761,6.622 14.761,14.761 0,8.138 -6.623,14.76 -14.761,14.76 z"
             inkscape:connector-curvature="0"
             style="fill:#cccccc" />
          <path
             id="path3894"
             d="m 77.006,26.089 c -0.385,0.497 -1.249,1.332 -2.72,1.332 -1.855,0 -3.255,-1.407 -3.255,-3.273 0,-1.835 1.387,-3.272 3.159,-3.272 0.859,0 1.684,0.35 2.318,0.986 l 0.418,0.417 2.192,-2.316 -0.409,-0.395 c -1.176,-1.138 -2.774,-1.765 -4.503,-1.765 -3.699,0 -6.489,2.728 -6.489,6.345 0,3.617 2.803,6.345 6.521,6.345 2.102,0 3.984,-0.862 5.163,-2.368 l 0.335,-0.424 -2.354,-2.1 -0.376,0.488 z"
             inkscape:connector-curvature="0"
             style="fill:#cccccc" />
          <path
             id="path3896"
             d="m 79.099,24.148 c 0,3.617 2.804,6.345 6.521,6.345 2.102,0 3.982,-0.862 5.165,-2.368 l 0.333,-0.424 -2.353,-2.1 -0.378,0.487 c -0.386,0.497 -1.25,1.332 -2.721,1.332 -1.855,0 -3.255,-1.407 -3.255,-3.273 0,-1.835 1.387,-3.272 3.159,-3.272 0.859,0 1.684,0.35 2.32,0.986 l 0.416,0.417 2.19,-2.316 -0.407,-0.395 c -1.175,-1.138 -2.774,-1.765 -4.503,-1.765 -3.698,0.001 -6.487,2.729 -6.487,6.346 z"
             inkscape:connector-curvature="0"
             style="fill:#cccccc" />
        </g>
      </g>
    </g>
  </g>
</svg>
