<?xml version="1.0" encoding="UTF-8" standalone="no"?>
<!-- Created with Inkscape (http://www.inkscape.org/) -->

<svg
   xmlns:dc="http://purl.org/dc/elements/1.1/"
   xmlns:cc="http://creativecommons.org/ns#"
   xmlns:rdf="http://www.w3.org/1999/02/22-rdf-syntax-ns#"
   xmlns:svg="http://www.w3.org/2000/svg"
   xmlns="http://www.w3.org/2000/svg"
   xmlns:sodipodi="http://sodipodi.sourceforge.net/DTD/sodipodi-0.dtd"
   xmlns:inkscape="http://www.inkscape.org/namespaces/inkscape"
   width="210mm"
   height="297mm"
   viewBox="0 0 744.09448819 1052.3622047"
   id="svg2"
   version="1.1"
   inkscape:version="0.91 r13725"
   sodipodi:docname="comm-systems-transportation.svg">
  <defs
     id="defs4" />
  <sodipodi:namedview
     id="base"
     pagecolor="#ffffff"
     bordercolor="#666666"
     borderopacity="1.0"
     inkscape:pageopacity="0.0"
     inkscape:pageshadow="2"
     inkscape:zoom="2"
     inkscape:cx="425.65485"
     inkscape:cy="803.98625"
     inkscape:document-units="px"
     inkscape:current-layer="layer1"
     showgrid="false"
     inkscape:window-width="1366"
     inkscape:window-height="713"
     inkscape:window-x="0"
     inkscape:window-y="27"
     inkscape:window-maximized="1" />
  <metadata
     id="metadata7">
    <rdf:RDF>
      <cc:Work
         rdf:about="">
        <dc:format>image/svg+xml</dc:format>
        <dc:type
           rdf:resource="http://purl.org/dc/dcmitype/StillImage" />
        <dc:title></dc:title>
      </cc:Work>
    </rdf:RDF>
  </metadata>
  <g
     inkscape:label="Layer 1"
     inkscape:groupmode="layer"
     id="layer1">
    <g
       id="g5005"
       transform="translate(191.38,187.63135)">
      <path
         style="fill:#000000"
         inkscape:connector-curvature="0"
         d="m 56.321,20.551 c 0.005,0.021 0.013,0.039 0.018,0.06 0.097,0.278 0.883,0.152 0.938,-0.115 0.042,-0.188 0.064,-0.379 0.097,-0.57 0.028,-0.055 0.083,-0.082 0.11,-0.151 0.02,-0.037 0.015,-0.069 -0.014,-0.099 -0.014,-0.016 -0.032,-0.03 -0.045,-0.045 0.013,-0.104 0.036,-0.207 0.05,-0.311 0.019,-0.131 -0.308,-0.138 -0.368,-0.138 -0.133,0 -0.262,0 -0.396,0 -0.137,0 -0.569,0.044 -0.569,0.253 0,0.329 0,0.658 0,0.984 -0.001,0.084 0.077,0.119 0.179,0.132 z"
         id="path5007" />
      <path
         style="fill:#000000"
         inkscape:connector-curvature="0"
         d="m 52.054,19.97 c 0,0.018 0.005,0.052 0.01,0.071 0.037,0.29 0.12,0.54 0.248,0.756 -0.005,0.013 0.005,0.03 0,0.043 0.014,0 0.023,0 0.037,0 0.073,0.096 0.097,0.22 0.239,0.273 0.078,0.03 0.321,0.081 0.478,0.042 0.147,0.011 0.276,-0.002 0.271,-0.074 -0.01,-0.317 -0.041,-0.588 -0.124,-0.811 -0.009,-0.18 0.051,-0.361 0,-0.518 -0.068,-0.198 -0.727,-0.462 -0.873,-0.257 0.101,0.055 0.092,0.073 -0.028,0.052 -0.05,0 -0.271,-0.009 -0.271,0.09 0,0.113 0.005,0.166 0.008,0.235 0,0.004 -0.008,0.004 -0.008,0.012 0.006,0.029 0.009,0.056 0.013,0.086 z"
         id="path5009" />
      <path
         style="fill:#000000"
         inkscape:connector-curvature="0"
         d="m 50.713,40.754 c 1.485,0.154 2.437,-0.569 2.997,-1.941 1.255,0.177 2.528,-0.069 3.517,-0.968 0.248,-0.23 -0.647,-0.232 -0.837,-0.064 -1.559,1.42 -3.773,0.414 -5.023,-0.676 -0.17,-0.147 -0.906,-0.108 -0.906,0.193 0,1.11 0,2.22 0,3.332 -10e-4,0.099 0.192,0.117 0.252,0.124 z m 0.675,-2.831 c 0.543,0.329 1.112,0.567 1.729,0.722 -0.139,0.035 -0.262,0.084 -0.295,0.168 -0.004,0.005 -1.434,2.3 -1.434,0.903 0,-0.598 0,-1.196 0,-1.793 z"
         id="path5011" />
      <path
         style="fill:#000000"
         inkscape:connector-curvature="0"
         d="m 56.307,27.496 c -0.005,-0.002 -0.01,-0.002 -0.015,-0.004 -0.005,0.007 -0.005,0.011 -0.009,0.019 -0.033,0.029 -0.078,0.027 -0.115,0.071 -0.046,0.058 0.027,0.065 0.046,0.099 -0.019,0.048 -0.042,0.096 -0.06,0.147 -0.105,0.248 0.805,0.223 0.91,-0.032 0.046,-0.11 0.097,-0.223 0.143,-0.333 0.102,-0.249 -0.52,-0.168 -0.607,-0.147 -0.132,0.031 -0.206,0.109 -0.293,0.18 z m 0.588,0.14 c 0,0 0.005,0 0.005,0.002 -0.005,0 -0.005,-0.002 -0.01,-0.002 0.005,0 0.005,0 0.005,0 z"
         id="path5013" />
      <path
         style="fill:#000000"
         inkscape:connector-curvature="0"
         d="m 71.502,55.579 -0.022,-0.446 -12.876,0 -0.083,0.37 c -0.188,0.859 -0.39,1.662 -0.601,2.416 -1.247,-0.446 -2.487,-0.895 -3.729,-1.339 -0.763,-0.274 -1.525,-0.548 -2.289,-0.821 -0.184,-0.066 -0.367,-0.131 -0.551,-0.2 -0.083,-1.42 -0.17,-2.845 -0.253,-4.268 -0.105,-1.696 -0.207,-3.395 -0.308,-5.091 -0.023,-0.355 1.695,-0.9 2.348,-1.181 2.975,-1.283 5.948,-2.563 8.922,-3.845 0.063,-0.027 0.102,-0.043 0.097,-0.119 -0.438,-4.247 -0.874,-8.497 -1.305,-12.743 l 4.834,-2.34 -5.253,-1.802 c -0.345,-3.325 -0.685,-6.655 -1.025,-9.98 -0.027,-0.234 -0.538,-0.356 -0.712,-0.347 -5.194,0.253 -10.383,0.508 -15.577,0.761 0.005,-0.006 0.019,-0.005 0.023,-0.011 0.06,-0.164 0.055,-0.349 0.083,-0.524 0.234,0.071 0.483,0.085 0.505,-0.064 0.051,-0.335 0.027,-0.673 0.056,-1.006 0.211,0.105 0.515,0.151 0.647,0.087 0.235,0.062 0.474,0.068 0.474,-0.065 0,-0.021 0,-0.041 0,-0.062 0.027,0.094 0.046,0.188 0.073,0.28 0.056,0.195 0.772,0.377 0.869,0.204 0.257,0.099 0.593,0.134 0.625,-0.027 0.129,-0.609 0.124,-1.191 0.124,-1.774 0.188,0.354 0.335,0.724 0.575,1.064 0.087,0.122 0.873,0.382 0.873,0.122 0,-0.267 -0.042,-0.524 -0.045,-0.789 0.124,0.221 0.202,0.453 0.349,0.667 0.092,0.131 0.836,0.39 0.873,0.122 0.047,-0.294 -0.023,-0.583 0,-0.873 0.203,0.429 0.4,0.862 0.662,1.285 0.097,0.154 0.841,0.483 0.906,0.177 0.101,-0.479 0.096,-0.955 0.124,-1.43 0.174,0.418 0.321,0.841 0.538,1.252 0.092,0.172 0.831,0.471 0.905,0.177 0.118,-0.476 0.175,-0.931 0.243,-1.391 0.142,0.271 0.253,0.547 0.423,0.818 0.087,0.145 0.874,0.48 0.905,0.177 0.068,-0.588 0.05,-1.179 0.078,-1.767 0.188,0.354 0.331,0.719 0.616,1.057 0.102,0.115 0.832,0.402 0.874,0.122 0.063,-0.437 0.045,-0.874 0.078,-1.308 0.073,0.177 0.118,0.364 0.192,0.542 0.073,0.182 0.883,0.451 0.904,0.177 0.02,-0.244 0.052,-0.476 0.078,-0.712 0.078,0.174 0.111,0.361 0.193,0.535 0.078,0.17 0.882,0.458 0.905,0.177 0.01,-0.09 0.019,-0.177 0.028,-0.267 0.087,0.058 0.193,0.104 0.317,0.133 0.041,0.117 0.082,0.235 0.124,0.352 0.064,0.195 0.892,0.438 0.905,0.177 -0.028,-0.283 0.037,-0.545 0.193,-0.787 0.078,-0.186 -0.318,-0.28 -0.566,-0.312 C 58.577,10.376 58.307,9.615 58.039,8.848 57.971,8.64 57.115,8.438 57.134,8.671 57.157,9.027 57.13,9.372 57.102,9.719 57.034,9.491 56.922,9.282 56.863,9.046 56.808,8.816 55.939,8.653 55.959,8.869 55.977,9.161 55.944,9.441 55.931,9.724 55.858,9.496 55.746,9.282 55.688,9.046 55.632,8.83 54.782,8.63 54.782,8.869 c -0.004,0.71 -0.073,1.408 -0.124,2.107 -0.303,-0.678 -0.492,-1.391 -0.537,-2.269 -0.014,-0.296 -0.91,-0.453 -0.91,-0.23 -0.005,0.958 -0.074,1.91 -0.129,2.861 -0.271,-0.655 -0.473,-1.337 -0.534,-2.096 -0.055,-0.243 -0.927,-0.434 -0.9,-0.124 0.222,0.926 0.17,1.811 0.042,2.696 -0.399,-1.016 -0.731,-2.052 -0.906,-3.16 -0.036,-0.253 -0.941,-0.421 -0.9,-0.125 0.146,1.117 0.184,2.208 0.115,3.305 -0.34,-0.761 -0.621,-1.54 -0.781,-2.399 -0.046,-0.252 -0.947,-0.418 -0.901,-0.123 0.087,0.581 0,1.137 0,1.695 -0.207,-0.56 -0.354,-1.142 -0.474,-1.765 -0.046,-0.25 -0.942,-0.423 -0.9,-0.124 0.078,0.609 0.068,1.202 0.101,1.797 C 46.736,10.188 46.488,9.439 46.277,8.654 46.208,8.401 45.312,8.25 45.376,8.529 c 0.037,0.177 0.046,0.347 0.078,0.522 -0.275,-0.115 -0.694,-0.14 -0.667,0.067 0.019,0.143 0.005,0.287 0.019,0.43 C 44.608,9.387 44.102,9.279 44.029,9.431 43.758,9.339 43.404,9.318 43.408,9.456 c 0,0.018 0.005,0.035 0.005,0.053 0.027,0.22 0.018,0.432 0.037,0.648 -0.216,-0.039 -0.432,-0.025 -0.432,0.085 0,0.299 -0.046,0.591 -0.051,0.885 -0.083,-0.389 -0.165,-0.761 -0.22,-1.103 -0.037,-0.249 -0.926,-0.43 -0.903,-0.125 0.062,0.796 0.236,1.54 0.453,2.275 0.124,0.775 0.166,1.545 -0.064,2.186 -0.042,0.111 0.143,0.226 0.354,0.29 -0.073,0.009 -0.156,0.021 -0.147,0.108 0.271,2.955 0.542,5.908 0.809,8.863 -0.882,0.154 -1.407,0.563 -1.662,0.917 -0.703,0.969 -0.561,2.478 0.347,3.67 0.418,0.547 1.084,0.951 1.848,1.213 0.321,3.523 0.644,7.042 0.965,10.563 0.414,4.545 0.832,9.091 1.245,13.634 0.065,0.705 0.377,1.689 -0.091,1.958 -0.588,0.341 -1.182,0.678 -1.774,1.018 -0.216,-0.486 -0.386,-0.893 -0.423,-1.084 l -0.073,-0.38 -13.185,0 L 24.314,98 73.17,86.807 71.502,55.579 Z M 57.943,10.987 c 0.027,0.085 0.056,0.167 0.087,0.253 -0.036,0.016 -0.073,0.029 -0.124,0.057 0.015,-0.104 0.022,-0.207 0.037,-0.31 z m -5.461,54.615 c -0.008,0 -0.018,0 -0.026,0 -3.14,-0.031 -6.532,-5.37 -7.998,-8.316 0.855,-0.492 1.709,-0.984 2.56,-1.474 0.032,-0.026 0.046,-0.056 0.037,-0.095 -0.795,-8.688 -1.585,-17.375 -2.381,-26.063 0.083,0.004 0.138,0.057 0.225,0.057 0.459,0 0.956,-0.087 1.48,-0.283 l -0.331,-0.882 c -1.935,0.733 -3.065,-0.51 -3.364,-0.905 -0.648,-0.851 -0.788,-1.921 -0.335,-2.547 0.547,-0.747 1.894,-0.811 3.709,-0.176 l 0.312,-0.887 c -0.919,-0.324 -1.632,-0.43 -2.252,-0.453 -0.197,-2.17 -0.4,-4.339 -0.598,-6.506 -0.051,-0.587 -0.105,-1.174 -0.161,-1.761 -0.042,-0.475 -0.285,-0.202 0.386,-0.234 4.937,-0.241 9.873,-0.48 14.809,-0.724 0.326,3.169 0.647,6.341 0.979,9.51 l -2.376,-0.813 -0.304,0.892 6.362,2.179 -5.047,2.445 0.413,0.845 1.442,-0.698 c 0.245,2.374 0.493,4.748 0.731,7.122 0.143,1.402 0.285,2.801 0.433,4.203 0.105,1.041 0.091,0.717 -1.011,1.193 -3.397,1.463 -6.798,2.93 -10.195,4.394 -0.064,0.027 -0.102,0.044 -0.097,0.119 0.198,3.252 0.395,6.504 0.588,9.754 0.01,0.14 0.281,0.247 0.383,0.285 2.315,0.832 4.633,1.665 6.949,2.497 -1.397,4.788 -3.211,7.322 -5.322,7.322 z"
         id="path5015" />
    </g>
  </g>
</svg>
