<?xml version="1.0" encoding="UTF-8" standalone="no"?>
<!-- Created with Inkscape (http://www.inkscape.org/) -->

<svg
   xmlns:dc="http://purl.org/dc/elements/1.1/"
   xmlns:cc="http://creativecommons.org/ns#"
   xmlns:rdf="http://www.w3.org/1999/02/22-rdf-syntax-ns#"
   xmlns:svg="http://www.w3.org/2000/svg"
   xmlns="http://www.w3.org/2000/svg"
   xmlns:sodipodi="http://sodipodi.sourceforge.net/DTD/sodipodi-0.dtd"
   xmlns:inkscape="http://www.inkscape.org/namespaces/inkscape"
   width="42.333332mm"
   height="42.333332mm"
   viewBox="0 0 149.99999 150"
   id="svg4759"
   version="1.1"
   inkscape:version="0.91 r13725"
   sodipodi:docname="Commons-Transit.svg">
  <defs
     id="defs4761">
    <filter
       inkscape:collect="always"
       style="color-interpolation-filters:sRGB"
       id="filter7402"
       x="-0.022257574"
       width="1.0445151"
       y="-0.026038407"
       height="1.0520768">
      <feGaussianBlur
         inkscape:collect="always"
         stdDeviation="1.2471918"
         id="feGaussianBlur7404" />
    </filter>
  </defs>
  <sodipodi:namedview
     id="base"
     pagecolor="#ffffff"
     bordercolor="#666666"
     borderopacity="1.0"
     inkscape:pageopacity="0.0"
     inkscape:pageshadow="2"
     inkscape:zoom="1.4142136"
     inkscape:cx="82.056902"
     inkscape:cy="91.261317"
     inkscape:document-units="px"
     inkscape:current-layer="layer1"
     showgrid="false"
     fit-margin-top="0"
     fit-margin-left="0"
     fit-margin-right="0"
     fit-margin-bottom="0"
     inkscape:window-width="1366"
     inkscape:window-height="713"
     inkscape:window-x="0"
     inkscape:window-y="27"
     inkscape:window-maximized="1"
     showborder="false"
     showguides="true"
     inkscape:guide-bbox="true" />
  <metadata
     id="metadata4764">
    <rdf:RDF>
      <cc:Work
         rdf:about="">
        <dc:format>image/svg+xml</dc:format>
        <dc:type
           rdf:resource="http://purl.org/dc/dcmitype/StillImage" />
        <dc:title></dc:title>
      </cc:Work>
    </rdf:RDF>
  </metadata>
  <g
     inkscape:label="Layer 1"
     inkscape:groupmode="layer"
     id="layer1"
     transform="translate(-263.37482,-945.53693)">
    <g
       id="g7508">
      <rect
         ry="0"
         rx="0"
         style="opacity:1;fill:#333333;fill-opacity:1;stroke:none;stroke-width:6.79094839;stroke-linecap:round;stroke-linejoin:round;stroke-miterlimit:4;stroke-dasharray:none;stroke-dashoffset:0;stroke-opacity:1"
         id="rect5453"
         width="150"
         height="150"
         x="263.37482"
         y="945.53693" />
      <g
         id="g7406">
        <g
           transform="matrix(0.81794862,0,0,0.81794862,60.967825,184.02784)"
           id="g7302"
           style="fill:#ffffff;filter:url(#filter7402)">
          <g
             style="clip-rule:evenodd;fill:#ffffff;fill-rule:evenodd;stroke-linejoin:round;stroke-miterlimit:1.41420996"
             transform="translate(282.85249,1005.9109)"
             id="g7304">
            <path
               inkscape:connector-curvature="0"
               d="m 21.858,17.672 c 0.265,0.005 0.529,0.025 0.791,0.065 0.554,0.085 1.095,0.252 1.6,0.496 0.616,0.297 1.177,0.706 1.649,1.201 0.378,0.396 0.698,0.846 0.947,1.333 0.191,0.372 0.34,0.764 0.444,1.168 0.344,1.336 0.186,2.779 -0.444,4.007 -0.27,0.527 -0.623,1.011 -1.042,1.43 -0.517,0.517 -1.133,0.933 -1.806,1.218 -0.698,0.296 -1.454,0.448 -2.212,0.448 -0.758,0 -1.514,-0.152 -2.212,-0.448 -0.673,-0.285 -1.289,-0.701 -1.806,-1.218 -0.419,-0.419 -0.772,-0.903 -1.042,-1.43 -0.63,-1.228 -0.788,-2.671 -0.444,-4.007 0.104,-0.404 0.253,-0.796 0.444,-1.168 0.249,-0.487 0.569,-0.937 0.947,-1.333 0.472,-0.495 1.033,-0.904 1.649,-1.201 0.505,-0.244 1.046,-0.411 1.6,-0.496 0.238,-0.037 0.477,-0.056 0.718,-0.064 0.073,-10e-4 0.146,-0.002 0.219,-10e-4 z m -0.12,2.083 c -0.523,0.01 -1.04,0.127 -1.512,0.354 -0.365,0.176 -0.699,0.414 -0.986,0.701 -0.265,0.266 -0.49,0.573 -0.661,0.907 -0.398,0.778 -0.498,1.692 -0.28,2.537 0.065,0.255 0.16,0.503 0.28,0.738 0.171,0.334 0.396,0.641 0.661,0.907 0.328,0.328 0.718,0.592 1.145,0.772 0.428,0.181 0.889,0.277 1.353,0.283 0.466,0.006 0.932,-0.078 1.366,-0.249 0.404,-0.16 0.779,-0.394 1.1,-0.686 0.278,-0.253 0.517,-0.549 0.704,-0.874 0.146,-0.254 0.26,-0.524 0.34,-0.805 0.231,-0.812 0.167,-1.697 -0.181,-2.465 -0.155,-0.343 -0.365,-0.661 -0.618,-0.94 -0.292,-0.321 -0.641,-0.589 -1.027,-0.787 -0.451,-0.231 -0.946,-0.36 -1.451,-0.388 -0.078,-0.004 -0.155,-0.005 -0.233,-0.005 z"
               style="fill:#ffffff;fill-rule:nonzero"
               id="path7306" />
          </g>
          <g
             style="clip-rule:evenodd;fill:#ffffff;fill-rule:evenodd;stroke-linejoin:round;stroke-miterlimit:1.41420996"
             transform="translate(295.10429,989.48621)"
             id="g7308">
            <path
               inkscape:connector-curvature="0"
               d="m 12.452,36.118 -2.038,0 c -0.033,-5.363 -0.042,-10.727 0.06,-16.089 0.024,-0.75 0.178,-1.49 0.471,-2.182 0.319,-0.755 0.796,-1.442 1.389,-2.008 0.56,-0.534 1.222,-0.958 1.941,-1.242 0.677,-0.267 1.396,-0.402 2.123,-0.416 5.51,-0.035 5.02,-0.046 10.53,-0.034 l 0,2.094 c -5.483,-0.001 -4.966,0.023 -10.449,0.023 -0.525,0.003 -1.044,0.103 -1.528,0.308 -0.697,0.295 -1.302,0.794 -1.726,1.422 -0.178,0.264 -0.321,0.548 -0.433,0.846 -0.148,0.397 -0.222,0.819 -0.235,1.242 -0.102,5.344 -0.137,10.691 -0.105,16.036 z m -3.621,0 -2.082,0 C 6.718,30.657 6.72,25.196 6.754,19.736 c 0.007,-0.367 0.03,-0.733 0.077,-1.097 0.09,-0.708 0.26,-1.406 0.505,-2.077 0.505,-1.378 1.331,-2.633 2.393,-3.645 0.979,-0.934 2.155,-1.658 3.431,-2.108 0.675,-0.237 1.376,-0.399 2.087,-0.48 0.324,-0.037 0.649,-0.056 0.976,-0.062 5.568,-0.035 5.137,-0.036 10.705,-0.004 l 0,2.084 c -5.526,-0.03 -5.052,0.003 -10.578,0.003 -0.29,0.002 -0.579,0.016 -0.866,0.049 -0.556,0.063 -1.104,0.189 -1.632,0.375 -0.999,0.353 -1.919,0.919 -2.685,1.65 C 10.335,15.217 9.688,16.2 9.293,17.279 9.012,18.045 8.865,18.85 8.839,19.665 8.735,25.148 8.794,30.634 8.831,36.118 Z"
               style="fill:#ffffff"
               id="path7310"
               sodipodi:nodetypes="ccccccccccccccccccccccccccccccccc" />
          </g>
          <g
             style="clip-rule:evenodd;fill:#ffffff;fill-rule:evenodd;stroke-linejoin:round;stroke-miterlimit:1.41420996"
             transform="matrix(-1,0,0,-1,299.37529,1079.2158)"
             id="g7312">
            <path
               inkscape:connector-curvature="0"
               d="m 21.858,17.672 c 0.265,0.005 0.529,0.025 0.791,0.065 0.554,0.085 1.095,0.252 1.6,0.496 0.616,0.297 1.177,0.706 1.649,1.201 0.378,0.396 0.698,0.846 0.947,1.333 0.63,1.228 0.788,2.671 0.444,4.007 -0.104,0.404 -0.253,0.796 -0.444,1.168 -0.27,0.527 -0.623,1.011 -1.042,1.43 -0.517,0.517 -1.133,0.933 -1.806,1.218 -0.698,0.296 -1.454,0.448 -2.212,0.448 -0.758,0 -1.514,-0.152 -2.212,-0.448 -0.673,-0.285 -1.289,-0.701 -1.806,-1.218 -0.419,-0.419 -0.772,-0.903 -1.042,-1.43 -0.191,-0.372 -0.34,-0.764 -0.444,-1.168 -0.344,-1.336 -0.186,-2.779 0.444,-4.007 0.249,-0.487 0.569,-0.937 0.947,-1.333 0.472,-0.495 1.033,-0.904 1.649,-1.201 0.505,-0.244 1.046,-0.411 1.6,-0.496 0.238,-0.037 0.477,-0.056 0.718,-0.064 0.073,-10e-4 0.146,-0.002 0.219,-10e-4 z m -0.12,2.083 c -0.523,0.01 -1.04,0.127 -1.512,0.354 -0.365,0.176 -0.699,0.414 -0.986,0.701 -0.265,0.266 -0.49,0.573 -0.661,0.907 -0.398,0.778 -0.498,1.692 -0.28,2.537 0.065,0.255 0.16,0.503 0.28,0.738 0.171,0.334 0.396,0.641 0.661,0.907 0.328,0.328 0.718,0.592 1.145,0.772 0.428,0.181 0.889,0.277 1.353,0.283 0.466,0.006 0.932,-0.078 1.366,-0.249 0.404,-0.16 0.779,-0.394 1.1,-0.686 0.3,-0.273 0.553,-0.595 0.747,-0.95 0.139,-0.257 0.247,-0.532 0.32,-0.815 0.203,-0.788 0.131,-1.638 -0.204,-2.379 -0.155,-0.343 -0.365,-0.661 -0.618,-0.94 -0.292,-0.321 -0.641,-0.589 -1.027,-0.787 -0.451,-0.231 -0.946,-0.36 -1.451,-0.388 -0.078,-0.004 -0.155,-0.005 -0.233,-0.005 z"
               style="fill:#ffffff;fill-rule:nonzero"
               id="path7314" />
          </g>
          <g
             style="clip-rule:evenodd;fill:#ffffff;fill-rule:evenodd;stroke-linejoin:round;stroke-miterlimit:1.41420996"
             transform="matrix(-1,0,0,-1,314.19279,1069.1556)"
             id="g7316">
            <path
               inkscape:connector-curvature="0"
               d="m 12.452,36.118 -2.038,0 c -0.033,-5.363 -0.042,-10.727 0.06,-16.089 0.024,-0.75 0.178,-1.49 0.471,-2.182 0.319,-0.755 0.796,-1.442 1.389,-2.008 0.56,-0.534 1.222,-0.958 1.941,-1.242 0.677,-0.267 1.396,-0.402 2.123,-0.416 5.51,-0.035 11.02,-0.046 16.53,-0.034 l 0,2.094 c -5.483,-0.001 -10.966,0.023 -16.449,0.023 -0.525,0.003 -1.044,0.103 -1.528,0.308 -0.697,0.295 -1.302,0.794 -1.726,1.422 -0.178,0.264 -0.321,0.548 -0.433,0.846 -0.148,0.397 -0.222,0.819 -0.235,1.242 -0.102,5.344 -0.137,10.691 -0.105,16.036 z m -3.621,0 -2.082,0 C 6.718,30.657 6.72,25.196 6.754,19.736 c 0.007,-0.367 0.03,-0.733 0.077,-1.097 0.09,-0.708 0.26,-1.406 0.505,-2.077 0.505,-1.378 1.331,-2.633 2.393,-3.645 0.979,-0.934 2.155,-1.658 3.431,-2.108 0.675,-0.237 1.376,-0.399 2.087,-0.48 0.324,-0.037 0.649,-0.056 0.976,-0.062 5.568,-0.035 11.137,-0.036 16.705,-0.004 l 0,2.084 c -5.526,-0.03 -11.052,0.003 -16.578,0.003 -0.29,0.002 -0.579,0.016 -0.866,0.049 -0.556,0.063 -1.104,0.189 -1.632,0.375 -0.999,0.353 -1.919,0.919 -2.685,1.65 C 10.335,15.217 9.688,16.2 9.293,17.279 9.012,18.045 8.865,18.85 8.839,19.665 8.735,25.148 8.794,30.634 8.831,36.118 Z"
               style="fill:#ffffff"
               id="path7318" />
          </g>
          <g
             id="g7320"
             transform="matrix(-1,0,0,1,326.87529,1005.926)"
             style="clip-rule:evenodd;fill:#ffffff;fill-rule:evenodd;stroke-linejoin:round;stroke-miterlimit:1.41420996">
            <path
               id="path7322"
               style="fill:#ffffff;fill-rule:nonzero"
               d="m 21.858,17.672 c 0.265,0.005 0.529,0.025 0.791,0.065 0.554,0.085 1.095,0.252 1.6,0.496 0.616,0.297 1.177,0.706 1.649,1.201 0.378,0.396 0.698,0.846 0.947,1.333 0.63,1.228 0.788,2.671 0.444,4.007 -0.104,0.404 -0.253,0.796 -0.444,1.168 -0.27,0.527 -0.623,1.011 -1.042,1.43 -0.517,0.517 -1.133,0.933 -1.806,1.218 -0.698,0.296 -1.454,0.448 -2.212,0.448 -0.758,0 -1.514,-0.152 -2.212,-0.448 -0.673,-0.285 -1.289,-0.701 -1.806,-1.218 -0.419,-0.419 -0.772,-0.903 -1.042,-1.43 -0.191,-0.372 -0.34,-0.764 -0.444,-1.168 -0.344,-1.336 -0.186,-2.779 0.444,-4.007 0.249,-0.487 0.569,-0.937 0.947,-1.333 0.472,-0.495 1.033,-0.904 1.649,-1.201 0.505,-0.244 1.046,-0.411 1.6,-0.496 0.238,-0.037 0.477,-0.056 0.718,-0.064 0.073,-10e-4 0.146,-0.002 0.219,-10e-4 z m -0.12,2.083 c -0.523,0.01 -1.04,0.127 -1.512,0.354 -0.365,0.176 -0.699,0.414 -0.986,0.701 -0.265,0.266 -0.49,0.573 -0.661,0.907 -0.398,0.778 -0.498,1.692 -0.28,2.537 0.065,0.255 0.16,0.503 0.28,0.738 0.171,0.334 0.396,0.641 0.661,0.907 0.328,0.328 0.718,0.592 1.145,0.772 0.428,0.181 0.889,0.277 1.353,0.283 0.466,0.006 0.932,-0.078 1.366,-0.249 0.404,-0.16 0.779,-0.394 1.1,-0.686 0.3,-0.273 0.553,-0.595 0.747,-0.95 0.139,-0.257 0.247,-0.532 0.32,-0.815 0.203,-0.788 0.131,-1.638 -0.204,-2.379 -0.155,-0.343 -0.365,-0.661 -0.618,-0.94 -0.292,-0.321 -0.641,-0.589 -1.027,-0.787 -0.451,-0.231 -0.946,-0.36 -1.451,-0.388 -0.078,-0.004 -0.155,-0.005 -0.233,-0.005 z"
               inkscape:connector-curvature="0" />
          </g>
          <g
             id="g7324"
             transform="matrix(-1,0,0,1,341.69279,1015.9862)"
             style="clip-rule:evenodd;fill:#ffffff;fill-rule:evenodd;stroke-linejoin:round;stroke-miterlimit:1.41420996">
            <path
               id="path7326"
               style="fill:#ffffff"
               d="m 12.452,36.118 -2.038,0 c -0.033,-5.363 -0.042,-10.727 0.06,-16.089 0.024,-0.75 0.178,-1.49 0.471,-2.182 0.319,-0.755 0.796,-1.442 1.389,-2.008 0.56,-0.534 1.222,-0.958 1.941,-1.242 0.677,-0.267 1.396,-0.402 2.123,-0.416 5.51,-0.035 11.02,-0.046 16.53,-0.034 l 0,2.094 c -5.483,-0.001 -10.966,0.023 -16.449,0.023 -0.525,0.003 -1.044,0.103 -1.528,0.308 -0.697,0.295 -1.302,0.794 -1.726,1.422 -0.178,0.264 -0.321,0.548 -0.433,0.846 -0.148,0.397 -0.222,0.819 -0.235,1.242 -0.102,5.344 -0.137,10.691 -0.105,16.036 z m -3.621,0 -2.082,0 C 6.718,30.657 6.72,25.196 6.754,19.736 c 0.007,-0.367 0.03,-0.733 0.077,-1.097 0.09,-0.708 0.26,-1.406 0.505,-2.077 0.505,-1.378 1.331,-2.633 2.393,-3.645 0.979,-0.934 2.155,-1.658 3.431,-2.108 0.675,-0.237 1.376,-0.399 2.087,-0.48 0.324,-0.037 0.649,-0.056 0.976,-0.062 5.568,-0.035 11.137,-0.036 16.705,-0.004 l 0,2.084 c -5.526,-0.03 -11.052,0.003 -16.578,0.003 -0.29,0.002 -0.579,0.016 -0.866,0.049 -0.556,0.063 -1.104,0.189 -1.632,0.375 -0.999,0.353 -1.919,0.919 -2.685,1.65 C 10.335,15.217 9.688,16.2 9.293,17.279 9.012,18.045 8.865,18.85 8.839,19.665 8.735,25.148 8.794,30.634 8.831,36.118 Z"
               inkscape:connector-curvature="0" />
          </g>
          <g
             id="g7328"
             transform="translate(-9.3173882,24.298359)"
             style="fill:#ffffff">
            <g
               style="clip-rule:evenodd;fill:#ffffff;fill-rule:evenodd;stroke-linejoin:round;stroke-miterlimit:1.41420996"
               transform="matrix(1,0,0,-1,346.61418,1073.5425)"
               id="g7330">
              <path
                 inkscape:connector-curvature="0"
                 d="m 21.858,17.672 c 0.265,0.005 0.529,0.025 0.791,0.065 0.554,0.085 1.095,0.252 1.6,0.496 0.616,0.297 1.177,0.706 1.649,1.201 0.378,0.396 0.698,0.846 0.947,1.333 0.63,1.228 0.788,2.671 0.444,4.007 -0.104,0.404 -0.253,0.796 -0.444,1.168 -0.27,0.527 -0.623,1.011 -1.042,1.43 -0.517,0.517 -1.133,0.933 -1.806,1.218 -0.698,0.296 -1.454,0.448 -2.212,0.448 -0.758,0 -1.514,-0.152 -2.212,-0.448 -0.673,-0.285 -1.289,-0.701 -1.806,-1.218 -0.419,-0.419 -0.772,-0.903 -1.042,-1.43 -0.191,-0.372 -0.34,-0.764 -0.444,-1.168 -0.344,-1.336 -0.186,-2.779 0.444,-4.007 0.249,-0.487 0.569,-0.937 0.947,-1.333 0.472,-0.495 1.033,-0.904 1.649,-1.201 0.505,-0.244 1.046,-0.411 1.6,-0.496 0.238,-0.037 0.477,-0.056 0.718,-0.064 0.073,-10e-4 0.146,-0.002 0.219,-10e-4 z m -0.12,2.083 c -0.523,0.01 -1.04,0.127 -1.512,0.354 -0.365,0.176 -0.699,0.414 -0.986,0.701 -0.265,0.266 -0.49,0.573 -0.661,0.907 -0.398,0.778 -0.498,1.692 -0.28,2.537 0.065,0.255 0.16,0.503 0.28,0.738 0.171,0.334 0.396,0.641 0.661,0.907 0.328,0.328 0.718,0.592 1.145,0.772 0.428,0.181 0.889,0.277 1.353,0.283 0.466,0.006 0.932,-0.078 1.366,-0.249 0.404,-0.16 0.779,-0.394 1.1,-0.686 0.3,-0.273 0.553,-0.595 0.747,-0.95 0.139,-0.257 0.247,-0.532 0.32,-0.815 0.203,-0.788 0.131,-1.638 -0.204,-2.379 -0.155,-0.343 -0.365,-0.661 -0.618,-0.94 -0.292,-0.321 -0.641,-0.589 -1.027,-0.787 -0.451,-0.231 -0.946,-0.36 -1.451,-0.388 -0.078,-0.004 -0.155,-0.005 -0.233,-0.005 z"
                 style="fill:#ffffff;fill-rule:nonzero"
                 id="path7332" />
            </g>
            <g
               style="clip-rule:evenodd;fill:#ffffff;fill-rule:evenodd;stroke-linejoin:round;stroke-miterlimit:1.41420996"
               transform="matrix(1,0,0,-1,331.79668,1063.4823)"
               id="g7334">
              <path
                 inkscape:connector-curvature="0"
                 d="m 12.452,36.118 -2.038,0 c -0.033,-5.363 -0.042,-10.727 0.06,-16.089 0.024,-0.75 0.178,-1.49 0.471,-2.182 0.319,-0.755 0.796,-1.442 1.389,-2.008 0.56,-0.534 1.222,-0.958 1.941,-1.242 0.677,-0.267 1.396,-0.402 2.123,-0.416 5.51,-0.035 11.02,-0.046 16.53,-0.034 l 0,2.094 c -5.483,-0.001 -10.966,0.023 -16.449,0.023 -0.525,0.003 -1.044,0.103 -1.528,0.308 -0.697,0.295 -1.302,0.794 -1.726,1.422 -0.178,0.264 -0.321,0.548 -0.433,0.846 -0.148,0.397 -0.222,0.819 -0.235,1.242 -0.102,5.344 -0.137,10.691 -0.105,16.036 z m -3.621,0 -2.082,0 C 6.718,30.657 6.72,25.196 6.754,19.736 c 0.007,-0.367 0.03,-0.733 0.077,-1.097 0.09,-0.708 0.26,-1.406 0.505,-2.077 0.505,-1.378 1.331,-2.633 2.393,-3.645 0.979,-0.934 2.155,-1.658 3.431,-2.108 0.675,-0.237 1.376,-0.399 2.087,-0.48 0.324,-0.037 0.649,-0.056 0.976,-0.062 5.568,-0.035 11.137,-0.036 16.705,-0.004 l 0,2.084 c -5.526,-0.03 -11.052,0.003 -16.578,0.003 -0.29,0.002 -0.579,0.016 -0.866,0.049 -0.556,0.063 -1.104,0.189 -1.632,0.375 -0.999,0.353 -1.919,0.919 -2.685,1.65 C 10.335,15.217 9.688,16.2 9.293,17.279 9.012,18.045 8.865,18.85 8.839,19.665 8.735,25.148 8.794,30.634 8.831,36.118 Z"
                 style="fill:#ffffff"
                 id="path7336" />
            </g>
          </g>
          <g
             style="clip-rule:evenodd;fill:#ffffff;fill-rule:evenodd;stroke-linejoin:round;stroke-miterlimit:1.41420996"
             transform="matrix(-1,0,0,1,347.40563,979.21888)"
             id="g7338">
            <path
               inkscape:connector-curvature="0"
               d="m 21.858,17.672 c 0.265,0.005 0.529,0.025 0.791,0.065 0.554,0.085 1.095,0.252 1.6,0.496 0.616,0.297 1.177,0.706 1.649,1.201 0.378,0.396 0.698,0.846 0.947,1.333 0.63,1.228 0.788,2.671 0.444,4.007 -0.104,0.404 -0.253,0.796 -0.444,1.168 -0.27,0.527 -0.623,1.011 -1.042,1.43 -0.517,0.517 -1.133,0.933 -1.806,1.218 -0.698,0.296 -1.454,0.448 -2.212,0.448 -0.758,0 -1.514,-0.152 -2.212,-0.448 -0.673,-0.285 -1.289,-0.701 -1.806,-1.218 -0.419,-0.419 -0.772,-0.903 -1.042,-1.43 -0.191,-0.372 -0.34,-0.764 -0.444,-1.168 -0.344,-1.336 -0.186,-2.779 0.444,-4.007 0.249,-0.487 0.569,-0.937 0.947,-1.333 0.472,-0.495 1.033,-0.904 1.649,-1.201 0.505,-0.244 1.046,-0.411 1.6,-0.496 0.238,-0.037 0.477,-0.056 0.718,-0.064 0.073,-10e-4 0.146,-0.002 0.219,-10e-4 z m -0.12,2.083 c -0.523,0.01 -1.04,0.127 -1.512,0.354 -0.365,0.176 -0.699,0.414 -0.986,0.701 -0.265,0.266 -0.49,0.573 -0.661,0.907 -0.398,0.778 -0.498,1.692 -0.28,2.537 0.065,0.255 0.16,0.503 0.28,0.738 0.171,0.334 0.396,0.641 0.661,0.907 0.328,0.328 0.718,0.592 1.145,0.772 0.428,0.181 0.889,0.277 1.353,0.283 0.466,0.006 0.932,-0.078 1.366,-0.249 0.404,-0.16 0.779,-0.394 1.1,-0.686 0.3,-0.273 0.553,-0.595 0.747,-0.95 0.139,-0.257 0.247,-0.532 0.32,-0.815 0.203,-0.788 0.131,-1.638 -0.204,-2.379 -0.155,-0.343 -0.365,-0.661 -0.618,-0.94 -0.292,-0.321 -0.641,-0.589 -1.027,-0.787 -0.451,-0.231 -0.946,-0.36 -1.451,-0.388 -0.078,-0.004 -0.155,-0.005 -0.233,-0.005 z"
               style="fill:#ffffff;fill-rule:nonzero"
               id="path7340" />
          </g>
          <g
             id="g7342"
             transform="matrix(0,1,-1,0,1355.5475,657.72952)"
             style="fill:#ffffff">
            <path
               sodipodi:nodetypes="ccccc"
               id="path7344"
               style="clip-rule:evenodd;fill:#ffffff;fill-rule:evenodd;stroke-linejoin:round;stroke-miterlimit:1.41420996"
               d="m 343.93529,1025.6042 -2.082,0 c -0.031,-5.461 -0.029,-10.922 0.005,-16.382 l 2.085,-0.071 c -0.104,5.483 -0.045,10.969 -0.008,16.453 z"
               inkscape:connector-curvature="0" />
            <path
               inkscape:connector-curvature="0"
               d="m 347.93529,1025.6042 -2.082,0 c -0.031,-5.461 -0.029,-10.922 0.005,-16.382 l 2.085,-0.071 c -0.104,5.483 -0.045,10.969 -0.008,16.453 z"
               style="clip-rule:evenodd;fill:#ffffff;fill-rule:evenodd;stroke-linejoin:round;stroke-miterlimit:1.41420996"
               id="path7346"
               sodipodi:nodetypes="ccccc" />
          </g>
          <g
             id="g7348"
             transform="matrix(-1,0,0,1,371.90563,979.21888)"
             style="clip-rule:evenodd;fill:#ffffff;fill-rule:evenodd;stroke-linejoin:round;stroke-miterlimit:1.41420996">
            <path
               id="path7350"
               style="fill:#ffffff;fill-rule:nonzero"
               d="m 21.858,17.672 c 0.265,0.005 0.529,0.025 0.791,0.065 0.554,0.085 1.095,0.252 1.6,0.496 0.616,0.297 1.177,0.706 1.649,1.201 0.378,0.396 0.698,0.846 0.947,1.333 0.63,1.228 0.788,2.671 0.444,4.007 -0.104,0.404 -0.253,0.796 -0.444,1.168 -0.27,0.527 -0.623,1.011 -1.042,1.43 -0.517,0.517 -1.133,0.933 -1.806,1.218 -0.698,0.296 -1.454,0.448 -2.212,0.448 -0.758,0 -1.514,-0.152 -2.212,-0.448 -0.673,-0.285 -1.289,-0.701 -1.806,-1.218 -0.419,-0.419 -0.772,-0.903 -1.042,-1.43 -0.191,-0.372 -0.34,-0.764 -0.444,-1.168 -0.344,-1.336 -0.186,-2.779 0.444,-4.007 0.249,-0.487 0.569,-0.937 0.947,-1.333 0.472,-0.495 1.033,-0.904 1.649,-1.201 0.505,-0.244 1.046,-0.411 1.6,-0.496 0.238,-0.037 0.477,-0.056 0.718,-0.064 0.073,-10e-4 0.146,-0.002 0.219,-10e-4 z m -0.12,2.083 c -0.523,0.01 -1.04,0.127 -1.512,0.354 -0.365,0.176 -0.699,0.414 -0.986,0.701 -0.265,0.266 -0.49,0.573 -0.661,0.907 -0.398,0.778 -0.498,1.692 -0.28,2.537 0.065,0.255 0.16,0.503 0.28,0.738 0.171,0.334 0.396,0.641 0.661,0.907 0.328,0.328 0.718,0.592 1.145,0.772 0.428,0.181 0.889,0.277 1.353,0.283 0.466,0.006 0.932,-0.078 1.366,-0.249 0.404,-0.16 0.779,-0.394 1.1,-0.686 0.3,-0.273 0.553,-0.595 0.747,-0.95 0.139,-0.257 0.247,-0.532 0.32,-0.815 0.203,-0.788 0.131,-1.638 -0.204,-2.379 -0.155,-0.343 -0.365,-0.661 -0.618,-0.94 -0.292,-0.321 -0.641,-0.589 -1.027,-0.787 -0.451,-0.231 -0.946,-0.36 -1.451,-0.388 -0.078,-0.004 -0.155,-0.005 -0.233,-0.005 z"
               inkscape:connector-curvature="0" />
          </g>
          <g
             transform="matrix(0,1,-1,0,1379.5475,657.72952)"
             id="g7352"
             style="fill:#ffffff">
            <path
               inkscape:connector-curvature="0"
               d="m 343.93529,1025.6042 -2.082,0 c -0.031,-5.461 -0.029,-10.922 0.005,-16.382 l 2.085,-0.071 c -0.104,5.483 -0.045,10.969 -0.008,16.453 z"
               style="clip-rule:evenodd;fill:#ffffff;fill-rule:evenodd;stroke-linejoin:round;stroke-miterlimit:1.41420996"
               id="path7354"
               sodipodi:nodetypes="ccccc" />
            <path
               sodipodi:nodetypes="ccccc"
               id="path7356"
               style="clip-rule:evenodd;fill:#ffffff;fill-rule:evenodd;stroke-linejoin:round;stroke-miterlimit:1.41420996"
               d="m 347.93529,1025.6042 -2.082,0 c -0.031,-5.461 -0.029,-10.922 0.005,-16.382 l 2.085,-0.071 c -0.104,5.483 -0.045,10.969 -0.008,16.453 z"
               inkscape:connector-curvature="0" />
          </g>
          <g
             style="clip-rule:evenodd;fill:#ffffff;fill-rule:evenodd;stroke-linejoin:round;stroke-miterlimit:1.41420996"
             transform="matrix(-1,0,0,1,395.90563,979.21888)"
             id="g7358">
            <path
               inkscape:connector-curvature="0"
               d="m 21.858,17.672 c 0.265,0.005 0.529,0.025 0.791,0.065 0.554,0.085 1.095,0.252 1.6,0.496 0.616,0.297 1.177,0.706 1.649,1.201 0.378,0.396 0.698,0.846 0.947,1.333 0.63,1.228 0.788,2.671 0.444,4.007 -0.104,0.404 -0.253,0.796 -0.444,1.168 -0.27,0.527 -0.623,1.011 -1.042,1.43 -0.517,0.517 -1.133,0.933 -1.806,1.218 -0.698,0.296 -1.454,0.448 -2.212,0.448 -0.758,0 -1.514,-0.152 -2.212,-0.448 -0.673,-0.285 -1.289,-0.701 -1.806,-1.218 -0.419,-0.419 -0.772,-0.903 -1.042,-1.43 -0.191,-0.372 -0.34,-0.764 -0.444,-1.168 -0.344,-1.336 -0.186,-2.779 0.444,-4.007 0.249,-0.487 0.569,-0.937 0.947,-1.333 0.472,-0.495 1.033,-0.904 1.649,-1.201 0.505,-0.244 1.046,-0.411 1.6,-0.496 0.238,-0.037 0.477,-0.056 0.718,-0.064 0.073,-10e-4 0.146,-0.002 0.219,-10e-4 z m -0.12,2.083 c -0.523,0.01 -1.04,0.127 -1.512,0.354 -0.365,0.176 -0.699,0.414 -0.986,0.701 -0.265,0.266 -0.49,0.573 -0.661,0.907 -0.398,0.778 -0.498,1.692 -0.28,2.537 0.065,0.255 0.16,0.503 0.28,0.738 0.171,0.334 0.396,0.641 0.661,0.907 0.328,0.328 0.718,0.592 1.145,0.772 0.428,0.181 0.889,0.277 1.353,0.283 0.466,0.006 0.932,-0.078 1.366,-0.249 0.404,-0.16 0.779,-0.394 1.1,-0.686 0.3,-0.273 0.553,-0.595 0.747,-0.95 0.139,-0.257 0.247,-0.532 0.32,-0.815 0.203,-0.788 0.131,-1.638 -0.204,-2.379 -0.155,-0.343 -0.365,-0.661 -0.618,-0.94 -0.292,-0.321 -0.641,-0.589 -1.027,-0.787 -0.451,-0.231 -0.946,-0.36 -1.451,-0.388 -0.078,-0.004 -0.155,-0.005 -0.233,-0.005 z"
               style="fill:#ffffff;fill-rule:nonzero"
               id="path7360" />
          </g>
          <g
             id="g7362"
             transform="matrix(0,1,-1,0,1403.5475,657.72952)"
             style="fill:#ffffff">
            <path
               sodipodi:nodetypes="ccccc"
               id="path7364"
               style="clip-rule:evenodd;fill:#ffffff;fill-rule:evenodd;stroke-linejoin:round;stroke-miterlimit:1.41420996"
               d="m 343.93529,1025.6042 -2.082,0 c -0.031,-5.461 -0.029,-10.922 0.005,-16.382 l 2.085,-0.071 c -0.104,5.483 -0.045,10.969 -0.008,16.453 z"
               inkscape:connector-curvature="0" />
            <path
               inkscape:connector-curvature="0"
               d="m 347.93529,1025.6042 -2.082,0 c -0.031,-5.461 -0.029,-10.922 0.005,-16.382 l 2.085,-0.071 c -0.104,5.483 -0.045,10.969 -0.008,16.453 z"
               style="clip-rule:evenodd;fill:#ffffff;fill-rule:evenodd;stroke-linejoin:round;stroke-miterlimit:1.41420996"
               id="path7366"
               sodipodi:nodetypes="ccccc" />
          </g>
          <g
             id="g7368"
             transform="matrix(-1,0,0,1,419.90563,979.21888)"
             style="clip-rule:evenodd;fill:#ffffff;fill-rule:evenodd;stroke-linejoin:round;stroke-miterlimit:1.41420996">
            <path
               id="path7370"
               style="fill:#ffffff;fill-rule:nonzero"
               d="m 21.858,17.672 c 0.265,0.005 0.529,0.025 0.791,0.065 0.554,0.085 1.095,0.252 1.6,0.496 0.616,0.297 1.177,0.706 1.649,1.201 0.378,0.396 0.698,0.846 0.947,1.333 0.63,1.228 0.788,2.671 0.444,4.007 -0.104,0.404 -0.253,0.796 -0.444,1.168 -0.27,0.527 -0.623,1.011 -1.042,1.43 -0.517,0.517 -1.133,0.933 -1.806,1.218 -0.698,0.296 -1.454,0.448 -2.212,0.448 -0.758,0 -1.514,-0.152 -2.212,-0.448 -0.673,-0.285 -1.289,-0.701 -1.806,-1.218 -0.419,-0.419 -0.772,-0.903 -1.042,-1.43 -0.191,-0.372 -0.34,-0.764 -0.444,-1.168 -0.344,-1.336 -0.186,-2.779 0.444,-4.007 0.249,-0.487 0.569,-0.937 0.947,-1.333 0.472,-0.495 1.033,-0.904 1.649,-1.201 0.505,-0.244 1.046,-0.411 1.6,-0.496 0.238,-0.037 0.477,-0.056 0.718,-0.064 0.073,-10e-4 0.146,-0.002 0.219,-10e-4 z m -0.12,2.083 c -0.523,0.01 -1.04,0.127 -1.512,0.354 -0.365,0.176 -0.699,0.414 -0.986,0.701 -0.265,0.266 -0.49,0.573 -0.661,0.907 -0.398,0.778 -0.498,1.692 -0.28,2.537 0.065,0.255 0.16,0.503 0.28,0.738 0.171,0.334 0.396,0.641 0.661,0.907 0.328,0.328 0.718,0.592 1.145,0.772 0.428,0.181 0.889,0.277 1.353,0.283 0.466,0.006 0.932,-0.078 1.366,-0.249 0.404,-0.16 0.779,-0.394 1.1,-0.686 0.3,-0.273 0.553,-0.595 0.747,-0.95 0.139,-0.257 0.247,-0.532 0.32,-0.815 0.203,-0.788 0.131,-1.638 -0.204,-2.379 -0.155,-0.343 -0.365,-0.661 -0.618,-0.94 -0.292,-0.321 -0.641,-0.589 -1.027,-0.787 -0.451,-0.231 -0.946,-0.36 -1.451,-0.388 -0.078,-0.004 -0.155,-0.005 -0.233,-0.005 z"
               inkscape:connector-curvature="0" />
          </g>
          <g
             transform="matrix(0.70710678,0.70710678,-0.70710678,0.70710678,807.94231,27.850006)"
             id="g7372"
             style="fill:#ffffff">
            <path
               inkscape:connector-curvature="0"
               d="m 344.74779,1027.6201 -0.85529,1.1642 c -0.004,-0.7524 -2.14325,-4.6426 -2.15036,-5.4835 -0.0445,-5.2623 0.0868,-26.34146 0.11615,-31.04916 l 2.085,-0.071 c -0.0945,4.9807 -0.2419,25.87196 -0.2061,30.85386 0.004,0.5024 1.31969,3.1457 1.32308,3.6481 z"
               style="clip-rule:evenodd;fill:#ffffff;fill-rule:evenodd;stroke-linejoin:round;stroke-miterlimit:1.41420996"
               id="path7374"
               sodipodi:nodetypes="ccsccscc" />
            <path
               sodipodi:nodetypes="ccccc"
               id="path7376"
               style="clip-rule:evenodd;fill:#ffffff;fill-rule:evenodd;stroke-linejoin:round;stroke-miterlimit:1.41420996"
               d="m 347.93529,1025.6042 -2.082,0 c -0.031,-5.461 -0.029,-27.89256 0.005,-33.35256 l 2.085,-0.071 c -0.104,5.483 -0.045,27.93956 -0.008,33.42356 z"
               inkscape:connector-curvature="0" />
          </g>
          <g
             id="g7378"
             transform="matrix(0.70710678,0.70710678,-0.70710678,0.70710678,831.94231,27.850006)"
             style="fill:#ffffff">
            <path
               sodipodi:nodetypes="ccsccscc"
               id="path7380"
               style="clip-rule:evenodd;fill:#ffffff;fill-rule:evenodd;stroke-linejoin:round;stroke-miterlimit:1.41420996"
               d="m 344.74779,1027.6201 -0.85529,1.1642 c -0.004,-0.7524 -2.14325,-4.6426 -2.15036,-5.4835 -0.0445,-5.2623 0.0868,-26.34146 0.11615,-31.04916 l 2.085,-0.071 c -0.0945,4.9807 -0.2419,25.87196 -0.2061,30.85386 0.004,0.5024 1.31969,3.1457 1.32308,3.6481 z"
               inkscape:connector-curvature="0" />
            <path
               inkscape:connector-curvature="0"
               d="m 347.93529,1025.6042 -2.082,0 c -0.031,-5.461 -0.029,-27.89256 0.005,-33.35256 l 2.085,-0.071 c -0.104,5.483 -0.045,27.93956 -0.008,33.42356 z"
               style="clip-rule:evenodd;fill:#ffffff;fill-rule:evenodd;stroke-linejoin:round;stroke-miterlimit:1.41420996"
               id="path7382"
               sodipodi:nodetypes="ccccc" />
          </g>
          <g
             transform="matrix(0.70710678,0.70710678,-0.70710678,0.70710678,855.94231,27.850006)"
             id="g7384"
             style="fill:#ffffff">
            <path
               inkscape:connector-curvature="0"
               d="m 344.74779,1027.6201 -0.85529,1.1642 c -0.004,-0.7524 -2.14325,-4.6426 -2.15036,-5.4835 -0.0445,-5.2623 0.0868,-26.34146 0.11615,-31.04916 l 2.085,-0.071 c -0.0945,4.9807 -0.2419,25.87196 -0.2061,30.85386 0.004,0.5024 1.31969,3.1457 1.32308,3.6481 z"
               style="clip-rule:evenodd;fill:#ffffff;fill-rule:evenodd;stroke-linejoin:round;stroke-miterlimit:1.41420996"
               id="path7386"
               sodipodi:nodetypes="ccsccscc" />
            <path
               sodipodi:nodetypes="ccccc"
               id="path7388"
               style="clip-rule:evenodd;fill:#ffffff;fill-rule:evenodd;stroke-linejoin:round;stroke-miterlimit:1.41420996"
               d="m 347.93529,1025.6042 -2.082,0 c -0.031,-5.461 -0.029,-27.89256 0.005,-33.35256 l 2.085,-0.071 c -0.104,5.483 -0.045,27.93956 -0.008,33.42356 z"
               inkscape:connector-curvature="0" />
          </g>
          <g
             style="clip-rule:evenodd;fill:#ffffff;fill-rule:evenodd;stroke-linejoin:round;stroke-miterlimit:1.41420996"
             transform="matrix(-1,0,0,1,422.49402,947.5421)"
             id="g7390">
            <path
               inkscape:connector-curvature="0"
               d="m 21.858,17.672 c 0.265,0.005 0.529,0.025 0.791,0.065 0.554,0.085 1.095,0.252 1.6,0.496 0.616,0.297 1.177,0.706 1.649,1.201 0.378,0.396 0.698,0.846 0.947,1.333 0.63,1.228 0.788,2.671 0.444,4.007 -0.104,0.404 -0.253,0.796 -0.444,1.168 -0.27,0.527 -0.623,1.011 -1.042,1.43 -0.517,0.517 -1.133,0.933 -1.806,1.218 -0.698,0.296 -1.454,0.448 -2.212,0.448 -0.758,0 -1.514,-0.152 -2.212,-0.448 -0.673,-0.285 -1.289,-0.701 -1.806,-1.218 -0.419,-0.419 -0.772,-0.903 -1.042,-1.43 -0.191,-0.372 -0.34,-0.764 -0.444,-1.168 -0.344,-1.336 -0.186,-2.779 0.444,-4.007 0.249,-0.487 0.569,-0.937 0.947,-1.333 0.472,-0.495 1.033,-0.904 1.649,-1.201 0.505,-0.244 1.046,-0.411 1.6,-0.496 0.238,-0.037 0.477,-0.056 0.718,-0.064 0.073,-10e-4 0.146,-0.002 0.219,-10e-4 z m -0.12,2.083 c -0.523,0.01 -1.04,0.127 -1.512,0.354 -0.365,0.176 -0.699,0.414 -0.986,0.701 -0.265,0.266 -0.49,0.573 -0.661,0.907 -0.398,0.778 -0.498,1.692 -0.28,2.537 0.065,0.255 0.16,0.503 0.28,0.738 0.171,0.334 0.396,0.641 0.661,0.907 0.328,0.328 0.718,0.592 1.145,0.772 0.428,0.181 0.889,0.277 1.353,0.283 0.466,0.006 0.932,-0.078 1.366,-0.249 0.404,-0.16 0.779,-0.394 1.1,-0.686 0.3,-0.273 0.553,-0.595 0.747,-0.95 0.139,-0.257 0.247,-0.532 0.32,-0.815 0.203,-0.788 0.131,-1.638 -0.204,-2.379 -0.155,-0.343 -0.365,-0.661 -0.618,-0.94 -0.292,-0.321 -0.641,-0.589 -1.027,-0.787 -0.451,-0.231 -0.946,-0.36 -1.451,-0.388 -0.078,-0.004 -0.155,-0.005 -0.233,-0.005 z"
               style="fill:#ffffff;fill-rule:nonzero"
               id="path7392" />
          </g>
          <g
             id="g7394"
             transform="matrix(-1,0,0,1,398.49402,947.5421)"
             style="clip-rule:evenodd;fill:#ffffff;fill-rule:evenodd;stroke-linejoin:round;stroke-miterlimit:1.41420996">
            <path
               id="path7396"
               style="fill:#ffffff;fill-rule:nonzero"
               d="m 21.858,17.672 c 0.265,0.005 0.529,0.025 0.791,0.065 0.554,0.085 1.095,0.252 1.6,0.496 0.616,0.297 1.177,0.706 1.649,1.201 0.378,0.396 0.698,0.846 0.947,1.333 0.63,1.228 0.788,2.671 0.444,4.007 -0.104,0.404 -0.253,0.796 -0.444,1.168 -0.27,0.527 -0.623,1.011 -1.042,1.43 -0.517,0.517 -1.133,0.933 -1.806,1.218 -0.698,0.296 -1.454,0.448 -2.212,0.448 -0.758,0 -1.514,-0.152 -2.212,-0.448 -0.673,-0.285 -1.289,-0.701 -1.806,-1.218 -0.419,-0.419 -0.772,-0.903 -1.042,-1.43 -0.191,-0.372 -0.34,-0.764 -0.444,-1.168 -0.344,-1.336 -0.186,-2.779 0.444,-4.007 0.249,-0.487 0.569,-0.937 0.947,-1.333 0.472,-0.495 1.033,-0.904 1.649,-1.201 0.505,-0.244 1.046,-0.411 1.6,-0.496 0.238,-0.037 0.477,-0.056 0.718,-0.064 0.073,-10e-4 0.146,-0.002 0.219,-10e-4 z m -0.12,2.083 c -0.523,0.01 -1.04,0.127 -1.512,0.354 -0.365,0.176 -0.699,0.414 -0.986,0.701 -0.265,0.266 -0.49,0.573 -0.661,0.907 -0.398,0.778 -0.498,1.692 -0.28,2.537 0.065,0.255 0.16,0.503 0.28,0.738 0.171,0.334 0.396,0.641 0.661,0.907 0.328,0.328 0.718,0.592 1.145,0.772 0.428,0.181 0.889,0.277 1.353,0.283 0.466,0.006 0.932,-0.078 1.366,-0.249 0.404,-0.16 0.779,-0.394 1.1,-0.686 0.3,-0.273 0.553,-0.595 0.747,-0.95 0.139,-0.257 0.247,-0.532 0.32,-0.815 0.203,-0.788 0.131,-1.638 -0.204,-2.379 -0.155,-0.343 -0.365,-0.661 -0.618,-0.94 -0.292,-0.321 -0.641,-0.589 -1.027,-0.787 -0.451,-0.231 -0.946,-0.36 -1.451,-0.388 -0.078,-0.004 -0.155,-0.005 -0.233,-0.005 z"
               inkscape:connector-curvature="0" />
          </g>
          <g
             id="g7398"
             transform="matrix(-1,0,0,1,374.58241,947.5421)"
             style="clip-rule:evenodd;fill:#ffffff;fill-rule:evenodd;stroke-linejoin:round;stroke-miterlimit:1.41420996">
            <path
               id="path7400"
               style="fill:#ffffff;fill-rule:nonzero"
               d="m 21.858,17.672 c 0.265,0.005 0.529,0.025 0.791,0.065 0.554,0.085 1.095,0.252 1.6,0.496 0.616,0.297 1.177,0.706 1.649,1.201 0.378,0.396 0.698,0.846 0.947,1.333 0.63,1.228 0.788,2.671 0.444,4.007 -0.104,0.404 -0.253,0.796 -0.444,1.168 -0.27,0.527 -0.623,1.011 -1.042,1.43 -0.517,0.517 -1.133,0.933 -1.806,1.218 -0.698,0.296 -1.454,0.448 -2.212,0.448 -0.758,0 -1.514,-0.152 -2.212,-0.448 -0.673,-0.285 -1.289,-0.701 -1.806,-1.218 -0.419,-0.419 -0.772,-0.903 -1.042,-1.43 -0.191,-0.372 -0.34,-0.764 -0.444,-1.168 -0.344,-1.336 -0.186,-2.779 0.444,-4.007 0.249,-0.487 0.569,-0.937 0.947,-1.333 0.472,-0.495 1.033,-0.904 1.649,-1.201 0.505,-0.244 1.046,-0.411 1.6,-0.496 0.238,-0.037 0.477,-0.056 0.718,-0.064 0.073,-10e-4 0.146,-0.002 0.219,-10e-4 z m -0.12,2.083 c -0.523,0.01 -1.04,0.127 -1.512,0.354 -0.365,0.176 -0.699,0.414 -0.986,0.701 -0.265,0.266 -0.49,0.573 -0.661,0.907 -0.398,0.778 -0.498,1.692 -0.28,2.537 0.065,0.255 0.16,0.503 0.28,0.738 0.171,0.334 0.396,0.641 0.661,0.907 0.328,0.328 0.718,0.592 1.145,0.772 0.428,0.181 0.889,0.277 1.353,0.283 0.466,0.006 0.932,-0.078 1.366,-0.249 0.404,-0.16 0.779,-0.394 1.1,-0.686 0.3,-0.273 0.553,-0.595 0.747,-0.95 0.139,-0.257 0.247,-0.532 0.32,-0.815 0.203,-0.788 0.131,-1.638 -0.204,-2.379 -0.155,-0.343 -0.365,-0.661 -0.618,-0.94 -0.292,-0.321 -0.641,-0.589 -1.027,-0.787 -0.451,-0.231 -0.946,-0.36 -1.451,-0.388 -0.078,-0.004 -0.155,-0.005 -0.233,-0.005 z"
               inkscape:connector-curvature="0" />
          </g>
        </g>
        <g
           id="g7251"
           transform="matrix(0.81794862,0,0,0.81794862,60.967825,184.02784)">
          <g
             id="g7064"
             transform="translate(282.85249,1005.9109)"
             style="clip-rule:evenodd;fill:#cccccc;fill-rule:evenodd;stroke-linejoin:round;stroke-miterlimit:1.41420996">
            <path
               id="path7066"
               style="fill:#cccccc;fill-rule:nonzero"
               d="m 21.858,17.672 c 0.265,0.005 0.529,0.025 0.791,0.065 0.554,0.085 1.095,0.252 1.6,0.496 0.616,0.297 1.177,0.706 1.649,1.201 0.378,0.396 0.698,0.846 0.947,1.333 0.191,0.372 0.34,0.764 0.444,1.168 0.344,1.336 0.186,2.779 -0.444,4.007 -0.27,0.527 -0.623,1.011 -1.042,1.43 -0.517,0.517 -1.133,0.933 -1.806,1.218 -0.698,0.296 -1.454,0.448 -2.212,0.448 -0.758,0 -1.514,-0.152 -2.212,-0.448 -0.673,-0.285 -1.289,-0.701 -1.806,-1.218 -0.419,-0.419 -0.772,-0.903 -1.042,-1.43 -0.63,-1.228 -0.788,-2.671 -0.444,-4.007 0.104,-0.404 0.253,-0.796 0.444,-1.168 0.249,-0.487 0.569,-0.937 0.947,-1.333 0.472,-0.495 1.033,-0.904 1.649,-1.201 0.505,-0.244 1.046,-0.411 1.6,-0.496 0.238,-0.037 0.477,-0.056 0.718,-0.064 0.073,-10e-4 0.146,-0.002 0.219,-10e-4 z m -0.12,2.083 c -0.523,0.01 -1.04,0.127 -1.512,0.354 -0.365,0.176 -0.699,0.414 -0.986,0.701 -0.265,0.266 -0.49,0.573 -0.661,0.907 -0.398,0.778 -0.498,1.692 -0.28,2.537 0.065,0.255 0.16,0.503 0.28,0.738 0.171,0.334 0.396,0.641 0.661,0.907 0.328,0.328 0.718,0.592 1.145,0.772 0.428,0.181 0.889,0.277 1.353,0.283 0.466,0.006 0.932,-0.078 1.366,-0.249 0.404,-0.16 0.779,-0.394 1.1,-0.686 0.278,-0.253 0.517,-0.549 0.704,-0.874 0.146,-0.254 0.26,-0.524 0.34,-0.805 0.231,-0.812 0.167,-1.697 -0.181,-2.465 -0.155,-0.343 -0.365,-0.661 -0.618,-0.94 -0.292,-0.321 -0.641,-0.589 -1.027,-0.787 -0.451,-0.231 -0.946,-0.36 -1.451,-0.388 -0.078,-0.004 -0.155,-0.005 -0.233,-0.005 z"
               inkscape:connector-curvature="0" />
          </g>
          <g
             id="g7072"
             transform="translate(295.10429,989.48621)"
             style="clip-rule:evenodd;fill:#cccccc;fill-rule:evenodd;stroke-linejoin:round;stroke-miterlimit:1.41420996">
            <path
               sodipodi:nodetypes="ccccccccccccccccccccccccccccccccc"
               id="path7074"
               style="fill:#cccccc"
               d="m 12.452,36.118 -2.038,0 c -0.033,-5.363 -0.042,-10.727 0.06,-16.089 0.024,-0.75 0.178,-1.49 0.471,-2.182 0.319,-0.755 0.796,-1.442 1.389,-2.008 0.56,-0.534 1.222,-0.958 1.941,-1.242 0.677,-0.267 1.396,-0.402 2.123,-0.416 5.51,-0.035 5.02,-0.046 10.53,-0.034 l 0,2.094 c -5.483,-0.001 -4.966,0.023 -10.449,0.023 -0.525,0.003 -1.044,0.103 -1.528,0.308 -0.697,0.295 -1.302,0.794 -1.726,1.422 -0.178,0.264 -0.321,0.548 -0.433,0.846 -0.148,0.397 -0.222,0.819 -0.235,1.242 -0.102,5.344 -0.137,10.691 -0.105,16.036 z m -3.621,0 -2.082,0 C 6.718,30.657 6.72,25.196 6.754,19.736 c 0.007,-0.367 0.03,-0.733 0.077,-1.097 0.09,-0.708 0.26,-1.406 0.505,-2.077 0.505,-1.378 1.331,-2.633 2.393,-3.645 0.979,-0.934 2.155,-1.658 3.431,-2.108 0.675,-0.237 1.376,-0.399 2.087,-0.48 0.324,-0.037 0.649,-0.056 0.976,-0.062 5.568,-0.035 5.137,-0.036 10.705,-0.004 l 0,2.084 c -5.526,-0.03 -5.052,0.003 -10.578,0.003 -0.29,0.002 -0.579,0.016 -0.866,0.049 -0.556,0.063 -1.104,0.189 -1.632,0.375 -0.999,0.353 -1.919,0.919 -2.685,1.65 C 10.335,15.217 9.688,16.2 9.293,17.279 9.012,18.045 8.865,18.85 8.839,19.665 8.735,25.148 8.794,30.634 8.831,36.118 Z"
               inkscape:connector-curvature="0" />
          </g>
          <g
             id="g7076"
             transform="matrix(-1,0,0,-1,299.37529,1079.2158)"
             style="clip-rule:evenodd;fill:#cccccc;fill-rule:evenodd;stroke-linejoin:round;stroke-miterlimit:1.41420996">
            <path
               id="path7078"
               style="fill:#cccccc;fill-rule:nonzero"
               d="m 21.858,17.672 c 0.265,0.005 0.529,0.025 0.791,0.065 0.554,0.085 1.095,0.252 1.6,0.496 0.616,0.297 1.177,0.706 1.649,1.201 0.378,0.396 0.698,0.846 0.947,1.333 0.63,1.228 0.788,2.671 0.444,4.007 -0.104,0.404 -0.253,0.796 -0.444,1.168 -0.27,0.527 -0.623,1.011 -1.042,1.43 -0.517,0.517 -1.133,0.933 -1.806,1.218 -0.698,0.296 -1.454,0.448 -2.212,0.448 -0.758,0 -1.514,-0.152 -2.212,-0.448 -0.673,-0.285 -1.289,-0.701 -1.806,-1.218 -0.419,-0.419 -0.772,-0.903 -1.042,-1.43 -0.191,-0.372 -0.34,-0.764 -0.444,-1.168 -0.344,-1.336 -0.186,-2.779 0.444,-4.007 0.249,-0.487 0.569,-0.937 0.947,-1.333 0.472,-0.495 1.033,-0.904 1.649,-1.201 0.505,-0.244 1.046,-0.411 1.6,-0.496 0.238,-0.037 0.477,-0.056 0.718,-0.064 0.073,-10e-4 0.146,-0.002 0.219,-10e-4 z m -0.12,2.083 c -0.523,0.01 -1.04,0.127 -1.512,0.354 -0.365,0.176 -0.699,0.414 -0.986,0.701 -0.265,0.266 -0.49,0.573 -0.661,0.907 -0.398,0.778 -0.498,1.692 -0.28,2.537 0.065,0.255 0.16,0.503 0.28,0.738 0.171,0.334 0.396,0.641 0.661,0.907 0.328,0.328 0.718,0.592 1.145,0.772 0.428,0.181 0.889,0.277 1.353,0.283 0.466,0.006 0.932,-0.078 1.366,-0.249 0.404,-0.16 0.779,-0.394 1.1,-0.686 0.3,-0.273 0.553,-0.595 0.747,-0.95 0.139,-0.257 0.247,-0.532 0.32,-0.815 0.203,-0.788 0.131,-1.638 -0.204,-2.379 -0.155,-0.343 -0.365,-0.661 -0.618,-0.94 -0.292,-0.321 -0.641,-0.589 -1.027,-0.787 -0.451,-0.231 -0.946,-0.36 -1.451,-0.388 -0.078,-0.004 -0.155,-0.005 -0.233,-0.005 z"
               inkscape:connector-curvature="0" />
          </g>
          <g
             id="g7080"
             transform="matrix(-1,0,0,-1,314.19279,1069.1556)"
             style="clip-rule:evenodd;fill:#cccccc;fill-rule:evenodd;stroke-linejoin:round;stroke-miterlimit:1.41420996">
            <path
               id="path7082"
               style="fill:#cccccc"
               d="m 12.452,36.118 -2.038,0 c -0.033,-5.363 -0.042,-10.727 0.06,-16.089 0.024,-0.75 0.178,-1.49 0.471,-2.182 0.319,-0.755 0.796,-1.442 1.389,-2.008 0.56,-0.534 1.222,-0.958 1.941,-1.242 0.677,-0.267 1.396,-0.402 2.123,-0.416 5.51,-0.035 11.02,-0.046 16.53,-0.034 l 0,2.094 c -5.483,-0.001 -10.966,0.023 -16.449,0.023 -0.525,0.003 -1.044,0.103 -1.528,0.308 -0.697,0.295 -1.302,0.794 -1.726,1.422 -0.178,0.264 -0.321,0.548 -0.433,0.846 -0.148,0.397 -0.222,0.819 -0.235,1.242 -0.102,5.344 -0.137,10.691 -0.105,16.036 z m -3.621,0 -2.082,0 C 6.718,30.657 6.72,25.196 6.754,19.736 c 0.007,-0.367 0.03,-0.733 0.077,-1.097 0.09,-0.708 0.26,-1.406 0.505,-2.077 0.505,-1.378 1.331,-2.633 2.393,-3.645 0.979,-0.934 2.155,-1.658 3.431,-2.108 0.675,-0.237 1.376,-0.399 2.087,-0.48 0.324,-0.037 0.649,-0.056 0.976,-0.062 5.568,-0.035 11.137,-0.036 16.705,-0.004 l 0,2.084 c -5.526,-0.03 -11.052,0.003 -16.578,0.003 -0.29,0.002 -0.579,0.016 -0.866,0.049 -0.556,0.063 -1.104,0.189 -1.632,0.375 -0.999,0.353 -1.919,0.919 -2.685,1.65 C 10.335,15.217 9.688,16.2 9.293,17.279 9.012,18.045 8.865,18.85 8.839,19.665 8.735,25.148 8.794,30.634 8.831,36.118 Z"
               inkscape:connector-curvature="0" />
          </g>
          <g
             style="clip-rule:evenodd;fill:#cccccc;fill-rule:evenodd;stroke-linejoin:round;stroke-miterlimit:1.41420996"
             transform="matrix(-1,0,0,1,326.87529,1005.926)"
             id="g7138">
            <path
               inkscape:connector-curvature="0"
               d="m 21.858,17.672 c 0.265,0.005 0.529,0.025 0.791,0.065 0.554,0.085 1.095,0.252 1.6,0.496 0.616,0.297 1.177,0.706 1.649,1.201 0.378,0.396 0.698,0.846 0.947,1.333 0.63,1.228 0.788,2.671 0.444,4.007 -0.104,0.404 -0.253,0.796 -0.444,1.168 -0.27,0.527 -0.623,1.011 -1.042,1.43 -0.517,0.517 -1.133,0.933 -1.806,1.218 -0.698,0.296 -1.454,0.448 -2.212,0.448 -0.758,0 -1.514,-0.152 -2.212,-0.448 -0.673,-0.285 -1.289,-0.701 -1.806,-1.218 -0.419,-0.419 -0.772,-0.903 -1.042,-1.43 -0.191,-0.372 -0.34,-0.764 -0.444,-1.168 -0.344,-1.336 -0.186,-2.779 0.444,-4.007 0.249,-0.487 0.569,-0.937 0.947,-1.333 0.472,-0.495 1.033,-0.904 1.649,-1.201 0.505,-0.244 1.046,-0.411 1.6,-0.496 0.238,-0.037 0.477,-0.056 0.718,-0.064 0.073,-10e-4 0.146,-0.002 0.219,-10e-4 z m -0.12,2.083 c -0.523,0.01 -1.04,0.127 -1.512,0.354 -0.365,0.176 -0.699,0.414 -0.986,0.701 -0.265,0.266 -0.49,0.573 -0.661,0.907 -0.398,0.778 -0.498,1.692 -0.28,2.537 0.065,0.255 0.16,0.503 0.28,0.738 0.171,0.334 0.396,0.641 0.661,0.907 0.328,0.328 0.718,0.592 1.145,0.772 0.428,0.181 0.889,0.277 1.353,0.283 0.466,0.006 0.932,-0.078 1.366,-0.249 0.404,-0.16 0.779,-0.394 1.1,-0.686 0.3,-0.273 0.553,-0.595 0.747,-0.95 0.139,-0.257 0.247,-0.532 0.32,-0.815 0.203,-0.788 0.131,-1.638 -0.204,-2.379 -0.155,-0.343 -0.365,-0.661 -0.618,-0.94 -0.292,-0.321 -0.641,-0.589 -1.027,-0.787 -0.451,-0.231 -0.946,-0.36 -1.451,-0.388 -0.078,-0.004 -0.155,-0.005 -0.233,-0.005 z"
               style="fill:#cccccc;fill-rule:nonzero"
               id="path7140" />
          </g>
          <g
             style="clip-rule:evenodd;fill:#cccccc;fill-rule:evenodd;stroke-linejoin:round;stroke-miterlimit:1.41420996"
             transform="matrix(-1,0,0,1,341.69279,1015.9862)"
             id="g7142">
            <path
               inkscape:connector-curvature="0"
               d="m 12.452,36.118 -2.038,0 c -0.033,-5.363 -0.042,-10.727 0.06,-16.089 0.024,-0.75 0.178,-1.49 0.471,-2.182 0.319,-0.755 0.796,-1.442 1.389,-2.008 0.56,-0.534 1.222,-0.958 1.941,-1.242 0.677,-0.267 1.396,-0.402 2.123,-0.416 5.51,-0.035 11.02,-0.046 16.53,-0.034 l 0,2.094 c -5.483,-0.001 -10.966,0.023 -16.449,0.023 -0.525,0.003 -1.044,0.103 -1.528,0.308 -0.697,0.295 -1.302,0.794 -1.726,1.422 -0.178,0.264 -0.321,0.548 -0.433,0.846 -0.148,0.397 -0.222,0.819 -0.235,1.242 -0.102,5.344 -0.137,10.691 -0.105,16.036 z m -3.621,0 -2.082,0 C 6.718,30.657 6.72,25.196 6.754,19.736 c 0.007,-0.367 0.03,-0.733 0.077,-1.097 0.09,-0.708 0.26,-1.406 0.505,-2.077 0.505,-1.378 1.331,-2.633 2.393,-3.645 0.979,-0.934 2.155,-1.658 3.431,-2.108 0.675,-0.237 1.376,-0.399 2.087,-0.48 0.324,-0.037 0.649,-0.056 0.976,-0.062 5.568,-0.035 11.137,-0.036 16.705,-0.004 l 0,2.084 c -5.526,-0.03 -11.052,0.003 -16.578,0.003 -0.29,0.002 -0.579,0.016 -0.866,0.049 -0.556,0.063 -1.104,0.189 -1.632,0.375 -0.999,0.353 -1.919,0.919 -2.685,1.65 C 10.335,15.217 9.688,16.2 9.293,17.279 9.012,18.045 8.865,18.85 8.839,19.665 8.735,25.148 8.794,30.634 8.831,36.118 Z"
               style="fill:#cccccc"
               id="path7144" />
          </g>
          <g
             transform="translate(-9.3173882,24.298359)"
             id="g7164">
            <g
               id="g7146"
               transform="matrix(1,0,0,-1,346.61418,1073.5425)"
               style="clip-rule:evenodd;fill:#cccccc;fill-rule:evenodd;stroke-linejoin:round;stroke-miterlimit:1.41420996">
              <path
                 id="path7148"
                 style="fill:#cccccc;fill-rule:nonzero"
                 d="m 21.858,17.672 c 0.265,0.005 0.529,0.025 0.791,0.065 0.554,0.085 1.095,0.252 1.6,0.496 0.616,0.297 1.177,0.706 1.649,1.201 0.378,0.396 0.698,0.846 0.947,1.333 0.63,1.228 0.788,2.671 0.444,4.007 -0.104,0.404 -0.253,0.796 -0.444,1.168 -0.27,0.527 -0.623,1.011 -1.042,1.43 -0.517,0.517 -1.133,0.933 -1.806,1.218 -0.698,0.296 -1.454,0.448 -2.212,0.448 -0.758,0 -1.514,-0.152 -2.212,-0.448 -0.673,-0.285 -1.289,-0.701 -1.806,-1.218 -0.419,-0.419 -0.772,-0.903 -1.042,-1.43 -0.191,-0.372 -0.34,-0.764 -0.444,-1.168 -0.344,-1.336 -0.186,-2.779 0.444,-4.007 0.249,-0.487 0.569,-0.937 0.947,-1.333 0.472,-0.495 1.033,-0.904 1.649,-1.201 0.505,-0.244 1.046,-0.411 1.6,-0.496 0.238,-0.037 0.477,-0.056 0.718,-0.064 0.073,-10e-4 0.146,-0.002 0.219,-10e-4 z m -0.12,2.083 c -0.523,0.01 -1.04,0.127 -1.512,0.354 -0.365,0.176 -0.699,0.414 -0.986,0.701 -0.265,0.266 -0.49,0.573 -0.661,0.907 -0.398,0.778 -0.498,1.692 -0.28,2.537 0.065,0.255 0.16,0.503 0.28,0.738 0.171,0.334 0.396,0.641 0.661,0.907 0.328,0.328 0.718,0.592 1.145,0.772 0.428,0.181 0.889,0.277 1.353,0.283 0.466,0.006 0.932,-0.078 1.366,-0.249 0.404,-0.16 0.779,-0.394 1.1,-0.686 0.3,-0.273 0.553,-0.595 0.747,-0.95 0.139,-0.257 0.247,-0.532 0.32,-0.815 0.203,-0.788 0.131,-1.638 -0.204,-2.379 -0.155,-0.343 -0.365,-0.661 -0.618,-0.94 -0.292,-0.321 -0.641,-0.589 -1.027,-0.787 -0.451,-0.231 -0.946,-0.36 -1.451,-0.388 -0.078,-0.004 -0.155,-0.005 -0.233,-0.005 z"
                 inkscape:connector-curvature="0" />
            </g>
            <g
               id="g7150"
               transform="matrix(1,0,0,-1,331.79668,1063.4823)"
               style="clip-rule:evenodd;fill:#cccccc;fill-rule:evenodd;stroke-linejoin:round;stroke-miterlimit:1.41420996">
              <path
                 id="path7152"
                 style="fill:#cccccc"
                 d="m 12.452,36.118 -2.038,0 c -0.033,-5.363 -0.042,-10.727 0.06,-16.089 0.024,-0.75 0.178,-1.49 0.471,-2.182 0.319,-0.755 0.796,-1.442 1.389,-2.008 0.56,-0.534 1.222,-0.958 1.941,-1.242 0.677,-0.267 1.396,-0.402 2.123,-0.416 5.51,-0.035 11.02,-0.046 16.53,-0.034 l 0,2.094 c -5.483,-0.001 -10.966,0.023 -16.449,0.023 -0.525,0.003 -1.044,0.103 -1.528,0.308 -0.697,0.295 -1.302,0.794 -1.726,1.422 -0.178,0.264 -0.321,0.548 -0.433,0.846 -0.148,0.397 -0.222,0.819 -0.235,1.242 -0.102,5.344 -0.137,10.691 -0.105,16.036 z m -3.621,0 -2.082,0 C 6.718,30.657 6.72,25.196 6.754,19.736 c 0.007,-0.367 0.03,-0.733 0.077,-1.097 0.09,-0.708 0.26,-1.406 0.505,-2.077 0.505,-1.378 1.331,-2.633 2.393,-3.645 0.979,-0.934 2.155,-1.658 3.431,-2.108 0.675,-0.237 1.376,-0.399 2.087,-0.48 0.324,-0.037 0.649,-0.056 0.976,-0.062 5.568,-0.035 11.137,-0.036 16.705,-0.004 l 0,2.084 c -5.526,-0.03 -11.052,0.003 -16.578,0.003 -0.29,0.002 -0.579,0.016 -0.866,0.049 -0.556,0.063 -1.104,0.189 -1.632,0.375 -0.999,0.353 -1.919,0.919 -2.685,1.65 C 10.335,15.217 9.688,16.2 9.293,17.279 9.012,18.045 8.865,18.85 8.839,19.665 8.735,25.148 8.794,30.634 8.831,36.118 Z"
                 inkscape:connector-curvature="0" />
            </g>
          </g>
          <g
             id="g7180"
             transform="matrix(-1,0,0,1,347.40563,979.21888)"
             style="clip-rule:evenodd;fill:#cccccc;fill-rule:evenodd;stroke-linejoin:round;stroke-miterlimit:1.41420996">
            <path
               id="path7182"
               style="fill:#cccccc;fill-rule:nonzero"
               d="m 21.858,17.672 c 0.265,0.005 0.529,0.025 0.791,0.065 0.554,0.085 1.095,0.252 1.6,0.496 0.616,0.297 1.177,0.706 1.649,1.201 0.378,0.396 0.698,0.846 0.947,1.333 0.63,1.228 0.788,2.671 0.444,4.007 -0.104,0.404 -0.253,0.796 -0.444,1.168 -0.27,0.527 -0.623,1.011 -1.042,1.43 -0.517,0.517 -1.133,0.933 -1.806,1.218 -0.698,0.296 -1.454,0.448 -2.212,0.448 -0.758,0 -1.514,-0.152 -2.212,-0.448 -0.673,-0.285 -1.289,-0.701 -1.806,-1.218 -0.419,-0.419 -0.772,-0.903 -1.042,-1.43 -0.191,-0.372 -0.34,-0.764 -0.444,-1.168 -0.344,-1.336 -0.186,-2.779 0.444,-4.007 0.249,-0.487 0.569,-0.937 0.947,-1.333 0.472,-0.495 1.033,-0.904 1.649,-1.201 0.505,-0.244 1.046,-0.411 1.6,-0.496 0.238,-0.037 0.477,-0.056 0.718,-0.064 0.073,-10e-4 0.146,-0.002 0.219,-10e-4 z m -0.12,2.083 c -0.523,0.01 -1.04,0.127 -1.512,0.354 -0.365,0.176 -0.699,0.414 -0.986,0.701 -0.265,0.266 -0.49,0.573 -0.661,0.907 -0.398,0.778 -0.498,1.692 -0.28,2.537 0.065,0.255 0.16,0.503 0.28,0.738 0.171,0.334 0.396,0.641 0.661,0.907 0.328,0.328 0.718,0.592 1.145,0.772 0.428,0.181 0.889,0.277 1.353,0.283 0.466,0.006 0.932,-0.078 1.366,-0.249 0.404,-0.16 0.779,-0.394 1.1,-0.686 0.3,-0.273 0.553,-0.595 0.747,-0.95 0.139,-0.257 0.247,-0.532 0.32,-0.815 0.203,-0.788 0.131,-1.638 -0.204,-2.379 -0.155,-0.343 -0.365,-0.661 -0.618,-0.94 -0.292,-0.321 -0.641,-0.589 -1.027,-0.787 -0.451,-0.231 -0.946,-0.36 -1.451,-0.388 -0.078,-0.004 -0.155,-0.005 -0.233,-0.005 z"
               inkscape:connector-curvature="0" />
          </g>
          <g
             transform="matrix(0,1,-1,0,1355.5475,657.72952)"
             id="g7191">
            <path
               inkscape:connector-curvature="0"
               d="m 343.93529,1025.6042 -2.082,0 c -0.031,-5.461 -0.029,-10.922 0.005,-16.382 l 2.085,-0.071 c -0.104,5.483 -0.045,10.969 -0.008,16.453 z"
               style="clip-rule:evenodd;fill:#cccccc;fill-rule:evenodd;stroke-linejoin:round;stroke-miterlimit:1.41420996"
               id="path7186"
               sodipodi:nodetypes="ccccc" />
            <path
               sodipodi:nodetypes="ccccc"
               id="path7189"
               style="clip-rule:evenodd;fill:#cccccc;fill-rule:evenodd;stroke-linejoin:round;stroke-miterlimit:1.41420996"
               d="m 347.93529,1025.6042 -2.082,0 c -0.031,-5.461 -0.029,-10.922 0.005,-16.382 l 2.085,-0.071 c -0.104,5.483 -0.045,10.969 -0.008,16.453 z"
               inkscape:connector-curvature="0" />
          </g>
          <g
             style="clip-rule:evenodd;fill:#cccccc;fill-rule:evenodd;stroke-linejoin:round;stroke-miterlimit:1.41420996"
             transform="matrix(-1,0,0,1,371.90563,979.21888)"
             id="g7197">
            <path
               inkscape:connector-curvature="0"
               d="m 21.858,17.672 c 0.265,0.005 0.529,0.025 0.791,0.065 0.554,0.085 1.095,0.252 1.6,0.496 0.616,0.297 1.177,0.706 1.649,1.201 0.378,0.396 0.698,0.846 0.947,1.333 0.63,1.228 0.788,2.671 0.444,4.007 -0.104,0.404 -0.253,0.796 -0.444,1.168 -0.27,0.527 -0.623,1.011 -1.042,1.43 -0.517,0.517 -1.133,0.933 -1.806,1.218 -0.698,0.296 -1.454,0.448 -2.212,0.448 -0.758,0 -1.514,-0.152 -2.212,-0.448 -0.673,-0.285 -1.289,-0.701 -1.806,-1.218 -0.419,-0.419 -0.772,-0.903 -1.042,-1.43 -0.191,-0.372 -0.34,-0.764 -0.444,-1.168 -0.344,-1.336 -0.186,-2.779 0.444,-4.007 0.249,-0.487 0.569,-0.937 0.947,-1.333 0.472,-0.495 1.033,-0.904 1.649,-1.201 0.505,-0.244 1.046,-0.411 1.6,-0.496 0.238,-0.037 0.477,-0.056 0.718,-0.064 0.073,-10e-4 0.146,-0.002 0.219,-10e-4 z m -0.12,2.083 c -0.523,0.01 -1.04,0.127 -1.512,0.354 -0.365,0.176 -0.699,0.414 -0.986,0.701 -0.265,0.266 -0.49,0.573 -0.661,0.907 -0.398,0.778 -0.498,1.692 -0.28,2.537 0.065,0.255 0.16,0.503 0.28,0.738 0.171,0.334 0.396,0.641 0.661,0.907 0.328,0.328 0.718,0.592 1.145,0.772 0.428,0.181 0.889,0.277 1.353,0.283 0.466,0.006 0.932,-0.078 1.366,-0.249 0.404,-0.16 0.779,-0.394 1.1,-0.686 0.3,-0.273 0.553,-0.595 0.747,-0.95 0.139,-0.257 0.247,-0.532 0.32,-0.815 0.203,-0.788 0.131,-1.638 -0.204,-2.379 -0.155,-0.343 -0.365,-0.661 -0.618,-0.94 -0.292,-0.321 -0.641,-0.589 -1.027,-0.787 -0.451,-0.231 -0.946,-0.36 -1.451,-0.388 -0.078,-0.004 -0.155,-0.005 -0.233,-0.005 z"
               style="fill:#cccccc;fill-rule:nonzero"
               id="path7199" />
          </g>
          <g
             id="g7201"
             transform="matrix(0,1,-1,0,1379.5475,657.72952)">
            <path
               sodipodi:nodetypes="ccccc"
               id="path7203"
               style="clip-rule:evenodd;fill:#cccccc;fill-rule:evenodd;stroke-linejoin:round;stroke-miterlimit:1.41420996"
               d="m 343.93529,1025.6042 -2.082,0 c -0.031,-5.461 -0.029,-10.922 0.005,-16.382 l 2.085,-0.071 c -0.104,5.483 -0.045,10.969 -0.008,16.453 z"
               inkscape:connector-curvature="0" />
            <path
               inkscape:connector-curvature="0"
               d="m 347.93529,1025.6042 -2.082,0 c -0.031,-5.461 -0.029,-10.922 0.005,-16.382 l 2.085,-0.071 c -0.104,5.483 -0.045,10.969 -0.008,16.453 z"
               style="clip-rule:evenodd;fill:#cccccc;fill-rule:evenodd;stroke-linejoin:round;stroke-miterlimit:1.41420996"
               id="path7205"
               sodipodi:nodetypes="ccccc" />
          </g>
          <g
             id="g7207"
             transform="matrix(-1,0,0,1,395.90563,979.21888)"
             style="clip-rule:evenodd;fill:#cccccc;fill-rule:evenodd;stroke-linejoin:round;stroke-miterlimit:1.41420996">
            <path
               id="path7209"
               style="fill:#cccccc;fill-rule:nonzero"
               d="m 21.858,17.672 c 0.265,0.005 0.529,0.025 0.791,0.065 0.554,0.085 1.095,0.252 1.6,0.496 0.616,0.297 1.177,0.706 1.649,1.201 0.378,0.396 0.698,0.846 0.947,1.333 0.63,1.228 0.788,2.671 0.444,4.007 -0.104,0.404 -0.253,0.796 -0.444,1.168 -0.27,0.527 -0.623,1.011 -1.042,1.43 -0.517,0.517 -1.133,0.933 -1.806,1.218 -0.698,0.296 -1.454,0.448 -2.212,0.448 -0.758,0 -1.514,-0.152 -2.212,-0.448 -0.673,-0.285 -1.289,-0.701 -1.806,-1.218 -0.419,-0.419 -0.772,-0.903 -1.042,-1.43 -0.191,-0.372 -0.34,-0.764 -0.444,-1.168 -0.344,-1.336 -0.186,-2.779 0.444,-4.007 0.249,-0.487 0.569,-0.937 0.947,-1.333 0.472,-0.495 1.033,-0.904 1.649,-1.201 0.505,-0.244 1.046,-0.411 1.6,-0.496 0.238,-0.037 0.477,-0.056 0.718,-0.064 0.073,-10e-4 0.146,-0.002 0.219,-10e-4 z m -0.12,2.083 c -0.523,0.01 -1.04,0.127 -1.512,0.354 -0.365,0.176 -0.699,0.414 -0.986,0.701 -0.265,0.266 -0.49,0.573 -0.661,0.907 -0.398,0.778 -0.498,1.692 -0.28,2.537 0.065,0.255 0.16,0.503 0.28,0.738 0.171,0.334 0.396,0.641 0.661,0.907 0.328,0.328 0.718,0.592 1.145,0.772 0.428,0.181 0.889,0.277 1.353,0.283 0.466,0.006 0.932,-0.078 1.366,-0.249 0.404,-0.16 0.779,-0.394 1.1,-0.686 0.3,-0.273 0.553,-0.595 0.747,-0.95 0.139,-0.257 0.247,-0.532 0.32,-0.815 0.203,-0.788 0.131,-1.638 -0.204,-2.379 -0.155,-0.343 -0.365,-0.661 -0.618,-0.94 -0.292,-0.321 -0.641,-0.589 -1.027,-0.787 -0.451,-0.231 -0.946,-0.36 -1.451,-0.388 -0.078,-0.004 -0.155,-0.005 -0.233,-0.005 z"
               inkscape:connector-curvature="0" />
          </g>
          <g
             transform="matrix(0,1,-1,0,1403.5475,657.72952)"
             id="g7211">
            <path
               inkscape:connector-curvature="0"
               d="m 343.93529,1025.6042 -2.082,0 c -0.031,-5.461 -0.029,-10.922 0.005,-16.382 l 2.085,-0.071 c -0.104,5.483 -0.045,10.969 -0.008,16.453 z"
               style="clip-rule:evenodd;fill:#cccccc;fill-rule:evenodd;stroke-linejoin:round;stroke-miterlimit:1.41420996"
               id="path7213"
               sodipodi:nodetypes="ccccc" />
            <path
               sodipodi:nodetypes="ccccc"
               id="path7215"
               style="clip-rule:evenodd;fill:#cccccc;fill-rule:evenodd;stroke-linejoin:round;stroke-miterlimit:1.41420996"
               d="m 347.93529,1025.6042 -2.082,0 c -0.031,-5.461 -0.029,-10.922 0.005,-16.382 l 2.085,-0.071 c -0.104,5.483 -0.045,10.969 -0.008,16.453 z"
               inkscape:connector-curvature="0" />
          </g>
          <g
             style="clip-rule:evenodd;fill:#cccccc;fill-rule:evenodd;stroke-linejoin:round;stroke-miterlimit:1.41420996"
             transform="matrix(-1,0,0,1,419.90563,979.21888)"
             id="g7217">
            <path
               inkscape:connector-curvature="0"
               d="m 21.858,17.672 c 0.265,0.005 0.529,0.025 0.791,0.065 0.554,0.085 1.095,0.252 1.6,0.496 0.616,0.297 1.177,0.706 1.649,1.201 0.378,0.396 0.698,0.846 0.947,1.333 0.63,1.228 0.788,2.671 0.444,4.007 -0.104,0.404 -0.253,0.796 -0.444,1.168 -0.27,0.527 -0.623,1.011 -1.042,1.43 -0.517,0.517 -1.133,0.933 -1.806,1.218 -0.698,0.296 -1.454,0.448 -2.212,0.448 -0.758,0 -1.514,-0.152 -2.212,-0.448 -0.673,-0.285 -1.289,-0.701 -1.806,-1.218 -0.419,-0.419 -0.772,-0.903 -1.042,-1.43 -0.191,-0.372 -0.34,-0.764 -0.444,-1.168 -0.344,-1.336 -0.186,-2.779 0.444,-4.007 0.249,-0.487 0.569,-0.937 0.947,-1.333 0.472,-0.495 1.033,-0.904 1.649,-1.201 0.505,-0.244 1.046,-0.411 1.6,-0.496 0.238,-0.037 0.477,-0.056 0.718,-0.064 0.073,-10e-4 0.146,-0.002 0.219,-10e-4 z m -0.12,2.083 c -0.523,0.01 -1.04,0.127 -1.512,0.354 -0.365,0.176 -0.699,0.414 -0.986,0.701 -0.265,0.266 -0.49,0.573 -0.661,0.907 -0.398,0.778 -0.498,1.692 -0.28,2.537 0.065,0.255 0.16,0.503 0.28,0.738 0.171,0.334 0.396,0.641 0.661,0.907 0.328,0.328 0.718,0.592 1.145,0.772 0.428,0.181 0.889,0.277 1.353,0.283 0.466,0.006 0.932,-0.078 1.366,-0.249 0.404,-0.16 0.779,-0.394 1.1,-0.686 0.3,-0.273 0.553,-0.595 0.747,-0.95 0.139,-0.257 0.247,-0.532 0.32,-0.815 0.203,-0.788 0.131,-1.638 -0.204,-2.379 -0.155,-0.343 -0.365,-0.661 -0.618,-0.94 -0.292,-0.321 -0.641,-0.589 -1.027,-0.787 -0.451,-0.231 -0.946,-0.36 -1.451,-0.388 -0.078,-0.004 -0.155,-0.005 -0.233,-0.005 z"
               style="fill:#cccccc;fill-rule:nonzero"
               id="path7219" />
          </g>
          <g
             id="g7221"
             transform="matrix(0.70710678,0.70710678,-0.70710678,0.70710678,807.94231,27.850006)">
            <path
               sodipodi:nodetypes="ccsccscc"
               id="path7223"
               style="clip-rule:evenodd;fill:#cccccc;fill-rule:evenodd;stroke-linejoin:round;stroke-miterlimit:1.41420996"
               d="m 344.74779,1027.6201 -0.85529,1.1642 c -0.004,-0.7524 -2.14325,-4.6426 -2.15036,-5.4835 -0.0445,-5.2623 0.0868,-26.34146 0.11615,-31.04916 l 2.085,-0.071 c -0.0945,4.9807 -0.2419,25.87196 -0.2061,30.85386 0.004,0.5024 1.31969,3.1457 1.32308,3.6481 z"
               inkscape:connector-curvature="0" />
            <path
               inkscape:connector-curvature="0"
               d="m 347.93529,1025.6042 -2.082,0 c -0.031,-5.461 -0.029,-27.89256 0.005,-33.35256 l 2.085,-0.071 c -0.104,5.483 -0.045,27.93956 -0.008,33.42356 z"
               style="clip-rule:evenodd;fill:#cccccc;fill-rule:evenodd;stroke-linejoin:round;stroke-miterlimit:1.41420996"
               id="path7225"
               sodipodi:nodetypes="ccccc" />
          </g>
          <g
             transform="matrix(0.70710678,0.70710678,-0.70710678,0.70710678,831.94231,27.850006)"
             id="g7227">
            <path
               inkscape:connector-curvature="0"
               d="m 344.74779,1027.6201 -0.85529,1.1642 c -0.004,-0.7524 -2.14325,-4.6426 -2.15036,-5.4835 -0.0445,-5.2623 0.0868,-26.34146 0.11615,-31.04916 l 2.085,-0.071 c -0.0945,4.9807 -0.2419,25.87196 -0.2061,30.85386 0.004,0.5024 1.31969,3.1457 1.32308,3.6481 z"
               style="clip-rule:evenodd;fill:#cccccc;fill-rule:evenodd;stroke-linejoin:round;stroke-miterlimit:1.41420996"
               id="path7229"
               sodipodi:nodetypes="ccsccscc" />
            <path
               sodipodi:nodetypes="ccccc"
               id="path7231"
               style="clip-rule:evenodd;fill:#cccccc;fill-rule:evenodd;stroke-linejoin:round;stroke-miterlimit:1.41420996"
               d="m 347.93529,1025.6042 -2.082,0 c -0.031,-5.461 -0.029,-27.89256 0.005,-33.35256 l 2.085,-0.071 c -0.104,5.483 -0.045,27.93956 -0.008,33.42356 z"
               inkscape:connector-curvature="0" />
          </g>
          <g
             id="g7233"
             transform="matrix(0.70710678,0.70710678,-0.70710678,0.70710678,855.94231,27.850006)">
            <path
               sodipodi:nodetypes="ccsccscc"
               id="path7235"
               style="clip-rule:evenodd;fill:#cccccc;fill-rule:evenodd;stroke-linejoin:round;stroke-miterlimit:1.41420996"
               d="m 344.74779,1027.6201 -0.85529,1.1642 c -0.004,-0.7524 -2.14325,-4.6426 -2.15036,-5.4835 -0.0445,-5.2623 0.0868,-26.34146 0.11615,-31.04916 l 2.085,-0.071 c -0.0945,4.9807 -0.2419,25.87196 -0.2061,30.85386 0.004,0.5024 1.31969,3.1457 1.32308,3.6481 z"
               inkscape:connector-curvature="0" />
            <path
               inkscape:connector-curvature="0"
               d="m 347.93529,1025.6042 -2.082,0 c -0.031,-5.461 -0.029,-27.89256 0.005,-33.35256 l 2.085,-0.071 c -0.104,5.483 -0.045,27.93956 -0.008,33.42356 z"
               style="clip-rule:evenodd;fill:#cccccc;fill-rule:evenodd;stroke-linejoin:round;stroke-miterlimit:1.41420996"
               id="path7237"
               sodipodi:nodetypes="ccccc" />
          </g>
          <g
             id="g7239"
             transform="matrix(-1,0,0,1,422.49402,947.5421)"
             style="clip-rule:evenodd;fill:#cccccc;fill-rule:evenodd;stroke-linejoin:round;stroke-miterlimit:1.41420996">
            <path
               id="path7241"
               style="fill:#cccccc;fill-rule:nonzero"
               d="m 21.858,17.672 c 0.265,0.005 0.529,0.025 0.791,0.065 0.554,0.085 1.095,0.252 1.6,0.496 0.616,0.297 1.177,0.706 1.649,1.201 0.378,0.396 0.698,0.846 0.947,1.333 0.63,1.228 0.788,2.671 0.444,4.007 -0.104,0.404 -0.253,0.796 -0.444,1.168 -0.27,0.527 -0.623,1.011 -1.042,1.43 -0.517,0.517 -1.133,0.933 -1.806,1.218 -0.698,0.296 -1.454,0.448 -2.212,0.448 -0.758,0 -1.514,-0.152 -2.212,-0.448 -0.673,-0.285 -1.289,-0.701 -1.806,-1.218 -0.419,-0.419 -0.772,-0.903 -1.042,-1.43 -0.191,-0.372 -0.34,-0.764 -0.444,-1.168 -0.344,-1.336 -0.186,-2.779 0.444,-4.007 0.249,-0.487 0.569,-0.937 0.947,-1.333 0.472,-0.495 1.033,-0.904 1.649,-1.201 0.505,-0.244 1.046,-0.411 1.6,-0.496 0.238,-0.037 0.477,-0.056 0.718,-0.064 0.073,-10e-4 0.146,-0.002 0.219,-10e-4 z m -0.12,2.083 c -0.523,0.01 -1.04,0.127 -1.512,0.354 -0.365,0.176 -0.699,0.414 -0.986,0.701 -0.265,0.266 -0.49,0.573 -0.661,0.907 -0.398,0.778 -0.498,1.692 -0.28,2.537 0.065,0.255 0.16,0.503 0.28,0.738 0.171,0.334 0.396,0.641 0.661,0.907 0.328,0.328 0.718,0.592 1.145,0.772 0.428,0.181 0.889,0.277 1.353,0.283 0.466,0.006 0.932,-0.078 1.366,-0.249 0.404,-0.16 0.779,-0.394 1.1,-0.686 0.3,-0.273 0.553,-0.595 0.747,-0.95 0.139,-0.257 0.247,-0.532 0.32,-0.815 0.203,-0.788 0.131,-1.638 -0.204,-2.379 -0.155,-0.343 -0.365,-0.661 -0.618,-0.94 -0.292,-0.321 -0.641,-0.589 -1.027,-0.787 -0.451,-0.231 -0.946,-0.36 -1.451,-0.388 -0.078,-0.004 -0.155,-0.005 -0.233,-0.005 z"
               inkscape:connector-curvature="0" />
          </g>
          <g
             style="clip-rule:evenodd;fill:#cccccc;fill-rule:evenodd;stroke-linejoin:round;stroke-miterlimit:1.41420996"
             transform="matrix(-1,0,0,1,398.49402,947.5421)"
             id="g7243">
            <path
               inkscape:connector-curvature="0"
               d="m 21.858,17.672 c 0.265,0.005 0.529,0.025 0.791,0.065 0.554,0.085 1.095,0.252 1.6,0.496 0.616,0.297 1.177,0.706 1.649,1.201 0.378,0.396 0.698,0.846 0.947,1.333 0.63,1.228 0.788,2.671 0.444,4.007 -0.104,0.404 -0.253,0.796 -0.444,1.168 -0.27,0.527 -0.623,1.011 -1.042,1.43 -0.517,0.517 -1.133,0.933 -1.806,1.218 -0.698,0.296 -1.454,0.448 -2.212,0.448 -0.758,0 -1.514,-0.152 -2.212,-0.448 -0.673,-0.285 -1.289,-0.701 -1.806,-1.218 -0.419,-0.419 -0.772,-0.903 -1.042,-1.43 -0.191,-0.372 -0.34,-0.764 -0.444,-1.168 -0.344,-1.336 -0.186,-2.779 0.444,-4.007 0.249,-0.487 0.569,-0.937 0.947,-1.333 0.472,-0.495 1.033,-0.904 1.649,-1.201 0.505,-0.244 1.046,-0.411 1.6,-0.496 0.238,-0.037 0.477,-0.056 0.718,-0.064 0.073,-10e-4 0.146,-0.002 0.219,-10e-4 z m -0.12,2.083 c -0.523,0.01 -1.04,0.127 -1.512,0.354 -0.365,0.176 -0.699,0.414 -0.986,0.701 -0.265,0.266 -0.49,0.573 -0.661,0.907 -0.398,0.778 -0.498,1.692 -0.28,2.537 0.065,0.255 0.16,0.503 0.28,0.738 0.171,0.334 0.396,0.641 0.661,0.907 0.328,0.328 0.718,0.592 1.145,0.772 0.428,0.181 0.889,0.277 1.353,0.283 0.466,0.006 0.932,-0.078 1.366,-0.249 0.404,-0.16 0.779,-0.394 1.1,-0.686 0.3,-0.273 0.553,-0.595 0.747,-0.95 0.139,-0.257 0.247,-0.532 0.32,-0.815 0.203,-0.788 0.131,-1.638 -0.204,-2.379 -0.155,-0.343 -0.365,-0.661 -0.618,-0.94 -0.292,-0.321 -0.641,-0.589 -1.027,-0.787 -0.451,-0.231 -0.946,-0.36 -1.451,-0.388 -0.078,-0.004 -0.155,-0.005 -0.233,-0.005 z"
               style="fill:#cccccc;fill-rule:nonzero"
               id="path7245" />
          </g>
          <g
             style="clip-rule:evenodd;fill:#cccccc;fill-rule:evenodd;stroke-linejoin:round;stroke-miterlimit:1.41420996"
             transform="matrix(-1,0,0,1,374.58241,947.5421)"
             id="g7247">
            <path
               inkscape:connector-curvature="0"
               d="m 21.858,17.672 c 0.265,0.005 0.529,0.025 0.791,0.065 0.554,0.085 1.095,0.252 1.6,0.496 0.616,0.297 1.177,0.706 1.649,1.201 0.378,0.396 0.698,0.846 0.947,1.333 0.63,1.228 0.788,2.671 0.444,4.007 -0.104,0.404 -0.253,0.796 -0.444,1.168 -0.27,0.527 -0.623,1.011 -1.042,1.43 -0.517,0.517 -1.133,0.933 -1.806,1.218 -0.698,0.296 -1.454,0.448 -2.212,0.448 -0.758,0 -1.514,-0.152 -2.212,-0.448 -0.673,-0.285 -1.289,-0.701 -1.806,-1.218 -0.419,-0.419 -0.772,-0.903 -1.042,-1.43 -0.191,-0.372 -0.34,-0.764 -0.444,-1.168 -0.344,-1.336 -0.186,-2.779 0.444,-4.007 0.249,-0.487 0.569,-0.937 0.947,-1.333 0.472,-0.495 1.033,-0.904 1.649,-1.201 0.505,-0.244 1.046,-0.411 1.6,-0.496 0.238,-0.037 0.477,-0.056 0.718,-0.064 0.073,-10e-4 0.146,-0.002 0.219,-10e-4 z m -0.12,2.083 c -0.523,0.01 -1.04,0.127 -1.512,0.354 -0.365,0.176 -0.699,0.414 -0.986,0.701 -0.265,0.266 -0.49,0.573 -0.661,0.907 -0.398,0.778 -0.498,1.692 -0.28,2.537 0.065,0.255 0.16,0.503 0.28,0.738 0.171,0.334 0.396,0.641 0.661,0.907 0.328,0.328 0.718,0.592 1.145,0.772 0.428,0.181 0.889,0.277 1.353,0.283 0.466,0.006 0.932,-0.078 1.366,-0.249 0.404,-0.16 0.779,-0.394 1.1,-0.686 0.3,-0.273 0.553,-0.595 0.747,-0.95 0.139,-0.257 0.247,-0.532 0.32,-0.815 0.203,-0.788 0.131,-1.638 -0.204,-2.379 -0.155,-0.343 -0.365,-0.661 -0.618,-0.94 -0.292,-0.321 -0.641,-0.589 -1.027,-0.787 -0.451,-0.231 -0.946,-0.36 -1.451,-0.388 -0.078,-0.004 -0.155,-0.005 -0.233,-0.005 z"
               style="fill:#cccccc;fill-rule:nonzero"
               id="path7249" />
          </g>
        </g>
      </g>
    </g>
  </g>
</svg>
