<?xml version="1.0" encoding="UTF-8" standalone="no"?>
<!-- Created with Inkscape (http://www.inkscape.org/) -->

<svg
   xmlns:dc="http://purl.org/dc/elements/1.1/"
   xmlns:cc="http://creativecommons.org/ns#"
   xmlns:rdf="http://www.w3.org/1999/02/22-rdf-syntax-ns#"
   xmlns:svg="http://www.w3.org/2000/svg"
   xmlns="http://www.w3.org/2000/svg"
   xmlns:sodipodi="http://sodipodi.sourceforge.net/DTD/sodipodi-0.dtd"
   xmlns:inkscape="http://www.inkscape.org/namespaces/inkscape"
   width="42.333332mm"
   height="42.333332mm"
   viewBox="0 0 149.99999 150"
   id="svg4759"
   version="1.1"
   inkscape:version="0.91 r13725"
   sodipodi:docname="Communication-Infrastructure.svg">
  <defs
     id="defs4761">
    <filter
       inkscape:collect="always"
       style="color-interpolation-filters:sRGB"
       id="filter4300"
       x="-0.059999238"
       width="1.1199985"
       y="-0.060000762"
       height="1.1200015">
      <feGaussianBlur
         inkscape:collect="always"
         stdDeviation="2.1360264"
         id="feGaussianBlur4302" />
    </filter>
    <filter
       inkscape:collect="always"
       style="color-interpolation-filters:sRGB"
       id="filter4510"
       x="-0.10707211"
       width="1.2141442"
       y="-0.13647841"
       height="1.2729568">
      <feGaussianBlur
         inkscape:collect="always"
         stdDeviation="4.0174347"
         id="feGaussianBlur4512" />
    </filter>
  </defs>
  <sodipodi:namedview
     id="base"
     pagecolor="#ffffff"
     bordercolor="#666666"
     borderopacity="1.0"
     inkscape:pageopacity="0.0"
     inkscape:pageshadow="2"
     inkscape:zoom="2"
     inkscape:cx="23.77422"
     inkscape:cy="99.879672"
     inkscape:document-units="px"
     inkscape:current-layer="layer1"
     showgrid="false"
     fit-margin-top="0"
     fit-margin-left="0"
     fit-margin-right="0"
     fit-margin-bottom="0"
     inkscape:window-width="1366"
     inkscape:window-height="713"
     inkscape:window-x="0"
     inkscape:window-y="27"
     inkscape:window-maximized="1"
     showborder="false"
     showguides="true"
     inkscape:guide-bbox="true" />
  <metadata
     id="metadata4764">
    <rdf:RDF>
      <cc:Work
         rdf:about="">
        <dc:format>image/svg+xml</dc:format>
        <dc:type
           rdf:resource="http://purl.org/dc/dcmitype/StillImage" />
        <dc:title></dc:title>
      </cc:Work>
    </rdf:RDF>
  </metadata>
  <g
     inkscape:label="Layer 1"
     inkscape:groupmode="layer"
     id="layer1"
     transform="translate(-263.37482,-945.53693)">
    <g
       id="g4518"
       inkscape:export-xdpi="90"
       inkscape:export-ydpi="90">
      <rect
         ry="0"
         rx="0"
         style="opacity:1;fill:#b3b3b3;fill-opacity:1;stroke:none;stroke-width:6.79094839;stroke-linecap:round;stroke-linejoin:round;stroke-miterlimit:4;stroke-dasharray:none;stroke-dashoffset:0;stroke-opacity:1"
         id="rect5453"
         width="150"
         height="150"
         x="259.47977"
         y="941.85193" />
      <g
         transform="matrix(0.83598877,0,0,0.83598877,81.858441,193.77515)"
         id="g4304">
        <path
           style="fill:#000000;filter:url(#filter4300)"
           id="path3498"
           d="m 375.7188,1034.3349 -16.85,-8.532 15.95,-8.246 c 0.508,-0.264 0.508,-0.688 -0.003,-0.945 l -17.988,-9.107 18.912,-9.77797 c 0.919,-0.477 1.464,-1.323 1.459,-2.264 -0.006,-0.939 -0.561,-1.777 -1.48,-2.241 l -36.884,-18.672 c -0.683,-0.345 -1.396,-0.418 -1.875,-0.418 -0.44,0 -1.098,0.062 -1.735,0.36 l -41.928,19.629 c -0.954,0.447 -1.529,1.283 -1.538,2.235 -0.009,0.953 0.552,1.8 1.499,2.266 l 20.139,9.90297 -19.251,9.012 c -0.514,0.241 -0.516,0.643 -0.005,0.894 l 17.094,8.406 -17.938,8.396 c -0.955,0.447 -1.53,1.283 -1.538,2.235 -0.008,0.953 0.553,1.8 1.499,2.264 l 39.554,19.452 c 0.651,0.321 1.327,0.388 1.779,0.388 0.476,0 1.186,-0.073 1.872,-0.425 l 39.279,-20.308 c 0.919,-0.477 1.464,-1.323 1.459,-2.264 -0.008,-0.938 -0.562,-1.777 -1.482,-2.24 z m -38.865,-56.19397 c 0.01,-0.002 0.049,-0.009 0.106,-0.009 0.061,0 0.106,0.008 0.082,-0.006 l 34.309,17.368 -36.657,18.95797 c -0.01,0 -0.048,0.01 -0.103,0.01 l -0.014,0.021 -36.745,-18.06897 39.022,-18.273 z m -2.155,77.42097 c -0.011,0 -0.051,0.01 -0.109,0.01 l -0.012,0.023 -36.744,-18.07 17.375,-8.134 17.601,8.655 c 0.652,0.321 1.328,0.389 1.78,0.389 0.477,0 1.188,-0.074 1.87,-0.426 l 18.634,-9.633 16.255,8.23 -36.65,18.956 z"
           inkscape:connector-curvature="0" />
        <path
           inkscape:connector-curvature="0"
           d="m 375.7188,1034.3349 -16.85,-8.532 15.95,-8.246 c 0.508,-0.264 0.508,-0.688 -0.003,-0.945 l -17.988,-9.107 18.912,-9.77797 c 0.919,-0.477 1.464,-1.323 1.459,-2.264 -0.006,-0.939 -0.561,-1.777 -1.48,-2.241 l -36.884,-18.672 c -0.683,-0.345 -1.396,-0.418 -1.875,-0.418 -0.44,0 -1.098,0.062 -1.735,0.36 l -41.928,19.629 c -0.954,0.447 -1.529,1.283 -1.538,2.235 -0.009,0.953 0.552,1.8 1.499,2.266 l 20.139,9.90297 -19.251,9.012 c -0.514,0.241 -0.516,0.643 -0.005,0.894 l 17.094,8.406 -17.938,8.396 c -0.955,0.447 -1.53,1.283 -1.538,2.235 -0.008,0.953 0.553,1.8 1.499,2.264 l 39.554,19.452 c 0.651,0.321 1.327,0.388 1.779,0.388 0.476,0 1.186,-0.073 1.872,-0.425 l 39.279,-20.308 c 0.919,-0.477 1.464,-1.323 1.459,-2.264 -0.008,-0.938 -0.562,-1.777 -1.482,-2.24 z m -38.865,-56.19397 c 0.01,-0.002 0.049,-0.009 0.106,-0.009 0.061,0 0.106,0.008 0.082,-0.006 l 34.309,17.368 -36.657,18.95797 c -0.01,0 -0.048,0.01 -0.103,0.01 l -0.014,0.021 -36.745,-18.06897 39.022,-18.273 z m -2.155,77.42097 c -0.011,0 -0.051,0.01 -0.109,0.01 l -0.012,0.023 -36.744,-18.07 17.375,-8.134 17.601,8.655 c 0.652,0.321 1.328,0.389 1.78,0.389 0.477,0 1.188,-0.074 1.87,-0.426 l 18.634,-9.633 16.255,8.23 -36.65,18.956 z"
           id="path3478"
           style="fill:#333333" />
      </g>
      <g
         transform="matrix(0.91463118,0,0,0.91463118,30.301838,86.392937)"
         id="g4514">
        <path
           style="fill:#323232;fill-opacity:1;filter:url(#filter4510)"
           id="path3704"
           d="m 355.07593,960.95699 c -0.009,0.003 -0.029,0.003 -0.054,0.005 l 0.054,-0.005 z m -0.054,0.005 c -1.225,0.066 -20.677,-0.743 -20.677,-0.743 l 5.153,3.127 -15.892,0.295 5.448,3.596 -12.691,0.601 20.213,2.063 -5.706,-4.374 18.923,1.822 -8.606,-5.122 13.835,-1.265 z m -22.158,18.037 1.433,5.853 -11.445,-11.026 1.307,6.394 -9.396,-8.549 12.832,15.74901 -0.942,-7.12501 12.094,14.66801 -2.462,-9.70801 10.673,8.88801 c -0.922,-0.83 -14.094,-15.14401 -14.094,-15.14401 z m 14.094,15.14401 c 0.02,0.017 0.035,0.03 0.044,0.036 l -0.044,-0.036 z m -40.289,-32.49301 -2.734,-0.611 1.089,-0.474 c 0.068,-0.03 0.109,-0.1 0.1,-0.174 -0.008,-0.073 -0.063,-0.133 -0.135,-0.147 l -3.503,-0.68 0.924,-0.361 c 0.071,-0.027 0.116,-0.1 0.106,-0.177 -0.009,-0.077 -0.069,-0.138 -0.145,-0.147 -1.732,-0.229 -5.075,-0.677 -5.336,-0.736 l -10e-4,0 c -0.003,0 -0.006,-0.001 -0.008,-0.003 -0.087,-0.023 -0.175,0.025 -0.204,0.109 -0.029,0.085 0.014,0.177 0.096,0.211 0.005,0.001 0.012,0.004 0.02,0.007 l 3.015,0.815 -1.959,0.746 c -0.073,0.029 -0.118,0.104 -0.107,0.182 0.012,0.078 0.075,0.138 0.154,0.144 l 4.364,0.337 -1.142,0.597 c -0.067,0.036 -0.102,0.11 -0.087,0.185 0.016,0.074 0.078,0.127 0.153,0.133 l 5.292,0.378 c 0.005,0 0.009,0 0.012,0 0.083,0 0.154,-0.06 0.167,-0.144 0.011,-0.088 -0.045,-0.171 -0.131,-0.19 z m 0.619,-7.787 0.824,0.552 c 0.064,0.043 0.149,0.038 0.207,-0.014 0.057,-0.052 0.073,-0.135 0.038,-0.203 -0.801,-1.553 -2.342,-4.557 -2.442,-4.803 l 0,0 c -0.001,-0.003 -0.002,-0.005 -0.003,-0.008 -0.03,-0.085 -0.118,-0.129 -0.206,-0.105 -0.085,0.025 -0.136,0.112 -0.118,0.199 0.001,0.004 0.004,0.012 0.006,0.02 l 0,0 1.051,2.941 -1.731,-1.183 c -0.065,-0.044 -0.152,-0.038 -0.21,0.014 -0.058,0.055 -0.07,0.142 -0.03,0.211 l 2.213,3.776 -1.142,-0.599 c -0.068,-0.035 -0.149,-0.021 -0.201,0.034 -0.052,0.055 -0.061,0.136 -0.023,0.202 l 2.71,4.562 c 0.031,0.053 0.087,0.083 0.144,0.083 0.026,0 0.051,-0.005 0.075,-0.018 0.079,-0.039 0.114,-0.133 0.081,-0.214 l -1.057,-2.594 1.011,0.624 c 0.064,0.039 0.144,0.032 0.2,-0.016 0.055,-0.049 0.073,-0.129 0.044,-0.196 l -1.441,-3.265 z m 5.822,4.479 c 0.004,0.074 0.056,0.137 0.127,0.155 0.073,0.018 0.147,-0.012 0.185,-0.075 l 1.86,-3.045 0.016,0.992 c 10e-4,0.075 0.054,0.143 0.129,0.16 0.075,0.018 0.152,-0.017 0.188,-0.085 0.82,-1.546 2.41,-4.524 2.551,-4.744 l 10e-4,0 c 0.001,-0.003 0.003,-0.004 0.005,-0.007 0.052,-0.073 0.038,-0.173 -0.031,-0.229 -0.07,-0.057 -0.17,-0.049 -0.231,0.017 -0.003,0.004 -0.008,0.009 -0.012,0.016 l -0.007,0.01 c -0.001,0 -0.001,0 -0.001,0 l -1.808,2.531 -0.016,-2.098 c -10e-4,-0.078 -0.057,-0.146 -0.133,-0.163 -0.079,-0.017 -0.155,0.022 -0.188,0.094 l -1.839,3.972 -0.161,-1.279 c -0.008,-0.074 -0.067,-0.134 -0.142,-0.146 -0.073,-0.01 -0.147,0.027 -0.178,0.097 l -2.202,4.827 c -0.036,0.081 -0.005,0.175 0.072,0.218 0.026,0.014 0.053,0.021 0.081,0.021 0.055,0 0.109,-0.029 0.141,-0.077 l 1.528,-2.349 0.065,1.187 z m 1.814,4.37 c -0.059,0.046 -0.081,0.124 -0.055,0.192 0.026,0.07 0.093,0.114 0.168,0.11 l 3.563,-0.211 -0.805,0.578 c -0.063,0.044 -0.087,0.126 -0.059,0.198 0.025,0.065 0.088,0.108 0.157,0.108 0.007,0 0.013,0 0.02,-0.001 1.729,-0.208 5.062,-0.601 5.348,-0.611 l 0.012,0 c 0.083,0.007 0.164,-0.068 0.17,-0.157 0.006,-0.088 -0.057,-0.168 -0.146,-0.179 -0.007,-10e-4 -0.021,0.004 -0.036,-10e-4 l -3.106,-0.042 1.713,-1.209 c 0.064,-0.046 0.088,-0.129 0.058,-0.203 -0.03,-0.071 -0.106,-0.114 -0.185,-0.101 l -4.311,0.757 0.959,-0.862 c 0.056,-0.049 0.071,-0.131 0.038,-0.199 -0.032,-0.069 -0.105,-0.105 -0.181,-0.092 l -5.221,0.948 c -0.088,0.016 -0.147,0.096 -0.138,0.183 0.009,0.088 0.08,0.151 0.174,0.151 l 2.8,-0.086 -0.937,0.729 z m -49.843,-2.641 -0.055,-0.005 c 0.009,10e-4 0.03,0.003 0.055,0.005 z m 24.061,5.015 -5.787,4.267 20.246,-1.686 -12.676,-0.837 5.513,-3.494 -15.883,-0.593 5.211,-3.028 c 0,0 -19.461,0.444 -20.686,0.355 l 13.806,1.525 -8.701,4.959 18.957,-1.468 z m 7.862,8.446 -11.65,10.812 1.542,-5.826 c 0,0 -13.44,14.07001 -14.375,14.87801 l 10.839,-8.68601 -2.646,9.66101 12.367,-14.44001 -1.074,7.10701 13.123,-15.50801 -9.554,8.372 1.428,-6.37 z m -24.483,19.86401 -0.044,0.035 c 0.009,0 0.024,-0.018 0.044,-0.035 z m 43.123,-3.755 c -0.421,-1.473 -0.846,-2.96001 -1.271,-4.44501 l -0.998,2.38401 2.269,2.061 z m -3.025,-10.58001 -0.324,1.131 1.061,1.444 c -0.249,-0.865 -0.494,-1.726 -0.737,-2.575 z m -1.786,6.212 1.744,1.583 1.218,-2.906 -1.855,-2.527 -1.107,3.85 z m 7.668,14.38101 c -0.642,-2.254 -1.338,-4.693 -2.062,-7.227 l -1.682,4.131 3.744,3.096 z m -7.562,-6.254 2.999,2.48 1.908,-4.686 -2.888,-2.62 -2.019,4.826 z m 10.781,17.625 c -0.42,-1.522 -1.31,-4.664 -2.453,-8.684 l -2.959,6.258 5.412,2.426 z m -10.873,-4.871 4.534,2.032 3.331,-7.041 -4.356,-3.602 -3.509,8.611 z m -0.339,-26.68101 0,3.258 0.673,-2.341 -0.673,-0.917 z m 0,39.02301 4.441,-9.393 -4.441,-1.989 0,11.382 z m 0,-32.14801 0,5.45301 1.655,-3.95 -1.655,-1.50301 z m 0,8.01401 0,9.935 3.028,-7.432 -3.028,-2.503 z m 11.624,19.07 -5.835,-2.586 c 0,0 -5.046,8.27 -5.23,8.629 -0.298,0.576 -1.471,0.576 -1.687,0.117 -0.066,-0.14 -0.126,-0.29 -0.178,-0.432 -0.271,-0.038 -0.571,-0.108 -0.622,-0.217 l -4.836,-9.426 -6.399,2.867 c -0.157,0.07 -0.34,0.057 -0.484,-0.038 -0.145,-0.094 -0.232,-0.253 -0.232,-0.426 0,-0.121 0,-0.26 6.26,-22.173 1.274,-4.45701 2.554,-8.93101 3.62,-12.65801 0.002,-0.005 0.003,-0.009 0.004,-0.014 0.542,-1.891 1.028,-3.587 1.43,-4.991 -1.675,-0.813 -2.833,-2.524 -2.833,-4.511 0,-2.771 2.247,-5.018 5.018,-5.018 2.772,0 5.02,2.247 5.02,5.018 0,1.961 -1.128,3.654 -2.768,4.479 11.312,39.43101 11.533,39.86001 11.554,39.94701 0.267,1.175 -0.61,1.79 -1.802,1.433 z m -15.869,-31.79601 1.063,-1.444 -0.325,-1.131 c -0.244,0.849 -0.489,1.71 -0.738,2.575 z m -0.44,2.314 1.217,2.906 1.746,-1.583 -1.107,-3.85 -1.856,2.527 z m -1.849,5.69101 2.269,-2.061 -0.998,-2.38401 c -0.425,1.486 -0.851,2.97301 -1.271,4.44501 z m -0.202,1.554 1.91,4.686 2.999,-2.48 -2.022,-4.826 -2.887,2.62 z m -2.654,8.459 3.743,-3.096 -1.682,-4.131 c -0.723,2.533 -1.42,4.973 -2.061,7.227 z m 2.192,8.946 -2.958,-6.258 c -1.144,4.02 -2.033,7.162 -2.453,8.684 l 5.411,-2.426 z m 0.926,-0.415 4.535,-2.032 -3.508,-8.611 -4.356,3.602 3.329,7.041 z m 4.875,-1.071 -4.441,1.989 4.441,9.393 0,-11.382 z m 0,-12.752 -3.028,2.503 3.028,7.432 0,-9.935 z m 0,-8.01401 -1.655,1.50301 1.655,3.95 0,-5.45301 z m 0,-6.875 -0.673,0.918 0.673,2.341 0,-3.259 z m 0,-6.987 c -0.072,-0.015 -0.141,-0.037 -0.212,-0.055 -0.438,1.528 -0.897,3.13 -1.372,4.789 l 0.558,1.937 1.026,-1.396 0,-5.275 z m 1.119,-0.764 c 2.235,0 4.046,-1.812 4.046,-4.047 0,-1.3 -0.615,-2.457 -1.569,-3.197 0.533,0.684 0.848,1.544 0.848,2.477 0,2.236 -1.811,4.048 -4.046,4.048 -0.934,0 -1.794,-0.317 -2.478,-0.849 0.74,0.953 1.898,1.568 3.199,1.568 z m 12.761,40.19901 c 0,-0.089 -10e-4,-0.357 -11.249,-39.60101 -0.317,0.108 -0.647,0.185 -0.989,0.227 0.428,1.493 0.875,3.057 1.339,4.674 l -0.557,1.937 -1.027,-1.396 0,-5.191 c -0.126,0.009 -0.252,0.019 -0.381,0.019 -0.001,0 -0.002,0 -0.003,0 l 0,5.286 c 0.004,0.032 0.004,0.066 0,0.099 l 0,40.71401 c 0,0.168 -0.082,0.318 -0.211,0.411 0.028,0 0.073,0.01 0.098,0.01 l 0.044,0.01 c 0.194,0 0.346,-0.083 0.431,-0.264 l 5.388,-9.331 6.401,2.867 c 0.157,0.07 0.339,0.057 0.483,-0.038 0.146,-0.093 0.233,-0.253 0.233,-0.426 z"
           inkscape:connector-curvature="0" />
        <path
           inkscape:connector-curvature="0"
           d="m 355.07593,960.95699 c -0.009,0.003 -0.029,0.003 -0.054,0.005 l 0.054,-0.005 z m -0.054,0.005 c -1.225,0.066 -20.677,-0.743 -20.677,-0.743 l 5.153,3.127 -15.892,0.295 5.448,3.596 -12.691,0.601 20.213,2.063 -5.706,-4.374 18.923,1.822 -8.606,-5.122 13.835,-1.265 z m -22.158,18.037 1.433,5.853 -11.445,-11.026 1.307,6.394 -9.396,-8.549 12.832,15.74901 -0.942,-7.12501 12.094,14.66801 -2.462,-9.70801 10.673,8.88801 c -0.922,-0.83 -14.094,-15.14401 -14.094,-15.14401 z m 14.094,15.14401 c 0.02,0.017 0.035,0.03 0.044,0.036 l -0.044,-0.036 z m -40.289,-32.49301 -2.734,-0.611 1.089,-0.474 c 0.068,-0.03 0.109,-0.1 0.1,-0.174 -0.008,-0.073 -0.063,-0.133 -0.135,-0.147 l -3.503,-0.68 0.924,-0.361 c 0.071,-0.027 0.116,-0.1 0.106,-0.177 -0.009,-0.077 -0.069,-0.138 -0.145,-0.147 -1.732,-0.229 -5.075,-0.677 -5.336,-0.736 l -10e-4,0 c -0.003,0 -0.006,-0.001 -0.008,-0.003 -0.087,-0.023 -0.175,0.025 -0.204,0.109 -0.029,0.085 0.014,0.177 0.096,0.211 0.005,0.001 0.012,0.004 0.02,0.007 l 3.015,0.815 -1.959,0.746 c -0.073,0.029 -0.118,0.104 -0.107,0.182 0.012,0.078 0.075,0.138 0.154,0.144 l 4.364,0.337 -1.142,0.597 c -0.067,0.036 -0.102,0.11 -0.087,0.185 0.016,0.074 0.078,0.127 0.153,0.133 l 5.292,0.378 c 0.005,0 0.009,0 0.012,0 0.083,0 0.154,-0.06 0.167,-0.144 0.011,-0.088 -0.045,-0.171 -0.131,-0.19 z m 0.619,-7.787 0.824,0.552 c 0.064,0.043 0.149,0.038 0.207,-0.014 0.057,-0.052 0.073,-0.135 0.038,-0.203 -0.801,-1.553 -2.342,-4.557 -2.442,-4.803 l 0,0 c -0.001,-0.003 -0.002,-0.005 -0.003,-0.008 -0.03,-0.085 -0.118,-0.129 -0.206,-0.105 -0.085,0.025 -0.136,0.112 -0.118,0.199 0.001,0.004 0.004,0.012 0.006,0.02 l 0,0 1.051,2.941 -1.731,-1.183 c -0.065,-0.044 -0.152,-0.038 -0.21,0.014 -0.058,0.055 -0.07,0.142 -0.03,0.211 l 2.213,3.776 -1.142,-0.599 c -0.068,-0.035 -0.149,-0.021 -0.201,0.034 -0.052,0.055 -0.061,0.136 -0.023,0.202 l 2.71,4.562 c 0.031,0.053 0.087,0.083 0.144,0.083 0.026,0 0.051,-0.005 0.075,-0.018 0.079,-0.039 0.114,-0.133 0.081,-0.214 l -1.057,-2.594 1.011,0.624 c 0.064,0.039 0.144,0.032 0.2,-0.016 0.055,-0.049 0.073,-0.129 0.044,-0.196 l -1.441,-3.265 z m 5.822,4.479 c 0.004,0.074 0.056,0.137 0.127,0.155 0.073,0.018 0.147,-0.012 0.185,-0.075 l 1.86,-3.045 0.016,0.992 c 10e-4,0.075 0.054,0.143 0.129,0.16 0.075,0.018 0.152,-0.017 0.188,-0.085 0.82,-1.546 2.41,-4.524 2.551,-4.744 l 10e-4,0 c 0.001,-0.003 0.003,-0.004 0.005,-0.007 0.052,-0.073 0.038,-0.173 -0.031,-0.229 -0.07,-0.057 -0.17,-0.049 -0.231,0.017 -0.003,0.004 -0.008,0.009 -0.012,0.016 l -0.007,0.01 c -0.001,0 -0.001,0 -0.001,0 l -1.808,2.531 -0.016,-2.098 c -10e-4,-0.078 -0.057,-0.146 -0.133,-0.163 -0.079,-0.017 -0.155,0.022 -0.188,0.094 l -1.839,3.972 -0.161,-1.279 c -0.008,-0.074 -0.067,-0.134 -0.142,-0.146 -0.073,-0.01 -0.147,0.027 -0.178,0.097 l -2.202,4.827 c -0.036,0.081 -0.005,0.175 0.072,0.218 0.026,0.014 0.053,0.021 0.081,0.021 0.055,0 0.109,-0.029 0.141,-0.077 l 1.528,-2.349 0.065,1.187 z m 1.814,4.37 c -0.059,0.046 -0.081,0.124 -0.055,0.192 0.026,0.07 0.093,0.114 0.168,0.11 l 3.563,-0.211 -0.805,0.578 c -0.063,0.044 -0.087,0.126 -0.059,0.198 0.025,0.065 0.088,0.108 0.157,0.108 0.007,0 0.013,0 0.02,-0.001 1.729,-0.208 5.062,-0.601 5.348,-0.611 l 0.012,0 c 0.083,0.007 0.164,-0.068 0.17,-0.157 0.006,-0.088 -0.057,-0.168 -0.146,-0.179 -0.007,-10e-4 -0.021,0.004 -0.036,-10e-4 l -3.106,-0.042 1.713,-1.209 c 0.064,-0.046 0.088,-0.129 0.058,-0.203 -0.03,-0.071 -0.106,-0.114 -0.185,-0.101 l -4.311,0.757 0.959,-0.862 c 0.056,-0.049 0.071,-0.131 0.038,-0.199 -0.032,-0.069 -0.105,-0.105 -0.181,-0.092 l -5.221,0.948 c -0.088,0.016 -0.147,0.096 -0.138,0.183 0.009,0.088 0.08,0.151 0.174,0.151 l 2.8,-0.086 -0.937,0.729 z m -49.843,-2.641 -0.055,-0.005 c 0.009,10e-4 0.03,0.003 0.055,0.005 z m 24.061,5.015 -5.787,4.267 20.246,-1.686 -12.676,-0.837 5.513,-3.494 -15.883,-0.593 5.211,-3.028 c 0,0 -19.461,0.444 -20.686,0.355 l 13.806,1.525 -8.701,4.959 18.957,-1.468 z m 7.862,8.446 -11.65,10.812 1.542,-5.826 c 0,0 -13.44,14.07001 -14.375,14.87801 l 10.839,-8.68601 -2.646,9.66101 12.367,-14.44001 -1.074,7.10701 13.123,-15.50801 -9.554,8.372 1.428,-6.37 z m -24.483,19.86401 -0.044,0.035 c 0.009,0 0.024,-0.018 0.044,-0.035 z m 43.123,-3.755 c -0.421,-1.473 -0.846,-2.96001 -1.271,-4.44501 l -0.998,2.38401 2.269,2.061 z m -3.025,-10.58001 -0.324,1.131 1.061,1.444 c -0.249,-0.865 -0.494,-1.726 -0.737,-2.575 z m -1.786,6.212 1.744,1.583 1.218,-2.906 -1.855,-2.527 -1.107,3.85 z m 7.668,14.38101 c -0.642,-2.254 -1.338,-4.693 -2.062,-7.227 l -1.682,4.131 3.744,3.096 z m -7.562,-6.254 2.999,2.48 1.908,-4.686 -2.888,-2.62 -2.019,4.826 z m 10.781,17.625 c -0.42,-1.522 -1.31,-4.664 -2.453,-8.684 l -2.959,6.258 5.412,2.426 z m -10.873,-4.871 4.534,2.032 3.331,-7.041 -4.356,-3.602 -3.509,8.611 z m -0.339,-26.68101 0,3.258 0.673,-2.341 -0.673,-0.917 z m 0,39.02301 4.441,-9.393 -4.441,-1.989 0,11.382 z m 0,-32.14801 0,5.45301 1.655,-3.95 -1.655,-1.50301 z m 0,8.01401 0,9.935 3.028,-7.432 -3.028,-2.503 z m 11.624,19.07 -5.835,-2.586 c 0,0 -5.046,8.27 -5.23,8.629 -0.298,0.576 -1.471,0.576 -1.687,0.117 -0.066,-0.14 -0.126,-0.29 -0.178,-0.432 -0.271,-0.038 -0.571,-0.108 -0.622,-0.217 l -4.836,-9.426 -6.399,2.867 c -0.157,0.07 -0.34,0.057 -0.484,-0.038 -0.145,-0.094 -0.232,-0.253 -0.232,-0.426 0,-0.121 0,-0.26 6.26,-22.173 1.274,-4.45701 2.554,-8.93101 3.62,-12.65801 0.002,-0.005 0.003,-0.009 0.004,-0.014 0.542,-1.891 1.028,-3.587 1.43,-4.991 -1.675,-0.813 -2.833,-2.524 -2.833,-4.511 0,-2.771 2.247,-5.018 5.018,-5.018 2.772,0 5.02,2.247 5.02,5.018 0,1.961 -1.128,3.654 -2.768,4.479 11.312,39.43101 11.533,39.86001 11.554,39.94701 0.267,1.175 -0.61,1.79 -1.802,1.433 z m -15.869,-31.79601 1.063,-1.444 -0.325,-1.131 c -0.244,0.849 -0.489,1.71 -0.738,2.575 z m -0.44,2.314 1.217,2.906 1.746,-1.583 -1.107,-3.85 -1.856,2.527 z m -1.849,5.69101 2.269,-2.061 -0.998,-2.38401 c -0.425,1.486 -0.851,2.97301 -1.271,4.44501 z m -0.202,1.554 1.91,4.686 2.999,-2.48 -2.022,-4.826 -2.887,2.62 z m -2.654,8.459 3.743,-3.096 -1.682,-4.131 c -0.723,2.533 -1.42,4.973 -2.061,7.227 z m 2.192,8.946 -2.958,-6.258 c -1.144,4.02 -2.033,7.162 -2.453,8.684 l 5.411,-2.426 z m 0.926,-0.415 4.535,-2.032 -3.508,-8.611 -4.356,3.602 3.329,7.041 z m 4.875,-1.071 -4.441,1.989 4.441,9.393 0,-11.382 z m 0,-12.752 -3.028,2.503 3.028,7.432 0,-9.935 z m 0,-8.01401 -1.655,1.50301 1.655,3.95 0,-5.45301 z m 0,-6.875 -0.673,0.918 0.673,2.341 0,-3.259 z m 0,-6.987 c -0.072,-0.015 -0.141,-0.037 -0.212,-0.055 -0.438,1.528 -0.897,3.13 -1.372,4.789 l 0.558,1.937 1.026,-1.396 0,-5.275 z m 1.119,-0.764 c 2.235,0 4.046,-1.812 4.046,-4.047 0,-1.3 -0.615,-2.457 -1.569,-3.197 0.533,0.684 0.848,1.544 0.848,2.477 0,2.236 -1.811,4.048 -4.046,4.048 -0.934,0 -1.794,-0.317 -2.478,-0.849 0.74,0.953 1.898,1.568 3.199,1.568 z m 12.761,40.19901 c 0,-0.089 -10e-4,-0.357 -11.249,-39.60101 -0.317,0.108 -0.647,0.185 -0.989,0.227 0.428,1.493 0.875,3.057 1.339,4.674 l -0.557,1.937 -1.027,-1.396 0,-5.191 c -0.126,0.009 -0.252,0.019 -0.381,0.019 -0.001,0 -0.002,0 -0.003,0 l 0,5.286 c 0.004,0.032 0.004,0.066 0,0.099 l 0,40.71401 c 0,0.168 -0.082,0.318 -0.211,0.411 0.028,0 0.073,0.01 0.098,0.01 l 0.044,0.01 c 0.194,0 0.346,-0.083 0.431,-0.264 l 5.388,-9.331 6.401,2.867 c 0.157,0.07 0.339,0.057 0.483,-0.038 0.146,-0.093 0.233,-0.253 0.233,-0.426 z"
           id="path4"
           style="fill:#333333" />
      </g>
    </g>
  </g>
</svg>
