<?xml version="1.0" encoding="UTF-8" standalone="no"?>
<!-- Created with Inkscape (http://www.inkscape.org/) -->

<svg
   xmlns:dc="http://purl.org/dc/elements/1.1/"
   xmlns:cc="http://creativecommons.org/ns#"
   xmlns:rdf="http://www.w3.org/1999/02/22-rdf-syntax-ns#"
   xmlns:svg="http://www.w3.org/2000/svg"
   xmlns="http://www.w3.org/2000/svg"
   xmlns:sodipodi="http://sodipodi.sourceforge.net/DTD/sodipodi-0.dtd"
   xmlns:inkscape="http://www.inkscape.org/namespaces/inkscape"
   width="33.866665mm"
   height="33.866665mm"
   viewBox="0 0 33.866665 33.866665"
   version="1.1"
   id="svg936"
   inkscape:version="0.92.1 r"
   sodipodi:docname="Constitution.svg">
  <defs
     id="defs930">
    <filter
       inkscape:collect="always"
       style="color-interpolation-filters:sRGB"
       id="filter2105"
       x="-0.040737941"
       width="1.0814759"
       y="-0.032249311"
       height="1.0644986">
      <feGaussianBlur
         inkscape:collect="always"
         stdDeviation="6.87945"
         id="feGaussianBlur2107" />
    </filter>
  </defs>
  <sodipodi:namedview
     id="base"
     pagecolor="#ffffff"
     bordercolor="#666666"
     borderopacity="1.0"
     inkscape:pageopacity="0.0"
     inkscape:pageshadow="2"
     inkscape:zoom="2.8"
     inkscape:cx="107.52823"
     inkscape:cy="86.704272"
     inkscape:document-units="mm"
     inkscape:current-layer="layer1"
     showgrid="false"
     fit-margin-top="0"
     fit-margin-left="0"
     fit-margin-right="0"
     fit-margin-bottom="0"
     inkscape:window-width="1366"
     inkscape:window-height="708"
     inkscape:window-x="0"
     inkscape:window-y="23"
     inkscape:window-maximized="1" />
  <metadata
     id="metadata933">
    <rdf:RDF>
      <cc:Work
         rdf:about="">
        <dc:format>image/svg+xml</dc:format>
        <dc:type
           rdf:resource="http://purl.org/dc/dcmitype/StillImage" />
        <dc:title></dc:title>
      </cc:Work>
    </rdf:RDF>
  </metadata>
  <g
     inkscape:label="Layer 1"
     inkscape:groupmode="layer"
     id="layer1"
     transform="translate(-109.6787,-35.136749)">
    <g
       id="g2144"
       inkscape:export-xdpi="96"
       inkscape:export-ydpi="96">
      <rect
         ry="0"
         rx="0"
         style="opacity:1;fill:#333333;fill-opacity:1;stroke:none;stroke-width:1.91655636;stroke-linecap:round;stroke-linejoin:round;stroke-miterlimit:4;stroke-dasharray:none;stroke-dashoffset:0;stroke-opacity:1"
         id="rect5453"
         width="33.866665"
         height="33.866665"
         x="109.6787"
         y="35.136749" />
      <g
         transform="matrix(0.87344229,0,0,0.87344229,16.60842,5.5245038)"
         id="g2115">
        <g
           transform="matrix(0.05002432,0,0,0.05002432,113.13635,40.48354)"
           id="g1290"
           style="fill:#ececec;filter:url(#filter2105)">
          <path
             id="path1286"
             d="m 447.988,405.334 c 5.891,0 10.656,-4.781 10.656,-10.688 V 10.679 c 0,-5.891 -4.766,-10.663 -10.656,-10.663 H 96.01 c -23.53,0 -42.654,19.14 -42.654,42.661 v 383.968 c 0,23.531 19.124,42.686 42.654,42.686 h 10.655 v 31.998 c 0,3.422 1.656,6.641 4.438,8.641 2.781,2.016 6.358,2.547 9.608,1.469 l 28.639,-9.547 28.624,9.547 c 1.094,0.359 2.233,0.547 3.374,0.547 2.203,0 4.391,-0.688 6.219,-2.016 2.781,-2 4.438,-5.219 4.438,-8.641 V 469.33 h 234.643 10.686 10.656 c 5.891,0 10.656,-4.781 10.656,-10.688 0,-5.875 -4.766,-10.654 -10.656,-10.654 V 405.334 Z M 437.332,383.992 H 426.646 128.008 V 21.35 H 437.332 Z M 74.667,42.677 C 74.667,30.92 84.244,21.35 96.01,21.35 h 10.655 V 383.993 H 96.01 c -7.766,0 -15.062,2.094 -21.343,5.748 v -48.402 c 5.906,0 10.687,-4.781 10.687,-10.688 0,-5.875 -4.78,-10.654 -10.687,-10.654 v -42.654 c 5.906,0 10.687,-4.781 10.687,-10.68 0,-5.891 -4.78,-10.662 -10.687,-10.662 v -42.662 c 5.906,0 10.687,-4.78 10.687,-10.671 0,-5.891 -4.78,-10.663 -10.687,-10.663 v -42.662 c 5.906,0 10.687,-4.78 10.687,-10.671 0,-5.891 -4.78,-10.663 -10.687,-10.663 V 85.346 c 5.906,0 10.687,-4.78 10.687,-10.671 0,-5.891 -4.78,-10.663 -10.687,-10.663 z m 95.994,443.839 -17.952,-5.982 c -2.188,-0.734 -4.547,-0.734 -6.733,0 l -17.968,5.982 v -49.184 h 42.653 z m 21.343,-38.528 v -10.656 c 5.89,0 10.655,-4.781 10.655,-10.688 0,-5.875 -4.766,-10.654 -10.655,-10.654 h -85.339 c -5.875,0 -10.655,4.779 -10.655,10.654 0,5.906 4.78,10.688 10.655,10.688 v 10.656 H 96.01 c -11.766,0 -21.343,-9.562 -21.343,-21.344 0,-11.748 9.577,-21.311 21.343,-21.311 h 330.637 v 10.656 h -74.652 c -5.891,0 -10.656,4.779 -10.656,10.654 0,5.906 4.766,10.688 10.656,10.688 h 74.652 v 10.656 H 192.004 Z"
             inkscape:connector-curvature="0"
             style="fill:#ececec" />
          <path
             id="path1288"
             d="m 160.553,209.964 c -0.016,0.023 -0.016,0.039 -0.016,0.062 -0.078,0.234 -0.141,0.469 -0.188,0.711 -0.031,0.117 -0.078,0.227 -0.094,0.344 -0.047,0.188 -0.062,0.367 -0.094,0.555 -0.031,0.18 -0.062,0.359 -0.094,0.538 0,0.125 -0.016,0.25 -0.031,0.375 0,0.242 -0.031,0.477 -0.031,0.719 0,0.023 0,0.047 0,0.07 0,23.522 19.14,42.662 42.653,42.662 23.53,0 42.686,-19.14 42.686,-42.662 0,-0.023 -0.016,-0.047 -0.016,-0.07 0,-0.242 -0.016,-0.484 -0.031,-0.727 -0.016,-0.125 -0.016,-0.242 -0.031,-0.367 -0.016,-0.179 -0.047,-0.358 -0.078,-0.538 -0.031,-0.188 -0.062,-0.367 -0.094,-0.547 -0.031,-0.125 -0.062,-0.234 -0.094,-0.352 -0.062,-0.242 -0.125,-0.477 -0.188,-0.711 -0.016,-0.023 -0.016,-0.039 -0.031,-0.062 l -27.312,-81.956 h 49.186 v 149.334 h -53.311 c -5.905,0 -10.687,4.766 -10.687,10.656 0,5.889 4.781,10.654 10.687,10.654 h 127.992 c 5.875,0 10.656,-4.766 10.656,-10.654 0,-5.891 -4.781,-10.656 -10.656,-10.656 h -53.34 V 128.008 h 49.2 l -27.327,81.956 c 0,0.023 0,0.039 -0.016,0.062 -0.078,0.234 -0.141,0.469 -0.203,0.711 -0.016,0.117 -0.062,0.227 -0.078,0.352 -0.047,0.18 -0.062,0.359 -0.094,0.547 -0.031,0.18 -0.062,0.359 -0.078,0.538 -0.031,0.125 -0.031,0.242 -0.031,0.367 -0.016,0.242 -0.031,0.484 -0.031,0.727 0,0.023 0,0.047 0,0.07 0,23.522 19.125,42.662 42.654,42.662 23.529,0 42.654,-19.14 42.654,-42.662 0,-0.023 0,-0.047 0,-0.07 0,-0.242 -0.016,-0.484 -0.031,-0.727 0,-0.125 0,-0.242 -0.031,-0.367 -0.016,-0.179 -0.047,-0.358 -0.078,-0.538 -0.031,-0.188 -0.047,-0.367 -0.094,-0.547 -0.016,-0.125 -0.062,-0.234 -0.078,-0.352 -0.062,-0.242 -0.125,-0.477 -0.203,-0.711 -0.016,-0.023 -0.016,-0.039 -0.016,-0.062 l -31.936,-95.783 c 0,0 0,-0.023 0,-0.039 l -0.062,-0.172 c -0.031,-0.07 -0.062,-0.133 -0.094,-0.203 -0.031,-0.133 -0.078,-0.258 -0.125,-0.383 -0.062,-0.117 -0.094,-0.227 -0.156,-0.336 -0.031,-0.102 -0.078,-0.195 -0.125,-0.289 -0.062,-0.109 -0.094,-0.211 -0.156,-0.312 -0.062,-0.109 -0.109,-0.211 -0.172,-0.32 -0.047,-0.102 -0.109,-0.203 -0.172,-0.305 -0.062,-0.094 -0.125,-0.188 -0.188,-0.281 -0.063,-0.093 -0.109,-0.18 -0.172,-0.273 -0.078,-0.102 -0.141,-0.211 -0.234,-0.312 -0.062,-0.086 -0.125,-0.18 -0.203,-0.266 -0.062,-0.078 -0.125,-0.156 -0.188,-0.227 -0.078,-0.102 -0.172,-0.195 -0.25,-0.297 -0.078,-0.086 -0.172,-0.172 -0.25,-0.258 -0.078,-0.07 -0.141,-0.133 -0.203,-0.203 -0.094,-0.086 -0.172,-0.172 -0.266,-0.25 -0.094,-0.086 -0.188,-0.172 -0.297,-0.25 -0.062,-0.062 -0.141,-0.125 -0.219,-0.188 -0.094,-0.078 -0.188,-0.148 -0.281,-0.211 -0.094,-0.078 -0.188,-0.156 -0.297,-0.227 -0.094,-0.062 -0.172,-0.117 -0.266,-0.18 -0.094,-0.063 -0.188,-0.117 -0.281,-0.18 -0.109,-0.062 -0.219,-0.117 -0.312,-0.18 -0.109,-0.055 -0.219,-0.109 -0.312,-0.164 -0.109,-0.055 -0.219,-0.109 -0.328,-0.156 -0.094,-0.047 -0.188,-0.094 -0.281,-0.133 -0.109,-0.055 -0.219,-0.102 -0.328,-0.141 -0.125,-0.055 -0.266,-0.102 -0.391,-0.148 -0.078,-0.023 -0.141,-0.055 -0.203,-0.078 -0.031,0 -0.047,-0.008 -0.062,-0.016 -0.109,-0.031 -0.219,-0.062 -0.312,-0.094 -0.156,-0.047 -0.297,-0.078 -0.438,-0.117 -0.109,-0.023 -0.219,-0.055 -0.312,-0.078 -0.078,-0.016 -0.156,-0.031 -0.25,-0.047 -0.156,-0.031 -0.312,-0.047 -0.469,-0.07 -0.125,-0.023 -0.25,-0.047 -0.375,-0.055 -0.062,-0.008 -0.109,-0.016 -0.156,-0.016 -0.156,-0.016 -0.328,-0.023 -0.484,-0.031 -0.141,-0.008 -0.297,-0.016 -0.453,-0.016 -0.031,0 -0.031,-0.008 -0.062,-0.008 h -0.188 -0.031 -63.777 V 96.01 c 0,-5.891 -4.781,-10.664 -10.656,-10.664 -5.905,0 -10.686,4.773 -10.686,10.664 v 10.663 h -63.747 c -0.031,0 -0.062,0 -0.078,0 h -0.172 c -0.016,0 -0.031,0.008 -0.062,0.008 -0.141,0 -0.281,0.008 -0.422,0.016 -0.172,0.008 -0.328,0.016 -0.516,0.031 -0.047,0 -0.094,0.008 -0.156,0.016 -0.125,0.008 -0.234,0.031 -0.344,0.047 -0.172,0.023 -0.344,0.047 -0.5,0.086 -0.094,0.008 -0.156,0.023 -0.25,0.039 -0.094,0.023 -0.188,0.055 -0.281,0.078 -0.156,0.039 -0.312,0.07 -0.469,0.117 -0.094,0.031 -0.188,0.062 -0.297,0.094 -0.016,0.008 -0.047,0.016 -0.062,0.016 -0.078,0.023 -0.141,0.055 -0.203,0.078 -0.125,0.047 -0.266,0.094 -0.406,0.148 -0.094,0.047 -0.219,0.086 -0.312,0.141 -0.094,0.039 -0.188,0.086 -0.281,0.125 -0.109,0.055 -0.219,0.109 -0.344,0.164 -0.094,0.055 -0.188,0.109 -0.297,0.164 -0.109,0.062 -0.203,0.117 -0.297,0.18 -0.094,0.063 -0.203,0.117 -0.297,0.18 -0.094,0.063 -0.172,0.117 -0.266,0.18 -0.109,0.07 -0.203,0.148 -0.312,0.219 -0.094,0.07 -0.188,0.148 -0.28,0.219 -0.062,0.062 -0.141,0.125 -0.219,0.188 -0.094,0.078 -0.188,0.156 -0.281,0.242 -0.093,0.086 -0.188,0.172 -0.281,0.258 -0.062,0.07 -0.125,0.133 -0.188,0.203 -0.094,0.086 -0.172,0.172 -0.25,0.258 -0.094,0.094 -0.172,0.195 -0.25,0.297 -0.062,0.07 -0.125,0.148 -0.188,0.227 -0.078,0.086 -0.156,0.172 -0.219,0.266 -0.062,0.102 -0.156,0.211 -0.219,0.312 -0.062,0.094 -0.125,0.188 -0.188,0.273 -0.062,0.094 -0.109,0.188 -0.172,0.273 -0.062,0.109 -0.125,0.211 -0.172,0.312 -0.062,0.109 -0.125,0.211 -0.188,0.32 -0.047,0.102 -0.094,0.203 -0.141,0.312 -0.047,0.094 -0.094,0.188 -0.141,0.289 -0.047,0.109 -0.094,0.227 -0.141,0.336 -0.047,0.125 -0.094,0.25 -0.141,0.375 -0.031,0.07 -0.062,0.141 -0.078,0.211 l -0.047,0.172 c -0.016,0.016 -0.016,0.031 -0.031,0.039 z m 208.643,-7.297 h -34.404 l 17.202,-51.599 z m -17.202,31.998 c -7.875,0 -14.78,-4.289 -18.468,-10.663 h 36.936 c -3.688,6.374 -10.593,10.663 -18.468,10.663 z m -149.335,-83.597 17.218,51.599 h -34.404 z m 0,83.597 c -7.874,0 -14.765,-4.289 -18.468,-10.663 h 36.951 c -3.703,6.374 -10.592,10.663 -18.483,10.663 z"
             inkscape:connector-curvature="0"
             style="fill:#ececec" />
        </g>
        <g
           id="g1079"
           transform="matrix(0.05002432,0,0,0.05002432,113.13635,40.48354)"
           style="fill:#1a1a1a">
          <path
             style="fill:#1a1a1a"
             inkscape:connector-curvature="0"
             d="m 447.988,405.334 c 5.891,0 10.656,-4.781 10.656,-10.688 V 10.679 c 0,-5.891 -4.766,-10.663 -10.656,-10.663 H 96.01 c -23.53,0 -42.654,19.14 -42.654,42.661 v 383.968 c 0,23.531 19.124,42.686 42.654,42.686 h 10.655 v 31.998 c 0,3.422 1.656,6.641 4.438,8.641 2.781,2.016 6.358,2.547 9.608,1.469 l 28.639,-9.547 28.624,9.547 c 1.094,0.359 2.233,0.547 3.374,0.547 2.203,0 4.391,-0.688 6.219,-2.016 2.781,-2 4.438,-5.219 4.438,-8.641 V 469.33 h 234.643 10.686 10.656 c 5.891,0 10.656,-4.781 10.656,-10.688 0,-5.875 -4.766,-10.654 -10.656,-10.654 V 405.334 Z M 437.332,383.992 H 426.646 128.008 V 21.35 H 437.332 Z M 74.667,42.677 C 74.667,30.92 84.244,21.35 96.01,21.35 h 10.655 V 383.993 H 96.01 c -7.766,0 -15.062,2.094 -21.343,5.748 v -48.402 c 5.906,0 10.687,-4.781 10.687,-10.688 0,-5.875 -4.78,-10.654 -10.687,-10.654 v -42.654 c 5.906,0 10.687,-4.781 10.687,-10.68 0,-5.891 -4.78,-10.662 -10.687,-10.662 v -42.662 c 5.906,0 10.687,-4.78 10.687,-10.671 0,-5.891 -4.78,-10.663 -10.687,-10.663 v -42.662 c 5.906,0 10.687,-4.78 10.687,-10.671 0,-5.891 -4.78,-10.663 -10.687,-10.663 V 85.346 c 5.906,0 10.687,-4.78 10.687,-10.671 0,-5.891 -4.78,-10.663 -10.687,-10.663 z m 95.994,443.839 -17.952,-5.982 c -2.188,-0.734 -4.547,-0.734 -6.733,0 l -17.968,5.982 v -49.184 h 42.653 z m 21.343,-38.528 v -10.656 c 5.89,0 10.655,-4.781 10.655,-10.688 0,-5.875 -4.766,-10.654 -10.655,-10.654 h -85.339 c -5.875,0 -10.655,4.779 -10.655,10.654 0,5.906 4.78,10.688 10.655,10.688 v 10.656 H 96.01 c -11.766,0 -21.343,-9.562 -21.343,-21.344 0,-11.748 9.577,-21.311 21.343,-21.311 h 330.637 v 10.656 h -74.652 c -5.891,0 -10.656,4.779 -10.656,10.654 0,5.906 4.766,10.688 10.656,10.688 h 74.652 v 10.656 H 192.004 Z"
             id="path1075" />
          <path
             style="fill:#1a1a1a"
             inkscape:connector-curvature="0"
             d="m 160.553,209.964 c -0.016,0.023 -0.016,0.039 -0.016,0.062 -0.078,0.234 -0.141,0.469 -0.188,0.711 -0.031,0.117 -0.078,0.227 -0.094,0.344 -0.047,0.188 -0.062,0.367 -0.094,0.555 -0.031,0.18 -0.062,0.359 -0.094,0.538 0,0.125 -0.016,0.25 -0.031,0.375 0,0.242 -0.031,0.477 -0.031,0.719 0,0.023 0,0.047 0,0.07 0,23.522 19.14,42.662 42.653,42.662 23.53,0 42.686,-19.14 42.686,-42.662 0,-0.023 -0.016,-0.047 -0.016,-0.07 0,-0.242 -0.016,-0.484 -0.031,-0.727 -0.016,-0.125 -0.016,-0.242 -0.031,-0.367 -0.016,-0.179 -0.047,-0.358 -0.078,-0.538 -0.031,-0.188 -0.062,-0.367 -0.094,-0.547 -0.031,-0.125 -0.062,-0.234 -0.094,-0.352 -0.062,-0.242 -0.125,-0.477 -0.188,-0.711 -0.016,-0.023 -0.016,-0.039 -0.031,-0.062 l -27.312,-81.956 h 49.186 v 149.334 h -53.311 c -5.905,0 -10.687,4.766 -10.687,10.656 0,5.889 4.781,10.654 10.687,10.654 h 127.992 c 5.875,0 10.656,-4.766 10.656,-10.654 0,-5.891 -4.781,-10.656 -10.656,-10.656 h -53.34 V 128.008 h 49.2 l -27.327,81.956 c 0,0.023 0,0.039 -0.016,0.062 -0.078,0.234 -0.141,0.469 -0.203,0.711 -0.016,0.117 -0.062,0.227 -0.078,0.352 -0.047,0.18 -0.062,0.359 -0.094,0.547 -0.031,0.18 -0.062,0.359 -0.078,0.538 -0.031,0.125 -0.031,0.242 -0.031,0.367 -0.016,0.242 -0.031,0.484 -0.031,0.727 0,0.023 0,0.047 0,0.07 0,23.522 19.125,42.662 42.654,42.662 23.529,0 42.654,-19.14 42.654,-42.662 0,-0.023 0,-0.047 0,-0.07 0,-0.242 -0.016,-0.484 -0.031,-0.727 0,-0.125 0,-0.242 -0.031,-0.367 -0.016,-0.179 -0.047,-0.358 -0.078,-0.538 -0.031,-0.188 -0.047,-0.367 -0.094,-0.547 -0.016,-0.125 -0.062,-0.234 -0.078,-0.352 -0.062,-0.242 -0.125,-0.477 -0.203,-0.711 -0.016,-0.023 -0.016,-0.039 -0.016,-0.062 l -31.936,-95.783 c 0,0 0,-0.023 0,-0.039 l -0.062,-0.172 c -0.031,-0.07 -0.062,-0.133 -0.094,-0.203 -0.031,-0.133 -0.078,-0.258 -0.125,-0.383 -0.062,-0.117 -0.094,-0.227 -0.156,-0.336 -0.031,-0.102 -0.078,-0.195 -0.125,-0.289 -0.062,-0.109 -0.094,-0.211 -0.156,-0.312 -0.062,-0.109 -0.109,-0.211 -0.172,-0.32 -0.047,-0.102 -0.109,-0.203 -0.172,-0.305 -0.062,-0.094 -0.125,-0.188 -0.188,-0.281 -0.063,-0.093 -0.109,-0.18 -0.172,-0.273 -0.078,-0.102 -0.141,-0.211 -0.234,-0.312 -0.062,-0.086 -0.125,-0.18 -0.203,-0.266 -0.062,-0.078 -0.125,-0.156 -0.188,-0.227 -0.078,-0.102 -0.172,-0.195 -0.25,-0.297 -0.078,-0.086 -0.172,-0.172 -0.25,-0.258 -0.078,-0.07 -0.141,-0.133 -0.203,-0.203 -0.094,-0.086 -0.172,-0.172 -0.266,-0.25 -0.094,-0.086 -0.188,-0.172 -0.297,-0.25 -0.062,-0.062 -0.141,-0.125 -0.219,-0.188 -0.094,-0.078 -0.188,-0.148 -0.281,-0.211 -0.094,-0.078 -0.188,-0.156 -0.297,-0.227 -0.094,-0.062 -0.172,-0.117 -0.266,-0.18 -0.094,-0.063 -0.188,-0.117 -0.281,-0.18 -0.109,-0.062 -0.219,-0.117 -0.312,-0.18 -0.109,-0.055 -0.219,-0.109 -0.312,-0.164 -0.109,-0.055 -0.219,-0.109 -0.328,-0.156 -0.094,-0.047 -0.188,-0.094 -0.281,-0.133 -0.109,-0.055 -0.219,-0.102 -0.328,-0.141 -0.125,-0.055 -0.266,-0.102 -0.391,-0.148 -0.078,-0.023 -0.141,-0.055 -0.203,-0.078 -0.031,0 -0.047,-0.008 -0.062,-0.016 -0.109,-0.031 -0.219,-0.062 -0.312,-0.094 -0.156,-0.047 -0.297,-0.078 -0.438,-0.117 -0.109,-0.023 -0.219,-0.055 -0.312,-0.078 -0.078,-0.016 -0.156,-0.031 -0.25,-0.047 -0.156,-0.031 -0.312,-0.047 -0.469,-0.07 -0.125,-0.023 -0.25,-0.047 -0.375,-0.055 -0.062,-0.008 -0.109,-0.016 -0.156,-0.016 -0.156,-0.016 -0.328,-0.023 -0.484,-0.031 -0.141,-0.008 -0.297,-0.016 -0.453,-0.016 -0.031,0 -0.031,-0.008 -0.062,-0.008 h -0.188 -0.031 -63.777 V 96.01 c 0,-5.891 -4.781,-10.664 -10.656,-10.664 -5.905,0 -10.686,4.773 -10.686,10.664 v 10.663 h -63.747 c -0.031,0 -0.062,0 -0.078,0 h -0.172 c -0.016,0 -0.031,0.008 -0.062,0.008 -0.141,0 -0.281,0.008 -0.422,0.016 -0.172,0.008 -0.328,0.016 -0.516,0.031 -0.047,0 -0.094,0.008 -0.156,0.016 -0.125,0.008 -0.234,0.031 -0.344,0.047 -0.172,0.023 -0.344,0.047 -0.5,0.086 -0.094,0.008 -0.156,0.023 -0.25,0.039 -0.094,0.023 -0.188,0.055 -0.281,0.078 -0.156,0.039 -0.312,0.07 -0.469,0.117 -0.094,0.031 -0.188,0.062 -0.297,0.094 -0.016,0.008 -0.047,0.016 -0.062,0.016 -0.078,0.023 -0.141,0.055 -0.203,0.078 -0.125,0.047 -0.266,0.094 -0.406,0.148 -0.094,0.047 -0.219,0.086 -0.312,0.141 -0.094,0.039 -0.188,0.086 -0.281,0.125 -0.109,0.055 -0.219,0.109 -0.344,0.164 -0.094,0.055 -0.188,0.109 -0.297,0.164 -0.109,0.062 -0.203,0.117 -0.297,0.18 -0.094,0.063 -0.203,0.117 -0.297,0.18 -0.094,0.063 -0.172,0.117 -0.266,0.18 -0.109,0.07 -0.203,0.148 -0.312,0.219 -0.094,0.07 -0.188,0.148 -0.28,0.219 -0.062,0.062 -0.141,0.125 -0.219,0.188 -0.094,0.078 -0.188,0.156 -0.281,0.242 -0.093,0.086 -0.188,0.172 -0.281,0.258 -0.062,0.07 -0.125,0.133 -0.188,0.203 -0.094,0.086 -0.172,0.172 -0.25,0.258 -0.094,0.094 -0.172,0.195 -0.25,0.297 -0.062,0.07 -0.125,0.148 -0.188,0.227 -0.078,0.086 -0.156,0.172 -0.219,0.266 -0.062,0.102 -0.156,0.211 -0.219,0.312 -0.062,0.094 -0.125,0.188 -0.188,0.273 -0.062,0.094 -0.109,0.188 -0.172,0.273 -0.062,0.109 -0.125,0.211 -0.172,0.312 -0.062,0.109 -0.125,0.211 -0.188,0.32 -0.047,0.102 -0.094,0.203 -0.141,0.312 -0.047,0.094 -0.094,0.188 -0.141,0.289 -0.047,0.109 -0.094,0.227 -0.141,0.336 -0.047,0.125 -0.094,0.25 -0.141,0.375 -0.031,0.07 -0.062,0.141 -0.078,0.211 l -0.047,0.172 c -0.016,0.016 -0.016,0.031 -0.031,0.039 z m 208.643,-7.297 h -34.404 l 17.202,-51.599 z m -17.202,31.998 c -7.875,0 -14.78,-4.289 -18.468,-10.663 h 36.936 c -3.688,6.374 -10.593,10.663 -18.468,10.663 z m -149.335,-83.597 17.218,51.599 h -34.404 z m 0,83.597 c -7.874,0 -14.765,-4.289 -18.468,-10.663 h 36.951 c -3.703,6.374 -10.592,10.663 -18.483,10.663 z"
             id="path1077" />
        </g>
      </g>
    </g>
  </g>
</svg>
