<?xml version="1.0" encoding="UTF-8" standalone="no"?>
<!-- Created with Inkscape (http://www.inkscape.org/) -->

<svg
   xmlns:dc="http://purl.org/dc/elements/1.1/"
   xmlns:cc="http://creativecommons.org/ns#"
   xmlns:rdf="http://www.w3.org/1999/02/22-rdf-syntax-ns#"
   xmlns:svg="http://www.w3.org/2000/svg"
   xmlns="http://www.w3.org/2000/svg"
   xmlns:sodipodi="http://sodipodi.sourceforge.net/DTD/sodipodi-0.dtd"
   xmlns:inkscape="http://www.inkscape.org/namespaces/inkscape"
   width="42.333332mm"
   height="42.333332mm"
   viewBox="0 0 149.99999 150"
   id="svg4759"
   version="1.1"
   inkscape:version="0.92pre2 r"
   sodipodi:docname="Local-Tailoring.svg">
  <defs
     id="defs4761">
    <filter
       inkscape:collect="always"
       style="color-interpolation-filters:sRGB"
       id="filter2599"
       x="-0.056969425"
       width="1.1139388"
       y="-0.063371124"
       height="1.1267422">
      <feGaussianBlur
         inkscape:collect="always"
         stdDeviation="2.3500125"
         id="feGaussianBlur2601" />
    </filter>
  </defs>
  <sodipodi:namedview
     id="base"
     pagecolor="#ffffff"
     bordercolor="#666666"
     borderopacity="1.0"
     inkscape:pageopacity="0.0"
     inkscape:pageshadow="2"
     inkscape:zoom="2.8284271"
     inkscape:cx="62.386137"
     inkscape:cy="79.385434"
     inkscape:document-units="px"
     inkscape:current-layer="layer1"
     showgrid="false"
     fit-margin-top="0"
     fit-margin-left="0"
     fit-margin-right="0"
     fit-margin-bottom="0"
     inkscape:window-width="1366"
     inkscape:window-height="708"
     inkscape:window-x="0"
     inkscape:window-y="23"
     inkscape:window-maximized="1"
     showborder="false" />
  <metadata
     id="metadata4764">
    <rdf:RDF>
      <cc:Work
         rdf:about="">
        <dc:format>image/svg+xml</dc:format>
        <dc:type
           rdf:resource="http://purl.org/dc/dcmitype/StillImage" />
        <dc:title></dc:title>
      </cc:Work>
    </rdf:RDF>
  </metadata>
  <g
     inkscape:label="Layer 1"
     inkscape:groupmode="layer"
     id="layer1"
     transform="translate(-263.37482,-945.53693)">
    <g
       id="g2608"
       inkscape:export-xdpi="96"
       inkscape:export-ydpi="96">
      <rect
         ry="0"
         rx="0"
         style="opacity:1;fill:#333333;fill-opacity:1;stroke:none;stroke-width:6.79094839;stroke-linecap:round;stroke-linejoin:round;stroke-miterlimit:4;stroke-dasharray:none;stroke-dashoffset:0;stroke-opacity:1"
         id="rect5453"
         width="150"
         height="150"
         x="256.47598"
         y="945.70105" />
      <g
         id="g1776"
         transform="matrix(0.85010065,0,0,0.85010065,288.68658,975.22069)"
         style="fill:#ececec;filter:url(#filter2599)">
        <path
           id="path1774"
           d="m 93.834,55 h 4 c 1.104,0 2,-0.896 2,-2 V 25 c 0,-1.104 -0.896,-2 -2,-2 h -4 c -1.104,0 -2,0.896 -2,2 v 5 h -3.235 c -1.896,-2.595 -4.832,-3 -6.807,-3 -0.24,0 -0.51,0 -0.792,0 0,-0.412 -0.338,-1 -0.75,-1 H 79 V 11 h 1.25 C 80.662,11 81,10.412 81,10 81,9.588 80.662,9 80.25,9 H 69.75 C 69.338,9 69,9.588 69,10 c 0,0.412 0.338,1 0.75,1 H 71 V 26 H 69.75 C 69.338,26 69,26.588 69,27 c 0,0.014 0.007,0.03 0.008,0.044 -13.236,0.228 -26.708,2.028 -38.546,2.028 -7.829,0 -13.304,-5.836 -13.628,-10.969 v -1.127 c 0,-1.092 -0.885,-1.977 -1.977,-1.977 H 6.811 c -1.092,0 -1.977,0.885 -1.977,1.977 V 63.023 C 4.834,64.115 5.719,65 6.811,65 h 3.2 l 0.361,10.647 c 0.007,0.228 0.2,0.414 0.427,0.414 0.228,0 0.42,-0.186 0.428,-0.414 L 11.587,65 h 3.27 c 1.092,0 1.977,-0.885 1.977,-1.977 v -4.43 c 0,-3.167 4.003,-14.201 19.229,-14.201 C 48.883,44.393 63,44.392 63,57.5 63,67.854 60.62,74.501 59.534,77 H 2.519 c -0.93,0 -1.685,0.754 -1.685,1.685 V 96.316 C 0.834,97.246 1.588,98 2.519,98 H 98.15 c 0.931,0 1.685,-0.754 1.685,-1.685 V 78.685 C 99.835,77.755 99.081,77 98.15,77 H 89.37 C 88.491,73.892 87,67.203 87,57.5 87,53.094 87.369,50.184 87.865,48 h 3.969 v 5 c 0,1.104 0.895,2 2,2 z"
           inkscape:connector-curvature="0"
           style="fill:#ececec" />
      </g>
      <g
         style="fill:#cccccc"
         transform="matrix(0.85010065,0,0,0.85010065,288.68658,975.22069)"
         id="g1763">
        <path
           style="fill:#cccccc"
           inkscape:connector-curvature="0"
           d="m 93.834,55 h 4 c 1.104,0 2,-0.896 2,-2 V 25 c 0,-1.104 -0.896,-2 -2,-2 h -4 c -1.104,0 -2,0.896 -2,2 v 5 h -3.235 c -1.896,-2.595 -4.832,-3 -6.807,-3 -0.24,0 -0.51,0 -0.792,0 0,-0.412 -0.338,-1 -0.75,-1 H 79 V 11 h 1.25 C 80.662,11 81,10.412 81,10 81,9.588 80.662,9 80.25,9 H 69.75 C 69.338,9 69,9.588 69,10 c 0,0.412 0.338,1 0.75,1 H 71 V 26 H 69.75 C 69.338,26 69,26.588 69,27 c 0,0.014 0.007,0.03 0.008,0.044 -13.236,0.228 -26.708,2.028 -38.546,2.028 -7.829,0 -13.304,-5.836 -13.628,-10.969 v -1.127 c 0,-1.092 -0.885,-1.977 -1.977,-1.977 H 6.811 c -1.092,0 -1.977,0.885 -1.977,1.977 V 63.023 C 4.834,64.115 5.719,65 6.811,65 h 3.2 l 0.361,10.647 c 0.007,0.228 0.2,0.414 0.427,0.414 0.228,0 0.42,-0.186 0.428,-0.414 L 11.587,65 h 3.27 c 1.092,0 1.977,-0.885 1.977,-1.977 v -4.43 c 0,-3.167 4.003,-14.201 19.229,-14.201 C 48.883,44.393 63,44.392 63,57.5 63,67.854 60.62,74.501 59.534,77 H 2.519 c -0.93,0 -1.685,0.754 -1.685,1.685 V 96.316 C 0.834,97.246 1.588,98 2.519,98 H 98.15 c 0.931,0 1.685,-0.754 1.685,-1.685 V 78.685 C 99.835,77.755 99.081,77 98.15,77 H 89.37 C 88.491,73.892 87,67.203 87,57.5 87,53.094 87.369,50.184 87.865,48 h 3.969 v 5 c 0,1.104 0.895,2 2,2 z"
           id="path1761" />
      </g>
    </g>
  </g>
</svg>
