<?xml version="1.0" encoding="UTF-8" standalone="no"?>
<!-- Created with Inkscape (http://www.inkscape.org/) -->

<svg
   xmlns:dc="http://purl.org/dc/elements/1.1/"
   xmlns:cc="http://creativecommons.org/ns#"
   xmlns:rdf="http://www.w3.org/1999/02/22-rdf-syntax-ns#"
   xmlns:svg="http://www.w3.org/2000/svg"
   xmlns="http://www.w3.org/2000/svg"
   xmlns:sodipodi="http://sodipodi.sourceforge.net/DTD/sodipodi-0.dtd"
   xmlns:inkscape="http://www.inkscape.org/namespaces/inkscape"
   width="42.333332mm"
   height="42.333332mm"
   viewBox="0 0 149.99999 150"
   id="svg4759"
   version="1.1"
   inkscape:version="0.92pre2 r"
   sodipodi:docname="Coop-Tailoring.svg">
  <defs
     id="defs4761">
    <filter
       inkscape:collect="always"
       style="color-interpolation-filters:sRGB"
       id="filter2599"
       x="-0.056969425"
       width="1.1139388"
       y="-0.063371124"
       height="1.1267422">
      <feGaussianBlur
         inkscape:collect="always"
         stdDeviation="2.3500125"
         id="feGaussianBlur2601" />
    </filter>
  </defs>
  <sodipodi:namedview
     id="base"
     pagecolor="#ffffff"
     bordercolor="#666666"
     borderopacity="1.0"
     inkscape:pageopacity="0.0"
     inkscape:pageshadow="2"
     inkscape:zoom="2.8284271"
     inkscape:cx="20.876437"
     inkscape:cy="57.795651"
     inkscape:document-units="px"
     inkscape:current-layer="layer1"
     showgrid="false"
     fit-margin-top="0"
     fit-margin-left="0"
     fit-margin-right="0"
     fit-margin-bottom="0"
     inkscape:window-width="1366"
     inkscape:window-height="768"
     inkscape:window-x="0"
     inkscape:window-y="0"
     inkscape:window-maximized="1"
     showborder="false" />
  <metadata
     id="metadata4764">
    <rdf:RDF>
      <cc:Work
         rdf:about="">
        <dc:format>image/svg+xml</dc:format>
        <dc:type
           rdf:resource="http://purl.org/dc/dcmitype/StillImage" />
        <dc:title />
      </cc:Work>
    </rdf:RDF>
  </metadata>
  <g
     inkscape:label="Layer 1"
     inkscape:groupmode="layer"
     id="layer1"
     transform="translate(-263.37482,-945.53693)">
    <g
       id="g1353"
       inkscape:export-xdpi="96"
       inkscape:export-ydpi="96">
      <rect
         ry="0"
         rx="0"
         style="opacity:1;fill:#333333;fill-opacity:1;stroke:none;stroke-width:6.79094839;stroke-linecap:round;stroke-linejoin:round;stroke-miterlimit:4;stroke-dasharray:none;stroke-dashoffset:0;stroke-opacity:1"
         id="rect5453"
         width="150"
         height="150"
         x="256.47598"
         y="945.70105" />
      <g
         transform="matrix(0.8,0,0,0.8,66.295207,204.14019)"
         id="g1810">
        <g
           style="fill:#ececec;filter:url(#filter2599)"
           transform="matrix(0.85010065,0,0,0.85010065,288.68658,975.22069)"
           id="g1776">
          <path
             style="fill:#ececec"
             inkscape:connector-curvature="0"
             d="m 93.834,55 h 4 c 1.104,0 2,-0.896 2,-2 V 25 c 0,-1.104 -0.896,-2 -2,-2 h -4 c -1.104,0 -2,0.896 -2,2 v 5 h -3.235 c -1.896,-2.595 -4.832,-3 -6.807,-3 -0.24,0 -0.51,0 -0.792,0 0,-0.412 -0.338,-1 -0.75,-1 H 79 V 11 h 1.25 C 80.662,11 81,10.412 81,10 81,9.588 80.662,9 80.25,9 H 69.75 C 69.338,9 69,9.588 69,10 c 0,0.412 0.338,1 0.75,1 H 71 V 26 H 69.75 C 69.338,26 69,26.588 69,27 c 0,0.014 0.007,0.03 0.008,0.044 -13.236,0.228 -26.708,2.028 -38.546,2.028 -7.829,0 -13.304,-5.836 -13.628,-10.969 v -1.127 c 0,-1.092 -0.885,-1.977 -1.977,-1.977 H 6.811 c -1.092,0 -1.977,0.885 -1.977,1.977 V 63.023 C 4.834,64.115 5.719,65 6.811,65 h 3.2 l 0.361,10.647 c 0.007,0.228 0.2,0.414 0.427,0.414 0.228,0 0.42,-0.186 0.428,-0.414 L 11.587,65 h 3.27 c 1.092,0 1.977,-0.885 1.977,-1.977 v -4.43 c 0,-3.167 4.003,-14.201 19.229,-14.201 C 48.883,44.393 63,44.392 63,57.5 63,67.854 60.62,74.501 59.534,77 H 2.519 c -0.93,0 -1.685,0.754 -1.685,1.685 V 96.316 C 0.834,97.246 1.588,98 2.519,98 H 98.15 c 0.931,0 1.685,-0.754 1.685,-1.685 V 78.685 C 99.835,77.755 99.081,77 98.15,77 H 89.37 C 88.491,73.892 87,67.203 87,57.5 87,53.094 87.369,50.184 87.865,48 h 3.969 v 5 c 0,1.104 0.895,2 2,2 z"
             id="path1774" />
        </g>
        <g
           id="g1763"
           transform="matrix(0.85010065,0,0,0.85010065,288.68658,975.22069)"
           style="fill:#cccccc">
          <path
             id="path1761"
             d="m 93.834,55 h 4 c 1.104,0 2,-0.896 2,-2 V 25 c 0,-1.104 -0.896,-2 -2,-2 h -4 c -1.104,0 -2,0.896 -2,2 v 5 h -3.235 c -1.896,-2.595 -4.832,-3 -6.807,-3 -0.24,0 -0.51,0 -0.792,0 0,-0.412 -0.338,-1 -0.75,-1 H 79 V 11 h 1.25 C 80.662,11 81,10.412 81,10 81,9.588 80.662,9 80.25,9 H 69.75 C 69.338,9 69,9.588 69,10 c 0,0.412 0.338,1 0.75,1 H 71 V 26 H 69.75 C 69.338,26 69,26.588 69,27 c 0,0.014 0.007,0.03 0.008,0.044 -13.236,0.228 -26.708,2.028 -38.546,2.028 -7.829,0 -13.304,-5.836 -13.628,-10.969 v -1.127 c 0,-1.092 -0.885,-1.977 -1.977,-1.977 H 6.811 c -1.092,0 -1.977,0.885 -1.977,1.977 V 63.023 C 4.834,64.115 5.719,65 6.811,65 h 3.2 l 0.361,10.647 c 0.007,0.228 0.2,0.414 0.427,0.414 0.228,0 0.42,-0.186 0.428,-0.414 L 11.587,65 h 3.27 c 1.092,0 1.977,-0.885 1.977,-1.977 v -4.43 c 0,-3.167 4.003,-14.201 19.229,-14.201 C 48.883,44.393 63,44.392 63,57.5 63,67.854 60.62,74.501 59.534,77 H 2.519 c -0.93,0 -1.685,0.754 -1.685,1.685 V 96.316 C 0.834,97.246 1.588,98 2.519,98 H 98.15 c 0.931,0 1.685,-0.754 1.685,-1.685 V 78.685 C 99.835,77.755 99.081,77 98.15,77 H 89.37 C 88.491,73.892 87,67.203 87,57.5 87,53.094 87.369,50.184 87.865,48 h 3.969 v 5 c 0,1.104 0.895,2 2,2 z"
             inkscape:connector-curvature="0"
             style="fill:#cccccc" />
        </g>
      </g>
      <g
         id="g820"
         transform="matrix(0.23602292,-0.13409246,0.13409246,0.23602292,215.14839,839.00243)"
         style="fill:#f2f2f2">
        <path
           id="path790"
           d="m 167.56261,1026.4092 -0.48411,-0.5392 c 0,0 -0.0737,-0.08 -0.21653,-0.2229 -1.16309,-1.1624 -7.4107,-6.8665 -18.22451,-7.1102 -0.20669,-2.7474 -1.33921,-12.4474 -7.27317,-18.3802 l -0.54056,-0.54164 -18.1999,18.19894 -0.58831,0.59 0.63777,0.5343 c 0.003,0 0.25337,0.2155 0.66086,0.6199 2.07307,2.0729 6.8946,7.833 6.89348,16.5214 l -0.001,0.887 0.87616,-0.1303 c 0.0891,-0.013 8.68368,-1.1779 17.40647,7.5449 l 0.54095,0.5402 18.00016,-17.9986 0.51221,-0.5135 z"
           inkscape:connector-curvature="0"
           style="fill:#f2f2f2" />
        <circle
           id="circle792"
           r="5.968667"
           cy="414.12573"
           cx="-933.39734"
           style="fill:#f2f2f2"
           transform="rotate(-75)" />
        <path
           id="path794"
           d="m 57.089164,1083.2194 0.48745,0.5385 c 0,0 0.0717,0.081 0.21427,0.2255 1.16309,1.1624 7.41109,6.8651 18.22451,7.1102 0.2048,2.7485 1.33733,12.4485 7.26685,18.3801 l 0.54055,0.5416 18.202806,-18.1963 0.58844,-0.5917 -0.63777,-0.5343 c -0.001,0 -0.25414,-0.2126 -0.66129,-0.6185 -2.072716,-2.0743 -6.891226,-7.8336 -6.888636,-16.5216 l 0.001,-0.887 -0.87616,0.1303 c -0.0877,0.013 -8.68515,1.1775 -17.40497,-7.5445 l -0.54313,-0.5439 -17.99909,17.9958 -0.51448,0.5161 z"
           inkscape:connector-curvature="0"
           style="fill:#f2f2f2" />
        <circle
           id="circle796"
           r="5.968667"
           cy="348.8833"
           cx="-1046.2048"
           style="fill:#f2f2f2"
           transform="rotate(-75)" />
        <circle
           id="circle798"
           r="17.498177"
           cy="381.38284"
           cx="-989.98145"
           style="fill:#f2f2f2"
           transform="rotate(-75)" />
        <path
           id="path800"
           d="m 59.781734,1021.2827 -0.22323,0.6909 c 0,0 -0.0337,0.1021 -0.0861,0.2976 -0.42617,1.5905 -2.24131,9.8516 2.95301,19.3384 -2.27839,1.5546 -10.11059,7.3859 -12.28156,15.4881 l -0.19802,0.739 24.8605,6.6614 0.80455,0.2139 0.14467,-0.8183 c 0.002,-0.01 0.0584,-0.3304 0.20638,-0.8828 0.75911,-2.833 3.33603,-9.8852 10.86059,-14.2308 l 0.768,-0.4434 -0.55215,-0.6939 c -0.0537,-0.067 -5.36153,-6.9317 -2.16875,-18.8474 l 0.19722,-0.736 -24.58356,-6.5871 -0.70197,-0.1881 z"
           inkscape:connector-curvature="0"
           style="fill:#f2f2f2" />
        <circle
           id="circle802"
           r="5.968667"
           cy="316.06055"
           cx="-989.93622"
           style="fill:#f2f2f2"
           transform="rotate(-75)" />
        <path
           id="path804"
           d="m 109.18562,1116.7595 0.71067,-0.1525 c 0,0 0.10454,-0.023 0.30357,-0.073 1.58889,-0.4266 9.64866,-2.9843 15.27003,-12.2286 2.4824,1.1969 11.44901,5.0645 19.55207,2.8961 l 0.74045,-0.1984 -6.66128,-24.8637 -0.21483,-0.8036 -0.78095,0.2844 c -0.005,0 -0.31617,0.1137 -0.86872,0.2625 -2.83031,0.759 -10.23023,2.0508 -17.75178,-2.2931 l -0.76833,-0.444 -0.32591,0.8253 c -0.0304,0.084 -3.32066,8.1101 -15.23435,11.3018 l -0.74341,0.1976 6.58557,24.5894 0.1872,0.6994 z"
           inkscape:connector-curvature="0"
           style="fill:#f2f2f2" />
        <circle
           id="circle806"
           r="5.968667"
           cy="413.90009"
           cx="-1046.193"
           style="fill:#f2f2f2"
           transform="rotate(-75)" />
        <path
           style="fill:#f2f2f2"
           inkscape:connector-curvature="0"
           d="m 78.290854,1002.7736 0.69097,-0.2233 c 0,0 0.10211,-0.034 0.29756,-0.086 1.59052,-0.4261 9.85157,-2.2413 19.33843,2.953 1.554536,-2.2783 7.385876,-10.11054 15.488086,-12.28152 l 0.73899,-0.19801 6.66135,24.86053 0.21399,0.8045 -0.81836,0.1447 c -0.005,0 -0.33038,0.058 -0.88277,0.2064 -2.83304,0.7591 -9.88522,3.336 -14.23079,10.8605 l -0.4434,0.7681 -0.69394,-0.5522 c -0.0666,-0.054 -6.931726,-5.3615 -18.847346,-2.1688 l -0.73603,0.1973 -6.58715,-24.5836 -0.18809,-0.702 z"
           id="path808" />
        <circle
           transform="matrix(-0.96592582,0.25881905,0.25881905,0.96592582,0,0)"
           style="fill:#f2f2f2"
           cx="164.98817"
           cy="982.85645"
           r="5.968667"
           id="circle810" />
        <path
           style="fill:#f2f2f2"
           inkscape:connector-curvature="0"
           d="m 174.30884,1051.6329 -0.15243,0.7106 c 0,0 -0.0228,0.1046 -0.0726,0.3036 -0.42662,1.5889 -2.98436,9.6487 -12.22866,15.27 1.19689,2.4824 5.06453,11.449 2.89616,19.5521 l -0.19842,0.7405 -24.8637,-6.6613 -0.80358,-0.2149 0.28439,-0.7809 c 0.002,0 0.11369,-0.3162 0.26246,-0.8687 0.75904,-2.8303 2.05076,-10.2303 -2.29315,-17.7518 l -0.44396,-0.7683 0.82535,-0.326 c 0.0839,-0.03 8.11001,-3.3206 11.30173,-15.2343 l 0.19762,-0.7434 24.58945,6.5856 0.69936,0.1872 z"
           id="path812" />
        <circle
           transform="matrix(-0.96592582,0.25881905,0.25881905,0.96592582,0,0)"
           style="fill:#f2f2f2"
           cx="108.06777"
           cy="1080.3101"
           r="5.968667"
           id="circle814" />
        <path
           sodipodi:arc-type="slice"
           transform="rotate(-44.999999)"
           style="fill:#f2f2f2"
           id="path816"
           sodipodi:type="arc"
           sodipodi:cx="-601.2854"
           sodipodi:cy="825.3512"
           sodipodi:rx="5.968667"
           sodipodi:ry="5.968667"
           sodipodi:start="0"
           sodipodi:end="3.1377891"
           d="m -595.31673,825.3512 a 5.968667,5.968667 0 0 1 -5.95732,5.96865 5.968667,5.968667 0 0 1 -5.97997,-5.94595 l 5.96862,-0.0227 z"
           inkscape:transform-center-x="-0.95098945"
           inkscape:transform-center-y="0.98593419" />
        <path
           sodipodi:arc-type="arc"
           inkscape:transform-center-y="0.98593419"
           inkscape:transform-center-x="-0.95098945"
           d="m -725.63851,825.25586 a 5.968667,5.968667 0 0 1 -5.95327,5.96865 5.968667,5.968667 0 0 1 -5.98399,-5.93785"
           sodipodi:end="3.1364329"
           sodipodi:start="0"
           sodipodi:ry="5.968667"
           sodipodi:rx="5.968667"
           sodipodi:cy="825.25586"
           sodipodi:cx="-731.60718"
           sodipodi:type="arc"
           id="path818"
           style="fill:#f2f2f2"
           transform="rotate(-44.999999)"
           sodipodi:open="true" />
      </g>
    </g>
  </g>
</svg>
