<?xml version="1.0" encoding="UTF-8" standalone="no"?>
<!-- Created with Inkscape (http://www.inkscape.org/) -->

<svg
   xmlns:dc="http://purl.org/dc/elements/1.1/"
   xmlns:cc="http://creativecommons.org/ns#"
   xmlns:rdf="http://www.w3.org/1999/02/22-rdf-syntax-ns#"
   xmlns:svg="http://www.w3.org/2000/svg"
   xmlns="http://www.w3.org/2000/svg"
   xmlns:sodipodi="http://sodipodi.sourceforge.net/DTD/sodipodi-0.dtd"
   xmlns:inkscape="http://www.inkscape.org/namespaces/inkscape"
   width="42.333332mm"
   height="42.333332mm"
   viewBox="0 0 149.99999 150"
   id="svg4759"
   version="1.1"
   inkscape:version="0.92pre2 r"
   sodipodi:docname="Coop-Food-Inspection.svg">
  <defs
     id="defs4761" />
  <sodipodi:namedview
     id="base"
     pagecolor="#ffffff"
     bordercolor="#666666"
     borderopacity="1.0"
     inkscape:pageopacity="0.0"
     inkscape:pageshadow="2"
     inkscape:zoom="2.2995071"
     inkscape:cx="110.26472"
     inkscape:cy="68.120376"
     inkscape:document-units="px"
     inkscape:current-layer="layer1"
     showgrid="false"
     fit-margin-top="0"
     fit-margin-left="0"
     fit-margin-right="0"
     fit-margin-bottom="0"
     inkscape:window-width="1366"
     inkscape:window-height="768"
     inkscape:window-x="0"
     inkscape:window-y="0"
     inkscape:window-maximized="0"
     showborder="false"
     showguides="true"
     inkscape:guide-bbox="true" />
  <metadata
     id="metadata4764">
    <rdf:RDF>
      <cc:Work
         rdf:about="">
        <dc:format>image/svg+xml</dc:format>
        <dc:type
           rdf:resource="http://purl.org/dc/dcmitype/StillImage" />
        <dc:title />
      </cc:Work>
    </rdf:RDF>
  </metadata>
  <g
     inkscape:label="Layer 1"
     inkscape:groupmode="layer"
     id="layer1"
     transform="translate(-254.30068,-943.69336)">
    <g
       id="g17844"
       transform="matrix(0.32938344,0,0,0.32938344,287.57876,976.58917)" />
    <g
       id="g17846"
       transform="matrix(0.32938344,0,0,0.32938344,287.57876,976.58917)" />
    <g
       id="g17848"
       transform="matrix(0.32938344,0,0,0.32938344,287.57876,976.58917)" />
    <g
       id="g17850"
       transform="matrix(0.32938344,0,0,0.32938344,287.57876,976.58917)" />
    <g
       id="g17852"
       transform="matrix(0.32938344,0,0,0.32938344,287.57876,976.58917)" />
    <g
       id="g17854"
       transform="matrix(0.32938344,0,0,0.32938344,287.57876,976.58917)" />
    <g
       id="g17856"
       transform="matrix(0.32938344,0,0,0.32938344,287.57876,976.58917)" />
    <g
       id="g17858"
       transform="matrix(0.32938344,0,0,0.32938344,287.57876,976.58917)" />
    <g
       id="g17860"
       transform="matrix(0.32938344,0,0,0.32938344,287.57876,976.58917)" />
    <g
       id="g17862"
       transform="matrix(0.32938344,0,0,0.32938344,287.57876,976.58917)" />
    <g
       id="g17864"
       transform="matrix(0.32938344,0,0,0.32938344,287.57876,976.58917)" />
    <g
       id="g17866"
       transform="matrix(0.32938344,0,0,0.32938344,287.57876,976.58917)" />
    <g
       id="g17868"
       transform="matrix(0.32938344,0,0,0.32938344,287.57876,976.58917)" />
    <g
       id="g17870"
       transform="matrix(0.32938344,0,0,0.32938344,287.57876,976.58917)" />
    <g
       id="g17872"
       transform="matrix(0.32938344,0,0,0.32938344,287.57876,976.58917)" />
    <g
       id="g354"
       inkscape:export-xdpi="90"
       inkscape:export-ydpi="90">
      <rect
         ry="0"
         rx="0"
         style="opacity:1;fill:#333333;fill-opacity:1;stroke:none;stroke-width:6.79094839;stroke-linecap:round;stroke-linejoin:round;stroke-miterlimit:4;stroke-dasharray:none;stroke-dashoffset:0;stroke-opacity:1"
         id="rect5453"
         width="150"
         height="150"
         x="254.30067"
         y="943.69336" />
      <g
         transform="matrix(1.4475904,-0.00405752,-0.00405752,1.4475904,-153.6852,-476.17308)"
         id="g18010">
        <g
           id="g17788"
           transform="matrix(0.32938344,0,0,0.32938344,287.57876,976.58917)">
          <path
             id="path17790"
             d="m 247.5,115.5 c 0,54.676 -44.324,99 -99,99 -54.676,0 -99,-44.324 -99,-99 z"
             style="fill:#b3b3b3"
             inkscape:connector-curvature="0" />
        </g>
        <g
           id="g17792"
           transform="matrix(0.32938344,0,0,0.32938344,287.57876,976.58917)">
          <path
             id="path17794"
             d="m 113.25,134.5 c 0,-2.485 2.015,-8 4.5,-8 2.485,0 4.5,5.515 4.5,8 0,2.485 -2.015,4.5 -4.5,4.5 -2.485,0 -4.5,-2.015 -4.5,-4.5 z"
             style="fill:#32373b"
             inkscape:connector-curvature="0" />
        </g>
        <g
           id="g17796"
           transform="matrix(0.32938344,0,0,0.32938344,287.57876,976.58917)">
          <path
             id="path17798"
             d="m 247.5,115.5 h -99 v 99 c 54.676,0 99,-44.324 99,-99 z"
             style="fill:#666666"
             inkscape:connector-curvature="0" />
        </g>
        <g
           id="g17800"
           transform="matrix(0.32938344,0,0,0.32938344,287.57876,976.58917)">
          <path
             id="path17802"
             d="m 82.5,134.5 c 0,-2.485 2.015,-8 4.5,-8 2.485,0 4.5,5.515 4.5,8 0,2.485 -2.015,4.5 -4.5,4.5 -2.485,0 -4.5,-2.015 -4.5,-4.5 z"
             style="fill:#32373b"
             inkscape:connector-curvature="0" />
        </g>
        <g
           id="g17804"
           transform="matrix(0.32938344,0,0,0.32938344,287.57876,976.58917)">
          <path
             id="path17806"
             d="m 174.75,134.5 c 0,-2.485 2.015,-8 4.5,-8 2.485,0 4.5,5.515 4.5,8 0,2.485 -2.015,4.5 -4.5,4.5 -2.485,0 -4.5,-2.015 -4.5,-4.5 z"
             style="fill:#292d30"
             inkscape:connector-curvature="0" />
        </g>
        <g
           id="g17808"
           transform="matrix(0.32938344,0,0,0.32938344,287.57876,976.58917)">
          <path
             id="path17810"
             d="m 205.5,134.5 c 0,-2.485 2.015,-8 4.5,-8 2.485,0 4.5,5.515 4.5,8 0,2.485 -2.015,4.5 -4.5,4.5 -2.485,0 -4.5,-2.015 -4.5,-4.5 z"
             style="fill:#292d30"
             inkscape:connector-curvature="0" />
        </g>
        <g
           id="g17812"
           transform="matrix(0.32938344,0,0,0.32938344,287.57876,976.58917)">
          <path
             id="path17814"
             d="m 96.75,161.75 c 0,-2.485 2.015,-8 4.5,-8 2.485,0 4.5,5.515 4.5,8 0,2.485 -2.015,4.5 -4.5,4.5 -2.485,0 -4.5,-2.015 -4.5,-4.5 z"
             style="fill:#32373b"
             inkscape:connector-curvature="0" />
        </g>
        <g
           id="g17816"
           transform="matrix(0.32938344,0,0,0.32938344,287.57876,976.58917)">
          <path
             id="path17818"
             d="m 127.5,161.75 c 0,-2.485 2.015,-8 4.5,-8 2.485,0 4.5,5.515 4.5,8 0,2.485 -2.015,4.5 -4.5,4.5 -2.485,0 -4.5,-2.015 -4.5,-4.5 z"
             style="fill:#32373b"
             inkscape:connector-curvature="0" />
        </g>
        <g
           id="g17820"
           transform="matrix(0.32938344,0,0,0.32938344,287.57876,976.58917)">
          <path
             id="path17822"
             d="m 158.25,161.75 c 0,-2.485 2.015,-8 4.5,-8 2.485,0 4.5,5.515 4.5,8 0,2.485 -2.015,4.5 -4.5,4.5 -2.485,0 -4.5,-2.015 -4.5,-4.5 z"
             style="fill:#292d30"
             inkscape:connector-curvature="0" />
        </g>
        <g
           id="g17824"
           transform="matrix(0.32938344,0,0,0.32938344,287.57876,976.58917)">
          <path
             id="path17826"
             d="m 189,161.75 c 0,-2.485 2.015,-8 4.5,-8 2.485,0 4.5,5.515 4.5,8 0,2.485 -2.015,4.5 -4.5,4.5 -2.485,0 -4.5,-2.015 -4.5,-4.5 z"
             style="fill:#292d30"
             inkscape:connector-curvature="0" />
        </g>
        <g
           id="g17828"
           transform="matrix(0.32938344,0,0,0.32938344,287.57876,976.58917)">
          <path
             id="path17830"
             d="m 144,134.5 c 0,-2.485 2.015,-8 4.5,-8 2.485,0 4.5,5.515 4.5,8 0,2.485 -2.015,4.5 -4.5,4.5 -2.485,0 -4.5,-2.015 -4.5,-4.5 z"
             style="fill:#32373b"
             inkscape:connector-curvature="0" />
        </g>
        <g
           id="g17832"
           transform="matrix(0.32938344,0,0,0.32938344,287.57876,976.58917)">
          <path
             id="path17834"
             d="M 33,115.5 C 33,179.289 84.711,231 148.5,231 212.289,231 264,179.289 264,115.5 h -24.75 c 0,50.12 -40.63,90.75 -90.75,90.75 -50.12,0 -90.75,-40.63 -90.75,-90.75 z"
             style="fill:#e6e6e6"
             inkscape:connector-curvature="0" />
        </g>
        <g
           id="g17836"
           transform="matrix(0.32938344,0,0,0.32938344,287.57876,976.58917)">
          <path
             id="path17838"
             d="m 264,115.5 h -24.75 c 0,50.12 -40.63,90.75 -90.75,90.75 V 231 C 212.289,231 264,179.289 264,115.5 Z"
             style="fill:#cccccc"
             inkscape:connector-curvature="0" />
        </g>
        <g
           id="g17840"
           transform="matrix(0.32938344,0,0,0.32938344,287.57876,976.58917)">
          <path
             id="path17842"
             d="m 153,134.5 c 0,-2.485 -2.015,-7.999 -4.5,-8 V 139 c 2.485,0 4.5,-2.015 4.5,-4.5 z"
             style="fill:#292d30"
             inkscape:connector-curvature="0" />
        </g>
      </g>
      <g
         id="g820"
         transform="matrix(0.23602292,-0.13409246,0.13409246,0.23602292,211.91634,837.03527)"
         style="fill:#f2f2f2">
        <path
           id="path790"
           d="m 167.56261,1026.4092 -0.48411,-0.5392 c 0,0 -0.0737,-0.08 -0.21653,-0.2229 -1.16309,-1.1624 -7.4107,-6.8665 -18.22451,-7.1102 -0.20669,-2.7474 -1.33921,-12.4474 -7.27317,-18.3802 l -0.54056,-0.54164 -18.1999,18.19894 -0.58831,0.59 0.63777,0.5343 c 0.003,0 0.25337,0.2155 0.66086,0.6199 2.07307,2.0729 6.8946,7.833 6.89348,16.5214 l -0.001,0.887 0.87616,-0.1303 c 0.0891,-0.013 8.68368,-1.1779 17.40647,7.5449 l 0.54095,0.5402 18.00016,-17.9986 0.51221,-0.5135 z"
           inkscape:connector-curvature="0"
           style="fill:#f2f2f2" />
        <circle
           id="circle792"
           r="5.968667"
           cy="414.12573"
           cx="-933.39734"
           style="fill:#f2f2f2"
           transform="rotate(-75)" />
        <path
           id="path794"
           d="m 57.089164,1083.2194 0.48745,0.5385 c 0,0 0.0717,0.081 0.21427,0.2255 1.16309,1.1624 7.41109,6.8651 18.22451,7.1102 0.2048,2.7485 1.33733,12.4485 7.26685,18.3801 l 0.54055,0.5416 18.202806,-18.1963 0.58844,-0.5917 -0.63777,-0.5343 c -0.001,0 -0.25414,-0.2126 -0.66129,-0.6185 -2.072716,-2.0743 -6.891226,-7.8336 -6.888636,-16.5216 l 0.001,-0.887 -0.87616,0.1303 c -0.0877,0.013 -8.68515,1.1775 -17.40497,-7.5445 l -0.54313,-0.5439 -17.99909,17.9958 -0.51448,0.5161 z"
           inkscape:connector-curvature="0"
           style="fill:#f2f2f2" />
        <circle
           id="circle796"
           r="5.968667"
           cy="348.8833"
           cx="-1046.2048"
           style="fill:#f2f2f2"
           transform="rotate(-75)" />
        <circle
           id="circle798"
           r="17.498177"
           cy="381.38284"
           cx="-989.98145"
           style="fill:#f2f2f2"
           transform="rotate(-75)" />
        <path
           id="path800"
           d="m 59.781734,1021.2827 -0.22323,0.6909 c 0,0 -0.0337,0.1021 -0.0861,0.2976 -0.42617,1.5905 -2.24131,9.8516 2.95301,19.3384 -2.27839,1.5546 -10.11059,7.3859 -12.28156,15.4881 l -0.19802,0.739 24.8605,6.6614 0.80455,0.2139 0.14467,-0.8183 c 0.002,-0.01 0.0584,-0.3304 0.20638,-0.8828 0.75911,-2.833 3.33603,-9.8852 10.86059,-14.2308 l 0.768,-0.4434 -0.55215,-0.6939 c -0.0537,-0.067 -5.36153,-6.9317 -2.16875,-18.8474 l 0.19722,-0.736 -24.58356,-6.5871 -0.70197,-0.1881 z"
           inkscape:connector-curvature="0"
           style="fill:#f2f2f2" />
        <circle
           id="circle802"
           r="5.968667"
           cy="316.06055"
           cx="-989.93622"
           style="fill:#f2f2f2"
           transform="rotate(-75)" />
        <path
           id="path804"
           d="m 109.18562,1116.7595 0.71067,-0.1525 c 0,0 0.10454,-0.023 0.30357,-0.073 1.58889,-0.4266 9.64866,-2.9843 15.27003,-12.2286 2.4824,1.1969 11.44901,5.0645 19.55207,2.8961 l 0.74045,-0.1984 -6.66128,-24.8637 -0.21483,-0.8036 -0.78095,0.2844 c -0.005,0 -0.31617,0.1137 -0.86872,0.2625 -2.83031,0.759 -10.23023,2.0508 -17.75178,-2.2931 l -0.76833,-0.444 -0.32591,0.8253 c -0.0304,0.084 -3.32066,8.1101 -15.23435,11.3018 l -0.74341,0.1976 6.58557,24.5894 0.1872,0.6994 z"
           inkscape:connector-curvature="0"
           style="fill:#f2f2f2" />
        <circle
           id="circle806"
           r="5.968667"
           cy="413.90009"
           cx="-1046.193"
           style="fill:#f2f2f2"
           transform="rotate(-75)" />
        <path
           style="fill:#f2f2f2"
           inkscape:connector-curvature="0"
           d="m 78.290854,1002.7736 0.69097,-0.2233 c 0,0 0.10211,-0.034 0.29756,-0.086 1.59052,-0.4261 9.85157,-2.2413 19.33843,2.953 1.554536,-2.2783 7.385876,-10.11054 15.488086,-12.28152 l 0.73899,-0.19801 6.66135,24.86053 0.21399,0.8045 -0.81836,0.1447 c -0.005,0 -0.33038,0.058 -0.88277,0.2064 -2.83304,0.7591 -9.88522,3.336 -14.23079,10.8605 l -0.4434,0.7681 -0.69394,-0.5522 c -0.0666,-0.054 -6.931726,-5.3615 -18.847346,-2.1688 l -0.73603,0.1973 -6.58715,-24.5836 -0.18809,-0.702 z"
           id="path808" />
        <circle
           transform="matrix(-0.96592582,0.25881905,0.25881905,0.96592582,0,0)"
           style="fill:#f2f2f2"
           cx="164.98817"
           cy="982.85645"
           r="5.968667"
           id="circle810" />
        <path
           style="fill:#f2f2f2"
           inkscape:connector-curvature="0"
           d="m 174.30884,1051.6329 -0.15243,0.7106 c 0,0 -0.0228,0.1046 -0.0726,0.3036 -0.42662,1.5889 -2.98436,9.6487 -12.22866,15.27 1.19689,2.4824 5.06453,11.449 2.89616,19.5521 l -0.19842,0.7405 -24.8637,-6.6613 -0.80358,-0.2149 0.28439,-0.7809 c 0.002,0 0.11369,-0.3162 0.26246,-0.8687 0.75904,-2.8303 2.05076,-10.2303 -2.29315,-17.7518 l -0.44396,-0.7683 0.82535,-0.326 c 0.0839,-0.03 8.11001,-3.3206 11.30173,-15.2343 l 0.19762,-0.7434 24.58945,6.5856 0.69936,0.1872 z"
           id="path812" />
        <circle
           transform="matrix(-0.96592582,0.25881905,0.25881905,0.96592582,0,0)"
           style="fill:#f2f2f2"
           cx="108.06777"
           cy="1080.3101"
           r="5.968667"
           id="circle814" />
        <path
           sodipodi:arc-type="slice"
           transform="rotate(-44.999999)"
           style="fill:#f2f2f2"
           id="path816"
           sodipodi:type="arc"
           sodipodi:cx="-601.2854"
           sodipodi:cy="825.3512"
           sodipodi:rx="5.968667"
           sodipodi:ry="5.968667"
           sodipodi:start="0"
           sodipodi:end="3.1377891"
           d="m -595.31673,825.3512 a 5.968667,5.968667 0 0 1 -5.95732,5.96865 5.968667,5.968667 0 0 1 -5.97997,-5.94595 l 5.96862,-0.0227 z"
           inkscape:transform-center-x="-0.95098945"
           inkscape:transform-center-y="0.98593419" />
        <path
           sodipodi:arc-type="arc"
           inkscape:transform-center-y="0.98593419"
           inkscape:transform-center-x="-0.95098945"
           d="m -725.63851,825.25586 a 5.968667,5.968667 0 0 1 -5.95327,5.96865 5.968667,5.968667 0 0 1 -5.98399,-5.93785"
           sodipodi:end="3.1364329"
           sodipodi:start="0"
           sodipodi:ry="5.968667"
           sodipodi:rx="5.968667"
           sodipodi:cy="825.25586"
           sodipodi:cx="-731.60718"
           sodipodi:type="arc"
           id="path818"
           style="fill:#f2f2f2"
           transform="rotate(-44.999999)"
           sodipodi:open="true" />
      </g>
    </g>
  </g>
</svg>
