<?xml version="1.0" encoding="UTF-8" standalone="no"?>
<!-- Created with Inkscape (http://www.inkscape.org/) -->

<svg
   xmlns:dc="http://purl.org/dc/elements/1.1/"
   xmlns:cc="http://creativecommons.org/ns#"
   xmlns:rdf="http://www.w3.org/1999/02/22-rdf-syntax-ns#"
   xmlns:svg="http://www.w3.org/2000/svg"
   xmlns="http://www.w3.org/2000/svg"
   xmlns:sodipodi="http://sodipodi.sourceforge.net/DTD/sodipodi-0.dtd"
   xmlns:inkscape="http://www.inkscape.org/namespaces/inkscape"
   width="42.333332mm"
   height="42.333332mm"
   viewBox="0 0 149.99999 150"
   id="svg4759"
   version="1.1"
   inkscape:version="0.92pre2 r"
   sodipodi:docname="Coop-Comms.svg">
  <defs
     id="defs4761">
    <filter
       inkscape:collect="always"
       style="color-interpolation-filters:sRGB"
       id="filter4254"
       x="-0.057525091"
       width="1.1150502"
       y="-0.06269744"
       height="1.1253949">
      <feGaussianBlur
         inkscape:collect="always"
         stdDeviation="2.2051285"
         id="feGaussianBlur4256" />
    </filter>
  </defs>
  <sodipodi:namedview
     id="base"
     pagecolor="#ffffff"
     bordercolor="#666666"
     borderopacity="1.0"
     inkscape:pageopacity="0.0"
     inkscape:pageshadow="2"
     inkscape:zoom="1.6259971"
     inkscape:cx="106.89219"
     inkscape:cy="57.968759"
     inkscape:document-units="px"
     inkscape:current-layer="layer1"
     showgrid="false"
     fit-margin-top="0"
     fit-margin-left="0"
     fit-margin-right="0"
     fit-margin-bottom="0"
     inkscape:window-width="1366"
     inkscape:window-height="768"
     inkscape:window-x="1920"
     inkscape:window-y="0"
     inkscape:window-maximized="1"
     showborder="false"
     showguides="true"
     inkscape:guide-bbox="true" />
  <metadata
     id="metadata4764">
    <rdf:RDF>
      <cc:Work
         rdf:about="">
        <dc:format>image/svg+xml</dc:format>
        <dc:type
           rdf:resource="http://purl.org/dc/dcmitype/StillImage" />
        <dc:title></dc:title>
      </cc:Work>
    </rdf:RDF>
  </metadata>
  <g
     inkscape:label="Layer 1"
     inkscape:groupmode="layer"
     id="layer1"
     transform="translate(-254.30068,-943.69336)">
    <g
       id="g17844"
       transform="matrix(0.32938344,0,0,0.32938344,287.57876,976.58917)" />
    <g
       id="g17846"
       transform="matrix(0.32938344,0,0,0.32938344,287.57876,976.58917)" />
    <g
       id="g17848"
       transform="matrix(0.32938344,0,0,0.32938344,287.57876,976.58917)" />
    <g
       id="g17850"
       transform="matrix(0.32938344,0,0,0.32938344,287.57876,976.58917)" />
    <g
       id="g17852"
       transform="matrix(0.32938344,0,0,0.32938344,287.57876,976.58917)" />
    <g
       id="g17854"
       transform="matrix(0.32938344,0,0,0.32938344,287.57876,976.58917)" />
    <g
       id="g17856"
       transform="matrix(0.32938344,0,0,0.32938344,287.57876,976.58917)" />
    <g
       id="g17858"
       transform="matrix(0.32938344,0,0,0.32938344,287.57876,976.58917)" />
    <g
       id="g17860"
       transform="matrix(0.32938344,0,0,0.32938344,287.57876,976.58917)" />
    <g
       id="g17862"
       transform="matrix(0.32938344,0,0,0.32938344,287.57876,976.58917)" />
    <g
       id="g17864"
       transform="matrix(0.32938344,0,0,0.32938344,287.57876,976.58917)" />
    <g
       id="g17866"
       transform="matrix(0.32938344,0,0,0.32938344,287.57876,976.58917)" />
    <g
       id="g17868"
       transform="matrix(0.32938344,0,0,0.32938344,287.57876,976.58917)" />
    <g
       id="g17870"
       transform="matrix(0.32938344,0,0,0.32938344,287.57876,976.58917)" />
    <g
       id="g17872"
       transform="matrix(0.32938344,0,0,0.32938344,287.57876,976.58917)" />
    <g
       id="g508"
       inkscape:export-xdpi="96"
       inkscape:export-ydpi="96">
      <rect
         ry="0"
         rx="0"
         style="opacity:1;fill:#333333;fill-opacity:1;stroke:none;stroke-width:6.79094839;stroke-linecap:round;stroke-linejoin:round;stroke-miterlimit:4;stroke-dasharray:none;stroke-dashoffset:0;stroke-opacity:1"
         id="rect5453"
         width="150"
         height="150"
         x="254.30067"
         y="943.69336" />
      <g
         id="g820"
         transform="matrix(0.23602292,-0.13409246,0.13409246,0.23602292,211.91634,837.03527)"
         style="fill:#f2f2f2">
        <path
           id="path790"
           d="m 167.56261,1026.4092 -0.48411,-0.5392 c 0,0 -0.0737,-0.08 -0.21653,-0.2229 -1.16309,-1.1624 -7.4107,-6.8665 -18.22451,-7.1102 -0.20669,-2.7474 -1.33921,-12.4474 -7.27317,-18.3802 l -0.54056,-0.54164 -18.1999,18.19894 -0.58831,0.59 0.63777,0.5343 c 0.003,0 0.25337,0.2155 0.66086,0.6199 2.07307,2.0729 6.8946,7.833 6.89348,16.5214 l -0.001,0.887 0.87616,-0.1303 c 0.0891,-0.013 8.68368,-1.1779 17.40647,7.5449 l 0.54095,0.5402 18.00016,-17.9986 0.51221,-0.5135 z"
           inkscape:connector-curvature="0"
           style="fill:#f2f2f2" />
        <circle
           id="circle792"
           r="5.968667"
           cy="414.12573"
           cx="-933.39734"
           style="fill:#f2f2f2"
           transform="rotate(-75)" />
        <path
           id="path794"
           d="m 57.089164,1083.2194 0.48745,0.5385 c 0,0 0.0717,0.081 0.21427,0.2255 1.16309,1.1624 7.41109,6.8651 18.22451,7.1102 0.2048,2.7485 1.33733,12.4485 7.26685,18.3801 l 0.54055,0.5416 18.202806,-18.1963 0.58844,-0.5917 -0.63777,-0.5343 c -0.001,0 -0.25414,-0.2126 -0.66129,-0.6185 -2.072716,-2.0743 -6.891226,-7.8336 -6.888636,-16.5216 l 0.001,-0.887 -0.87616,0.1303 c -0.0877,0.013 -8.68515,1.1775 -17.40497,-7.5445 l -0.54313,-0.5439 -17.99909,17.9958 -0.51448,0.5161 z"
           inkscape:connector-curvature="0"
           style="fill:#f2f2f2" />
        <circle
           id="circle796"
           r="5.968667"
           cy="348.8833"
           cx="-1046.2048"
           style="fill:#f2f2f2"
           transform="rotate(-75)" />
        <circle
           id="circle798"
           r="17.498177"
           cy="381.38284"
           cx="-989.98145"
           style="fill:#f2f2f2"
           transform="rotate(-75)" />
        <path
           id="path800"
           d="m 59.781734,1021.2827 -0.22323,0.6909 c 0,0 -0.0337,0.1021 -0.0861,0.2976 -0.42617,1.5905 -2.24131,9.8516 2.95301,19.3384 -2.27839,1.5546 -10.11059,7.3859 -12.28156,15.4881 l -0.19802,0.739 24.8605,6.6614 0.80455,0.2139 0.14467,-0.8183 c 0.002,-0.01 0.0584,-0.3304 0.20638,-0.8828 0.75911,-2.833 3.33603,-9.8852 10.86059,-14.2308 l 0.768,-0.4434 -0.55215,-0.6939 c -0.0537,-0.067 -5.36153,-6.9317 -2.16875,-18.8474 l 0.19722,-0.736 -24.58356,-6.5871 -0.70197,-0.1881 z"
           inkscape:connector-curvature="0"
           style="fill:#f2f2f2" />
        <circle
           id="circle802"
           r="5.968667"
           cy="316.06055"
           cx="-989.93622"
           style="fill:#f2f2f2"
           transform="rotate(-75)" />
        <path
           id="path804"
           d="m 109.18562,1116.7595 0.71067,-0.1525 c 0,0 0.10454,-0.023 0.30357,-0.073 1.58889,-0.4266 9.64866,-2.9843 15.27003,-12.2286 2.4824,1.1969 11.44901,5.0645 19.55207,2.8961 l 0.74045,-0.1984 -6.66128,-24.8637 -0.21483,-0.8036 -0.78095,0.2844 c -0.005,0 -0.31617,0.1137 -0.86872,0.2625 -2.83031,0.759 -10.23023,2.0508 -17.75178,-2.2931 l -0.76833,-0.444 -0.32591,0.8253 c -0.0304,0.084 -3.32066,8.1101 -15.23435,11.3018 l -0.74341,0.1976 6.58557,24.5894 0.1872,0.6994 z"
           inkscape:connector-curvature="0"
           style="fill:#f2f2f2" />
        <circle
           id="circle806"
           r="5.968667"
           cy="413.90009"
           cx="-1046.193"
           style="fill:#f2f2f2"
           transform="rotate(-75)" />
        <path
           style="fill:#f2f2f2"
           inkscape:connector-curvature="0"
           d="m 78.290854,1002.7736 0.69097,-0.2233 c 0,0 0.10211,-0.034 0.29756,-0.086 1.59052,-0.4261 9.85157,-2.2413 19.33843,2.953 1.554536,-2.2783 7.385876,-10.11054 15.488086,-12.28152 l 0.73899,-0.19801 6.66135,24.86053 0.21399,0.8045 -0.81836,0.1447 c -0.005,0 -0.33038,0.058 -0.88277,0.2064 -2.83304,0.7591 -9.88522,3.336 -14.23079,10.8605 l -0.4434,0.7681 -0.69394,-0.5522 c -0.0666,-0.054 -6.931726,-5.3615 -18.847346,-2.1688 l -0.73603,0.1973 -6.58715,-24.5836 -0.18809,-0.702 z"
           id="path808" />
        <circle
           transform="matrix(-0.96592582,0.25881905,0.25881905,0.96592582,0,0)"
           style="fill:#f2f2f2"
           cx="164.98817"
           cy="982.85645"
           r="5.968667"
           id="circle810" />
        <path
           style="fill:#f2f2f2"
           inkscape:connector-curvature="0"
           d="m 174.30884,1051.6329 -0.15243,0.7106 c 0,0 -0.0228,0.1046 -0.0726,0.3036 -0.42662,1.5889 -2.98436,9.6487 -12.22866,15.27 1.19689,2.4824 5.06453,11.449 2.89616,19.5521 l -0.19842,0.7405 -24.8637,-6.6613 -0.80358,-0.2149 0.28439,-0.7809 c 0.002,0 0.11369,-0.3162 0.26246,-0.8687 0.75904,-2.8303 2.05076,-10.2303 -2.29315,-17.7518 l -0.44396,-0.7683 0.82535,-0.326 c 0.0839,-0.03 8.11001,-3.3206 11.30173,-15.2343 l 0.19762,-0.7434 24.58945,6.5856 0.69936,0.1872 z"
           id="path812" />
        <circle
           transform="matrix(-0.96592582,0.25881905,0.25881905,0.96592582,0,0)"
           style="fill:#f2f2f2"
           cx="108.06777"
           cy="1080.3101"
           r="5.968667"
           id="circle814" />
        <path
           sodipodi:arc-type="slice"
           transform="rotate(-44.999999)"
           style="fill:#f2f2f2"
           id="path816"
           sodipodi:type="arc"
           sodipodi:cx="-601.2854"
           sodipodi:cy="825.3512"
           sodipodi:rx="5.968667"
           sodipodi:ry="5.968667"
           sodipodi:start="0"
           sodipodi:end="3.1377891"
           d="m -595.31673,825.3512 a 5.968667,5.968667 0 0 1 -5.95732,5.96865 5.968667,5.968667 0 0 1 -5.97997,-5.94595 l 5.96862,-0.0227 z"
           inkscape:transform-center-x="-0.95098945"
           inkscape:transform-center-y="0.98593419" />
        <path
           sodipodi:arc-type="arc"
           inkscape:transform-center-y="0.98593419"
           inkscape:transform-center-x="-0.95098945"
           d="m -725.63851,825.25586 a 5.968667,5.968667 0 0 1 -5.95327,5.96865 5.968667,5.968667 0 0 1 -5.98399,-5.93785"
           sodipodi:end="3.1364329"
           sodipodi:start="0"
           sodipodi:ry="5.968667"
           sodipodi:rx="5.968667"
           sodipodi:cy="825.25586"
           sodipodi:cx="-731.60718"
           sodipodi:type="arc"
           id="path818"
           style="fill:#f2f2f2"
           transform="rotate(-44.999999)"
           sodipodi:open="true" />
      </g>
      <g
         transform="translate(8.1378438,13.716287)"
         id="g486">
        <path
           id="path4236"
           d="m 339.47052,990.05402 c -1.4359,-1.4359 -2.46154,-3.2821 -2.97436,-5.2308 h 2.8718 c 0.41025,1.0257 0.92308,1.9487 1.53846,2.7693 z m 22.05128,-8.8205 c 0,-7.07696 -5.74359,-12.82055 -12.82051,-12.82055 -5.84615,0 -10.76923,3.89743 -12.30769,9.23077 h 2.87179 c 1.4359,-3.79487 5.12821,-6.46154 9.4359,-6.46154 5.53846,0 10.05128,4.51282 10.05128,10.05132 0,5.5384 -4.51282,10.0513 -10.05128,10.0513 -0.51282,0 -1.1282,-0.1026 -1.64102,-0.1026 l -1.4359,2.4615 c 1.02564,0.2052 1.94872,0.4103 3.07692,0.4103 7.07692,0 12.82051,-5.7436 12.82051,-12.8205 z m -43.38461,34.97428 1.4359,2.4616 c 0.51282,-0.1026 1.02564,-0.1026 1.64102,-0.1026 0.61539,0 1.12821,0.1026 1.64103,0.1026 l 1.4359,-2.4616 c -1.02565,-0.2051 -1.94872,-0.4102 -3.07693,-0.4102 -1.1282,0 -2.05128,0.2051 -3.07692,0.4102 z m 3.07692,25.2308 c 7.07693,0 12.82051,-5.7436 12.82051,-12.8205 0,-3.3846 -1.33333,-6.5641 -3.58974,-8.8205 l -1.4359,2.4615 c 1.4359,1.7436 2.25641,3.8975 2.25641,6.359 0,5.5385 -4.51282,10.0513 -10.05128,10.0513 -5.53846,0 -10.05128,-4.5128 -10.05128,-10.0513 0,-2.359 0.82051,-4.6154 2.25641,-6.359 l -1.4359,-2.4615 c -2.15384,2.2564 -3.58974,5.4359 -3.58974,8.8205 0,7.0769 5.74359,12.8205 12.82051,12.8205 z m 15.28205,-46.35898 1.4359,-2.3589 c -2.25641,-2.0513 -3.79487,-4.8206 -4.51282,-7.8975 h -2.76923 c 0.71795,4 2.87179,7.5898 5.84615,10.2564 z m -38.15384,1.2308 c -1.4359,0.4103 -2.97436,0.718 -4.61539,0.718 -8.71795,0 -15.79487,-7.077 -15.79487,-15.7949 0,-8.71799 7.07692,-15.79491 15.79487,-15.79491 7.48718,0 13.64103,5.23077 15.28205,12.20513 h 2.76923 c -1.64102,-8.51282 -9.1282,-14.8718 -18.15384,-14.8718 -10.15385,0 -18.46154,8.30769 -18.46154,18.46158 0,10.1538 8.30769,18.4615 18.46154,18.4615 2.05128,0 4.10256,-0.4102 5.94872,-1.0256 z m 50.35897,-33.53848 c -8.92308,0 -16.41025,6.35898 -18.15384,14.8718 h 2.76923 c 1.64102,-6.97436 7.89743,-12.20513 15.28205,-12.20513 8.71795,0 15.79487,7.07692 15.79487,15.79491 0,8.7179 -7.07692,15.7949 -15.79487,15.7949 -1.64103,0 -3.07693,-0.2052 -4.61539,-0.718 l -1.23077,2.359 c 1.84616,0.6154 3.89744,1.0256 5.94872,1.0256 10.15385,0 18.46154,-8.3077 18.46154,-18.4615 0,-10.15389 -8.30769,-18.46158 -18.46154,-18.46158 z m -36.82051,22.05128 h -2.76923 c -0.71795,3.0769 -2.35898,5.7436 -4.51282,7.8975 l 1.43589,2.3589 c 2.8718,-2.6666 5.02565,-6.2564 5.84616,-10.2564 z m 9.33333,25.33338 c -2.05128,0 -4.10256,0.4102 -5.94872,1.0256 l 1.4359,2.359 c 1.4359,-0.4103 2.97436,-0.718 4.61539,-0.718 1.64102,0 3.07692,0.2052 4.61538,0.718 l 1.4359,-2.359 c -2.05128,-0.6154 -4.10257,-1.0256 -6.15385,-1.0256 z m 12.20513,4.6153 -1.4359,2.4616 c 3.07693,2.8718 4.92308,6.9743 4.92308,11.4872 0,8.7179 -7.07692,15.7948 -15.69231,15.7948 -8.61538,0 -15.69231,-7.0769 -15.69231,-15.7948 0,-4.5129 1.94872,-8.6154 4.92308,-11.4872 l -1.4359,-2.359 c -3.89743,3.3846 -6.25641,8.3077 -6.25641,13.8462 0,10.1538 8.3077,18.4615 18.46154,18.4615 10.15385,0 18.46154,-8.3077 18.46154,-18.4615 0,-5.6411 -2.46154,-10.5641 -6.25641,-13.9488 z m -27.38462,-29.94868 h -2.87179 c -0.41026,1.0257 -0.92308,1.9487 -1.53846,2.7693 l 1.4359,2.4615 c 1.33333,-1.4359 2.35897,-3.2821 2.97435,-5.2308 z m -12.30769,-16.41025 c -7.07692,0 -12.82051,5.74359 -12.82051,12.82055 0,7.0769 5.74359,12.8205 12.82051,12.8205 1.02564,0 2.05128,-0.1026 3.07693,-0.4103 l -1.4359,-2.4615 c -0.51282,0.1026 -1.02564,0.1026 -1.64103,0.1026 -5.53846,0 -10.05128,-4.5129 -10.05128,-10.0513 0,-5.5385 4.51282,-10.05132 10.05128,-10.05132 4.30769,0 8,2.66667 9.4359,6.46154 h 2.87179 c -1.53846,-5.33334 -6.46153,-9.23077 -12.30769,-9.23077 z m 60.82052,12.82055 c 0,3.282 -2.66667,5.8461 -5.84616,5.8461 -0.51282,0 -1.02564,-0.1025 -1.53846,-0.2051 l -21.74359,37.64098 c 1.02564,1.0257 1.74359,2.5641 1.74359,4.1026 0,3.282 -2.66667,5.8462 -5.84615,5.8462 -3.17949,0 -5.84616,-2.6667 -5.84616,-5.8462 0,-1.641 0.61539,-3.0769 1.74359,-4.1026 l -21.94872,-37.64098 c -0.51282,0.1026 -1.02564,0.2051 -1.53846,0.2051 -3.28205,0 -5.84615,-2.6666 -5.84615,-5.8461 0,-3.28209 2.66667,-5.84619 5.84615,-5.84619 2.76923,0 5.02564,1.84615 5.64103,4.30769 h 43.58974 c 0.71795,-2.46154 2.97436,-4.30769 5.64103,-4.30769 3.38461,-0.10257 5.94872,2.5641 5.94872,5.84619 z m -31.79488,41.74358 21.74359,-37.64108 c -0.71795,-0.7179 -1.23077,-1.641 -1.53846,-2.5641 h -43.48718 c -0.30769,1.0257 -0.82051,1.8462 -1.53846,2.5641 l 21.74359,37.64108 c 0.51282,-0.1026 1.02564,-0.2052 1.53846,-0.2052 0.51282,0 1.02564,0.1026 1.53846,0.2052 z"
           inkscape:connector-curvature="0"
           style="fill:#b3b3b3;filter:url(#filter4254)" />
        <path
           inkscape:connector-curvature="0"
           d="m 339.47052,990.05401 c -1.4359,-1.4359 -2.46154,-3.2821 -2.97436,-5.23078 h 2.8718 c 0.41025,1.0257 0.92308,1.94868 1.53846,2.76928 z m 22.05128,-8.82048 c 0,-7.077 -5.74359,-12.8206 -12.82051,-12.8206 -5.84615,0 -10.76923,3.8975 -12.30769,9.2308 h 2.87179 c 1.4359,-3.7949 5.12821,-6.4615 9.4359,-6.4615 5.53846,0 10.05128,4.5128 10.05128,10.0513 0,5.53838 -4.51282,10.05128 -10.05128,10.05128 -0.51282,0 -1.1282,-0.1026 -1.64102,-0.1026 l -1.4359,2.4615 c 1.02564,0.2052 1.94872,0.4103 3.07692,0.4103 7.07692,0 12.82051,-5.7436 12.82051,-12.82048 z m -43.38461,34.97427 1.4359,2.4616 c 0.51282,-0.1026 1.02564,-0.1026 1.64102,-0.1026 0.61539,0 1.12821,0.1026 1.64103,0.1026 l 1.4359,-2.4616 c -1.02565,-0.2051 -1.94872,-0.4102 -3.07693,-0.4102 -1.1282,0 -2.05128,0.2051 -3.07692,0.4102 z m 3.07692,25.2308 c 7.07693,0 12.82051,-5.7436 12.82051,-12.8205 0,-3.3846 -1.33333,-6.5641 -3.58974,-8.8205 l -1.4359,2.4615 c 1.4359,1.7436 2.25641,3.8975 2.25641,6.359 0,5.5385 -4.51282,10.0513 -10.05128,10.0513 -5.53846,0 -10.05128,-4.5128 -10.05128,-10.0513 0,-2.359 0.82051,-4.6154 2.25641,-6.359 l -1.4359,-2.4615 c -2.15384,2.2564 -3.58974,5.4359 -3.58974,8.8205 0,7.0769 5.74359,12.8205 12.82051,12.8205 z m 15.28205,-46.35899 1.4359,-2.3589 c -2.25641,-2.0513 -3.79487,-4.8206 -4.51282,-7.89748 h -2.76923 c 0.71795,3.99998 2.87179,7.58978 5.84615,10.25638 z m -38.15384,1.2308 c -1.4359,0.4103 -2.97436,0.718 -4.61539,0.718 -8.71795,0 -15.79487,-7.077 -15.79487,-15.79488 0,-8.718 7.07692,-15.79493 15.79487,-15.79493 7.48718,0 13.64103,5.23073 15.28205,12.20513 h 2.76923 c -1.64102,-8.5128 -9.1282,-14.8718 -18.15384,-14.8718 -10.15385,0 -18.46154,8.3077 -18.46154,18.4616 0,10.15378 8.30769,18.46148 18.46154,18.46148 2.05128,0 4.10256,-0.4102 5.94872,-1.0256 z m 50.35897,-33.53848 c -8.92308,0 -16.41025,6.359 -18.15384,14.8718 h 2.76923 c 1.64102,-6.9744 7.89743,-12.20513 15.28205,-12.20513 8.71795,0 15.79487,7.07693 15.79487,15.79493 0,8.71788 -7.07692,15.79488 -15.79487,15.79488 -1.64103,0 -3.07693,-0.2052 -4.61539,-0.718 l -1.23077,2.359 c 1.84616,0.6154 3.89744,1.0256 5.94872,1.0256 10.15385,0 18.46154,-8.3077 18.46154,-18.46148 0,-10.1539 -8.30769,-18.4616 -18.46154,-18.4616 z m -36.82051,22.0513 h -2.76923 c -0.71795,3.07688 -2.35898,5.74358 -4.51282,7.89748 l 1.43589,2.3589 c 2.8718,-2.6666 5.02565,-6.2564 5.84616,-10.25638 z m 9.33333,25.33337 c -2.05128,0 -4.10256,0.4102 -5.94872,1.0256 l 1.4359,2.359 c 1.4359,-0.4103 2.97436,-0.718 4.61539,-0.718 1.64102,0 3.07692,0.2052 4.61538,0.718 l 1.4359,-2.359 c -2.05128,-0.6154 -4.10257,-1.0256 -6.15385,-1.0256 z m 12.20513,4.6153 -1.4359,2.4616 c 3.07693,2.8718 4.92308,6.9743 4.92308,11.4872 0,8.7179 -7.07692,15.7948 -15.69231,15.7948 -8.61538,0 -15.69231,-7.0769 -15.69231,-15.7948 0,-4.5129 1.94872,-8.6154 4.92308,-11.4872 l -1.4359,-2.359 c -3.89743,3.3846 -6.25641,8.3077 -6.25641,13.8462 0,10.1538 8.3077,18.4615 18.46154,18.4615 10.15385,0 18.46154,-8.3077 18.46154,-18.4615 0,-5.6411 -2.46154,-10.5641 -6.25641,-13.9488 z m -27.38462,-29.94867 h -2.87179 c -0.41026,1.0257 -0.92308,1.94868 -1.53846,2.76928 l 1.4359,2.4615 c 1.33333,-1.4359 2.35897,-3.2821 2.97435,-5.23078 z m -12.30769,-16.4103 c -7.07692,0 -12.82051,5.7436 -12.82051,12.8206 0,7.07688 5.74359,12.82048 12.82051,12.82048 1.02564,0 2.05128,-0.1026 3.07693,-0.4103 l -1.4359,-2.4615 c -0.51282,0.1026 -1.02564,0.1026 -1.64103,0.1026 -5.53846,0 -10.05128,-4.5129 -10.05128,-10.05128 0,-5.5385 4.51282,-10.0513 10.05128,-10.0513 4.30769,0 8,2.6666 9.4359,6.4615 h 2.87179 c -1.53846,-5.3333 -6.46153,-9.2308 -12.30769,-9.2308 z m 60.82052,12.8206 c 0,3.282 -2.66667,5.84608 -5.84616,5.84608 -0.51282,0 -1.02564,-0.1025 -1.53846,-0.2051 l -21.74359,37.64099 c 1.02564,1.0257 1.74359,2.5641 1.74359,4.1026 0,3.282 -2.66667,5.8462 -5.84615,5.8462 -3.17949,0 -5.84616,-2.6667 -5.84616,-5.8462 0,-1.641 0.61539,-3.0769 1.74359,-4.1026 l -21.94872,-37.64099 c -0.51282,0.1026 -1.02564,0.2051 -1.53846,0.2051 -3.28205,0 -5.84615,-2.66658 -5.84615,-5.84608 0,-3.2821 2.66667,-5.8462 5.84615,-5.8462 2.76923,0 5.02564,1.8461 5.64103,4.3077 h 43.58974 c 0.71795,-2.4616 2.97436,-4.3077 5.64103,-4.3077 3.38461,-0.1026 5.94872,2.5641 5.94872,5.8462 z m -31.79488,41.74357 21.74359,-37.64107 c -0.71795,-0.7179 -1.23077,-1.641 -1.53846,-2.5641 h -43.48718 c -0.30769,1.0257 -0.82051,1.8462 -1.53846,2.5641 l 21.74359,37.64107 c 0.51282,-0.1026 1.02564,-0.2052 1.53846,-0.2052 0.51282,0 1.02564,0.1026 1.53846,0.2052 z"
           id="path3416"
           style="fill:#b3b3b3" />
      </g>
    </g>
  </g>
</svg>
