<?xml version="1.0" encoding="UTF-8" standalone="no"?>
<!-- Created with Inkscape (http://www.inkscape.org/) -->

<svg
   xmlns:dc="http://purl.org/dc/elements/1.1/"
   xmlns:cc="http://creativecommons.org/ns#"
   xmlns:rdf="http://www.w3.org/1999/02/22-rdf-syntax-ns#"
   xmlns:svg="http://www.w3.org/2000/svg"
   xmlns="http://www.w3.org/2000/svg"
   xmlns:sodipodi="http://sodipodi.sourceforge.net/DTD/sodipodi-0.dtd"
   xmlns:inkscape="http://www.inkscape.org/namespaces/inkscape"
   width="42.333332mm"
   height="42.333332mm"
   viewBox="0 0 149.99999 150"
   id="svg4759"
   version="1.1"
   inkscape:version="0.92pre2 r"
   sodipodi:docname="D3.svg">
  <defs
     id="defs4761">
    <linearGradient
       id="linearGradient-1"
       y2="181.92058"
       x2="257.21965"
       y1="18.935974"
       x1="104.44516"
       gradientTransform="scale(1.0064904,0.99355149)"
       gradientUnits="userSpaceOnUse">
      <stop
         id="stop1030"
         offset="0%"
         stop-color="#F9A03C" />
      <stop
         id="stop1032"
         offset="100%"
         stop-color="#F7974E" />
    </linearGradient>
    <linearGradient
       id="linearGradient-2"
       y2="188.40465"
       x2="122.23597"
       y1="48.226913"
       x1="-21.491283"
       gradientTransform="scale(0.99750234,1.0025039)"
       gradientUnits="userSpaceOnUse">
      <stop
         id="stop1035"
         offset="0%"
         stop-color="#F9A03C" />
      <stop
         id="stop1037"
         offset="100%"
         stop-color="#F7974E" />
    </linearGradient>
    <linearGradient
       id="linearGradient-3"
       y2="246.03192"
       x2="172.57632"
       y1="98.811852"
       x1="44.167822"
       gradientTransform="scale(1.0137653,0.98642161)"
       gradientUnits="userSpaceOnUse">
      <stop
         id="stop1040"
         offset="0%"
         stop-color="#F9A03C" />
      <stop
         id="stop1042"
         offset="100%"
         stop-color="#F7974E" />
    </linearGradient>
    <linearGradient
       id="linearGradient-4"
       y2="229.18869"
       x2="205.2748"
       y1="-4.5329199"
       x1="28.214055"
       gradientTransform="scale(1.0281528,0.97261808)"
       gradientUnits="userSpaceOnUse">
      <stop
         id="stop1045"
         offset="0%"
         stop-color="#F26D58" />
      <stop
         id="stop1047"
         offset="100%"
         stop-color="#F9A03C" />
    </linearGradient>
    <linearGradient
       id="linearGradient-5"
       y2="121.3268"
       x2="300.62945"
       y1="6.4669924"
       x1="125.82687"
       gradientTransform="scale(0.95887522,1.0428886)"
       gradientUnits="userSpaceOnUse">
      <stop
         id="stop1050"
         offset="0%"
         stop-color="#B84E51" />
      <stop
         id="stop1052"
         offset="100%"
         stop-color="#F68E48" />
    </linearGradient>
    <linearGradient
       id="linearGradient-6"
       y2="395.51136"
       x2="66.386718"
       y1="236.93777"
       x1="60.120748"
       gradientTransform="scale(1.3814153,0.72389527)"
       gradientUnits="userSpaceOnUse">
      <stop
         id="stop1055"
         offset="0%"
         stop-color="#F9A03C" />
      <stop
         id="stop1057"
         offset="100%"
         stop-color="#F7974E" />
    </linearGradient>
  </defs>
  <sodipodi:namedview
     id="base"
     pagecolor="#ffffff"
     bordercolor="#666666"
     borderopacity="1.0"
     inkscape:pageopacity="0.0"
     inkscape:pageshadow="2"
     inkscape:zoom="2.0929958"
     inkscape:cx="152.9451"
     inkscape:cy="66.113719"
     inkscape:document-units="px"
     inkscape:current-layer="layer1"
     showgrid="false"
     fit-margin-top="0"
     fit-margin-left="0"
     fit-margin-right="0"
     fit-margin-bottom="0"
     inkscape:window-width="1366"
     inkscape:window-height="768"
     inkscape:window-x="0"
     inkscape:window-y="0"
     inkscape:window-maximized="0"
     showborder="false" />
  <metadata
     id="metadata4764">
    <rdf:RDF>
      <cc:Work
         rdf:about="">
        <dc:format>image/svg+xml</dc:format>
        <dc:type
           rdf:resource="http://purl.org/dc/dcmitype/StillImage" />
        <dc:title></dc:title>
      </cc:Work>
    </rdf:RDF>
  </metadata>
  <g
     inkscape:label="Layer 1"
     inkscape:groupmode="layer"
     id="layer1"
     transform="translate(-263.37482,-945.53693)">
    <g
       id="g1134">
      <rect
         ry="0"
         rx="0"
         style="opacity:1;fill:#333333;fill-opacity:1;stroke:none;stroke-width:8.48868561;stroke-linecap:round;stroke-linejoin:round;stroke-miterlimit:4;stroke-dasharray:none;stroke-dashoffset:0;stroke-opacity:1"
         id="rect5453"
         width="150"
         height="150"
         x="263.37482"
         y="945.53693" />
      <g
         transform="matrix(0.31141868,0,0,0.31142396,259.43373,595.08393)"
         id="g806">
        <g
           id="g762">
          <g
             transform="matrix(0.93749997,0,0,0.93749997,-13.99279,1142.3017)"
             style="opacity:0.7"
             id="g576">
            <path
               style="fill:#f15a24"
               inkscape:connector-curvature="0"
               d="m 69.694,123.625 c 0,0 1.036,0.421 2.986,1.147 1.95,0.719 4.812,1.756 8.469,2.943 3.654,1.213 8.101,2.589 13.213,4.065 5.112,1.479 10.891,3.037 17.208,4.615 12.633,3.175 27.483,6.467 43.409,9.34 7.966,1.431 16.223,2.935 24.619,4.239 8.397,1.324 16.938,2.506 25.506,3.797 4.281,0.629 8.569,1.206 12.844,1.758 2.139,0.268 4.274,0.535 6.402,0.801 2.132,0.226 4.255,0.52 6.371,0.832 8.467,1.162 16.828,2.168 24.957,3.006 8.102,1.054 15.966,1.997 23.475,2.73 1.879,0.18 3.732,0.357 5.558,0.532 1.818,0.213 3.608,0.422 5.369,0.628 3.528,0.393 6.947,0.749 10.243,1.054 3.307,0.279 6.476,0.547 9.489,0.802 1.511,0.113 3.003,0.18 4.419,0.325 1.422,0.13 2.798,0.281 4.146,0.373 5.375,0.434 10.091,0.74 14.005,0.907 7.82,0.363 12.405,0.242 12.405,0.243 l -12.57,45.473 c 0,10e-4 -3.728,-2.314 -10.455,-5.791 -3.36,-1.753 -7.476,-3.777 -12.232,-6.018 -2.377,-1.128 -4.926,-2.266 -7.619,-3.374 -2.709,-1.084 -5.557,-2.223 -8.529,-3.412 -2.983,-1.162 -6.104,-2.335 -9.346,-3.526 -1.624,-0.585 -3.275,-1.18 -4.952,-1.784 -1.687,-0.559 -3.411,-1.072 -5.154,-1.623 -6.985,-2.143 -14.392,-4.304 -22.113,-6.329 -7.771,-1.814 -15.841,-3.548 -24.069,-5.171 -4.102,-0.851 -8.311,-1.435 -12.509,-2.096 -4.206,-0.636 -8.432,-1.251 -12.665,-1.815 -8.443,-1.225 -16.983,-2.024 -25.388,-2.743 -8.413,-0.691 -16.674,-1.344 -24.734,-1.654 -8.055,-0.327 -15.854,-0.508 -23.26,-0.554 -7.409,-0.039 -14.406,0.019 -20.927,0.276 -6.508,0.226 -12.485,0.543 -17.793,0.923 -5.308,0.377 -9.945,0.795 -13.772,1.22 -3.825,0.398 -12.058,1.61 -12.058,1.61 z"
               id="path574" />
          </g>
          <g
             transform="matrix(0.93749997,0,0,0.93749997,-13.99279,1142.3017)"
             style="opacity:0.7"
             id="g580">
            <path
               style="fill:#f15a24"
               inkscape:connector-curvature="0"
               d="m 332.663,101.142 c 0,0 -0.167,0.153 -0.493,0.451 -0.327,0.287 -0.807,0.763 -1.452,1.289 -0.643,0.54 -1.438,1.222 -2.394,1.949 -0.475,0.367 -0.993,0.784 -1.54,1.188 -0.553,0.383 -1.141,0.79 -1.762,1.22 -2.504,1.776 -5.588,3.637 -9.241,5.55 -3.631,1.851 -7.834,3.725 -12.492,5.241 -1.164,0.382 -2.362,0.806 -3.589,1.154 -1.217,0.318 -2.465,0.665 -3.743,0.958 -1.283,0.316 -2.578,0.604 -3.899,0.825 -1.319,0.223 -2.686,0.527 -4.041,0.663 -5.478,0.778 -11.285,1.006 -17.208,0.504 -5.921,-0.491 -11.972,-1.678 -17.829,-3.707 -5.869,-2 -11.526,-4.863 -16.732,-8.39 -5.183,-3.559 -9.914,-7.802 -13.847,-12.615 -3.978,-4.769 -7.202,-10.042 -9.676,-15.444 -2.457,-5.421 -4.174,-10.964 -5.178,-16.375 -1.035,-5.396 -1.376,-10.647 -1.261,-15.487 0.083,-2.431 0.246,-4.747 0.529,-6.954 0.332,-2.218 0.669,-4.291 1.094,-6.228 0.479,-1.951 0.932,-3.735 1.475,-5.377 0.589,-1.644 1.056,-3.111 1.679,-4.419 0.579,-1.306 1.114,-2.428 1.678,-3.37 0.523,-0.943 1.034,-1.685 1.476,-2.245 0.386,-0.494 0.745,-0.842 1.003,-0.992 l -28,1.45 c -0.914,1.602 -2.449,2.918 -4.71,3.592 -6.824,2.032 -13.69,3.899 -20.667,5.333 -1.895,0.39 -3.806,0.212 -5.466,-0.478 -1.223,0.888 -2.789,1.438 -4.713,1.438 -1.191,0 -2.241,-0.217 -3.164,-0.586 0.711,1.542 1.529,3.283 2.473,5.225 1.706,3.503 3.722,7.627 6.125,12.203 1.174,2.294 2.418,4.708 3.818,7.2 1.301,2.519 2.772,5.113 4.308,7.786 1.49,2.691 3.112,5.444 4.838,8.249 1.668,2.828 3.463,5.697 5.396,8.584 1.842,2.926 3.846,5.864 5.993,8.785 1.031,1.483 2.113,2.957 3.229,4.425 1.088,1.483 2.234,2.952 3.391,4.422 4.648,5.875 9.729,11.7 15.32,17.21 5.547,5.548 11.659,10.703 18.054,15.482 6.439,4.729 13.282,8.9 20.246,12.594 6.971,3.691 14.114,6.778 21.164,9.422 3.53,1.308 7.028,2.528 10.486,3.686 3.465,1.056 6.882,2.074 10.223,3.03 6.689,1.792 13.035,3.155 19.06,4.106 15.438,2.438 39.25,4.743 39.25,4.743 z"
               id="path578" />
          </g>
          <path
             style="opacity:0.6;fill:#29abe2;stroke-width:0.93749994"
             inkscape:connector-curvature="0"
             d="m 48.819708,1301.9111 11.093437,43.9847 59.687815,-23.7507 c 0,0 3.29343,-0.8409 4.41468,0.4303 1.17188,1.3285 -0.66468,3.6329 -0.66468,3.6329 l -45.937503,40.3125 33.750003,33.75 c 0,0 37.49999,-47.5004 18.75,-81.8757 -18.75094,-34.3743 -91.718439,-10.859 -81.093752,-16.484 z"
             id="path582" />
          <path
             style="opacity:0.7;fill:#fbb03b;stroke-width:0.93749994"
             inkscape:connector-curvature="0"
             d="m 177.2572,1413.7079 c 0,0 4.68844,-120.8371 -53.43749,-244.2468 l -53.56594,46.6218 c 0,0 117.30093,68.1825 42.62062,181.8882 -1.71281,2.2997 27.195,18.7059 27.195,18.7059 z"
             id="path584" />
          <path
             style="opacity:0.7;fill:#fbb03b;stroke-width:0.93749994"
             inkscape:connector-curvature="0"
             d="m 51.345333,1258.2001 10.287187,-29.0625 c 0,0 125.46562,81.2888 121.63875,-69.3356 -0.0769,0 28.67343,9.6591 28.67343,9.6591 0,0 -22.44843,134.0118 -160.599367,88.739 z"
             id="path586" />
          <g
             transform="matrix(0.93749997,0,0,0.93749997,-13.99279,1142.3017)"
             style="opacity:0.7"
             id="g590">
            <path
               style="fill:#f15a24"
               inkscape:connector-curvature="0"
               d="m 78.687,224.736 c 0,0 0.238,-0.139 0.698,-0.407 0.256,-0.149 0.573,-0.336 0.95,-0.557 0.343,-0.188 0.741,-0.407 1.191,-0.654 1.79,-0.989 4.411,-2.288 7.669,-3.938 3.268,-1.649 7.277,-3.471 11.829,-5.566 2.301,-0.997 4.727,-2.09 7.333,-3.118 2.566,-1.111 5.292,-2.2 8.138,-3.319 1.413,-0.581 2.892,-1.087 4.38,-1.641 1.497,-0.532 2.998,-1.127 4.564,-1.634 3.1,-1.09 6.28,-2.26 9.615,-3.279 3.302,-1.104 6.75,-2.064 10.262,-3.055 1.745,-0.528 3.533,-0.983 5.329,-1.471 1.801,-0.467 3.6,-1.001 5.447,-1.422 3.697,-0.828 7.421,-1.78 11.262,-2.443 1.915,-0.352 3.832,-0.74 5.759,-1.126 1.939,-0.328 3.888,-0.658 5.844,-0.989 0.978,-0.165 1.958,-0.33 2.939,-0.496 l 2.969,-0.378 c 1.981,-0.25 3.969,-0.5 5.96,-0.751 1.994,-0.229 4.004,-0.347 6.008,-0.524 1.003,-0.088 2.008,-0.149 3.009,-0.259 1.001,-0.11 2.004,-0.201 3.012,-0.24 l 6.036,-0.33 c 1.005,-0.051 2.01,-0.12 3.015,-0.153 l 3.016,-0.021 c 2.009,-0.014 4.014,-0.027 6.013,-0.041 2,-0.036 3.99,0.136 5.975,0.193 1.984,0.099 3.962,0.153 5.934,0.195 1.965,0.146 3.92,0.29 5.863,0.435 1.943,0.157 3.881,0.269 5.796,0.464 1.91,0.245 3.806,0.488 5.687,0.729 1.88,0.252 3.753,0.462 5.596,0.745 1.84,0.306 3.663,0.608 5.466,0.907 1.808,0.299 3.595,0.595 5.361,0.887 1.755,0.346 3.474,0.756 5.18,1.124 6.846,1.413 13.212,3.178 19.15,4.725 2.918,0.906 5.691,1.854 8.381,2.64 1.341,0.407 2.648,0.804 3.919,1.189 1.258,0.417 2.456,0.881 3.632,1.3 2.346,0.851 4.538,1.666 6.598,2.361 1.027,0.356 2.013,0.699 2.955,1.025 0.919,0.374 1.795,0.73 2.627,1.069 3.317,1.383 6.005,2.342 7.808,3.062 1.815,0.702 2.783,1.077 2.783,1.077 l -10.024,17.927 c 0,0 -0.793,-0.524 -2.281,-1.509 -1.498,-0.969 -3.656,-2.475 -6.494,-4.248 -0.707,-0.449 -1.452,-0.923 -2.233,-1.42 -0.804,-0.451 -1.646,-0.922 -2.523,-1.414 -1.75,-0.997 -3.673,-2.02 -5.726,-3.13 -1.03,-0.547 -2.08,-1.146 -3.187,-1.701 -1.12,-0.526 -2.272,-1.067 -3.455,-1.622 -2.361,-1.129 -4.882,-2.236 -7.507,-3.415 -2.682,-1.033 -5.477,-2.108 -8.368,-3.222 -0.725,-0.279 -1.456,-0.562 -2.192,-0.846 -0.735,-0.292 -1.508,-0.478 -2.27,-0.725 -1.532,-0.466 -3.087,-0.939 -4.665,-1.42 -1.58,-0.473 -3.174,-0.989 -4.805,-1.445 -1.645,-0.403 -3.309,-0.812 -4.992,-1.226 -1.686,-0.412 -3.389,-0.829 -5.11,-1.25 -1.736,-0.343 -3.502,-0.613 -5.277,-0.929 -1.777,-0.307 -3.569,-0.615 -5.375,-0.926 -1.812,-0.263 -3.648,-0.443 -5.491,-0.672 -1.845,-0.217 -3.701,-0.436 -5.566,-0.654 -1.873,-0.13 -3.757,-0.249 -5.651,-0.331 -1.894,-0.066 -3.792,-0.248 -5.702,-0.223 -1.909,0.001 -3.823,0.002 -5.742,0.003 h -2.88 c -0.96,0.025 -1.921,0.087 -2.882,0.129 l -5.771,0.278 c -1.926,0.058 -3.84,0.32 -5.754,0.521 -1.912,0.229 -3.827,0.397 -5.726,0.674 -1.896,0.298 -3.788,0.596 -5.674,0.892 l -2.823,0.445 c -0.933,0.188 -1.865,0.375 -2.794,0.562 -1.858,0.372 -3.708,0.743 -5.55,1.112 -1.835,0.397 -3.641,0.896 -5.438,1.362 -3.608,0.878 -7.098,2.036 -10.552,3.059 -1.726,0.519 -3.403,1.148 -5.082,1.707 -1.668,0.593 -3.346,1.096 -4.948,1.769 -3.222,1.292 -6.371,2.538 -9.373,3.911 -3.033,1.291 -5.911,2.71 -8.703,4.043 -1.391,0.68 -2.716,1.44 -4.037,2.135 -1.312,0.715 -2.616,1.377 -3.851,2.107 -2.489,1.425 -4.876,2.771 -7.08,4.164 -2.218,1.37 -4.253,2.771 -6.18,4.051 -3.823,2.602 -7.038,5.021 -9.577,7.092 -2.579,2.023 -4.438,3.774 -5.67,4.911 -0.304,0.286 -0.572,0.54 -0.803,0.759 -0.191,0.194 -0.352,0.358 -0.481,0.491 -0.305,0.303 -0.462,0.458 -0.462,0.458 z"
               id="path588" />
          </g>
          <path
             style="opacity:0.7;fill:#8cc63f;stroke-width:0.93749994"
             inkscape:connector-curvature="0"
             d="m 74.192207,1225.5058 -12.559687,4.2965 c 114.10312,55.4194 121.29281,167.1394 121.62468,188.6738 0.41344,0.1303 0.79313,0.4181 1.05938,0.929 0.50531,0.9694 1.09594,1.8675 1.73719,2.7253 1.95281,-0.052 3.90562,-0.088 5.85843,-0.1134 0.67875,-1.0875 0.76594,-1.9641 0.89157,-2.2153 C 180.92939,1283.552 74.192207,1225.5058 74.192207,1225.5058 Z"
             id="path592" />
          <path
             style="opacity:0.7;fill:#8cc63f;stroke-width:0.93749994"
             inkscape:connector-curvature="0"
             d="m 193.1947,1419.8017 c 0,0 -19.29187,-103.9041 20.08313,-254.5294 0.62531,0 29.69812,12.076 29.69812,12.076 0,0 -76.65656,103.7043 -20.40656,233.7037 0,0.6244 -29.37469,8.7497 -29.37469,8.7497 z"
             id="path594" />
          <path
             style="opacity:0.7;fill:#8cc63f;stroke-width:0.93749994"
             inkscape:connector-curvature="0"
             d="m 247.27064,1181.117 c 0,0 -80.325,101.8106 -24.70031,229.935 l 62.16656,-47.9578 c 0,0 -133.15875,-68.0381 15.68437,-122.2959 0.0928,0.2212 -53.15062,-59.6813 -53.15062,-59.6813 z"
             id="path596" />
        </g>
        <path
           id="path623"
           d="m 278.90189,1359.3808 c -20.93156,31.1784 -55.81031,52.2412 -95.63062,54.1781 l 0.34312,13.1203 c 44.32406,-2.0578 83.14687,-25.515 106.3575,-60.2541 z"
           inkscape:connector-curvature="0"
           style="fill:#8cc63f;stroke-width:0.93749994" />
        <path
           id="path625"
           d="m 242.97689,1188.212 c 34.02187,21.7519 56.62406,59.8613 56.62406,103.1522 0,23.1422 -6.46031,44.8031 -17.66906,63.2766 l 11.07281,7.0471 c 12.50812,-20.5125 19.72125,-44.5912 19.72125,-70.3237 0,-48.0431 -25.14094,-90.3206 -62.955,-114.3778 z"
           inkscape:connector-curvature="0"
           style="fill:#f15a24;stroke-width:0.93749994" />
        <path
           id="path627"
           d="m 54.913458,1291.3642 c 0,-24.2288 7.08,-46.8347 19.278749,-65.8584 l -10.891874,-7.3182 c -13.607813,21.1172 -21.511875,46.2413 -21.511875,73.1766 0,20.6944 4.671563,40.3172 13.004062,57.8775 l 11.749687,-5.8538 C 59.09002,1327.592 54.913458,1309.9576 54.913458,1291.3642 Z"
           inkscape:connector-curvature="0"
           style="fill:#29abe2;stroke-width:0.93749994" />
        <path
           id="path629"
           d="m 177.64814,1413.7033 c -0.13031,0 -0.25969,0 -0.39094,0 -46.86749,0 -87.657181,-26.4956 -108.196868,-65.2893 l -11.748749,5.8537 c 22.697811,43.1016 67.942497,72.5606 119.945617,72.5606 0.24563,0 0.48844,-0.01 0.73407,-0.01 z"
           inkscape:connector-curvature="0"
           style="fill:#666666;stroke-width:0.93749994" />
        <path
           id="path631"
           d="m 77.338457,1220.8426 c 22.177499,-31.3303 58.698753,-51.8222 99.918743,-51.8222 22.16157,0 42.96563,5.9241 60.91313,16.2694 l 6.79406,-11.2256 c -19.93219,-11.5491 -43.06031,-18.1688 -67.70719,-18.1688 -45.74999,0 -86.270618,22.8 -110.80968,57.63 z"
           inkscape:connector-curvature="0"
           style="fill:#f7931e;stroke-width:0.93749994" />
      </g>
      <g
         transform="matrix(0.18316461,0,0,0.18316461,358.38581,1042.3617)"
         id="g1074">
        <path
           style="fill:url(#linearGradient-1)"
           inkscape:connector-curvature="0"
           d="m 255.52,175.61867 c 0.11467,-1.11467 0.19733,-2.24 0.26133,-3.37067 0.0773,-1.33867 -80.56266,-77.850667 -80.56266,-77.850667 h -1.928 c 0,0 81.736,86.215997 82.22933,81.221337 z"
           id="path1062" />
        <path
           style="fill:url(#linearGradient-2)"
           inkscape:connector-curvature="0"
           d="m 83.472,149.07733 c -0.106667,0.23467 -0.213333,0.46934 -0.322667,0.704 -0.114666,0.24534 -0.232,0.49067 -0.349333,0.73334 -2.570667,5.36 35.98667,43.05333 39.088,38.47466 0.14133,-0.20266 0.28267,-0.416 0.424,-0.61866 0.15733,-0.24 0.312,-0.46934 0.46667,-0.70934 2.48,-3.76533 -38.205337,-41.032 -39.30667,-38.584 z"
           id="path1064" />
        <path
           style="fill:url(#linearGradient-3)"
           inkscape:connector-curvature="0"
           d="m 137.95733,202.08267 c -0.10933,0.24 -0.88533,1.552 -1.59466,2.24533 -0.12,0.24 37.64,37.688 37.64,37.688 h 3.4 c 0.003,0 -35.44534,-38.34933 -39.44534,-39.93333 z"
           id="path1066" />
        <path
           style="fill:url(#linearGradient-4)"
           inkscape:connector-curvature="0"
           d="m 255.83467,171.568 c -1.76534,39.14667 -34.152,70.448 -73.72,70.448 h -5.34934 l -39.51466,-38.928 c 3.25066,-4.584 6.272,-9.33333 8.96266,-14.28533 h 35.90134 c 11.35466,0 20.59466,-9.23467 20.59466,-20.59467 0,-11.35467 -9.24,-20.59467 -20.59466,-20.59467 h -21.24534 c 1.61867,-8.55733 2.504,-17.38133 2.504,-26.408 0,-9.16533 -0.90133,-18.11466 -2.57866,-26.807997 H 173.992 l 81.61067,80.413337 c 0.096,-1.07734 0.17333,-2.15467 0.232,-3.24267 z M 21.466667,0 H 0 v 53.213333 h 21.466667 c 37.493333,0 68,30.498667 68,67.991997 0,10.2 -2.274667,19.88267 -6.317334,28.576 L 122.312,188.37067 c 12.85867,-19.24 20.376,-42.33867 20.376,-67.16534 C 142.688,54.373333 88.306667,0 21.466667,0 Z"
           id="path1068" />
        <path
           style="fill:url(#linearGradient-5)"
           inkscape:connector-curvature="0"
           d="M 182.11467,0 H 95.186667 C 116.41867,12.962667 134,31.344 145.97867,53.213333 h 36.136 c 11.35466,0 20.59466,9.234667 20.59466,20.594667 0,11.357333 -9.24,20.592 -20.59466,20.592 h -8.12 l 81.61066,80.41333 c 0.192,-2.18133 0.312,-4.376 0.312,-6.60533 0,-17.93867 -6.43733,-34.39467 -17.12533,-47.20267 C 249.48,108.20267 255.91733,91.744 255.91733,73.808 255.91733,33.112 222.81333,0 182.11467,0 Z"
           id="path1070" />
        <path
           style="fill:url(#linearGradient-6)"
           inkscape:connector-curvature="0"
           d="M 176.76533,242.016 H 95.808 c 16.296,-10.064 30.384,-23.34933 41.44267,-38.928 z M 122.312,188.37067 83.152,149.78133 C 72.333333,173.032 48.757333,189.20267 21.466667,189.20267 H 0 v 53.208 h 21.466667 c 42.010666,0 79.090663,-21.488 100.845333,-54.04 z"
           id="path1072" />
      </g>
    </g>
  </g>
</svg>
