<?xml version="1.0" encoding="UTF-8" standalone="no"?>
<!-- Created with Inkscape (http://www.inkscape.org/) -->

<svg
   xmlns:dc="http://purl.org/dc/elements/1.1/"
   xmlns:cc="http://creativecommons.org/ns#"
   xmlns:rdf="http://www.w3.org/1999/02/22-rdf-syntax-ns#"
   xmlns:svg="http://www.w3.org/2000/svg"
   xmlns="http://www.w3.org/2000/svg"
   xmlns:sodipodi="http://sodipodi.sourceforge.net/DTD/sodipodi-0.dtd"
   xmlns:inkscape="http://www.inkscape.org/namespaces/inkscape"
   width="42.333332mm"
   height="42.333332mm"
   viewBox="0 0 149.99999 150"
   id="svg4759"
   version="1.1"
   inkscape:version="0.91 r13725"
   sodipodi:docname="Disobedience.svg">
  <defs
     id="defs4761">
    <filter
       inkscape:collect="always"
       style="color-interpolation-filters:sRGB"
       id="filter25773"
       x="-0.038013104"
       width="1.0760262"
       y="-0.024777038"
       height="1.0495541">
      <feGaussianBlur
         inkscape:collect="always"
         stdDeviation="1.0323766"
         id="feGaussianBlur25775" />
    </filter>
  </defs>
  <sodipodi:namedview
     id="base"
     pagecolor="#ffffff"
     bordercolor="#666666"
     borderopacity="1.0"
     inkscape:pageopacity="0.0"
     inkscape:pageshadow="2"
     inkscape:zoom="2.2995071"
     inkscape:cx="28.886727"
     inkscape:cy="65.918346"
     inkscape:document-units="px"
     inkscape:current-layer="layer1"
     showgrid="false"
     fit-margin-top="0"
     fit-margin-left="0"
     fit-margin-right="0"
     fit-margin-bottom="0"
     inkscape:window-width="1366"
     inkscape:window-height="713"
     inkscape:window-x="0"
     inkscape:window-y="27"
     inkscape:window-maximized="1"
     showborder="false" />
  <metadata
     id="metadata4764">
    <rdf:RDF>
      <cc:Work
         rdf:about="">
        <dc:format>image/svg+xml</dc:format>
        <dc:type
           rdf:resource="http://purl.org/dc/dcmitype/StillImage" />
        <dc:title></dc:title>
      </cc:Work>
    </rdf:RDF>
  </metadata>
  <g
     inkscape:label="Layer 1"
     inkscape:groupmode="layer"
     id="layer1"
     transform="translate(-254.30068,-947.69196)">
    <g
       id="g25807"
       inkscape:export-xdpi="90"
       inkscape:export-ydpi="90">
      <rect
         ry="0"
         rx="0"
         style="opacity:1;fill:#333333;fill-opacity:1;stroke:none;stroke-width:6.79094839;stroke-linecap:round;stroke-linejoin:round;stroke-miterlimit:4;stroke-dasharray:none;stroke-dashoffset:0;stroke-opacity:1"
         id="rect5453"
         width="150"
         height="150"
         x="254.30067"
         y="947.69196" />
      <g
         id="g25777">
        <g
           style="fill:#ffffff;filter:url(#filter25773)"
           transform="translate(296.71055,972.69194)"
           id="g25737">
          <path
             style="fill:#ffffff"
             inkscape:connector-curvature="0"
             d="m 35.479,39.365 c -0.168,0.449 -0.277,0.91 -0.324,1.379 -0.053,0.518 -0.039,1.039 0.057,1.555 0.058,0.309 0.131,0.617 0.241,0.918 0.515,1.392 1.539,2.499 2.888,3.119 0.734,0.338 1.514,0.508 2.315,0.508 0.996,0 1.949,-0.279 2.781,-0.764 0.45,-0.262 0.863,-0.584 1.227,-0.964 0.325,-0.339 0.605,-0.725 0.839,-1.145 0.067,-0.121 0.143,-0.237 0.201,-0.365 0,0 11.078,-24.098 11.102,-24.147 0.023,-0.052 0.334,-0.974 0.4,-1.345 0.434,-2.428 -0.783,-4.941 -3.127,-6.02 -0.732,-0.338 -1.512,-0.508 -2.313,-0.508 -1.688,0 -3.258,0.78 -4.3,2.052 -0.293,0.359 -0.551,0.75 -0.748,1.183 10e-4,-0.004 0.002,-0.008 0.004,-0.011 l -0.006,0.012 c -10e-4,0.001 -0.002,0.004 -0.004,0.006 L 35.616,38.97 c -0.058,0.129 -0.089,0.263 -0.137,0.395 z"
             id="path25739" />
          <path
             style="fill:#ffffff"
             inkscape:connector-curvature="0"
             d="m 40.476,12.83 c 0.235,0.236 0.388,0.544 0.5,0.881 0.263,0.799 0.219,1.822 10e-4,2.859 -0.112,0.529 -0.262,1.054 -0.442,1.551 -0.068,0.191 -0.137,0.384 -0.214,0.564 -0.113,0.275 -0.262,0.595 -0.434,0.933 -1.504,2.975 -5.374,7.975 -14.463,8.285 -0.005,0 -0.012,0.001 -0.017,0.001 L 21.62,35.79 c 2.366,0.559 6.577,1.881 10.227,4.73 L 44.192,13.661 c 0.202,-0.438 0.32,-0.889 0.401,-1.344 C 45.025,9.886 43.81,7.372 41.466,6.295 40.732,5.959 39.952,5.787 39.153,5.787 c -1.688,0 -3.257,0.779 -4.298,2.052 -0.296,0.359 -0.554,0.751 -0.754,1.184 0.002,-0.004 0.002,-0.006 0.006,-0.01 l -0.006,0.01 -0.003,0.007 -1.56,3.395 7.532,0 0.406,0.405 z"
             id="path25741" />
          <path
             style="fill:#ffffff"
             inkscape:connector-curvature="0"
             d="m 25.861,12.424 1.352,0 2.268,0 2.087,-4.549 c 0.2,-0.438 0.319,-0.89 0.399,-1.344 C 32.4,4.102 31.185,1.588 28.841,0.51 28.105,0.174 27.327,0 26.527,0 c -1.688,0 -3.258,0.781 -4.299,2.053 -0.293,0.359 -0.552,0.751 -0.751,1.185 0,0.002 -0.004,0.004 -0.004,0.006 l -4.213,9.18 4.614,0 3.987,0 z"
             id="path25743" />
          <polygon
             style="fill:#ffffff"
             points="31.573,7.874 31.578,7.861 31.581,7.853 31.578,7.861 "
             id="polygon25745" />
          <polygon
             style="fill:#ffffff"
             points="55.55,28.84 55.55,28.841 55.551,28.84 "
             id="polygon25747" />
          <polygon
             style="fill:#ffffff"
             points="44.952,45.248 44.95,45.249 44.949,45.252 "
             id="polygon25749" />
          <polygon
             style="fill:#ffffff"
             points="44.952,45.245 44.952,45.246 44.954,45.241 "
             id="polygon25751" />
          <g
             style="fill:#ffffff"
             id="g25753">
            <path
               style="fill:#ffffff"
               inkscape:connector-curvature="0"
               d="m 38.862,92.954 c 1.833,-0.246 3.513,-0.967 4.918,-2.04 l -4.918,-4.919 0,6.959 z"
               id="path25755" />
            <path
               style="fill:#ffffff"
               inkscape:connector-curvature="0"
               d="m 36.083,92.954 0,-6.959 -4.917,4.919 c 1.404,1.073 3.084,1.794 4.917,2.04 z"
               id="path25757" />
            <path
               style="fill:#ffffff"
               inkscape:connector-curvature="0"
               d="m 27.056,82.642 c 0,2.371 0.806,4.554 2.146,6.308 l 6.881,-6.883 0,-9.738 c -5.087,0.682 -9.027,5.041 -9.027,10.313 z"
               id="path25759" />
            <path
               style="fill:#ffffff"
               inkscape:connector-curvature="0"
               d="m 65.18,33.276 c 0,-0.624 -0.348,-1.915 -0.362,-1.927 -0.785,-2.115 -2.805,-3.628 -5.191,-3.628 -0.501,0 -0.979,0.088 -1.441,0.213 -0.803,0.216 -1.528,0.607 -2.145,1.131 -0.724,0.617 -1.282,1.405 -1.615,2.315 -0.004,0.012 -0.006,0.026 -0.012,0.038 l -6.939,14.99 0.002,0 c -0.205,0.447 -0.308,0.913 -0.332,1.377 -0.008,0.166 0,0.33 0.013,0.492 0.106,1.305 0.888,2.518 2.16,3.103 0.604,0.279 1.255,0.362 1.89,0.297 0.828,-0.086 1.627,-0.432 2.242,-0.996 0.295,-0.271 0.539,-0.6 0.731,-0.962 l 3.605,-7.787 2.521,1.163 0.25,-0.543 -3.742,8.143 -0.006,0.012 c -0.062,0.135 -0.137,0.259 -0.211,0.386 -0.155,0.278 -0.327,0.548 -0.518,0.799 -0.391,0.519 -0.86,0.967 -1.379,1.343 -1.006,0.733 -2.213,1.183 -3.494,1.247 -0.111,0.007 -0.218,0.021 -0.327,0.021 l -0.001,0 c -0.943,0 -1.859,-0.202 -2.723,-0.598 -1.292,-0.596 -2.284,-1.566 -2.936,-2.72 -0.314,-0.557 -0.537,-1.157 -0.678,-1.781 -0.054,-0.233 -0.096,-0.466 -0.123,-0.705 -0.43,0.22 -0.872,0.412 -1.337,0.555 -0.776,0.238 -1.593,0.368 -2.425,0.368 0,0 0,0 -10e-4,0 -0.965,0 -1.61,-0.172 -2.511,-0.497 0.512,1.676 0.831,3.528 0.831,5.63 l 0,10.526 -2.777,0 0,-10.526 c 0,-2.521 -0.788,-4.656 -1.598,-6.478 C 30.807,39.732 19.972,38.254 19.419,38.185 l -1.914,-0.24 6.146,-12.802 0.875,0 c 0.232,0 0.43,-0.029 0.652,-0.035 0.538,-0.016 1.074,-0.033 1.568,-0.084 5.297,-0.549 8.203,-3.018 9.739,-5.135 0.133,-0.183 0.249,-0.367 0.366,-0.548 0.272,-0.426 0.499,-0.842 0.69,-1.248 0.219,-0.463 0.389,-0.906 0.517,-1.313 0.195,-0.628 0.298,-1.174 0.328,-1.578 l -22.978,0 c -2.75,0 -5.154,1.458 -6.5,3.64 -0.314,0.51 -0.572,1.056 -0.762,1.635 L 0.928,35.957 0.557,36.753 C 0.201,37.635 0,38.597 0,39.608 c 0,1.382 0.373,2.675 1.014,3.794 l 0.781,1.12 17.738,23.491 0,31.984 33.331,0 0,0.003 2.777,0 0.002,-23.609 8.821,-17.957 c 0.124,-0.223 0.243,-0.446 0.336,-0.687 0.233,-0.594 0.368,-1.235 0.379,-1.908 0.002,-0.034 0.001,-22.563 0.001,-22.563 z m -27.707,62.56 c -7.276,0 -13.194,-5.919 -13.194,-13.194 0,-7.275 5.918,-13.193 13.194,-13.193 7.274,0 13.194,5.918 13.194,13.193 0,7.275 -5.92,13.194 -13.194,13.194 z"
               id="path25761" />
            <path
               style="fill:#ffffff"
               inkscape:connector-curvature="0"
               d="m 38.862,72.328 0,9.738 6.881,6.883 c 1.34,-1.754 2.146,-3.937 2.146,-6.308 10e-4,-5.271 -3.94,-9.63 -9.027,-10.313 z"
               id="path25763" />
          </g>
        </g>
        <g
           id="g25722"
           transform="translate(296.71055,972.69194)"
           style="fill:#cccccc">
          <path
             id="path25690"
             d="m 35.479,39.365 c -0.168,0.449 -0.277,0.91 -0.324,1.379 -0.053,0.518 -0.039,1.039 0.057,1.555 0.058,0.309 0.131,0.617 0.241,0.918 0.515,1.392 1.539,2.499 2.888,3.119 0.734,0.338 1.514,0.508 2.315,0.508 0.996,0 1.949,-0.279 2.781,-0.764 0.45,-0.262 0.863,-0.584 1.227,-0.964 0.325,-0.339 0.605,-0.725 0.839,-1.145 0.067,-0.121 0.143,-0.237 0.201,-0.365 0,0 11.078,-24.098 11.102,-24.147 0.023,-0.052 0.334,-0.974 0.4,-1.345 0.434,-2.428 -0.783,-4.941 -3.127,-6.02 -0.732,-0.338 -1.512,-0.508 -2.313,-0.508 -1.688,0 -3.258,0.78 -4.3,2.052 -0.293,0.359 -0.551,0.75 -0.748,1.183 10e-4,-0.004 0.002,-0.008 0.004,-0.011 l -0.006,0.012 c -10e-4,0.001 -0.002,0.004 -0.004,0.006 L 35.616,38.97 c -0.058,0.129 -0.089,0.263 -0.137,0.395 z"
             inkscape:connector-curvature="0"
             style="fill:#cccccc" />
          <path
             id="path25692"
             d="m 40.476,12.83 c 0.235,0.236 0.388,0.544 0.5,0.881 0.263,0.799 0.219,1.822 10e-4,2.859 -0.112,0.529 -0.262,1.054 -0.442,1.551 -0.068,0.191 -0.137,0.384 -0.214,0.564 -0.113,0.275 -0.262,0.595 -0.434,0.933 -1.504,2.975 -5.374,7.975 -14.463,8.285 -0.005,0 -0.012,0.001 -0.017,0.001 L 21.62,35.79 c 2.366,0.559 6.577,1.881 10.227,4.73 L 44.192,13.661 c 0.202,-0.438 0.32,-0.889 0.401,-1.344 C 45.025,9.886 43.81,7.372 41.466,6.295 40.732,5.959 39.952,5.787 39.153,5.787 c -1.688,0 -3.257,0.779 -4.298,2.052 -0.296,0.359 -0.554,0.751 -0.754,1.184 0.002,-0.004 0.002,-0.006 0.006,-0.01 l -0.006,0.01 -0.003,0.007 -1.56,3.395 7.532,0 0.406,0.405 z"
             inkscape:connector-curvature="0"
             style="fill:#cccccc" />
          <path
             id="path25694"
             d="m 25.861,12.424 1.352,0 2.268,0 2.087,-4.549 c 0.2,-0.438 0.319,-0.89 0.399,-1.344 C 32.4,4.102 31.185,1.588 28.841,0.51 28.105,0.174 27.327,0 26.527,0 c -1.688,0 -3.258,0.781 -4.299,2.053 -0.293,0.359 -0.552,0.751 -0.751,1.185 0,0.002 -0.004,0.004 -0.004,0.006 l -4.213,9.18 4.614,0 3.987,0 z"
             inkscape:connector-curvature="0"
             style="fill:#cccccc" />
          <polygon
             id="polygon25696"
             points="31.581,7.853 31.578,7.861 31.573,7.874 31.578,7.861 "
             style="fill:#cccccc" />
          <polygon
             id="polygon25698"
             points="55.551,28.84 55.55,28.84 55.55,28.841 "
             style="fill:#cccccc" />
          <polygon
             id="polygon25700"
             points="44.949,45.252 44.952,45.248 44.95,45.249 "
             style="fill:#cccccc" />
          <polygon
             id="polygon25702"
             points="44.954,45.241 44.952,45.245 44.952,45.246 "
             style="fill:#cccccc" />
          <g
             id="g25704"
             style="fill:#cccccc">
            <path
               id="path25706"
               d="m 38.862,92.954 c 1.833,-0.246 3.513,-0.967 4.918,-2.04 l -4.918,-4.919 0,6.959 z"
               inkscape:connector-curvature="0"
               style="fill:#cccccc" />
            <path
               id="path25708"
               d="m 36.083,92.954 0,-6.959 -4.917,4.919 c 1.404,1.073 3.084,1.794 4.917,2.04 z"
               inkscape:connector-curvature="0"
               style="fill:#cccccc" />
            <path
               id="path25710"
               d="m 27.056,82.642 c 0,2.371 0.806,4.554 2.146,6.308 l 6.881,-6.883 0,-9.738 c -5.087,0.682 -9.027,5.041 -9.027,10.313 z"
               inkscape:connector-curvature="0"
               style="fill:#cccccc" />
            <path
               id="path25712"
               d="m 65.18,33.276 c 0,-0.624 -0.348,-1.915 -0.362,-1.927 -0.785,-2.115 -2.805,-3.628 -5.191,-3.628 -0.501,0 -0.979,0.088 -1.441,0.213 -0.803,0.216 -1.528,0.607 -2.145,1.131 -0.724,0.617 -1.282,1.405 -1.615,2.315 -0.004,0.012 -0.006,0.026 -0.012,0.038 l -6.939,14.99 0.002,0 c -0.205,0.447 -0.308,0.913 -0.332,1.377 -0.008,0.166 0,0.33 0.013,0.492 0.106,1.305 0.888,2.518 2.16,3.103 0.604,0.279 1.255,0.362 1.89,0.297 0.828,-0.086 1.627,-0.432 2.242,-0.996 0.295,-0.271 0.539,-0.6 0.731,-0.962 l 3.605,-7.787 2.521,1.163 0.25,-0.543 -3.742,8.143 -0.006,0.012 c -0.062,0.135 -0.137,0.259 -0.211,0.386 -0.155,0.278 -0.327,0.548 -0.518,0.799 -0.391,0.519 -0.86,0.967 -1.379,1.343 -1.006,0.733 -2.213,1.183 -3.494,1.247 -0.111,0.007 -0.218,0.021 -0.327,0.021 l -0.001,0 c -0.943,0 -1.859,-0.202 -2.723,-0.598 -1.292,-0.596 -2.284,-1.566 -2.936,-2.72 -0.314,-0.557 -0.537,-1.157 -0.678,-1.781 -0.054,-0.233 -0.096,-0.466 -0.123,-0.705 -0.43,0.22 -0.872,0.412 -1.337,0.555 -0.776,0.238 -1.593,0.368 -2.425,0.368 0,0 0,0 -10e-4,0 -0.965,0 -1.61,-0.172 -2.511,-0.497 0.512,1.676 0.831,3.528 0.831,5.63 l 0,10.526 -2.777,0 0,-10.526 c 0,-2.521 -0.788,-4.656 -1.598,-6.478 C 30.807,39.732 19.972,38.254 19.419,38.185 l -1.914,-0.24 6.146,-12.802 0.875,0 c 0.232,0 0.43,-0.029 0.652,-0.035 0.538,-0.016 1.074,-0.033 1.568,-0.084 5.297,-0.549 8.203,-3.018 9.739,-5.135 0.133,-0.183 0.249,-0.367 0.366,-0.548 0.272,-0.426 0.499,-0.842 0.69,-1.248 0.219,-0.463 0.389,-0.906 0.517,-1.313 0.195,-0.628 0.298,-1.174 0.328,-1.578 l -22.978,0 c -2.75,0 -5.154,1.458 -6.5,3.64 -0.314,0.51 -0.572,1.056 -0.762,1.635 L 0.928,35.957 0.557,36.753 C 0.201,37.635 0,38.597 0,39.608 c 0,1.382 0.373,2.675 1.014,3.794 l 0.781,1.12 17.738,23.491 0,31.984 33.331,0 0,0.003 2.777,0 0.002,-23.609 8.821,-17.957 c 0.124,-0.223 0.243,-0.446 0.336,-0.687 0.233,-0.594 0.368,-1.235 0.379,-1.908 0.002,-0.034 0.001,-22.563 0.001,-22.563 z m -27.707,62.56 c -7.276,0 -13.194,-5.919 -13.194,-13.194 0,-7.275 5.918,-13.193 13.194,-13.193 7.274,0 13.194,5.918 13.194,13.193 0,7.275 -5.92,13.194 -13.194,13.194 z"
               inkscape:connector-curvature="0"
               style="fill:#cccccc" />
            <path
               id="path25714"
               d="m 38.862,72.328 0,9.738 6.881,6.883 c 1.34,-1.754 2.146,-3.937 2.146,-6.308 10e-4,-5.271 -3.94,-9.63 -9.027,-10.313 z"
               inkscape:connector-curvature="0"
               style="fill:#cccccc" />
          </g>
        </g>
      </g>
    </g>
  </g>
</svg>
