<?xml version="1.0" encoding="UTF-8" standalone="no"?>
<!-- Created with Inkscape (http://www.inkscape.org/) -->

<svg
   xmlns:dc="http://purl.org/dc/elements/1.1/"
   xmlns:cc="http://creativecommons.org/ns#"
   xmlns:rdf="http://www.w3.org/1999/02/22-rdf-syntax-ns#"
   xmlns:svg="http://www.w3.org/2000/svg"
   xmlns="http://www.w3.org/2000/svg"
   xmlns:sodipodi="http://sodipodi.sourceforge.net/DTD/sodipodi-0.dtd"
   xmlns:inkscape="http://www.inkscape.org/namespaces/inkscape"
   width="42.333332mm"
   height="42.333332mm"
   viewBox="0 0 149.99999 150"
   id="svg4759"
   version="1.1"
   inkscape:version="0.91 r13725"
   sodipodi:docname="Disobedience-Know.svg">
  <defs
     id="defs4761">
    <filter
       inkscape:collect="always"
       style="color-interpolation-filters:sRGB"
       id="filter13954"
       x="-0.11196499"
       width="1.22393"
       y="-0.12927741"
       height="1.2585548">
      <feGaussianBlur
         inkscape:collect="always"
         stdDeviation="3.5450621"
         id="feGaussianBlur13956" />
    </filter>
  </defs>
  <sodipodi:namedview
     id="base"
     pagecolor="#ffffff"
     bordercolor="#666666"
     borderopacity="1.0"
     inkscape:pageopacity="0.0"
     inkscape:pageshadow="2"
     inkscape:zoom="1"
     inkscape:cx="-137.11328"
     inkscape:cy="65.048594"
     inkscape:document-units="px"
     inkscape:current-layer="layer1"
     showgrid="false"
     fit-margin-top="0"
     fit-margin-left="0"
     fit-margin-right="0"
     fit-margin-bottom="0"
     inkscape:window-width="1366"
     inkscape:window-height="713"
     inkscape:window-x="0"
     inkscape:window-y="27"
     inkscape:window-maximized="1"
     showborder="false" />
  <metadata
     id="metadata4764">
    <rdf:RDF>
      <cc:Work
         rdf:about="">
        <dc:format>image/svg+xml</dc:format>
        <dc:type
           rdf:resource="http://purl.org/dc/dcmitype/StillImage" />
        <dc:title></dc:title>
      </cc:Work>
    </rdf:RDF>
  </metadata>
  <g
     inkscape:label="Layer 1"
     inkscape:groupmode="layer"
     id="layer1"
     transform="translate(-254.30068,-947.69196)">
    <g
       id="g13970"
       inkscape:export-xdpi="90"
       inkscape:export-ydpi="90"
       transform="matrix(0.8,0,0,0.8,50.860135,219.53839)">
      <rect
         ry="0"
         rx="0"
         style="opacity:1;fill:#808080;fill-opacity:1;stroke:none;stroke-width:6.79094839;stroke-linecap:round;stroke-linejoin:round;stroke-miterlimit:4;stroke-dasharray:none;stroke-dashoffset:0;stroke-opacity:1"
         id="rect5453"
         width="150"
         height="150"
         x="254.30067"
         y="947.69196" />
      <g
         transform="translate(1.7619826e-6,-3.6103415e-7)"
         id="g13958">
        <g
           style="fill:#ffffff;filter:url(#filter13954)"
           transform="matrix(1.3675086,0,0,1.3675086,261.10345,955.69011)"
           id="g13112">
          <path
             style="fill:#ffffff"
             id="path13114"
             d="m 86.812,55.433 c -0.073,-0.011 -0.143,-0.015 -0.21,-0.017 l 0,-3.293 -0.817,0 0,3.568 c -0.24,0.211 -0.413,0.538 -0.511,0.975 -0.563,2.525 -2.106,4.123 -4.572,4.777 0.475,-0.503 0.774,-1.246 0.774,-2.078 0,-1.518 -0.998,-2.749 -2.229,-2.749 -1.231,0 -2.229,1.231 -2.229,2.749 0,1.178 0.601,2.178 1.443,2.57 -0.527,0.1 -1.056,0.192 -1.585,0.281 -1.27,0.211 -2.352,-0.24 -3.181,-0.919 0.528,-1.179 1.071,-2.231 1.474,-3.335 0.315,-0.867 -0.076,-1.572 -0.816,-1.783 -0.777,-0.223 -1.381,0.21 -1.698,1.125 -0.22,0.636 -0.527,1.242 -0.859,2.007 C 71.457,58.804 71.24,58.48 71.024,58.156 70.53,57.418 69.85,57.215 69.19,57.605 c -0.674,0.396 -0.828,1.156 -0.372,1.93 0.284,0.48 0.599,0.943 0.912,1.436 -1.094,0.623 -2.241,0.771 -3.391,0.85 0.882,-0.366 1.519,-1.393 1.519,-2.604 0,-1.519 -0.998,-2.749 -2.229,-2.749 -1.23,0 -2.229,1.23 -2.229,2.749 0,1.299 0.731,2.386 1.715,2.672 -1.717,0.533 -3.212,0.167 -4.386,-0.972 0.49,-0.94 0.992,-1.781 1.373,-2.673 0.335,-0.785 -0.01,-1.508 -0.707,-1.771 -0.714,-0.269 -1.361,0.062 -1.715,0.856 -0.195,0.436 -0.418,0.857 -0.693,1.421 -0.258,-0.476 -0.43,-0.796 -0.605,-1.116 -0.447,-0.812 -1.126,-1.085 -1.836,-0.736 -0.698,0.343 -0.903,1.09 -0.492,1.912 0.284,0.569 0.608,1.118 0.983,1.801 -0.688,0.223 -1.301,0.554 -1.935,0.602 -0.604,0.045 -1.207,0.077 -1.812,0.105 0.816,-0.409 1.393,-1.395 1.393,-2.548 0,-1.518 -0.997,-2.748 -2.229,-2.748 -1.232,0 -2.229,1.23 -2.229,2.748 0,1.204 0.629,2.226 1.503,2.597 -0.578,0.012 -1.156,0.016 -1.733,0.008 -0.944,-0.012 -1.727,-0.538 -2.316,-1.157 0.854,-1.086 1.478,-2.241 1.646,-3.59 0.079,-0.635 -0.452,-1.218 -1.083,-1.3 -0.675,-0.089 -1.158,0.215 -1.413,0.834 -0.238,0.578 -0.434,1.172 -0.716,1.947 -0.31,-0.68 -0.535,-1.168 -0.754,-1.659 -0.101,-0.225 -0.222,-0.412 -0.358,-0.562 l 0,-3.989 -0.817,0 0,3.577 c -0.188,-0.01 -0.386,0.023 -0.59,0.109 -0.72,0.303 -0.985,1.033 -0.632,1.863 0.355,0.838 0.754,1.658 1.193,2.617 -0.7,0.248 -1.37,0.58 -2.078,0.714 -0.439,0.084 -0.883,0.145 -1.329,0.196 0.822,-0.404 1.404,-1.395 1.404,-2.553 0,-1.518 -0.998,-2.748 -2.229,-2.748 -1.231,0 -2.229,1.23 -2.229,2.748 0,1.321 0.756,2.425 1.764,2.688 -0.229,0.022 -0.459,0.048 -0.688,0.073 l 0.011,10e-4 c -1.765,0.396 -3.208,-0.159 -4.265,-1.327 0.463,-1.104 0.945,-2.094 1.292,-3.132 0.172,-0.515 0.04,-0.986 -0.275,-1.304 L 46.456,31.595 c 0.195,-0.429 0.431,-0.567 0.897,-0.538 4.111,0.26 7.441,2.013 9.805,5.369 2.99,4.248 7.131,5.811 12.139,5.593 0.47,-0.021 0.736,-0.192 0.952,-0.641 2.169,-4.525 4.366,-9.038 6.554,-13.555 0.092,-0.189 0.157,-0.392 0.248,-0.621 -0.523,0 -0.966,10e-4 -1.409,0 -4.734,-0.015 -8.585,-1.705 -11.355,-5.71 -1.826,-2.642 -4.399,-4.336 -7.573,-4.963 -1.366,-0.27 -2.778,-0.301 -4.166,-0.44 -3.422,7.458 -13.465,29.357 -17.857,38.942 -0.62,-0.061 -1.148,0.33 -1.385,1.036 -0.147,0.437 -0.311,0.867 -0.502,1.397 -0.16,-0.275 -0.262,-0.441 -0.356,-0.611 -0.266,-0.479 -0.626,-0.778 -1.017,-0.875 l 0,-3.685 -0.817,0 0,3.78 c -0.02,0.009 -0.039,0.017 -0.058,0.027 -0.657,0.353 -0.836,1.121 -0.43,1.936 0.249,0.5 0.526,0.986 0.867,1.621 -0.891,0.314 -1.678,0.691 -2.508,0.863 -0.227,0.047 -0.456,0.084 -0.687,0.116 0.522,-0.503 0.859,-1.284 0.859,-2.166 0,-1.518 -0.998,-2.748 -2.229,-2.748 -1.231,0 -2.229,1.23 -2.229,2.748 0,1.038 0.467,1.941 1.156,2.409 -1.894,0.484 -3.411,-0.215 -4.6,-1.668 -0.684,-0.835 -1.217,-1.797 -1.786,-2.721 -0.333,-0.541 -0.795,-0.841 -1.282,-0.83 l 0,-4.111 -0.817,0 0,4.436 c -0.449,0.39 -0.558,1.04 -0.22,1.71 0.311,0.617 0.656,1.222 1.036,1.799 1.181,1.798 2.629,3.284 4.779,3.9 0.304,0.087 0.612,0.159 0.913,0.238 0.015,0.205 0.034,0.353 0.034,0.499 0.013,3.985 0.025,7.972 0.035,11.957 0.003,1.139 -0.073,2.284 0.038,3.413 0.042,0.429 0.427,0.99 0.807,1.17 0.345,0.163 1.01,0.026 1.324,-0.232 0.298,-0.245 0.442,-0.819 0.45,-1.253 0.04,-2.228 0.013,-4.456 0.013,-6.684 0,-0.263 0.026,-0.524 0.039,-0.785 0.414,0 0.748,0 1.16,0 0,1.382 0,2.713 0,4.044 -10e-4,1.238 -0.021,2.477 0.002,3.715 0.015,0.795 0.567,1.343 1.288,1.356 0.719,0.014 1.27,-0.532 1.324,-1.32 0.015,-0.223 0.006,-0.446 0.006,-0.668 -0.002,-5.077 -0.006,-10.151 -0.008,-15.227 0,-0.238 0,-0.479 0,-0.625 0.846,-0.428 1.589,-0.816 2.347,-1.176 0.142,-0.066 0.411,-0.09 0.501,-0.005 1.164,1.095 2.509,1.829 4.125,2.083 0,0.355 0,0.65 0,0.946 0.004,5.075 0.006,10.151 0.012,15.227 10e-4,1.107 0.458,1.693 1.314,1.706 0.864,0.014 1.33,-0.567 1.333,-1.67 0.003,-1.114 0.001,-2.229 0.001,-3.342 0,-1.157 0,-2.315 0,-3.479 0.437,0 0.791,0 1.194,0 0,0.222 0,0.392 0,0.562 -10e-4,2.03 -0.008,4.06 0.001,6.09 0.004,0.854 0.518,1.422 1.27,1.451 0.772,0.031 1.333,-0.552 1.373,-1.431 0.007,-0.148 0.003,-0.297 0.003,-0.446 -10e-4,-5.075 0.018,-10.151 -0.026,-15.226 -0.006,-0.799 0.109,-1.301 0.969,-1.477 0.35,-0.072 0.687,-0.287 0.99,-0.494 0.346,-0.238 0.562,-0.159 0.904,0.067 0.775,0.514 1.593,0.979 2.442,1.358 0.403,0.181 0.51,0.334 0.453,0.752 -0.68,5.021 -0.579,10.073 -0.563,15.121 0.003,0.99 0.489,1.559 1.292,1.568 0.828,0.009 1.32,-0.58 1.328,-1.608 0.008,-1.04 0.002,-2.079 0.002,-3.119 0,-1.381 0,-2.763 0,-4.238 0.471,0.053 0.867,0.097 1.295,0.146 0,0.361 0,0.631 0,0.901 0.002,2.253 -0.008,4.506 0.008,6.759 0.006,0.803 0.539,1.336 1.276,1.355 0.729,0.019 1.278,-0.502 1.351,-1.295 0.016,-0.172 -0.002,-0.347 10e-4,-0.521 0.062,-3.81 0.094,-7.619 0.2,-11.429 0.042,-1.448 0.252,-2.892 0.377,-4.233 1.088,-0.437 2.066,-0.829 3.098,-1.24 1.102,1.081 2.455,1.799 4.075,2.044 0,0.302 0,0.547 0,0.792 0.003,2.995 0.007,5.99 0.009,8.986 10e-4,2.006 -0.011,4.011 0.004,6.016 0.007,0.868 0.518,1.393 1.299,1.404 0.764,0.011 1.288,-0.525 1.34,-1.378 0.01,-0.174 0.002,-0.347 0.002,-0.521 0,-2.129 0,-4.259 -0.002,-6.388 0,-0.262 0,-0.523 0,-0.78 0.452,0 0.789,0 1.201,0 0,0.312 0,0.578 0,0.844 -0.003,2.278 -0.016,4.556 -0.003,6.834 0.005,0.936 0.665,1.508 1.526,1.375 0.716,-0.109 1.077,-0.641 1.077,-1.611 0.001,-5.15 -0.002,-10.3 -0.005,-15.449 0,-0.271 0,-0.539 0,-0.768 0.707,-0.335 1.345,-0.658 2.004,-0.931 0.158,-0.066 0.408,-0.006 0.579,0.074 0.22,0.102 0.385,0.324 0.605,0.422 1.157,0.509 2.326,0.994 3.692,1.572 0.148,2.817 0.349,5.877 0.456,8.94 0.071,2.002 -0.001,4.01 0.013,6.015 0.006,0.816 0.523,1.344 1.264,1.358 0.736,0.016 1.276,-0.507 1.334,-1.303 0.018,-0.247 0.009,-0.495 0.008,-0.742 -0.001,-1.981 -0.008,-3.962 -0.007,-5.942 0,-0.262 0.025,-0.523 0.042,-0.82 0.421,0 0.755,0 1.165,0 0,0.453 0,0.869 0,1.285 -0.002,2.055 -0.022,4.109 0.006,6.164 0.011,0.857 0.584,1.379 1.353,1.357 0.706,-0.021 1.266,-0.543 1.253,-1.298 -0.068,-4.106 -0.146,-8.212 -0.264,-12.316 -0.041,-1.424 -0.205,-2.845 -0.312,-4.249 0.392,-0.195 0.732,-0.346 1.053,-0.529 2.356,-1.341 3.793,-3.35 4.297,-6.01 C 88,56.194 87.579,55.548 86.812,55.433 Z"
             inkscape:connector-curvature="0" />
          <rect
             style="fill:#ffffff"
             id="rect13116"
             height="17.458"
             width="11.812"
             y="33.687"
             x="11.875" />
          <rect
             style="fill:#ffffff"
             id="rect13118"
             height="11.195"
             width="7.8740001"
             y="40.669998"
             x="27.42" />
          <path
             style="fill:#ffffff"
             id="path13120"
             d="m 70.882,42.341 c -0.238,0.497 -0.533,0.687 -1.055,0.709 -4.617,0.202 -8.568,-0.965 -11.674,-4.071 l -14.65,0 0,12.5 43.533,0 0,-12.5 -14.537,0 c -0.54,1.12 -1.079,2.24 -1.617,3.362 z"
             inkscape:connector-curvature="0" />
        </g>
        <g
           id="g13076"
           transform="matrix(1.3675086,0,0,1.3675086,261.10345,955.69011)"
           style="fill:#333333">
          <path
             inkscape:connector-curvature="0"
             d="m 86.812,55.433 c -0.073,-0.011 -0.143,-0.015 -0.21,-0.017 l 0,-3.293 -0.817,0 0,3.568 c -0.24,0.211 -0.413,0.538 -0.511,0.975 -0.563,2.525 -2.106,4.123 -4.572,4.777 0.475,-0.503 0.774,-1.246 0.774,-2.078 0,-1.518 -0.998,-2.749 -2.229,-2.749 -1.231,0 -2.229,1.231 -2.229,2.749 0,1.178 0.601,2.178 1.443,2.57 -0.527,0.1 -1.056,0.192 -1.585,0.281 -1.27,0.211 -2.352,-0.24 -3.181,-0.919 0.528,-1.179 1.071,-2.231 1.474,-3.335 0.315,-0.867 -0.076,-1.572 -0.816,-1.783 -0.777,-0.223 -1.381,0.21 -1.698,1.125 -0.22,0.636 -0.527,1.242 -0.859,2.007 C 71.457,58.804 71.24,58.48 71.024,58.156 70.53,57.418 69.85,57.215 69.19,57.605 c -0.674,0.396 -0.828,1.156 -0.372,1.93 0.284,0.48 0.599,0.943 0.912,1.436 -1.094,0.623 -2.241,0.771 -3.391,0.85 0.882,-0.366 1.519,-1.393 1.519,-2.604 0,-1.519 -0.998,-2.749 -2.229,-2.749 -1.23,0 -2.229,1.23 -2.229,2.749 0,1.299 0.731,2.386 1.715,2.672 -1.717,0.533 -3.212,0.167 -4.386,-0.972 0.49,-0.94 0.992,-1.781 1.373,-2.673 0.335,-0.785 -0.01,-1.508 -0.707,-1.771 -0.714,-0.269 -1.361,0.062 -1.715,0.856 -0.195,0.436 -0.418,0.857 -0.693,1.421 -0.258,-0.476 -0.43,-0.796 -0.605,-1.116 -0.447,-0.812 -1.126,-1.085 -1.836,-0.736 -0.698,0.343 -0.903,1.09 -0.492,1.912 0.284,0.569 0.608,1.118 0.983,1.801 -0.688,0.223 -1.301,0.554 -1.935,0.602 -0.604,0.045 -1.207,0.077 -1.812,0.105 0.816,-0.409 1.393,-1.395 1.393,-2.548 0,-1.518 -0.997,-2.748 -2.229,-2.748 -1.232,0 -2.229,1.23 -2.229,2.748 0,1.204 0.629,2.226 1.503,2.597 -0.578,0.012 -1.156,0.016 -1.733,0.008 -0.944,-0.012 -1.727,-0.538 -2.316,-1.157 0.854,-1.086 1.478,-2.241 1.646,-3.59 0.079,-0.635 -0.452,-1.218 -1.083,-1.3 -0.675,-0.089 -1.158,0.215 -1.413,0.834 -0.238,0.578 -0.434,1.172 -0.716,1.947 -0.31,-0.68 -0.535,-1.168 -0.754,-1.659 -0.101,-0.225 -0.222,-0.412 -0.358,-0.562 l 0,-3.989 -0.817,0 0,3.577 c -0.188,-0.01 -0.386,0.023 -0.59,0.109 -0.72,0.303 -0.985,1.033 -0.632,1.863 0.355,0.838 0.754,1.658 1.193,2.617 -0.7,0.248 -1.37,0.58 -2.078,0.714 -0.439,0.084 -0.883,0.145 -1.329,0.196 0.822,-0.404 1.404,-1.395 1.404,-2.553 0,-1.518 -0.998,-2.748 -2.229,-2.748 -1.231,0 -2.229,1.23 -2.229,2.748 0,1.321 0.756,2.425 1.764,2.688 -0.229,0.022 -0.459,0.048 -0.688,0.073 l 0.011,10e-4 c -1.765,0.396 -3.208,-0.159 -4.265,-1.327 0.463,-1.104 0.945,-2.094 1.292,-3.132 0.172,-0.515 0.04,-0.986 -0.275,-1.304 L 46.456,31.595 c 0.195,-0.429 0.431,-0.567 0.897,-0.538 4.111,0.26 7.441,2.013 9.805,5.369 2.99,4.248 7.131,5.811 12.139,5.593 0.47,-0.021 0.736,-0.192 0.952,-0.641 2.169,-4.525 4.366,-9.038 6.554,-13.555 0.092,-0.189 0.157,-0.392 0.248,-0.621 -0.523,0 -0.966,10e-4 -1.409,0 -4.734,-0.015 -8.585,-1.705 -11.355,-5.71 -1.826,-2.642 -4.399,-4.336 -7.573,-4.963 -1.366,-0.27 -2.778,-0.301 -4.166,-0.44 -3.422,7.458 -13.465,29.357 -17.857,38.942 -0.62,-0.061 -1.148,0.33 -1.385,1.036 -0.147,0.437 -0.311,0.867 -0.502,1.397 -0.16,-0.275 -0.262,-0.441 -0.356,-0.611 -0.266,-0.479 -0.626,-0.778 -1.017,-0.875 l 0,-3.685 -0.817,0 0,3.78 c -0.02,0.009 -0.039,0.017 -0.058,0.027 -0.657,0.353 -0.836,1.121 -0.43,1.936 0.249,0.5 0.526,0.986 0.867,1.621 -0.891,0.314 -1.678,0.691 -2.508,0.863 -0.227,0.047 -0.456,0.084 -0.687,0.116 0.522,-0.503 0.859,-1.284 0.859,-2.166 0,-1.518 -0.998,-2.748 -2.229,-2.748 -1.231,0 -2.229,1.23 -2.229,2.748 0,1.038 0.467,1.941 1.156,2.409 -1.894,0.484 -3.411,-0.215 -4.6,-1.668 -0.684,-0.835 -1.217,-1.797 -1.786,-2.721 -0.333,-0.541 -0.795,-0.841 -1.282,-0.83 l 0,-4.111 -0.817,0 0,4.436 c -0.449,0.39 -0.558,1.04 -0.22,1.71 0.311,0.617 0.656,1.222 1.036,1.799 1.181,1.798 2.629,3.284 4.779,3.9 0.304,0.087 0.612,0.159 0.913,0.238 0.015,0.205 0.034,0.353 0.034,0.499 0.013,3.985 0.025,7.972 0.035,11.957 0.003,1.139 -0.073,2.284 0.038,3.413 0.042,0.429 0.427,0.99 0.807,1.17 0.345,0.163 1.01,0.026 1.324,-0.232 0.298,-0.245 0.442,-0.819 0.45,-1.253 0.04,-2.228 0.013,-4.456 0.013,-6.684 0,-0.263 0.026,-0.524 0.039,-0.785 0.414,0 0.748,0 1.16,0 0,1.382 0,2.713 0,4.044 -10e-4,1.238 -0.021,2.477 0.002,3.715 0.015,0.795 0.567,1.343 1.288,1.356 0.719,0.014 1.27,-0.532 1.324,-1.32 0.015,-0.223 0.006,-0.446 0.006,-0.668 -0.002,-5.077 -0.006,-10.151 -0.008,-15.227 0,-0.238 0,-0.479 0,-0.625 0.846,-0.428 1.589,-0.816 2.347,-1.176 0.142,-0.066 0.411,-0.09 0.501,-0.005 1.164,1.095 2.509,1.829 4.125,2.083 0,0.355 0,0.65 0,0.946 0.004,5.075 0.006,10.151 0.012,15.227 10e-4,1.107 0.458,1.693 1.314,1.706 0.864,0.014 1.33,-0.567 1.333,-1.67 0.003,-1.114 0.001,-2.229 0.001,-3.342 0,-1.157 0,-2.315 0,-3.479 0.437,0 0.791,0 1.194,0 0,0.222 0,0.392 0,0.562 -10e-4,2.03 -0.008,4.06 0.001,6.09 0.004,0.854 0.518,1.422 1.27,1.451 0.772,0.031 1.333,-0.552 1.373,-1.431 0.007,-0.148 0.003,-0.297 0.003,-0.446 -10e-4,-5.075 0.018,-10.151 -0.026,-15.226 -0.006,-0.799 0.109,-1.301 0.969,-1.477 0.35,-0.072 0.687,-0.287 0.99,-0.494 0.346,-0.238 0.562,-0.159 0.904,0.067 0.775,0.514 1.593,0.979 2.442,1.358 0.403,0.181 0.51,0.334 0.453,0.752 -0.68,5.021 -0.579,10.073 -0.563,15.121 0.003,0.99 0.489,1.559 1.292,1.568 0.828,0.009 1.32,-0.58 1.328,-1.608 0.008,-1.04 0.002,-2.079 0.002,-3.119 0,-1.381 0,-2.763 0,-4.238 0.471,0.053 0.867,0.097 1.295,0.146 0,0.361 0,0.631 0,0.901 0.002,2.253 -0.008,4.506 0.008,6.759 0.006,0.803 0.539,1.336 1.276,1.355 0.729,0.019 1.278,-0.502 1.351,-1.295 0.016,-0.172 -0.002,-0.347 10e-4,-0.521 0.062,-3.81 0.094,-7.619 0.2,-11.429 0.042,-1.448 0.252,-2.892 0.377,-4.233 1.088,-0.437 2.066,-0.829 3.098,-1.24 1.102,1.081 2.455,1.799 4.075,2.044 0,0.302 0,0.547 0,0.792 0.003,2.995 0.007,5.99 0.009,8.986 10e-4,2.006 -0.011,4.011 0.004,6.016 0.007,0.868 0.518,1.393 1.299,1.404 0.764,0.011 1.288,-0.525 1.34,-1.378 0.01,-0.174 0.002,-0.347 0.002,-0.521 0,-2.129 0,-4.259 -0.002,-6.388 0,-0.262 0,-0.523 0,-0.78 0.452,0 0.789,0 1.201,0 0,0.312 0,0.578 0,0.844 -0.003,2.278 -0.016,4.556 -0.003,6.834 0.005,0.936 0.665,1.508 1.526,1.375 0.716,-0.109 1.077,-0.641 1.077,-1.611 0.001,-5.15 -0.002,-10.3 -0.005,-15.449 0,-0.271 0,-0.539 0,-0.768 0.707,-0.335 1.345,-0.658 2.004,-0.931 0.158,-0.066 0.408,-0.006 0.579,0.074 0.22,0.102 0.385,0.324 0.605,0.422 1.157,0.509 2.326,0.994 3.692,1.572 0.148,2.817 0.349,5.877 0.456,8.94 0.071,2.002 -0.001,4.01 0.013,6.015 0.006,0.816 0.523,1.344 1.264,1.358 0.736,0.016 1.276,-0.507 1.334,-1.303 0.018,-0.247 0.009,-0.495 0.008,-0.742 -0.001,-1.981 -0.008,-3.962 -0.007,-5.942 0,-0.262 0.025,-0.523 0.042,-0.82 0.421,0 0.755,0 1.165,0 0,0.453 0,0.869 0,1.285 -0.002,2.055 -0.022,4.109 0.006,6.164 0.011,0.857 0.584,1.379 1.353,1.357 0.706,-0.021 1.266,-0.543 1.253,-1.298 -0.068,-4.106 -0.146,-8.212 -0.264,-12.316 -0.041,-1.424 -0.205,-2.845 -0.312,-4.249 0.392,-0.195 0.732,-0.346 1.053,-0.529 2.356,-1.341 3.793,-3.35 4.297,-6.01 C 88,56.194 87.579,55.548 86.812,55.433 Z"
             id="path13078"
             style="fill:#333333" />
          <rect
             x="11.875"
             y="33.687"
             width="11.812"
             height="17.458"
             id="rect13080"
             style="fill:#333333" />
          <rect
             x="27.42"
             y="40.669998"
             width="7.8740001"
             height="11.195"
             id="rect13082"
             style="fill:#333333" />
          <path
             inkscape:connector-curvature="0"
             d="m 70.882,42.341 c -0.238,0.497 -0.533,0.687 -1.055,0.709 -4.617,0.202 -8.568,-0.965 -11.674,-4.071 l -14.65,0 0,12.5 43.533,0 0,-12.5 -14.537,0 c -0.54,1.12 -1.079,2.24 -1.617,3.362 z"
             id="path13084"
             style="fill:#333333" />
        </g>
      </g>
    </g>
  </g>
</svg>
