<?xml version="1.0" encoding="UTF-8" standalone="no"?>
<svg
   xmlns:dc="http://purl.org/dc/elements/1.1/"
   xmlns:cc="http://creativecommons.org/ns#"
   xmlns:rdf="http://www.w3.org/1999/02/22-rdf-syntax-ns#"
   xmlns:svg="http://www.w3.org/2000/svg"
   xmlns="http://www.w3.org/2000/svg"
   xmlns:sodipodi="http://sodipodi.sourceforge.net/DTD/sodipodi-0.dtd"
   xmlns:inkscape="http://www.inkscape.org/namespaces/inkscape"
   version="1.1"
   x="0px"
   y="0px"
   viewBox="0 0 150 150"
   enable-background="new 0 0 100 100"
   xml:space="preserve"
   id="svg3555"
   inkscape:version="0.91 r13725"
   sodipodi:docname="Doing-XKCD.svg"
   width="150"
   height="150"><metadata
     id="metadata3593"><rdf:RDF><cc:Work
         rdf:about=""><dc:format>image/svg+xml</dc:format><dc:type
           rdf:resource="http://purl.org/dc/dcmitype/StillImage" /><dc:title /></cc:Work></rdf:RDF></metadata><defs
     id="defs3591"><filter
       inkscape:collect="always"
       style="color-interpolation-filters:sRGB"
       id="filter4175"
       x="-0.059555873"
       width="1.1191117"
       y="-0.0604508"
       height="1.1209016"><feGaussianBlur
         inkscape:collect="always"
         stdDeviation="2.9777935"
         id="feGaussianBlur4177" /></filter></defs><sodipodi:namedview
     pagecolor="#ffffff"
     bordercolor="#666666"
     borderopacity="1"
     objecttolerance="10"
     gridtolerance="10"
     guidetolerance="10"
     inkscape:pageopacity="0"
     inkscape:pageshadow="2"
     inkscape:window-width="1366"
     inkscape:window-height="713"
     id="namedview3589"
     showgrid="false"
     showborder="false"
     inkscape:zoom="2.1115385"
     inkscape:cx="-20.907437"
     inkscape:cy="51.389185"
     inkscape:window-x="0"
     inkscape:window-y="27"
     inkscape:window-maximized="1"
     inkscape:current-layer="svg3555"
     showguides="true"
     inkscape:guide-bbox="true"
     fit-margin-top="0"
     fit-margin-left="0"
     fit-margin-right="0"
     fit-margin-bottom="0" /><g
     id="g3345"
     inkscape:export-xdpi="90"
     inkscape:export-ydpi="90"><rect
       ry="0"
       rx="0"
       style="opacity:1;fill:#333333;fill-opacity:1;stroke:none;stroke-width:6.79094839;stroke-linecap:round;stroke-linejoin:round;stroke-miterlimit:4;stroke-dasharray:none;stroke-dashoffset:0;stroke-opacity:1"
       id="rect5453"
       width="150"
       height="150"
       x="-7.1466928"
       y="7.0521531" /><g
       transform="matrix(0.89356597,0,0,0.89356597,0.8358591,15.034706)"
       id="g3341"><path
         inkscape:connector-curvature="0"
         id="path3373"
         d="m 122.15141,130.18693 c -1.25515,-2.12478 -4.74856,-6.67944 -7.76315,-10.12147 -3.0146,-3.44204 -7.22914,-10.17218 -9.36566,-14.9559 -2.13651,-4.78372 -4.37076,-8.397189 -4.96499,-8.029939 -0.594234,0.36726 -3.341074,4.073559 -6.104094,8.236219 -4.48029,6.74983 -5.02367,8.55329 -5.02367,16.67295 0,5.09756 -0.67367,9.5208 -1.5307,10.05048 -1.09282,0.6754 -1.2372,-2.18599 -0.50472,-10.0027 0.86825,-9.26558 1.78825,-12.09678 5.98456,-18.41687 2.9601,-4.458239 4.39472,-7.848869 3.55955,-8.412779 -0.76946,-0.519539 -2.20526,-4.622779 -3.19067,-9.118329 -1.26462,-5.769414 -2.22793,-7.737424 -3.27488,-6.690494 -1.01023,1.01025 -1.03051,2.05862 -0.0636,3.2875 2.05168,2.607454 3.40325,10.878674 1.77766,10.878674 -0.74864,0 -1.37513,-1.72763 -1.39221,-3.83918 -0.017,-2.11155 -1.11648,-5.24646 -2.44311,-6.966464 -2.18193,-2.8289 -2.94489,-2.98814 -7.99633,-1.66897 -9.50169,2.48134 -9.5669,2.5207 -7.76781,4.688484 2.93603,3.5377 -0.79003,3.57885 -5.557684,0.0614 -2.56729,-1.89408 -5.15189,-3.443784 -5.74356,-3.443784 -2.04576,0 -25.29168,-23.08078 -35.55065,-35.2981 -7.40035,-8.813 -10.27986,-13.32975 -10.235169,-16.05475 l 0.0622,-3.79174 2.380939,3.24832 c 6.15536,8.39777 19.75393,23.77796 30.75075,34.77956 11.05946,11.06427 12.64911,13.41199 5.06851,7.48558 -1.57266,-1.22949 -1.07982,-0.49729 1.0952,1.6271 3.23294,3.15768 4.45532,3.59454 6.69857,2.394 2.16105,-1.15657 2.74397,-1.02368 2.74397,0.62556 0,4.08665 4.541314,4.85413 14.343114,2.42401 6.39386,-1.5852 9.37555,-2.99257 9.36408,-4.41987 -0.0149,-1.86142 -0.17429,-1.86142 -1.43393,0 -1.06744,1.57742 -1.21099,1.20236 -0.58178,-1.52008 0.54226,-2.34621 -0.22866,-5.65546 -2.19745,-9.43265 -2.34304,-4.49522 -2.83335,-7.16574 -2.15595,-11.74254 0.48223,-3.25824 0.92666,-7.36551 0.98761,-9.12727 0.061,-1.76176 1.45961,-4.04543 3.10814,-5.07481 3.91892,-2.44708 17.656014,-4.19033 17.656014,-2.24057 0,0.79429 -1.75905,1.44416 -3.908984,1.44416 -2.14995,0 -4.59196,0.68297 -5.4267,1.5177 -1.09289,1.0929 -1.78025,1.0929 -2.4557,0 -0.51589,-0.83473 -1.5815,-1.5177 -2.368,-1.5177 -1.74748,0 -0.78182,3.44162 1.0131,3.61073 0.70385,0.0663 2.44253,0.62903 3.86374,1.25049 1.67514,0.73248 2.98013,0.48896 3.71024,-0.69237 0.92058,-1.48954 1.91453,-1.49576 5.443364,-0.0341 2.37442,0.98352 4.31714,2.36233 4.31714,3.06403 0,0.74858 -1.03024,0.72445 -2.49298,-0.0584 -1.97502,-1.057 -2.49297,-0.79845 -2.49297,1.24445 0,1.41826 0.4936,2.27358 1.0969,1.90072 0.60331,-0.37286 1.09692,-0.0126 1.09692,0.80053 0,0.81315 0.62822,1.47846 1.39606,1.47846 0.76784,0 1.39607,-0.97943 1.39607,-2.17649 0,-1.19707 0.62103,-1.79268 1.38007,-1.32356 0.79703,0.49259 1.022,-0.0802 0.53249,-1.35582 -0.46616,-1.21482 -2.50072,-3.10698 -4.52122,-4.20482 -2.81268,-1.52825 -3.08175,-2.00915 -1.14813,-2.05195 1.38903,-0.0308 2.13723,-0.68412 1.66268,-1.45195 -0.47454,-0.76784 -0.19751,-1.39607 0.61564,-1.39607 0.81316,0 1.47847,0.6028 1.47847,1.33956 0,0.73676 1.53692,2.77851 3.41538,4.53722 1.87847,1.7587 3.70228,4.76822 4.05294,6.68781 1.40933,7.71533 2.71061,11.31483 3.69602,10.22369 1.89549,-2.09887 7.1744,-21.6758 6.39357,-23.71062 -0.42228,-1.10042 -1.56146,-1.86262 -2.53154,-1.69375 -2.8434,0.49494 -9.43589,-3.24487 -8.47129,-4.80563 0.55076,-0.89114 -0.0718,-1.06268 -1.65364,-0.45566 -1.4103,0.54119 -7.86678,-0.53672 -14.538684,-2.4272 -11.64045,-3.29831 -21.45377,-5.45403 -32.901904,-7.22761 -4.63324,-0.7178 -5.13243,-1.08879 -3.04038,-2.25956 3.24122,-1.81387 14.485384,0.13637 38.006444,6.59204 9.923964,2.72376 19.142964,4.66798 20.486674,4.32047 1.46817,-0.37968 2.44312,0.15168 2.44312,1.33158 0,1.07987 0.69034,1.9634 1.53409,1.9634 2.45255,0 11.03049,4.39423 11.03049,5.6506 0,0.62934 -1.72763,1.34305 -3.83918,1.58601 -3.44767,0.3967 -4.1951,1.53018 -7.32934,11.11492 -1.91959,5.87024 -4.67627,11.9837 -6.12596,13.58545 -2.1614,2.38813 -2.31907,3.29389 -0.8761,5.03257 0.98435,1.18606 1.14098,2.12028 0.3555,2.12028 -0.7723,0 -1.80127,1.41352 -2.28659,3.14115 -0.87628,3.11932 -0.90781,3.11242 -4.53927,-0.99474 -3.10811,-3.51526 -3.51044,-3.67457 -2.68114,-1.0617 0.6024,1.89802 0.17967,4.21068 -1.10493,6.04469 -1.99738,2.85168 -2.06499,2.77337 -1.68963,-1.95729 0.29155,-3.67452 -0.0896,-4.74336 -1.49896,-4.20256 -1.36869,0.52521 -1.88996,3.76912 -1.88996,11.7613 0,9.843294 0.53963,12.128184 4.99291,21.140642 2.7461,5.55751 8.38778,14.18806 12.53708,19.17899 4.14929,4.99094 7.55655,9.54559 7.57167,10.12148 0.0609,2.31636 -2.29429,0.82412 -4.44468,-2.81619 z M 99.950626,83.442798 c -0.15565,-8.30858 -0.55486,-10.60644 -1.4328,-8.24747 -0.66936,1.79856 -0.92523,3.7422 -0.56861,4.31922 0.35663,0.57702 -0.002,3.40315 -0.79599,6.280284 -1.52538,5.52447 -0.91389,9.16551 1.53928,9.16551 0.93282,0 1.394694,-4.22816 1.25812,-11.517544 z m -4.47732,-4.9025 c -0.34942,-1.33477 -0.62263,0.0861 -0.60715,3.15741 0.0155,3.071354 0.3014,4.163434 0.63532,2.426854 0.33393,-1.736584 0.32126,-4.249504 -0.0281,-5.584264 z m -5.70002,-5.53891 c -0.46389,-0.4639 -0.79385,0.36066 -0.73323,1.83234 0.067,1.62634 0.39779,1.95714 0.84346,0.84346 0.40328,-1.00779 0.35368,-2.2119 -0.11023,-2.6758 z m 3.74925,-1.77416 c -0.40158,-1.53568 -0.971,-2.79213 -1.26535,-2.79213 -0.29438,0 -0.53521,1.25645 -0.53521,2.79213 0,1.53566 0.56941,2.79213 1.26536,2.79213 0.69595,0 0.9368,-1.25647 0.5352,-2.79213 z m 4.04584,-5.3255 c -0.63854,-3.3611 -0.47231,-3.55071 1.60692,-1.8329 2.100394,1.7353 2.317124,1.34028 2.297754,-4.1882 -0.026,-7.43538 -0.98048,-9.09186 -5.958454,-10.34125 -2.12177,-0.53254 -4.78333,-2.28966 -5.91457,-3.90473 -1.96092,-2.79962 -2.17091,-2.8223 -4.50464,-0.48676 -3.09281,3.09522 -3.03875,13.90953 0.0986,19.71882 1.9072,3.5315 2.35366,3.76063 3.17202,1.62802 0.75109,-1.95731 1.20192,-2.08832 2.13281,-0.6198 0.84291,1.32971 1.18653,1.37569 1.20179,0.16087 0.0439,-3.48822 4.21042,0.0528 4.23095,3.59571 0.0145,2.51094 0.39322,3.10343 1.18522,1.85448 0.64011,-1.00943 0.84334,-3.52235 0.45162,-5.58426 z m 16.490644,4.01182 c 0,-3.18913 -2.20106,-4.96032 -3.51741,-2.83044 -1.17274,1.89753 0.19323,5.54018 2.07753,5.54018 0.79193,0 1.43988,-1.21938 1.43988,-2.70974 z m -70.553798,-7.34934 c -3.81031,-3.99683 -8.01866,-8.30362 -9.35187,-9.57065 -1.33322,-1.26702 -5.57377,-6.24395 -9.42345,-11.05984 -3.84968,-4.81588 -6.99941,-8.10426 -6.99941,-7.3075 0,3.28665 28.68672,35.20494 31.64062,35.20494 0.58408,0 -2.05557,-3.27013 -5.86589,-7.26695 z m 60.228738,0.66472 c -0.46391,-0.4639 -0.79387,0.36066 -0.73325,1.83234 0.067,1.62634 0.39779,1.95714 0.84346,0.84346 0.40329,-1.00779 0.35368,-2.2119 -0.11022,-2.6758 z m 4.46988,-2.53097 c -0.25831,-6.87106 -2.02054,-7.31968 -2.28456,-0.5816 -0.11911,3.03963 0.38802,5.52661 1.12695,5.52661 0.73893,0 1.25985,-2.22526 1.15761,-4.94501 z m 5.14112,-6.25452 c -1.12013,-2.16609 -1.50198,-4.14464 -0.84856,-4.39679 0.65343,-0.25214 0.71921,-1.71489 0.14618,-3.25057 -0.85898,-2.30201 -1.22441,-1.85484 -2.08174,2.54739 -0.66787,3.42933 -0.47786,5.90155 0.53111,6.91053 2.05834,2.05832 2.02825,4.25208 -0.0407,2.97336 -1.02182,-0.63152 -1.23182,-0.38137 -0.57375,0.68342 0.78487,1.26995 1.50947,1.28831 2.97108,0.0753 1.64375,-1.3642 1.62826,-2.19364 -0.10355,-5.54262 z m -9.05839,0.72903 c 0,-1.91959 -0.54112,-3.49016 -1.20247,-3.49016 -0.66137,0 -0.90224,1.57057 -0.53529,3.49016 0.36695,1.9196 0.90806,3.49017 1.20247,3.49017 0.2944,0 0.53529,-1.57057 0.53529,-3.49017 z m -4.828834,-8.98154 c -0.50612,-0.81892 -2.57936,-1.48894 -4.6072,-1.48894 -4.07194,0 -2.85471,2.14523 1.75766,3.09767 3.402764,0.70267 4.051654,0.33633 2.84954,-1.60873 z"
         style="fill:#b3b3b3;filter:url(#filter4175)" /><path
         style="fill:#b3b3b3"
         d="m 122.15141,130.18693 c -1.25515,-2.12478 -4.74856,-6.67944 -7.76315,-10.12147 -3.0146,-3.44204 -7.22914,-10.17218 -9.36567,-14.9559 -2.13651,-4.78372 -4.37076,-8.397189 -4.96499,-8.029939 -0.594229,0.36726 -3.341069,4.073559 -6.104089,8.236219 -4.48029,6.74983 -5.02367,8.55329 -5.02367,16.67295 0,5.09756 -0.67367,9.5208 -1.5307,10.05048 -1.09282,0.6754 -1.2372,-2.18599 -0.50472,-10.0027 0.86825,-9.26558 1.78825,-12.09678 5.98456,-18.41687 2.9601,-4.458239 4.39472,-7.848869 3.55955,-8.412779 -0.76946,-0.51954 -2.20526,-4.62278 -3.19067,-9.11833 -1.26462,-5.769414 -2.22793,-7.737424 -3.27488,-6.690494 -1.01023,1.01025 -1.03051,2.05862 -0.0636,3.2875 2.05168,2.607454 3.40325,10.878674 1.77766,10.878674 -0.74864,0 -1.37513,-1.72763 -1.39221,-3.83918 -0.017,-2.11155 -1.11648,-5.24646 -2.44311,-6.966464 -2.18193,-2.8289 -2.94489,-2.98814 -7.99633,-1.66897 -9.50169,2.48134 -9.5669,2.5207 -7.76781,4.688484 2.93603,3.5377 -0.79003,3.57885 -5.557684,0.0614 -2.56729,-1.89408 -5.15189,-3.443784 -5.74356,-3.443784 -2.04576,0 -25.29168,-23.08078 -35.55065,-35.2981 -7.40035,-8.813 -10.27986,-13.32975 -10.23517,-16.05475 l 0.0622,-3.79174 2.38094,3.24832 c 6.15536,8.39777 19.75393,23.77796 30.75075,34.77956 11.05946,11.06427 12.64911,13.41199 5.06851,7.48558 -1.57266,-1.22949 -1.07982,-0.49729 1.0952,1.6271 3.23294,3.15768 4.45532,3.59454 6.69857,2.394 2.16105,-1.15657 2.74397,-1.02368 2.74397,0.62556 0,4.08665 4.541314,4.85413 14.343114,2.42401 6.39386,-1.5852 9.37555,-2.99257 9.36408,-4.41987 -0.0149,-1.86142 -0.17429,-1.86142 -1.43393,0 -1.06744,1.57742 -1.21099,1.20236 -0.58178,-1.52008 0.54226,-2.34621 -0.22866,-5.65546 -2.19745,-9.43265 -2.34304,-4.49522 -2.83335,-7.16574 -2.15595,-11.74254 0.48223,-3.25824 0.92666,-7.36551 0.98761,-9.12727 0.061,-1.76176 1.45961,-4.04543 3.10814,-5.07481 3.91892,-2.44708 17.656009,-4.19033 17.656009,-2.24057 0,0.79429 -1.75905,1.44416 -3.908979,1.44416 -2.14995,0 -4.59196,0.68297 -5.4267,1.5177 -1.09289,1.0929 -1.78025,1.0929 -2.4557,0 -0.51589,-0.83473 -1.5815,-1.5177 -2.368,-1.5177 -1.74748,0 -0.78182,3.44162 1.0131,3.61073 0.70385,0.0663 2.44253,0.62903 3.86374,1.25049 1.67514,0.73248 2.98013,0.48896 3.71024,-0.69237 0.92058,-1.48954 1.91453,-1.49576 5.443359,-0.0341 2.37442,0.98352 4.31715,2.36233 4.31715,3.06403 0,0.74858 -1.03025,0.72445 -2.49299,-0.0584 -1.97502,-1.057 -2.49297,-0.79845 -2.49297,1.24445 0,1.41826 0.4936,2.27358 1.0969,1.90072 0.60331,-0.37286 1.09692,-0.0126 1.09692,0.80053 0,0.81315 0.62822,1.47846 1.39606,1.47846 0.76784,0 1.39608,-0.97943 1.39608,-2.17649 0,-1.19707 0.62103,-1.79268 1.38007,-1.32356 0.79703,0.49259 1.022,-0.0802 0.53249,-1.35582 -0.46616,-1.21482 -2.50073,-3.10698 -4.52123,-4.20482 -2.81268,-1.52825 -3.08175,-2.00915 -1.14813,-2.05195 1.38903,-0.0308 2.13723,-0.68412 1.66268,-1.45195 -0.47454,-0.76784 -0.19751,-1.39607 0.61564,-1.39607 0.81316,0 1.47848,0.6028 1.47848,1.33956 0,0.73676 1.53692,2.77851 3.41538,4.53722 1.87847,1.7587 3.70228,4.76822 4.05294,6.68781 1.40933,7.71533 2.71061,11.31483 3.69602,10.22369 1.89549,-2.09887 7.1744,-21.6758 6.39357,-23.71062 -0.42228,-1.10042 -1.56146,-1.86262 -2.53154,-1.69375 -2.8434,0.49494 -9.43589,-3.24487 -8.47129,-4.80563 0.55076,-0.89114 -0.0718,-1.06268 -1.65364,-0.45566 -1.4103,0.54119 -7.86679,-0.53672 -14.538689,-2.4272 -11.64045,-3.29831 -21.45377,-5.45403 -32.901904,-7.22761 -4.63324,-0.7178 -5.13243,-1.08879 -3.04038,-2.25956 3.24122,-1.81387 14.485384,0.13637 38.006444,6.59204 9.923969,2.72376 19.142969,4.66798 20.486679,4.32047 1.46817,-0.37968 2.44312,0.15168 2.44312,1.33158 0,1.07987 0.69034,1.9634 1.53409,1.9634 2.45255,0 11.03049,4.39423 11.03049,5.6506 0,0.62934 -1.72763,1.34305 -3.83918,1.58601 -3.44767,0.3967 -4.1951,1.53018 -7.32934,11.11492 -1.91959,5.87024 -4.67627,11.9837 -6.12596,13.58545 -2.1614,2.38813 -2.31907,3.29389 -0.8761,5.03257 0.98435,1.18606 1.14098,2.12028 0.3555,2.12028 -0.7723,0 -1.80127,1.41352 -2.28659,3.14115 -0.87628,3.11932 -0.90781,3.11242 -4.53927,-0.99474 -3.10811,-3.51526 -3.51045,-3.67457 -2.68114,-1.0617 0.6024,1.89802 0.17967,4.21068 -1.10494,6.04469 -1.99738,2.85168 -2.06499,2.77337 -1.68963,-1.95729 0.29155,-3.67452 -0.0896,-4.74336 -1.49896,-4.20256 -1.36869,0.52521 -1.88996,3.76912 -1.88996,11.7613 0,9.843294 0.53963,12.128184 4.99291,21.140643 2.74611,5.55751 8.38779,14.18806 12.53709,19.17899 4.14929,4.99094 7.55655,9.54559 7.57167,10.12148 0.0609,2.31636 -2.29429,0.82412 -4.44468,-2.81619 z M 99.950621,83.442797 c -0.15565,-8.30858 -0.55486,-10.60644 -1.4328,-8.24747 -0.66936,1.79856 -0.92523,3.7422 -0.56861,4.31922 0.35663,0.57702 -0.002,3.40315 -0.79599,6.280284 -1.52538,5.52447 -0.91389,9.16551 1.53928,9.16551 0.93282,0 1.394689,-4.22816 1.25812,-11.517544 z m -4.47732,-4.9025 c -0.34942,-1.33477 -0.62263,0.0861 -0.60715,3.15741 0.0155,3.071354 0.3014,4.163434 0.63532,2.426854 0.33393,-1.736584 0.32126,-4.249504 -0.0281,-5.584264 z m -5.70002,-5.53891 c -0.46389,-0.4639 -0.79385,0.36066 -0.73323,1.83234 0.067,1.62634 0.39779,1.95714 0.84346,0.84346 0.40328,-1.00779 0.35368,-2.2119 -0.11023,-2.6758 z m 3.74925,-1.77416 c -0.40158,-1.53568 -0.971,-2.79213 -1.26535,-2.79213 -0.29438,0 -0.53521,1.25645 -0.53521,2.79213 0,1.53566 0.56941,2.79213 1.26536,2.79213 0.69595,0 0.9368,-1.25647 0.5352,-2.79213 z m 4.04584,-5.3255 c -0.63854,-3.3611 -0.47231,-3.55071 1.60692,-1.8329 2.100389,1.7353 2.317119,1.34028 2.297749,-4.1882 -0.026,-7.43538 -0.98048,-9.09186 -5.958449,-10.34125 -2.12177,-0.53254 -4.78333,-2.28966 -5.91457,-3.90473 -1.96092,-2.79962 -2.17091,-2.8223 -4.50464,-0.48676 -3.09281,3.09522 -3.03875,13.90953 0.0986,19.71882 1.9072,3.5315 2.35366,3.76063 3.17202,1.62802 0.75109,-1.95731 1.20192,-2.08832 2.13281,-0.6198 0.84291,1.32971 1.18653,1.37569 1.20179,0.16087 0.0439,-3.48822 4.21042,0.0528 4.23095,3.59571 0.0145,2.51094 0.39322,3.10343 1.18522,1.85448 0.64011,-1.00943 0.84334,-3.52235 0.45162,-5.58426 z m 16.490649,4.01182 c 0,-3.18913 -2.20106,-4.96032 -3.51741,-2.83044 -1.17274,1.89753 0.19323,5.54018 2.07753,5.54018 0.79193,0 1.43988,-1.21938 1.43988,-2.70974 z m -70.553803,-7.34934 c -3.81031,-3.99683 -8.01866,-8.30362 -9.35187,-9.57065 -1.33322,-1.26702 -5.57377,-6.24395 -9.42345,-11.05984 -3.84968,-4.81588 -6.99941,-8.10426 -6.99941,-7.3075 0,3.28665 28.68672,35.20494 31.64062,35.20494 0.58408,0 -2.05557,-3.27013 -5.86589,-7.26695 z m 60.228733,0.66472 c -0.46391,-0.4639 -0.79387,0.36066 -0.73325,1.83234 0.067,1.62634 0.39779,1.95714 0.84346,0.84346 0.40329,-1.00779 0.35368,-2.2119 -0.11022,-2.6758 z m 4.46989,-2.53097 c -0.25831,-6.87106 -2.02055,-7.31968 -2.28457,-0.5816 -0.11911,3.03963 0.38802,5.52661 1.12696,5.52661 0.73893,0 1.25985,-2.22526 1.15761,-4.94501 z m 5.14112,-6.25452 c -1.12013,-2.16609 -1.50198,-4.14464 -0.84856,-4.39679 0.65343,-0.25214 0.71921,-1.71489 0.14618,-3.25057 -0.85898,-2.30201 -1.22441,-1.85484 -2.08174,2.54739 -0.66787,3.42933 -0.47786,5.90155 0.53111,6.91053 2.05834,2.05832 2.02825,4.25208 -0.0407,2.97336 -1.02182,-0.63152 -1.23182,-0.38137 -0.57375,0.68342 0.78487,1.26995 1.50947,1.28831 2.97108,0.0753 1.64375,-1.3642 1.62826,-2.19364 -0.10355,-5.54262 z m -9.0584,0.72903 c 0,-1.91959 -0.54112,-3.49016 -1.20247,-3.49016 -0.66137,0 -0.90224,1.57057 -0.53529,3.49016 0.36695,1.9196 0.90806,3.49017 1.20247,3.49017 0.2944,0 0.53529,-1.57057 0.53529,-3.49017 z m -4.828829,-8.98154 c -0.50612,-0.81892 -2.57936,-1.48894 -4.6072,-1.48894 -4.07194,0 -2.85471,2.14523 1.75766,3.09767 3.402759,0.70267 4.051649,0.33633 2.84954,-1.60873 z"
         id="path4437"
         inkscape:connector-curvature="0" /></g></g></svg>