<?xml version="1.0" encoding="UTF-8" standalone="no"?>
<!-- Created with Inkscape (http://www.inkscape.org/) -->

<svg
   xmlns:dc="http://purl.org/dc/elements/1.1/"
   xmlns:cc="http://creativecommons.org/ns#"
   xmlns:rdf="http://www.w3.org/1999/02/22-rdf-syntax-ns#"
   xmlns:svg="http://www.w3.org/2000/svg"
   xmlns="http://www.w3.org/2000/svg"
   xmlns:sodipodi="http://sodipodi.sourceforge.net/DTD/sodipodi-0.dtd"
   xmlns:inkscape="http://www.inkscape.org/namespaces/inkscape"
   width="42.333332mm"
   height="42.334583mm"
   viewBox="0 0 149.99999 150.00443"
   id="svg4759"
   version="1.1"
   inkscape:version="0.91 r13725"
   sodipodi:docname="GIS-terrain.svg">
  <defs
     id="defs4761">
    <filter
       inkscape:collect="always"
       style="color-interpolation-filters:sRGB"
       id="filter31451"
       x="-0.048"
       width="1.096"
       y="-0.048"
       height="1.096">
      <feGaussianBlur
         inkscape:collect="always"
         stdDeviation="1.355806"
         id="feGaussianBlur31453" />
    </filter>
  </defs>
  <sodipodi:namedview
     id="base"
     pagecolor="#ffffff"
     bordercolor="#666666"
     borderopacity="1.0"
     inkscape:pageopacity="0.0"
     inkscape:pageshadow="2"
     inkscape:zoom="1.8407344"
     inkscape:cx="165.17542"
     inkscape:cy="103.67095"
     inkscape:document-units="px"
     inkscape:current-layer="layer1"
     showgrid="false"
     fit-margin-top="0"
     fit-margin-left="0"
     fit-margin-right="0"
     fit-margin-bottom="0"
     inkscape:window-width="1366"
     inkscape:window-height="768"
     inkscape:window-x="0"
     inkscape:window-y="0"
     inkscape:window-maximized="0"
     showborder="false" />
  <metadata
     id="metadata4764">
    <rdf:RDF>
      <cc:Work
         rdf:about="">
        <dc:format>image/svg+xml</dc:format>
        <dc:type
           rdf:resource="http://purl.org/dc/dcmitype/StillImage" />
        <dc:title />
      </cc:Work>
    </rdf:RDF>
  </metadata>
  <g
     inkscape:label="Layer 1"
     inkscape:groupmode="layer"
     id="layer1"
     transform="translate(-259.28568,-948.79077)">
    <g
       id="g19336"
       transform="matrix(0.8,0,0,0.79999595,51.857135,219.7626)"
       inkscape:export-xdpi="90"
       inkscape:export-ydpi="90">
      <rect
         ry="0"
         rx="0"
         style="opacity:1;fill:#333333;fill-opacity:1;stroke:none;stroke-width:6.79094839;stroke-linecap:round;stroke-linejoin:round;stroke-miterlimit:4;stroke-dasharray:none;stroke-dashoffset:0;stroke-opacity:1"
         id="rect5453"
         width="150"
         height="150"
         x="259.28568"
         y="948.79077" />
      <g
         style="fill:#b3b3b3"
         transform="matrix(1.5006612,0,0,1.5027917,-107.31161,-484.59039)"
         id="g9684">
        <g
           id="g20545"
           style="fill:#b3b3b3;filter:url(#filter31451)"
           transform="matrix(1.3459282,0,0,1.3459282,-2024.6934,12444.158)">
          <g
             style="fill:#b3b3b3"
             id="g20547">
            <path
               style="fill:#b3b3b3;fill-opacity:1"
               sodipodi:nodetypes="sccccccccccs"
               id="path20549"
               d="m 1716.355,-8497.3813 c -0.037,0 -0.074,0 -0.1088,0 -0.4693,-0.035 -0.7859,-0.3002 -0.8671,-0.7278 -0.2444,-1.2835 0.2108,-2.4084 0.6503,-3.4968 0.3323,-0.8224 0.6466,-1.5986 0.6682,-2.4255 0.016,-0.6228 -0.3389,-1.3774 -0.6823,-2.1067 -0.4261,-0.9052 -0.8671,-1.8408 -0.669,-2.6744 l 0,0 c 0.1982,-0.8344 0.7569,-1.3946 1.6158,-1.6188 1.8668,-0.4917 4.9956,0.7733 6.8275,2.7578 1.3148,1.4236 1.7647,2.991 1.2679,4.4131 -0.4731,1.3558 -6.4952,5.8829 -8.7025,5.8829 z"
               inkscape:connector-curvature="0" />
            <path
               sodipodi:nodetypes="cccccccccccsc"
               style="fill:#b3b3b3;fill-opacity:1"
               id="path20551"
               d="m 1719.6216,-8500.4282 c -0.4254,0 -0.7182,-0.1691 -0.9141,-0.365 l 0,0 c -0.086,-0.086 -0.1631,-0.1863 -0.2287,-0.2995 -0.3918,-0.6697 0.031,-1.4243 0.3405,-1.9756 0.095,-0.1691 0.1847,-0.327 0.2406,-0.4678 0.1706,-0.4284 0.1266,-0.9513 0.085,-1.4564 -0.072,-0.8731 -0.1549,-1.8639 0.9208,-2.3823 0.7308,-0.3531 1.5636,-0.3256 2.2847,0.076 0.7167,0.3986 1.1949,1.1078 1.2791,1.8959 0.1907,1.7954 -1.1532,3.6391 -2.5149,4.463 -0.6228,0.3755 -1.1115,0.5118 -1.4929,0.5118 z"
               inkscape:connector-curvature="0" />
            <path
               inkscape:connector-curvature="0"
               id="path20553"
               d="m 1708.5017,-8519.411 c -0.102,0 -0.2019,0 -0.298,-0.01 -1.3722,-0.066 -2.4434,-0.1706 -3.7374,-0.917 -0.3523,-0.2034 -0.6429,-0.4351 -0.9237,-0.6585 -0.2391,-0.1908 -0.4656,-0.371 -0.7263,-0.5334 -0.4485,-0.2794 -0.8381,-0.3479 -1.3767,-0.4433 l -0.3285,-0.06 c -0.6943,-0.1318 -1.2001,-0.2503 -1.8713,-0.6816 -0.1304,-0.084 -0.2943,-0.1706 -0.4671,-0.263 -0.4202,-0.2235 -0.8969,-0.4775 -1.1889,-0.8127 -0.932,-1.0705 0.08,-2.2013 0.7494,-2.9493 0.1631,-0.1825 0.3196,-0.356 0.441,-0.5177 0.3851,-0.5118 0.7196,-1.0802 1.0735,-1.6828 0.8276,-1.408 1.6835,-2.8629 3.233,-3.5795 1.1145,-0.5155 2.3839,-0.6615 3.4849,-0.4023 1.1256,0.266 2.9619,1.0891 3.9654,1.9562 0.663,0.5737 0.9393,1.3998 1.206,2.1999 0.155,0.4641 0.3017,0.9029 0.5155,1.2686 l 0,0 c 0.1893,0.3248 0.5751,0.5721 0.9849,0.8336 0.5929,0.3792 1.2649,0.809 1.4079,1.5957 0.1542,0.85 -0.4708,1.5286 -0.9729,2.0732 -0.1073,0.117 -0.2123,0.2302 -0.3062,0.3412 -0.2488,0.2965 -0.4395,0.6123 -0.6406,0.9476 -0.1736,0.2875 -0.3524,0.5847 -0.5751,0.8775 -0.8023,1.0519 -2.4017,1.4139 -3.6488,1.4139 z"
               style="fill:#b3b3b3;fill-opacity:1" />
            <path
               inkscape:connector-curvature="0"
               id="path20555"
               d="m 1705.4474,-8532.2993 c -0.6853,0 -1.399,0.1564 -2.0538,0.4596 -1.3379,0.619 -2.0985,1.9115 -2.9031,3.2808 -0.3493,0.5937 -0.7106,1.2083 -1.1204,1.7536 -0.1326,0.1765 -0.3024,0.3672 -0.4812,0.5669 -0.7509,0.8388 -1.2083,1.4288 -0.7427,1.9637 0.2019,0.2316 0.6138,0.4506 0.9774,0.6443 0.1929,0.1028 0.3739,0.2004 0.5192,0.2935 0.5408,0.3472 0.923,0.447 1.6083,0.5766 l 0.3189,0.058 c 0.5743,0.1014 1.0705,0.1885 1.6418,0.5446 0.2965,0.1847 0.5506,0.3874 0.7956,0.5825 0.272,0.2161 0.5275,0.4202 0.8322,0.596 1.1509,0.6645 2.094,0.7554 3.3999,0.8187 1.1852,0.058 2.6699,-0.2652 3.318,-1.1137 0.1982,-0.2607 0.3591,-0.5274 0.5297,-0.8105 0.2071,-0.3449 0.4223,-0.701 0.7084,-1.0422 0.1006,-0.1199 0.2131,-0.2421 0.3278,-0.3672 0.4306,-0.4671 0.8753,-0.9506 0.7874,-1.4356 -0.084,-0.4663 -0.5662,-0.7747 -1.0757,-1.101 -0.4656,-0.298 -0.9476,-0.6056 -1.2269,-1.0861 -0.2518,-0.4328 -0.418,-0.929 -0.5781,-1.408 -0.2466,-0.7367 -0.479,-1.4325 -0.9871,-1.872 -0.8887,-0.7688 -2.6051,-1.5488 -3.6487,-1.7954 -0.3032,-0.072 -0.6221,-0.1072 -0.9469,-0.1072 z"
               style="fill:#b3b3b3;fill-opacity:1" />
            <path
               inkscape:connector-curvature="0"
               id="path20557"
               d="m 1707.5594,-8520.2751 c -0.2362,0 -0.4768,-0.025 -0.7197,-0.081 -1.0906,-0.2526 -2.5283,-0.9051 -3.28,-1.7946 -0.5378,-0.6369 -0.6116,-1.3536 -0.6831,-2.0479 -0.024,-0.2294 -0.047,-0.4618 -0.09,-0.692 -0.1386,-0.7494 -0.482,-1.2448 -0.9171,-1.8728 l -0.1475,-0.2138 c -0.3054,-0.4455 -0.4097,-0.8709 -0.3106,-1.2635 0.1535,-0.6071 0.7539,-0.984 1.2597,-1.244 0.1848,-0.095 0.3829,-0.2049 0.5915,-0.3211 0.7554,-0.4187 1.6106,-0.8939 2.4904,-1.0668 0.619,-0.1206 1.1785,-0.072 1.6605,0.1498 0.2033,0.093 0.359,0.2361 0.4968,0.362 0.1378,0.1259 0.2563,0.2347 0.3911,0.2719 0.2205,0.06 0.4172,0.099 0.596,0.1356 0.6362,0.1289 1.1845,0.2399 1.7506,1.0422 0.6965,0.987 1.0713,2.0672 1.0839,3.1228 l 0.01,0.3807 c 0.029,1.3074 0.065,2.9343 -1.0266,3.8313 l 0,0 c -0.5162,0.4261 -1.7528,1.3014 -3.1533,1.3014 z"
               style="fill:#b3b3b3;fill-opacity:1" />
            <path
               d="m 1741.3055,-8527.7254 c -0.9043,0 -1.2395,0.9722 -1.574,2.2304 l -0.149,0.5491 c -0.7137,2.5872 -1.522,4.2399 -4.0354,5.7715 -0.2838,0.1729 -0.5535,0.3524 -0.8187,0.5275 -0.882,0.5848 -1.7149,2.4161 -2.842,2.6329 -0.4455,0.086 -0.8962,0.1683 -1.3513,0.251 -0.7837,0.1431 -1.5778,0.2891 -2.3682,0.4552 -0.8597,0.181 -1.4139,0.4932 -1.5614,0.8783 -0.117,0.3062 0.01,0.7107 0.3657,1.2023 0.5632,0.7696 1.4445,1.2642 2.2975,1.7432 0.3121,0.1751 0.6205,0.3487 0.9133,0.5334 1.8266,1.1532 2.5753,3.0305 3.3001,4.8466 0.4581,1.148 0.9319,2.3347 1.6731,3.2957 0.3748,0.485 0.8195,0.7449 1.2858,0.7524 l 0.019,0 c 0.4551,0 0.9103,-0.2488 1.2835,-0.7032 0.9021,-1.0988 0.926,-2.4673 0.8641,-4.142 -0.1028,-2.7682 0.3278,-5.9595 1.1823,-8.7546 0.3114,-1.0191 0.7986,-1.9331 1.2694,-2.8174 0.1646,-0.3077 0.3285,-0.6168 0.4879,-0.9327 0.6146,-1.2232 0.923,-2.7242 1.1867,-4.1575 0.2153,-1.1636 0.1378,-2.2088 -0.2309,-3.1079 -0.2682,-0.6578 -0.4425,-0.9543 -0.9774,-1.0378 -0.077,-0.01 -0.1497,-0.016 -0.2198,-0.016 z"
               id="path20559"
               style="fill:#b3b3b3"
               inkscape:connector-curvature="0"
               sodipodi:nodetypes="scccccccccccsccsccccccccs" />
            <path
               d="m 1735.3534,-8508.3574 c -1.431,0 -3.1079,-1.2739 -3.4975,-2.48 l 0,0 c -0.3397,-1.0533 0.027,-2.2862 0.2019,-2.7674 0.5579,-1.5406 1.9726,-2.5262 3.2211,-3.3955 l 0.5177,-0.3673 c 0.6988,-0.5125 1.7551,-1.288 2.5582,-0.8872 0.3628,0.181 0.5758,0.4969 0.6161,0.9133 0.065,0.692 -0.3583,1.5413 -0.6988,2.2229 -0.1259,0.2518 -0.2443,0.4894 -0.286,0.6235 -0.2764,0.8955 -0.4433,2.0576 -0.5342,2.8748 -0.014,0.1237 -0.025,0.2548 -0.037,0.3918 -0.091,1.0445 -0.2153,2.4755 -1.5391,2.8092 -0.1691,0.042 -0.3442,0.062 -0.5222,0.062 z"
               id="path20561"
               style="fill:#b3b3b3"
               inkscape:connector-curvature="0" />
            <path
               style="fill:#b3b3b3;fill-opacity:1"
               sodipodi:nodetypes="cccccccccccccccccccccccc"
               inkscape:connector-curvature="0"
               id="path20563"
               d="m 1707.2934,-8516.6066 c -0.6518,0 -1.3245,-0.111 -2.0151,-0.3672 -1.0906,-0.4053 -1.7655,-1.1793 -2.4173,-1.9272 -0.7465,-0.8567 -1.4527,-1.6665 -2.7563,-1.8617 -0.1624,-0.024 -0.3353,-0.047 -0.5163,-0.072 -1.7015,-0.2264 -4.273,-0.5699 -4.4146,-2.8621 -0.095,-1.5487 0.9476,-2.8792 1.8676,-4.0532 0.3651,-0.4656 0.71,-0.9051 0.9692,-1.3335 l 0.1266,-0.2093 c 1.0325,-1.706 2.1008,-3.47 3.7397,-4.5271 9.0753,0.474 9.1111,0.573 9.7171,1.4475 0.4306,0.4231 0.8098,0.9207 1.1778,1.402 0.1154,0.1504 0.2294,0.3002 0.3426,0.4439 0.1773,0.2258 0.3464,0.4708 0.517,0.7204 0.4485,0.6533 0.9119,1.3297 1.5838,1.6463 0.2168,0.1021 0.4388,0.2153 0.66,0.3278 0.2943,0.1498 0.587,0.2995 0.8634,0.4194 0.2146,0.093 0.5319,0.1617 0.8686,0.2339 0.9603,0.2071 2.2751,0.4917 2.3965,1.7462 0.1319,1.3633 -1.5398,2.3943 -2.6468,3.0766 -0.1944,0.12 -0.3724,0.2295 -0.5192,0.3278 -1.3707,0.92 -2.4926,1.7127 -3.5132,2.5939 -1.4929,1.2918 -3.607,2.8271 -6.0311,2.8271 z" />
            <path
               inkscape:connector-curvature="0"
               d="m 1707.3672,-8522.3595 c -0.6124,0 -1.227,-0.3054 -1.7767,-0.9014 -0.5513,-0.5974 -1.1108,-1.2478 -1.3693,-2.0389 -0.1944,-0.5945 -0.14,-1.3029 0.1416,-1.8482 0.2302,-0.4448 0.59,-0.7539 1.0407,-0.8947 0.59,-0.1847 1.069,0.061 1.4526,0.2578 0.2451,0.1251 0.4761,0.2443 0.71,0.2503 0.1281,0 0.2518,0 0.3672,0 0.5721,-0.02 1.3633,-0.044 1.4229,1.2761 0.012,0.2541 0.066,0.5193 0.1192,0.7763 0.034,0.1653 0.067,0.3285 0.091,0.4887 0.1363,0.9244 -0.3085,1.8176 -1.1592,2.3324 l 0,0 c -0.3374,0.2048 -0.6883,0.3054 -1.0399,0.3054 z"
               id="path20565"
               sodipodi:nodetypes="sccccccccccccs"
               style="fill:#b3b3b3;fill-opacity:1" />
            <path
               style="fill:#b3b3b3"
               sodipodi:nodetypes="scccccccccccccccccccccs"
               inkscape:connector-curvature="0"
               d="m 1699.0692,-8481.3278 c -0.6392,0 -1.0578,-0.2525 -1.3119,-0.4932 -0.9617,-0.9103 -0.8045,-2.6907 -0.733,-3.2152 0.1706,-1.253 0.9461,-1.7506 1.6299,-2.1886 0.5029,-0.3226 0.9782,-0.6273 1.2419,-1.2217 0.3233,-0.7293 0.2197,-1.8289 0.1288,-2.7995 -0.044,-0.4679 -0.085,-0.9104 -0.084,-1.3119 l 0,-0.2086 c 0,-2.4918 0.012,-8.3278 3.5876,-8.5289 0.8746,-0.054 1.3819,0.3106 1.6523,0.6213 0.7822,0.8991 0.59,2.3965 0.4708,2.9984 -0.09,0.4544 -0.2406,0.9208 -0.3866,1.3722 -0.2711,0.8388 -0.552,1.7059 -0.441,2.5023 0.068,0.4887 0.3039,0.9595 0.5543,1.4578 0.2324,0.4641 0.4737,0.9446 0.5922,1.4743 l 0,0 c 0.2793,1.2426 0.3166,2.5336 0.3173,3.5199 0,2.1708 -0.6838,4.7684 -2.6267,4.9487 -0.3255,0.028 -0.6332,7e-4 -0.9304,-0.027 -0.4142,-0.037 -0.8068,-0.075 -1.1845,0.063 -0.2577,0.094 -0.4916,0.248 -0.7397,0.4119 -0.3568,0.2354 -0.7271,0.4798 -1.2076,0.5729 -0.1914,0.035 -0.368,0.051 -0.5296,0.051 z"
               id="path20567" />
            <path
               style="fill:#b3b3b3"
               id="path20569"
               d="m 1704.7196,-8468.861 c -1.7379,0 -3.4878,-0.6064 -4.5688,-1.0697 -1.6627,-0.7107 -3.0714,-1.7089 -4.3073,-3.0506 -0.1884,-0.2041 -0.3829,-0.4075 -0.5773,-0.6109 -0.9923,-1.0362 -2.0173,-2.1074 -2.4665,-3.5541 -0.1281,-0.4134 -0.2704,-0.818 -0.412,-1.2195 -0.3888,-1.1085 -0.7911,-2.2542 -0.8678,-3.5243 -0.057,-0.9402 0.088,-1.8624 0.2279,-2.7541 0.1334,-0.8507 0.2593,-1.6538 0.2235,-2.4643 -0.068,-1.5376 0.2674,-2.4382 0.8202,-3.7799 l 0.3017,-0.7248 c 0.4023,-0.9595 0.818,-1.951 1.1241,-2.9485 0.6593,-2.141 1.2173,-4.247 0.809,-6.4811 -0.362,-1.9793 -1.3371,-4.016 -2.8993,-6.0527 -0.8552,-1.1152 -1.878,-1.9957 -2.8569,-2.7816 l 0.1661,-0.3494 0.2354,-0.289 0.046,0.04 c 1.0355,0.8328 2.0986,1.7491 3.0022,2.9269 1.6344,2.1313 2.6572,4.2745 3.0409,6.3715 0.4387,2.3995 -0.1423,4.6023 -0.8299,6.8349 -0.3174,1.0318 -0.7405,2.0405 -1.1495,3.0171 l -0.3002,0.7204 c -0.5289,1.285 -0.8261,2.0791 -0.765,3.4625 0.039,0.8857 -0.099,1.764 -0.2325,2.6133 -0.14,0.8917 -0.2719,1.7342 -0.2205,2.5931 0.07,1.1666 0.4381,2.214 0.8284,3.3225 0.1438,0.4105 0.289,0.8232 0.4202,1.2455 0.397,1.2806 1.361,2.287 2.2929,3.2607 0.1982,0.2071 0.3956,0.4134 0.587,0.6213 1.1629,1.2627 2.4882,2.2013 4.0526,2.8703 1.1725,0.5028 4.13,1.5696 6.2575,0.6339 1.8684,-0.8224 2.7079,-3.2122 2.8711,-5.1751 0.175,-2.1082 -0.2071,-4.0734 -0.6116,-6.1541 -0.2206,-1.1368 -0.4492,-2.3123 -0.5751,-3.5042 -0.1803,-1.6977 -0.072,-3.6838 0.3046,-5.5931 0.1624,-0.8246 0.3911,-1.6903 0.7189,-2.7213 0.111,-0.3494 0.2578,-0.6809 0.4001,-1.0027 0.1616,-0.3635 0.3136,-0.7084 0.4134,-1.069 0.086,-0.3091 0.117,-0.6019 0.1505,-0.9118 0.044,-0.4097 0.089,-0.8336 0.2652,-1.2962 l 0.1438,-0.3762 c 0.6443,-1.6821 1.3111,-3.4216 1.3923,-5.243 0.062,-1.393 0.084,-2.8635 -0.3747,-4.1896 -0.4552,-1.314 -1.3514,-1.907 -2.4874,-2.6564 l -0.4455,-0.2973 c -0.5677,-0.3836 -1.1994,-0.7136 -1.811,-1.0332 l -0.2808,-0.1475 c -0.5751,-0.3025 -1.1249,-0.6474 -1.656,-0.9811 -0.4016,-0.2518 -0.8038,-0.5043 -1.2195,-0.7405 -0.2295,-0.1304 -0.4649,-0.2466 -0.6988,-0.3628 -0.2861,-0.1415 -0.5714,-0.2831 -0.8448,-0.4462 -1.7677,-1.0526 -3.2442,-2.2937 -4.8086,-3.6078 l -0.2391,-0.2011 c -0.5051,-0.4239 -0.9849,-0.8791 -1.449,-1.3193 -0.3099,-0.2943 -0.6205,-0.5893 -0.9393,-0.8761 -0.2086,-0.1877 -0.4247,-0.3628 -0.6385,-0.5379 -0.5833,-0.4745 -1.1859,-0.9654 -1.6247,-1.6753 -1.2977,-2.1001 -0.061,-3.9699 1.0303,-5.6192 0.3687,-0.5572 0.7494,-1.1331 1.0228,-1.6955 0.7807,-1.6098 1.9503,-2.9411 2.9917,-4.0309 0.1222,-0.1274 0.2481,-0.2414 0.3777,-0.3479 l 0.4738,0.5743 c -0.1073,0.089 -0.2123,0.1826 -0.3129,0.2876 -1.0005,1.0474 -2.1231,2.3235 -2.8599,3.841 -0.2942,0.6063 -0.6898,1.2038 -1.0712,1.7811 -1.0623,1.6054 -2.065,3.1214 -1.0183,4.8161 0.3732,0.6034 0.9013,1.034 1.4615,1.4892 0.2235,0.1825 0.4492,0.3657 0.6668,0.5617 0.324,0.2912 0.6391,0.5907 0.9543,0.8894 0.4559,0.4336 0.9274,0.8806 1.4146,1.2895 l 0.2399,0.2012 c 1.5398,1.294 2.9947,2.5164 4.7103,3.5377 0.257,0.1528 0.5252,0.2854 0.7941,0.4187 0.2466,0.1222 0.4939,0.2451 0.736,0.3829 0.4246,0.2414 0.8366,0.4991 1.2471,0.7576 0.5192,0.3263 1.0563,0.663 1.6068,0.9528 l 0.2794,0.146 c 0.6295,0.3285 1.2805,0.669 1.8825,1.0765 l 0.4387,0.2927 c 1.1532,0.7621 2.2431,1.4817 2.7809,3.035 0.5021,1.4504 0.4805,3.0014 0.415,4.4667 -0.086,1.9413 -0.7755,3.7381 -1.4415,5.4761 l -0.143,0.3747 c -0.1423,0.3732 -0.1803,0.7308 -0.2213,1.1107 -0.035,0.3263 -0.071,0.6638 -0.1728,1.0318 -0.1147,0.4127 -0.2853,0.7978 -0.45,1.171 -0.14,0.3166 -0.2726,0.6154 -0.3709,0.926 -0.3234,1.0183 -0.5386,1.8326 -0.6981,2.6401 -0.3628,1.8378 -0.4678,3.7449 -0.295,5.3703 0.123,1.1607 0.3479,2.3191 0.5662,3.4402 0.3963,2.0389 0.806,4.1471 0.622,6.3574 -0.1803,2.1767 -1.1464,4.8429 -3.3135,5.7965 -0.7166,0.3166 -1.4981,0.4402 -2.2818,0.4402 z"
               inkscape:connector-curvature="0" />
            <path
               style="fill:#b3b3b3"
               id="path20571"
               d="m 1705.7119,-8472.9426 c -0.7837,0 -1.5853,-0.2696 -2.1842,-0.5974 -0.7911,-0.4321 -1.2217,-1.1413 -1.6374,-1.8274 -0.3397,-0.5594 -0.66,-1.0883 -1.1554,-1.4303 -0.5103,-0.3501 -1.0124,-0.2048 -1.7909,0.061 -0.6533,0.2242 -1.3938,0.4775 -2.1953,0.2272 -1.3141,-0.4089 -1.8423,-1.8415 -2.2662,-2.9924 -0.06,-0.1609 -0.1169,-0.3174 -0.1743,-0.4656 -0.5937,-1.5234 -1.063,-2.7265 -0.9915,-4.5688 0.064,-1.6597 0.3762,-3.1154 0.9558,-4.4511 0.5028,-1.1599 1.279,-1.6783 2.0292,-2.1797 0.3836,-0.2562 0.78,-0.5207 1.1591,-0.879 0.7711,-0.7293 1.18,-2.0233 0.9513,-3.0089 -0.3985,-1.7178 -0.4738,-3.0014 -0.2614,-4.4317 l 0.054,-0.3583 c 0.2637,-1.7551 0.5639,-3.7456 0.1527,-5.4188 -0.6183,-2.5119 -2.328,-5.8821 -4.4019,-7.4643 -1.0563,-0.8068 -2.4099,-1.1704 -3.7188,-1.5212 -0.3039,-0.081 -0.6064,-0.1632 -0.9051,-0.2488 l 0.2064,-0.7159 c 0.2942,0.085 0.5922,0.1653 0.8917,0.2458 1.3789,0.3702 2.8039,0.7531 3.9772,1.6486 2.2103,1.6873 4.0243,5.2407 4.6731,7.8785 0.4462,1.8162 0.1356,3.8835 -0.1393,5.7078 l -0.054,0.3569 c -0.1982,1.3312 -0.1252,2.5343 0.2503,4.1538 0.2875,1.2433 -0.2027,2.8077 -1.1659,3.7188 -0.4246,0.4015 -0.8485,0.6839 -1.2574,0.9573 -0.7212,0.4812 -1.3447,0.8976 -1.7596,1.8564 -0.5423,1.2492 -0.8351,2.6177 -0.8954,4.1829 -0.065,1.6865 0.3568,2.7697 0.9416,4.2685 0.06,0.1527 0.1192,0.3136 0.1795,0.479 0.3866,1.0489 0.8247,2.2393 1.7879,2.5381 0.5691,0.1758 1.1345,-0.016 1.7335,-0.2205 0.7561,-0.2585 1.612,-0.5498 2.4546,0.03 0.6272,0.4328 1.0042,1.0556 1.3692,1.6575 0.3814,0.6295 0.742,1.224 1.3573,1.5607 0.9148,0.4991 1.9384,0.6429 2.6066,0.3635 0.4365,-0.1818 0.736,-0.5423 0.8894,-1.0705 0.4619,-1.5919 0.1028,-3.5467 -0.2145,-5.2705 -0.068,-0.368 -0.1334,-0.7271 -0.19,-1.0712 -0.064,-0.3926 -0.1646,-0.7979 -0.2629,-1.1905 -0.1617,-0.6481 -0.3286,-1.3193 -0.3531,-2.0024 -0.027,-0.73 0.073,-1.4489 0.1706,-2.1447 0.045,-0.3248 0.091,-0.6488 0.1229,-0.9736 0.181,-1.8274 0.4328,-3.6309 0.7479,-5.3614 0.146,-0.8016 0.3337,-1.5674 0.5148,-2.3079 0.4633,-1.8944 0.9013,-3.683 0.5743,-5.7473 -0.043,-0.2704 -0.076,-0.5177 -0.1073,-0.7516 -0.1072,-0.8038 -0.184,-1.3849 -0.5609,-2.1678 -0.1535,-0.3196 -0.292,-0.6325 -0.4284,-0.9416 -0.3128,-0.7092 -0.6086,-1.3789 -1.0585,-2.0501 -0.4239,-0.634 -0.9178,-1.1398 -1.4408,-1.6754 l -0.33,-0.3397 c -0.2503,-0.26 -0.5207,-0.4887 -0.8067,-0.7316 -0.26,-0.2197 -0.5208,-0.4417 -0.7681,-0.6868 -0.1386,-0.1371 -0.2563,-0.263 -0.3665,-0.3807 -0.3263,-0.3486 -0.5416,-0.5788 -1.0027,-0.7919 -0.2965,-0.137 -0.5893,-0.292 -0.882,-0.4477 -0.3651,-0.1929 -0.742,-0.3933 -1.1174,-0.5497 -0.3755,-0.1565 -0.7539,-0.298 -1.1301,-0.4381 -1.2694,-0.4745 -2.5813,-0.9647 -3.6495,-2.0084 -1.1167,-1.0898 -1.7924,-2.4717 -2.3377,-3.6822 -0.1676,-0.3718 -0.3024,-0.8165 -0.4455,-1.2873 -0.2711,-0.8947 -0.5781,-1.9086 -1.1315,-2.3459 -0.2533,-0.2003 -0.5528,-0.1787 -1.0199,-0.1281 -0.1549,0.017 -0.3099,0.034 -0.4626,0.038 l -0.021,-0.7449 c 0.1334,0 0.2682,-0.019 0.4038,-0.034 0.4969,-0.053 1.0571,-0.1132 1.5614,0.2846 0.736,0.5818 1.0795,1.7149 1.3819,2.7139 0.1356,0.4469 0.2637,0.8693 0.4112,1.1963 0.5178,1.148 1.1562,2.4561 2.1797,3.4551 0.9565,0.9342 2.1388,1.3759 3.3903,1.8438 0.3844,0.1437 0.7718,0.2883 1.1562,0.4492 0.4074,0.1698 0.8,0.3777 1.1792,0.5788 0.2809,0.149 0.561,0.298 0.8455,0.4298 0.593,0.2749 0.8895,0.5915 1.2337,0.9595 0.1043,0.111 0.216,0.231 0.3464,0.3606 0.2331,0.2317 0.4797,0.4395 0.7248,0.6473 0.2883,0.2444 0.5863,0.4962 0.8626,0.7837 l 0.3263,0.3353 c 0.5476,0.5602 1.0646,1.0898 1.5272,1.7811 0.4857,0.7256 0.7941,1.4244 1.1211,2.1634 0.1334,0.3017 0.2682,0.6071 0.4187,0.9192 0.4283,0.8902 0.5207,1.5868 0.628,2.3928 0.03,0.228 0.062,0.4693 0.1043,0.7338 0.3508,2.2125 -0.1043,4.0719 -0.5863,6.0408 -0.1788,0.7293 -0.3635,1.4846 -0.5058,2.2646 -0.3114,1.7104 -0.5602,3.4938 -0.7398,5.3003 -0.033,0.3345 -0.08,0.669 -0.1258,1.0042 -0.097,0.6936 -0.1878,1.3491 -0.1639,2.0136 0.022,0.6064 0.1728,1.2113 0.3322,1.8505 0.1013,0.4067 0.2056,0.8269 0.2749,1.25 0.055,0.3389 0.1207,0.6928 0.187,1.0556 0.3322,1.8065 0.7084,3.8529 0.1974,5.6139 -0.216,0.745 -0.672,1.2813 -1.3193,1.5503 -0.3323,0.1415 -0.6958,0.2003 -1.0623,0.2003 z"
               inkscape:connector-curvature="0" />
            <path
               style="fill:#b3b3b3"
               id="path20573"
               d="m 1690.2058,-8531.1372 c -0.2436,0 -0.4798,-0.044 -0.7018,-0.1475 -0.105,-0.048 -0.2056,-0.1133 -0.3069,-0.1982 l 0.4783,-0.5714 c 0.051,0.042 0.096,0.072 0.1423,0.094 0.5833,0.2719 1.5562,-0.2227 2.3369,-0.6213 0.3069,-0.1564 0.5974,-0.3047 0.8492,-0.3993 0.3337,-0.1251 0.6667,-0.2384 0.9975,-0.3516 0.4894,-0.1669 0.952,-0.3248 1.4124,-0.517 l 0.2876,0.6876 c -0.4828,0.2019 -0.9789,0.3717 -1.4586,0.5349 -0.3241,0.1102 -0.6504,0.2212 -0.9767,0.3442 -0.2123,0.08 -0.4842,0.2182 -0.7725,0.365 -0.6995,0.3568 -1.5301,0.7807 -2.2877,0.7807 z"
               inkscape:connector-curvature="0" />
            <path
               style="fill:#b3b3b3"
               id="path20575"
               d="m 1724.1188,-8527.7477 c -0.555,0 -1.1144,-0.08 -1.6642,-0.3732 -0.8969,-0.479 -1.4452,-1.1644 -2.0262,-1.8907 -0.1699,-0.2123 -0.3412,-0.4276 -0.5267,-0.6407 l -0.1773,-0.2056 c -0.6243,-0.7263 -1.2143,-1.4124 -2.0047,-1.8407 -0.3546,-0.1915 -0.7449,-0.333 -1.2269,-0.444 l 0.1669,-0.7263 c 0.5497,0.1259 0.9997,0.2897 1.4146,0.5147 0.9118,0.4939 1.5741,1.2649 2.2155,2.0106 l 0.1758,0.2041 c 0.1915,0.2213 0.3695,0.444 0.5446,0.6631 0.5311,0.6644 1.0332,1.2917 1.7953,1.6984 0.6883,0.3665 1.4482,0.301 2.2527,0.2302 0.2607,-0.023 0.5215,-0.045 0.7822,-0.054 0.1922,-0.01 0.3755,-0.01 0.555,-0.012 0.6585,-0.01 1.2269,-0.017 1.8959,-0.2182 1.9294,-0.5789 3.7091,-1.6449 5.4314,-2.6752 l 0.5729,-0.3419 c 1.0481,-0.6228 1.8273,-1.2292 2.4531,-1.9085 l 0.5483,0.505 c -0.6757,0.7338 -1.5085,1.3834 -2.6208,2.0442 l -0.5713,0.3412 c -1.7611,1.0541 -3.5825,2.1432 -5.6006,2.7488 -0.7673,0.2302 -1.4139,0.2399 -2.0992,0.2496 -0.1736,0 -0.3539,0.01 -0.5409,0.011 -0.2465,0.01 -0.4939,0.031 -0.7419,0.052 -0.3308,0.028 -0.666,0.058 -1.0035,0.058 z"
               inkscape:connector-curvature="0" />
            <path
               style="fill:#b3b3b3"
               id="path20577"
               d="m 1724.9107,-8531.4806 c -0.4306,0 -0.8805,-0.1 -1.3469,-0.409 -0.5684,-0.3762 -0.9811,-0.8701 -1.3878,-1.3864 l 0.5848,-0.4611 c 0.3821,0.4842 0.7367,0.9103 1.2143,1.2262 0.4551,0.301 0.873,0.3546 1.5971,0.2041 0.2265,-0.047 0.4582,-0.1266 0.6839,-0.2026 l 0.3032,-0.1006 c 0.1736,-0.054 0.3576,-0.1087 0.5475,-0.1631 0.7718,-0.225 1.6464,-0.4798 2.1879,-0.9334 l 0.3427,0.2003 0.2384,0.2861 -0.055,0.045 c -0.7085,0.593 -1.6628,0.8709 -2.5053,1.1167 -0.184,0.054 -0.3628,0.1058 -0.5319,0.1587 l -0.2883,0.095 c -0.2548,0.086 -0.517,0.1743 -0.7718,0.2272 -0.2629,0.054 -0.5333,0.096 -0.8127,0.096 z"
               inkscape:connector-curvature="0" />
            <path
               style="fill:#b3b3b3"
               inkscape:connector-curvature="0"
               id="path20579"
               d="m 1715.0729,-8466.2045 -0.5408,-0.5125 c 0.7762,-0.8195 1.4146,-1.741 1.6016,-2.0598 0.558,-0.9491 1.4259,-3.0454 0.7182,-4.1814 -0.2898,-0.4648 -0.5856,-0.7248 -0.8031,-0.6965 -0.6228,0.041 -1.3461,1.6366 -1.7782,2.5909 -0.2272,0.5014 -0.4231,0.9342 -0.6049,1.2038 -0.1572,0.2347 -0.3516,0.4872 -0.5572,0.7547 -0.634,0.8224 -1.3514,1.7543 -1.3283,2.6341 l -0.7449,0.02 c -0.031,-1.1442 0.8083,-2.2333 1.4824,-3.1086 0.1952,-0.2533 0.38,-0.4932 0.529,-0.7152 0.1467,-0.219 0.3404,-0.6451 0.5445,-1.0966 0.628,-1.3856 1.3394,-2.9567 2.4077,-3.0267 0.5296,-0.031 1.031,0.3174 1.4847,1.0452 0.8947,1.4362 -0.024,3.7895 -0.7077,4.9531 -0.2384,0.4068 -0.9111,1.3611 -1.703,2.1954 z" />
            <path
               style="fill:#b3b3b3"
               sodipodi:nodetypes="ccccccccccccccccccccsccccccccccccccccccccccccccccccccccccccccccccccccccccccccccscccccccccccccccccccccccccccccccccccccc"
               inkscape:connector-curvature="0"
               id="path20581"
               d="m 1721.548,-8466.2875 -0.66,-0.3464 c 0.4678,-0.8917 0.9021,-1.8699 0.9148,-2.9731 0.01,-0.8463 -0.013,-1.5637 -0.1542,-2.3123 -0.3405,-1.8125 -0.9044,-3.14 -1.7246,-4.0593 -0.1892,-0.2123 -0.4142,-0.4052 -0.6518,-0.6093 -0.3822,-0.3278 -0.777,-0.6675 -1.0571,-1.1197 -0.1177,-0.1907 -0.2175,-0.3628 -0.3114,-0.5267 -0.2391,-0.4157 -0.4283,-0.7442 -0.8008,-1.1613 -1.5592,-1.7425 -2.1805,-3.137 -1.9004,-4.2641 0.2675,-1.0765 1.0348,-1.846 1.7767,-2.5902 0.374,-0.3755 0.7279,-0.7293 1.0065,-1.1107 0.6801,-0.9305 0.5319,-1.5428 0.3076,-2.4703 -0.071,-0.2928 -0.1445,-0.6012 -0.1974,-0.9394 -0.5028,-3.2375 2.7742,-5.7942 4.206,-6.744 3.1966,-2.1194 5.0068,-4.2283 5.3808,-6.2687 0.2331,-1.2739 -0.1013,-2.5507 -0.9945,-3.7948 -0.5431,-0.7554 -1.0661,-1.1383 -1.8028,-1.6374 -0.3636,-0.2466 -0.622,-0.5714 -0.8716,-0.885 -0.2585,-0.3248 -0.5028,-0.6317 -0.8351,-0.8068 -0.1482,-0.078 -0.2838,-0.076 -0.4708,-0.076 -0.1743,0 -0.371,0 -0.5915,-0.067 -0.3553,-0.1118 -0.6496,-0.3375 -0.9342,-0.5565 -0.181,-0.1386 -0.3516,-0.2689 -0.5199,-0.3568 -0.3196,-0.1661 -0.6817,-0.3069 -1.0653,-0.4559 -0.8195,-0.3189 -1.6657,-0.6481 -2.2542,-1.2828 -0.5252,-0.5669 -0.7077,-1.2992 -0.5006,-2.0069 0.2153,-0.7353 0.8313,-1.3178 1.6076,-1.5205 0.5877,-0.1534 1.1859,-0.1676 1.764,-0.1817 0.8411,-0.02 1.6352,-0.039 2.3108,-0.479 0.2161,-0.1401 0.4239,-0.2958 0.6325,-0.4515 0.7174,-0.5356 1.4713,-1.0757 2.4911,-1.0697 0.6019,0.012 1.1428,0.2287 1.6665,0.4388 0.3426,0.137 0.6667,0.2666 0.9937,0.3352 1.9488,0.4045 4.2298,-1.0251 5.9998,-2.3198 0.1565,-0.114 0.3233,-0.2302 0.4939,-0.3486 1.0653,-0.7383 2.1664,-1.5018 1.9369,-2.7027 -0.3278,-1.7164 -0.4879,-3.1564 0.66,-4.761 1.5376,-2.1506 3.4082,-3.201 5.8851,-3.3061 2.1872,-0.089 4.1181,1.2776 4.7334,3.3315 0.4135,1.3789 0.4098,3.318 -0.01,4.9405 -0.4552,1.7714 -1.6493,3.0721 -2.804,4.3303 -0.3851,0.4195 -0.7829,0.8538 -1.1405,1.2925 -0.7025,0.8649 -1.3655,1.7961 -1.4467,2.7481 -0.1088,1.259 -0.111,2.5686 -0.1147,3.835 0,1.0705 -0.01,2.1768 -0.072,3.2622 -0.026,0.4388 -0.016,0.9148 0,1.4184 0.022,0.914 0.044,1.8594 -0.1617,2.6855 -0.1989,0.7978 -0.7047,1.3141 -1.1949,1.8132 -0.3628,0.3695 -0.7047,0.7174 -0.8999,1.1621 -0.6436,1.4639 0.4582,2.4829 1.6255,3.5601 0.4723,0.4366 0.917,0.8485 1.2485,1.2955 0.4887,0.6608 0.5513,0.7457 1.2262,0.8612 0.9848,0.1706 1.8579,0.365 2.5626,1.0407 1.0109,0.9714 1.3901,2.4963 1.6509,3.9996 l 0.046,0.2831 c 0.1006,0.6399 0.1207,0.7732 0.6489,0.9155 0.3151,0.085 0.6675,0.083 1.0362,0.082 0.3568,0 0.7234,0 1.0869,0.073 3.2539,0.6816 4.8563,3.4617 5.5216,5.0589 l -0.6884,0.2868 c -0.6086,-1.4616 -2.0657,-4.0048 -4.9852,-4.6164 -0.2875,-0.06 -0.6004,-0.062 -0.9319,-0.057 -0.4023,0 -0.8224,0 -1.2336,-0.1087 -0.9938,-0.2682 -1.0847,-0.8485 -1.1905,-1.519 l -0.044,-0.2711 c -0.2384,-1.3789 -0.5766,-2.7675 -1.4326,-3.5892 -0.552,-0.5296 -1.3111,-0.6958 -2.1737,-0.844 -0.9692,-0.1676 -1.1674,-0.4358 -1.6985,-1.1532 -0.289,-0.3903 -0.7092,-0.78 -1.1547,-1.1912 -1.1844,-1.095 -2.6587,-2.4568 -1.802,-4.4078 0.2503,-0.5692 0.657,-0.9834 1.0504,-1.3841 0.4395,-0.4478 0.8544,-0.8701 1.0042,-1.4713 0.181,-0.7293 0.1601,-1.624 0.14,-2.4882 -0.012,-0.4968 -0.024,-1.0108 0,-1.4802 0.064,-1.0645 0.067,-2.1596 0.07,-3.2196 0,-1.2821 0.01,-2.6074 0.1177,-3.8969 0.099,-1.1524 0.8329,-2.1968 1.6113,-3.1541 0.3718,-0.4566 0.777,-0.8991 1.1696,-1.3267 1.1428,-1.2448 2.2214,-2.4211 2.6304,-4.0123 0.3799,-1.478 0.3866,-3.3031 0.016,-4.5412 -0.5096,-1.6993 -2.1969,-2.8703 -3.9885,-2.801 -2.2296,0.095 -3.9177,1.0466 -5.3122,2.9954 -0.9774,1.3662 -0.8373,2.5976 -0.5334,4.1874 -0.4505,3.5875 -6.6026,6.7192 -9.3156,6.2404 -0.3903,-0.081 -0.7606,-0.2294 -1.1182,-0.3725 -0.4819,-0.1937 -0.9386,-0.3754 -1.4042,-0.3851 -0.8112,-0.01 -1.3863,0.4395 -2.0307,0.9215 -0.2213,0.1654 -0.4433,0.3307 -0.6727,0.4797 -0.853,0.5535 -1.7909,0.5766 -2.6982,0.5982 -0.5602,0.013 -1.0899,0.027 -1.5942,0.158 -0.5244,0.1363 -0.9379,0.5229 -1.0802,1.0086 -0.1318,0.4507 -0.011,0.9215 0.3315,1.2918 0.4716,0.5095 1.2374,0.8067 1.9779,1.095 0.3851,0.1498 0.7836,0.3047 1.1382,0.4887 0.2273,0.1177 0.4321,0.2749 0.6303,0.4269 0.2443,0.187 0.4752,0.3643 0.7047,0.4365 0.1088,0.034 0.225,0.037 0.3635,0.033 0.228,0 0.5088,0 0.8217,0.1616 0.4708,0.2474 0.7762,0.631 1.0712,1.0013 0.225,0.2823 0.4373,0.549 0.7063,0.7315 0.7784,0.5274 1.3774,0.9662 1.9905,1.8192 1.0161,1.4154 1.3938,2.8837 1.1226,4.3639 -0.4127,2.2475 -2.3309,4.5203 -5.7018,6.7559 -1.0243,0.6787 -4.3304,3.1176 -3.8812,6.0073 0.049,0.3166 0.1192,0.6049 0.1855,0.879 0.2331,0.9655 0.4536,1.8765 -0.4306,3.0856 -0.3121,0.4276 -0.7025,0.8194 -1.0802,1.1971 -0.701,0.7033 -1.364,1.367 -1.5815,2.2438 -0.2131,0.8567 0.3702,2.0643 1.7327,3.5877 0.4247,0.4745 0.6519,0.8686 0.8917,1.2858 0.091,0.1579 0.1863,0.324 0.2988,0.5065 0.2197,0.3546 0.5549,0.6422 0.9095,0.9469 0.2459,0.2115 0.4999,0.4298 0.7219,0.6786 0.9133,1.0236 1.5353,2.4688 1.9004,4.4191 0.1609,0.8559 0.175,1.688 0.1668,2.4583 -0.014,1.2664 -0.5132,2.3853 -0.9997,3.3128 z" />
            <path
               style="fill:#b3b3b3"
               inkscape:connector-curvature="0"
               id="path20583"
               d="m 1691.4759,-8466.4447 -0.7442,-0.031 0.01,-0.2666 c 0.051,-1.3588 0.083,-2.179 1.1599,-3.4842 0.8075,-0.9781 0.45,-2.1566 -0.3367,-3.6234 -0.3181,-0.5952 -0.7151,-1.1755 -1.1003,-1.738 -0.4872,-0.7144 -0.9915,-1.4511 -1.3662,-2.2542 l 0.6749,-0.3158 c 0.3494,0.7486 0.8358,1.4601 1.3066,2.1491 0.3956,0.5781 0.8046,1.1763 1.1421,1.8065 0.54,1.0087 1.545,2.8852 0.254,4.4504 -0.9171,1.1107 -0.9401,1.7148 -0.9908,3.0379 l -0.01,0.2689 z" />
            <path
               style="fill:#b3b3b3"
               inkscape:connector-curvature="0"
               id="path20585"
               d="m 1756.2008,-8491.7499 c -0.5714,-0.6555 -1.2262,-1.2798 -2.0628,-1.9659 -1.066,-0.8753 -1.9011,-1.5376 -2.9395,-2.0955 l -0.3516,-0.1885 c -2.0233,-1.0809 -3.6205,-1.9354 -4.4817,-4.4615 -0.7769,-2.2803 -0.806,-4.7856 -0.7315,-6.9355 0.063,-1.8117 0.7703,-3.1526 1.4899,-4.3713 0.403,-0.6832 0.8001,-1.3559 1.3908,-1.8892 1.0199,-0.9193 2.2244,-1.3618 3.3895,-1.7887 0.4984,-0.1832 1.0139,-0.3724 1.5056,-0.5967 0.8917,-0.406 1.4519,-1.0578 1.6642,-1.9368 0.3486,-1.443 -0.327,-3.1392 -1.1524,-4.1814 l -0.095,-0.12 c -0.8358,-1.0556 -1.6992,-2.1469 -2.3302,-3.3314 -0.4536,-0.8515 -0.654,-1.8191 -0.8485,-2.7555 l -0.098,-0.4709 c -0.1952,-0.9036 -0.6019,-1.4861 -1.1643,-2.2914 l -0.2138,-0.304 c -0.4172,-0.59 -0.8895,-1.2589 -1.0303,-2.0031 l 0.7315,-0.1386 c 0.1103,0.5848 0.5148,1.1577 0.9066,1.7112 l 0.2161,0.3076 c 0.5669,0.8105 1.0563,1.5108 1.2828,2.5612 l 0.1,0.476 c 0.1833,0.885 0.3725,1.7998 0.7762,2.5567 0.599,1.1248 1.4423,2.1894 2.2565,3.2189 l 0.095,0.1207 c 1.142,1.4437 1.6494,3.3358 1.291,4.8183 -0.2644,1.0973 -0.984,1.9406 -2.0799,2.4397 -0.517,0.2354 -1.0459,0.4298 -1.5576,0.6176 -1.1488,0.4216 -2.2342,0.8201 -3.1475,1.6433 -0.5065,0.4559 -0.8566,1.0511 -1.2284,1.6806 -0.8589,1.4549 -1.3543,2.5686 -1.4064,4.0518 -0.072,2.0821 -0.046,4.5032 0.6928,6.6695 0.765,2.2475 2.1022,2.9627 4.127,4.0444 l 0.3523,0.1892 c 1.1838,0.6362 2.1812,1.4541 3.0603,2.176 0.8679,0.7129 1.5517,1.3647 2.1514,2.0516 l -0.5602,0.4916 z" />
            <path
               style="fill:#b3b3b3"
               inkscape:connector-curvature="0"
               d="m 1727.3951,-8466.4444 -0.7434,-0.033 c 0.04,-0.8999 -0.1118,-1.9093 -0.4649,-3.0856 -1.8043,-5.999 -4.53,-15.0658 -1.5949,-22.4557 1.2098,-3.0461 4.5605,-6.0862 8.3769,-5.7443 4.1188,0.3769 5.3495,4.1479 6.3388,7.1791 l 0.1356,0.4149 c 0.9297,2.8219 2.8598,3.8581 5.0947,5.0582 0.7568,0.406 1.5383,0.8254 2.3354,1.3394 1.9726,1.2702 3.2785,3.3121 4.5412,5.2869 0.6787,1.0608 1.3804,2.1574 2.1782,3.1273 1.069,1.2955 2.1179,2.6938 3.1884,4.1315 l -0.5982,0.4455 c -1.0645,-1.4303 -2.1074,-2.8204 -3.1653,-4.1032 -0.8269,-1.0042 -1.5405,-2.1209 -2.2303,-3.2003 -1.2761,-1.995 -2.4807,-3.8789 -4.317,-5.0619 -0.7725,-0.4969 -1.5406,-0.9096 -2.2848,-1.3089 -2.2765,-1.2225 -4.4265,-2.3764 -5.4485,-5.4813 l -0.1371,-0.4172 c -0.9692,-2.9694 -2.0672,-6.335 -5.6981,-6.6673 -3.4506,-0.3159 -6.5057,2.4829 -7.6164,5.2772 -2.8397,7.1493 -0.1587,16.0656 1.6151,21.9663 0.3769,1.2575 0.5393,2.3474 0.4946,3.3329 z"
               id="path20587" />
            <path
               style="fill:#b3b3b3"
               inkscape:connector-curvature="0"
               d="m 1753.3849,-8466.3624 c -0.067,-0.2466 -0.1289,-0.4947 -0.19,-0.742 -0.062,-0.2503 -0.1236,-0.4991 -0.1914,-0.7427 -0.3136,-1.1398 -0.6005,-2.0963 -1.186,-3.1534 -0.4037,-0.7293 -0.7434,-1.5465 -1.072,-2.3369 -0.6116,-1.472 -1.2448,-2.9939 -2.3212,-4.051 -0.637,-0.625 -1.4326,-1.0936 -2.2744,-1.5897 -0.5676,-0.3345 -1.1546,-0.6802 -1.6865,-1.078 -0.4485,-0.3352 -0.8746,-0.7047 -1.2873,-1.0623 -0.6116,-0.5296 -1.2441,-1.0772 -1.9398,-1.5025 -1.2165,-0.745 -2.4412,-1.262 -3.7382,-1.8095 -1.3036,-0.5505 -1.4526,-1.3811 -1.5972,-2.1827 -0.068,-0.3799 -0.1385,-0.7725 -0.3322,-1.1785 -0.6049,-1.2649 -1.4519,-1.8035 -2.8189,-1.7983 -2.8196,0.01 -4.9226,1.8735 -5.234,4.6403 -0.3918,3.4915 -0.4708,6.627 -0.2332,9.3185 0.12,1.3655 0.6191,2.4673 1.1465,3.6339 0.1818,0.4023 0.3673,0.8127 0.5438,1.2455 0.6153,1.5101 0.5386,3.1974 0.3643,4.3461 l -0.736,-0.1103 c 0.1594,-1.0571 0.2332,-2.6006 -0.3181,-3.9549 -0.1728,-0.4231 -0.3553,-0.8247 -0.5334,-1.2195 -0.5542,-1.2262 -1.0787,-2.3838 -1.2098,-3.8752 -0.2413,-2.7414 -0.1624,-5.9268 0.2347,-9.4668 0.3561,-3.1616 2.7555,-5.2921 5.9722,-5.3018 0.01,0 0.013,0 0.019,0 1.6463,0 2.7503,0.7062 3.4744,2.2214 0.2369,0.4969 0.3204,0.9595 0.3934,1.3685 0.1341,0.7427 0.222,1.2336 1.1532,1.6277 1.2649,0.5341 2.573,1.0869 3.8364,1.8601 0.748,0.4567 1.4043,1.0258 2.0382,1.5748 0.4023,0.3487 0.8195,0.7092 1.2463,1.0288 0.4984,0.3732 1.0683,0.7085 1.618,1.0333 0.8433,0.4968 1.7157,1.0101 2.4182,1.6999 1.1837,1.1629 1.8467,2.7549 2.4873,4.2962 0.3353,0.8067 0.6526,1.5681 1.0363,2.2616 0.6257,1.1294 0.9252,2.1276 1.253,3.3165 0.068,0.2503 0.1318,0.5051 0.1959,0.7614 0.06,0.2413 0.1199,0.4834 0.1855,0.7248 l -0.7174,0.1967 z"
               id="path20589" />
            <path
               style="fill:#b3b3b3"
               sodipodi:nodetypes="ccccccccccccccccccccc"
               inkscape:connector-curvature="0"
               d="m 1731.5676,-8466.4548 -0.745,-0.012 c 0.013,-0.809 -0.019,-1.6359 -0.049,-2.4367 -0.028,-0.7092 -0.054,-1.4177 -0.053,-2.1239 0,-0.4648 0.011,-0.9289 0.021,-1.3938 0.018,-0.8887 0.038,-1.8087 -0.01,-2.7056 -0.016,-0.3248 -0.011,-0.6712 0,-1.0251 0.012,-0.6779 0.024,-1.3804 -0.1326,-1.9473 -0.069,-0.2488 -0.219,-0.5773 -0.3799,-0.9245 -0.4202,-0.9148 -0.8977,-1.9502 -0.4909,-2.7451 0.2167,-0.4231 0.6525,-0.701 1.2947,-0.8262 1.7797,-0.3449 3.9728,-0.025 5.8836,0.333 1.1226,0.2109 1.6225,0.4276 2.3674,1.2962 0.5587,0.6519 1.2501,1.1353 1.9809,1.6479 0.4499,0.3151 0.914,0.6399 1.3461,1.0086 1.0288,0.8776 2.0136,1.8952 2.9261,3.0253 0.3114,0.3859 0.6228,0.7598 0.9305,1.1286 1.5592,1.8705 3.0312,3.6368 3.7739,6.1011 0.1579,0.5252 0.2406,1.0601 0.2451,1.5897 -18.6752,0.09 -11.3963,0.1147 -18.6752,0.09 z"
               id="path20591" />
            <path
               style="fill:#b3b3b3"
               sodipodi:nodetypes="ccccccccccccccc"
               inkscape:connector-curvature="0"
               d="m 1734.177,-8466.515 c 0.1393,-0.2794 0.1172,-0.6684 0.261,-0.9507 0.3345,-0.6548 0.6801,-1.3312 0.9908,-2.0479 0.4075,-0.9378 0.3933,-1.9756 0.3799,-3.0751 -0.01,-0.5833 -0.016,-1.1882 0.046,-1.773 0.078,-0.733 0.2481,-1.6657 0.8775,-2.3786 0.7636,-0.8634 1.5682,-0.9044 2.1075,-0.7859 0.9982,0.219 1.9421,1.1949 2.2959,2.3726 0.1766,0.5856 0.2973,1.1733 0.4142,1.741 l 0.087,0.4194 c 0.1348,0.6392 0.2227,1.3022 0.3077,1.9421 0.085,0.6362 0.172,1.2947 0.3054,1.9242 0.184,0.8701 0.6138,1.6083 1.2105,2.0791 0.1244,0.098 0.2585,0.187 0.3949,0.2727 -5.5972,1.0223 -5.8867,0.2651 -9.6783,0.2601 z"
               id="path20593" />
            <path
               style="fill:#b3b3b3"
               sodipodi:nodetypes="cccccc"
               inkscape:connector-curvature="0"
               d="m 1736.8776,-8467.0334 c 0.1192,-0.8492 0.324,-0.9277 0.6429,-1.3657 0.3486,-0.4783 1.0973,-0.7792 1.7707,-0.7263 0.5341,0.045 0.9431,0.2987 1.1495,0.7151 0.2367,0.559 0.2642,1.1193 0.3348,1.6843 -1.7312,-0.6457 -3.4501,-0.2563 -3.8979,-0.3074 z"
               id="path20595" />
            <path
               style="fill:#b3b3b3"
               inkscape:connector-curvature="0"
               d="m 1756.2142,-8523.9656 0.2674,-0.2592 -0.3128,0.2123 -0.093,-0.096 c -1.1137,-1.148 -1.4012,-2.4084 -0.9594,-4.2149 0.2056,-0.8426 0.6376,-1.4676 1.0734,-2.0166 l 0.5833,0.4633 c -0.4432,0.558 -0.771,1.0661 -0.9341,1.7306 -0.3777,1.5457 -0.1535,2.5663 0.7717,3.5206 l 0.092,0.095 -0.2205,0.3062 -0.2674,0.2592 z"
               id="path20597" />
            <path
               style="fill:#b3b3b3"
               inkscape:connector-curvature="0"
               d="m 1756.2217,-8496.1246 c -0.298,-0.2906 -0.593,-0.5841 -0.8873,-0.8791 -0.6876,-0.6875 -1.399,-1.3975 -2.1529,-2.0441 -1.0161,-0.8708 -2.2818,-1.9555 -2.3399,-3.7687 -0.054,-1.7238 0.8873,-2.2862 2.0323,-2.7965 1.2343,-0.5498 1.9532,-1.5361 2.0769,-2.8502 0.039,-0.4105 0.016,-0.8828 -0.01,-1.3819 -0.054,-1.1219 -0.1169,-2.3943 0.564,-3.2994 0.1944,-0.2585 0.4328,-0.4909 0.7516,-0.73 l 0.4485,0.5952 c -0.2615,0.1967 -0.453,0.3814 -0.6049,0.5825 -0.5185,0.6899 -0.4656,1.77 -0.415,2.8152 0.025,0.5274 0.05,1.0251 0.01,1.4884 -0.1512,1.5987 -1.0205,2.7951 -2.5164,3.461 -1.1517,0.5133 -1.6277,0.9178 -1.5897,2.0926 0.044,1.3759 0.9274,2.2401 2.0791,3.2271 0.7755,0.6653 1.4974,1.3856 2.1947,2.0829 0.2927,0.292 0.584,0.5833 0.8805,0.8716 l -0.5192,0.5334 z"
               id="path20599" />
            <path
               style="fill:#b3b3b3"
               id="path20601"
               d="m 1689.8072,-8494.2652 -0.7412,-0.07 c 0.031,-0.3225 0.052,-0.6555 0.069,-1.0108 0.048,-0.9648 0.9923,-1.4125 1.8266,-1.8065 0.7003,-0.3316 1.3618,-0.6444 1.4348,-1.157 0.019,-0.075 0.4678,-1.542 -0.2861,-2.8792 -0.5393,-0.9558 -0.6138,-1.6687 -0.6675,-2.1886 -0.032,-0.3137 -0.056,-0.5401 -0.1668,-0.7063 -0.158,-0.2383 -0.7137,-0.6913 -1.1607,-1.0555 -0.3814,-0.3099 -0.7412,-0.6027 -0.9513,-0.8284 l 0.5439,-0.5088 c 0.1765,0.1884 0.5326,0.479 0.8768,0.7598 0.5609,0.4567 1.0906,0.888 1.3111,1.221 0.2123,0.3188 0.248,0.6697 0.2868,1.0414 0.05,0.4805 0.1125,1.0787 0.5758,1.8996 0.9178,1.6278 0.3844,3.3404 0.3606,3.4127 -0.1162,0.847 -1.0318,1.2805 -1.8393,1.6619 -0.8314,0.3934 -1.3774,0.6876 -1.4013,1.1696 -0.018,0.368 -0.04,0.7122 -0.072,1.0452 z"
               inkscape:connector-curvature="0" />
            <path
               inkscape:connector-curvature="0"
               d="m 1702.0073,-8486.344 c -0.558,0 -1.0206,-0.2727 -1.3074,-0.7703 -0.5349,-0.9297 -0.065,-1.9719 0.1609,-2.4732 0.1341,-0.2965 0.2011,-0.6079 0.2719,-0.9379 0.061,-0.2839 0.1244,-0.5766 0.2339,-0.8731 0.2659,-0.7196 1.0034,-1.5361 1.8445,-1.6322 0.5423,-0.056 1.0183,0.1877 1.3543,0.7003 0.7919,1.2075 0.441,3.3366 -0.1169,4.4108 l 0,0 c -0.3867,0.7442 -1.4445,1.5547 -2.404,1.5748 -0.012,8e-4 -0.025,8e-4 -0.037,8e-4 z"
               id="path20605"
               sodipodi:nodetypes="scccccccccs"
               style="fill:#b3b3b3" />
          </g>
        </g>
        <g
           style="fill:#b3b3b3"
           id="g20483"
           transform="matrix(1.3459282,0,0,1.3459282,-2024.6934,12444.158)">
          <g
             style="fill:#b3b3b3"
             id="g20485">
            <path
               inkscape:connector-curvature="0"
               d="m 1716.355,-8497.3813 c -0.037,0 -0.074,0 -0.1088,0 -0.4693,-0.035 -0.7859,-0.3002 -0.8671,-0.7278 -0.2444,-1.2835 0.2108,-2.4084 0.6503,-3.4968 0.3323,-0.8224 0.6466,-1.5986 0.6682,-2.4255 0.016,-0.6228 -0.3389,-1.3774 -0.6823,-2.1067 -0.4261,-0.9052 -0.8671,-1.8408 -0.669,-2.6744 l 0,0 c 0.1982,-0.8344 0.7569,-1.3946 1.6158,-1.6188 1.8668,-0.4917 4.9956,0.7733 6.8275,2.7578 1.3148,1.4236 1.7647,2.991 1.2679,4.4131 -0.4731,1.3558 -6.4952,5.8829 -8.7025,5.8829 z"
               id="path20487"
               sodipodi:nodetypes="sccccccccccs"
               style="fill:#b3b3b3;fill-opacity:1" />
            <path
               inkscape:connector-curvature="0"
               d="m 1719.6216,-8500.4282 c -0.4254,0 -0.7182,-0.1691 -0.9141,-0.365 l 0,0 c -0.086,-0.086 -0.1631,-0.1863 -0.2287,-0.2995 -0.3918,-0.6697 0.031,-1.4243 0.3405,-1.9756 0.095,-0.1691 0.1847,-0.327 0.2406,-0.4678 0.1706,-0.4284 0.1266,-0.9513 0.085,-1.4564 -0.072,-0.8731 -0.1549,-1.8639 0.9208,-2.3823 0.7308,-0.3531 1.5636,-0.3256 2.2847,0.076 0.7167,0.3986 1.1949,1.1078 1.2791,1.8959 0.1907,1.7954 -1.1532,3.6391 -2.5149,4.463 -0.6228,0.3755 -1.1115,0.5118 -1.4929,0.5118 z"
               id="path20489"
               style="fill:#b3b3b3;fill-opacity:1"
               sodipodi:nodetypes="cccccccccccsc" />
            <path
               style="fill:#b3b3b3;fill-opacity:1"
               d="m 1708.5017,-8519.411 c -0.102,0 -0.2019,0 -0.298,-0.01 -1.3722,-0.066 -2.4434,-0.1706 -3.7374,-0.917 -0.3523,-0.2034 -0.6429,-0.4351 -0.9237,-0.6585 -0.2391,-0.1908 -0.4656,-0.371 -0.7263,-0.5334 -0.4485,-0.2794 -0.8381,-0.3479 -1.3767,-0.4433 l -0.3285,-0.06 c -0.6943,-0.1318 -1.2001,-0.2503 -1.8713,-0.6816 -0.1304,-0.084 -0.2943,-0.1706 -0.4671,-0.263 -0.4202,-0.2235 -0.8969,-0.4775 -1.1889,-0.8127 -0.932,-1.0705 0.08,-2.2013 0.7494,-2.9493 0.1631,-0.1825 0.3196,-0.356 0.441,-0.5177 0.3851,-0.5118 0.7196,-1.0802 1.0735,-1.6828 0.8276,-1.408 1.6835,-2.8629 3.233,-3.5795 1.1145,-0.5155 2.3839,-0.6615 3.4849,-0.4023 1.1256,0.266 2.9619,1.0891 3.9654,1.9562 0.663,0.5737 0.9393,1.3998 1.206,2.1999 0.155,0.4641 0.3017,0.9029 0.5155,1.2686 l 0,0 c 0.1893,0.3248 0.5751,0.5721 0.9849,0.8336 0.5929,0.3792 1.2649,0.809 1.4079,1.5957 0.1542,0.85 -0.4708,1.5286 -0.9729,2.0732 -0.1073,0.117 -0.2123,0.2302 -0.3062,0.3412 -0.2488,0.2965 -0.4395,0.6123 -0.6406,0.9476 -0.1736,0.2875 -0.3524,0.5847 -0.5751,0.8775 -0.8023,1.0519 -2.4017,1.4139 -3.6488,1.4139 z"
               id="path20491"
               inkscape:connector-curvature="0" />
            <path
               style="fill:#b3b3b3;fill-opacity:1"
               d="m 1705.4474,-8532.2993 c -0.6853,0 -1.399,0.1564 -2.0538,0.4596 -1.3379,0.619 -2.0985,1.9115 -2.9031,3.2808 -0.3493,0.5937 -0.7106,1.2083 -1.1204,1.7536 -0.1326,0.1765 -0.3024,0.3672 -0.4812,0.5669 -0.7509,0.8388 -1.2083,1.4288 -0.7427,1.9637 0.2019,0.2316 0.6138,0.4506 0.9774,0.6443 0.1929,0.1028 0.3739,0.2004 0.5192,0.2935 0.5408,0.3472 0.923,0.447 1.6083,0.5766 l 0.3189,0.058 c 0.5743,0.1014 1.0705,0.1885 1.6418,0.5446 0.2965,0.1847 0.5506,0.3874 0.7956,0.5825 0.272,0.2161 0.5275,0.4202 0.8322,0.596 1.1509,0.6645 2.094,0.7554 3.3999,0.8187 1.1852,0.058 2.6699,-0.2652 3.318,-1.1137 0.1982,-0.2607 0.3591,-0.5274 0.5297,-0.8105 0.2071,-0.3449 0.4223,-0.701 0.7084,-1.0422 0.1006,-0.1199 0.2131,-0.2421 0.3278,-0.3672 0.4306,-0.4671 0.8753,-0.9506 0.7874,-1.4356 -0.084,-0.4663 -0.5662,-0.7747 -1.0757,-1.101 -0.4656,-0.298 -0.9476,-0.6056 -1.2269,-1.0861 -0.2518,-0.4328 -0.418,-0.929 -0.5781,-1.408 -0.2466,-0.7367 -0.479,-1.4325 -0.9871,-1.872 -0.8887,-0.7688 -2.6051,-1.5488 -3.6487,-1.7954 -0.3032,-0.072 -0.6221,-0.1072 -0.9469,-0.1072 z"
               id="path20493"
               inkscape:connector-curvature="0" />
            <path
               style="fill:#b3b3b3;fill-opacity:1"
               d="m 1707.5594,-8520.2751 c -0.2362,0 -0.4768,-0.025 -0.7197,-0.081 -1.0906,-0.2526 -2.5283,-0.9051 -3.28,-1.7946 -0.5378,-0.6369 -0.6116,-1.3536 -0.6831,-2.0479 -0.024,-0.2294 -0.047,-0.4618 -0.09,-0.692 -0.1386,-0.7494 -0.482,-1.2448 -0.9171,-1.8728 l -0.1475,-0.2138 c -0.3054,-0.4455 -0.4097,-0.8709 -0.3106,-1.2635 0.1535,-0.6071 0.7539,-0.984 1.2597,-1.244 0.1848,-0.095 0.3829,-0.2049 0.5915,-0.3211 0.7554,-0.4187 1.6106,-0.8939 2.4904,-1.0668 0.619,-0.1206 1.1785,-0.072 1.6605,0.1498 0.2033,0.093 0.359,0.2361 0.4968,0.362 0.1378,0.1259 0.2563,0.2347 0.3911,0.2719 0.2205,0.06 0.4172,0.099 0.596,0.1356 0.6362,0.1289 1.1845,0.2399 1.7506,1.0422 0.6965,0.987 1.0713,2.0672 1.0839,3.1228 l 0.01,0.3807 c 0.029,1.3074 0.065,2.9343 -1.0266,3.8313 l 0,0 c -0.5162,0.4261 -1.7528,1.3014 -3.1533,1.3014 z"
               id="path20495"
               inkscape:connector-curvature="0" />
            <path
               sodipodi:nodetypes="scccccccccccsccsccccccccs"
               inkscape:connector-curvature="0"
               style="fill:#b3b3b3"
               id="path20497"
               d="m 1741.3055,-8527.7254 c -0.9043,0 -1.2395,0.9722 -1.574,2.2304 l -0.149,0.5491 c -0.7137,2.5872 -1.522,4.2399 -4.0354,5.7715 -0.2838,0.1729 -0.5535,0.3524 -0.8187,0.5275 -0.882,0.5848 -1.7149,2.4161 -2.842,2.6329 -0.4455,0.086 -0.8962,0.1683 -1.3513,0.251 -0.7837,0.1431 -1.5778,0.2891 -2.3682,0.4552 -0.8597,0.181 -1.4139,0.4932 -1.5614,0.8783 -0.117,0.3062 0.01,0.7107 0.3657,1.2023 0.5632,0.7696 1.4445,1.2642 2.2975,1.7432 0.3121,0.1751 0.6205,0.3487 0.9133,0.5334 1.8266,1.1532 2.5753,3.0305 3.3001,4.8466 0.4581,1.148 0.9319,2.3347 1.6731,3.2957 0.3748,0.485 0.8195,0.7449 1.2858,0.7524 l 0.019,0 c 0.4551,0 0.9103,-0.2488 1.2835,-0.7032 0.9021,-1.0988 0.926,-2.4673 0.8641,-4.142 -0.1028,-2.7682 0.3278,-5.9595 1.1823,-8.7546 0.3114,-1.0191 0.7986,-1.9331 1.2694,-2.8174 0.1646,-0.3077 0.3285,-0.6168 0.4879,-0.9327 0.6146,-1.2232 0.923,-2.7242 1.1867,-4.1575 0.2153,-1.1636 0.1378,-2.2088 -0.2309,-3.1079 -0.2682,-0.6578 -0.4425,-0.9543 -0.9774,-1.0378 -0.077,-0.01 -0.1497,-0.016 -0.2198,-0.016 z" />
            <path
               inkscape:connector-curvature="0"
               style="fill:#b3b3b3"
               id="path20499"
               d="m 1735.3534,-8508.3574 c -1.431,0 -3.1079,-1.2739 -3.4975,-2.48 l 0,0 c -0.3397,-1.0533 0.027,-2.2862 0.2019,-2.7674 0.5579,-1.5406 1.9726,-2.5262 3.2211,-3.3955 l 0.5177,-0.3673 c 0.6988,-0.5125 1.7551,-1.288 2.5582,-0.8872 0.3628,0.181 0.5758,0.4969 0.6161,0.9133 0.065,0.692 -0.3583,1.5413 -0.6988,2.2229 -0.1259,0.2518 -0.2443,0.4894 -0.286,0.6235 -0.2764,0.8955 -0.4433,2.0576 -0.5342,2.8748 -0.014,0.1237 -0.025,0.2548 -0.037,0.3918 -0.091,1.0445 -0.2153,2.4755 -1.5391,2.8092 -0.1691,0.042 -0.3442,0.062 -0.5222,0.062 z" />
            <path
               d="m 1707.2934,-8516.6066 c -0.6518,0 -1.3245,-0.111 -2.0151,-0.3672 -1.0906,-0.4053 -1.7655,-1.1793 -2.4173,-1.9272 -0.7465,-0.8567 -1.4527,-1.6665 -2.7563,-1.8617 -0.1624,-0.024 -0.3353,-0.047 -0.5163,-0.072 -1.7015,-0.2264 -4.273,-0.5699 -4.4146,-2.8621 -0.095,-1.5487 0.9476,-2.8792 1.8676,-4.0532 0.3651,-0.4656 0.71,-0.9051 0.9692,-1.3335 l 0.1266,-0.2093 c 1.0325,-1.706 2.1008,-3.47 3.7397,-4.5271 9.0753,0.474 9.1111,0.573 9.7171,1.4475 0.4306,0.4231 0.8098,0.9207 1.1778,1.402 0.1154,0.1504 0.2294,0.3002 0.3426,0.4439 0.1773,0.2258 0.3464,0.4708 0.517,0.7204 0.4485,0.6533 0.9119,1.3297 1.5838,1.6463 0.2168,0.1021 0.4388,0.2153 0.66,0.3278 0.2943,0.1498 0.587,0.2995 0.8634,0.4194 0.2146,0.093 0.5319,0.1617 0.8686,0.2339 0.9603,0.2071 2.2751,0.4917 2.3965,1.7462 0.1319,1.3633 -1.5398,2.3943 -2.6468,3.0766 -0.1944,0.12 -0.3724,0.2295 -0.5192,0.3278 -1.3707,0.92 -2.4926,1.7127 -3.5132,2.5939 -1.4929,1.2918 -3.607,2.8271 -6.0311,2.8271 z"
               id="path20501"
               inkscape:connector-curvature="0"
               sodipodi:nodetypes="cccccccccccccccccccccccc"
               style="fill:#b3b3b3;fill-opacity:1" />
            <path
               style="fill:#b3b3b3;fill-opacity:1"
               sodipodi:nodetypes="sccccccccccccs"
               id="path20503"
               d="m 1707.3672,-8522.3595 c -0.6124,0 -1.227,-0.3054 -1.7767,-0.9014 -0.5513,-0.5974 -1.1108,-1.2478 -1.3693,-2.0389 -0.1944,-0.5945 -0.14,-1.3029 0.1416,-1.8482 0.2302,-0.4448 0.59,-0.7539 1.0407,-0.8947 0.59,-0.1847 1.069,0.061 1.4526,0.2578 0.2451,0.1251 0.4761,0.2443 0.71,0.2503 0.1281,0 0.2518,0 0.3672,0 0.5721,-0.02 1.3633,-0.044 1.4229,1.2761 0.012,0.2541 0.066,0.5193 0.1192,0.7763 0.034,0.1653 0.067,0.3285 0.091,0.4887 0.1363,0.9244 -0.3085,1.8176 -1.1592,2.3324 l 0,0 c -0.3374,0.2048 -0.6883,0.3054 -1.0399,0.3054 z"
               inkscape:connector-curvature="0" />
            <path
               id="path20505"
               d="m 1699.0692,-8481.3278 c -0.6392,0 -1.0578,-0.2525 -1.3119,-0.4932 -0.9617,-0.9103 -0.8045,-2.6907 -0.733,-3.2152 0.1706,-1.253 0.9461,-1.7506 1.6299,-2.1886 0.5029,-0.3226 0.9782,-0.6273 1.2419,-1.2217 0.3233,-0.7293 0.2197,-1.8289 0.1288,-2.7995 -0.044,-0.4679 -0.085,-0.9104 -0.084,-1.3119 l 0,-0.2086 c 0,-2.4918 0.012,-8.3278 3.5876,-8.5289 0.8746,-0.054 1.3819,0.3106 1.6523,0.6213 0.7822,0.8991 0.59,2.3965 0.4708,2.9984 -0.09,0.4544 -0.2406,0.9208 -0.3866,1.3722 -0.2711,0.8388 -0.552,1.7059 -0.441,2.5023 0.068,0.4887 0.3039,0.9595 0.5543,1.4578 0.2324,0.4641 0.4737,0.9446 0.5922,1.4743 l 0,0 c 0.2793,1.2426 0.3166,2.5336 0.3173,3.5199 0,2.1708 -0.6838,4.7684 -2.6267,4.9487 -0.3255,0.028 -0.6332,7e-4 -0.9304,-0.027 -0.4142,-0.037 -0.8068,-0.075 -1.1845,0.063 -0.2577,0.094 -0.4916,0.248 -0.7397,0.4119 -0.3568,0.2354 -0.7271,0.4798 -1.2076,0.5729 -0.1914,0.035 -0.368,0.051 -0.5296,0.051 z"
               inkscape:connector-curvature="0"
               sodipodi:nodetypes="scccccccccccccccccccccs"
               style="fill:#b3b3b3" />
            <path
               inkscape:connector-curvature="0"
               d="m 1704.7196,-8468.861 c -1.7379,0 -3.4878,-0.6064 -4.5688,-1.0697 -1.6627,-0.7107 -3.0714,-1.7089 -4.3073,-3.0506 -0.1884,-0.2041 -0.3829,-0.4075 -0.5773,-0.6109 -0.9923,-1.0362 -2.0173,-2.1074 -2.4665,-3.5541 -0.1281,-0.4134 -0.2704,-0.818 -0.412,-1.2195 -0.3888,-1.1085 -0.7911,-2.2542 -0.8678,-3.5243 -0.057,-0.9402 0.088,-1.8624 0.2279,-2.7541 0.1334,-0.8507 0.2593,-1.6538 0.2235,-2.4643 -0.068,-1.5376 0.2674,-2.4382 0.8202,-3.7799 l 0.3017,-0.7248 c 0.4023,-0.9595 0.818,-1.951 1.1241,-2.9485 0.6593,-2.141 1.2173,-4.247 0.809,-6.4811 -0.362,-1.9793 -1.3371,-4.016 -2.8993,-6.0527 -0.8552,-1.1152 -1.878,-1.9957 -2.8569,-2.7816 l 0.1661,-0.3494 0.2354,-0.289 0.046,0.04 c 1.0355,0.8328 2.0986,1.7491 3.0022,2.9269 1.6344,2.1313 2.6572,4.2745 3.0409,6.3715 0.4387,2.3995 -0.1423,4.6023 -0.8299,6.8349 -0.3174,1.0318 -0.7405,2.0405 -1.1495,3.0171 l -0.3002,0.7204 c -0.5289,1.285 -0.8261,2.0791 -0.765,3.4625 0.039,0.8857 -0.099,1.764 -0.2325,2.6133 -0.14,0.8917 -0.2719,1.7342 -0.2205,2.5931 0.07,1.1666 0.4381,2.214 0.8284,3.3225 0.1438,0.4105 0.289,0.8232 0.4202,1.2455 0.397,1.2806 1.361,2.287 2.2929,3.2607 0.1982,0.2071 0.3956,0.4134 0.587,0.6213 1.1629,1.2627 2.4882,2.2013 4.0526,2.8703 1.1725,0.5028 4.13,1.5696 6.2575,0.6339 1.8684,-0.8224 2.7079,-3.2122 2.8711,-5.1751 0.175,-2.1082 -0.2071,-4.0734 -0.6116,-6.1541 -0.2206,-1.1368 -0.4492,-2.3123 -0.5751,-3.5042 -0.1803,-1.6977 -0.072,-3.6838 0.3046,-5.5931 0.1624,-0.8246 0.3911,-1.6903 0.7189,-2.7213 0.111,-0.3494 0.2578,-0.6809 0.4001,-1.0027 0.1616,-0.3635 0.3136,-0.7084 0.4134,-1.069 0.086,-0.3091 0.117,-0.6019 0.1505,-0.9118 0.044,-0.4097 0.089,-0.8336 0.2652,-1.2962 l 0.1438,-0.3762 c 0.6443,-1.6821 1.3111,-3.4216 1.3923,-5.243 0.062,-1.393 0.084,-2.8635 -0.3747,-4.1896 -0.4552,-1.314 -1.3514,-1.907 -2.4874,-2.6564 l -0.4455,-0.2973 c -0.5677,-0.3836 -1.1994,-0.7136 -1.811,-1.0332 l -0.2808,-0.1475 c -0.5751,-0.3025 -1.1249,-0.6474 -1.656,-0.9811 -0.4016,-0.2518 -0.8038,-0.5043 -1.2195,-0.7405 -0.2295,-0.1304 -0.4649,-0.2466 -0.6988,-0.3628 -0.2861,-0.1415 -0.5714,-0.2831 -0.8448,-0.4462 -1.7677,-1.0526 -3.2442,-2.2937 -4.8086,-3.6078 l -0.2391,-0.2011 c -0.5051,-0.4239 -0.9849,-0.8791 -1.449,-1.3193 -0.3099,-0.2943 -0.6205,-0.5893 -0.9393,-0.8761 -0.2086,-0.1877 -0.4247,-0.3628 -0.6385,-0.5379 -0.5833,-0.4745 -1.1859,-0.9654 -1.6247,-1.6753 -1.2977,-2.1001 -0.061,-3.9699 1.0303,-5.6192 0.3687,-0.5572 0.7494,-1.1331 1.0228,-1.6955 0.7807,-1.6098 1.9503,-2.9411 2.9917,-4.0309 0.1222,-0.1274 0.2481,-0.2414 0.3777,-0.3479 l 0.4738,0.5743 c -0.1073,0.089 -0.2123,0.1826 -0.3129,0.2876 -1.0005,1.0474 -2.1231,2.3235 -2.8599,3.841 -0.2942,0.6063 -0.6898,1.2038 -1.0712,1.7811 -1.0623,1.6054 -2.065,3.1214 -1.0183,4.8161 0.3732,0.6034 0.9013,1.034 1.4615,1.4892 0.2235,0.1825 0.4492,0.3657 0.6668,0.5617 0.324,0.2912 0.6391,0.5907 0.9543,0.8894 0.4559,0.4336 0.9274,0.8806 1.4146,1.2895 l 0.2399,0.2012 c 1.5398,1.294 2.9947,2.5164 4.7103,3.5377 0.257,0.1528 0.5252,0.2854 0.7941,0.4187 0.2466,0.1222 0.4939,0.2451 0.736,0.3829 0.4246,0.2414 0.8366,0.4991 1.2471,0.7576 0.5192,0.3263 1.0563,0.663 1.6068,0.9528 l 0.2794,0.146 c 0.6295,0.3285 1.2805,0.669 1.8825,1.0765 l 0.4387,0.2927 c 1.1532,0.7621 2.2431,1.4817 2.7809,3.035 0.5021,1.4504 0.4805,3.0014 0.415,4.4667 -0.086,1.9413 -0.7755,3.7381 -1.4415,5.4761 l -0.143,0.3747 c -0.1423,0.3732 -0.1803,0.7308 -0.2213,1.1107 -0.035,0.3263 -0.071,0.6638 -0.1728,1.0318 -0.1147,0.4127 -0.2853,0.7978 -0.45,1.171 -0.14,0.3166 -0.2726,0.6154 -0.3709,0.926 -0.3234,1.0183 -0.5386,1.8326 -0.6981,2.6401 -0.3628,1.8378 -0.4678,3.7449 -0.295,5.3703 0.123,1.1607 0.3479,2.3191 0.5662,3.4402 0.3963,2.0389 0.806,4.1471 0.622,6.3574 -0.1803,2.1767 -1.1464,4.8429 -3.3135,5.7965 -0.7166,0.3166 -1.4981,0.4402 -2.2818,0.4402 z"
               id="path20507"
               style="fill:#b3b3b3" />
            <path
               inkscape:connector-curvature="0"
               d="m 1705.7119,-8472.9426 c -0.7837,0 -1.5853,-0.2696 -2.1842,-0.5974 -0.7911,-0.4321 -1.2217,-1.1413 -1.6374,-1.8274 -0.3397,-0.5594 -0.66,-1.0883 -1.1554,-1.4303 -0.5103,-0.3501 -1.0124,-0.2048 -1.7909,0.061 -0.6533,0.2242 -1.3938,0.4775 -2.1953,0.2272 -1.3141,-0.4089 -1.8423,-1.8415 -2.2662,-2.9924 -0.06,-0.1609 -0.1169,-0.3174 -0.1743,-0.4656 -0.5937,-1.5234 -1.063,-2.7265 -0.9915,-4.5688 0.064,-1.6597 0.3762,-3.1154 0.9558,-4.4511 0.5028,-1.1599 1.279,-1.6783 2.0292,-2.1797 0.3836,-0.2562 0.78,-0.5207 1.1591,-0.879 0.7711,-0.7293 1.18,-2.0233 0.9513,-3.0089 -0.3985,-1.7178 -0.4738,-3.0014 -0.2614,-4.4317 l 0.054,-0.3583 c 0.2637,-1.7551 0.5639,-3.7456 0.1527,-5.4188 -0.6183,-2.5119 -2.328,-5.8821 -4.4019,-7.4643 -1.0563,-0.8068 -2.4099,-1.1704 -3.7188,-1.5212 -0.3039,-0.081 -0.6064,-0.1632 -0.9051,-0.2488 l 0.2064,-0.7159 c 0.2942,0.085 0.5922,0.1653 0.8917,0.2458 1.3789,0.3702 2.8039,0.7531 3.9772,1.6486 2.2103,1.6873 4.0243,5.2407 4.6731,7.8785 0.4462,1.8162 0.1356,3.8835 -0.1393,5.7078 l -0.054,0.3569 c -0.1982,1.3312 -0.1252,2.5343 0.2503,4.1538 0.2875,1.2433 -0.2027,2.8077 -1.1659,3.7188 -0.4246,0.4015 -0.8485,0.6839 -1.2574,0.9573 -0.7212,0.4812 -1.3447,0.8976 -1.7596,1.8564 -0.5423,1.2492 -0.8351,2.6177 -0.8954,4.1829 -0.065,1.6865 0.3568,2.7697 0.9416,4.2685 0.06,0.1527 0.1192,0.3136 0.1795,0.479 0.3866,1.0489 0.8247,2.2393 1.7879,2.5381 0.5691,0.1758 1.1345,-0.016 1.7335,-0.2205 0.7561,-0.2585 1.612,-0.5498 2.4546,0.03 0.6272,0.4328 1.0042,1.0556 1.3692,1.6575 0.3814,0.6295 0.742,1.224 1.3573,1.5607 0.9148,0.4991 1.9384,0.6429 2.6066,0.3635 0.4365,-0.1818 0.736,-0.5423 0.8894,-1.0705 0.4619,-1.5919 0.1028,-3.5467 -0.2145,-5.2705 -0.068,-0.368 -0.1334,-0.7271 -0.19,-1.0712 -0.064,-0.3926 -0.1646,-0.7979 -0.2629,-1.1905 -0.1617,-0.6481 -0.3286,-1.3193 -0.3531,-2.0024 -0.027,-0.73 0.073,-1.4489 0.1706,-2.1447 0.045,-0.3248 0.091,-0.6488 0.1229,-0.9736 0.181,-1.8274 0.4328,-3.6309 0.7479,-5.3614 0.146,-0.8016 0.3337,-1.5674 0.5148,-2.3079 0.4633,-1.8944 0.9013,-3.683 0.5743,-5.7473 -0.043,-0.2704 -0.076,-0.5177 -0.1073,-0.7516 -0.1072,-0.8038 -0.184,-1.3849 -0.5609,-2.1678 -0.1535,-0.3196 -0.292,-0.6325 -0.4284,-0.9416 -0.3128,-0.7092 -0.6086,-1.3789 -1.0585,-2.0501 -0.4239,-0.634 -0.9178,-1.1398 -1.4408,-1.6754 l -0.33,-0.3397 c -0.2503,-0.26 -0.5207,-0.4887 -0.8067,-0.7316 -0.26,-0.2197 -0.5208,-0.4417 -0.7681,-0.6868 -0.1386,-0.1371 -0.2563,-0.263 -0.3665,-0.3807 -0.3263,-0.3486 -0.5416,-0.5788 -1.0027,-0.7919 -0.2965,-0.137 -0.5893,-0.292 -0.882,-0.4477 -0.3651,-0.1929 -0.742,-0.3933 -1.1174,-0.5497 -0.3755,-0.1565 -0.7539,-0.298 -1.1301,-0.4381 -1.2694,-0.4745 -2.5813,-0.9647 -3.6495,-2.0084 -1.1167,-1.0898 -1.7924,-2.4717 -2.3377,-3.6822 -0.1676,-0.3718 -0.3024,-0.8165 -0.4455,-1.2873 -0.2711,-0.8947 -0.5781,-1.9086 -1.1315,-2.3459 -0.2533,-0.2003 -0.5528,-0.1787 -1.0199,-0.1281 -0.1549,0.017 -0.3099,0.034 -0.4626,0.038 l -0.021,-0.7449 c 0.1334,0 0.2682,-0.019 0.4038,-0.034 0.4969,-0.053 1.0571,-0.1132 1.5614,0.2846 0.736,0.5818 1.0795,1.7149 1.3819,2.7139 0.1356,0.4469 0.2637,0.8693 0.4112,1.1963 0.5178,1.148 1.1562,2.4561 2.1797,3.4551 0.9565,0.9342 2.1388,1.3759 3.3903,1.8438 0.3844,0.1437 0.7718,0.2883 1.1562,0.4492 0.4074,0.1698 0.8,0.3777 1.1792,0.5788 0.2809,0.149 0.561,0.298 0.8455,0.4298 0.593,0.2749 0.8895,0.5915 1.2337,0.9595 0.1043,0.111 0.216,0.231 0.3464,0.3606 0.2331,0.2317 0.4797,0.4395 0.7248,0.6473 0.2883,0.2444 0.5863,0.4962 0.8626,0.7837 l 0.3263,0.3353 c 0.5476,0.5602 1.0646,1.0898 1.5272,1.7811 0.4857,0.7256 0.7941,1.4244 1.1211,2.1634 0.1334,0.3017 0.2682,0.6071 0.4187,0.9192 0.4283,0.8902 0.5207,1.5868 0.628,2.3928 0.03,0.228 0.062,0.4693 0.1043,0.7338 0.3508,2.2125 -0.1043,4.0719 -0.5863,6.0408 -0.1788,0.7293 -0.3635,1.4846 -0.5058,2.2646 -0.3114,1.7104 -0.5602,3.4938 -0.7398,5.3003 -0.033,0.3345 -0.08,0.669 -0.1258,1.0042 -0.097,0.6936 -0.1878,1.3491 -0.1639,2.0136 0.022,0.6064 0.1728,1.2113 0.3322,1.8505 0.1013,0.4067 0.2056,0.8269 0.2749,1.25 0.055,0.3389 0.1207,0.6928 0.187,1.0556 0.3322,1.8065 0.7084,3.8529 0.1974,5.6139 -0.216,0.745 -0.672,1.2813 -1.3193,1.5503 -0.3323,0.1415 -0.6958,0.2003 -1.0623,0.2003 z"
               id="path20509"
               style="fill:#b3b3b3" />
            <path
               inkscape:connector-curvature="0"
               d="m 1690.2058,-8531.1372 c -0.2436,0 -0.4798,-0.044 -0.7018,-0.1475 -0.105,-0.048 -0.2056,-0.1133 -0.3069,-0.1982 l 0.4783,-0.5714 c 0.051,0.042 0.096,0.072 0.1423,0.094 0.5833,0.2719 1.5562,-0.2227 2.3369,-0.6213 0.3069,-0.1564 0.5974,-0.3047 0.8492,-0.3993 0.3337,-0.1251 0.6667,-0.2384 0.9975,-0.3516 0.4894,-0.1669 0.952,-0.3248 1.4124,-0.517 l 0.2876,0.6876 c -0.4828,0.2019 -0.9789,0.3717 -1.4586,0.5349 -0.3241,0.1102 -0.6504,0.2212 -0.9767,0.3442 -0.2123,0.08 -0.4842,0.2182 -0.7725,0.365 -0.6995,0.3568 -1.5301,0.7807 -2.2877,0.7807 z"
               id="path20511"
               style="fill:#b3b3b3" />
            <path
               inkscape:connector-curvature="0"
               d="m 1724.1188,-8527.7477 c -0.555,0 -1.1144,-0.08 -1.6642,-0.3732 -0.8969,-0.479 -1.4452,-1.1644 -2.0262,-1.8907 -0.1699,-0.2123 -0.3412,-0.4276 -0.5267,-0.6407 l -0.1773,-0.2056 c -0.6243,-0.7263 -1.2143,-1.4124 -2.0047,-1.8407 -0.3546,-0.1915 -0.7449,-0.333 -1.2269,-0.444 l 0.1669,-0.7263 c 0.5497,0.1259 0.9997,0.2897 1.4146,0.5147 0.9118,0.4939 1.5741,1.2649 2.2155,2.0106 l 0.1758,0.2041 c 0.1915,0.2213 0.3695,0.444 0.5446,0.6631 0.5311,0.6644 1.0332,1.2917 1.7953,1.6984 0.6883,0.3665 1.4482,0.301 2.2527,0.2302 0.2607,-0.023 0.5215,-0.045 0.7822,-0.054 0.1922,-0.01 0.3755,-0.01 0.555,-0.012 0.6585,-0.01 1.2269,-0.017 1.8959,-0.2182 1.9294,-0.5789 3.7091,-1.6449 5.4314,-2.6752 l 0.5729,-0.3419 c 1.0481,-0.6228 1.8273,-1.2292 2.4531,-1.9085 l 0.5483,0.505 c -0.6757,0.7338 -1.5085,1.3834 -2.6208,2.0442 l -0.5713,0.3412 c -1.7611,1.0541 -3.5825,2.1432 -5.6006,2.7488 -0.7673,0.2302 -1.4139,0.2399 -2.0992,0.2496 -0.1736,0 -0.3539,0.01 -0.5409,0.011 -0.2465,0.01 -0.4939,0.031 -0.7419,0.052 -0.3308,0.028 -0.666,0.058 -1.0035,0.058 z"
               id="path20513"
               style="fill:#b3b3b3" />
            <path
               inkscape:connector-curvature="0"
               d="m 1724.9107,-8531.4806 c -0.4306,0 -0.8805,-0.1 -1.3469,-0.409 -0.5684,-0.3762 -0.9811,-0.8701 -1.3878,-1.3864 l 0.5848,-0.4611 c 0.3821,0.4842 0.7367,0.9103 1.2143,1.2262 0.4551,0.301 0.873,0.3546 1.5971,0.2041 0.2265,-0.047 0.4582,-0.1266 0.6839,-0.2026 l 0.3032,-0.1006 c 0.1736,-0.054 0.3576,-0.1087 0.5475,-0.1631 0.7718,-0.225 1.6464,-0.4798 2.1879,-0.9334 l 0.3427,0.2003 0.2384,0.2861 -0.055,0.045 c -0.7085,0.593 -1.6628,0.8709 -2.5053,1.1167 -0.184,0.054 -0.3628,0.1058 -0.5319,0.1587 l -0.2883,0.095 c -0.2548,0.086 -0.517,0.1743 -0.7718,0.2272 -0.2629,0.054 -0.5333,0.096 -0.8127,0.096 z"
               id="path20515"
               style="fill:#b3b3b3" />
            <path
               d="m 1715.0729,-8466.2045 -0.5408,-0.5125 c 0.7762,-0.8195 1.4146,-1.741 1.6016,-2.0598 0.558,-0.9491 1.4259,-3.0454 0.7182,-4.1814 -0.2898,-0.4648 -0.5856,-0.7248 -0.8031,-0.6965 -0.6228,0.041 -1.3461,1.6366 -1.7782,2.5909 -0.2272,0.5014 -0.4231,0.9342 -0.6049,1.2038 -0.1572,0.2347 -0.3516,0.4872 -0.5572,0.7547 -0.634,0.8224 -1.3514,1.7543 -1.3283,2.6341 l -0.7449,0.02 c -0.031,-1.1442 0.8083,-2.2333 1.4824,-3.1086 0.1952,-0.2533 0.38,-0.4932 0.529,-0.7152 0.1467,-0.219 0.3404,-0.6451 0.5445,-1.0966 0.628,-1.3856 1.3394,-2.9567 2.4077,-3.0267 0.5296,-0.031 1.031,0.3174 1.4847,1.0452 0.8947,1.4362 -0.024,3.7895 -0.7077,4.9531 -0.2384,0.4068 -0.9111,1.3611 -1.703,2.1954 z"
               id="path20517"
               inkscape:connector-curvature="0"
               style="fill:#b3b3b3" />
            <path
               d="m 1721.548,-8466.2875 -0.66,-0.3464 c 0.4678,-0.8917 0.9021,-1.8699 0.9148,-2.9731 0.01,-0.8463 -0.013,-1.5637 -0.1542,-2.3123 -0.3405,-1.8125 -0.9044,-3.14 -1.7246,-4.0593 -0.1892,-0.2123 -0.4142,-0.4052 -0.6518,-0.6093 -0.3822,-0.3278 -0.777,-0.6675 -1.0571,-1.1197 -0.1177,-0.1907 -0.2175,-0.3628 -0.3114,-0.5267 -0.2391,-0.4157 -0.4283,-0.7442 -0.8008,-1.1613 -1.5592,-1.7425 -2.1805,-3.137 -1.9004,-4.2641 0.2675,-1.0765 1.0348,-1.846 1.7767,-2.5902 0.374,-0.3755 0.7279,-0.7293 1.0065,-1.1107 0.6801,-0.9305 0.5319,-1.5428 0.3076,-2.4703 -0.071,-0.2928 -0.1445,-0.6012 -0.1974,-0.9394 -0.5028,-3.2375 2.7742,-5.7942 4.206,-6.744 3.1966,-2.1194 5.0068,-4.2283 5.3808,-6.2687 0.2331,-1.2739 -0.1013,-2.5507 -0.9945,-3.7948 -0.5431,-0.7554 -1.0661,-1.1383 -1.8028,-1.6374 -0.3636,-0.2466 -0.622,-0.5714 -0.8716,-0.885 -0.2585,-0.3248 -0.5028,-0.6317 -0.8351,-0.8068 -0.1482,-0.078 -0.2838,-0.076 -0.4708,-0.076 -0.1743,0 -0.371,0 -0.5915,-0.067 -0.3553,-0.1118 -0.6496,-0.3375 -0.9342,-0.5565 -0.181,-0.1386 -0.3516,-0.2689 -0.5199,-0.3568 -0.3196,-0.1661 -0.6817,-0.3069 -1.0653,-0.4559 -0.8195,-0.3189 -1.6657,-0.6481 -2.2542,-1.2828 -0.5252,-0.5669 -0.7077,-1.2992 -0.5006,-2.0069 0.2153,-0.7353 0.8313,-1.3178 1.6076,-1.5205 0.5877,-0.1534 1.1859,-0.1676 1.764,-0.1817 0.8411,-0.02 1.6352,-0.039 2.3108,-0.479 0.2161,-0.1401 0.4239,-0.2958 0.6325,-0.4515 0.7174,-0.5356 1.4713,-1.0757 2.4911,-1.0697 0.6019,0.012 1.1428,0.2287 1.6665,0.4388 0.3426,0.137 0.6667,0.2666 0.9937,0.3352 1.9488,0.4045 4.2298,-1.0251 5.9998,-2.3198 0.1565,-0.114 0.3233,-0.2302 0.4939,-0.3486 1.0653,-0.7383 2.1664,-1.5018 1.9369,-2.7027 -0.3278,-1.7164 -0.4879,-3.1564 0.66,-4.761 1.5376,-2.1506 3.4082,-3.201 5.8851,-3.3061 2.1872,-0.089 4.1181,1.2776 4.7334,3.3315 0.4135,1.3789 0.4098,3.318 -0.01,4.9405 -0.4552,1.7714 -1.6493,3.0721 -2.804,4.3303 -0.3851,0.4195 -0.7829,0.8538 -1.1405,1.2925 -0.7025,0.8649 -1.3655,1.7961 -1.4467,2.7481 -0.1088,1.259 -0.111,2.5686 -0.1147,3.835 0,1.0705 -0.01,2.1768 -0.072,3.2622 -0.026,0.4388 -0.016,0.9148 0,1.4184 0.022,0.914 0.044,1.8594 -0.1617,2.6855 -0.1989,0.7978 -0.7047,1.3141 -1.1949,1.8132 -0.3628,0.3695 -0.7047,0.7174 -0.8999,1.1621 -0.6436,1.4639 0.4582,2.4829 1.6255,3.5601 0.4723,0.4366 0.917,0.8485 1.2485,1.2955 0.4887,0.6608 0.5513,0.7457 1.2262,0.8612 0.9848,0.1706 1.8579,0.365 2.5626,1.0407 1.0109,0.9714 1.3901,2.4963 1.6509,3.9996 l 0.046,0.2831 c 0.1006,0.6399 0.1207,0.7732 0.6489,0.9155 0.3151,0.085 0.6675,0.083 1.0362,0.082 0.3568,0 0.7234,0 1.0869,0.073 3.2539,0.6816 4.8563,3.4617 5.5216,5.0589 l -0.6884,0.2868 c -0.6086,-1.4616 -2.0657,-4.0048 -4.9852,-4.6164 -0.2875,-0.06 -0.6004,-0.062 -0.9319,-0.057 -0.4023,0 -0.8224,0 -1.2336,-0.1087 -0.9938,-0.2682 -1.0847,-0.8485 -1.1905,-1.519 l -0.044,-0.2711 c -0.2384,-1.3789 -0.5766,-2.7675 -1.4326,-3.5892 -0.552,-0.5296 -1.3111,-0.6958 -2.1737,-0.844 -0.9692,-0.1676 -1.1674,-0.4358 -1.6985,-1.1532 -0.289,-0.3903 -0.7092,-0.78 -1.1547,-1.1912 -1.1844,-1.095 -2.6587,-2.4568 -1.802,-4.4078 0.2503,-0.5692 0.657,-0.9834 1.0504,-1.3841 0.4395,-0.4478 0.8544,-0.8701 1.0042,-1.4713 0.181,-0.7293 0.1601,-1.624 0.14,-2.4882 -0.012,-0.4968 -0.024,-1.0108 0,-1.4802 0.064,-1.0645 0.067,-2.1596 0.07,-3.2196 0,-1.2821 0.01,-2.6074 0.1177,-3.8969 0.099,-1.1524 0.8329,-2.1968 1.6113,-3.1541 0.3718,-0.4566 0.777,-0.8991 1.1696,-1.3267 1.1428,-1.2448 2.2214,-2.4211 2.6304,-4.0123 0.3799,-1.478 0.3866,-3.3031 0.016,-4.5412 -0.5096,-1.6993 -2.1969,-2.8703 -3.9885,-2.801 -2.2296,0.095 -3.9177,1.0466 -5.3122,2.9954 -0.9774,1.3662 -0.8373,2.5976 -0.5334,4.1874 -0.4505,3.5875 -6.6026,6.7192 -9.3156,6.2404 -0.3903,-0.081 -0.7606,-0.2294 -1.1182,-0.3725 -0.4819,-0.1937 -0.9386,-0.3754 -1.4042,-0.3851 -0.8112,-0.01 -1.3863,0.4395 -2.0307,0.9215 -0.2213,0.1654 -0.4433,0.3307 -0.6727,0.4797 -0.853,0.5535 -1.7909,0.5766 -2.6982,0.5982 -0.5602,0.013 -1.0899,0.027 -1.5942,0.158 -0.5244,0.1363 -0.9379,0.5229 -1.0802,1.0086 -0.1318,0.4507 -0.011,0.9215 0.3315,1.2918 0.4716,0.5095 1.2374,0.8067 1.9779,1.095 0.3851,0.1498 0.7836,0.3047 1.1382,0.4887 0.2273,0.1177 0.4321,0.2749 0.6303,0.4269 0.2443,0.187 0.4752,0.3643 0.7047,0.4365 0.1088,0.034 0.225,0.037 0.3635,0.033 0.228,0 0.5088,0 0.8217,0.1616 0.4708,0.2474 0.7762,0.631 1.0712,1.0013 0.225,0.2823 0.4373,0.549 0.7063,0.7315 0.7784,0.5274 1.3774,0.9662 1.9905,1.8192 1.0161,1.4154 1.3938,2.8837 1.1226,4.3639 -0.4127,2.2475 -2.3309,4.5203 -5.7018,6.7559 -1.0243,0.6787 -4.3304,3.1176 -3.8812,6.0073 0.049,0.3166 0.1192,0.6049 0.1855,0.879 0.2331,0.9655 0.4536,1.8765 -0.4306,3.0856 -0.3121,0.4276 -0.7025,0.8194 -1.0802,1.1971 -0.701,0.7033 -1.364,1.367 -1.5815,2.2438 -0.2131,0.8567 0.3702,2.0643 1.7327,3.5877 0.4247,0.4745 0.6519,0.8686 0.8917,1.2858 0.091,0.1579 0.1863,0.324 0.2988,0.5065 0.2197,0.3546 0.5549,0.6422 0.9095,0.9469 0.2459,0.2115 0.4999,0.4298 0.7219,0.6786 0.9133,1.0236 1.5353,2.4688 1.9004,4.4191 0.1609,0.8559 0.175,1.688 0.1668,2.4583 -0.014,1.2664 -0.5132,2.3853 -0.9997,3.3128 z"
               id="path20519"
               inkscape:connector-curvature="0"
               sodipodi:nodetypes="ccccccccccccccccccccsccccccccccccccccccccccccccccccccccccccccccccccccccccccccccscccccccccccccccccccccccccccccccccccccc"
               style="fill:#b3b3b3" />
            <path
               d="m 1691.4759,-8466.4447 -0.7442,-0.031 0.01,-0.2666 c 0.051,-1.3588 0.083,-2.179 1.1599,-3.4842 0.8075,-0.9781 0.45,-2.1566 -0.3367,-3.6234 -0.3181,-0.5952 -0.7151,-1.1755 -1.1003,-1.738 -0.4872,-0.7144 -0.9915,-1.4511 -1.3662,-2.2542 l 0.6749,-0.3158 c 0.3494,0.7486 0.8358,1.4601 1.3066,2.1491 0.3956,0.5781 0.8046,1.1763 1.1421,1.8065 0.54,1.0087 1.545,2.8852 0.254,4.4504 -0.9171,1.1107 -0.9401,1.7148 -0.9908,3.0379 l -0.01,0.2689 z"
               id="path20521"
               inkscape:connector-curvature="0"
               style="fill:#b3b3b3" />
            <path
               d="m 1756.2008,-8491.7499 c -0.5714,-0.6555 -1.2262,-1.2798 -2.0628,-1.9659 -1.066,-0.8753 -1.9011,-1.5376 -2.9395,-2.0955 l -0.3516,-0.1885 c -2.0233,-1.0809 -3.6205,-1.9354 -4.4817,-4.4615 -0.7769,-2.2803 -0.806,-4.7856 -0.7315,-6.9355 0.063,-1.8117 0.7703,-3.1526 1.4899,-4.3713 0.403,-0.6832 0.8001,-1.3559 1.3908,-1.8892 1.0199,-0.9193 2.2244,-1.3618 3.3895,-1.7887 0.4984,-0.1832 1.0139,-0.3724 1.5056,-0.5967 0.8917,-0.406 1.4519,-1.0578 1.6642,-1.9368 0.3486,-1.443 -0.327,-3.1392 -1.1524,-4.1814 l -0.095,-0.12 c -0.8358,-1.0556 -1.6992,-2.1469 -2.3302,-3.3314 -0.4536,-0.8515 -0.654,-1.8191 -0.8485,-2.7555 l -0.098,-0.4709 c -0.1952,-0.9036 -0.6019,-1.4861 -1.1643,-2.2914 l -0.2138,-0.304 c -0.4172,-0.59 -0.8895,-1.2589 -1.0303,-2.0031 l 0.7315,-0.1386 c 0.1103,0.5848 0.5148,1.1577 0.9066,1.7112 l 0.2161,0.3076 c 0.5669,0.8105 1.0563,1.5108 1.2828,2.5612 l 0.1,0.476 c 0.1833,0.885 0.3725,1.7998 0.7762,2.5567 0.599,1.1248 1.4423,2.1894 2.2565,3.2189 l 0.095,0.1207 c 1.142,1.4437 1.6494,3.3358 1.291,4.8183 -0.2644,1.0973 -0.984,1.9406 -2.0799,2.4397 -0.517,0.2354 -1.0459,0.4298 -1.5576,0.6176 -1.1488,0.4216 -2.2342,0.8201 -3.1475,1.6433 -0.5065,0.4559 -0.8566,1.0511 -1.2284,1.6806 -0.8589,1.4549 -1.3543,2.5686 -1.4064,4.0518 -0.072,2.0821 -0.046,4.5032 0.6928,6.6695 0.765,2.2475 2.1022,2.9627 4.127,4.0444 l 0.3523,0.1892 c 1.1838,0.6362 2.1812,1.4541 3.0603,2.176 0.8679,0.7129 1.5517,1.3647 2.1514,2.0516 l -0.5602,0.4916 z"
               id="path20523"
               inkscape:connector-curvature="0"
               style="fill:#b3b3b3" />
            <path
               id="path20525"
               d="m 1727.3951,-8466.4444 -0.7434,-0.033 c 0.04,-0.8999 -0.1118,-1.9093 -0.4649,-3.0856 -1.8043,-5.999 -4.53,-15.0658 -1.5949,-22.4557 1.2098,-3.0461 4.5605,-6.0862 8.3769,-5.7443 4.1188,0.3769 5.3495,4.1479 6.3388,7.1791 l 0.1356,0.4149 c 0.9297,2.8219 2.8598,3.8581 5.0947,5.0582 0.7568,0.406 1.5383,0.8254 2.3354,1.3394 1.9726,1.2702 3.2785,3.3121 4.5412,5.2869 0.6787,1.0608 1.3804,2.1574 2.1782,3.1273 1.069,1.2955 2.1179,2.6938 3.1884,4.1315 l -0.5982,0.4455 c -1.0645,-1.4303 -2.1074,-2.8204 -3.1653,-4.1032 -0.8269,-1.0042 -1.5405,-2.1209 -2.2303,-3.2003 -1.2761,-1.995 -2.4807,-3.8789 -4.317,-5.0619 -0.7725,-0.4969 -1.5406,-0.9096 -2.2848,-1.3089 -2.2765,-1.2225 -4.4265,-2.3764 -5.4485,-5.4813 l -0.1371,-0.4172 c -0.9692,-2.9694 -2.0672,-6.335 -5.6981,-6.6673 -3.4506,-0.3159 -6.5057,2.4829 -7.6164,5.2772 -2.8397,7.1493 -0.1587,16.0656 1.6151,21.9663 0.3769,1.2575 0.5393,2.3474 0.4946,3.3329 z"
               inkscape:connector-curvature="0"
               style="fill:#b3b3b3" />
            <path
               id="path20527"
               d="m 1753.3849,-8466.3624 c -0.067,-0.2466 -0.1289,-0.4947 -0.19,-0.742 -0.062,-0.2503 -0.1236,-0.4991 -0.1914,-0.7427 -0.3136,-1.1398 -0.6005,-2.0963 -1.186,-3.1534 -0.4037,-0.7293 -0.7434,-1.5465 -1.072,-2.3369 -0.6116,-1.472 -1.2448,-2.9939 -2.3212,-4.051 -0.637,-0.625 -1.4326,-1.0936 -2.2744,-1.5897 -0.5676,-0.3345 -1.1546,-0.6802 -1.6865,-1.078 -0.4485,-0.3352 -0.8746,-0.7047 -1.2873,-1.0623 -0.6116,-0.5296 -1.2441,-1.0772 -1.9398,-1.5025 -1.2165,-0.745 -2.4412,-1.262 -3.7382,-1.8095 -1.3036,-0.5505 -1.4526,-1.3811 -1.5972,-2.1827 -0.068,-0.3799 -0.1385,-0.7725 -0.3322,-1.1785 -0.6049,-1.2649 -1.4519,-1.8035 -2.8189,-1.7983 -2.8196,0.01 -4.9226,1.8735 -5.234,4.6403 -0.3918,3.4915 -0.4708,6.627 -0.2332,9.3185 0.12,1.3655 0.6191,2.4673 1.1465,3.6339 0.1818,0.4023 0.3673,0.8127 0.5438,1.2455 0.6153,1.5101 0.5386,3.1974 0.3643,4.3461 l -0.736,-0.1103 c 0.1594,-1.0571 0.2332,-2.6006 -0.3181,-3.9549 -0.1728,-0.4231 -0.3553,-0.8247 -0.5334,-1.2195 -0.5542,-1.2262 -1.0787,-2.3838 -1.2098,-3.8752 -0.2413,-2.7414 -0.1624,-5.9268 0.2347,-9.4668 0.3561,-3.1616 2.7555,-5.2921 5.9722,-5.3018 0.01,0 0.013,0 0.019,0 1.6463,0 2.7503,0.7062 3.4744,2.2214 0.2369,0.4969 0.3204,0.9595 0.3934,1.3685 0.1341,0.7427 0.222,1.2336 1.1532,1.6277 1.2649,0.5341 2.573,1.0869 3.8364,1.8601 0.748,0.4567 1.4043,1.0258 2.0382,1.5748 0.4023,0.3487 0.8195,0.7092 1.2463,1.0288 0.4984,0.3732 1.0683,0.7085 1.618,1.0333 0.8433,0.4968 1.7157,1.0101 2.4182,1.6999 1.1837,1.1629 1.8467,2.7549 2.4873,4.2962 0.3353,0.8067 0.6526,1.5681 1.0363,2.2616 0.6257,1.1294 0.9252,2.1276 1.253,3.3165 0.068,0.2503 0.1318,0.5051 0.1959,0.7614 0.06,0.2413 0.1199,0.4834 0.1855,0.7248 l -0.7174,0.1967 z"
               inkscape:connector-curvature="0"
               style="fill:#b3b3b3" />
            <path
               id="path20529"
               d="m 1731.5676,-8466.4548 -0.745,-0.012 c 0.013,-0.809 -0.019,-1.6359 -0.049,-2.4367 -0.028,-0.7092 -0.054,-1.4177 -0.053,-2.1239 0,-0.4648 0.011,-0.9289 0.021,-1.3938 0.018,-0.8887 0.038,-1.8087 -0.01,-2.7056 -0.016,-0.3248 -0.011,-0.6712 0,-1.0251 0.012,-0.6779 0.024,-1.3804 -0.1326,-1.9473 -0.069,-0.2488 -0.219,-0.5773 -0.3799,-0.9245 -0.4202,-0.9148 -0.8977,-1.9502 -0.4909,-2.7451 0.2167,-0.4231 0.6525,-0.701 1.2947,-0.8262 1.7797,-0.3449 3.9728,-0.025 5.8836,0.333 1.1226,0.2109 1.6225,0.4276 2.3674,1.2962 0.5587,0.6519 1.2501,1.1353 1.9809,1.6479 0.4499,0.3151 0.914,0.6399 1.3461,1.0086 1.0288,0.8776 2.0136,1.8952 2.9261,3.0253 0.3114,0.3859 0.6228,0.7598 0.9305,1.1286 1.5592,1.8705 3.0312,3.6368 3.7739,6.1011 0.1579,0.5252 0.2406,1.0601 0.2451,1.5897 -18.6752,0.09 -11.3963,0.1147 -18.6752,0.09 z"
               inkscape:connector-curvature="0"
               sodipodi:nodetypes="ccccccccccccccccccccc"
               style="fill:#b3b3b3" />
            <path
               id="path20531"
               d="m 1734.177,-8466.515 c 0.1393,-0.2794 0.1172,-0.6684 0.261,-0.9507 0.3345,-0.6548 0.6801,-1.3312 0.9908,-2.0479 0.4075,-0.9378 0.3933,-1.9756 0.3799,-3.0751 -0.01,-0.5833 -0.016,-1.1882 0.046,-1.773 0.078,-0.733 0.2481,-1.6657 0.8775,-2.3786 0.7636,-0.8634 1.5682,-0.9044 2.1075,-0.7859 0.9982,0.219 1.9421,1.1949 2.2959,2.3726 0.1766,0.5856 0.2973,1.1733 0.4142,1.741 l 0.087,0.4194 c 0.1348,0.6392 0.2227,1.3022 0.3077,1.9421 0.085,0.6362 0.172,1.2947 0.3054,1.9242 0.184,0.8701 0.6138,1.6083 1.2105,2.0791 0.1244,0.098 0.2585,0.187 0.3949,0.2727 -5.5972,1.0223 -5.8867,0.2651 -9.6783,0.2601 z"
               inkscape:connector-curvature="0"
               sodipodi:nodetypes="ccccccccccccccc"
               style="fill:#b3b3b3" />
            <path
               id="path20533"
               d="m 1736.8776,-8467.0334 c 0.1192,-0.8492 0.324,-0.9277 0.6429,-1.3657 0.3486,-0.4783 1.0973,-0.7792 1.7707,-0.7263 0.5341,0.045 0.9431,0.2987 1.1495,0.7151 0.2367,0.559 0.2642,1.1193 0.3348,1.6843 -1.7312,-0.6457 -3.4501,-0.2563 -3.8979,-0.3074 z"
               inkscape:connector-curvature="0"
               sodipodi:nodetypes="cccccc"
               style="fill:#b3b3b3" />
            <path
               id="path20535"
               d="m 1756.2142,-8523.9656 0.2674,-0.2592 -0.3128,0.2123 -0.093,-0.096 c -1.1137,-1.148 -1.4012,-2.4084 -0.9594,-4.2149 0.2056,-0.8426 0.6376,-1.4676 1.0734,-2.0166 l 0.5833,0.4633 c -0.4432,0.558 -0.771,1.0661 -0.9341,1.7306 -0.3777,1.5457 -0.1535,2.5663 0.7717,3.5206 l 0.092,0.095 -0.2205,0.3062 -0.2674,0.2592 z"
               inkscape:connector-curvature="0"
               style="fill:#b3b3b3" />
            <path
               id="path20537"
               d="m 1756.2217,-8496.1246 c -0.298,-0.2906 -0.593,-0.5841 -0.8873,-0.8791 -0.6876,-0.6875 -1.399,-1.3975 -2.1529,-2.0441 -1.0161,-0.8708 -2.2818,-1.9555 -2.3399,-3.7687 -0.054,-1.7238 0.8873,-2.2862 2.0323,-2.7965 1.2343,-0.5498 1.9532,-1.5361 2.0769,-2.8502 0.039,-0.4105 0.016,-0.8828 -0.01,-1.3819 -0.054,-1.1219 -0.1169,-2.3943 0.564,-3.2994 0.1944,-0.2585 0.4328,-0.4909 0.7516,-0.73 l 0.4485,0.5952 c -0.2615,0.1967 -0.453,0.3814 -0.6049,0.5825 -0.5185,0.6899 -0.4656,1.77 -0.415,2.8152 0.025,0.5274 0.05,1.0251 0.01,1.4884 -0.1512,1.5987 -1.0205,2.7951 -2.5164,3.461 -1.1517,0.5133 -1.6277,0.9178 -1.5897,2.0926 0.044,1.3759 0.9274,2.2401 2.0791,3.2271 0.7755,0.6653 1.4974,1.3856 2.1947,2.0829 0.2927,0.292 0.584,0.5833 0.8805,0.8716 l -0.5192,0.5334 z"
               inkscape:connector-curvature="0"
               style="fill:#b3b3b3" />
            <path
               inkscape:connector-curvature="0"
               d="m 1689.8072,-8494.2652 -0.7412,-0.07 c 0.031,-0.3225 0.052,-0.6555 0.069,-1.0108 0.048,-0.9648 0.9923,-1.4125 1.8266,-1.8065 0.7003,-0.3316 1.3618,-0.6444 1.4348,-1.157 0.019,-0.075 0.4678,-1.542 -0.2861,-2.8792 -0.5393,-0.9558 -0.6138,-1.6687 -0.6675,-2.1886 -0.032,-0.3137 -0.056,-0.5401 -0.1668,-0.7063 -0.158,-0.2383 -0.7137,-0.6913 -1.1607,-1.0555 -0.3814,-0.3099 -0.7412,-0.6027 -0.9513,-0.8284 l 0.5439,-0.5088 c 0.1765,0.1884 0.5326,0.479 0.8768,0.7598 0.5609,0.4567 1.0906,0.888 1.3111,1.221 0.2123,0.3188 0.248,0.6697 0.2868,1.0414 0.05,0.4805 0.1125,1.0787 0.5758,1.8996 0.9178,1.6278 0.3844,3.3404 0.3606,3.4127 -0.1162,0.847 -1.0318,1.2805 -1.8393,1.6619 -0.8314,0.3934 -1.3774,0.6876 -1.4013,1.1696 -0.018,0.368 -0.04,0.7122 -0.072,1.0452 z"
               id="path20539"
               style="fill:#b3b3b3" />
            <path
               style="fill:#b3b3b3"
               sodipodi:nodetypes="scccccccccs"
               id="path20543"
               d="m 1702.0073,-8486.344 c -0.558,0 -1.0206,-0.2727 -1.3074,-0.7703 -0.5349,-0.9297 -0.065,-1.9719 0.1609,-2.4732 0.1341,-0.2965 0.2011,-0.6079 0.2719,-0.9379 0.061,-0.2839 0.1244,-0.5766 0.2339,-0.8731 0.2659,-0.7196 1.0034,-1.5361 1.8445,-1.6322 0.5423,-0.056 1.0183,0.1877 1.3543,0.7003 0.7919,1.2075 0.441,3.3366 -0.1169,4.4108 l 0,0 c -0.3867,0.7442 -1.4445,1.5547 -2.404,1.5748 -0.012,8e-4 -0.025,8e-4 -0.037,8e-4 z"
               inkscape:connector-curvature="0" />
          </g>
        </g>
      </g>
    </g>
  </g>
</svg>
