<?xml version="1.0" encoding="UTF-8" standalone="no"?>
<!-- Created with Inkscape (http://www.inkscape.org/) -->

<svg
   xmlns:dc="http://purl.org/dc/elements/1.1/"
   xmlns:cc="http://creativecommons.org/ns#"
   xmlns:rdf="http://www.w3.org/1999/02/22-rdf-syntax-ns#"
   xmlns:svg="http://www.w3.org/2000/svg"
   xmlns="http://www.w3.org/2000/svg"
   xmlns:xlink="http://www.w3.org/1999/xlink"
   xmlns:sodipodi="http://sodipodi.sourceforge.net/DTD/sodipodi-0.dtd"
   xmlns:inkscape="http://www.inkscape.org/namespaces/inkscape"
   width="42.333332mm"
   height="42.333332mm"
   viewBox="0 0 149.99999 150"
   id="svg4759"
   version="1.1"
   inkscape:version="0.91 r13725"
   sodipodi:docname="Graph-Comms.svg">
  <defs
     id="defs4761">
    <linearGradient
       inkscape:collect="always"
       id="linearGradient8727">
      <stop
         style="stop-color:#000000;stop-opacity:1;"
         offset="0"
         id="stop8729" />
      <stop
         style="stop-color:#000000;stop-opacity:0;"
         offset="1"
         id="stop8731" />
    </linearGradient>
    <radialGradient
       inkscape:collect="always"
       xlink:href="#linearGradient8727"
       id="radialGradient8733"
       cx="488.87482"
       cy="984.53693"
       fx="488.87482"
       fy="984.53693"
       r="49.95"
       gradientTransform="matrix(0.81281288,0,-7.8467072e-7,0.8008008,-77.883216,243.43)"
       gradientUnits="userSpaceOnUse" />
    <filter
       inkscape:collect="always"
       style="color-interpolation-filters:sRGB"
       id="filter8819"
       x="-0.12006002"
       width="1.24012"
       y="-0.11994004"
       height="1.2398801">
      <feGaussianBlur
         inkscape:collect="always"
         stdDeviation="3.9979998"
         id="feGaussianBlur8821" />
    </filter>
  </defs>
  <sodipodi:namedview
     id="base"
     pagecolor="#ffffff"
     bordercolor="#666666"
     borderopacity="1.0"
     inkscape:pageopacity="0.0"
     inkscape:pageshadow="2"
     inkscape:zoom="2.1445313"
     inkscape:cx="-3.5703504"
     inkscape:cy="26.155111"
     inkscape:document-units="px"
     inkscape:current-layer="layer1"
     showgrid="false"
     fit-margin-top="0"
     fit-margin-left="0"
     fit-margin-right="0"
     fit-margin-bottom="0"
     inkscape:window-width="1366"
     inkscape:window-height="713"
     inkscape:window-x="0"
     inkscape:window-y="27"
     inkscape:window-maximized="1"
     showborder="false"
     showguides="true"
     inkscape:guide-bbox="true">
    <sodipodi:guide
       position="225.49999,169.75"
       orientation="1,0"
       id="guide8723" />
    <sodipodi:guide
       position="148.24999,111"
       orientation="0,1"
       id="guide8725" />
  </sodipodi:namedview>
  <metadata
     id="metadata4764">
    <rdf:RDF>
      <cc:Work
         rdf:about="">
        <dc:format>image/svg+xml</dc:format>
        <dc:type
           rdf:resource="http://purl.org/dc/dcmitype/StillImage" />
        <dc:title />
      </cc:Work>
    </rdf:RDF>
  </metadata>
  <g
     inkscape:label="Layer 1"
     inkscape:groupmode="layer"
     id="layer1"
     transform="translate(-263.37482,-945.53693)">
    <g
       id="g8941"
       inkscape:export-xdpi="90"
       inkscape:export-ydpi="90">
      <rect
         ry="0"
         rx="0"
         style="opacity:1;fill:#b3b3b3;fill-opacity:1;stroke:none;stroke-width:6.79094839;stroke-linecap:round;stroke-linejoin:round;stroke-miterlimit:4;stroke-dasharray:none;stroke-dashoffset:0;stroke-opacity:1"
         id="rect5453"
         width="120"
         height="120"
         x="259.47977"
         y="971.85193" />
      <path
         transform="matrix(1.2107708,0,0,1.2107708,-67.337011,-217.48425)"
         inkscape:connector-curvature="0"
         d="m 357.27978,1018.4919 -7.12,-13.28 -12.96,-9.35996 -11.04001,-4 -16,0.24 -0.16,0.08 0,0 0,0 -14.32001,6.8 -10.56,10.79996 -5.52,13.76 -0.08,0.08 0.16,16.96 4.32,10.48 3.36,5.04 8.64,9.04 15.04001,6.72 17.28,-0.24 16.16001,-7.76 9.92,-12.4 5.04,-14.32 z m -32.56001,20.64 -20.96,-3.44 13.76,-16.88 z m -6.08,-20.72 19.76001,4.24 -12.56001,16 z m 7.84,22.32 17.36001,4.8 -13.84,12.16 z m 2.4,17.44 -19.04,-2 15.44,-15.04 z m -2.16,-18.64 12.48001,-15.92 5.04,20.88 z m -7.92,-22.32 10.80001,-13.92 8.72,18.08 z m -2.4,0.96 -13.6,16.72 -6.24,-16.72 z m -19.44,-1.12 10.96,-13.84 8.64,13.76 z m 27.44,23.28 -15.6,15.12 -5.28,-18.56 z m 4,18.96 -8.8,9.12 -9.68,-11.04 z m 15.44001,-12.08 -5.12,16.16 -8,-4.64 z m -3.52,-23.76 12.72,7.04 -7.76,13.2 z m -9.28,-20.08 14.8,5.92 -6.32,11.68 z m -13.28001,13.36 -8.64,-13.76 19.28,0 z m -11.04,-14.72 -16.16001,6.48 12.60001,-9.31996 z m -2.2,-3.39996 12.2,-4.52 -8.72,7.27996 z m 1.56,4.91996 -10.40001,13.2 -6.56,-6.4 z m -4.48,31.6 -16.64001,-5.6 10.56,-10.8 z m -0.08,1.28 -10.72001,10.72 -5.92,-16.32 z m 0.8,0.88 5.2,18.24 -15.92001,-7.44 z m 15.6,31.04 -15.2,-3.44 5.84,-7.36 z m 11.84001,-8.72 7.76,4.4 -16.00001,4.16 z m 15.6,-13.2 5.92,5.6 -10.88,10.24 z m 0.48,-1.2 7.28,-12.4 -1.44,17.84 z m -5.6,-23.2 6.32,-11.52 6.32,18.48 z m -9.36,-20.08 6,-4.71996 8,10.31996 z m -21.28001,0.24 9.44,-7.91996 9.04,7.91996 z m 4.88,-8.79996 -10.38,3.68 6.3,-3.76 z m -12.38,4.82 -10.44001,7.83996 4.74001,-6.02 z m -7.22001,19.41996 -9.92,10.32 3.44,-16.56 z m -5.6,28.96 -8.24,-6.32 2.88,-8.56 z m -7.28,-4.08 7.84,5.92 -2,5.76 z m 25.52001,14.32 -5.92,7.44 -9.36001,-14.56 z m -5.92,8.48 0,0 0,0 z m 15.12,4.08 -5.36,1.2 -6.24,-3.84 z m 18.64001,-3.52 -7.28001,4.56 -5.76,-1.12 z m 12.8,-9.28 -4.4,6.24 -2.72,0.48 z m 6.24,-24.64 3.76,5.2 -5.12,11.44 z m 0.16,-1.84 1.92,-8 1.44,12.72 z m -0.8,-2 -5.76,-16.88 7.92,7.76 z m -13.76,-28.63996 8.72,6.31996 -2,2.24 z m -10.32,1.91996 -8.48001,-7.43996 14.32001,2.8 z m -42.08002,8.24 -0.64,0 2.8,-2.88 z m -4,18.64 -2.8,-4.48 5.84,-10.08 z m -0.32,1.68 -2.4,7.04 -0.16,-11.04 z m 7.44,19.68 8.72001,13.44 -10.80001,-7.52 z m 10.64001,16.24 1.44,0.88 -2.24,-0.96 z m 18.24,4.08 2.56,0.48 -5.04,0.08 z m 19.68001,-5.12 0.56,-0.08 -1.76,0.88 z m 14.16,-14.08 0,0 0.16,-0.4 z m 0.8,-35.2 -6.72,-6.56 2,-2.24 z m -24.80001,-21.19996 -5.68,-1.12 2.24,-0.16 z m -43.44001,16.39996 0.88,0.08 -5.84,10.68 z m 6.64,49.04 6.56001,4.56 -2.48,-0.32 z"
         id="path8737"
         sodipodi:nodetypes="cccccccccccccccccccccccccccccccccccccccccccccccccccccccccccccccccccccccccccccccccccccccccccccccccccccccccccccccccccccccccccccccccccccccccccccccccccccccccccccccccccccccccccccccccccccccccccccccccccccccccccccccccccccccccccccccccccccccccccccc"
         style="fill:#000000;fill-opacity:1;filter:url(#filter8819)" />
      <path
         style="fill:url(#radialGradient8733);fill-opacity:1"
         sodipodi:nodetypes="cccccccccccccccccccccccccccccccccccccccccccccccccccccccccccccccccccccccccccccccccccccccccccccccccccccccccccccccccccccccccccccccccccccccccccccccccccccccccccccccccccccccccccccccccccccccccccccccccccccccccccccccccccccccccccccccccccccccccccccc"
         id="path8703"
         d="m 357.27978,1018.4919 -7.12,-13.28 -12.96,-9.35995 -11.04001,-4 -16,0.24 -0.16,0.08 0,0 0,0 -14.32001,6.8 -10.56,10.79995 -5.52,13.76 -0.08,0.08 0.16,16.96 4.32,10.48 3.36,5.04 8.64,9.04 15.04001,6.72 17.28,-0.24 16.16001,-7.76 9.92,-12.4 5.04,-14.32 z m -32.56001,20.64 -20.96,-3.44 13.76,-16.88 z m -6.08,-20.72 19.76001,4.24 -12.56001,16 z m 7.84,22.32 17.36001,4.8 -13.84,12.16 z m 2.4,17.44 -19.04,-2 15.44,-15.04 z m -2.16,-18.64 12.48001,-15.92 5.04,20.88 z m -7.92,-22.32 10.80001,-13.92 8.72,18.08 z m -2.4,0.96 -13.6,16.72 -6.24,-16.72 z m -19.44,-1.12 10.96,-13.84 8.64,13.76 z m 27.44,23.28 -15.6,15.12 -5.28,-18.56 z m 4,18.96 -8.8,9.12 -9.68,-11.04 z m 15.44001,-12.08 -5.12,16.16 -8,-4.64 z m -3.52,-23.76 12.72,7.04 -7.76,13.2 z m -9.28,-20.08 14.8,5.92 -6.32,11.68 z m -13.28001,13.36 -8.64,-13.76 19.28,0 z m -11.04,-14.72 -16.16001,6.48 12.60001,-9.31995 z m -2.2,-3.39995 12.2,-4.52 -8.72,7.27995 z m 1.56,4.91995 -10.40001,13.2 -6.56,-6.4 z m -4.48,31.6 -16.64001,-5.6 10.56,-10.8 z m -0.08,1.28 -10.72001,10.72 -5.92,-16.32 z m 0.8,0.88 5.2,18.24 -15.92001,-7.44 z m 15.6,31.04 -15.2,-3.44 5.84,-7.36 z m 11.84001,-8.72 7.76,4.4 -16.00001,4.16 z m 15.6,-13.2 5.92,5.6 -10.88,10.24 z m 0.48,-1.2 7.28,-12.4 -1.44,17.84 z m -5.6,-23.2 6.32,-11.52 6.32,18.48 z m -9.36,-20.08 6,-4.71995 8,10.31995 z m -21.28001,0.24 9.44,-7.91995 9.04,7.91995 z m 4.88,-8.79995 -10.38,3.68 6.3,-3.76 z m -12.38,4.82 -10.44001,7.83995 4.74001,-6.02 z m -7.22001,19.41995 -9.92,10.32 3.44,-16.56 z m -5.6,28.96 -8.24,-6.32 2.88,-8.56 z m -7.28,-4.08 7.84,5.92 -2,5.76 z m 25.52001,14.32 -5.92,7.44 -9.36001,-14.56 z m -5.92,8.48 0,0 0,0 z m 15.12,4.08 -5.36,1.2 -6.24,-3.84 z m 18.64001,-3.52 -7.28001,4.56 -5.76,-1.12 z m 12.8,-9.28 -4.4,6.24 -2.72,0.48 z m 6.24,-24.64 3.76,5.2 -5.12,11.44 z m 0.16,-1.84 1.92,-8 1.44,12.72 z m -0.8,-2 -5.76,-16.88 7.92,7.76 z m -13.76,-28.63995 8.72,6.31995 -2,2.24 z m -10.32,1.91995 -8.48001,-7.43995 14.32001,2.8 z m -42.08002,8.24 -0.64,0 2.8,-2.88 z m -4,18.64 -2.8,-4.48 5.84,-10.08 z m -0.32,1.68 -2.4,7.04 -0.16,-11.04 z m 7.44,19.68 8.72001,13.44 -10.80001,-7.52 z m 10.64001,16.24 1.44,0.88 -2.24,-0.96 z m 18.24,4.08 2.56,0.48 -5.04,0.08 z m 19.68001,-5.12 0.56,-0.08 -1.76,0.88 z m 14.16,-14.08 0,0 0.16,-0.4 z m 0.8,-35.2 -6.72,-6.56 2,-2.24 z m -24.80001,-21.19995 -5.68,-1.12 2.24,-0.16 z m -43.44001,16.39995 0.88,0.08 -5.84,10.68 z m 6.64,49.04 6.56001,4.56 -2.48,-0.32 z"
         inkscape:connector-curvature="0" />
      <path
         inkscape:connector-curvature="0"
         d="m 357.27978,1018.4919 -7.12,-13.28 -12.96,-9.35995 -11.04001,-4 -16,0.24 -0.16,0.08 0,0 0,0 -14.32001,6.8 -10.56,10.79995 -5.52,13.76 -0.08,0.08 0.16,16.96 4.32,10.48 3.36,5.04 8.64,9.04 15.04001,6.72 17.28,-0.24 16.16001,-7.76 9.92,-12.4 5.04,-14.32 z m -32.56001,20.64 -20.96,-3.44 13.76,-16.88 z m -6.08,-20.72 19.76001,4.24 -12.56001,16 z m 7.84,22.32 17.36001,4.8 -13.84,12.16 z m 2.4,17.44 -19.04,-2 15.44,-15.04 z m -2.16,-18.64 12.48001,-15.92 5.04,20.88 z m -7.92,-22.32 10.80001,-13.92 8.72,18.08 z m -2.4,0.96 -13.6,16.72 -6.24,-16.72 z m -19.44,-1.12 10.96,-13.84 8.64,13.76 z m 27.44,23.28 -15.6,15.12 -5.28,-18.56 z m 4,18.96 -8.8,9.12 -9.68,-11.04 z m 15.44001,-12.08 -5.12,16.16 -8,-4.64 z m -3.52,-23.76 12.72,7.04 -7.76,13.2 z m -9.28,-20.08 14.8,5.92 -6.32,11.68 z m -13.28001,13.36 -8.64,-13.76 19.28,0 z m -11.04,-14.72 -16.16001,6.48 12.60001,-9.31995 z m -2.2,-3.39995 12.2,-4.52 -8.72,7.27995 z m 1.56,4.91995 -10.40001,13.2 -6.56,-6.4 z m -4.48,31.6 -16.64001,-5.6 10.56,-10.8 z m -0.08,1.28 -10.72001,10.72 -5.92,-16.32 z m 0.8,0.88 5.2,18.24 -15.92001,-7.44 z m 15.6,31.04 -15.2,-3.44 5.84,-7.36 z m 11.84001,-8.72 7.76,4.4 -16.00001,4.16 z m 15.6,-13.2 5.92,5.6 -10.88,10.24 z m 0.48,-1.2 7.28,-12.4 -1.44,17.84 z m -5.6,-23.2 6.32,-11.52 6.32,18.48 z m -9.36,-20.08 6,-4.71995 8,10.31995 z m -21.28001,0.24 9.44,-7.91995 9.04,7.91995 z m 4.88,-8.79995 -10.38,3.68 6.3,-3.76 z m -12.38,4.82 -10.44001,7.83995 4.74001,-6.02 z m -7.22001,19.41995 -9.92,10.32 3.44,-16.56 z m -5.6,28.96 -8.24,-6.32 2.88,-8.56 z m -7.28,-4.08 7.84,5.92 -2,5.76 z m 25.52001,14.32 -5.92,7.44 -9.36001,-14.56 z m -5.92,8.48 0,0 0,0 z m 15.12,4.08 -5.36,1.2 -6.24,-3.84 z m 18.64001,-3.52 -7.28001,4.56 -5.76,-1.12 z m 12.8,-9.28 -4.4,6.24 -2.72,0.48 z m 6.24,-24.64 3.76,5.2 -5.12,11.44 z m 0.16,-1.84 1.92,-8 1.44,12.72 z m -0.8,-2 -5.76,-16.88 7.92,7.76 z m -13.76,-28.63995 8.72,6.31995 -2,2.24 z m -10.32,1.91995 -8.48001,-7.43995 14.32001,2.8 z m -42.08002,8.24 -0.64,0 2.8,-2.88 z m -4,18.64 -2.8,-4.48 5.84,-10.08 z m -0.32,1.68 -2.4,7.04 -0.16,-11.04 z m 7.44,19.68 8.72001,13.44 -10.80001,-7.52 z m 10.64001,16.24 1.44,0.88 -2.24,-0.96 z m 18.24,4.08 2.56,0.48 -5.04,0.08 z m 19.68001,-5.12 0.56,-0.08 -1.76,0.88 z m 14.16,-14.08 0,0 0.16,-0.4 z m 0.8,-35.2 -6.72,-6.56 2,-2.24 z m -24.80001,-21.19995 -5.68,-1.12 2.24,-0.16 z m -43.44001,16.39995 0.88,0.08 -5.84,10.68 z m 6.64,49.04 6.56001,4.56 -2.48,-0.32 z"
         id="path8735"
         sodipodi:nodetypes="cccccccccccccccccccccccccccccccccccccccccccccccccccccccccccccccccccccccccccccccccccccccccccccccccccccccccccccccccccccccccccccccccccccccccccccccccccccccccccccccccccccccccccccccccccccccccccccccccccccccccccccccccccccccccccccccccccccccccccccc"
         style="fill:#000000;fill-opacity:0" />
    </g>
  </g>
</svg>
