<?xml version="1.0" encoding="UTF-8" standalone="no"?>
<!-- Created with Inkscape (http://www.inkscape.org/) -->

<svg
   xmlns:dc="http://purl.org/dc/elements/1.1/"
   xmlns:cc="http://creativecommons.org/ns#"
   xmlns:rdf="http://www.w3.org/1999/02/22-rdf-syntax-ns#"
   xmlns:svg="http://www.w3.org/2000/svg"
   xmlns="http://www.w3.org/2000/svg"
   xmlns:sodipodi="http://sodipodi.sourceforge.net/DTD/sodipodi-0.dtd"
   xmlns:inkscape="http://www.inkscape.org/namespaces/inkscape"
   width="42.333332mm"
   height="42.333332mm"
   viewBox="0 0 149.99999 150"
   id="svg4759"
   version="1.1"
   inkscape:version="0.91 r13725"
   sodipodi:docname="Hacktivism.svg">
  <defs
     id="defs4761">
    <filter
       inkscape:collect="always"
       style="color-interpolation-filters:sRGB"
       id="filter7680"
       x="-0.0600066"
       width="1.1200132"
       y="-0.059993401"
       height="1.1199868">
      <feGaussianBlur
         inkscape:collect="always"
         stdDeviation="2.499725"
         id="feGaussianBlur7682" />
    </filter>
  </defs>
  <sodipodi:namedview
     id="base"
     pagecolor="#ffffff"
     bordercolor="#666666"
     borderopacity="1.0"
     inkscape:pageopacity="0.0"
     inkscape:pageshadow="2"
     inkscape:zoom="2.2995071"
     inkscape:cx="8.0126756"
     inkscape:cy="61.134715"
     inkscape:document-units="px"
     inkscape:current-layer="layer1"
     showgrid="false"
     fit-margin-top="0"
     fit-margin-left="0"
     fit-margin-right="0"
     fit-margin-bottom="0"
     inkscape:window-width="1366"
     inkscape:window-height="713"
     inkscape:window-x="0"
     inkscape:window-y="27"
     inkscape:window-maximized="1"
     showborder="false" />
  <metadata
     id="metadata4764">
    <rdf:RDF>
      <cc:Work
         rdf:about="">
        <dc:format>image/svg+xml</dc:format>
        <dc:type
           rdf:resource="http://purl.org/dc/dcmitype/StillImage" />
        <dc:title></dc:title>
      </cc:Work>
    </rdf:RDF>
  </metadata>
  <g
     inkscape:label="Layer 1"
     inkscape:groupmode="layer"
     id="layer1"
     transform="translate(-257.7797,-942.90833)">
    <g
       id="g7696"
       inkscape:export-xdpi="90"
       inkscape:export-ydpi="90">
      <rect
         ry="0"
         rx="0"
         style="opacity:1;fill:#333333;fill-opacity:1;stroke:none;stroke-width:6.79094839;stroke-linecap:round;stroke-linejoin:round;stroke-miterlimit:4;stroke-dasharray:none;stroke-dashoffset:0;stroke-opacity:1"
         id="rect5453"
         width="150"
         height="150"
         x="257.77969"
         y="942.90833" />
      <g
         id="g7684">
        <g
           style="fill:#ffffff;filter:url(#filter7680)"
           transform="translate(282.79068,967.9083)"
           id="g6870">
          <polygon
             style="fill:#ffffff"
             points="49.987,0 0,25 0,37.5 49.987,12.5 99.978,37.5 99.978,25 "
             id="polygon6872" />
          <path
             style="fill:#ffffff"
             inkscape:connector-curvature="0"
             d="m 74.978,37.5 0,62.5 18.75,0 0,-62.5 -18.75,0 z m 14.583,8.334 -6.25,0 0,4.166 6.25,0 0,4.167 -3.125,0 0,4.167 3.125,0 0,4.166 -6.25,0 0,4.167 6.25,0 0,4.166 -3.125,0 0,4.167 3.125,0 0,4.167 -6.25,0 0,4.166 6.25,0 0,4.167 -3.125,0 0,4.166 3.125,0 0,4.167 -10.416,0 0,-54.166 10.416,0 0,4.167 z"
             id="path6874" />
          <path
             style="fill:#ffffff"
             inkscape:connector-curvature="0"
             d="m 41.111,48.539 c -5.442,-7.942 -12.465,-9.623 -17.427,-9.623 -3.235,0 -5.497,0.741 -5.593,0.773 -0.307,0.102 -0.586,0.276 -0.814,0.505 l -1.473,1.473 -1.221,0 c 0,-1.151 -0.932,-2.083 -2.083,-2.083 l -4.167,0 c -1.151,0 -2.083,0.932 -2.083,2.083 l 0,6.25 C 6.25,49.068 7.182,50 8.333,50 l 4.167,0 c 1.151,0 2.083,-0.932 2.083,-2.083 l 2.083,0 0,14.245 -1.975,5.929 c -0.071,0.212 -0.108,0.436 -0.108,0.659 l 0,29.166 c 0,1.152 0.932,2.084 2.083,2.084 L 25,100 c 1.151,0 2.083,-0.932 2.083,-2.084 l 0,-29.166 c 0,-0.224 -0.037,-0.447 -0.108,-0.659 L 25,62.162 25,49.149 c 0.903,-0.386 1.961,-0.581 3.158,-0.581 4.905,0 10.302,3.186 10.355,3.218 0.325,0.195 0.684,0.289 1.043,0.293 1.17,0.094 2.15,-0.907 2.15,-2.079 10e-4,-0.569 -0.227,-1.086 -0.595,-1.461 z"
             id="path6876" />
          <path
             style="fill:#ffffff"
             inkscape:connector-curvature="0"
             d="m 58.26,60.588 c 1.029,-1.677 1.978,-3.805 1.994,-6.092 0.014,-2.233 -0.86,-4.301 -2.531,-5.969 -0.539,-0.541 -1.2,-1.082 -1.904,-1.652 -2.256,-1.822 -3.735,-3.174 -3.735,-5.208 0,-2.689 2.569,-5.867 3.558,-6.864 0.81,-0.813 0.808,-2.132 -0.006,-2.946 -0.816,-0.81 -2.13,-0.81 -2.942,0.004 -0.488,0.488 -4.777,4.916 -4.777,9.807 0,4.175 3.052,6.645 5.281,8.447 0.58,0.472 1.133,0.911 1.579,1.359 0.887,0.887 1.314,1.863 1.31,2.982 -0.012,2.254 -1.737,4.703 -2.838,5.969 -7.212,0.11 -13.666,1.624 -13.666,10.408 l 0,8.334 c 0,10.241 5.455,20.833 14.583,20.833 9.473,0 14.583,-10.734 14.583,-20.833 l 0,-8.334 C 68.75,63.367 64.088,61.153 58.26,60.588 Z m 6.323,10.245 0,2.084 -8.333,0 0,-8.289 c 7.053,0.302 8.333,2.246 8.333,6.205 z m -12.5,-6.205 0,8.289 -8.333,0 0,-2.084 c 0,-3.959 1.279,-5.903 8.333,-6.205 z m 2.084,31.205 c -6.433,0 -10.417,-8.65 -10.417,-16.666 l 0,-2.084 20.833,0 0,2.084 c 0,6.921 -3.231,16.666 -10.416,16.666 z"
             id="path6878" />
        </g>
        <g
           id="g6864"
           transform="translate(282.79068,967.9083)"
           style="fill:#cccccc">
          <polygon
             id="polygon6850"
             points="49.987,0 0,25 0,37.5 49.987,12.5 99.978,37.5 99.978,25 "
             style="fill:#cccccc" />
          <path
             id="path6852"
             d="m 74.978,37.5 0,62.5 18.75,0 0,-62.5 -18.75,0 z m 14.583,8.334 -6.25,0 0,4.166 6.25,0 0,4.167 -3.125,0 0,4.167 3.125,0 0,4.166 -6.25,0 0,4.167 6.25,0 0,4.166 -3.125,0 0,4.167 3.125,0 0,4.167 -6.25,0 0,4.166 6.25,0 0,4.167 -3.125,0 0,4.166 3.125,0 0,4.167 -10.416,0 0,-54.166 10.416,0 0,4.167 z"
             inkscape:connector-curvature="0"
             style="fill:#cccccc" />
          <path
             id="path6854"
             d="m 41.111,48.539 c -5.442,-7.942 -12.465,-9.623 -17.427,-9.623 -3.235,0 -5.497,0.741 -5.593,0.773 -0.307,0.102 -0.586,0.276 -0.814,0.505 l -1.473,1.473 -1.221,0 c 0,-1.151 -0.932,-2.083 -2.083,-2.083 l -4.167,0 c -1.151,0 -2.083,0.932 -2.083,2.083 l 0,6.25 C 6.25,49.068 7.182,50 8.333,50 l 4.167,0 c 1.151,0 2.083,-0.932 2.083,-2.083 l 2.083,0 0,14.245 -1.975,5.929 c -0.071,0.212 -0.108,0.436 -0.108,0.659 l 0,29.166 c 0,1.152 0.932,2.084 2.083,2.084 L 25,100 c 1.151,0 2.083,-0.932 2.083,-2.084 l 0,-29.166 c 0,-0.224 -0.037,-0.447 -0.108,-0.659 L 25,62.162 25,49.149 c 0.903,-0.386 1.961,-0.581 3.158,-0.581 4.905,0 10.302,3.186 10.355,3.218 0.325,0.195 0.684,0.289 1.043,0.293 1.17,0.094 2.15,-0.907 2.15,-2.079 10e-4,-0.569 -0.227,-1.086 -0.595,-1.461 z"
             inkscape:connector-curvature="0"
             style="fill:#cccccc" />
          <path
             id="path6856"
             d="m 58.26,60.588 c 1.029,-1.677 1.978,-3.805 1.994,-6.092 0.014,-2.233 -0.86,-4.301 -2.531,-5.969 -0.539,-0.541 -1.2,-1.082 -1.904,-1.652 -2.256,-1.822 -3.735,-3.174 -3.735,-5.208 0,-2.689 2.569,-5.867 3.558,-6.864 0.81,-0.813 0.808,-2.132 -0.006,-2.946 -0.816,-0.81 -2.13,-0.81 -2.942,0.004 -0.488,0.488 -4.777,4.916 -4.777,9.807 0,4.175 3.052,6.645 5.281,8.447 0.58,0.472 1.133,0.911 1.579,1.359 0.887,0.887 1.314,1.863 1.31,2.982 -0.012,2.254 -1.737,4.703 -2.838,5.969 -7.212,0.11 -13.666,1.624 -13.666,10.408 l 0,8.334 c 0,10.241 5.455,20.833 14.583,20.833 9.473,0 14.583,-10.734 14.583,-20.833 l 0,-8.334 C 68.75,63.367 64.088,61.153 58.26,60.588 Z m 6.323,10.245 0,2.084 -8.333,0 0,-8.289 c 7.053,0.302 8.333,2.246 8.333,6.205 z m -12.5,-6.205 0,8.289 -8.333,0 0,-2.084 c 0,-3.959 1.279,-5.903 8.333,-6.205 z m 2.084,31.205 c -6.433,0 -10.417,-8.65 -10.417,-16.666 l 0,-2.084 20.833,0 0,2.084 c 0,6.921 -3.231,16.666 -10.416,16.666 z"
             inkscape:connector-curvature="0"
             style="fill:#cccccc" />
        </g>
      </g>
    </g>
  </g>
</svg>
