<?xml version="1.0" encoding="UTF-8" standalone="no"?>
<!-- Created with Inkscape (http://www.inkscape.org/) -->

<svg
   xmlns:dc="http://purl.org/dc/elements/1.1/"
   xmlns:cc="http://creativecommons.org/ns#"
   xmlns:rdf="http://www.w3.org/1999/02/22-rdf-syntax-ns#"
   xmlns:svg="http://www.w3.org/2000/svg"
   xmlns="http://www.w3.org/2000/svg"
   xmlns:sodipodi="http://sodipodi.sourceforge.net/DTD/sodipodi-0.dtd"
   xmlns:inkscape="http://www.inkscape.org/namespaces/inkscape"
   width="42.333332mm"
   height="42.333332mm"
   viewBox="0 0 149.99999 150"
   id="svg4759"
   version="1.1"
   inkscape:version="0.91 r13725"
   sodipodi:docname="HW integration.svg">
  <defs
     id="defs4761" />
  <sodipodi:namedview
     id="base"
     pagecolor="#ffffff"
     bordercolor="#666666"
     borderopacity="1.0"
     inkscape:pageopacity="0.0"
     inkscape:pageshadow="2"
     inkscape:zoom="4.2230769"
     inkscape:cx="81.111704"
     inkscape:cy="57.777469"
     inkscape:document-units="px"
     inkscape:current-layer="layer1"
     showgrid="false"
     fit-margin-top="0"
     fit-margin-left="0"
     fit-margin-right="0"
     fit-margin-bottom="0"
     inkscape:window-width="1366"
     inkscape:window-height="713"
     inkscape:window-x="0"
     inkscape:window-y="27"
     inkscape:window-maximized="1"
     showborder="false"
     showguides="true"
     inkscape:guide-bbox="true" />
  <metadata
     id="metadata4764">
    <rdf:RDF>
      <cc:Work
         rdf:about="">
        <dc:format>image/svg+xml</dc:format>
        <dc:type
           rdf:resource="http://purl.org/dc/dcmitype/StillImage" />
        <dc:title></dc:title>
      </cc:Work>
    </rdf:RDF>
  </metadata>
  <g
     inkscape:label="Layer 1"
     inkscape:groupmode="layer"
     id="layer1"
     transform="translate(-283.17573,-935.61328)">
    <g
       id="g6812"
       inkscape:export-xdpi="90"
       inkscape:export-ydpi="90">
      <rect
         ry="0"
         rx="0"
         style="opacity:1;fill:#808080;fill-opacity:1;stroke:none;stroke-width:6.79094839;stroke-linecap:round;stroke-linejoin:round;stroke-miterlimit:4;stroke-dasharray:none;stroke-dashoffset:0;stroke-opacity:1"
         id="rect5453"
         width="120"
         height="120"
         x="283.17572"
         y="965.61328" />
      <g
         transform="translate(0.26826937,4.6145979)"
         id="g6775">
        <g
           id="g4527"
           transform="matrix(0.73184192,0,0,0.73184192,-44.46309,274.15149)">
          <path
             id="path4475"
             d="m 492.70755,962.6312 -4.062,0 c -0.634,0 -1.149,0.515 -1.149,1.149 l 0,5.667 -0.256,0.188 c -0.005,-0.25 -0.018,-0.492 -0.06,-0.708 -0.067,-0.344 -0.445,-1.046 -0.903,-0.778 -0.458,0.269 -0.35,1.155 -0.341,1.583 0.007,0.299 0,0.589 -0.015,0.875 l -0.733,0.541 0,-5.091 c 0,-0.747 -0.607,-1.354 -1.354,-1.354 l -0.842,0 -0.003,-10.335 c -0.115,-0.282 -0.994,-0.501 -2.076,-0.501 -1.082,0 -1.961,0.219 -2.077,0.501 l -0.006,10.335 -0.903,0 c -0.747,0 -1.354,0.607 -1.354,1.354 l 0,5.158 -0.712,-0.525 c -0.01,-0.253 -0.013,-0.509 -0.006,-0.771 0.012,-0.426 0.116,-1.315 -0.34,-1.583 -0.48,-0.281 -0.8,0.451 -0.903,0.778 -0.058,0.184 -0.083,0.38 -0.097,0.581 l -0.193,-0.143 0,-5.773 c 0,-0.634 -0.515,-1.149 -1.149,-1.149 l -4.062,0 c -0.634,0 -1.149,0.515 -1.149,1.149 l 0,16.645 c 0,0.634 0.515,1.149 1.149,1.149 l 4.062,0 c 0.634,0 1.149,-0.515 1.149,-1.149 l 0,-7.419 c 0.42,-0.387 0.604,-0.829 0.671,-1.46 0.014,-0.135 0.012,-0.274 0.013,-0.412 l 0.479,0.354 c 0.016,0.236 0.026,0.471 0.051,0.709 0.094,0.875 0.514,1.482 1.037,2.15 l 0,8.124 c 0,0.747 0.607,1.354 1.354,1.354 l 0.892,0 -0.02,15.29136 4.213,0 -0.013,-15.29236 0.836,0 c 0.746,0 1.354,-0.607 1.354,-1.354 l 0,-8.27 c 0.442,-0.559 0.938,-1.14 1.028,-1.873 0.038,-0.313 0.066,-0.623 0.097,-0.933 l 0.476,-0.351 0,0.017 c 0.003,0.743 0.198,1.308 0.707,1.771 l 0,7.593 c 0,0.634 0.516,1.149 1.149,1.149 l 4.062,0 c 0.634,0 1.149,-0.515 1.149,-1.149 l 0,-16.643 c -10e-4,-0.634 -0.516,-1.149 -1.15,-1.149 z m -19.373,17.794 c 0,0.087 -0.074,0.161 -0.161,0.161 l -4.062,0 c -0.087,0 -0.161,-0.074 -0.161,-0.161 l 0,-16.645 c 0,-0.087 0.074,-0.161 0.161,-0.161 l 4.062,0 c 0.087,0 0.161,0.074 0.161,0.161 z m 0.988,-8.23 0,-1.566 0.197,0.145 c 0.016,0.505 0.004,1 -0.197,1.421 z m 0.695,-2.129 c 0.063,-0.5 0.288,-1.509 0.339,-0.752 0.024,0.349 0.039,0.696 0.055,1.043 z m 1.557,3.377 c -0.283,-0.502 -0.468,-1.028 -0.578,-1.579 l 0.578,0.426 z m 7.45,9.027 c 0,0.103 -0.087,0.189 -0.189,0.189 l -5.907,0 c -0.103,0 -0.189,-0.087 -0.189,-0.189 l 0,-16.413 c 0,-0.103 0.087,-0.189 0.189,-0.189 l 5.907,0 c 0.103,0 0.189,0.087 0.189,0.189 z m 1.164,-9.158 0,-1.087 0.582,-0.429 c -0.114,0.527 -0.301,1.032 -0.582,1.516 z m 1.206,-3.054 c 0.016,-0.306 0.038,-0.611 0.037,-0.92 -0.004,-1.058 0.326,-0.039 0.356,0.469 0.003,0.053 10e-4,0.107 0.002,0.16 z m 1.102,1.732 c -0.173,-0.378 -0.235,-0.821 -0.246,-1.286 l 0.246,-0.182 z m 5.372,8.435 c 0,0.087 -0.074,0.161 -0.161,0.161 l -4.062,0 c -0.087,0 -0.161,-0.074 -0.161,-0.161 l 0,-16.645 c 0,-0.087 0.074,-0.161 0.161,-0.161 l 4.062,0 c 0.087,0 0.161,0.074 0.161,0.161 z"
             inkscape:connector-curvature="0"
             sodipodi:nodetypes="ssscccccccssccsccsscccccccssssssssccccccssccccssccccccsssscssssssssssccccccccccccssssssssscccccccccccccsssssssss" />
          <path
             id="path4477"
             d="m 503.63955,974.9632 c -0.009,-0.01 -0.017,-0.027 -0.027,-0.029 -0.233,-0.043 -0.378,-0.189 -0.445,-0.406 -0.043,-0.136 -0.005,-0.279 0.082,-0.384 0.105,-0.128 0.244,-0.229 0.358,-0.35 0.16,-0.17 0.318,-0.342 0.464,-0.525 0.154,-0.194 0.296,-0.398 0.435,-0.604 0.066,-0.099 0.115,-0.209 0.167,-0.316 0.086,-0.177 0.172,-0.355 0.251,-0.535 0.036,-0.082 0.061,-0.168 0.086,-0.253 0.036,-0.122 0.068,-0.246 0.103,-0.369 0.089,-0.318 0.138,-0.643 0.148,-0.973 0.007,-0.19 0.032,-0.381 0.023,-0.57 -0.012,-0.255 -0.039,-0.51 -0.078,-0.763 -0.031,-0.198 -0.081,-0.395 -0.138,-0.588 -0.057,-0.191 -0.121,-0.381 -0.202,-0.563 -0.106,-0.239 -0.219,-0.479 -0.354,-0.703 -0.133,-0.221 -0.283,-0.434 -0.449,-0.631 -0.204,-0.242 -0.423,-0.474 -0.651,-0.692 -0.112,-0.108 -0.21,-0.217 -0.249,-0.367 -0.034,-0.135 0.03,-0.318 0.143,-0.433 0.095,-0.098 0.217,-0.137 0.334,-0.191 0.088,0 0.177,0 0.265,0 0.092,0.05 0.194,0.086 0.272,0.152 0.146,0.125 0.284,0.261 0.415,0.402 0.136,0.145 0.26,0.3 0.388,0.452 0.048,0.058 0.093,0.12 0.137,0.181 0.085,0.117 0.172,0.233 0.253,0.354 0.062,0.092 0.115,0.19 0.17,0.287 0.082,0.146 0.168,0.292 0.241,0.442 0.066,0.139 0.113,0.287 0.178,0.427 0.112,0.246 0.19,0.504 0.255,0.766 0.054,0.22 0.099,0.443 0.136,0.667 0.033,0.197 0.05,0.397 0.074,0.596 0,0.264 0,0.529 0,0.793 -0.016,0.104 -0.037,0.207 -0.045,0.311 -0.02,0.287 -0.065,0.569 -0.143,0.847 -0.038,0.138 -0.07,0.277 -0.108,0.415 -0.024,0.085 -0.05,0.17 -0.082,0.253 -0.059,0.151 -0.12,0.301 -0.185,0.45 -0.05,0.116 -0.101,0.232 -0.16,0.343 -0.079,0.148 -0.164,0.293 -0.253,0.436 -0.081,0.13 -0.169,0.256 -0.258,0.381 -0.071,0.1 -0.145,0.198 -0.222,0.293 -0.105,0.131 -0.21,0.264 -0.325,0.387 -0.119,0.128 -0.25,0.244 -0.375,0.367 -0.098,0.096 -0.191,0.197 -0.339,0.215 -0.009,10e-4 -0.017,0.02 -0.024,0.03 -0.089,-0.002 -0.178,-0.002 -0.266,-0.002 z"
             inkscape:connector-curvature="0"
             style="clip-rule:evenodd;fill-rule:evenodd" />
          <path
             id="path4479"
             d="m 504.19855,969.7332 c -0.021,0.283 -0.023,0.504 -0.055,0.721 -0.03,0.209 -0.079,0.417 -0.14,0.62 -0.056,0.189 -0.13,0.374 -0.211,0.554 -0.064,0.143 -0.15,0.277 -0.231,0.413 -0.07,0.119 -0.141,0.237 -0.222,0.349 -0.182,0.25 -0.388,0.477 -0.617,0.686 -0.112,0.102 -0.224,0.201 -0.37,0.235 -0.091,0.021 -0.194,0.023 -0.284,0.002 -0.153,-0.036 -0.286,-0.112 -0.397,-0.235 -0.141,-0.157 -0.138,-0.434 0.013,-0.576 0.134,-0.125 0.273,-0.245 0.403,-0.374 0.093,-0.091 0.181,-0.189 0.259,-0.293 0.094,-0.124 0.18,-0.254 0.263,-0.386 0.054,-0.088 0.101,-0.182 0.143,-0.277 0.097,-0.219 0.178,-0.443 0.228,-0.679 0.077,-0.37 0.094,-0.743 0.047,-1.116 -0.026,-0.212 -0.078,-0.422 -0.142,-0.626 -0.051,-0.165 -0.128,-0.324 -0.208,-0.479 -0.069,-0.133 -0.153,-0.26 -0.241,-0.382 -0.097,-0.134 -0.198,-0.267 -0.311,-0.388 -0.103,-0.11 -0.22,-0.208 -0.337,-0.305 -0.173,-0.144 -0.26,-0.297 -0.203,-0.521 0.035,-0.142 0.142,-0.229 0.256,-0.305 0.177,-0.118 0.376,-0.127 0.57,-0.071 0.095,0.027 0.187,0.093 0.261,0.161 0.148,0.136 0.29,0.281 0.423,0.433 0.112,0.128 0.211,0.268 0.311,0.407 0.085,0.121 0.17,0.243 0.242,0.372 0.069,0.122 0.131,0.249 0.18,0.378 0.079,0.209 0.149,0.421 0.215,0.635 0.035,0.117 0.06,0.238 0.075,0.359 0.032,0.249 0.058,0.499 0.08,0.688 z"
             inkscape:connector-curvature="0"
             style="clip-rule:evenodd;fill-rule:evenodd" />
          <path
             id="path4481"
             d="m 501.93655,969.8262 c -0.034,0.219 -0.054,0.451 -0.109,0.674 -0.048,0.194 -0.123,0.382 -0.22,0.562 -0.095,0.175 -0.198,0.342 -0.322,0.493 -0.09,0.11 -0.179,0.231 -0.317,0.289 -0.147,0.062 -0.301,0.056 -0.449,0.012 -0.136,-0.041 -0.24,-0.128 -0.329,-0.24 -0.102,-0.127 -0.104,-0.27 -0.058,-0.409 0.03,-0.09 0.091,-0.176 0.156,-0.246 0.132,-0.141 0.241,-0.292 0.329,-0.464 0.104,-0.203 0.148,-0.417 0.155,-0.636 0.007,-0.237 -0.018,-0.477 -0.119,-0.698 -0.091,-0.197 -0.211,-0.371 -0.363,-0.53 -0.134,-0.14 -0.227,-0.308 -0.171,-0.52 0.034,-0.128 0.129,-0.208 0.222,-0.288 0.104,-0.091 0.242,-0.12 0.37,-0.126 0.173,-0.009 0.335,0.056 0.449,0.2 0.132,0.166 0.27,0.329 0.384,0.506 0.082,0.128 0.139,0.276 0.19,0.421 0.056,0.155 0.102,0.315 0.134,0.476 0.033,0.167 0.045,0.34 0.068,0.524 z"
             inkscape:connector-curvature="0"
             style="clip-rule:evenodd;fill-rule:evenodd" />
          <ellipse
             id="ellipse4483"
             ry="0.67199999"
             rx="0.70300001"
             cy="969.83618"
             cx="499.13055"
             style="clip-rule:evenodd;fill-rule:evenodd" />
          <path
             id="path4485"
             d="m 458.63555,975.0412 c 0.009,-0.01 0.017,-0.027 0.027,-0.029 0.233,-0.043 0.378,-0.189 0.445,-0.406 0.043,-0.136 0.005,-0.279 -0.082,-0.384 -0.105,-0.128 -0.244,-0.229 -0.358,-0.35 -0.16,-0.17 -0.318,-0.342 -0.464,-0.525 -0.154,-0.194 -0.296,-0.398 -0.435,-0.604 -0.066,-0.099 -0.115,-0.209 -0.167,-0.316 -0.086,-0.177 -0.172,-0.355 -0.251,-0.535 -0.036,-0.082 -0.061,-0.168 -0.086,-0.253 -0.036,-0.122 -0.068,-0.246 -0.103,-0.369 -0.089,-0.318 -0.138,-0.643 -0.148,-0.973 -0.007,-0.19 -0.032,-0.381 -0.023,-0.57 0.012,-0.255 0.039,-0.51 0.078,-0.763 0.031,-0.198 0.081,-0.395 0.138,-0.588 0.057,-0.191 0.121,-0.381 0.202,-0.563 0.106,-0.239 0.219,-0.479 0.354,-0.703 0.133,-0.221 0.283,-0.434 0.449,-0.631 0.204,-0.242 0.423,-0.474 0.651,-0.692 0.112,-0.108 0.21,-0.217 0.249,-0.367 0.034,-0.135 -0.03,-0.318 -0.143,-0.433 -0.095,-0.098 -0.217,-0.137 -0.334,-0.191 -0.088,0 -0.177,0 -0.265,0 -0.092,0.05 -0.194,0.086 -0.272,0.152 -0.146,0.125 -0.284,0.261 -0.415,0.402 -0.136,0.145 -0.26,0.3 -0.388,0.452 -0.048,0.058 -0.093,0.12 -0.137,0.181 -0.085,0.117 -0.172,0.233 -0.253,0.354 -0.062,0.092 -0.115,0.19 -0.17,0.287 -0.082,0.146 -0.168,0.292 -0.241,0.442 -0.066,0.139 -0.113,0.287 -0.178,0.427 -0.112,0.246 -0.19,0.504 -0.255,0.766 -0.054,0.22 -0.099,0.443 -0.136,0.667 -0.033,0.197 -0.05,0.397 -0.074,0.596 0,0.264 0,0.529 0,0.793 0.016,0.104 0.037,0.207 0.045,0.311 0.02,0.287 0.065,0.569 0.143,0.847 0.038,0.138 0.07,0.277 0.108,0.415 0.024,0.085 0.05,0.17 0.082,0.253 0.059,0.151 0.12,0.301 0.185,0.45 0.05,0.116 0.101,0.232 0.16,0.343 0.079,0.148 0.164,0.293 0.253,0.436 0.081,0.13 0.169,0.256 0.258,0.381 0.071,0.1 0.145,0.198 0.222,0.293 0.105,0.131 0.21,0.264 0.325,0.387 0.119,0.128 0.25,0.244 0.375,0.367 0.098,0.096 0.191,0.197 0.339,0.215 0.009,10e-4 0.017,0.02 0.024,0.03 0.089,-0.002 0.178,-0.002 0.266,-0.002 z"
             inkscape:connector-curvature="0"
             style="clip-rule:evenodd;fill-rule:evenodd" />
          <path
             id="path4487"
             d="m 458.07655,969.8112 c 0.021,0.283 0.023,0.504 0.055,0.721 0.03,0.209 0.079,0.417 0.14,0.62 0.056,0.189 0.13,0.374 0.211,0.554 0.064,0.143 0.15,0.277 0.231,0.413 0.07,0.119 0.141,0.237 0.222,0.349 0.182,0.25 0.388,0.477 0.617,0.686 0.112,0.102 0.224,0.201 0.37,0.235 0.091,0.021 0.194,0.023 0.284,0.002 0.153,-0.036 0.286,-0.112 0.397,-0.235 0.141,-0.157 0.138,-0.434 -0.013,-0.576 -0.134,-0.125 -0.273,-0.245 -0.403,-0.374 -0.093,-0.091 -0.181,-0.189 -0.259,-0.293 -0.094,-0.124 -0.18,-0.254 -0.263,-0.386 -0.054,-0.088 -0.101,-0.182 -0.143,-0.277 -0.097,-0.219 -0.178,-0.443 -0.228,-0.679 -0.077,-0.37 -0.094,-0.743 -0.047,-1.116 0.026,-0.212 0.078,-0.422 0.142,-0.626 0.051,-0.165 0.128,-0.324 0.208,-0.479 0.069,-0.133 0.153,-0.26 0.241,-0.382 0.097,-0.134 0.198,-0.267 0.311,-0.388 0.103,-0.11 0.22,-0.208 0.337,-0.305 0.173,-0.144 0.26,-0.297 0.203,-0.521 -0.035,-0.142 -0.142,-0.229 -0.256,-0.305 -0.177,-0.118 -0.376,-0.127 -0.57,-0.071 -0.095,0.027 -0.187,0.093 -0.261,0.161 -0.148,0.136 -0.29,0.281 -0.423,0.433 -0.112,0.128 -0.211,0.268 -0.311,0.407 -0.085,0.121 -0.17,0.243 -0.242,0.372 -0.069,0.122 -0.131,0.249 -0.18,0.378 -0.079,0.209 -0.149,0.421 -0.215,0.635 -0.035,0.117 -0.06,0.238 -0.075,0.359 -0.032,0.249 -0.058,0.499 -0.08,0.688 z"
             inkscape:connector-curvature="0"
             style="clip-rule:evenodd;fill-rule:evenodd" />
          <path
             id="path4489"
             d="m 460.33855,969.9042 c 0.034,0.219 0.054,0.451 0.109,0.674 0.048,0.194 0.123,0.382 0.22,0.562 0.095,0.175 0.198,0.342 0.322,0.493 0.09,0.11 0.179,0.231 0.317,0.289 0.147,0.062 0.301,0.056 0.449,0.012 0.136,-0.041 0.24,-0.128 0.329,-0.24 0.102,-0.127 0.104,-0.27 0.058,-0.409 -0.03,-0.09 -0.091,-0.176 -0.156,-0.246 -0.132,-0.141 -0.241,-0.292 -0.329,-0.464 -0.104,-0.203 -0.148,-0.417 -0.155,-0.636 -0.007,-0.237 0.018,-0.477 0.119,-0.698 0.091,-0.197 0.211,-0.371 0.363,-0.53 0.134,-0.14 0.227,-0.308 0.171,-0.52 -0.034,-0.128 -0.129,-0.208 -0.222,-0.288 -0.104,-0.091 -0.242,-0.12 -0.37,-0.126 -0.173,-0.009 -0.335,0.056 -0.449,0.2 -0.132,0.166 -0.27,0.329 -0.384,0.506 -0.082,0.128 -0.139,0.276 -0.19,0.421 -0.056,0.155 -0.102,0.315 -0.134,0.476 -0.033,0.168 -0.045,0.34 -0.068,0.524 z"
             inkscape:connector-curvature="0"
             style="clip-rule:evenodd;fill-rule:evenodd" />
          <ellipse
             id="ellipse4491"
             ry="0.67199999"
             rx="0.70300001"
             cy="969.91418"
             cx="463.14456"
             style="clip-rule:evenodd;fill-rule:evenodd" />
        </g>
        <path
           id="path6058"
           d="m 297.47563,1007.4502 c 0,-1.3698 1.11429,-2.484 2.48407,-2.484 l 15.29424,0 c 1.36979,0 2.48408,1.1142 2.48408,2.484 l 0,14.2089 c 0,0.1356 -0.0138,0.2677 -0.0349,0.3974 0.0215,0.058 0.0349,0.1192 0.0349,0.1842 l 0,1.6687 c 0,1.3698 -1.11429,2.4841 -2.48408,2.4841 l -15.29424,0 c -1.36978,0 -2.48407,-1.1143 -2.48407,-2.4841 l 0,-1.5137 c 0,-0.082 0.02,-0.1579 0.053,-0.227 -0.0345,-0.1646 -0.053,-0.3349 -0.053,-0.5096 l 0,-14.2089 z m 19.20457,0 c 0,-0.7864 -0.63978,-1.4262 -1.42626,-1.4262 l -15.29424,0 c -0.78647,0 -1.42625,0.6398 -1.42625,1.4262 l 0,14.2089 c 0,0.7865 0.63978,1.4263 1.42625,1.4263 l 15.29424,0 c 0.78648,0 1.42626,-0.6398 1.42626,-1.4263 l 0,-14.2089 z m -16.7205,17.8854 15.29424,0 c 0.78648,0 1.42626,-0.6397 1.42626,-1.4262 l 0,-0.2197 c -0.4041,0.2847 -0.89543,0.4535 -1.42626,0.4535 l -15.29424,0 c -0.53082,0 -1.02215,-0.1688 -1.42625,-0.4535 l 0,0.2197 c 0,0.7865 0.63978,1.4262 1.42625,1.4262 z"
           inkscape:connector-curvature="0" />
        <g
           id="g6642"
           transform="matrix(0.33849827,0,0,0.33849827,204.78024,653.92009)">
          <path
             id="path6571"
             d="m 508.22888,989.97287 -68.2,0 a 10.73,10.73 0 0 0 -10.9,10.52003 l 0,42 c 0,6.2 4.94,11.48 10.9,11.48 l 13.1,0 0,2.58 a 1.45,1.45 0 0 0 1.62,1.42 l 38.54,0 a 1.48,1.48 0 0 0 1.5,-0.8 c 0,0 0.11,0 0.12,0 a 1.62,1.62 0 0 0 0.22,-0.61 l 0,-2.59 13.1,0 c 6.18,0 10.9,-5.51 10.9,-11.35 l 0,-42 a 10.68,10.68 0 0 0 -10.9,-10.65003 z m 6.9,52.54003 c 0,3.6 -3.53,6.46 -7,6.46 l -68.1,0 c -3.6,0 -6.9,-3 -6.9,-6.46 l 0,-42 c 0,-3.62003 3.42,-6.54003 6.9,-6.54003 l 68.1,0 c 3.6,0 7,3 7,6.52003 z"
             inkscape:connector-curvature="0" />
          <path
             id="path6573"
             d="m 495.86888,1001.1629 a 2.25,2.25 0 1 0 2.26,2.25 2.07,2.07 0 0 0 -2.26,-2.25 z"
             inkscape:connector-curvature="0" />
          <path
             id="path6575"
             d="m 441.93888,1038.3529 a 2.25,2.25 0 1 0 2.25,2.25 2.12,2.12 0 0 0 -2.25,-2.25 z"
             inkscape:connector-curvature="0" />
          <path
             id="path6577"
             d="m 441.93888,1030.7129 a 2.25,2.25 0 1 0 2.25,2.26 2.07,2.07 0 0 0 -2.25,-2.26 z"
             inkscape:connector-curvature="0" />
          <path
             id="path6579"
             d="m 441.93888,1022.9729 a 2.25,2.25 0 1 0 2.25,2.25 2.07,2.07 0 0 0 -2.25,-2.25 z"
             inkscape:connector-curvature="0" />
        </g>
        <g
           id="g6756"
           transform="translate(-2,0)">
          <g
             transform="matrix(0.70710678,0.70710678,-0.70710678,0.70710678,843.38945,65.735625)"
             id="g6751">
            <path
               inkscape:connector-curvature="0"
               d="m 351.93893,1067.004 c -0.095,-0.071 -0.20557,-0.1047 -0.31542,-0.1047 -0.16149,0 -0.32092,0.074 -0.42457,0.2132 -1.36083,1.8291 -3.44685,2.8783 -5.72329,2.8783 -2.27643,0 -4.36245,-1.0492 -5.72328,-2.8783 -0.17424,-0.2345 -0.50515,-0.2831 -0.73999,-0.1085 -0.23415,0.1743 -0.28305,0.5055 -0.10847,0.74 1.5392,2.0691 3.99608,3.3046 6.57174,3.3046 2.57602,0 5.03289,-1.2355 6.57175,-3.3046 0.17458,-0.2345 0.12568,-0.5657 -0.10847,-0.74 z"
               id="path6678" />
            <path
               inkscape:connector-curvature="0"
               d="m 341.79086,1065.4473 c -0.16803,-0.2394 -0.49757,-0.2969 -0.73689,-0.1288 -0.23897,0.168 -0.29682,0.4979 -0.12878,0.7369 1.0406,1.4813 2.74199,2.3659 4.55046,2.3659 1.80848,0 3.50952,-0.8846 4.55081,-2.3659 0.1677,-0.239 0.11019,-0.5689 -0.12878,-0.7369 -0.0923,-0.065 -0.19869,-0.096 -0.30371,-0.096 -0.16632,0 -0.33022,0.078 -0.43318,0.2249 -0.84329,1.2 -2.22065,1.9162 -3.68514,1.9162 -1.46448,0 -2.84184,-0.7162 -3.68479,-1.9162 z"
               id="path6680" />
            <path
               inkscape:connector-curvature="0"
               d="m 345.47565,1066.0647 c 1.11532,0 2.1666,-0.594 2.74302,-1.5503 0.15082,-0.25 0.0706,-0.575 -0.17974,-0.7258 -0.0854,-0.052 -0.17941,-0.076 -0.27272,-0.076 -0.17906,0 -0.35398,0.091 -0.45315,0.2558 -0.39221,0.6501 -1.07917,1.0385 -1.83741,1.0385 -0.75789,0 -1.44451,-0.388 -1.83671,-1.0378 -0.15048,-0.2507 -0.47657,-0.3299 -0.72587,-0.1797 -0.25034,0.1508 -0.33057,0.4758 -0.17975,0.7258 0.57643,0.9559 1.62736,1.5496 2.74233,1.5496 z"
               id="path6682" />
          </g>
          <path
             id="path6684"
             d="m 335.34446,1059.9919 c 0,1.3698 1.11429,2.484 2.48407,2.484 l 15.29424,0 c 1.36979,0 2.48408,-1.1142 2.48408,-2.484 l 0,-14.2089 c 0,-0.1356 -0.0138,-0.2677 -0.0349,-0.3974 0.0215,-0.058 0.0349,-0.1192 0.0349,-0.1842 l 0,-1.6687 c 0,-1.3698 -1.11429,-2.4841 -2.48408,-2.4841 l -15.29424,0 c -1.36978,0 -2.48407,1.1143 -2.48407,2.4841 l 0,1.5137 c 0,0.082 0.02,0.1579 0.053,0.227 -0.0345,0.1646 -0.053,0.3349 -0.053,0.5096 l 0,14.2089 z m 19.20457,0 c 0,0.7864 -0.63978,1.4262 -1.42626,1.4262 l -15.29424,0 c -0.78647,0 -1.42625,-0.6398 -1.42625,-1.4262 l 0,-14.2089 c 0,-0.7865 0.63978,-1.4263 1.42625,-1.4263 l 15.29424,0 c 0.78648,0 1.42626,0.6398 1.42626,1.4263 l 0,14.2089 z m -16.7205,-17.8854 15.29424,0 c 0.78648,0 1.42626,0.6397 1.42626,1.4262 l 0,0.2197 c -0.4041,-0.2847 -0.89543,-0.4535 -1.42626,-0.4535 l -15.29424,0 c -0.53082,0 -1.02215,0.1688 -1.42625,0.4535 l 0,-0.2197 c 0,-0.7865 0.63978,-1.4262 1.42625,-1.4262 z"
             inkscape:connector-curvature="0" />
        </g>
        <path
           style="fill:none;fill-rule:evenodd;stroke:#000000;stroke-width:1;stroke-linecap:round;stroke-linejoin:round;stroke-miterlimit:4;stroke-dasharray:2, 2;stroke-dashoffset:0;stroke-opacity:1"
           d="m 360.13383,1010.5495 0,7.1038 -43.09654,0"
           id="path6696"
           inkscape:connector-curvature="0"
           sodipodi:nodetypes="ccc" />
        <path
           inkscape:connector-curvature="0"
           id="path6698"
           d="m 365.3178,1010.5495 0,18.6812 -21.77778,0 0,12.1021"
           style="fill:none;fill-rule:evenodd;stroke:#000000;stroke-width:1;stroke-linecap:round;stroke-linejoin:round;stroke-miterlimit:4;stroke-dasharray:2, 2;stroke-dashoffset:0;stroke-opacity:1"
           sodipodi:nodetypes="cccc" />
        <path
           sodipodi:nodetypes="cccc"
           style="fill:none;fill-rule:evenodd;stroke:#000000;stroke-width:1;stroke-linecap:round;stroke-linejoin:round;stroke-miterlimit:4;stroke-dasharray:2, 2;stroke-dashoffset:0;stroke-opacity:1"
           d="m 370.2504,1010.5495 0,19.1548 13.88343,0 0,11.6285"
           id="path6700"
           inkscape:connector-curvature="0" />
        <text
           xml:space="preserve"
           style="font-style:normal;font-weight:normal;font-size:40px;line-height:125%;font-family:sans-serif;letter-spacing:0px;word-spacing:0px;fill:#000000;fill-opacity:1;stroke:none;stroke-width:1px;stroke-linecap:butt;stroke-linejoin:miter;stroke-opacity:1"
           x="381.6821"
           y="980.00305"
           id="text6706"
           sodipodi:linespacing="125%"><tspan
             sodipodi:role="line"
             id="tspan6708"
             x="381.6821"
             y="980.00305"
             style="font-size:10px">ISP</tspan></text>
        <path
           inkscape:connector-curvature="0"
           id="path6710"
           d="m 365.54002,989.6025 0,-13.1038 14.80511,0"
           style="fill:none;fill-rule:evenodd;stroke:#000000;stroke-width:1;stroke-linecap:round;stroke-linejoin:round;stroke-miterlimit:4;stroke-dasharray:2, 2;stroke-dashoffset:0;stroke-opacity:1"
           sodipodi:nodetypes="ccc" />
        <g
           id="g6763"
           transform="translate(38,0)">
          <g
             id="g6765"
             transform="matrix(0.70710678,0.70710678,-0.70710678,0.70710678,843.38945,65.735625)">
            <path
               id="path6767"
               d="m 351.93893,1067.004 c -0.095,-0.071 -0.20557,-0.1047 -0.31542,-0.1047 -0.16149,0 -0.32092,0.074 -0.42457,0.2132 -1.36083,1.8291 -3.44685,2.8783 -5.72329,2.8783 -2.27643,0 -4.36245,-1.0492 -5.72328,-2.8783 -0.17424,-0.2345 -0.50515,-0.2831 -0.73999,-0.1085 -0.23415,0.1743 -0.28305,0.5055 -0.10847,0.74 1.5392,2.0691 3.99608,3.3046 6.57174,3.3046 2.57602,0 5.03289,-1.2355 6.57175,-3.3046 0.17458,-0.2345 0.12568,-0.5657 -0.10847,-0.74 z"
               inkscape:connector-curvature="0" />
            <path
               id="path6769"
               d="m 341.79086,1065.4473 c -0.16803,-0.2394 -0.49757,-0.2969 -0.73689,-0.1288 -0.23897,0.168 -0.29682,0.4979 -0.12878,0.7369 1.0406,1.4813 2.74199,2.3659 4.55046,2.3659 1.80848,0 3.50952,-0.8846 4.55081,-2.3659 0.1677,-0.239 0.11019,-0.5689 -0.12878,-0.7369 -0.0923,-0.065 -0.19869,-0.096 -0.30371,-0.096 -0.16632,0 -0.33022,0.078 -0.43318,0.2249 -0.84329,1.2 -2.22065,1.9162 -3.68514,1.9162 -1.46448,0 -2.84184,-0.7162 -3.68479,-1.9162 z"
               inkscape:connector-curvature="0" />
            <path
               id="path6771"
               d="m 345.47565,1066.0647 c 1.11532,0 2.1666,-0.594 2.74302,-1.5503 0.15082,-0.25 0.0706,-0.575 -0.17974,-0.7258 -0.0854,-0.052 -0.17941,-0.076 -0.27272,-0.076 -0.17906,0 -0.35398,0.091 -0.45315,0.2558 -0.39221,0.6501 -1.07917,1.0385 -1.83741,1.0385 -0.75789,0 -1.44451,-0.388 -1.83671,-1.0378 -0.15048,-0.2507 -0.47657,-0.3299 -0.72587,-0.1797 -0.25034,0.1508 -0.33057,0.4758 -0.17975,0.7258 0.57643,0.9559 1.62736,1.5496 2.74233,1.5496 z"
               inkscape:connector-curvature="0" />
          </g>
          <path
             inkscape:connector-curvature="0"
             d="m 335.34446,1059.9919 c 0,1.3698 1.11429,2.484 2.48407,2.484 l 15.29424,0 c 1.36979,0 2.48408,-1.1142 2.48408,-2.484 l 0,-14.2089 c 0,-0.1356 -0.0138,-0.2677 -0.0349,-0.3974 0.0215,-0.058 0.0349,-0.1192 0.0349,-0.1842 l 0,-1.6687 c 0,-1.3698 -1.11429,-2.4841 -2.48408,-2.4841 l -15.29424,0 c -1.36978,0 -2.48407,1.1143 -2.48407,2.4841 l 0,1.5137 c 0,0.082 0.02,0.1579 0.053,0.227 -0.0345,0.1646 -0.053,0.3349 -0.053,0.5096 l 0,14.2089 z m 19.20457,0 c 0,0.7864 -0.63978,1.4262 -1.42626,1.4262 l -15.29424,0 c -0.78647,0 -1.42625,-0.6398 -1.42625,-1.4262 l 0,-14.2089 c 0,-0.7865 0.63978,-1.4263 1.42625,-1.4263 l 15.29424,0 c 0.78648,0 1.42626,0.6398 1.42626,1.4263 l 0,14.2089 z m -16.7205,-17.8854 15.29424,0 c 0.78648,0 1.42626,0.6397 1.42626,1.4262 l 0,0.2197 c -0.4041,-0.2847 -0.89543,-0.4535 -1.42626,-0.4535 l -15.29424,0 c -0.53082,0 -1.02215,0.1688 -1.42625,0.4535 l 0,-0.2197 c 0,-0.7865 0.63978,-1.4262 1.42625,-1.4262 z"
             id="path6773" />
        </g>
      </g>
    </g>
  </g>
  <style
     id="style6048"
     type="text/css">
	.st0{fill:#1D1D1B;}
</style>
</svg>
