<?xml version="1.0" encoding="UTF-8" standalone="no"?>
<!-- Created with Inkscape (http://www.inkscape.org/) -->

<svg
   xmlns:dc="http://purl.org/dc/elements/1.1/"
   xmlns:cc="http://creativecommons.org/ns#"
   xmlns:rdf="http://www.w3.org/1999/02/22-rdf-syntax-ns#"
   xmlns:svg="http://www.w3.org/2000/svg"
   xmlns="http://www.w3.org/2000/svg"
   xmlns:sodipodi="http://sodipodi.sourceforge.net/DTD/sodipodi-0.dtd"
   xmlns:inkscape="http://www.inkscape.org/namespaces/inkscape"
   width="36.124443mm"
   height="36.124443mm"
   viewBox="0 0 127.99999 128"
   id="svg4759"
   version="1.1"
   inkscape:version="0.91 r13725"
   sodipodi:docname="Identity.svg">
  <defs
     id="defs4761">
    <filter
       inkscape:collect="always"
       style="color-interpolation-filters:sRGB"
       id="filter4957"
       x="-0.067469962"
       width="1.1349399"
       y="-0.054019243"
       height="1.1080385">
      <feGaussianBlur
         inkscape:collect="always"
         stdDeviation="2.1978713"
         id="feGaussianBlur4959" />
    </filter>
  </defs>
  <sodipodi:namedview
     id="base"
     pagecolor="#ffffff"
     bordercolor="#666666"
     borderopacity="1.0"
     inkscape:pageopacity="0.0"
     inkscape:pageshadow="2"
     inkscape:zoom="1"
     inkscape:cx="153.1207"
     inkscape:cy="61.897662"
     inkscape:document-units="px"
     inkscape:current-layer="layer1"
     showgrid="false"
     fit-margin-top="0"
     fit-margin-left="0"
     fit-margin-right="0"
     fit-margin-bottom="0"
     inkscape:window-width="1366"
     inkscape:window-height="713"
     inkscape:window-x="0"
     inkscape:window-y="27"
     inkscape:window-maximized="1"
     showborder="false" />
  <metadata
     id="metadata4764">
    <rdf:RDF>
      <cc:Work
         rdf:about="">
        <dc:format>image/svg+xml</dc:format>
        <dc:type
           rdf:resource="http://purl.org/dc/dcmitype/StillImage" />
        <dc:title></dc:title>
      </cc:Work>
    </rdf:RDF>
  </metadata>
  <g
     inkscape:label="Layer 1"
     inkscape:groupmode="layer"
     id="layer1"
     transform="translate(-259.28568,-970.79077)">
    <g
       id="g11004"
       transform="matrix(0.85333333,0,0,0.85333333,38.028566,161.15598)"
       inkscape:export-xdpi="90"
       inkscape:export-ydpi="90">
      <rect
         ry="0"
         rx="0"
         style="opacity:1;fill:#333333;fill-opacity:1;stroke:none;stroke-width:6.79094839;stroke-linecap:round;stroke-linejoin:round;stroke-miterlimit:4;stroke-dasharray:none;stroke-dashoffset:0;stroke-opacity:1"
         id="rect5453"
         width="150"
         height="150"
         x="259.28568"
         y="948.79077" />
      <g
         transform="translate(9.9773888,-12.166378)"
         id="g10946">
        <g
           transform="matrix(0.90160033,0,0,0.90160033,144.67051,124.7591)"
           style="fill:#cccccc;filter:url(#filter4957)"
           id="g4097">
          <g
             style="fill:#cccccc"
             id="g4099"
             transform="translate(148.4389,961.67164)">
            <path
               style="fill:#cccccc"
               inkscape:connector-curvature="0"
               d="M 17.938,18.375 C 20.167,15.583 22.195,13.881 24.376,11.75 25.96,10.201 27.19,8.418 29.002,7.252 34.023,4.021 39.909,2.41 46.617,3.228 48.491,3.457 48.427,0.631 46.556,0.393 33.184,-1.309 22.886,6.085 15.812,17 c -1.029,1.589 0.953,2.844 2.126,1.375 z"
               id="path4101" />
            <path
               style="fill:#cccccc"
               inkscape:connector-curvature="0"
               d="m 14.167,31.75 c 1.679,-5.999 2.31,-6.568 6.903,-10.749 0.87,-0.792 1.38,-1.193 2.226,-1.708 1.611,-0.981 3.205,-1.231 4.481,-0.609 0.526,0.256 1.661,0.972 2.53,1.188 1.89,0.471 3.677,0.292 5.304,-0.731 3.268,-2.056 5.792,-3.048 9.755,-3.475 1.876,-0.202 2.006,-2.434 0.122,-2.561 -3.628,-0.244 -5.446,0.611 -8.353,1.86 -1.375,0.59 -2.439,1.402 -4.085,1.798 -2.688,0.647 -4.299,-1.402 -2.469,-3.811 0.931,-1.28 2.282,-2.3 3.658,-3.17 4.237,-2.683 14.297,-5.061 16.432,2.622 0.337,1.213 1.522,2.153 3.507,2.195 2.791,0.059 5.893,0.747 7.354,1.495 1.677,0.858 2.621,-0.942 1.125,-2.094 -2.491,-1.918 -5.039,-1.719 -7.87,-2.236 C 53.901,11.602 53.108,10.943 52.561,9.752 51.882,8.277 50.957,6.698 49.176,5.941 44.626,4.008 39.268,4.386 34.299,6.917 c -1.655,0.843 -4.385,2.494 -6.55,4.75 -3.628,3.323 -5.993,5.297 -9.833,8.5 -3.521,2.936 -5.203,5.165 -6.167,10.417 -0.337,1.844 1.834,3.249 2.418,1.166 z"
               id="path4103" />
            <path
               style="fill:#cccccc"
               inkscape:connector-curvature="0"
               d="m 24.187,32.401 c 1.924,-3.116 4.175,-5.542 6.547,-8.321 1.218,-1.426 -0.968,-3.022 -2.195,-1.585 -3.991,4.674 -8.408,8.645 -9.4,14.95 -0.576,3.667 -2.904,5.862 -3.205,6.482 -1.317,2.712 -1.834,5.584 -1.948,8.574 -0.072,1.888 2.854,1.88 2.927,0 0.204,-5.307 2.897,-8.875 4.826,-13.54 0.922,-2.231 1.112,-4.398 2.448,-6.56 z"
               id="path4105" />
            <path
               style="fill:#cccccc"
               inkscape:connector-curvature="0"
               d="M 72.585,23.327 C 67.686,18.836 61.626,17.294 55.173,16.618 49.156,15.987 40.813,17.198 36,21.21 c -4.602,3.835 -6.378,9.011 -10.656,13.104 -1.366,1.307 0.356,3.21 1.719,1.906 3.08,-2.947 4.916,-6.169 7.554,-9.488 4.205,-5.287 10.779,-6.967 17.298,-7.336 13.44,-0.762 23.062,8.742 29.06,19.75 0.901,1.658 3.43,0.181 2.526,-1.477 C 80.712,32.547 76.898,27.281 72.585,23.327 Z"
               id="path4107" />
            <path
               style="fill:#cccccc"
               inkscape:connector-curvature="0"
               d="m 58.688,72.096 c 0.977,-5.427 0.609,-14.877 -4.48,-17.621 -5.269,-2.839 -9.908,1.737 -9.387,7.957 0.798,9.527 -3.304,17.786 -6.93,26.377 -0.725,1.717 1.795,3.211 2.526,1.477 2.125,-5.032 4.37,-9.999 6.03,-15.211 0.777,-2.436 0.926,-4.043 1.226,-6.574 0.067,-0.573 0.374,-3.161 0.071,-5.214 -0.381,-2.582 -0.152,-4.938 1.463,-6.128 0.965,-0.71 2.319,-1.053 3.89,0.167 5.088,3.948 3.426,14.009 1.301,19.604 -2.141,5.631 -7.209,10.523 -8.533,16.606 -0.4,1.84 2.421,2.622 2.822,0.776 0.889,-4.088 3.642,-8.114 5.896,-11.553 2.19,-3.339 3.399,-6.743 4.105,-10.663 z"
               id="path4109" />
            <path
               style="fill:#cccccc"
               inkscape:connector-curvature="0"
               d="m 37.926,36.438 c 3.803,-3.061 6.429,-5.31 11.439,-6.499 9.263,-2.197 18.074,5.321 21.529,13.257 0.75,1.728 3.271,0.235 2.525,-1.477 -3.417,-7.854 -10.29,-13.486 -18.807,-14.829 -3.534,-0.557 -7.325,0.239 -10.575,1.635 -1.751,0.751 -3.588,1.538 -5.019,2.837 -0.81,0.735 -1.547,1.497 -2.308,2.19 -0.677,0.616 -1.182,-0.09 -0.704,-0.942 1.436,-2.554 2.994,-4.951 6.162,-5.88 1.807,-0.529 1.038,-3.354 -0.777,-2.822 -3.104,0.909 -5.192,3.476 -6.986,6.122 -2.645,3.9 -3.772,6.071 -8.066,8.598 -6.699,3.942 -8.241,13.81 -8.538,20.845 -0.08,1.889 2.848,1.881 2.927,0 0.169,-4.024 0.935,-7.832 2.226,-11.638 0.678,-1.999 3.001,-5.086 5.979,-7.051 3.563,-2.347 7.227,-2.924 8.993,-4.346 z"
               id="path4111" />
            <path
               style="fill:#cccccc"
               inkscape:connector-curvature="0"
               d="m 45.5,22.467 c -1.825,0.475 -1.051,3.297 0.777,2.822 3.273,-0.851 6.679,-0.942 9.975,-0.164 1.835,0.433 2.614,-2.389 0.777,-2.822 -3.802,-0.899 -7.748,-0.818 -11.529,0.164 z"
               id="path4113" />
            <path
               style="fill:#cccccc"
               inkscape:connector-curvature="0"
               d="m 61.484,23.768 c -1.779,-0.642 -2.539,2.187 -0.777,2.822 12.533,4.523 19.723,20.159 21.325,32.494 0.239,1.844 3.17,1.867 2.927,0 C 83.174,45.334 75.407,28.792 61.484,23.768 Z"
               id="path4115" />
            <path
               style="fill:#cccccc"
               inkscape:connector-curvature="0"
               d="m 86.13,42.943 c -0.718,-1.715 -3.551,-0.963 -2.821,0.777 2.172,5.19 4.664,11.677 3.729,17.392 -0.523,3.193 -4.955,3.047 -6.434,0.488 -0.83,-1.44 -1.096,-3.392 -1.457,-4.994 -0.785,-3.494 -1.676,-6.848 -3.086,-10.147 -0.738,-1.731 -3.26,-0.238 -2.525,1.477 0.744,1.746 2.773,9.284 3.842,14.375 0.282,1.345 0.777,2.486 1.77,3.322 3.898,3.292 4.852,6.178 4.852,12.305 0,0.263 -0.102,1.535 -0.131,2.146 -0.383,3.887 -2.488,9.687 -4.115,8.108 -0.495,-0.479 0.402,-2.004 0.631,-2.672 0.5,-1.465 0.812,-2.783 1.047,-4.004 0.844,-4.416 0.287,-8.016 -0.744,-10.858 -0.742,-2.046 -3.183,-1.429 -2.75,0.405 0.74,3.137 1.031,5.5 0.531,9.438 -0.359,2.838 -1.396,4.896 -1.943,7.459 -0.455,2.129 1.246,5.033 4.101,3.761 6.06,-2.705 6.756,-12.326 6.164,-19.564 -0.16,-1.957 0.556,-5.303 1.257,-6.521 4.022,-7.004 0.587,-16.709 -1.918,-22.693 z"
               id="path4117" />
            <path
               style="fill:#cccccc"
               inkscape:connector-curvature="0"
               d="m 33.659,44.021 c 3.226,-1.354 5.557,-2.263 8.382,-4.392 5.379,-4.055 11.039,-5.967 17.338,-2.836 1.68,0.834 2.895,-1.617 1.262,-2.561 -4.791,-2.769 -9.178,-2.923 -14.041,-0.694 -2.688,1.233 -5.115,2.804 -7.44,4.627 -2.413,1.892 -5.071,2.261 -7.708,3.633 -7.822,4.075 -10.612,16.956 -10.128,25.011 0.112,1.875 3.04,1.887 2.927,0 -0.43,-7.125 2.063,-19.704 9.408,-22.788 z"
               id="path4119" />
            <path
               style="fill:#cccccc"
               inkscape:connector-curvature="0"
               d="m 40.271,54.613 c 2.154,-4.687 7.487,-10.089 13.174,-8.77 4.386,1.018 7.834,6.987 9.147,10.777 0.614,1.771 3.441,1.01 2.821,-0.777 C 62.128,46.36 53.598,39.039 44.053,45.49 31.09,54.251 39.266,70.866 31.02,82.021 c -1.124,1.52 1.417,2.976 2.526,1.477 2.478,-3.352 4.166,-7.328 4.706,-11.48 0.782,-6.002 -0.626,-11.653 2.019,-17.405 z"
               id="path4121" />
            <path
               style="fill:#cccccc"
               inkscape:connector-curvature="0"
               d="m 70.109,82.48 c 1.342,-4.471 1.926,-11.08 0.347,-16.057 -0.296,-0.932 -0.793,-3.841 -0.658,-5.378 0.438,-5.026 -3.306,-11.937 -5.257,-15.477 -0.911,-1.653 -3.439,-0.176 -2.527,1.477 1.725,3.125 8.01,11.894 4.397,15.031 -0.08,0.069 -0.701,0.284 -1.099,0.284 -2.551,0.287 -3.234,-4.497 -4.961,-7.209 -1.01,-1.588 -3.25,-0.242 -2.232,1.354 1.189,1.873 1.439,4.19 2.716,6.023 1.062,1.528 2.222,1.725 4.134,2.948 1.523,0.976 2.608,2.53 3.018,3.994 1.068,3.811 0.953,6.773 0.215,10.202 -0.471,2.183 -1.577,4.841 -3.385,6.655 -0.504,0.505 -1.409,-0.221 -1.098,-0.885 1.334,-2.831 2.424,-5.584 2.846,-8.475 0.268,-1.845 -2.553,-2.64 -2.822,-0.777 -0.954,6.572 -4.358,14.072 -8.592,19.109 -1.205,1.436 0.697,3.37 2.068,2.069 1.219,-1.156 1.156,-1.438 2.25,-3.72 -0.375,0.906 0.812,-2.219 2.781,-2.688 4.26,-1.006 6.632,-4.387 7.859,-8.48 z"
               id="path4123" />
            <path
               style="fill:#cccccc"
               inkscape:connector-curvature="0"
               d="m 61.523,68.62 c 1.108,0.793 2.588,2.381 2.683,3.901 0.116,1.873 2.66,1.877 2.622,-0.457 -0.046,-2.775 -2.072,-4.939 -3.842,-5.763 -0.725,-0.336 -1.605,-0.243 -1.981,0.396 -0.432,0.739 -0.129,1.46 0.518,1.923 z"
               id="path4125" />
            <path
               style="fill:#cccccc"
               inkscape:connector-curvature="0"
               d="m 72.666,66.898 c 1.064,6.188 1.293,14.537 -2.111,20.266 -1.287,2.164 -4.336,4.242 -7.461,5.398 -1.77,0.653 -0.895,2.721 0.969,2.405 2.22,-0.375 5.028,-1.901 6.227,-2.935 6.949,-5.997 6.652,-17.479 5.199,-25.912 -0.321,-1.854 -3.141,-1.065 -2.823,0.778 z"
               id="path4127" />
            <path
               style="fill:#cccccc"
               inkscape:connector-curvature="0"
               d="m 31.472,77.667 c 3.726,-6.836 1.424,-15.806 3.928,-23.11 0.9,-2.627 -2.153,-2.449 -3.17,0.519 -0.512,1.489 -0.631,2.247 -0.893,3.844 -0.205,1.247 -1.059,2.862 -1.983,3.604 -4.189,3.359 -5.999,9.763 -4.324,14.713 0.601,1.777 3.172,0.758 2.565,-1.034 -1.067,-3.155 -0.519,-6.615 1.494,-9.237 0.561,-0.73 1.951,-0.822 1.92,0.428 -0.08,3.278 -0.567,6.055 -2.064,8.801 -0.904,1.655 1.623,3.13 2.527,1.472 z"
               id="path4129" />
            <path
               style="fill:#cccccc"
               inkscape:connector-curvature="0"
               d="m 38.819,43.778 c -6.709,3.224 -11.706,8.095 -12.046,15.22 -0.09,1.888 2.412,2.211 2.561,0.336 0.548,-6.92 6.264,-10.485 10.764,-13.155 1.621,-0.961 0.426,-3.22 -1.279,-2.401 z"
               id="path4131" />
            <path
               style="fill:#cccccc"
               inkscape:connector-curvature="0"
               d="m 43.25,40.987 c -1.5,1.129 -0.245,3.436 1.334,2.391 4.127,-2.727 10.624,-4.394 14.714,-0.488 1.364,1.303 3.308,-1.172 1.87,-2.399 -5.697,-4.859 -12.56,-3.535 -17.918,0.496 z"
               id="path4133" />
            <path
               style="fill:#cccccc"
               inkscape:connector-curvature="0"
               d="m 62.509,73.823 c 0.243,-2.316 -2.505,-2.542 -2.723,-0.69 -0.821,6.973 -5.386,15.564 -9.438,21.266 -1.097,1.541 1.443,3.002 2.526,1.478 2.231,-3.137 5.237,-8.944 6.969,-12.379 1.721,-3.415 2.268,-5.898 2.666,-9.675 z"
               id="path4135" />
            <path
               style="fill:#cccccc"
               inkscape:connector-curvature="0"
               d="m 43.988,52.462 c -1.043,1.558 0.636,3.459 1.693,1.892 1.981,-2.939 6.545,-4.471 9.415,-1.392 1.287,1.38 3.247,-0.619 2.069,-2.069 -4.086,-5.035 -10.387,-2.596 -13.177,1.569 z"
               id="path4137" />
            <path
               style="fill:#cccccc"
               inkscape:connector-curvature="0"
               d="m 64.542,37.85 c -1.435,-1.233 -3.157,0.737 -1.87,2.114 3.76,4.023 6.301,8.658 8.1,14.396 0.562,1.793 3.393,1.026 2.821,-0.777 C 71.789,47.874 68.605,41.346 64.542,37.85 Z"
               id="path4139" />
            <path
               style="fill:#cccccc"
               inkscape:connector-curvature="0"
               d="m 43.717,59.07 c 0.414,-1.838 -2.408,-2.618 -2.822,-0.776 -0.989,4.39 -0.522,8.81 -0.768,13.261 -0.271,4.928 -3.402,10.062 -5.871,14.195 -0.971,1.624 1.56,3.094 2.526,1.477 2.443,-4.088 4.541,-8.416 5.827,-13.013 1.372,-4.9 -0.013,-10.167 1.108,-15.144 z"
               id="path4141" />
            <path
               style="fill:#cccccc"
               inkscape:connector-curvature="0"
               d="m 54.359,63.742 c -0.123,-1.006 -0.736,-3.114 -1.615,-3.993 -0.366,-0.366 -0.885,-0.671 -1.708,-0.549 -1.158,0.396 -1.676,1.401 -1.372,2.927 0.714,3.566 0.162,5.645 -0.543,9.081 -0.859,4.515 -4.232,12.91 -4.538,13.672 -0.815,2.438 -2.126,4.496 -3.021,6.933 -0.653,1.775 2.177,2.533 2.822,0.777 0.966,-2.629 2.069,-5.597 3.208,-7.426 3.82,-5.536 7.69,-13.809 6.767,-21.422 z"
               id="path4143" />
            <path
               style="fill:#cccccc"
               inkscape:connector-curvature="0"
               d="m 71.624,58.784 c 0.254,1.071 0.401,2.255 0.462,3.354 0.104,1.877 3.029,1.887 2.928,0 -0.074,-1.353 -0.252,-2.693 -0.564,-4.012 -0.438,-1.835 -3.262,-1.176 -2.826,0.658 z"
               id="path4145" />
            <path
               style="fill:#cccccc"
               inkscape:connector-curvature="0"
               d="m 14.583,42.083 c 2.165,-2.713 2.604,-6.638 4.169,-10.199 1.312,-2.986 3.536,-5.858 6.859,-8.597 1.458,-1.202 -0.059,-3.232 -1.555,-2.104 -2.998,2.261 -5.383,4.91 -7.104,8.323 -1.454,2.883 -2.522,7.181 -4.313,10.286 -0.944,1.638 0.779,3.752 1.944,2.291 z"
               id="path4147" />
            <path
               style="fill:#cccccc"
               inkscape:connector-curvature="0"
               d="m 50.227,4.726 c 4.041,1.917 3.57,3.577 5.75,4.843 2.772,1.615 5.812,0.7 8.412,2.774 1.426,1.136 1.041,2.646 1.77,3.658 0.582,0.809 0.979,0.987 1.75,1.63 1.871,1.558 4.104,2.643 5.924,4.262 2.081,1.851 2.887,-0.997 1.809,-2.082 C 74.089,18.251 72.369,17.217 70.55,15.982 68.111,14.324 68.413,12.396 66.812,10.48 65.443,8.84 62.697,8.128 60.749,7.707 57.064,6.91 55.096,3.648 51.707,2.199 49.989,1.466 48.525,3.919 50.227,4.726 Z"
               id="path4149" />
          </g>
          <path
             style="fill:#cccccc"
             inkscape:connector-curvature="0"
             d="m 182.5919,976.68764 c 3.508,-2.312 7.87,-4.368 12.152,-2.786 1.697,0.627 2.423,-2.08 0.744,-2.7 -4.964,-1.834 -10.215,0.37 -14.31,3.068 -1.5,0.988 -0.099,3.414 1.414,2.418 l 0,0 z"
             id="path4151" />
        </g>
        <g
           id="g4068"
           style="fill:#cccccc"
           transform="matrix(0.90160033,0,0,0.90160033,144.67051,124.7591)">
          <g
             transform="translate(148.4389,961.67164)"
             id="g3940"
             style="fill:#cccccc">
            <path
               id="path3942"
               d="M 17.938,18.375 C 20.167,15.583 22.195,13.881 24.376,11.75 25.96,10.201 27.19,8.418 29.002,7.252 34.023,4.021 39.909,2.41 46.617,3.228 48.491,3.457 48.427,0.631 46.556,0.393 33.184,-1.309 22.886,6.085 15.812,17 c -1.029,1.589 0.953,2.844 2.126,1.375 z"
               inkscape:connector-curvature="0"
               style="fill:#cccccc" />
            <path
               id="path3944"
               d="m 14.167,31.75 c 1.679,-5.999 2.31,-6.568 6.903,-10.749 0.87,-0.792 1.38,-1.193 2.226,-1.708 1.611,-0.981 3.205,-1.231 4.481,-0.609 0.526,0.256 1.661,0.972 2.53,1.188 1.89,0.471 3.677,0.292 5.304,-0.731 3.268,-2.056 5.792,-3.048 9.755,-3.475 1.876,-0.202 2.006,-2.434 0.122,-2.561 -3.628,-0.244 -5.446,0.611 -8.353,1.86 -1.375,0.59 -2.439,1.402 -4.085,1.798 -2.688,0.647 -4.299,-1.402 -2.469,-3.811 0.931,-1.28 2.282,-2.3 3.658,-3.17 4.237,-2.683 14.297,-5.061 16.432,2.622 0.337,1.213 1.522,2.153 3.507,2.195 2.791,0.059 5.893,0.747 7.354,1.495 1.677,0.858 2.621,-0.942 1.125,-2.094 -2.491,-1.918 -5.039,-1.719 -7.87,-2.236 C 53.901,11.602 53.108,10.943 52.561,9.752 51.882,8.277 50.957,6.698 49.176,5.941 44.626,4.008 39.268,4.386 34.299,6.917 c -1.655,0.843 -4.385,2.494 -6.55,4.75 -3.628,3.323 -5.993,5.297 -9.833,8.5 -3.521,2.936 -5.203,5.165 -6.167,10.417 -0.337,1.844 1.834,3.249 2.418,1.166 z"
               inkscape:connector-curvature="0"
               style="fill:#cccccc" />
            <path
               id="path3946"
               d="m 24.187,32.401 c 1.924,-3.116 4.175,-5.542 6.547,-8.321 1.218,-1.426 -0.968,-3.022 -2.195,-1.585 -3.991,4.674 -8.408,8.645 -9.4,14.95 -0.576,3.667 -2.904,5.862 -3.205,6.482 -1.317,2.712 -1.834,5.584 -1.948,8.574 -0.072,1.888 2.854,1.88 2.927,0 0.204,-5.307 2.897,-8.875 4.826,-13.54 0.922,-2.231 1.112,-4.398 2.448,-6.56 z"
               inkscape:connector-curvature="0"
               style="fill:#cccccc" />
            <path
               id="path3948"
               d="M 72.585,23.327 C 67.686,18.836 61.626,17.294 55.173,16.618 49.156,15.987 40.813,17.198 36,21.21 c -4.602,3.835 -6.378,9.011 -10.656,13.104 -1.366,1.307 0.356,3.21 1.719,1.906 3.08,-2.947 4.916,-6.169 7.554,-9.488 4.205,-5.287 10.779,-6.967 17.298,-7.336 13.44,-0.762 23.062,8.742 29.06,19.75 0.901,1.658 3.43,0.181 2.526,-1.477 C 80.712,32.547 76.898,27.281 72.585,23.327 Z"
               inkscape:connector-curvature="0"
               style="fill:#cccccc" />
            <path
               id="path3950"
               d="m 58.688,72.096 c 0.977,-5.427 0.609,-14.877 -4.48,-17.621 -5.269,-2.839 -9.908,1.737 -9.387,7.957 0.798,9.527 -3.304,17.786 -6.93,26.377 -0.725,1.717 1.795,3.211 2.526,1.477 2.125,-5.032 4.37,-9.999 6.03,-15.211 0.777,-2.436 0.926,-4.043 1.226,-6.574 0.067,-0.573 0.374,-3.161 0.071,-5.214 -0.381,-2.582 -0.152,-4.938 1.463,-6.128 0.965,-0.71 2.319,-1.053 3.89,0.167 5.088,3.948 3.426,14.009 1.301,19.604 -2.141,5.631 -7.209,10.523 -8.533,16.606 -0.4,1.84 2.421,2.622 2.822,0.776 0.889,-4.088 3.642,-8.114 5.896,-11.553 2.19,-3.339 3.399,-6.743 4.105,-10.663 z"
               inkscape:connector-curvature="0"
               style="fill:#cccccc" />
            <path
               id="path3952"
               d="m 37.926,36.438 c 3.803,-3.061 6.429,-5.31 11.439,-6.499 9.263,-2.197 18.074,5.321 21.529,13.257 0.75,1.728 3.271,0.235 2.525,-1.477 -3.417,-7.854 -10.29,-13.486 -18.807,-14.829 -3.534,-0.557 -7.325,0.239 -10.575,1.635 -1.751,0.751 -3.588,1.538 -5.019,2.837 -0.81,0.735 -1.547,1.497 -2.308,2.19 -0.677,0.616 -1.182,-0.09 -0.704,-0.942 1.436,-2.554 2.994,-4.951 6.162,-5.88 1.807,-0.529 1.038,-3.354 -0.777,-2.822 -3.104,0.909 -5.192,3.476 -6.986,6.122 -2.645,3.9 -3.772,6.071 -8.066,8.598 -6.699,3.942 -8.241,13.81 -8.538,20.845 -0.08,1.889 2.848,1.881 2.927,0 0.169,-4.024 0.935,-7.832 2.226,-11.638 0.678,-1.999 3.001,-5.086 5.979,-7.051 3.563,-2.347 7.227,-2.924 8.993,-4.346 z"
               inkscape:connector-curvature="0"
               style="fill:#cccccc" />
            <path
               id="path3954"
               d="m 45.5,22.467 c -1.825,0.475 -1.051,3.297 0.777,2.822 3.273,-0.851 6.679,-0.942 9.975,-0.164 1.835,0.433 2.614,-2.389 0.777,-2.822 -3.802,-0.899 -7.748,-0.818 -11.529,0.164 z"
               inkscape:connector-curvature="0"
               style="fill:#cccccc" />
            <path
               id="path3956"
               d="m 61.484,23.768 c -1.779,-0.642 -2.539,2.187 -0.777,2.822 12.533,4.523 19.723,20.159 21.325,32.494 0.239,1.844 3.17,1.867 2.927,0 C 83.174,45.334 75.407,28.792 61.484,23.768 Z"
               inkscape:connector-curvature="0"
               style="fill:#cccccc" />
            <path
               id="path3958"
               d="m 86.13,42.943 c -0.718,-1.715 -3.551,-0.963 -2.821,0.777 2.172,5.19 4.664,11.677 3.729,17.392 -0.523,3.193 -4.955,3.047 -6.434,0.488 -0.83,-1.44 -1.096,-3.392 -1.457,-4.994 -0.785,-3.494 -1.676,-6.848 -3.086,-10.147 -0.738,-1.731 -3.26,-0.238 -2.525,1.477 0.744,1.746 2.773,9.284 3.842,14.375 0.282,1.345 0.777,2.486 1.77,3.322 3.898,3.292 4.852,6.178 4.852,12.305 0,0.263 -0.102,1.535 -0.131,2.146 -0.383,3.887 -2.488,9.687 -4.115,8.108 -0.495,-0.479 0.402,-2.004 0.631,-2.672 0.5,-1.465 0.812,-2.783 1.047,-4.004 0.844,-4.416 0.287,-8.016 -0.744,-10.858 -0.742,-2.046 -3.183,-1.429 -2.75,0.405 0.74,3.137 1.031,5.5 0.531,9.438 -0.359,2.838 -1.396,4.896 -1.943,7.459 -0.455,2.129 1.246,5.033 4.101,3.761 6.06,-2.705 6.756,-12.326 6.164,-19.564 -0.16,-1.957 0.556,-5.303 1.257,-6.521 4.022,-7.004 0.587,-16.709 -1.918,-22.693 z"
               inkscape:connector-curvature="0"
               style="fill:#cccccc" />
            <path
               id="path3960"
               d="m 33.659,44.021 c 3.226,-1.354 5.557,-2.263 8.382,-4.392 5.379,-4.055 11.039,-5.967 17.338,-2.836 1.68,0.834 2.895,-1.617 1.262,-2.561 -4.791,-2.769 -9.178,-2.923 -14.041,-0.694 -2.688,1.233 -5.115,2.804 -7.44,4.627 -2.413,1.892 -5.071,2.261 -7.708,3.633 -7.822,4.075 -10.612,16.956 -10.128,25.011 0.112,1.875 3.04,1.887 2.927,0 -0.43,-7.125 2.063,-19.704 9.408,-22.788 z"
               inkscape:connector-curvature="0"
               style="fill:#cccccc" />
            <path
               id="path3962"
               d="m 40.271,54.613 c 2.154,-4.687 7.487,-10.089 13.174,-8.77 4.386,1.018 7.834,6.987 9.147,10.777 0.614,1.771 3.441,1.01 2.821,-0.777 C 62.128,46.36 53.598,39.039 44.053,45.49 31.09,54.251 39.266,70.866 31.02,82.021 c -1.124,1.52 1.417,2.976 2.526,1.477 2.478,-3.352 4.166,-7.328 4.706,-11.48 0.782,-6.002 -0.626,-11.653 2.019,-17.405 z"
               inkscape:connector-curvature="0"
               style="fill:#cccccc" />
            <path
               id="path3964"
               d="m 70.109,82.48 c 1.342,-4.471 1.926,-11.08 0.347,-16.057 -0.296,-0.932 -0.793,-3.841 -0.658,-5.378 0.438,-5.026 -3.306,-11.937 -5.257,-15.477 -0.911,-1.653 -3.439,-0.176 -2.527,1.477 1.725,3.125 8.01,11.894 4.397,15.031 -0.08,0.069 -0.701,0.284 -1.099,0.284 -2.551,0.287 -3.234,-4.497 -4.961,-7.209 -1.01,-1.588 -3.25,-0.242 -2.232,1.354 1.189,1.873 1.439,4.19 2.716,6.023 1.062,1.528 2.222,1.725 4.134,2.948 1.523,0.976 2.608,2.53 3.018,3.994 1.068,3.811 0.953,6.773 0.215,10.202 -0.471,2.183 -1.577,4.841 -3.385,6.655 -0.504,0.505 -1.409,-0.221 -1.098,-0.885 1.334,-2.831 2.424,-5.584 2.846,-8.475 0.268,-1.845 -2.553,-2.64 -2.822,-0.777 -0.954,6.572 -4.358,14.072 -8.592,19.109 -1.205,1.436 0.697,3.37 2.068,2.069 1.219,-1.156 1.156,-1.438 2.25,-3.72 -0.375,0.906 0.812,-2.219 2.781,-2.688 4.26,-1.006 6.632,-4.387 7.859,-8.48 z"
               inkscape:connector-curvature="0"
               style="fill:#cccccc" />
            <path
               id="path3966"
               d="m 61.523,68.62 c 1.108,0.793 2.588,2.381 2.683,3.901 0.116,1.873 2.66,1.877 2.622,-0.457 -0.046,-2.775 -2.072,-4.939 -3.842,-5.763 -0.725,-0.336 -1.605,-0.243 -1.981,0.396 -0.432,0.739 -0.129,1.46 0.518,1.923 z"
               inkscape:connector-curvature="0"
               style="fill:#cccccc" />
            <path
               id="path3968"
               d="m 72.666,66.898 c 1.064,6.188 1.293,14.537 -2.111,20.266 -1.287,2.164 -4.336,4.242 -7.461,5.398 -1.77,0.653 -0.895,2.721 0.969,2.405 2.22,-0.375 5.028,-1.901 6.227,-2.935 6.949,-5.997 6.652,-17.479 5.199,-25.912 -0.321,-1.854 -3.141,-1.065 -2.823,0.778 z"
               inkscape:connector-curvature="0"
               style="fill:#cccccc" />
            <path
               id="path3970"
               d="m 31.472,77.667 c 3.726,-6.836 1.424,-15.806 3.928,-23.11 0.9,-2.627 -2.153,-2.449 -3.17,0.519 -0.512,1.489 -0.631,2.247 -0.893,3.844 -0.205,1.247 -1.059,2.862 -1.983,3.604 -4.189,3.359 -5.999,9.763 -4.324,14.713 0.601,1.777 3.172,0.758 2.565,-1.034 -1.067,-3.155 -0.519,-6.615 1.494,-9.237 0.561,-0.73 1.951,-0.822 1.92,0.428 -0.08,3.278 -0.567,6.055 -2.064,8.801 -0.904,1.655 1.623,3.13 2.527,1.472 z"
               inkscape:connector-curvature="0"
               style="fill:#cccccc" />
            <path
               id="path3972"
               d="m 38.819,43.778 c -6.709,3.224 -11.706,8.095 -12.046,15.22 -0.09,1.888 2.412,2.211 2.561,0.336 0.548,-6.92 6.264,-10.485 10.764,-13.155 1.621,-0.961 0.426,-3.22 -1.279,-2.401 z"
               inkscape:connector-curvature="0"
               style="fill:#cccccc" />
            <path
               id="path3974"
               d="m 43.25,40.987 c -1.5,1.129 -0.245,3.436 1.334,2.391 4.127,-2.727 10.624,-4.394 14.714,-0.488 1.364,1.303 3.308,-1.172 1.87,-2.399 -5.697,-4.859 -12.56,-3.535 -17.918,0.496 z"
               inkscape:connector-curvature="0"
               style="fill:#cccccc" />
            <path
               id="path3976"
               d="m 62.509,73.823 c 0.243,-2.316 -2.505,-2.542 -2.723,-0.69 -0.821,6.973 -5.386,15.564 -9.438,21.266 -1.097,1.541 1.443,3.002 2.526,1.478 2.231,-3.137 5.237,-8.944 6.969,-12.379 1.721,-3.415 2.268,-5.898 2.666,-9.675 z"
               inkscape:connector-curvature="0"
               style="fill:#cccccc" />
            <path
               id="path3978"
               d="m 43.988,52.462 c -1.043,1.558 0.636,3.459 1.693,1.892 1.981,-2.939 6.545,-4.471 9.415,-1.392 1.287,1.38 3.247,-0.619 2.069,-2.069 -4.086,-5.035 -10.387,-2.596 -13.177,1.569 z"
               inkscape:connector-curvature="0"
               style="fill:#cccccc" />
            <path
               id="path3980"
               d="m 64.542,37.85 c -1.435,-1.233 -3.157,0.737 -1.87,2.114 3.76,4.023 6.301,8.658 8.1,14.396 0.562,1.793 3.393,1.026 2.821,-0.777 C 71.789,47.874 68.605,41.346 64.542,37.85 Z"
               inkscape:connector-curvature="0"
               style="fill:#cccccc" />
            <path
               id="path3982"
               d="m 43.717,59.07 c 0.414,-1.838 -2.408,-2.618 -2.822,-0.776 -0.989,4.39 -0.522,8.81 -0.768,13.261 -0.271,4.928 -3.402,10.062 -5.871,14.195 -0.971,1.624 1.56,3.094 2.526,1.477 2.443,-4.088 4.541,-8.416 5.827,-13.013 1.372,-4.9 -0.013,-10.167 1.108,-15.144 z"
               inkscape:connector-curvature="0"
               style="fill:#cccccc" />
            <path
               id="path3984"
               d="m 54.359,63.742 c -0.123,-1.006 -0.736,-3.114 -1.615,-3.993 -0.366,-0.366 -0.885,-0.671 -1.708,-0.549 -1.158,0.396 -1.676,1.401 -1.372,2.927 0.714,3.566 0.162,5.645 -0.543,9.081 -0.859,4.515 -4.232,12.91 -4.538,13.672 -0.815,2.438 -2.126,4.496 -3.021,6.933 -0.653,1.775 2.177,2.533 2.822,0.777 0.966,-2.629 2.069,-5.597 3.208,-7.426 3.82,-5.536 7.69,-13.809 6.767,-21.422 z"
               inkscape:connector-curvature="0"
               style="fill:#cccccc" />
            <path
               id="path3986"
               d="m 71.624,58.784 c 0.254,1.071 0.401,2.255 0.462,3.354 0.104,1.877 3.029,1.887 2.928,0 -0.074,-1.353 -0.252,-2.693 -0.564,-4.012 -0.438,-1.835 -3.262,-1.176 -2.826,0.658 z"
               inkscape:connector-curvature="0"
               style="fill:#cccccc" />
            <path
               id="path3988"
               d="m 14.583,42.083 c 2.165,-2.713 2.604,-6.638 4.169,-10.199 1.312,-2.986 3.536,-5.858 6.859,-8.597 1.458,-1.202 -0.059,-3.232 -1.555,-2.104 -2.998,2.261 -5.383,4.91 -7.104,8.323 -1.454,2.883 -2.522,7.181 -4.313,10.286 -0.944,1.638 0.779,3.752 1.944,2.291 z"
               inkscape:connector-curvature="0"
               style="fill:#cccccc" />
            <path
               id="path3990"
               d="m 50.227,4.726 c 4.041,1.917 3.57,3.577 5.75,4.843 2.772,1.615 5.812,0.7 8.412,2.774 1.426,1.136 1.041,2.646 1.77,3.658 0.582,0.809 0.979,0.987 1.75,1.63 1.871,1.558 4.104,2.643 5.924,4.262 2.081,1.851 2.887,-0.997 1.809,-2.082 C 74.089,18.251 72.369,17.217 70.55,15.982 68.111,14.324 68.413,12.396 66.812,10.48 65.443,8.84 62.697,8.128 60.749,7.707 57.064,6.91 55.096,3.648 51.707,2.199 49.989,1.466 48.525,3.919 50.227,4.726 Z"
               inkscape:connector-curvature="0"
               style="fill:#cccccc" />
          </g>
          <path
             id="path3994"
             d="m 182.5919,976.68764 c 3.508,-2.312 7.87,-4.368 12.152,-2.786 1.697,0.627 2.423,-2.08 0.744,-2.7 -4.964,-1.834 -10.215,0.37 -14.31,3.068 -1.5,0.988 -0.099,3.414 1.414,2.418 l 0,0 z"
             inkscape:connector-curvature="0"
             style="fill:#cccccc" />
        </g>
      </g>
    </g>
  </g>
</svg>
