<?xml version="1.0" encoding="UTF-8" standalone="no"?>
<!-- Created with Inkscape (http://www.inkscape.org/) -->

<svg
   xmlns:dc="http://purl.org/dc/elements/1.1/"
   xmlns:cc="http://creativecommons.org/ns#"
   xmlns:rdf="http://www.w3.org/1999/02/22-rdf-syntax-ns#"
   xmlns:svg="http://www.w3.org/2000/svg"
   xmlns="http://www.w3.org/2000/svg"
   xmlns:sodipodi="http://sodipodi.sourceforge.net/DTD/sodipodi-0.dtd"
   xmlns:inkscape="http://www.inkscape.org/namespaces/inkscape"
   width="33.866665mm"
   height="33.866665mm"
   viewBox="0 0 119.99999 120"
   id="svg4759"
   version="1.1"
   inkscape:version="0.92pre2 r"
   sodipodi:docname="Independent-Research.svg">
  <defs
     id="defs4761">
    <filter
       inkscape:collect="always"
       style="color-interpolation-filters:sRGB"
       id="filter1047"
       x="-0.02129196"
       width="1.0425839"
       y="-0.027497269"
       height="1.0549945">
      <feGaussianBlur
         inkscape:collect="always"
         stdDeviation="0.887165"
         id="feGaussianBlur1049" />
    </filter>
    <filter
       inkscape:collect="always"
       style="color-interpolation-filters:sRGB"
       id="filter1094"
       x="-0.056482401"
       width="1.1129648"
       y="-0.063984834"
       height="1.1279697">
      <feGaussianBlur
         inkscape:collect="always"
         stdDeviation="2.1480242"
         id="feGaussianBlur1096" />
    </filter>
  </defs>
  <sodipodi:namedview
     id="base"
     pagecolor="#ffffff"
     bordercolor="#666666"
     borderopacity="1.0"
     inkscape:pageopacity="0.0"
     inkscape:pageshadow="2"
     inkscape:zoom="2.8284271"
     inkscape:cx="28.984101"
     inkscape:cy="79.38544"
     inkscape:document-units="px"
     inkscape:current-layer="layer1"
     showgrid="false"
     fit-margin-top="0"
     fit-margin-left="0"
     fit-margin-right="0"
     fit-margin-bottom="0"
     inkscape:window-width="1366"
     inkscape:window-height="768"
     inkscape:window-x="0"
     inkscape:window-y="0"
     inkscape:window-maximized="0"
     showborder="false" />
  <metadata
     id="metadata4764">
    <rdf:RDF>
      <cc:Work
         rdf:about="">
        <dc:format>image/svg+xml</dc:format>
        <dc:type
           rdf:resource="http://purl.org/dc/dcmitype/StillImage" />
        <dc:title />
      </cc:Work>
    </rdf:RDF>
  </metadata>
  <g
     inkscape:label="Layer 1"
     inkscape:groupmode="layer"
     id="layer1"
     transform="translate(-263.37482,-975.53693)">
    <g
       id="g1198"
       inkscape:export-xdpi="96"
       inkscape:export-ydpi="96">
      <rect
         ry="0"
         rx="0"
         style="opacity:1;fill:#666666;fill-opacity:1;stroke:none;stroke-width:5.43275881;stroke-linecap:round;stroke-linejoin:round;stroke-miterlimit:4;stroke-dasharray:none;stroke-dashoffset:0;stroke-opacity:1"
         id="rect5453"
         width="120"
         height="120"
         x="263.37482"
         y="975.53693" />
      <g
         transform="matrix(1.2267332,0,0,1.2267332,-73.319807,-229.53919)"
         id="g1134">
        <g
           id="g4218"
           transform="matrix(0.58640832,0,0,0.58640832,294.0544,1004.5469)"
           style="fill:#1a1a1a;filter:url(#filter1047)">
          <path
             style="fill:#1a1a1a"
             inkscape:connector-curvature="0"
             d="M 27.957,37.612 C 16.815,25.559 9.62,13.275 8.645,5.764 L 0,0 C 0.117,0.078 -1.111,8.063 8.608,14.746 L 0.15,9.094 C 0.267,9.173 -0.961,17.157 8.757,23.84 L 0.074,18.039 c 0.118,0.079 -1.157,8.216 8.833,14.933 l -8.87,-5.951 c 0.118,0.079 -1.16,8.244 8.907,14.97 l 3.031,2.021 c 8.938,3.497 21.479,13.597 33.196,27.433 1.697,2.004 3.297,3.989 4.828,5.988 L 43.375,51.684 C 38.365,47.914 33.082,43.156 27.957,37.612 Z"
             id="path4220" />
          <path
             style="fill:#1a1a1a"
             inkscape:connector-curvature="0"
             d="M 100,0 91.354,5.764 C 90.38,13.275 83.184,25.559 72.042,37.613 66.918,43.156 61.634,47.914 56.623,51.685 L 50,77.433 c 1.529,-1.999 3.131,-3.984 4.828,-5.988 C 66.544,57.609 79.086,47.509 88.024,44.012 l 3.031,-2.021 c 10.067,-6.726 8.789,-14.891 8.907,-14.97 l -8.87,5.951 c 9.99,-6.717 8.714,-14.854 8.832,-14.933 L 91.241,23.84 C 100.96,17.157 99.732,9.173 99.849,9.094 l -8.458,5.651 C 101.111,8.063 99.883,0.078 100,0 Z"
             id="path4222" />
          <path
             style="fill:#1a1a1a"
             inkscape:connector-curvature="0"
             d="M 42.777,49.364 36.34,24.289 26.16,17.477 11.527,7.709 c 0.659,6.72 7.232,17.996 17.478,29.08 4.566,4.94 9.3,9.19 13.772,12.575 z"
             id="path4224" />
          <path
             style="fill:#1a1a1a"
             inkscape:connector-curvature="0"
             d="M 70.995,36.789 C 81.24,25.706 87.814,14.43 88.473,7.709 L 73.84,17.478 63.66,24.29 57.222,49.365 c 4.473,-3.386 9.208,-7.636 13.773,-12.576 z"
             id="path4226" />
          <path
             style="fill:#1a1a1a"
             inkscape:connector-curvature="0"
             d="m 12.201,47.081 c 0.555,3.006 2.437,7.729 8.683,11.901 l 13.099,8.72 13.623,9.132 C 46.459,75.364 45.296,73.89 44.05,72.418 32.646,58.952 20.309,49.429 12.201,47.081 Z"
             id="path4228" />
          <path
             style="fill:#1a1a1a"
             inkscape:connector-curvature="0"
             d="m 55.95,72.417 c -1.246,1.472 -2.409,2.946 -3.555,4.416 l 13.622,-9.132 13.1,-8.72 C 85.362,54.808 87.245,50.085 87.8,47.08 79.692,49.429 67.354,58.952 55.95,72.417 Z"
             id="path4230" />
        </g>
        <g
           style="fill:#1a1a1a"
           transform="matrix(0.58640832,0,0,0.58640832,294.0544,1004.5469)"
           id="g1110">
          <path
             id="path1098"
             d="M 27.957,37.612 C 16.815,25.559 9.62,13.275 8.645,5.764 L 0,0 C 0.117,0.078 -1.111,8.063 8.608,14.746 L 0.15,9.094 C 0.267,9.173 -0.961,17.157 8.757,23.84 L 0.074,18.039 c 0.118,0.079 -1.157,8.216 8.833,14.933 l -8.87,-5.951 c 0.118,0.079 -1.16,8.244 8.907,14.97 l 3.031,2.021 c 8.938,3.497 21.479,13.597 33.196,27.433 1.697,2.004 3.297,3.989 4.828,5.988 L 43.375,51.684 C 38.365,47.914 33.082,43.156 27.957,37.612 Z"
             inkscape:connector-curvature="0"
             style="fill:#1a1a1a" />
          <path
             id="path1100"
             d="M 100,0 91.354,5.764 C 90.38,13.275 83.184,25.559 72.042,37.613 66.918,43.156 61.634,47.914 56.623,51.685 L 50,77.433 c 1.529,-1.999 3.131,-3.984 4.828,-5.988 C 66.544,57.609 79.086,47.509 88.024,44.012 l 3.031,-2.021 c 10.067,-6.726 8.789,-14.891 8.907,-14.97 l -8.87,5.951 c 9.99,-6.717 8.714,-14.854 8.832,-14.933 L 91.241,23.84 C 100.96,17.157 99.732,9.173 99.849,9.094 l -8.458,5.651 C 101.111,8.063 99.883,0.078 100,0 Z"
             inkscape:connector-curvature="0"
             style="fill:#1a1a1a" />
          <path
             id="path1102"
             d="M 42.777,49.364 36.34,24.289 26.16,17.477 11.527,7.709 c 0.659,6.72 7.232,17.996 17.478,29.08 4.566,4.94 9.3,9.19 13.772,12.575 z"
             inkscape:connector-curvature="0"
             style="fill:#1a1a1a" />
          <path
             id="path1104"
             d="M 70.995,36.789 C 81.24,25.706 87.814,14.43 88.473,7.709 L 73.84,17.478 63.66,24.29 57.222,49.365 c 4.473,-3.386 9.208,-7.636 13.773,-12.576 z"
             inkscape:connector-curvature="0"
             style="fill:#1a1a1a" />
          <path
             id="path1106"
             d="m 12.201,47.081 c 0.555,3.006 2.437,7.729 8.683,11.901 l 13.099,8.72 13.623,9.132 C 46.459,75.364 45.296,73.89 44.05,72.418 32.646,58.952 20.309,49.429 12.201,47.081 Z"
             inkscape:connector-curvature="0"
             style="fill:#1a1a1a" />
          <path
             id="path1108"
             d="m 55.95,72.417 c -1.246,1.472 -2.409,2.946 -3.555,4.416 l 13.622,-9.132 13.1,-8.72 C 85.362,54.808 87.245,50.085 87.8,47.08 79.692,49.429 67.354,58.952 55.95,72.417 Z"
             inkscape:connector-curvature="0"
             style="fill:#1a1a1a" />
        </g>
        <g
           style="fill:#333333;filter:url(#filter1094)"
           transform="matrix(0.4408194,0,0,0.4408194,301.13767,1017.4541)"
           id="g208">
          <path
             style="fill:#333333"
             id="path206"
             d="m 31.771,28.241 c 0,-3.732 3.022,-6.751 6.749,-6.751 3.727,0 6.752,3.02 6.752,6.751 0,3.727 -3.025,6.749 -6.752,6.749 -3.727,0 -6.749,-3.023 -6.749,-6.749 M 96.081,89.577 90.287,67.31 c 0,0 -5.167,-17.58 -27.114,-19.084 l -0.961,0.009 v -2.519 c 0.812,-0.274 1.597,-0.596 2.357,-0.959 0.907,-0.4 1.828,-0.862 2.756,-1.405 l -0.13,-0.089 c 5.144,-3.441 8.496,-9.022 8.496,-15.328 0,-10.453 -9.199,-18.928 -20.547,-18.928 -4.957,0 -9.502,1.614 -13.049,4.308 6.888,1.66 12.008,7.858 12.008,15.256 0,4.964 -2.312,9.378 -5.909,12.254 -1.527,1.175 -3.269,2.084 -5.161,2.648 0.544,0.417 2.752,1.727 6.032,2.578 V 48.3 l -1.85,0.011 c -15.39,0.184 -23.413,9.523 -23.413,9.523 l 6.177,-16.392 c -1.412,-0.912 -2.671,-1.91 -3.722,-3.024 l 3.894,-2.578 c 2.073,2.28 5.05,3.721 8.367,3.721 6.244,0 11.323,-5.08 11.323,-11.321 0,-6.244 -5.08,-11.324 -11.323,-11.324 -6.243,0 -11.322,5.08 -11.322,11.324 0,1.29 0.224,2.523 0.625,3.679 l -3.295,2.18 c -1.571,-1.584 -5.237,-1.2 -8.549,0.993 -3.314,2.195 -5.102,5.419 -4.256,7.482 l -3.308,2.191 0.013,0.019 c -0.895,0.731 -1.117,2.027 -0.466,3.012 0.652,0.983 1.934,1.288 2.956,0.75 L 10.93,48.564 16.142,45.115 6.084,74.57 c -1.508,3.349 -1.959,7.694 0.213,10.682 1.654,2.276 4.27,3.601 6.982,3.558 2.386,-0.041 5.271,-1.773 6.686,-3.85 L 30.629,67.194 28.818,89.577 h 48.826 l 0.854,-14.301 2.967,14.301 z"
             inkscape:connector-curvature="0" />
        </g>
        <g
           id="g5126"
           transform="matrix(0.4408194,0,0,0.4408194,301.13767,1017.4541)"
           style="fill:#808080">
          <path
             inkscape:connector-curvature="0"
             d="m 31.771,28.241 c 0,-3.732 3.022,-6.751 6.749,-6.751 3.727,0 6.752,3.02 6.752,6.751 0,3.727 -3.025,6.749 -6.752,6.749 -3.727,0 -6.749,-3.023 -6.749,-6.749 M 96.081,89.577 90.287,67.31 c 0,0 -5.167,-17.58 -27.114,-19.084 l -0.961,0.009 v -2.519 c 0.812,-0.274 1.597,-0.596 2.357,-0.959 0.907,-0.4 1.828,-0.862 2.756,-1.405 l -0.13,-0.089 c 5.144,-3.441 8.496,-9.022 8.496,-15.328 0,-10.453 -9.199,-18.928 -20.547,-18.928 -4.957,0 -9.502,1.614 -13.049,4.308 6.888,1.66 12.008,7.858 12.008,15.256 0,4.964 -2.312,9.378 -5.909,12.254 -1.527,1.175 -3.269,2.084 -5.161,2.648 0.544,0.417 2.752,1.727 6.032,2.578 V 48.3 l -1.85,0.011 c -15.39,0.184 -23.413,9.523 -23.413,9.523 l 6.177,-16.392 c -1.412,-0.912 -2.671,-1.91 -3.722,-3.024 l 3.894,-2.578 c 2.073,2.28 5.05,3.721 8.367,3.721 6.244,0 11.323,-5.08 11.323,-11.321 0,-6.244 -5.08,-11.324 -11.323,-11.324 -6.243,0 -11.322,5.08 -11.322,11.324 0,1.29 0.224,2.523 0.625,3.679 l -3.295,2.18 c -1.571,-1.584 -5.237,-1.2 -8.549,0.993 -3.314,2.195 -5.102,5.419 -4.256,7.482 l -3.308,2.191 0.013,0.019 c -0.895,0.731 -1.117,2.027 -0.466,3.012 0.652,0.983 1.934,1.288 2.956,0.75 L 10.93,48.564 16.142,45.115 6.084,74.57 c -1.508,3.349 -1.959,7.694 0.213,10.682 1.654,2.276 4.27,3.601 6.982,3.558 2.386,-0.041 5.271,-1.773 6.686,-3.85 L 30.629,67.194 28.818,89.577 h 48.826 l 0.854,-14.301 2.967,14.301 z"
             id="path5128"
             style="fill:#808080" />
        </g>
      </g>
    </g>
  </g>
</svg>
