<?xml version="1.0" encoding="UTF-8" standalone="no"?>
<!-- Created with Inkscape (http://www.inkscape.org/) -->

<svg
   xmlns:dc="http://purl.org/dc/elements/1.1/"
   xmlns:cc="http://creativecommons.org/ns#"
   xmlns:rdf="http://www.w3.org/1999/02/22-rdf-syntax-ns#"
   xmlns:svg="http://www.w3.org/2000/svg"
   xmlns="http://www.w3.org/2000/svg"
   xmlns:sodipodi="http://sodipodi.sourceforge.net/DTD/sodipodi-0.dtd"
   xmlns:inkscape="http://www.inkscape.org/namespaces/inkscape"
   width="42.333332mm"
   height="42.333332mm"
   viewBox="0 0 149.99999 150"
   id="svg4759"
   version="1.1"
   inkscape:version="0.91 r13725"
   sodipodi:docname="Infrastructure.svg">
  <defs
     id="defs4761">
    <filter
       inkscape:collect="always"
       style="color-interpolation-filters:sRGB"
       id="filter4300"
       x="-0.059999238"
       width="1.1199985"
       y="-0.060000762"
       height="1.1200015">
      <feGaussianBlur
         inkscape:collect="always"
         stdDeviation="2.1360264"
         id="feGaussianBlur4302" />
    </filter>
  </defs>
  <sodipodi:namedview
     id="base"
     pagecolor="#ffffff"
     bordercolor="#666666"
     borderopacity="1.0"
     inkscape:pageopacity="0.0"
     inkscape:pageshadow="2"
     inkscape:zoom="2"
     inkscape:cx="127.27422"
     inkscape:cy="90.288192"
     inkscape:document-units="px"
     inkscape:current-layer="layer1"
     showgrid="false"
     fit-margin-top="0"
     fit-margin-left="0"
     fit-margin-right="0"
     fit-margin-bottom="0"
     inkscape:window-width="1366"
     inkscape:window-height="713"
     inkscape:window-x="0"
     inkscape:window-y="27"
     inkscape:window-maximized="1"
     showborder="false"
     showguides="true"
     inkscape:guide-bbox="true" />
  <metadata
     id="metadata4764">
    <rdf:RDF>
      <cc:Work
         rdf:about="">
        <dc:format>image/svg+xml</dc:format>
        <dc:type
           rdf:resource="http://purl.org/dc/dcmitype/StillImage" />
        <dc:title />
      </cc:Work>
    </rdf:RDF>
  </metadata>
  <g
     inkscape:label="Layer 1"
     inkscape:groupmode="layer"
     id="layer1"
     transform="translate(-263.37482,-945.53693)">
    <g
       id="g4696">
      <rect
         ry="0"
         rx="0"
         style="opacity:1;fill:#b3b3b3;fill-opacity:1;stroke:none;stroke-width:6.79094839;stroke-linecap:round;stroke-linejoin:round;stroke-miterlimit:4;stroke-dasharray:none;stroke-dashoffset:0;stroke-opacity:1"
         id="rect5453"
         width="150"
         height="150"
         x="259.47977"
         y="941.85193" />
      <g
         transform="matrix(0.83598877,0,0,0.83598877,54.858441,166.77515)"
         id="g4304">
        <path
           style="fill:#000000;filter:url(#filter4300)"
           id="path3498"
           d="m 375.7188,1034.3349 -16.85,-8.532 15.95,-8.246 c 0.508,-0.264 0.508,-0.688 -0.003,-0.945 l -17.988,-9.107 18.912,-9.77797 c 0.919,-0.477 1.464,-1.323 1.459,-2.264 -0.006,-0.939 -0.561,-1.777 -1.48,-2.241 l -36.884,-18.672 c -0.683,-0.345 -1.396,-0.418 -1.875,-0.418 -0.44,0 -1.098,0.062 -1.735,0.36 l -41.928,19.629 c -0.954,0.447 -1.529,1.283 -1.538,2.235 -0.009,0.953 0.552,1.8 1.499,2.266 l 20.139,9.90297 -19.251,9.012 c -0.514,0.241 -0.516,0.643 -0.005,0.894 l 17.094,8.406 -17.938,8.396 c -0.955,0.447 -1.53,1.283 -1.538,2.235 -0.008,0.953 0.553,1.8 1.499,2.264 l 39.554,19.452 c 0.651,0.321 1.327,0.388 1.779,0.388 0.476,0 1.186,-0.073 1.872,-0.425 l 39.279,-20.308 c 0.919,-0.477 1.464,-1.323 1.459,-2.264 -0.008,-0.938 -0.562,-1.777 -1.482,-2.24 z m -38.865,-56.19397 c 0.01,-0.002 0.049,-0.009 0.106,-0.009 0.061,0 0.106,0.008 0.082,-0.006 l 34.309,17.368 -36.657,18.95797 c -0.01,0 -0.048,0.01 -0.103,0.01 l -0.014,0.021 -36.745,-18.06897 39.022,-18.273 z m -2.155,77.42097 c -0.011,0 -0.051,0.01 -0.109,0.01 l -0.012,0.023 -36.744,-18.07 17.375,-8.134 17.601,8.655 c 0.652,0.321 1.328,0.389 1.78,0.389 0.477,0 1.188,-0.074 1.87,-0.426 l 18.634,-9.633 16.255,8.23 -36.65,18.956 z"
           inkscape:connector-curvature="0" />
        <path
           inkscape:connector-curvature="0"
           d="m 375.7188,1034.3349 -16.85,-8.532 15.95,-8.246 c 0.508,-0.264 0.508,-0.688 -0.003,-0.945 l -17.988,-9.107 18.912,-9.77797 c 0.919,-0.477 1.464,-1.323 1.459,-2.264 -0.006,-0.939 -0.561,-1.777 -1.48,-2.241 l -36.884,-18.672 c -0.683,-0.345 -1.396,-0.418 -1.875,-0.418 -0.44,0 -1.098,0.062 -1.735,0.36 l -41.928,19.629 c -0.954,0.447 -1.529,1.283 -1.538,2.235 -0.009,0.953 0.552,1.8 1.499,2.266 l 20.139,9.90297 -19.251,9.012 c -0.514,0.241 -0.516,0.643 -0.005,0.894 l 17.094,8.406 -17.938,8.396 c -0.955,0.447 -1.53,1.283 -1.538,2.235 -0.008,0.953 0.553,1.8 1.499,2.264 l 39.554,19.452 c 0.651,0.321 1.327,0.388 1.779,0.388 0.476,0 1.186,-0.073 1.872,-0.425 l 39.279,-20.308 c 0.919,-0.477 1.464,-1.323 1.459,-2.264 -0.008,-0.938 -0.562,-1.777 -1.482,-2.24 z m -38.865,-56.19397 c 0.01,-0.002 0.049,-0.009 0.106,-0.009 0.061,0 0.106,0.008 0.082,-0.006 l 34.309,17.368 -36.657,18.95797 c -0.01,0 -0.048,0.01 -0.103,0.01 l -0.014,0.021 -36.745,-18.06897 39.022,-18.273 z m -2.155,77.42097 c -0.011,0 -0.051,0.01 -0.109,0.01 l -0.012,0.023 -36.744,-18.07 17.375,-8.134 17.601,8.655 c 0.652,0.321 1.328,0.389 1.78,0.389 0.477,0 1.188,-0.074 1.87,-0.426 l 18.634,-9.633 16.255,8.23 -36.65,18.956 z"
           id="path3478"
           style="fill:#333333" />
      </g>
    </g>
  </g>
</svg>
