<?xml version="1.0" encoding="UTF-8" standalone="no"?>
<!-- Created with Inkscape (http://www.inkscape.org/) -->

<svg
   xmlns:dc="http://purl.org/dc/elements/1.1/"
   xmlns:cc="http://creativecommons.org/ns#"
   xmlns:rdf="http://www.w3.org/1999/02/22-rdf-syntax-ns#"
   xmlns:svg="http://www.w3.org/2000/svg"
   xmlns="http://www.w3.org/2000/svg"
   xmlns:sodipodi="http://sodipodi.sourceforge.net/DTD/sodipodi-0.dtd"
   xmlns:inkscape="http://www.inkscape.org/namespaces/inkscape"
   width="42.333332mm"
   height="42.333332mm"
   viewBox="0 0 149.99999 150"
   id="svg4759"
   version="1.1"
   inkscape:version="0.92+devel unknown"
   sodipodi:docname="Manual-Scavenging.svg">
  <defs
     id="defs4761">
    <filter
       inkscape:collect="always"
       style="color-interpolation-filters:sRGB"
       id="filter4424"
       x="-0.083865248"
       width="1.1677305"
       y="-0.04670836"
       height="1.0934167">
      <feGaussianBlur
         inkscape:collect="always"
         stdDeviation="0.72174072"
         id="feGaussianBlur4426" />
    </filter>
    <filter
       inkscape:collect="always"
       style="color-interpolation-filters:sRGB"
       id="filter12493"
       x="-0.045"
       width="1.09"
       y="-0.09"
       height="1.18">
      <feGaussianBlur
         inkscape:collect="always"
         stdDeviation="1.426642"
         id="feGaussianBlur12495" />
    </filter>
  </defs>
  <sodipodi:namedview
     id="base"
     pagecolor="#ffffff"
     bordercolor="#666666"
     borderopacity="1.0"
     inkscape:pageopacity="0.0"
     inkscape:pageshadow="2"
     inkscape:zoom="3.2519941"
     inkscape:cx="79.719354"
     inkscape:cy="90.56408"
     inkscape:document-units="px"
     inkscape:current-layer="layer1"
     showgrid="false"
     fit-margin-top="0"
     fit-margin-left="0"
     fit-margin-right="0"
     fit-margin-bottom="0"
     inkscape:window-width="1366"
     inkscape:window-height="768"
     inkscape:window-x="0"
     inkscape:window-y="0"
     inkscape:window-maximized="0"
     showborder="false"
     inkscape:document-rotation="0" />
  <metadata
     id="metadata4764">
    <rdf:RDF>
      <cc:Work
         rdf:about="">
        <dc:format>image/svg+xml</dc:format>
        <dc:type
           rdf:resource="http://purl.org/dc/dcmitype/StillImage" />
        <dc:title></dc:title>
      </cc:Work>
    </rdf:RDF>
  </metadata>
  <g
     inkscape:label="Layer 1"
     inkscape:groupmode="layer"
     id="layer1"
     transform="translate(-254.30068,-943.69336)">
    <g
       id="g12557">
      <rect
         ry="0"
         rx="0"
         style="opacity:1;fill:#333333;fill-opacity:1;stroke:none;stroke-width:6.79094839;stroke-linecap:round;stroke-linejoin:round;stroke-miterlimit:4;stroke-dasharray:none;stroke-dashoffset:0;stroke-opacity:1"
         id="rect5453"
         width="150"
         height="150"
         x="254.30067"
         y="943.69336" />
      <g
         transform="matrix(0.32938344,0,0,0.32938344,287.57876,976.58917)"
         id="g17844" />
      <g
         transform="matrix(0.32938344,0,0,0.32938344,287.57876,976.58917)"
         id="g17846" />
      <g
         transform="matrix(0.32938344,0,0,0.32938344,287.57876,976.58917)"
         id="g17848" />
      <g
         transform="matrix(0.32938344,0,0,0.32938344,287.57876,976.58917)"
         id="g17850" />
      <g
         transform="matrix(0.32938344,0,0,0.32938344,287.57876,976.58917)"
         id="g17852" />
      <g
         transform="matrix(0.32938344,0,0,0.32938344,287.57876,976.58917)"
         id="g17854" />
      <g
         transform="matrix(0.32938344,0,0,0.32938344,287.57876,976.58917)"
         id="g17856" />
      <g
         transform="matrix(0.32938344,0,0,0.32938344,287.57876,976.58917)"
         id="g17858" />
      <g
         transform="matrix(0.32938344,0,0,0.32938344,287.57876,976.58917)"
         id="g17860" />
      <g
         transform="matrix(0.32938344,0,0,0.32938344,287.57876,976.58917)"
         id="g17862" />
      <g
         transform="matrix(0.32938344,0,0,0.32938344,287.57876,976.58917)"
         id="g17864" />
      <g
         transform="matrix(0.32938344,0,0,0.32938344,287.57876,976.58917)"
         id="g17866" />
      <g
         transform="matrix(0.32938344,0,0,0.32938344,287.57876,976.58917)"
         id="g17868" />
      <g
         transform="matrix(0.32938344,0,0,0.32938344,287.57876,976.58917)"
         id="g17870" />
      <g
         transform="matrix(0.32938344,0,0,0.32938344,287.57876,976.58917)"
         id="g17872" />
      <g
         id="g12497">
        <g
           transform="matrix(1.3866205,0,0,1.3866205,-137.2863,-390.59501)"
           id="g12431"
           style="filter:url(#filter12493)">
          <g
             id="g12433"
             transform="matrix(0.32938344,0,0,0.32938344,287.57876,976.58917)">
            <path
               id="path12435"
               d="m 247.5,115.5 c 0,54.676 -44.324,99 -99,99 -54.676,0 -99,-44.324 -99,-99 l 198,0 z"
               style="fill:#b3b3b3"
               inkscape:connector-curvature="0" />
          </g>
          <g
             id="g12437"
             transform="matrix(0.32938344,0,0,0.32938344,287.57876,976.58917)">
            <path
               id="path12439"
               d="m 113.25,134.5 c 0,-2.485 2.015,-8 4.5,-8 2.485,0 4.5,5.515 4.5,8 0,2.485 -2.015,4.5 -4.5,4.5 -2.485,0 -4.5,-2.015 -4.5,-4.5 z"
               style="fill:#32373b"
               inkscape:connector-curvature="0" />
          </g>
          <g
             id="g12441"
             transform="matrix(0.32938344,0,0,0.32938344,287.57876,976.58917)">
            <path
               id="path12443"
               d="m 247.5,115.5 -99,0 0,99 c 54.676,0 99,-44.324 99,-99 z"
               style="fill:#666666"
               inkscape:connector-curvature="0" />
          </g>
          <g
             id="g12445"
             transform="matrix(0.32938344,0,0,0.32938344,287.57876,976.58917)">
            <path
               id="path12447"
               d="m 82.5,134.5 c 0,-2.485 2.015,-8 4.5,-8 2.485,0 4.5,5.515 4.5,8 0,2.485 -2.015,4.5 -4.5,4.5 -2.485,0 -4.5,-2.015 -4.5,-4.5 z"
               style="fill:#32373b"
               inkscape:connector-curvature="0" />
          </g>
          <g
             id="g12449"
             transform="matrix(0.32938344,0,0,0.32938344,287.57876,976.58917)">
            <path
               id="path12451"
               d="m 174.75,134.5 c 0,-2.485 2.015,-8 4.5,-8 2.485,0 4.5,5.515 4.5,8 0,2.485 -2.015,4.5 -4.5,4.5 -2.485,0 -4.5,-2.015 -4.5,-4.5 z"
               style="fill:#292d30"
               inkscape:connector-curvature="0" />
          </g>
          <g
             id="g12453"
             transform="matrix(0.32938344,0,0,0.32938344,287.57876,976.58917)">
            <path
               id="path12455"
               d="m 205.5,134.5 c 0,-2.485 2.015,-8 4.5,-8 2.485,0 4.5,5.515 4.5,8 0,2.485 -2.015,4.5 -4.5,4.5 -2.485,0 -4.5,-2.015 -4.5,-4.5 z"
               style="fill:#292d30"
               inkscape:connector-curvature="0" />
          </g>
          <g
             id="g12457"
             transform="matrix(0.32938344,0,0,0.32938344,287.57876,976.58917)">
            <path
               id="path12459"
               d="m 96.75,161.75 c 0,-2.485 2.015,-8 4.5,-8 2.485,0 4.5,5.515 4.5,8 0,2.485 -2.015,4.5 -4.5,4.5 -2.485,0 -4.5,-2.015 -4.5,-4.5 z"
               style="fill:#32373b"
               inkscape:connector-curvature="0" />
          </g>
          <g
             id="g12461"
             transform="matrix(0.32938344,0,0,0.32938344,287.57876,976.58917)">
            <path
               id="path12463"
               d="m 127.5,161.75 c 0,-2.485 2.015,-8 4.5,-8 2.485,0 4.5,5.515 4.5,8 0,2.485 -2.015,4.5 -4.5,4.5 -2.485,0 -4.5,-2.015 -4.5,-4.5 z"
               style="fill:#32373b"
               inkscape:connector-curvature="0" />
          </g>
          <g
             id="g12465"
             transform="matrix(0.32938344,0,0,0.32938344,287.57876,976.58917)">
            <path
               id="path12467"
               d="m 158.25,161.75 c 0,-2.485 2.015,-8 4.5,-8 2.485,0 4.5,5.515 4.5,8 0,2.485 -2.015,4.5 -4.5,4.5 -2.485,0 -4.5,-2.015 -4.5,-4.5 z"
               style="fill:#292d30"
               inkscape:connector-curvature="0" />
          </g>
          <g
             id="g12469"
             transform="matrix(0.32938344,0,0,0.32938344,287.57876,976.58917)">
            <path
               id="path12471"
               d="m 189,161.75 c 0,-2.485 2.015,-8 4.5,-8 2.485,0 4.5,5.515 4.5,8 0,2.485 -2.015,4.5 -4.5,4.5 -2.485,0 -4.5,-2.015 -4.5,-4.5 z"
               style="fill:#292d30"
               inkscape:connector-curvature="0" />
          </g>
          <g
             id="g12473"
             transform="matrix(0.32938344,0,0,0.32938344,287.57876,976.58917)">
            <path
               id="path12475"
               d="m 144,134.5 c 0,-2.485 2.015,-8 4.5,-8 2.485,0 4.5,5.515 4.5,8 0,2.485 -2.015,4.5 -4.5,4.5 -2.485,0 -4.5,-2.015 -4.5,-4.5 z"
               style="fill:#32373b"
               inkscape:connector-curvature="0" />
          </g>
          <g
             id="g12477"
             transform="matrix(0.32938344,0,0,0.32938344,287.57876,976.58917)">
            <path
               id="path12479"
               d="M 33,115.5 C 33,179.289 84.711,231 148.5,231 212.289,231 264,179.289 264,115.5 l -24.75,0 c 0,50.12 -40.63,90.75 -90.75,90.75 -50.12,0 -90.75,-40.63 -90.75,-90.75 l -24.75,0 z"
               style="fill:#e6e6e6"
               inkscape:connector-curvature="0" />
          </g>
          <g
             id="g12481"
             transform="matrix(0.32938344,0,0,0.32938344,287.57876,976.58917)">
            <path
               id="path12483"
               d="m 264,115.5 -24.75,0 c 0,50.12 -40.63,90.75 -90.75,90.75 l 0,24.75 C 212.289,231 264,179.289 264,115.5 Z"
               style="fill:#cccccc"
               inkscape:connector-curvature="0" />
          </g>
          <g
             id="g12485"
             transform="matrix(0.32938344,0,0,0.32938344,287.57876,976.58917)">
            <path
               id="path12487"
               d="m 153,134.5 c 0,-2.485 -2.015,-7.999 -4.5,-8 l 0,12.5 c 2.485,0 4.5,-2.015 4.5,-4.5 z"
               style="fill:#292d30"
               inkscape:connector-curvature="0" />
          </g>
        </g>
        <g
           id="g18010"
           transform="matrix(1.3866205,0,0,1.3866205,-137.2863,-390.59501)">
          <g
             transform="matrix(0.32938344,0,0,0.32938344,287.57876,976.58917)"
             id="g17788">
            <path
               inkscape:connector-curvature="0"
               style="fill:#b3b3b3"
               d="m 247.5,115.5 c 0,54.676 -44.324,99 -99,99 -54.676,0 -99,-44.324 -99,-99 l 198,0 z"
               id="path17790" />
          </g>
          <g
             transform="matrix(0.32938344,0,0,0.32938344,287.57876,976.58917)"
             id="g17792">
            <path
               inkscape:connector-curvature="0"
               style="fill:#32373b"
               d="m 113.25,134.5 c 0,-2.485 2.015,-8 4.5,-8 2.485,0 4.5,5.515 4.5,8 0,2.485 -2.015,4.5 -4.5,4.5 -2.485,0 -4.5,-2.015 -4.5,-4.5 z"
               id="path17794" />
          </g>
          <g
             transform="matrix(0.32938344,0,0,0.32938344,287.57876,976.58917)"
             id="g17796">
            <path
               inkscape:connector-curvature="0"
               style="fill:#666666"
               d="m 247.5,115.5 -99,0 0,99 c 54.676,0 99,-44.324 99,-99 z"
               id="path17798" />
          </g>
          <g
             transform="matrix(0.32938344,0,0,0.32938344,287.57876,976.58917)"
             id="g17800">
            <path
               inkscape:connector-curvature="0"
               style="fill:#32373b"
               d="m 82.5,134.5 c 0,-2.485 2.015,-8 4.5,-8 2.485,0 4.5,5.515 4.5,8 0,2.485 -2.015,4.5 -4.5,4.5 -2.485,0 -4.5,-2.015 -4.5,-4.5 z"
               id="path17802" />
          </g>
          <g
             transform="matrix(0.32938344,0,0,0.32938344,287.57876,976.58917)"
             id="g17804">
            <path
               inkscape:connector-curvature="0"
               style="fill:#292d30"
               d="m 174.75,134.5 c 0,-2.485 2.015,-8 4.5,-8 2.485,0 4.5,5.515 4.5,8 0,2.485 -2.015,4.5 -4.5,4.5 -2.485,0 -4.5,-2.015 -4.5,-4.5 z"
               id="path17806" />
          </g>
          <g
             transform="matrix(0.32938344,0,0,0.32938344,287.57876,976.58917)"
             id="g17808">
            <path
               inkscape:connector-curvature="0"
               style="fill:#292d30"
               d="m 205.5,134.5 c 0,-2.485 2.015,-8 4.5,-8 2.485,0 4.5,5.515 4.5,8 0,2.485 -2.015,4.5 -4.5,4.5 -2.485,0 -4.5,-2.015 -4.5,-4.5 z"
               id="path17810" />
          </g>
          <g
             transform="matrix(0.32938344,0,0,0.32938344,287.57876,976.58917)"
             id="g17812">
            <path
               inkscape:connector-curvature="0"
               style="fill:#32373b"
               d="m 96.75,161.75 c 0,-2.485 2.015,-8 4.5,-8 2.485,0 4.5,5.515 4.5,8 0,2.485 -2.015,4.5 -4.5,4.5 -2.485,0 -4.5,-2.015 -4.5,-4.5 z"
               id="path17814" />
          </g>
          <g
             transform="matrix(0.32938344,0,0,0.32938344,287.57876,976.58917)"
             id="g17816">
            <path
               inkscape:connector-curvature="0"
               style="fill:#32373b"
               d="m 127.5,161.75 c 0,-2.485 2.015,-8 4.5,-8 2.485,0 4.5,5.515 4.5,8 0,2.485 -2.015,4.5 -4.5,4.5 -2.485,0 -4.5,-2.015 -4.5,-4.5 z"
               id="path17818" />
          </g>
          <g
             transform="matrix(0.32938344,0,0,0.32938344,287.57876,976.58917)"
             id="g17820">
            <path
               inkscape:connector-curvature="0"
               style="fill:#292d30"
               d="m 158.25,161.75 c 0,-2.485 2.015,-8 4.5,-8 2.485,0 4.5,5.515 4.5,8 0,2.485 -2.015,4.5 -4.5,4.5 -2.485,0 -4.5,-2.015 -4.5,-4.5 z"
               id="path17822" />
          </g>
          <g
             transform="matrix(0.32938344,0,0,0.32938344,287.57876,976.58917)"
             id="g17824">
            <path
               inkscape:connector-curvature="0"
               style="fill:#292d30"
               d="m 189,161.75 c 0,-2.485 2.015,-8 4.5,-8 2.485,0 4.5,5.515 4.5,8 0,2.485 -2.015,4.5 -4.5,4.5 -2.485,0 -4.5,-2.015 -4.5,-4.5 z"
               id="path17826" />
          </g>
          <g
             transform="matrix(0.32938344,0,0,0.32938344,287.57876,976.58917)"
             id="g17828">
            <path
               inkscape:connector-curvature="0"
               style="fill:#32373b"
               d="m 144,134.5 c 0,-2.485 2.015,-8 4.5,-8 2.485,0 4.5,5.515 4.5,8 0,2.485 -2.015,4.5 -4.5,4.5 -2.485,0 -4.5,-2.015 -4.5,-4.5 z"
               id="path17830" />
          </g>
          <g
             transform="matrix(0.32938344,0,0,0.32938344,287.57876,976.58917)"
             id="g17832">
            <path
               inkscape:connector-curvature="0"
               style="fill:#e6e6e6"
               d="M 33,115.5 C 33,179.289 84.711,231 148.5,231 212.289,231 264,179.289 264,115.5 l -24.75,0 c 0,50.12 -40.63,90.75 -90.75,90.75 -50.12,0 -90.75,-40.63 -90.75,-90.75 l -24.75,0 z"
               id="path17834" />
          </g>
          <g
             transform="matrix(0.32938344,0,0,0.32938344,287.57876,976.58917)"
             id="g17836">
            <path
               inkscape:connector-curvature="0"
               style="fill:#cccccc"
               d="m 264,115.5 -24.75,0 c 0,50.12 -40.63,90.75 -90.75,90.75 l 0,24.75 C 212.289,231 264,179.289 264,115.5 Z"
               id="path17838" />
          </g>
          <g
             transform="matrix(0.32938344,0,0,0.32938344,287.57876,976.58917)"
             id="g17840">
            <path
               inkscape:connector-curvature="0"
               style="fill:#292d30"
               d="m 153,134.5 c 0,-2.485 -2.015,-7.999 -4.5,-8 l 0,12.5 c 2.485,0 4.5,-2.015 4.5,-4.5 z"
               id="path17842" />
          </g>
        </g>
      </g>
      <g
         id="g4428">
        <text
           id="text3620"
           y="1002.0706"
           x="314.65222"
           style="font-style:normal;font-variant:normal;font-weight:normal;font-stretch:normal;line-height:0%;font-family:sans-serif;-inkscape-font-specification:sans-serif;letter-spacing:0px;word-spacing:0px;fill:#ffffff;fill-opacity:1;stroke:none;stroke-width:1px;stroke-linecap:butt;stroke-linejoin:miter;stroke-opacity:1;filter:url(#filter4424)"
           xml:space="preserve"><tspan
             style="font-style:normal;font-variant:normal;font-weight:bold;font-stretch:normal;font-size:50px;line-height:1.25;font-family:Sawasdee;-inkscape-font-specification:'Sawasdee Bold';fill:#ffffff"
             y="1002.0706"
             x="314.65222"
             id="tspan3622"
             sodipodi:role="line">?</tspan></text>
        <text
           xml:space="preserve"
           style="font-style:normal;font-variant:normal;font-weight:normal;font-stretch:normal;line-height:0%;font-family:sans-serif;-inkscape-font-specification:sans-serif;letter-spacing:0px;word-spacing:0px;fill:#000000;fill-opacity:1;stroke:none;stroke-width:1px;stroke-linecap:butt;stroke-linejoin:miter;stroke-opacity:1"
           x="314.65222"
           y="1002.0706"
           id="text3616"><tspan
             sodipodi:role="line"
             id="tspan3618"
             x="314.65222"
             y="1002.0706"
             style="font-style:normal;font-variant:normal;font-weight:bold;font-stretch:normal;font-size:50px;line-height:1.25;font-family:Sawasdee;-inkscape-font-specification:'Sawasdee Bold';fill:#e6e6e6">?</tspan></text>
      </g>
    </g>
  </g>
</svg>
