<?xml version="1.0" encoding="UTF-8" standalone="no"?>
<!-- Created with Inkscape (http://www.inkscape.org/) -->

<svg
   xmlns:dc="http://purl.org/dc/elements/1.1/"
   xmlns:cc="http://creativecommons.org/ns#"
   xmlns:rdf="http://www.w3.org/1999/02/22-rdf-syntax-ns#"
   xmlns:svg="http://www.w3.org/2000/svg"
   xmlns="http://www.w3.org/2000/svg"
   xmlns:sodipodi="http://sodipodi.sourceforge.net/DTD/sodipodi-0.dtd"
   xmlns:inkscape="http://www.inkscape.org/namespaces/inkscape"
   width="33.866665mm"
   height="33.866665mm"
   viewBox="0 0 119.99999 119.99999"
   id="svg4759"
   version="1.1"
   inkscape:version="0.91 r13725"
   sodipodi:docname="Meetup-CCWW-Odd.svg">
  <defs
     id="defs4761">
    <filter
       inkscape:collect="always"
       style="color-interpolation-filters:sRGB"
       id="filter4469"
       x="-0.025567514"
       width="1.051135"
       y="-0.060814591"
       height="1.1216292">
      <feGaussianBlur
         inkscape:collect="always"
         stdDeviation="0.85225045"
         id="feGaussianBlur4471" />
    </filter>
  </defs>
  <sodipodi:namedview
     id="base"
     pagecolor="#ffffff"
     bordercolor="#666666"
     borderopacity="1.0"
     inkscape:pageopacity="0.0"
     inkscape:pageshadow="2"
     inkscape:zoom="2.8469816"
     inkscape:cx="150.35741"
     inkscape:cy="54.086592"
     inkscape:document-units="px"
     inkscape:current-layer="layer1"
     showgrid="false"
     fit-margin-top="0"
     fit-margin-left="0"
     fit-margin-right="0"
     fit-margin-bottom="0"
     inkscape:window-width="1366"
     inkscape:window-height="705"
     inkscape:window-x="0"
     inkscape:window-y="30"
     inkscape:window-maximized="1"
     showborder="false"
     showguides="true"
     inkscape:guide-bbox="true">
    <sodipodi:guide
       position="162.27713,60.063611"
       orientation="0,1"
       id="guide3339" />
  </sodipodi:namedview>
  <metadata
     id="metadata4764">
    <rdf:RDF>
      <cc:Work
         rdf:about="">
        <dc:format>image/svg+xml</dc:format>
        <dc:type
           rdf:resource="http://purl.org/dc/dcmitype/StillImage" />
        <dc:title />
      </cc:Work>
    </rdf:RDF>
  </metadata>
  <g
     inkscape:label="Layer 1"
     inkscape:groupmode="layer"
     id="layer1"
     transform="translate(-258.32652,-976.15753)">
    <g
       id="g3348"
       inkscape:export-xdpi="90"
       inkscape:export-ydpi="90">
      <rect
         ry="0"
         rx="0"
         style="opacity:1;fill:#b3b3b3;fill-opacity:1;stroke:none;stroke-width:6.79094839;stroke-linecap:round;stroke-linejoin:round;stroke-miterlimit:4;stroke-dasharray:none;stroke-dashoffset:0;stroke-opacity:1"
         id="rect5453"
         width="120"
         height="120"
         x="258.32651"
         y="976.15753" />
      <g
         transform="translate(0,5.0931134)"
         id="g3344">
        <path
           inkscape:connector-curvature="0"
           id="path3659"
           d="m 339.81145,1052.7412 c -0.28973,-0.1529 -0.54417,-0.3993 -0.74138,-0.7177 l -0.30027,-0.4849 0,-7.0641 c 0,-7.8678 -0.0453,-7.3465 0.6942,-7.9957 1.34491,-1.181 3.25585,-0.1217 3.25873,1.8062 5e-4,0.3623 0.0224,0.3851 0.69407,0.7233 1.49625,0.7535 2.70301,0.9061 4.41099,0.5577 2.63742,-0.5381 5.02593,-2.5811 5.96781,-5.1047 0.42736,-1.145 0.57976,-2.1736 0.50884,-3.4345 -0.0681,-1.209 -0.25126,-1.9561 -0.72746,-2.9657 -1.24724,-2.6443 -3.67932,-4.3924 -6.5574,-4.7133 -2.05922,-0.2296 -3.84235,0.2318 -5.71989,1.4803 -0.57632,0.3833 -0.78639,0.4664 -1.26043,0.4987 -1.55739,0.1062 -2.57721,-1.5611 -1.78339,-2.9156 0.19201,-0.3276 0.49652,-0.6066 1.10191,-1.0094 3.54775,-2.3606 7.91374,-2.7087 11.84926,-0.9448 1.07186,0.4804 2.6014,1.5595 3.52613,2.4878 1.83303,1.8402 2.93788,4.034 3.40361,6.7583 0.24218,1.4165 0.2492,2.0173 0.04,3.4256 -0.69257,4.6629 -3.83428,8.4637 -8.20712,9.9287 -2.24263,0.7514 -4.80273,0.8146 -6.63343,0.1637 -0.24088,-0.086 -0.47549,-0.1556 -0.52138,-0.1556 -0.0459,0 -0.0965,1.9065 -0.11252,4.2367 l -0.0291,4.2368 -0.30027,0.4846 c -0.37232,0.601 -0.97973,0.9506 -1.65145,0.9506 -0.2979,0 -0.62986,-0.085 -0.91008,-0.233 z m -31.05726,-9.0753 c -5.49363,-0.6868 -9.57169,-4.4198 -10.73257,-9.8242 -0.24674,-1.1487 -0.24723,-3.522 -8.7e-4,-4.6681 1.08944,-5.0702 4.94838,-8.7946 10.02208,-9.6726 3.27797,-0.5672 6.93143,0.4197 9.59962,2.5931 0.39293,0.32 0.63143,0.4518 0.71004,0.3925 0.0651,-0.049 0.4783,-0.3625 0.9182,-0.6963 4.88388,-3.7058 11.81783,-3.133 16.05832,1.3268 4.58292,4.82 4.51079,12.2726 -0.16446,16.9944 -4.31417,4.3571 -11.40208,4.7774 -16.13753,0.9569 -0.34434,-0.2779 -0.67488,-0.5051 -0.73454,-0.5051 -0.0596,0 -0.49858,0.2935 -0.97536,0.6521 -1.53123,1.1519 -3.65036,2.0733 -5.37085,2.3354 -1.06468,0.1621 -2.42382,0.2111 -3.19194,0.1151 z m 3.42501,-4.197 c 1.20269,-0.3474 2.69217,-1.1877 3.3637,-1.8977 l 0.29384,-0.3106 -0.18262,-0.3755 c -0.57713,-1.1865 -1.05721,-2.802 -1.05344,-3.5449 0.004,-0.8749 0.55748,-1.6027 1.43058,-1.8825 0.73865,-0.2368 1.75342,0.1736 2.13575,0.8635 0.11737,0.2118 0.30575,0.7454 0.41861,1.1858 0.27244,1.0631 0.62313,1.8333 1.24327,2.7303 2.15762,3.1212 6.14638,4.3239 9.7362,2.9359 2.10734,-0.8149 3.90279,-2.6285 4.69723,-4.7446 1.45032,-3.8634 -0.22103,-8.2857 -3.84374,-10.1705 -1.26079,-0.6559 -2.3467,-0.9269 -3.75946,-0.9381 -1.60539,-0.013 -2.62379,0.2348 -4.05358,0.9861 -0.66586,0.3498 -1.67077,1.1137 -1.82311,1.386 -0.0557,0.1 -0.002,0.3171 0.156,0.6305 0.77436,1.5372 0.98508,2.7485 0.60556,3.4811 -0.47374,0.9147 -1.65415,1.3047 -2.58487,0.8542 -0.58646,-0.284 -0.80302,-0.5995 -1.20621,-1.7574 -0.75101,-2.1566 -2.20334,-3.8024 -4.20536,-4.765 -1.22204,-0.5877 -2.18087,-0.8007 -3.60318,-0.8007 -2.36727,0 -4.22755,0.7869 -5.86649,2.4816 -1.60288,1.6574 -2.29071,3.357 -2.29071,5.6601 0,1.4731 0.18321,2.3411 0.74538,3.5318 1.12819,2.3897 3.16305,4.0268 5.71032,4.5945 0.98316,0.219 2.94592,0.1523 3.93633,-0.1339 z m -23.45355,4.1275 c -0.16515,-0.022 -0.66058,-0.1298 -1.10097,-0.24 -4.22856,-1.0581 -7.56393,-4.2118 -8.7978,-8.3185 -0.3961,-1.3183 -0.49759,-2.0349 -0.50035,-3.5327 -0.006,-3.3029 1.18877,-6.1905 3.54307,-8.5624 4.01098,-4.041 10.31752,-4.7701 15.04162,-1.739 1.26353,0.8108 1.67313,1.3478 1.67313,2.1936 0,0.5828 -0.18789,1.018 -0.61362,1.4209 -0.41055,0.3885 -0.76669,0.5315 -1.32341,0.5315 -0.44413,0 -0.75999,-0.1428 -1.96387,-0.8884 -2.2754,-1.409 -5.46576,-1.5461 -7.85948,-0.3374 -1.75737,0.8873 -3.28145,2.5323 -4.01206,4.3304 -0.53653,1.3203 -0.70364,3.3723 -0.39375,4.8349 0.78233,3.6923 4.239,6.4783 8.02979,6.4719 1.62931,-0.01 3.21726,-0.5066 4.73782,-1.5036 0.5096,-0.334 0.90412,-0.5154 1.21356,-0.5578 1.54089,-0.2113 2.66591,1.4065 1.97322,2.8374 -0.51725,1.0685 -3.43363,2.5556 -5.83208,2.9739 -0.81668,0.1424 -3.01009,0.1915 -3.81482,0.086 z"
           style="fill:#333333;filter:url(#filter4469)" />
        <path
           style="fill:#333333"
           d="m 339.81145,1052.7412 c -0.28973,-0.1529 -0.54417,-0.3993 -0.74138,-0.7177 l -0.30027,-0.4849 0,-7.0641 c 0,-7.8678 -0.0453,-7.3465 0.6942,-7.9957 1.34491,-1.181 3.25585,-0.1217 3.25873,1.8062 5e-4,0.3623 0.0224,0.3851 0.69407,0.7233 1.49625,0.7535 2.70301,0.9061 4.41099,0.5577 2.63742,-0.5381 5.02593,-2.5811 5.96781,-5.1047 0.42736,-1.145 0.57976,-2.1736 0.50884,-3.4345 -0.0681,-1.209 -0.25126,-1.9561 -0.72746,-2.9657 -1.24724,-2.6443 -3.67932,-4.3924 -6.5574,-4.7133 -2.05922,-0.2296 -3.84235,0.2318 -5.71989,1.4803 -0.57632,0.3833 -0.78639,0.4664 -1.26043,0.4987 -1.55739,0.1062 -2.57721,-1.5611 -1.78339,-2.9156 0.19201,-0.3276 0.49652,-0.6066 1.10191,-1.0094 3.54775,-2.3606 7.91374,-2.7087 11.84926,-0.9448 1.07186,0.4804 2.6014,1.5595 3.52613,2.4878 1.83303,1.8402 2.93788,4.034 3.40361,6.7583 0.24218,1.4165 0.2492,2.0173 0.04,3.4256 -0.69257,4.6629 -3.83428,8.4637 -8.20712,9.9287 -2.24263,0.7514 -4.80273,0.8146 -6.63343,0.1637 -0.24088,-0.086 -0.47549,-0.1556 -0.52138,-0.1556 -0.0459,0 -0.0965,1.9065 -0.11252,4.2367 l -0.0291,4.2368 -0.30027,0.4846 c -0.37232,0.601 -0.97973,0.9506 -1.65145,0.9506 -0.2979,0 -0.62986,-0.085 -0.91008,-0.233 z m -31.05726,-9.0753 c -5.49363,-0.6868 -9.57169,-4.4198 -10.73257,-9.8242 -0.24674,-1.1487 -0.24723,-3.522 -8.7e-4,-4.6681 1.08944,-5.0702 4.94838,-8.7946 10.02208,-9.6726 3.27797,-0.5672 6.93143,0.4197 9.59962,2.5931 0.39293,0.32 0.63143,0.4518 0.71004,0.3925 0.0651,-0.049 0.4783,-0.3625 0.9182,-0.6963 4.88388,-3.7058 11.81783,-3.133 16.05832,1.3268 4.58292,4.82 4.51079,12.2726 -0.16446,16.9944 -4.31417,4.3571 -11.40208,4.7774 -16.13753,0.9569 -0.34434,-0.2779 -0.67488,-0.5051 -0.73454,-0.5051 -0.0596,0 -0.49858,0.2935 -0.97536,0.6521 -1.53123,1.1519 -3.65036,2.0733 -5.37085,2.3354 -1.06468,0.1621 -2.42382,0.2111 -3.19194,0.1151 z m 3.42501,-4.197 c 1.20269,-0.3474 2.69217,-1.1877 3.3637,-1.8977 l 0.29384,-0.3106 -0.18262,-0.3755 c -0.57713,-1.1865 -1.05721,-2.802 -1.05344,-3.5449 0.004,-0.8749 0.55748,-1.6027 1.43058,-1.8825 0.73865,-0.2368 1.75342,0.1736 2.13575,0.8635 0.11737,0.2118 0.30575,0.7454 0.41861,1.1858 0.27244,1.0631 0.62313,1.8333 1.24327,2.7303 2.15762,3.1212 6.14638,4.3239 9.7362,2.9359 2.10734,-0.8149 3.90279,-2.6285 4.69723,-4.7446 1.45032,-3.8634 -0.22103,-8.2857 -3.84374,-10.1705 -1.26079,-0.6559 -2.3467,-0.9269 -3.75946,-0.9381 -1.60539,-0.013 -2.62379,0.2348 -4.05358,0.9861 -0.66586,0.3498 -1.67077,1.1137 -1.82311,1.386 -0.0557,0.1 -0.002,0.3171 0.156,0.6305 0.77436,1.5372 0.98508,2.7485 0.60556,3.4811 -0.47374,0.9147 -1.65415,1.3047 -2.58487,0.8542 -0.58646,-0.284 -0.80302,-0.5995 -1.20621,-1.7574 -0.75101,-2.1566 -2.20334,-3.8024 -4.20536,-4.765 -1.22204,-0.5877 -2.18087,-0.8007 -3.60318,-0.8007 -2.36727,0 -4.22755,0.7869 -5.86649,2.4816 -1.60288,1.6574 -2.29071,3.357 -2.29071,5.6601 0,1.4731 0.18321,2.3411 0.74538,3.5318 1.12819,2.3897 3.16305,4.0268 5.71032,4.5945 0.98316,0.219 2.94592,0.1523 3.93633,-0.1339 z m -23.45355,4.1275 c -0.16515,-0.022 -0.66058,-0.1298 -1.10097,-0.24 -4.22856,-1.0581 -7.56393,-4.2118 -8.7978,-8.3185 -0.3961,-1.3183 -0.49759,-2.0349 -0.50035,-3.5327 -0.006,-3.3029 1.18877,-6.1905 3.54307,-8.5624 4.01098,-4.041 10.31752,-4.7701 15.04162,-1.739 1.26353,0.8108 1.67313,1.3478 1.67313,2.1936 0,0.5828 -0.18789,1.018 -0.61362,1.4209 -0.41055,0.3885 -0.76669,0.5315 -1.32341,0.5315 -0.44413,0 -0.75999,-0.1428 -1.96387,-0.8884 -2.2754,-1.409 -5.46576,-1.5461 -7.85948,-0.3374 -1.75737,0.8873 -3.28145,2.5323 -4.01206,4.3304 -0.53653,1.3203 -0.70364,3.3723 -0.39375,4.8349 0.78233,3.6923 4.239,6.4783 8.02979,6.4719 1.62931,-0.01 3.21726,-0.5066 4.73782,-1.5036 0.5096,-0.334 0.90412,-0.5154 1.21356,-0.5578 1.54089,-0.2113 2.66591,1.4065 1.97322,2.8374 -0.51725,1.0685 -3.43363,2.5556 -5.83208,2.9739 -0.81668,0.1424 -3.01009,0.1915 -3.81482,0.086 z"
           id="path3657"
           inkscape:connector-curvature="0" />
      </g>
    </g>
  </g>
</svg>
