<?xml version="1.0" encoding="UTF-8" standalone="no"?>
<!-- Created with Inkscape (http://www.inkscape.org/) -->

<svg
   xmlns:dc="http://purl.org/dc/elements/1.1/"
   xmlns:cc="http://creativecommons.org/ns#"
   xmlns:rdf="http://www.w3.org/1999/02/22-rdf-syntax-ns#"
   xmlns:svg="http://www.w3.org/2000/svg"
   xmlns="http://www.w3.org/2000/svg"
   xmlns:sodipodi="http://sodipodi.sourceforge.net/DTD/sodipodi-0.dtd"
   xmlns:inkscape="http://www.inkscape.org/namespaces/inkscape"
   width="33.866665mm"
   height="33.866665mm"
   viewBox="0 0 119.99999 119.99999"
   id="svg4759"
   version="1.1"
   inkscape:version="0.91 r13725"
   sodipodi:docname="Meetup-4CCON-Even.svg">
  <defs
     id="defs4761">
    <filter
       inkscape:collect="always"
       style="color-interpolation-filters:sRGB"
       id="filter5491"
       x="-0.048414961"
       width="1.0968299"
       y="-0.079027846"
       height="1.1580557">
      <feGaussianBlur
         inkscape:collect="always"
         stdDeviation="138.34455"
         id="feGaussianBlur5493" />
    </filter>
  </defs>
  <sodipodi:namedview
     id="base"
     pagecolor="#ffffff"
     bordercolor="#666666"
     borderopacity="1.0"
     inkscape:pageopacity="0.0"
     inkscape:pageshadow="2"
     inkscape:zoom="2.8284271"
     inkscape:cx="24.799113"
     inkscape:cy="38.753863"
     inkscape:document-units="px"
     inkscape:current-layer="layer1"
     showgrid="false"
     fit-margin-top="0"
     fit-margin-left="0"
     fit-margin-right="0"
     fit-margin-bottom="0"
     inkscape:window-width="1366"
     inkscape:window-height="713"
     inkscape:window-x="0"
     inkscape:window-y="27"
     inkscape:window-maximized="1"
     showborder="false" />
  <metadata
     id="metadata4764">
    <rdf:RDF>
      <cc:Work
         rdf:about="">
        <dc:format>image/svg+xml</dc:format>
        <dc:type
           rdf:resource="http://purl.org/dc/dcmitype/StillImage" />
        <dc:title></dc:title>
      </cc:Work>
    </rdf:RDF>
  </metadata>
  <g
     inkscape:label="Layer 1"
     inkscape:groupmode="layer"
     id="layer1"
     transform="translate(-258.32652,-976.15753)">
    <g
       id="g5495"
       inkscape:export-xdpi="90"
       inkscape:export-ydpi="90">
      <rect
         ry="0"
         rx="0"
         style="opacity:1;fill:#b3b3b3;fill-opacity:1;stroke:none;stroke-width:6.79094839;stroke-linecap:round;stroke-linejoin:round;stroke-miterlimit:4;stroke-dasharray:none;stroke-dashoffset:0;stroke-opacity:1"
         id="rect5453"
         width="120"
         height="120"
         x="258.32651"
         y="976.15753" />
      <g
         style="fill:#333333;stroke:#1a1a1a;filter:url(#filter5491)"
         transform="matrix(0.01356732,0,0,0.01348403,90.118617,1131.3153)"
         id="g4661">
        <g
           transform="matrix(22.637174,0,0,22.637174,9822.0202,-11269.069)"
           id="g4663"
           style="fill:#333333;stroke:#1a1a1a;stroke-width:3.59887528;stroke-miterlimit:4;stroke-dasharray:none">
          <path
             style="fill:#333333;stroke:#1a1a1a;stroke-width:3.59887528;stroke-miterlimit:4;stroke-dasharray:none"
             inkscape:connector-curvature="0"
             id="path4665"
             d="m 305.382,237.915 0,-25.626 -22.046,25.626 22.046,0 0,0 z m 2.962,10.731 -2.962,0 0,-8.125 -27.966,0 30.928,-36.06 0,33.453 5.538,0 -1.054,2.606 -4.484,0 0,8.126 0,0 z" />
          <path
             style="fill:#333333;stroke:#1a1a1a;stroke-width:3.59887528;stroke-miterlimit:4;stroke-dasharray:none"
             inkscape:connector-curvature="0"
             id="path4667"
             d="m 390.58,236.213 2.111,1.261 c -2.021,2.435 -4.569,4.339 -7.674,5.749 -3.115,1.408 -6.488,2.107 -10.061,2.107 -2.99,0 -5.866,-0.525 -8.593,-1.548 -2.698,-0.998 -5.041,-2.377 -7.005,-4.108 -1.965,-1.729 -3.519,-3.811 -4.696,-6.186 -1.166,-2.404 -1.757,-4.925 -1.757,-7.535 0,-2.638 0.591,-5.159 1.757,-7.563 1.178,-2.373 2.731,-4.457 4.696,-6.186 1.964,-1.731 4.307,-3.108 7.005,-4.104 2.727,-1.028 5.603,-1.527 8.593,-1.527 3.572,0 6.92,0.706 10.027,2.141 3.105,1.408 5.655,3.312 7.707,5.778 l -2.111,1.347 c -1.784,-2.142 -4.074,-3.813 -6.802,-5.014 -2.721,-1.262 -5.658,-1.878 -8.821,-1.878 -3.55,0 -6.804,0.761 -9.792,2.287 -2.989,1.553 -5.34,3.61 -7.072,6.246 -1.728,2.61 -2.574,5.483 -2.574,8.59 0,2.319 0.496,4.517 1.495,6.627 1.055,2.113 2.431,3.9 4.162,5.453 1.732,1.523 3.781,2.727 6.183,3.664 2.407,0.88 4.962,1.348 7.599,1.348 3.163,0 6.101,-0.617 8.821,-1.877 2.728,-1.233 5.018,-2.93 6.802,-5.072 l 0,0 z" />
          <path
             style="fill:#333333;stroke:#1a1a1a;stroke-width:3.59887528;stroke-miterlimit:4;stroke-dasharray:none"
             inkscape:connector-curvature="0"
             id="path4669"
             d="m 414.883,218.8 c 2.059,0 4.024,0.35 5.868,1.054 1.875,0.703 3.485,1.641 4.838,2.815 1.377,1.203 2.434,2.606 3.258,4.249 0.787,1.672 1.172,3.376 1.172,5.192 0,1.815 -0.385,3.546 -1.172,5.187 -0.824,1.645 -1.881,3.05 -3.258,4.252 -1.353,1.171 -2.963,2.11 -4.838,2.813 -1.844,0.703 -3.81,1.055 -5.868,1.055 -4.156,0 -7.735,-1.286 -10.667,-3.9 -2.965,-2.576 -4.426,-5.741 -4.426,-9.407 0,-2.405 0.645,-4.633 1.994,-6.686 1.375,-2.053 3.196,-3.667 5.509,-4.84 2.351,-1.17 4.867,-1.784 7.59,-1.784 l 0,0 z m -12.511,13.31 c 0,3.018 1.229,5.626 3.662,7.798 2.461,2.17 5.45,3.252 8.913,3.252 3.488,0 6.447,-1.082 8.914,-3.252 2.462,-2.172 3.691,-4.781 3.691,-7.798 0,-3.022 -1.229,-5.631 -3.691,-7.77 -2.467,-2.172 -5.426,-3.226 -8.914,-3.226 -3.463,0 -6.452,1.053 -8.913,3.226 -2.433,2.139 -3.662,4.748 -3.662,7.77 l 0,0 z" />
          <path
             style="fill:#333333;stroke:#1a1a1a;stroke-width:3.59887528;stroke-miterlimit:4;stroke-dasharray:none"
             inkscape:connector-curvature="0"
             id="path4671"
             d="m 437.76,219.212 2.778,0 c 0.383,1.113 0.561,2.252 0.561,3.427 l 0,3.871 c 1.084,-2.141 2.551,-3.928 4.429,-5.423 1.905,-1.528 3.752,-2.286 5.542,-2.286 1.991,0 3.664,0.5 5.012,1.464 1.377,0.967 2.376,2.197 2.957,3.726 0.647,1.49 0.941,3.192 0.941,5.098 l 0,15.949 -2.55,0 0,-15.949 c 0,-0.936 -0.121,-1.818 -0.317,-2.697 -0.212,-0.852 -0.534,-1.698 -0.974,-2.554 -0.439,-0.817 -1.113,-1.491 -2.026,-1.96 -0.842,-0.527 -1.903,-0.762 -3.104,-0.762 -1.144,0 -2.346,0.38 -3.575,1.144 -1.232,0.79 -2.288,1.758 -3.226,2.902 -0.882,1.114 -1.642,2.316 -2.229,3.577 -0.588,1.289 -0.88,2.405 -0.88,3.372 l 0,12.926 -2.608,0 0,-22.397 c -10e-4,-1.466 -0.264,-2.61 -0.731,-3.428 l 0,0 z" />
          <path
             style="fill:#333333;stroke:#1a1a1a;stroke-width:3.59887528;stroke-miterlimit:4;stroke-dasharray:none"
             inkscape:connector-curvature="0"
             id="path4673"
             d="m 361.47,237.682 2.374,1.435 c -2.28,2.786 -5.218,4.983 -8.737,6.594 -3.547,1.614 -7.36,2.405 -11.463,2.405 -3.404,0 -6.655,-0.591 -9.732,-1.759 -3.111,-1.174 -5.775,-2.753 -8.008,-4.718 -2.226,-1.994 -4.012,-4.371 -5.333,-7.127 -1.318,-2.727 -1.998,-5.628 -1.998,-8.648 0,-3.022 0.68,-5.894 1.998,-8.649 1.321,-2.724 3.107,-5.099 5.333,-7.094 2.232,-1.994 4.896,-3.579 8.008,-4.751 3.077,-1.144 6.328,-1.728 9.732,-1.728 4.08,0 7.884,0.819 11.406,2.434 3.546,1.639 6.479,3.839 8.794,6.65 l -2.374,1.555 c -2.052,-2.46 -4.663,-4.366 -7.768,-5.774 -3.11,-1.408 -6.453,-2.141 -10.059,-2.141 -4.019,0 -7.739,0.88 -11.145,2.637 -3.369,1.761 -6.037,4.136 -8.002,7.155 -1.994,3.019 -2.961,6.302 -2.961,9.852 0,2.668 0.559,5.191 1.731,7.592 1.175,2.436 2.727,4.516 4.688,6.275 1.963,1.762 4.34,3.166 7.068,4.194 2.752,1.052 5.629,1.552 8.619,1.552 3.605,0 6.948,-0.704 10.059,-2.142 3.107,-1.402 5.718,-3.339 7.77,-5.799 l 0,0 z" />
        </g>
        <g
           transform="matrix(22.637174,0,0,22.637174,9822.0202,-11269.069)"
           id="g4675"
           style="fill:#333333;stroke:#1a1a1a">
          <path
             style="fill:#333333;stroke:#1a1a1a"
             inkscape:connector-curvature="0"
             id="path4677"
             d="m 287.236,113.676 c -8.166,-6.379 -19.917,-5.019 -26.358,3.058 l -17.093,21.515 c -6.437,8.102 -5.072,19.765 3.083,26.147 7.482,5.876 17.985,5.191 24.664,-1.219 l -4.481,-3.503 c -5.282,3.83 -12.074,4.214 -16.828,0.506 -5.877,-4.629 -6.289,-13.771 -0.917,-20.507 l 14.245,-17.922 c 5.37,-6.74 14.422,-8.46 20.333,-3.832 4.801,3.771 5.958,10.597 3.258,16.646 l 4.424,3.476 c 4.96,-7.952 3.233,-18.431 -4.33,-24.365 l 0,0 z" />
          <path
             style="fill:#333333;stroke:#1a1a1a"
             inkscape:connector-curvature="0"
             id="path4679"
             d="m 238.949,201.67 c 8.128,6.414 19.883,5.044 26.325,-3.058 l 17.123,-21.515 c 6.439,-8.072 5.043,-19.739 -3.092,-26.149 -7.505,-5.877 -18.008,-5.191 -24.655,1.251 l 4.448,3.498 c 5.286,-3.827 12.11,-4.243 16.831,-0.5 5.903,4.595 6.32,13.736 0.948,20.503 L 262.6,193.596 c -5.372,6.769 -14.423,8.46 -20.296,3.859 -4.811,-3.771 -5.967,-10.593 -3.267,-16.65 l -4.45,-3.474 c -4.928,7.926 -3.208,18.401 4.362,24.339 l 0,0 z" />
          <path
             style="fill:#333333;stroke:#1a1a1a"
             inkscape:connector-curvature="0"
             id="path4681"
             d="m 245.683,167.124 c -8.163,-6.413 -19.915,-5.045 -26.352,3.061 L 202.234,191.7 c -6.438,8.073 -5.072,19.73 3.089,26.145 7.479,5.877 17.984,5.194 24.659,-1.219 l -4.476,-3.528 c -5.286,3.827 -12.086,4.245 -16.831,0.504 -5.873,-4.604 -6.29,-13.741 -0.925,-20.481 L 222.003,175.2 c 5.371,-6.74 14.423,-8.459 20.298,-3.859 4.839,3.801 5.964,10.623 3.294,16.649 l 4.418,3.503 c 4.964,-7.958 3.239,-18.432 -4.33,-24.369 l 0,0 z" />
          <path
             style="fill:#333333;stroke:#1a1a1a"
             inkscape:connector-curvature="0"
             id="path4683"
             d="m 197.016,256.456 c 8.158,6.378 19.878,5.01 26.32,-3.06 l 17.125,-21.516 c 6.439,-8.101 5.079,-19.765 -3.085,-26.144 -7.48,-5.876 -18.016,-5.195 -24.665,1.217 l 4.483,3.5 c 5.25,-3.832 12.08,-4.213 16.826,-0.503 5.882,4.63 6.297,13.771 0.92,20.507 l -14.277,17.926 c -5.34,6.737 -14.418,8.458 -20.3,3.827 -4.801,-3.768 -5.963,-10.596 -3.264,-16.646 l -4.449,-3.473 c -4.924,7.955 -3.205,18.427 4.366,24.365 l 0,0 z" />
          <path
             style="fill:#333333;stroke:#1a1a1a"
             inkscape:connector-curvature="0"
             id="path4685"
             d="m 214.521,244.554 c -2.075,2.583 -5.817,3.023 -8.426,0.977 -2.584,-2.018 -3.022,-5.756 -0.977,-8.337 2.046,-2.581 5.811,-3.025 8.398,-0.98 2.61,2.02 3.052,5.758 1.005,8.34 l 0,0 z" />
          <path
             style="fill:#333333;stroke:#1a1a1a"
             inkscape:connector-curvature="0"
             id="path4687"
             d="m 281.771,131.689 c -2.132,2.703 -6.059,3.147 -8.781,1.041 -2.702,-2.14 -3.151,-6.023 -1.013,-8.728 2.138,-2.702 6.05,-3.145 8.753,-1.039 2.735,2.135 3.18,6.054 1.041,8.726 l 0,0 z" />
          <path
             style="fill:#333333;stroke:#1a1a1a"
             inkscape:connector-curvature="0"
             id="path4689"
             d="m 206.199,278.864 c -10.957,0 -21.356,-3.548 -30.072,-10.27 -10.417,-7.995 -17.063,-19.524 -18.704,-32.446 -1.643,-12.897 1.896,-25.682 9.954,-36.001 l 68.638,-87.935 c 9.403,-12.039 23.558,-18.945 38.829,-18.945 10.95,0 21.349,3.548 30.068,10.25 10.424,8.024 17.063,19.551 18.707,32.472 1.641,12.893 -1.894,25.677 -9.949,36.011 l -68.646,87.933 c -9.411,12.032 -23.561,18.931 -38.825,18.931 z M 274.843,99.272 c -13.41,0 -25.839,6.064 -34.09,16.636 l -68.642,87.936 c -7.066,9.048 -10.166,20.25 -8.727,31.548 1.434,11.32 7.264,21.429 16.407,28.443 7.662,5.906 16.79,9.025 26.408,9.025 13.405,0 25.83,-6.061 34.09,-16.623 L 308.935,168.3 c 7.062,-9.054 10.16,-20.263 8.727,-31.557 -1.441,-11.314 -7.27,-21.431 -16.41,-28.464 -7.662,-5.888 -16.797,-9.007 -26.409,-9.007 z" />
        </g>
      </g>
      <g
         id="g5580"
         transform="matrix(0.01356732,0,0,0.01348403,90.118617,1131.3153)"
         style="fill:#333333;stroke:#1a1a1a">
        <g
           style="fill:#333333;stroke:#1a1a1a;stroke-width:3.59887528;stroke-miterlimit:4;stroke-dasharray:none"
           id="g5583"
           transform="matrix(22.637174,0,0,22.637174,9822.0202,-11269.069)">
          <path
             d="m 305.382,237.915 0,-25.626 -22.046,25.626 22.046,0 0,0 z m 2.962,10.731 -2.962,0 0,-8.125 -27.966,0 30.928,-36.06 0,33.453 5.538,0 -1.054,2.606 -4.484,0 0,8.126 0,0 z"
             id="path5585"
             inkscape:connector-curvature="0"
             style="fill:#333333;stroke:#1a1a1a;stroke-width:3.59887528;stroke-miterlimit:4;stroke-dasharray:none" />
          <path
             d="m 390.58,236.213 2.111,1.261 c -2.021,2.435 -4.569,4.339 -7.674,5.749 -3.115,1.408 -6.488,2.107 -10.061,2.107 -2.99,0 -5.866,-0.525 -8.593,-1.548 -2.698,-0.998 -5.041,-2.377 -7.005,-4.108 -1.965,-1.729 -3.519,-3.811 -4.696,-6.186 -1.166,-2.404 -1.757,-4.925 -1.757,-7.535 0,-2.638 0.591,-5.159 1.757,-7.563 1.178,-2.373 2.731,-4.457 4.696,-6.186 1.964,-1.731 4.307,-3.108 7.005,-4.104 2.727,-1.028 5.603,-1.527 8.593,-1.527 3.572,0 6.92,0.706 10.027,2.141 3.105,1.408 5.655,3.312 7.707,5.778 l -2.111,1.347 c -1.784,-2.142 -4.074,-3.813 -6.802,-5.014 -2.721,-1.262 -5.658,-1.878 -8.821,-1.878 -3.55,0 -6.804,0.761 -9.792,2.287 -2.989,1.553 -5.34,3.61 -7.072,6.246 -1.728,2.61 -2.574,5.483 -2.574,8.59 0,2.319 0.496,4.517 1.495,6.627 1.055,2.113 2.431,3.9 4.162,5.453 1.732,1.523 3.781,2.727 6.183,3.664 2.407,0.88 4.962,1.348 7.599,1.348 3.163,0 6.101,-0.617 8.821,-1.877 2.728,-1.233 5.018,-2.93 6.802,-5.072 l 0,0 z"
             id="path5587"
             inkscape:connector-curvature="0"
             style="fill:#333333;stroke:#1a1a1a;stroke-width:3.59887528;stroke-miterlimit:4;stroke-dasharray:none" />
          <path
             d="m 414.883,218.8 c 2.059,0 4.024,0.35 5.868,1.054 1.875,0.703 3.485,1.641 4.838,2.815 1.377,1.203 2.434,2.606 3.258,4.249 0.787,1.672 1.172,3.376 1.172,5.192 0,1.815 -0.385,3.546 -1.172,5.187 -0.824,1.645 -1.881,3.05 -3.258,4.252 -1.353,1.171 -2.963,2.11 -4.838,2.813 -1.844,0.703 -3.81,1.055 -5.868,1.055 -4.156,0 -7.735,-1.286 -10.667,-3.9 -2.965,-2.576 -4.426,-5.741 -4.426,-9.407 0,-2.405 0.645,-4.633 1.994,-6.686 1.375,-2.053 3.196,-3.667 5.509,-4.84 2.351,-1.17 4.867,-1.784 7.59,-1.784 l 0,0 z m -12.511,13.31 c 0,3.018 1.229,5.626 3.662,7.798 2.461,2.17 5.45,3.252 8.913,3.252 3.488,0 6.447,-1.082 8.914,-3.252 2.462,-2.172 3.691,-4.781 3.691,-7.798 0,-3.022 -1.229,-5.631 -3.691,-7.77 -2.467,-2.172 -5.426,-3.226 -8.914,-3.226 -3.463,0 -6.452,1.053 -8.913,3.226 -2.433,2.139 -3.662,4.748 -3.662,7.77 l 0,0 z"
             id="path5589"
             inkscape:connector-curvature="0"
             style="fill:#333333;stroke:#1a1a1a;stroke-width:3.59887528;stroke-miterlimit:4;stroke-dasharray:none" />
          <path
             d="m 437.76,219.212 2.778,0 c 0.383,1.113 0.561,2.252 0.561,3.427 l 0,3.871 c 1.084,-2.141 2.551,-3.928 4.429,-5.423 1.905,-1.528 3.752,-2.286 5.542,-2.286 1.991,0 3.664,0.5 5.012,1.464 1.377,0.967 2.376,2.197 2.957,3.726 0.647,1.49 0.941,3.192 0.941,5.098 l 0,15.949 -2.55,0 0,-15.949 c 0,-0.936 -0.121,-1.818 -0.317,-2.697 -0.212,-0.852 -0.534,-1.698 -0.974,-2.554 -0.439,-0.817 -1.113,-1.491 -2.026,-1.96 -0.842,-0.527 -1.903,-0.762 -3.104,-0.762 -1.144,0 -2.346,0.38 -3.575,1.144 -1.232,0.79 -2.288,1.758 -3.226,2.902 -0.882,1.114 -1.642,2.316 -2.229,3.577 -0.588,1.289 -0.88,2.405 -0.88,3.372 l 0,12.926 -2.608,0 0,-22.397 c -10e-4,-1.466 -0.264,-2.61 -0.731,-3.428 l 0,0 z"
             id="path5591"
             inkscape:connector-curvature="0"
             style="fill:#333333;stroke:#1a1a1a;stroke-width:3.59887528;stroke-miterlimit:4;stroke-dasharray:none" />
          <path
             d="m 361.47,237.682 2.374,1.435 c -2.28,2.786 -5.218,4.983 -8.737,6.594 -3.547,1.614 -7.36,2.405 -11.463,2.405 -3.404,0 -6.655,-0.591 -9.732,-1.759 -3.111,-1.174 -5.775,-2.753 -8.008,-4.718 -2.226,-1.994 -4.012,-4.371 -5.333,-7.127 -1.318,-2.727 -1.998,-5.628 -1.998,-8.648 0,-3.022 0.68,-5.894 1.998,-8.649 1.321,-2.724 3.107,-5.099 5.333,-7.094 2.232,-1.994 4.896,-3.579 8.008,-4.751 3.077,-1.144 6.328,-1.728 9.732,-1.728 4.08,0 7.884,0.819 11.406,2.434 3.546,1.639 6.479,3.839 8.794,6.65 l -2.374,1.555 c -2.052,-2.46 -4.663,-4.366 -7.768,-5.774 -3.11,-1.408 -6.453,-2.141 -10.059,-2.141 -4.019,0 -7.739,0.88 -11.145,2.637 -3.369,1.761 -6.037,4.136 -8.002,7.155 -1.994,3.019 -2.961,6.302 -2.961,9.852 0,2.668 0.559,5.191 1.731,7.592 1.175,2.436 2.727,4.516 4.688,6.275 1.963,1.762 4.34,3.166 7.068,4.194 2.752,1.052 5.629,1.552 8.619,1.552 3.605,0 6.948,-0.704 10.059,-2.142 3.107,-1.402 5.718,-3.339 7.77,-5.799 l 0,0 z"
             id="path5593"
             inkscape:connector-curvature="0"
             style="fill:#333333;stroke:#1a1a1a;stroke-width:3.59887528;stroke-miterlimit:4;stroke-dasharray:none" />
        </g>
        <g
           style="fill:#333333;stroke:#1a1a1a"
           id="g5595"
           transform="matrix(22.637174,0,0,22.637174,9822.0202,-11269.069)">
          <path
             d="m 287.236,113.676 c -8.166,-6.379 -19.917,-5.019 -26.358,3.058 l -17.093,21.515 c -6.437,8.102 -5.072,19.765 3.083,26.147 7.482,5.876 17.985,5.191 24.664,-1.219 l -4.481,-3.503 c -5.282,3.83 -12.074,4.214 -16.828,0.506 -5.877,-4.629 -6.289,-13.771 -0.917,-20.507 l 14.245,-17.922 c 5.37,-6.74 14.422,-8.46 20.333,-3.832 4.801,3.771 5.958,10.597 3.258,16.646 l 4.424,3.476 c 4.96,-7.952 3.233,-18.431 -4.33,-24.365 l 0,0 z"
             id="path5597"
             inkscape:connector-curvature="0"
             style="fill:#333333;stroke:#1a1a1a" />
          <path
             d="m 238.949,201.67 c 8.128,6.414 19.883,5.044 26.325,-3.058 l 17.123,-21.515 c 6.439,-8.072 5.043,-19.739 -3.092,-26.149 -7.505,-5.877 -18.008,-5.191 -24.655,1.251 l 4.448,3.498 c 5.286,-3.827 12.11,-4.243 16.831,-0.5 5.903,4.595 6.32,13.736 0.948,20.503 L 262.6,193.596 c -5.372,6.769 -14.423,8.46 -20.296,3.859 -4.811,-3.771 -5.967,-10.593 -3.267,-16.65 l -4.45,-3.474 c -4.928,7.926 -3.208,18.401 4.362,24.339 l 0,0 z"
             id="path5599"
             inkscape:connector-curvature="0"
             style="fill:#333333;stroke:#1a1a1a" />
          <path
             d="m 245.683,167.124 c -8.163,-6.413 -19.915,-5.045 -26.352,3.061 L 202.234,191.7 c -6.438,8.073 -5.072,19.73 3.089,26.145 7.479,5.877 17.984,5.194 24.659,-1.219 l -4.476,-3.528 c -5.286,3.827 -12.086,4.245 -16.831,0.504 -5.873,-4.604 -6.29,-13.741 -0.925,-20.481 L 222.003,175.2 c 5.371,-6.74 14.423,-8.459 20.298,-3.859 4.839,3.801 5.964,10.623 3.294,16.649 l 4.418,3.503 c 4.964,-7.958 3.239,-18.432 -4.33,-24.369 l 0,0 z"
             id="path5601"
             inkscape:connector-curvature="0"
             style="fill:#333333;stroke:#1a1a1a" />
          <path
             d="m 197.016,256.456 c 8.158,6.378 19.878,5.01 26.32,-3.06 l 17.125,-21.516 c 6.439,-8.101 5.079,-19.765 -3.085,-26.144 -7.48,-5.876 -18.016,-5.195 -24.665,1.217 l 4.483,3.5 c 5.25,-3.832 12.08,-4.213 16.826,-0.503 5.882,4.63 6.297,13.771 0.92,20.507 l -14.277,17.926 c -5.34,6.737 -14.418,8.458 -20.3,3.827 -4.801,-3.768 -5.963,-10.596 -3.264,-16.646 l -4.449,-3.473 c -4.924,7.955 -3.205,18.427 4.366,24.365 l 0,0 z"
             id="path5603"
             inkscape:connector-curvature="0"
             style="fill:#333333;stroke:#1a1a1a" />
          <path
             d="m 214.521,244.554 c -2.075,2.583 -5.817,3.023 -8.426,0.977 -2.584,-2.018 -3.022,-5.756 -0.977,-8.337 2.046,-2.581 5.811,-3.025 8.398,-0.98 2.61,2.02 3.052,5.758 1.005,8.34 l 0,0 z"
             id="path5605"
             inkscape:connector-curvature="0"
             style="fill:#333333;stroke:#1a1a1a" />
          <path
             d="m 281.771,131.689 c -2.132,2.703 -6.059,3.147 -8.781,1.041 -2.702,-2.14 -3.151,-6.023 -1.013,-8.728 2.138,-2.702 6.05,-3.145 8.753,-1.039 2.735,2.135 3.18,6.054 1.041,8.726 l 0,0 z"
             id="path5607"
             inkscape:connector-curvature="0"
             style="fill:#333333;stroke:#1a1a1a" />
          <path
             d="m 206.199,278.864 c -10.957,0 -21.356,-3.548 -30.072,-10.27 -10.417,-7.995 -17.063,-19.524 -18.704,-32.446 -1.643,-12.897 1.896,-25.682 9.954,-36.001 l 68.638,-87.935 c 9.403,-12.039 23.558,-18.945 38.829,-18.945 10.95,0 21.349,3.548 30.068,10.25 10.424,8.024 17.063,19.551 18.707,32.472 1.641,12.893 -1.894,25.677 -9.949,36.011 l -68.646,87.933 c -9.411,12.032 -23.561,18.931 -38.825,18.931 z M 274.843,99.272 c -13.41,0 -25.839,6.064 -34.09,16.636 l -68.642,87.936 c -7.066,9.048 -10.166,20.25 -8.727,31.548 1.434,11.32 7.264,21.429 16.407,28.443 7.662,5.906 16.79,9.025 26.408,9.025 13.405,0 25.83,-6.061 34.09,-16.623 L 308.935,168.3 c 7.062,-9.054 10.16,-20.263 8.727,-31.557 -1.441,-11.314 -7.27,-21.431 -16.41,-28.464 -7.662,-5.888 -16.797,-9.007 -26.409,-9.007 z"
             id="path5609"
             inkscape:connector-curvature="0"
             style="fill:#333333;stroke:#1a1a1a" />
        </g>
      </g>
    </g>
  </g>
</svg>
