<?xml version="1.0" encoding="UTF-8" standalone="no"?>
<!-- Created with Inkscape (http://www.inkscape.org/) -->

<svg
   xmlns:dc="http://purl.org/dc/elements/1.1/"
   xmlns:cc="http://creativecommons.org/ns#"
   xmlns:rdf="http://www.w3.org/1999/02/22-rdf-syntax-ns#"
   xmlns:svg="http://www.w3.org/2000/svg"
   xmlns="http://www.w3.org/2000/svg"
   xmlns:sodipodi="http://sodipodi.sourceforge.net/DTD/sodipodi-0.dtd"
   xmlns:inkscape="http://www.inkscape.org/namespaces/inkscape"
   width="42.333332mm"
   height="42.333332mm"
   viewBox="0 0 149.99999 150"
   id="svg4759"
   version="1.1"
   inkscape:version="0.91 r13725"
   sodipodi:docname="Meshing.svg">
  <defs
     id="defs4761">
    <filter
       inkscape:collect="always"
       style="color-interpolation-filters:sRGB"
       id="filter17084"
       x="-0.06354155"
       width="1.1270831"
       y="-0.056832391"
       height="1.1136648">
      <feGaussianBlur
         inkscape:collect="always"
         stdDeviation="2.3671875"
         id="feGaussianBlur17086" />
    </filter>
  </defs>
  <sodipodi:namedview
     id="base"
     pagecolor="#ffffff"
     bordercolor="#666666"
     borderopacity="1.0"
     inkscape:pageopacity="0.0"
     inkscape:pageshadow="2"
     inkscape:zoom="1.4142136"
     inkscape:cx="183.85296"
     inkscape:cy="37.539463"
     inkscape:document-units="px"
     inkscape:current-layer="layer1"
     showgrid="false"
     fit-margin-top="0"
     fit-margin-left="0"
     fit-margin-right="0"
     fit-margin-bottom="0"
     inkscape:window-width="1366"
     inkscape:window-height="713"
     inkscape:window-x="0"
     inkscape:window-y="27"
     inkscape:window-maximized="1"
     showborder="false"
     showguides="true"
     inkscape:guide-bbox="true" />
  <metadata
     id="metadata4764">
    <rdf:RDF>
      <cc:Work
         rdf:about="">
        <dc:format>image/svg+xml</dc:format>
        <dc:type
           rdf:resource="http://purl.org/dc/dcmitype/StillImage" />
        <dc:title></dc:title>
      </cc:Work>
    </rdf:RDF>
  </metadata>
  <g
     inkscape:label="Layer 1"
     inkscape:groupmode="layer"
     id="layer1"
     transform="translate(-263.37482,-945.53693)">
    <g
       id="g17146">
      <rect
         ry="0"
         rx="0"
         style="opacity:1;fill:#b3b3b3;fill-opacity:1;stroke:none;stroke-width:6.79094839;stroke-linecap:round;stroke-linejoin:round;stroke-miterlimit:4;stroke-dasharray:none;stroke-dashoffset:0;stroke-opacity:1"
         id="rect5453"
         width="150"
         height="150"
         x="287.66476"
         y="932.52588" />
      <g
         id="g17088">
        <g
           id="g16938"
           transform="matrix(1.0065988,0,0,1.0065988,312.8804,957.19643)"
           style="fill:#333333">
          <circle
             id="circle16940"
             r="1.1720001"
             cy="45.223999"
             cx="48.456001"
             style="fill:#333333" />
          <path
             id="path16942"
             d="m 48.677,57.768 c 0,0.361 0.293,0.657 0.659,0.657 0.361,0 0.655,-0.296 0.655,-0.657 l 0.002,-9.509 0.289,0 0,3.505 c 0,0.703 0.919,0.703 0.917,0 l 0,-3.58 c 0,-0.778 -0.457,-1.542 -1.367,-1.542 l -2.629,0 c -0.831,0 -1.351,0.674 -1.351,1.52 l 0,3.602 c 0,0.699 0.923,0.699 0.923,0 l 0,-3.505 0.295,0 -10e-4,9.509 c 0,0.361 0.294,0.657 0.658,0.657 0.362,0 0.657,-0.296 0.657,-0.657 l 10e-4,-5.517 0.293,0 -10e-4,5.517 z"
             inkscape:connector-curvature="0"
             style="fill:#333333" />
          <circle
             id="circle16944"
             r="0.43700001"
             cy="73.470001"
             cx="36.002998"
             style="fill:#333333" />
          <path
             id="path16946"
             d="m 36.516,73.997 -0.978,0 c -0.31,0 -0.503,0.252 -0.503,0.566 l 0,1.341 c 0,0.26 0.345,0.26 0.345,0 l 0,-1.304 0.109,0 -10e-4,3.54 c 0,0.135 0.112,0.244 0.245,0.244 0.136,0 0.246,-0.109 0.246,-0.244 l 0,-2.055 0.109,0 0,2.055 c 0,0.135 0.107,0.244 0.244,0.244 0.135,0 0.244,-0.109 0.244,-0.244 l 0.002,-3.54 0.108,0 0,1.305 c 0,0.262 0.343,0.262 0.341,0 l 0,-1.332 c -0.002,-0.29 -0.172,-0.576 -0.511,-0.576 z"
             inkscape:connector-curvature="0"
             style="fill:#333333" />
          <circle
             id="circle16948"
             r="0.43799999"
             cy="69.092003"
             cx="87.709"
             style="fill:#333333" />
          <path
             id="path16950"
             d="m 87.086,71.526 0,-1.305 0.109,0 -0.002,3.54 c 0,0.135 0.109,0.244 0.246,0.244 0.135,0 0.244,-0.109 0.244,-0.244 l 0,-2.054 0.109,0 0,2.054 c 0,0.135 0.109,0.244 0.244,0.244 0.135,0 0.244,-0.109 0.244,-0.244 l 0.002,-3.54 0.105,0 0,1.305 c 0,0.263 0.344,0.263 0.344,0 l 0,-1.332 c 0,-0.289 -0.172,-0.574 -0.512,-0.574 l -0.977,0 c -0.311,0 -0.504,0.252 -0.504,0.566 l 0,1.34 c 0.002,0.261 0.348,0.261 0.348,0 z"
             inkscape:connector-curvature="0"
             style="fill:#333333" />
          <circle
             id="circle16952"
             r="0.43599999"
             cy="12.826"
             cx="49.611"
             style="fill:#333333" />
          <path
             id="path16954"
             d="m 48.986,15.261 0,-1.305 0.109,0 -10e-4,3.539 c 0,0.135 0.109,0.245 0.246,0.245 0.136,0 0.245,-0.109 0.245,-0.245 l 10e-4,-2.053 0.107,0 0,2.053 c 0,0.135 0.11,0.245 0.244,0.245 0.136,0 0.245,-0.109 0.245,-0.245 l 0.002,-3.539 0.107,0 0,1.305 c 0,0.261 0.341,0.261 0.339,0 l 0,-1.334 c 0,-0.29 -0.169,-0.574 -0.507,-0.574 l -0.979,0 c -0.31,0 -0.504,0.251 -0.504,0.566 l 0,1.342 c 0,0.26 0.346,0.26 0.346,0 z"
             inkscape:connector-curvature="0"
             style="fill:#333333" />
          <circle
             id="circle16956"
             r="0.43599999"
             cy="24.139"
             cx="8.8830004"
             style="fill:#333333" />
          <path
             id="path16958"
             d="m 8.966,28.81 c 0,0.134 0.109,0.245 0.244,0.245 0.136,0 0.245,-0.111 0.245,-0.245 l 0,-3.542 0.108,0 0,1.305 c 0,0.265 0.342,0.265 0.341,0 l 0,-1.332 c 0,-0.29 -0.17,-0.575 -0.508,-0.575 l -0.978,0 c -0.31,0 -0.504,0.253 -0.504,0.567 l 0,1.339 c 0,0.261 0.344,0.261 0.344,0 l 0,-1.305 0.111,0 -0.002,3.543 c 0,0.134 0.11,0.245 0.245,0.245 0.135,0 0.245,-0.111 0.245,-0.245 l 0,-2.054 0.109,0 0,2.054 z"
             inkscape:connector-curvature="0"
             style="fill:#333333" />
          <circle
             id="circle16960"
             r="0.43700001"
             cy="58.008999"
             cx="20.959"
             style="fill:#333333" />
          <path
             id="path16962"
             d="m 21.041,62.679 c 0,0.135 0.109,0.245 0.245,0.245 0.135,0 0.245,-0.11 0.245,-0.245 l 0,-3.539 0.108,0 0,1.304 c 0,0.262 0.343,0.262 0.341,0 l 0,-1.332 c 0,-0.29 -0.169,-0.575 -0.508,-0.575 l -0.979,0 c -0.309,0 -0.504,0.252 -0.504,0.566 l 0,1.341 c 0,0.26 0.345,0.26 0.345,0 l 0,-1.304 0.11,0 -10e-4,3.539 c 0,0.135 0.111,0.245 0.245,0.245 0.136,0 0.246,-0.11 0.246,-0.245 l 0,-2.054 0.108,0 0,2.054 z"
             inkscape:connector-curvature="0"
             style="fill:#333333" />
          <circle
             id="circle16964"
             r="0.43599999"
             cy="1.79"
             cx="89.978996"
             style="fill:#333333" />
          <path
             id="path16966"
             d="m 89.355,4.225 0,-1.305 0.107,0 0,3.54 c 0,0.135 0.109,0.245 0.246,0.245 0.135,0 0.244,-0.109 0.244,-0.245 l 0,-2.053 0.109,0 0,2.053 c 0,0.135 0.109,0.245 0.244,0.245 0.137,0 0.246,-0.109 0.246,-0.245 l 0,-3.54 0.109,0 0,1.305 c 0,0.263 0.34,0.263 0.34,0 L 91,2.893 C 91,2.603 90.83,2.318 90.492,2.318 l -0.98,0 c -0.309,0 -0.502,0.252 -0.502,0.567 l 0,1.34 c 0,0.261 0.345,0.261 0.345,0 z"
             inkscape:connector-curvature="0"
             style="fill:#333333" />
          <circle
             id="circle16968"
             r="0.61000001"
             cy="75.242996"
             cx="56.756001"
             style="fill:#333333" />
          <path
             id="path16970"
             d="m 57.473,75.981 -1.367,0 c -0.432,0 -0.703,0.352 -0.703,0.79 l 0,1.873 c 0,0.365 0.48,0.365 0.48,0 l 0,-1.822 0.152,0 0,4.948 c 0,0.188 0.154,0.34 0.344,0.34 0.19,0 0.34,-0.152 0.34,-0.34 l 0,-2.871 0.154,0 0,2.871 c 0,0.188 0.15,0.34 0.34,0.34 0.19,0 0.342,-0.152 0.342,-0.34 l 0.002,-4.948 0.15,0 0,1.822 c 0,0.368 0.48,0.368 0.477,0 l 0,-1.862 c 0,-0.403 -0.239,-0.801 -0.711,-0.801 z"
             inkscape:connector-curvature="0"
             style="fill:#333333" />
          <circle
             id="circle16972"
             r="0.61000001"
             cy="80.82"
             cx="16.065001"
             style="fill:#333333" />
          <path
             id="path16974"
             d="m 16.782,81.559 -1.368,0 c -0.433,0 -0.704,0.351 -0.704,0.789 l 0,1.874 c 0,0.364 0.482,0.364 0.482,0 l 0,-1.822 0.152,0 0,4.947 c 0,0.189 0.154,0.341 0.342,0.341 0.19,0 0.342,-0.151 0.342,-0.341 l 0,-2.871 0.152,0 0,2.871 c 0,0.189 0.154,0.341 0.342,0.341 0.189,0 0.343,-0.151 0.343,-0.341 l 0.001,-4.947 0.151,0 0,1.822 c 0,0.367 0.478,0.367 0.477,0 l 0,-1.862 c -0.001,-0.405 -0.241,-0.801 -0.712,-0.801 z"
             inkscape:connector-curvature="0"
             style="fill:#333333" />
          <circle
             id="circle16976"
             r="0.64499998"
             cy="27.167999"
             cx="31.9"
             style="fill:#333333" />
          <path
             id="path16978"
             d="m 30.974,30.77 0,-1.931 0.161,0 0,5.24 c 0,0.199 0.162,0.36 0.363,0.36 0.2,0 0.36,-0.162 0.36,-0.36 l 0.001,-3.04 0.163,0 -0.002,3.04 c 0,0.199 0.163,0.36 0.363,0.36 0.2,0 0.36,-0.162 0.36,-0.36 l 0.002,-5.24 0.16,0 0,1.931 c 0,0.388 0.506,0.388 0.505,0 l 0,-1.972 c 0,-0.429 -0.252,-0.85 -0.753,-0.85 l -1.449,0 c -0.458,0 -0.744,0.373 -0.744,0.838 l 0,1.984 c 0,0.385 0.51,0.385 0.51,0 z"
             inkscape:connector-curvature="0"
             style="fill:#333333" />
          <circle
             id="circle16980"
             r="0.64600003"
             cy="51.459"
             cx="76.336998"
             style="fill:#333333" />
          <path
             id="path16982"
             d="m 74.902,53.077 0,1.983 c 0,0.387 0.51,0.387 0.51,0 l 0,-1.932 0.16,0 0,5.239 c 0,0.199 0.162,0.363 0.363,0.363 0.199,0 0.359,-0.164 0.359,-0.363 l 0.002,-3.039 0.162,0 -0.002,3.039 c 0,0.199 0.162,0.363 0.363,0.363 0.199,0 0.361,-0.164 0.361,-0.363 l 0.002,-5.239 0.16,0 0,1.932 c 0,0.39 0.506,0.39 0.504,0 l 0,-1.972 c 0,-0.429 -0.252,-0.85 -0.752,-0.85 l -1.449,0 c -0.457,10e-4 -0.743,0.374 -0.743,0.839 z"
             inkscape:connector-curvature="0"
             style="fill:#333333" />
          <circle
             id="circle16984"
             r="0.88800001"
             cy="25.493999"
             cx="80.254997"
             style="fill:#333333" />
          <path
             id="path16986"
             d="m 78.285,27.716 0,2.724 c 0,0.531 0.699,0.531 0.699,0 l 0,-2.651 0.223,0 -0.002,7.196 c 0,0.275 0.225,0.498 0.498,0.498 0.275,0 0.498,-0.222 0.498,-0.498 l 0.002,-4.174 0.221,0 -0.002,4.174 c 0,0.275 0.223,0.498 0.498,0.498 0.275,0 0.498,-0.222 0.498,-0.498 l 0,-7.196 0.219,0 0,2.651 c 0,0.536 0.695,0.536 0.695,0 l 0,-2.707 c 0,-0.591 -0.348,-1.167 -1.037,-1.167 l -1.988,0 c -0.629,0 -1.022,0.511 -1.022,1.15 z"
             inkscape:connector-curvature="0"
             style="fill:#333333" />
          <path
             id="path16988"
             d="m 85.66,88.093 c 0.49,0 0.887,-0.396 0.887,-0.886 0,-0.493 -0.396,-0.89 -0.887,-0.89 -0.491,0 -0.887,0.396 -0.887,0.89 0,0.489 0.397,0.886 0.887,0.886 z"
             inkscape:connector-curvature="0"
             style="fill:#333333" />
          <path
             id="path16990"
             d="m 86.699,88.279 -1.988,0 c -0.627,0 -1.021,0.51 -1.021,1.149 l 0,2.724 c 0,0.53 0.699,0.53 0.699,0 l 0,-2.65 0.223,0 -0.002,7.196 c 0,0.274 0.225,0.497 0.498,0.497 0.275,0 0.498,-0.223 0.498,-0.497 l 0.002,-4.175 0.221,0 -0.002,4.175 c 0,0.274 0.223,0.497 0.496,0.497 0.277,0 0.5,-0.223 0.5,-0.497 l 0.002,-7.196 0.219,0 0,2.65 c 0,0.535 0.695,0.535 0.693,0 l 0,-2.707 c -10e-4,-0.591 -0.348,-1.166 -1.038,-1.166 z"
             inkscape:connector-curvature="0"
             style="fill:#333333" />
          <path
             id="path16992"
             d="m 87.789,84.404 0.43,-8.82 c 2.062,-0.242 3.674,-1.981 3.674,-4.107 0,-2.293 -1.865,-4.158 -4.156,-4.158 -0.701,0 -1.354,0.19 -1.934,0.499 l -5.961,-8.056 c 1.479,-1.076 2.443,-2.813 2.443,-4.776 0,-3.043 -2.312,-5.556 -5.273,-5.875 L 79.75,38.242 c 0.186,0.013 0.371,0.028 0.561,0.028 4.371,0 7.93,-3.558 7.93,-7.932 0,-3.016 -1.693,-5.642 -4.178,-6.983 l 6.291,-15.06 c 2.127,-0.181 3.809,-1.949 3.809,-4.12 0,-2.292 -1.865,-4.158 -4.158,-4.158 -2.291,0 -4.156,1.865 -4.156,4.158 0,0.086 0.021,0.167 0.025,0.251 L 53.456,13.57 c -0.639,-1.479 -2.107,-2.52 -3.818,-2.52 -2.292,0 -4.157,1.866 -4.157,4.159 0,0.916 0.307,1.756 0.811,2.443 l -10.824,8.312 c -0.986,-0.737 -2.205,-1.18 -3.529,-1.18 -2.496,0 -4.631,1.558 -5.497,3.75 l -13.395,-1.81 c 0.004,-0.068 0.021,-0.132 0.021,-0.202 0,-2.292 -1.865,-4.158 -4.158,-4.158 -2.293,0 -4.157,1.865 -4.157,4.158 0,2.171 1.677,3.938 3.802,4.122 l 10.457,26.111 c -1.293,0.706 -2.184,2.062 -2.184,3.637 0,1.56 0.872,2.903 2.144,3.615 l -3.277,14.556 c -2.904,0.209 -5.203,2.633 -5.203,5.588 0,3.093 2.517,5.608 5.609,5.608 3.092,0 5.609,-2.516 5.609,-5.608 0,-0.627 -0.109,-1.229 -0.3,-1.794 l 11.615,-3.646 c 0.758,0.797 1.821,1.299 3.004,1.299 1.723,0 3.205,-1.055 3.833,-2.552 l 11.336,0.812 c -0.006,0.102 -0.016,0.202 -0.016,0.305 0,3.093 2.518,5.609 5.609,5.609 1.777,0 3.361,-0.833 4.389,-2.125 l 16.891,7.897 c -0.184,0.668 -0.289,1.368 -0.289,2.094 0,4.374 3.557,7.932 7.93,7.932 4.373,0 7.932,-3.558 7.932,-7.932 10e-4,-3.654 -2.488,-6.73 -5.855,-7.646 z m 3.098,-12.927 c 0,1.736 -1.414,3.149 -3.15,3.149 -1.738,0 -3.15,-1.413 -3.15,-3.149 0,-1.738 1.412,-3.152 3.15,-3.152 1.736,-0.001 3.15,1.413 3.15,3.152 z m -5.912,-3.085 c -0.85,0.762 -1.396,1.856 -1.396,3.085 0,0.463 0.094,0.899 0.232,1.314 l -21.445,5.153 c -0.314,-2.797 -2.693,-4.979 -5.572,-4.979 -0.736,0 -1.436,0.146 -2.08,0.404 l -2.025,-12.31 c 2.445,-1.083 4.391,-3.085 5.398,-5.57 l 12.403,0 c 0.256,3.023 2.797,5.406 5.885,5.406 0.934,0 1.816,-0.225 2.602,-0.611 l 5.998,8.108 z M 38.27,72.363 c -0.648,-0.417 -1.415,-0.666 -2.24,-0.666 -1.097,0 -2.089,0.435 -2.833,1.132 l -9.199,-9.588 c 0.705,-0.745 1.145,-1.743 1.145,-2.849 0,-0.186 -0.031,-0.364 -0.055,-0.543 l 13.691,-4.872 c 0.769,2.229 2.276,4.11 4.234,5.354 L 42.703,60.218 38.27,72.363 Z M 31.938,36.606 c 1.405,0 2.696,-0.496 3.711,-1.317 l 5.332,9.325 c -1.715,1.842 -2.772,4.304 -2.772,7.012 0,0.821 0.106,1.617 0.289,2.383 L 24.844,58.867 C 24.512,58.031 23.917,57.334 23.16,56.866 l 6.581,-20.689 c 0.679,0.274 1.419,0.429 2.197,0.429 z M 49.112,19.314 48.046,41.335 c -2.417,0.112 -4.615,1.054 -6.321,2.554 l -5.331,-9.324 c 0.901,-1.038 1.453,-2.39 1.453,-3.87 0,-1.566 -0.617,-2.988 -1.616,-4.048 l 10.757,-8.259 c 0.594,0.494 1.321,0.823 2.124,0.926 z m 6.427,24.767 C 53.816,42.48 51.553,41.464 49.054,41.336 L 50.12,19.317 c 1.417,-0.167 2.609,-1.037 3.222,-2.263 L 73.317,26.6 c -0.598,1.114 -0.938,2.386 -0.938,3.736 0,1.883 0.66,3.613 1.762,4.975 l -18.602,8.77 z m -16.324,7.545 c 0,-5.133 4.177,-9.309 9.312,-9.309 5.133,0 9.309,4.176 9.309,9.309 0,5.134 -4.176,9.311 -9.309,9.311 -5.134,0 -9.312,-4.177 -9.312,-9.311 z m 42.064,3.359 c 0,2.703 -2.201,4.903 -4.904,4.903 -2.703,0 -4.904,-2.2 -4.904,-4.903 0,-2.703 2.201,-4.902 4.904,-4.902 2.703,0 4.904,2.199 4.904,4.902 z m -5.3,-5.889 c -2.908,0.194 -5.242,2.494 -5.488,5.387 l -12.059,0 c 0.264,-0.908 0.412,-1.864 0.412,-2.856 0,-2.597 -0.973,-4.966 -2.562,-6.782 L 74.86,36.087 c 1.062,1.008 2.396,1.729 3.885,2.027 L 75.979,49.096 Z M 87.232,30.338 c 0,3.818 -3.105,6.925 -6.922,6.925 -3.818,0 -6.926,-3.107 -6.926,-6.925 0,-3.818 3.107,-6.924 6.926,-6.924 3.817,0 6.922,3.106 6.922,6.924 z M 90.004,1.024 c 1.738,0 3.152,1.413 3.152,3.151 0,1.736 -1.414,3.148 -3.152,3.148 -1.734,0 -3.148,-1.412 -3.148,-3.148 -10e-4,-1.738 1.414,-3.151 3.148,-3.151 z m -3.943,4.398 c 0.461,1.454 1.689,2.563 3.219,2.835 l -6.135,14.684 c -0.881,-0.34 -1.834,-0.534 -2.834,-0.534 -2.66,0 -5.014,1.321 -6.453,3.336 L 53.692,16.104 c 0.062,-0.289 0.102,-0.587 0.102,-0.895 0,-0.229 -0.031,-0.449 -0.066,-0.668 L 86.061,5.422 Z m -36.424,6.636 c 1.736,0 3.148,1.414 3.148,3.152 0,1.736 -1.412,3.149 -3.148,3.149 -1.737,0 -3.15,-1.413 -3.15,-3.149 0,-1.738 1.413,-3.152 3.15,-3.152 z M 31.938,25.792 c 2.703,0 4.903,2.2 4.903,4.903 0,2.705 -2.2,4.904 -4.903,4.904 -2.704,0 -4.903,-2.199 -4.903,-4.904 0,-2.703 2.199,-4.903 4.903,-4.903 z M 5.76,26.523 c 0,-1.738 1.413,-3.151 3.15,-3.151 1.737,0 3.15,1.413 3.15,3.151 0,1.737 -1.413,3.151 -3.15,3.151 -1.737,0 -3.15,-1.414 -3.15,-3.151 z m 3.865,4.085 c 1.553,-0.271 2.797,-1.406 3.247,-2.892 l 13.275,1.794 c -0.079,0.383 -0.12,0.778 -0.12,1.184 0,2.118 1.124,3.975 2.803,5.019 l -6.594,20.736 c -0.397,-0.127 -0.812,-0.214 -1.25,-0.214 -0.36,0 -0.705,0.061 -1.039,0.147 L 9.625,30.608 Z m 8.21,29.785 c 0,-1.736 1.413,-3.15 3.15,-3.15 1.736,0 3.149,1.414 3.149,3.15 0,1.736 -1.413,3.15 -3.149,3.15 -1.737,0 -3.15,-1.414 -3.15,-3.15 z m -1.734,28.36 c -2.538,0 -4.603,-2.064 -4.603,-4.602 0,-2.538 2.064,-4.602 4.603,-4.602 2.539,0 4.602,2.063 4.602,4.602 0,2.537 -2.064,4.602 -4.602,4.602 z m 4.901,-7.32 c -0.863,-1.55 -2.438,-2.649 -4.28,-2.854 l 3.196,-14.186 c 0.343,0.092 0.696,0.156 1.067,0.156 0.825,0 1.589,-0.249 2.235,-0.664 l 9.324,9.716 c -0.422,0.65 -0.673,1.421 -0.673,2.251 0,0.728 0.205,1.402 0.535,1.999 l -11.404,3.582 z m 15.027,-2.43 c -1.736,0 -3.149,-1.413 -3.149,-3.15 0,-1.735 1.413,-3.148 3.149,-3.148 1.738,0 3.151,1.413 3.151,3.148 0,1.737 -1.413,3.15 -3.151,3.15 z m 4.096,-2.536 c 0.029,-0.201 0.062,-0.403 0.062,-0.614 0,-1.078 -0.423,-2.053 -1.1,-2.792 l 4.517,-12.369 c 1.464,0.799 3.141,1.253 4.923,1.253 1.117,0 2.19,-0.185 3.2,-0.515 l 2.047,12.426 c -1.203,0.771 -2.088,1.986 -2.43,3.414 L 40.125,76.467 Z m 16.668,6.711 c -2.537,0 -4.602,-2.065 -4.602,-4.604 0,-2.539 2.064,-4.603 4.602,-4.603 2.538,0 4.602,2.064 4.602,4.603 0,2.539 -2.065,4.604 -4.602,4.604 z m 4.949,-1.97 c 0.361,-0.674 0.584,-1.431 0.641,-2.232 l 21.865,-5.254 c 0.65,1.006 1.721,1.698 2.963,1.858 l -0.42,8.622 c -0.354,-0.05 -0.711,-0.083 -1.078,-0.083 -3.291,0 -6.119,2.016 -7.318,4.877 L 61.742,81.208 Z m 23.971,17.767 c -3.818,0 -6.924,-3.106 -6.924,-6.925 0,-3.816 3.105,-6.924 6.924,-6.924 3.816,0 6.924,3.107 6.924,6.924 0,3.818 -3.108,6.925 -6.924,6.925 z"
             inkscape:connector-curvature="0"
             style="fill:#333333" />
        </g>
        <g
           style="fill:#000000;filter:url(#filter17084)"
           transform="matrix(1.0065988,0,0,1.0065988,312.8804,957.19643)"
           id="g17028">
          <circle
             style="fill:#000000"
             cx="48.456001"
             cy="45.223999"
             r="1.1720001"
             id="circle17030" />
          <path
             style="fill:#000000"
             inkscape:connector-curvature="0"
             d="m 48.677,57.768 c 0,0.361 0.293,0.657 0.659,0.657 0.361,0 0.655,-0.296 0.655,-0.657 l 0.002,-9.509 0.289,0 0,3.505 c 0,0.703 0.919,0.703 0.917,0 l 0,-3.58 c 0,-0.778 -0.457,-1.542 -1.367,-1.542 l -2.629,0 c -0.831,0 -1.351,0.674 -1.351,1.52 l 0,3.602 c 0,0.699 0.923,0.699 0.923,0 l 0,-3.505 0.295,0 -10e-4,9.509 c 0,0.361 0.294,0.657 0.658,0.657 0.362,0 0.657,-0.296 0.657,-0.657 l 10e-4,-5.517 0.293,0 -10e-4,5.517 z"
             id="path17032" />
          <circle
             style="fill:#000000"
             cx="36.002998"
             cy="73.470001"
             r="0.43700001"
             id="circle17034" />
          <path
             style="fill:#000000"
             inkscape:connector-curvature="0"
             d="m 36.516,73.997 -0.978,0 c -0.31,0 -0.503,0.252 -0.503,0.566 l 0,1.341 c 0,0.26 0.345,0.26 0.345,0 l 0,-1.304 0.109,0 -10e-4,3.54 c 0,0.135 0.112,0.244 0.245,0.244 0.136,0 0.246,-0.109 0.246,-0.244 l 0,-2.055 0.109,0 0,2.055 c 0,0.135 0.107,0.244 0.244,0.244 0.135,0 0.244,-0.109 0.244,-0.244 l 0.002,-3.54 0.108,0 0,1.305 c 0,0.262 0.343,0.262 0.341,0 l 0,-1.332 c -0.002,-0.29 -0.172,-0.576 -0.511,-0.576 z"
             id="path17036" />
          <circle
             style="fill:#000000"
             cx="87.709"
             cy="69.092003"
             r="0.43799999"
             id="circle17038" />
          <path
             style="fill:#000000"
             inkscape:connector-curvature="0"
             d="m 87.086,71.526 0,-1.305 0.109,0 -0.002,3.54 c 0,0.135 0.109,0.244 0.246,0.244 0.135,0 0.244,-0.109 0.244,-0.244 l 0,-2.054 0.109,0 0,2.054 c 0,0.135 0.109,0.244 0.244,0.244 0.135,0 0.244,-0.109 0.244,-0.244 l 0.002,-3.54 0.105,0 0,1.305 c 0,0.263 0.344,0.263 0.344,0 l 0,-1.332 c 0,-0.289 -0.172,-0.574 -0.512,-0.574 l -0.977,0 c -0.311,0 -0.504,0.252 -0.504,0.566 l 0,1.34 c 0.002,0.261 0.348,0.261 0.348,0 z"
             id="path17040" />
          <circle
             style="fill:#000000"
             cx="49.611"
             cy="12.826"
             r="0.43599999"
             id="circle17042" />
          <path
             style="fill:#000000"
             inkscape:connector-curvature="0"
             d="m 48.986,15.261 0,-1.305 0.109,0 -10e-4,3.539 c 0,0.135 0.109,0.245 0.246,0.245 0.136,0 0.245,-0.109 0.245,-0.245 l 10e-4,-2.053 0.107,0 0,2.053 c 0,0.135 0.11,0.245 0.244,0.245 0.136,0 0.245,-0.109 0.245,-0.245 l 0.002,-3.539 0.107,0 0,1.305 c 0,0.261 0.341,0.261 0.339,0 l 0,-1.334 c 0,-0.29 -0.169,-0.574 -0.507,-0.574 l -0.979,0 c -0.31,0 -0.504,0.251 -0.504,0.566 l 0,1.342 c 0,0.26 0.346,0.26 0.346,0 z"
             id="path17044" />
          <circle
             style="fill:#000000"
             cx="8.8830004"
             cy="24.139"
             r="0.43599999"
             id="circle17046" />
          <path
             style="fill:#000000"
             inkscape:connector-curvature="0"
             d="m 8.966,28.81 c 0,0.134 0.109,0.245 0.244,0.245 0.136,0 0.245,-0.111 0.245,-0.245 l 0,-3.542 0.108,0 0,1.305 c 0,0.265 0.342,0.265 0.341,0 l 0,-1.332 c 0,-0.29 -0.17,-0.575 -0.508,-0.575 l -0.978,0 c -0.31,0 -0.504,0.253 -0.504,0.567 l 0,1.339 c 0,0.261 0.344,0.261 0.344,0 l 0,-1.305 0.111,0 -0.002,3.543 c 0,0.134 0.11,0.245 0.245,0.245 0.135,0 0.245,-0.111 0.245,-0.245 l 0,-2.054 0.109,0 0,2.054 z"
             id="path17048" />
          <circle
             style="fill:#000000"
             cx="20.959"
             cy="58.008999"
             r="0.43700001"
             id="circle17050" />
          <path
             style="fill:#000000"
             inkscape:connector-curvature="0"
             d="m 21.041,62.679 c 0,0.135 0.109,0.245 0.245,0.245 0.135,0 0.245,-0.11 0.245,-0.245 l 0,-3.539 0.108,0 0,1.304 c 0,0.262 0.343,0.262 0.341,0 l 0,-1.332 c 0,-0.29 -0.169,-0.575 -0.508,-0.575 l -0.979,0 c -0.309,0 -0.504,0.252 -0.504,0.566 l 0,1.341 c 0,0.26 0.345,0.26 0.345,0 l 0,-1.304 0.11,0 -10e-4,3.539 c 0,0.135 0.111,0.245 0.245,0.245 0.136,0 0.246,-0.11 0.246,-0.245 l 0,-2.054 0.108,0 0,2.054 z"
             id="path17052" />
          <circle
             style="fill:#000000"
             cx="89.978996"
             cy="1.79"
             r="0.43599999"
             id="circle17054" />
          <path
             style="fill:#000000"
             inkscape:connector-curvature="0"
             d="m 89.355,4.225 0,-1.305 0.107,0 0,3.54 c 0,0.135 0.109,0.245 0.246,0.245 0.135,0 0.244,-0.109 0.244,-0.245 l 0,-2.053 0.109,0 0,2.053 c 0,0.135 0.109,0.245 0.244,0.245 0.137,0 0.246,-0.109 0.246,-0.245 l 0,-3.54 0.109,0 0,1.305 c 0,0.263 0.34,0.263 0.34,0 L 91,2.893 C 91,2.603 90.83,2.318 90.492,2.318 l -0.98,0 c -0.309,0 -0.502,0.252 -0.502,0.567 l 0,1.34 c 0,0.261 0.345,0.261 0.345,0 z"
             id="path17056" />
          <circle
             style="fill:#000000"
             cx="56.756001"
             cy="75.242996"
             r="0.61000001"
             id="circle17058" />
          <path
             style="fill:#000000"
             inkscape:connector-curvature="0"
             d="m 57.473,75.981 -1.367,0 c -0.432,0 -0.703,0.352 -0.703,0.79 l 0,1.873 c 0,0.365 0.48,0.365 0.48,0 l 0,-1.822 0.152,0 0,4.948 c 0,0.188 0.154,0.34 0.344,0.34 0.19,0 0.34,-0.152 0.34,-0.34 l 0,-2.871 0.154,0 0,2.871 c 0,0.188 0.15,0.34 0.34,0.34 0.19,0 0.342,-0.152 0.342,-0.34 l 0.002,-4.948 0.15,0 0,1.822 c 0,0.368 0.48,0.368 0.477,0 l 0,-1.862 c 0,-0.403 -0.239,-0.801 -0.711,-0.801 z"
             id="path17060" />
          <circle
             style="fill:#000000"
             cx="16.065001"
             cy="80.82"
             r="0.61000001"
             id="circle17062" />
          <path
             style="fill:#000000"
             inkscape:connector-curvature="0"
             d="m 16.782,81.559 -1.368,0 c -0.433,0 -0.704,0.351 -0.704,0.789 l 0,1.874 c 0,0.364 0.482,0.364 0.482,0 l 0,-1.822 0.152,0 0,4.947 c 0,0.189 0.154,0.341 0.342,0.341 0.19,0 0.342,-0.151 0.342,-0.341 l 0,-2.871 0.152,0 0,2.871 c 0,0.189 0.154,0.341 0.342,0.341 0.189,0 0.343,-0.151 0.343,-0.341 l 0.001,-4.947 0.151,0 0,1.822 c 0,0.367 0.478,0.367 0.477,0 l 0,-1.862 c -0.001,-0.405 -0.241,-0.801 -0.712,-0.801 z"
             id="path17064" />
          <circle
             style="fill:#000000"
             cx="31.9"
             cy="27.167999"
             r="0.64499998"
             id="circle17066" />
          <path
             style="fill:#000000"
             inkscape:connector-curvature="0"
             d="m 30.974,30.77 0,-1.931 0.161,0 0,5.24 c 0,0.199 0.162,0.36 0.363,0.36 0.2,0 0.36,-0.162 0.36,-0.36 l 0.001,-3.04 0.163,0 -0.002,3.04 c 0,0.199 0.163,0.36 0.363,0.36 0.2,0 0.36,-0.162 0.36,-0.36 l 0.002,-5.24 0.16,0 0,1.931 c 0,0.388 0.506,0.388 0.505,0 l 0,-1.972 c 0,-0.429 -0.252,-0.85 -0.753,-0.85 l -1.449,0 c -0.458,0 -0.744,0.373 -0.744,0.838 l 0,1.984 c 0,0.385 0.51,0.385 0.51,0 z"
             id="path17068" />
          <circle
             style="fill:#000000"
             cx="76.336998"
             cy="51.459"
             r="0.64600003"
             id="circle17070" />
          <path
             style="fill:#000000"
             inkscape:connector-curvature="0"
             d="m 74.902,53.077 0,1.983 c 0,0.387 0.51,0.387 0.51,0 l 0,-1.932 0.16,0 0,5.239 c 0,0.199 0.162,0.363 0.363,0.363 0.199,0 0.359,-0.164 0.359,-0.363 l 0.002,-3.039 0.162,0 -0.002,3.039 c 0,0.199 0.162,0.363 0.363,0.363 0.199,0 0.361,-0.164 0.361,-0.363 l 0.002,-5.239 0.16,0 0,1.932 c 0,0.39 0.506,0.39 0.504,0 l 0,-1.972 c 0,-0.429 -0.252,-0.85 -0.752,-0.85 l -1.449,0 c -0.457,10e-4 -0.743,0.374 -0.743,0.839 z"
             id="path17072" />
          <circle
             style="fill:#000000"
             cx="80.254997"
             cy="25.493999"
             r="0.88800001"
             id="circle17074" />
          <path
             style="fill:#000000"
             inkscape:connector-curvature="0"
             d="m 78.285,27.716 0,2.724 c 0,0.531 0.699,0.531 0.699,0 l 0,-2.651 0.223,0 -0.002,7.196 c 0,0.275 0.225,0.498 0.498,0.498 0.275,0 0.498,-0.222 0.498,-0.498 l 0.002,-4.174 0.221,0 -0.002,4.174 c 0,0.275 0.223,0.498 0.498,0.498 0.275,0 0.498,-0.222 0.498,-0.498 l 0,-7.196 0.219,0 0,2.651 c 0,0.536 0.695,0.536 0.695,0 l 0,-2.707 c 0,-0.591 -0.348,-1.167 -1.037,-1.167 l -1.988,0 c -0.629,0 -1.022,0.511 -1.022,1.15 z"
             id="path17076" />
          <path
             style="fill:#000000"
             inkscape:connector-curvature="0"
             d="m 85.66,88.093 c 0.49,0 0.887,-0.396 0.887,-0.886 0,-0.493 -0.396,-0.89 -0.887,-0.89 -0.491,0 -0.887,0.396 -0.887,0.89 0,0.489 0.397,0.886 0.887,0.886 z"
             id="path17078" />
          <path
             style="fill:#000000"
             inkscape:connector-curvature="0"
             d="m 86.699,88.279 -1.988,0 c -0.627,0 -1.021,0.51 -1.021,1.149 l 0,2.724 c 0,0.53 0.699,0.53 0.699,0 l 0,-2.65 0.223,0 -0.002,7.196 c 0,0.274 0.225,0.497 0.498,0.497 0.275,0 0.498,-0.223 0.498,-0.497 l 0.002,-4.175 0.221,0 -0.002,4.175 c 0,0.274 0.223,0.497 0.496,0.497 0.277,0 0.5,-0.223 0.5,-0.497 l 0.002,-7.196 0.219,0 0,2.65 c 0,0.535 0.695,0.535 0.693,0 l 0,-2.707 c -10e-4,-0.591 -0.348,-1.166 -1.038,-1.166 z"
             id="path17080" />
          <path
             style="fill:#000000"
             inkscape:connector-curvature="0"
             d="m 87.789,84.404 0.43,-8.82 c 2.062,-0.242 3.674,-1.981 3.674,-4.107 0,-2.293 -1.865,-4.158 -4.156,-4.158 -0.701,0 -1.354,0.19 -1.934,0.499 l -5.961,-8.056 c 1.479,-1.076 2.443,-2.813 2.443,-4.776 0,-3.043 -2.312,-5.556 -5.273,-5.875 L 79.75,38.242 c 0.186,0.013 0.371,0.028 0.561,0.028 4.371,0 7.93,-3.558 7.93,-7.932 0,-3.016 -1.693,-5.642 -4.178,-6.983 l 6.291,-15.06 c 2.127,-0.181 3.809,-1.949 3.809,-4.12 0,-2.292 -1.865,-4.158 -4.158,-4.158 -2.291,0 -4.156,1.865 -4.156,4.158 0,0.086 0.021,0.167 0.025,0.251 L 53.456,13.57 c -0.639,-1.479 -2.107,-2.52 -3.818,-2.52 -2.292,0 -4.157,1.866 -4.157,4.159 0,0.916 0.307,1.756 0.811,2.443 l -10.824,8.312 c -0.986,-0.737 -2.205,-1.18 -3.529,-1.18 -2.496,0 -4.631,1.558 -5.497,3.75 l -13.395,-1.81 c 0.004,-0.068 0.021,-0.132 0.021,-0.202 0,-2.292 -1.865,-4.158 -4.158,-4.158 -2.293,0 -4.157,1.865 -4.157,4.158 0,2.171 1.677,3.938 3.802,4.122 l 10.457,26.111 c -1.293,0.706 -2.184,2.062 -2.184,3.637 0,1.56 0.872,2.903 2.144,3.615 l -3.277,14.556 c -2.904,0.209 -5.203,2.633 -5.203,5.588 0,3.093 2.517,5.608 5.609,5.608 3.092,0 5.609,-2.516 5.609,-5.608 0,-0.627 -0.109,-1.229 -0.3,-1.794 l 11.615,-3.646 c 0.758,0.797 1.821,1.299 3.004,1.299 1.723,0 3.205,-1.055 3.833,-2.552 l 11.336,0.812 c -0.006,0.102 -0.016,0.202 -0.016,0.305 0,3.093 2.518,5.609 5.609,5.609 1.777,0 3.361,-0.833 4.389,-2.125 l 16.891,7.897 c -0.184,0.668 -0.289,1.368 -0.289,2.094 0,4.374 3.557,7.932 7.93,7.932 4.373,0 7.932,-3.558 7.932,-7.932 10e-4,-3.654 -2.488,-6.73 -5.855,-7.646 z m 3.098,-12.927 c 0,1.736 -1.414,3.149 -3.15,3.149 -1.738,0 -3.15,-1.413 -3.15,-3.149 0,-1.738 1.412,-3.152 3.15,-3.152 1.736,-0.001 3.15,1.413 3.15,3.152 z m -5.912,-3.085 c -0.85,0.762 -1.396,1.856 -1.396,3.085 0,0.463 0.094,0.899 0.232,1.314 l -21.445,5.153 c -0.314,-2.797 -2.693,-4.979 -5.572,-4.979 -0.736,0 -1.436,0.146 -2.08,0.404 l -2.025,-12.31 c 2.445,-1.083 4.391,-3.085 5.398,-5.57 l 12.403,0 c 0.256,3.023 2.797,5.406 5.885,5.406 0.934,0 1.816,-0.225 2.602,-0.611 l 5.998,8.108 z M 38.27,72.363 c -0.648,-0.417 -1.415,-0.666 -2.24,-0.666 -1.097,0 -2.089,0.435 -2.833,1.132 l -9.199,-9.588 c 0.705,-0.745 1.145,-1.743 1.145,-2.849 0,-0.186 -0.031,-0.364 -0.055,-0.543 l 13.691,-4.872 c 0.769,2.229 2.276,4.11 4.234,5.354 L 42.703,60.218 38.27,72.363 Z M 31.938,36.606 c 1.405,0 2.696,-0.496 3.711,-1.317 l 5.332,9.325 c -1.715,1.842 -2.772,4.304 -2.772,7.012 0,0.821 0.106,1.617 0.289,2.383 L 24.844,58.867 C 24.512,58.031 23.917,57.334 23.16,56.866 l 6.581,-20.689 c 0.679,0.274 1.419,0.429 2.197,0.429 z M 49.112,19.314 48.046,41.335 c -2.417,0.112 -4.615,1.054 -6.321,2.554 l -5.331,-9.324 c 0.901,-1.038 1.453,-2.39 1.453,-3.87 0,-1.566 -0.617,-2.988 -1.616,-4.048 l 10.757,-8.259 c 0.594,0.494 1.321,0.823 2.124,0.926 z m 6.427,24.767 C 53.816,42.48 51.553,41.464 49.054,41.336 L 50.12,19.317 c 1.417,-0.167 2.609,-1.037 3.222,-2.263 L 73.317,26.6 c -0.598,1.114 -0.938,2.386 -0.938,3.736 0,1.883 0.66,3.613 1.762,4.975 l -18.602,8.77 z m -16.324,7.545 c 0,-5.133 4.177,-9.309 9.312,-9.309 5.133,0 9.309,4.176 9.309,9.309 0,5.134 -4.176,9.311 -9.309,9.311 -5.134,0 -9.312,-4.177 -9.312,-9.311 z m 42.064,3.359 c 0,2.703 -2.201,4.903 -4.904,4.903 -2.703,0 -4.904,-2.2 -4.904,-4.903 0,-2.703 2.201,-4.902 4.904,-4.902 2.703,0 4.904,2.199 4.904,4.902 z m -5.3,-5.889 c -2.908,0.194 -5.242,2.494 -5.488,5.387 l -12.059,0 c 0.264,-0.908 0.412,-1.864 0.412,-2.856 0,-2.597 -0.973,-4.966 -2.562,-6.782 L 74.86,36.087 c 1.062,1.008 2.396,1.729 3.885,2.027 L 75.979,49.096 Z M 87.232,30.338 c 0,3.818 -3.105,6.925 -6.922,6.925 -3.818,0 -6.926,-3.107 -6.926,-6.925 0,-3.818 3.107,-6.924 6.926,-6.924 3.817,0 6.922,3.106 6.922,6.924 z M 90.004,1.024 c 1.738,0 3.152,1.413 3.152,3.151 0,1.736 -1.414,3.148 -3.152,3.148 -1.734,0 -3.148,-1.412 -3.148,-3.148 -10e-4,-1.738 1.414,-3.151 3.148,-3.151 z m -3.943,4.398 c 0.461,1.454 1.689,2.563 3.219,2.835 l -6.135,14.684 c -0.881,-0.34 -1.834,-0.534 -2.834,-0.534 -2.66,0 -5.014,1.321 -6.453,3.336 L 53.692,16.104 c 0.062,-0.289 0.102,-0.587 0.102,-0.895 0,-0.229 -0.031,-0.449 -0.066,-0.668 L 86.061,5.422 Z m -36.424,6.636 c 1.736,0 3.148,1.414 3.148,3.152 0,1.736 -1.412,3.149 -3.148,3.149 -1.737,0 -3.15,-1.413 -3.15,-3.149 0,-1.738 1.413,-3.152 3.15,-3.152 z M 31.938,25.792 c 2.703,0 4.903,2.2 4.903,4.903 0,2.705 -2.2,4.904 -4.903,4.904 -2.704,0 -4.903,-2.199 -4.903,-4.904 0,-2.703 2.199,-4.903 4.903,-4.903 z M 5.76,26.523 c 0,-1.738 1.413,-3.151 3.15,-3.151 1.737,0 3.15,1.413 3.15,3.151 0,1.737 -1.413,3.151 -3.15,3.151 -1.737,0 -3.15,-1.414 -3.15,-3.151 z m 3.865,4.085 c 1.553,-0.271 2.797,-1.406 3.247,-2.892 l 13.275,1.794 c -0.079,0.383 -0.12,0.778 -0.12,1.184 0,2.118 1.124,3.975 2.803,5.019 l -6.594,20.736 c -0.397,-0.127 -0.812,-0.214 -1.25,-0.214 -0.36,0 -0.705,0.061 -1.039,0.147 L 9.625,30.608 Z m 8.21,29.785 c 0,-1.736 1.413,-3.15 3.15,-3.15 1.736,0 3.149,1.414 3.149,3.15 0,1.736 -1.413,3.15 -3.149,3.15 -1.737,0 -3.15,-1.414 -3.15,-3.15 z m -1.734,28.36 c -2.538,0 -4.603,-2.064 -4.603,-4.602 0,-2.538 2.064,-4.602 4.603,-4.602 2.539,0 4.602,2.063 4.602,4.602 0,2.537 -2.064,4.602 -4.602,4.602 z m 4.901,-7.32 c -0.863,-1.55 -2.438,-2.649 -4.28,-2.854 l 3.196,-14.186 c 0.343,0.092 0.696,0.156 1.067,0.156 0.825,0 1.589,-0.249 2.235,-0.664 l 9.324,9.716 c -0.422,0.65 -0.673,1.421 -0.673,2.251 0,0.728 0.205,1.402 0.535,1.999 l -11.404,3.582 z m 15.027,-2.43 c -1.736,0 -3.149,-1.413 -3.149,-3.15 0,-1.735 1.413,-3.148 3.149,-3.148 1.738,0 3.151,1.413 3.151,3.148 0,1.737 -1.413,3.15 -3.151,3.15 z m 4.096,-2.536 c 0.029,-0.201 0.062,-0.403 0.062,-0.614 0,-1.078 -0.423,-2.053 -1.1,-2.792 l 4.517,-12.369 c 1.464,0.799 3.141,1.253 4.923,1.253 1.117,0 2.19,-0.185 3.2,-0.515 l 2.047,12.426 c -1.203,0.771 -2.088,1.986 -2.43,3.414 L 40.125,76.467 Z m 16.668,6.711 c -2.537,0 -4.602,-2.065 -4.602,-4.604 0,-2.539 2.064,-4.603 4.602,-4.603 2.538,0 4.602,2.064 4.602,4.603 0,2.539 -2.065,4.604 -4.602,4.604 z m 4.949,-1.97 c 0.361,-0.674 0.584,-1.431 0.641,-2.232 l 21.865,-5.254 c 0.65,1.006 1.721,1.698 2.963,1.858 l -0.42,8.622 c -0.354,-0.05 -0.711,-0.083 -1.078,-0.083 -3.291,0 -6.119,2.016 -7.318,4.877 L 61.742,81.208 Z m 23.971,17.767 c -3.818,0 -6.924,-3.106 -6.924,-6.925 0,-3.816 3.105,-6.924 6.924,-6.924 3.816,0 6.924,3.107 6.924,6.924 0,3.818 -3.108,6.925 -6.924,6.925 z"
             id="path17082" />
        </g>
      </g>
    </g>
  </g>
</svg>
