<?xml version="1.0" encoding="UTF-8" standalone="no"?>
<!-- Created with Inkscape (http://www.inkscape.org/) -->

<svg
   xmlns:dc="http://purl.org/dc/elements/1.1/"
   xmlns:cc="http://creativecommons.org/ns#"
   xmlns:rdf="http://www.w3.org/1999/02/22-rdf-syntax-ns#"
   xmlns:svg="http://www.w3.org/2000/svg"
   xmlns="http://www.w3.org/2000/svg"
   xmlns:sodipodi="http://sodipodi.sourceforge.net/DTD/sodipodi-0.dtd"
   xmlns:inkscape="http://www.inkscape.org/namespaces/inkscape"
   width="42.333332mm"
   height="42.333332mm"
   viewBox="0 0 149.99999 149.99999"
   id="svg5376"
   version="1.1"
   inkscape:version="0.91 r13725"
   sodipodi:docname="Money.svg">
  <defs
     id="defs5378">
    <filter
       inkscape:collect="always"
       style="color-interpolation-filters:sRGB"
       id="filter7875"
       x="-0.049063638"
       width="1.0981272"
       y="-0.0772103"
       height="1.1544206">
      <feGaussianBlur
         inkscape:collect="always"
         stdDeviation="1.9627675"
         id="feGaussianBlur7877" />
    </filter>
  </defs>
  <sodipodi:namedview
     id="base"
     pagecolor="#ffffff"
     bordercolor="#666666"
     borderopacity="1.0"
     inkscape:pageopacity="0.0"
     inkscape:pageshadow="2"
     inkscape:zoom="2.5799231"
     inkscape:cx="65.257421"
     inkscape:cy="69.037193"
     inkscape:document-units="px"
     inkscape:current-layer="layer1"
     showgrid="false"
     inkscape:window-width="1366"
     inkscape:window-height="713"
     inkscape:window-x="0"
     inkscape:window-y="27"
     inkscape:window-maximized="1"
     fit-margin-top="0"
     fit-margin-left="0"
     fit-margin-right="0"
     fit-margin-bottom="0"
     showborder="false" />
  <metadata
     id="metadata5381">
    <rdf:RDF>
      <cc:Work
         rdf:about="">
        <dc:format>image/svg+xml</dc:format>
        <dc:type
           rdf:resource="http://purl.org/dc/dcmitype/StillImage" />
        <dc:title></dc:title>
      </cc:Work>
    </rdf:RDF>
  </metadata>
  <g
     inkscape:label="Layer 1"
     inkscape:groupmode="layer"
     id="layer1"
     transform="translate(-280.78454,-289.20011)">
    <g
       id="g12290"
       inkscape:export-xdpi="90"
       inkscape:export-ydpi="90"
       transform="matrix(1.2499999,0,0,1.2499999,-70.196114,-109.79999)">
      <rect
         ry="0"
         rx="0"
         style="opacity:1;fill:#333333;fill-opacity:1;stroke:none;stroke-width:6.79094839;stroke-linecap:round;stroke-linejoin:round;stroke-miterlimit:4;stroke-dasharray:none;stroke-dashoffset:0;stroke-opacity:1"
         id="rect5453"
         width="120"
         height="120"
         x="280.78455"
         y="319.2001" />
      <g
         transform="matrix(0.90105346,0,0,0.90105346,23.613171,48.758675)"
         id="g7879">
        <g
           style="fill:#ffffff;filter:url(#filter7875)"
           transform="translate(133.28963,6.363961)"
           id="g7869">
          <path
             style="fill:#ffffff"
             inkscape:connector-curvature="0"
             d="m 170.70556,370.95866 c 1,-4 4.1,-5.9 7.5,-7.5 3.8,-1.8 7.9,-2.8 12.1,-3.4 1.5,-0.2 3,-0.3 4.6,-0.5 -0.6,-0.3 -1.1,-0.5 -1.7,-0.8 -1.4,-0.7 -2.8,-1.6 -3.9,-2.8 -0.9,-1 -1.3,-2.2 -1.3,-3.5 0,-1.4 0,-2.7 0,-4.1 -0.1,-1.6 0.6,-3 1.7,-4.1 1.7,-1.6 3.7,-2.6 5.8,-3.3 3.5,-1.3 7.1,-1.9 10.8,-2.1 4.5,-0.3 9.1,-0.1 13.6,0.7 3,0.6 6,1.3 8.6,2.9 1.1,0.6 2.1,1.4 3,2.3 1,0.9 1.4,2.1 1.3,3.5 0,1.3 0,2.6 0,3.9 0,0.4 0.1,0.6 0.6,0.6 7.6,1.5 14.8,4.1 21.5,8.2 3,1.9 5.9,4.1 8.1,7 1.1,1.5 2,3.1 2.3,4.9 0.1,1 0.1,1.9 -0.2,2.8 -0.6,1.9 -1.3,3.8 -1.9,5.7 -0.7,2.3 -2.2,3.8 -4.3,4.8 -2.7,1.2 -5.7,1.6 -8.6,1.7 -8.2,0.1 -15.9,-1.9 -23.4,-5 -0.2,-0.1 -0.5,-0.2 -0.7,-0.3 -2.8,3.2 -6.5,4.8 -10.4,6 -5.8,1.8 -11.7,2.4 -17.8,2.3 -5,-0.1 -9.9,-0.7 -14.7,-2 -2.6,-0.8 -5.2,-1.7 -7.5,-3.2 -2.4,-1.5 -4.5,-3.4 -5.1,-6.3 0,-2.8 0,-5.6 0,-8.4 z m 54.1,-18.1 c -0.7,0 -1.4,0 -2.1,0 -2.5,0.1 -5,0.5 -7.3,1.6 -3.7,1.7 -4.7,4.8 -2.8,8.4 1.2,2.3 3,4.1 5,5.7 3.5,2.8 7.4,5 11.5,6.8 6.6,2.8 13.5,4.7 20.7,5 3,0.1 6,0 8.9,-0.9 0.9,-0.3 1.8,-0.6 2.6,-1.1 3,-1.7 3.8,-4.4 2.4,-7.4 -1.2,-2.6 -3.1,-4.5 -5.3,-6.3 -4,-3.3 -8.4,-5.6 -13.2,-7.5 -6.5,-2.6 -13.3,-4.2 -20.4,-4.3 z m -5,26.4 c -0.7,-0.5 -1.4,-0.9 -2,-1.3 -2.8,-1.9 -5.3,-4 -7.3,-6.8 -1.8,-2.6 -2.6,-5.3 -1.2,-8.4 0.2,-0.5 0.3,-1 0.5,-1.5 -1,-0.1 -1.8,-0.3 -2.7,-0.4 -6,-0.7 -12,-0.7 -18,0.3 -4,0.7 -7.9,1.7 -11.5,3.6 -1.9,1 -3.6,2.1 -4.8,3.9 -0.9,1.2 -1.3,2.6 -0.9,4.1 0.3,1.2 0.9,2.1 1.7,3 2,2.1 4.6,3.4 7.3,4.4 5.9,2.2 12,2.9 18.2,3 4.3,0 8.6,-0.4 12.8,-1.3 2.6,-0.6 5.3,-1.4 7.9,-2.6 z m 8.2,-27.2 c 0.3,0 0.8,0 1,-0.2 0.8,-0.7 1.7,-1.3 2.3,-2.2 0.9,-1.2 0.9,-2.5 0,-3.7 -0.4,-0.6 -1,-1.2 -1.6,-1.7 -1.7,-1.3 -3.6,-2.1 -5.7,-2.8 -5.1,-1.6 -10.4,-2.1 -15.8,-1.9 -3.8,0.1 -7.6,0.7 -11.3,1.8 -2.3,0.7 -4.5,1.6 -6.3,3.3 -1.1,1 -1.8,2.1 -1.5,3.7 0.2,1.1 0.9,1.9 1.8,2.6 1.7,1.4 3.6,2.2 5.6,2.9 4.6,1.5 9.3,2 14.1,2 0.7,0 1.2,-0.1 1.8,-0.7 1.6,-1.7 3.7,-2.4 5.9,-2.9 3.2,-0.5 6.4,-0.6 9.7,-0.2 z m 12.3,28.1 c -0.6,1.8 -1.2,3.6 -1.8,5.5 1.6,0.3 3.2,0.5 4.8,0.8 0.1,0 0.3,-0.1 0.4,-0.3 0.6,-1.7 1.1,-3.4 1.7,-5.1 -1.7,-0.3 -3.4,-0.6 -5.1,-0.9 z m -52.6,3 c 0,1.9 0,3.6 0,5.4 0,0.1 0.3,0.3 0.4,0.4 0.8,0.2 1.6,0.3 2.4,0.4 0.7,0.1 1.5,0.2 2.2,0.3 0,-2 0,-3.8 0,-5.7 -1.6,-0.4 -3.3,-0.6 -5,-0.8 z m 23,0 c -1.7,0.2 -3.4,0.5 -5,0.7 0,1.9 0,3.8 0,5.8 1.6,-0.2 3.2,-0.5 4.8,-0.7 0.1,0 0.3,-0.2 0.3,-0.3 -0.1,-1.9 -0.1,-3.7 -0.1,-5.5 z m 12.8,-9.4 c -0.6,1.7 -1.1,3.4 -1.7,5.1 0,0.1 0.1,0.4 0.2,0.5 1.4,0.7 2.8,1.5 4.3,2.2 0.6,-1.9 1.2,-3.7 1.8,-5.5 -1.5,-0.8 -3,-1.5 -4.6,-2.3 z m 15.8,6.1 c -1.6,-0.5 -3.2,-0.9 -4.8,-1.3 -0.6,1.8 -1.2,3.6 -1.8,5.5 1.6,0.5 3.2,0.9 4.7,1.4 0.7,-2 1.3,-3.8 1.9,-5.6 z m -7.5,3.8 c 0.6,-1.9 1.2,-3.7 1.8,-5.5 -1.6,-0.6 -3.1,-1.2 -4.6,-1.8 -0.6,1.8 -1.2,3.6 -1.8,5.5 1.6,0.7 3.1,1.2 4.6,1.8 z m -38,0.2 c 0,1.9 0,3.8 0,5.8 1.6,0.1 3.2,0.2 4.9,0.2 0,-2 0,-3.9 0,-5.8 -1.7,0 -3.3,-0.1 -4.9,-0.2 z m 10.8,0.1 c -1.6,0.1 -3.2,0.2 -4.8,0.2 0,1.9 0,3.8 0,5.8 1.6,-0.1 3.2,-0.2 4.8,-0.2 0,-2.1 0,-3.9 0,-5.8 z m 14.7,-12.8 c -0.5,1.4 -0.9,2.7 -1.3,4 -0.5,1.4 -0.5,1.4 0.8,2.3 0.7,0.4 1.4,0.9 2.1,1.3 0.6,-1.9 1.2,-3.7 1.8,-5.4 -1.2,-0.8 -2.2,-1.5 -3.4,-2.2 z m 31,10.3 c -1.3,-0.1 -2.5,-0.2 -3.7,-0.3 -0.1,0 -0.4,0.2 -0.4,0.4 -0.4,1 -0.7,2 -1,3.1 -0.2,0.6 -0.4,1.3 -0.7,2 1.3,0.1 2.5,0.2 3.7,0.2 0.1,0 0.3,-0.1 0.3,-0.2 0.7,-1.7 1.2,-3.4 1.8,-5.2 z m -67.5,0.5 c 0,1.8 0,3.6 0,5.3 0,0.1 0.1,0.3 0.2,0.4 1.2,0.3 2.4,0.6 3.5,1 0.1,-0.1 0.1,-0.1 0.1,-0.1 0,-1.8 0,-3.5 0,-5.3 0,-0.1 -0.1,-0.3 -0.3,-0.3 -1,-0.4 -2.2,-0.7 -3.5,-1 z m 32.8,0 c -1.2,0.3 -2.3,0.6 -3.4,0.8 -0.4,0.1 -0.5,0.3 -0.5,0.6 0,1.5 0,3 0,4.5 0,0.2 0,0.4 0,0.7 1.3,-0.3 2.5,-0.6 3.6,-1 0.1,0 0.2,-0.2 0.2,-0.4 0.1,-1.6 0.1,-3.4 0.1,-5.2 z m 3.7,-1.4 c -0.4,0.2 -0.8,0.3 -1.1,0.4 -0.5,0.2 -1.2,0.3 -1.5,0.6 -0.3,0.4 -0.1,1.1 -0.1,1.7 0,1.3 0,2.6 0,4 0.9,-0.4 1.7,-0.7 2.5,-1 0.1,0 0.2,-0.2 0.2,-0.4 0,-1.7 0,-3.4 0,-5.3 z m -40.2,0 c 0,1.9 0,3.6 0,5.4 0,0.1 0.1,0.3 0.1,0.3 0.8,0.4 1.7,0.7 2.6,1 0,-2 0,-3.8 0,-5.7 -0.8,-0.3 -1.7,-0.6 -2.7,-1 z m 75.2,0.8 c -0.9,0 -1.7,0.1 -2.5,0.1 -0.3,0 -0.5,0.1 -0.6,0.4 -0.5,1.5 -1,3 -1.5,4.5 0,0.1 -0.1,0.3 -0.1,0.5 1,-0.1 1.9,-0.1 2.8,-0.2 0.3,-0.7 0.5,-1.4 0.8,-2.1 0,-0.1 0.1,-0.3 0.1,-0.4 0.4,-0.9 0.7,-1.8 1,-2.8 z m -38.1,-12.7 c -0.6,1.7 -1.1,3.4 -1.7,5.1 0,0.1 0,0.3 0.1,0.4 0.6,0.6 1.3,1.1 2,1.7 0.6,-1.8 1.2,-3.5 1.7,-5.2 0,-0.1 0,-0.2 -0.1,-0.3 -0.6,-0.6 -1.3,-1.1 -2,-1.7 z m -40.6,10.1 c 0,1.8 0,3.5 0,5.2 0,0.1 0.1,0.3 0.1,0.4 0.7,0.5 1.5,0.9 2.4,1.4 0,-1.9 0,-3.7 0,-5.4 0,-0.1 -0.1,-0.3 -0.2,-0.4 -0.7,-0.3 -1.5,-0.7 -2.3,-1.2 z m 78,7.9 c 0.9,-0.2 1.7,-0.3 2.4,-0.5 0.2,-0.1 0.5,-0.3 0.5,-0.5 0.5,-1.5 1,-2.9 1.5,-4.4 0,-0.1 0.1,-0.2 0.1,-0.4 -0.4,0.1 -0.7,0.2 -1,0.2 -1.5,-0.1 -2.1,0.8 -2.4,2.1 -0.2,1.1 -0.7,2.2 -1.1,3.5 z m -40,-13.4 c 0.6,-1.8 1.2,-3.5 1.7,-5.2 0,-0.1 0,-0.3 -0.1,-0.4 -0.7,-0.6 -1.3,-1.1 -1.9,-1.6 -0.4,1.3 -1,3 -1.5,4.6 0,0.1 0,0.3 0,0.4 0.6,0.8 1.2,1.5 1.8,2.2 z m 6.7,12.5 c 0.9,-0.5 1.6,-1 2.4,-1.4 0.1,-0.1 0.1,-0.3 0.2,-0.4 0,-0.9 0,-1.8 0,-2.8 0,-0.2 -0.1,-0.4 -0.3,-0.5 -0.5,-0.3 -0.9,-0.5 -1.4,-0.8 -0.4,-0.2 -0.8,0 -0.8,0.5 -0.1,1.8 -0.1,3.5 -0.1,5.4 z m -13.9,-26 c 1.2,0.2 2.4,0.3 3.6,0.5 0,-1.1 0,-2.2 0,-3.3 -1.2,0 -2.4,0 -3.6,0 0,0.9 0,1.8 0,2.8 z m -1.1,-3 c -1.3,-0.2 -2.4,-0.3 -3.7,-0.5 0,1 0,2.1 0,3.1 1.2,0.1 2.5,0.1 3.7,0.2 0,-0.9 0,-1.8 0,-2.8 z m -4.7,2.6 c 0,-1 0,-2 0,-3 0,-0.1 -0.1,-0.3 -0.2,-0.3 -0.8,-0.2 -1.7,-0.4 -2.5,-0.6 0,1.3 0,2.6 0,3.9 0.9,0 1.7,0 2.7,0 z m -27.5,17.5 c 0,1.6 0,3 0,4.4 0,0.9 0.6,1.8 1.5,2.1 0,-1.7 0,-3.4 0,-5 0,-0.1 -0.1,-0.3 -0.2,-0.4 -0.4,-0.4 -0.8,-0.7 -1.3,-1.1 z m 88.1,2.8 c -0.5,0.2 -0.9,0.4 -1.3,0.5 -0.4,0.1 -0.6,0.3 -0.7,0.7 -0.4,1.4 -0.9,2.8 -1.4,4.2 0,0.1 -0.1,0.3 -0.1,0.5 0.5,-0.2 0.9,-0.4 1.3,-0.6 0.2,-0.1 0.5,-0.3 0.6,-0.5 0.5,-1.6 1,-3.1 1.6,-4.8 z m -49.5,-16.4 c -0.5,1.4 -0.8,2.7 -1.3,3.9 -0.5,1.2 0,1.9 0.6,2.9 0.6,-1.7 1.1,-3.3 1.7,-5 0,-0.1 0,-0.2 0,-0.3 -0.4,-0.5 -0.7,-1 -1,-1.5 z m -14.9,-4.2 c 0,-1.3 0,-2.5 0,-3.6 0,-0.1 -0.1,-0.3 -0.2,-0.3 -0.5,-0.2 -1.1,-0.4 -1.7,-0.6 0,1.2 0,2.4 0,3.5 0,0.1 0.1,0.4 0.2,0.4 0.6,0.2 1.1,0.4 1.7,0.6 z m -4.6,-5.9 c 0,1.2 0,2.4 0,3.5 0,0.1 0.1,0.3 0.1,0.3 0.5,0.3 1,0.6 1.6,0.9 0,-1.3 0,-2.5 0,-3.7 0,-0.1 -0.1,-0.2 -0.2,-0.3 -0.4,-0.1 -1,-0.4 -1.5,-0.7 z m -2,-1.3 c 0,1 0,1.9 0,2.9 0,0.7 0.4,1 1,1.4 0,-1 -0.1,-1.9 0,-2.8 0.1,-0.7 -0.3,-1.1 -1,-1.5 z m 35,30.2 c -0.5,-0.2 -0.9,-0.4 -1.4,-0.6 0,0.7 0,1.3 0,2.1 0.6,-0.6 1,-1 1.4,-1.5 z m -53.1,-5.2 c -0.5,1.1 -0.5,2.3 0,3.4 0,-1.2 0,-2.3 0,-3.4 z m 88.9,6.3 c 0.9,-0.9 1.3,-2 1.1,-3.2 -0.3,1.1 -0.7,2.1 -1.1,3.2 z m -51.3,-17.1 c 0.4,-1.1 0.7,-2.2 1.1,-3.3 -0.9,1 -1.3,2.1 -1.1,3.3 z"
             id="path7871" />
          <path
             style="fill:#ffffff"
             inkscape:connector-curvature="0"
             d="m 252.20556,329.85866 c 1,0.1 2,0.2 2.9,0.4 2.9,0.4 5.7,1 8.2,2.4 0.7,0.4 1.3,0.8 1.9,1.3 1,0.8 1.5,1.9 1.5,3.3 -0.1,1 -0.1,2.1 0,3.1 0.1,1.3 -0.5,2.3 -1.4,3.2 -1.7,1.5 -3.8,2.4 -6,2.9 -6.8,1.7 -13.7,1.7 -20.5,-0.4 -1.6,-0.5 -3.1,-1.2 -4.4,-2.3 -1.2,-1 -1.8,-2.1 -1.7,-3.7 0.1,-0.9 0.1,-1.9 0,-2.8 -0.1,-1.4 0.5,-2.5 1.5,-3.3 1.6,-1.4 3.5,-2.1 5.4,-2.7 2.3,-0.7 4.7,-1.1 7.1,-1.2 0.2,0 0.3,-0.1 0.5,-0.1 1.7,-0.1 3.3,-0.1 5,-0.1 z m -2.4,0.7 c -3.3,0 -6.4,0.3 -9.5,1.2 -2.1,0.6 -4.1,1.3 -5.7,2.8 -1.5,1.4 -1.6,3.1 0,4.4 0.9,0.8 2,1.5 3.1,2 3.3,1.5 6.9,1.9 10.5,2.1 4.1,0.1 8.1,-0.2 12,-1.4 1.8,-0.6 3.6,-1.3 4.9,-2.7 1.2,-1.3 1.3,-2.6 0.1,-4 -1,-1.2 -2.4,-1.9 -3.9,-2.4 -3.8,-1.5 -7.7,-1.9 -11.5,-2 z m -4.1,16.1 c 0,-1.1 0,-2 0,-3 -1,-0.1 -1.9,-0.2 -2.8,-0.4 0,1 0,2 0,3 1,0.2 1.9,0.3 2.8,0.4 z m 10.7,-3.3 c -1,0.1 -1.9,0.3 -2.8,0.4 0,1 0,2 0,3 1,-0.1 1.9,-0.3 2.8,-0.4 0,-1.1 0,-2 0,-3 z m -7.1,0.5 c -0.9,0 -1.8,0 -2.7,0 0,1 0,1.9 0,2.9 0.9,0 1.8,0.1 2.7,0.1 0,-1 0,-2 0,-3 z m 3.5,0 c -0.9,0 -1.8,0 -2.7,0 0,1 0,2 0,3 0.9,0 1.8,-0.1 2.7,-0.1 0,-1 0,-1.9 0,-2.9 z m 6.5,-1.2 c -0.7,0.2 -1.3,0.3 -1.9,0.4 -0.1,0 -0.2,0.2 -0.2,0.3 0,0.9 0,1.7 0,2.7 0.7,-0.2 1.3,-0.3 1.9,-0.5 0.1,0 0.2,-0.2 0.2,-0.3 0,-0.8 0,-1.6 0,-2.6 z m -17.1,3.4 c 0,-0.9 0,-1.7 0,-2.6 0,-0.1 -0.1,-0.3 -0.2,-0.4 -0.6,-0.2 -1.3,-0.3 -1.9,-0.4 0,0.4 0,0.8 0,1.2 0,2 0,2 2,2.2 0,0.1 0,0 0.1,0 z m 19.3,-4.1 c -0.5,0.2 -0.9,0.3 -1.2,0.4 -0.1,0 -0.2,0.2 -0.2,0.2 0,0.9 0,1.8 0,2.8 0.5,-0.2 0.8,-0.3 1.2,-0.4 0.1,-0.1 0.2,-0.2 0.2,-0.3 0.1,-0.9 0,-1.8 0,-2.7 z m -23.7,0 c 0,1 0,1.9 0,2.7 0,0.1 0.1,0.2 0.2,0.2 0.4,0.2 0.8,0.3 1.3,0.5 0,-1 0,-1.8 0,-2.7 0,-0.1 -0.1,-0.3 -0.3,-0.4 -0.3,0 -0.7,-0.2 -1.2,-0.3 z m 24.5,2.6 c 0.4,-0.2 0.6,-0.3 0.8,-0.4 0.2,-0.1 0.5,-0.3 0.5,-0.5 0.1,-0.9 0,-1.7 0,-2.7 -0.4,0.2 -0.8,0.4 -1.1,0.6 -0.1,0.1 -0.2,0.2 -0.2,0.4 0,0.8 0,1.6 0,2.6 z m -25.2,0 c 0,-1 0,-1.8 0,-2.7 0,-0.1 -0.1,-0.3 -0.2,-0.4 -0.3,-0.2 -0.7,-0.4 -1.1,-0.6 0,0.9 0,1.7 0,2.5 0,0.1 0.1,0.4 0.2,0.4 0.3,0.4 0.6,0.5 1.1,0.8 z m -2.1,-1.3 c 0,-0.9 0,-1.5 0,-2.2 0,-0.6 -0.2,-0.8 -0.9,-1.1 0.5,1.1 -0.4,2.3 0.9,3.3 z m 30.1,-3.2 c 0,0 -0.1,0 -0.1,-0.1 -0.2,0.2 -0.5,0.4 -0.5,0.6 -0.1,0.8 0,1.7 0,2.5 0.1,0 0.1,0 0.2,0.1 0.2,-0.3 0.5,-0.6 0.5,-0.8 0,-0.8 -0.1,-1.5 -0.1,-2.3 z"
             id="path7873" />
        </g>
        <g
           id="g7865"
           transform="translate(133.28963,6.363961)"
           style="fill:#e6e6e6">
          <path
             id="path7841"
             d="m 170.70556,370.95866 c 1,-4 4.1,-5.9 7.5,-7.5 3.8,-1.8 7.9,-2.8 12.1,-3.4 1.5,-0.2 3,-0.3 4.6,-0.5 -0.6,-0.3 -1.1,-0.5 -1.7,-0.8 -1.4,-0.7 -2.8,-1.6 -3.9,-2.8 -0.9,-1 -1.3,-2.2 -1.3,-3.5 0,-1.4 0,-2.7 0,-4.1 -0.1,-1.6 0.6,-3 1.7,-4.1 1.7,-1.6 3.7,-2.6 5.8,-3.3 3.5,-1.3 7.1,-1.9 10.8,-2.1 4.5,-0.3 9.1,-0.1 13.6,0.7 3,0.6 6,1.3 8.6,2.9 1.1,0.6 2.1,1.4 3,2.3 1,0.9 1.4,2.1 1.3,3.5 0,1.3 0,2.6 0,3.9 0,0.4 0.1,0.6 0.6,0.6 7.6,1.5 14.8,4.1 21.5,8.2 3,1.9 5.9,4.1 8.1,7 1.1,1.5 2,3.1 2.3,4.9 0.1,1 0.1,1.9 -0.2,2.8 -0.6,1.9 -1.3,3.8 -1.9,5.7 -0.7,2.3 -2.2,3.8 -4.3,4.8 -2.7,1.2 -5.7,1.6 -8.6,1.7 -8.2,0.1 -15.9,-1.9 -23.4,-5 -0.2,-0.1 -0.5,-0.2 -0.7,-0.3 -2.8,3.2 -6.5,4.8 -10.4,6 -5.8,1.8 -11.7,2.4 -17.8,2.3 -5,-0.1 -9.9,-0.7 -14.7,-2 -2.6,-0.8 -5.2,-1.7 -7.5,-3.2 -2.4,-1.5 -4.5,-3.4 -5.1,-6.3 0,-2.8 0,-5.6 0,-8.4 z m 54.1,-18.1 c -0.7,0 -1.4,0 -2.1,0 -2.5,0.1 -5,0.5 -7.3,1.6 -3.7,1.7 -4.7,4.8 -2.8,8.4 1.2,2.3 3,4.1 5,5.7 3.5,2.8 7.4,5 11.5,6.8 6.6,2.8 13.5,4.7 20.7,5 3,0.1 6,0 8.9,-0.9 0.9,-0.3 1.8,-0.6 2.6,-1.1 3,-1.7 3.8,-4.4 2.4,-7.4 -1.2,-2.6 -3.1,-4.5 -5.3,-6.3 -4,-3.3 -8.4,-5.6 -13.2,-7.5 -6.5,-2.6 -13.3,-4.2 -20.4,-4.3 z m -5,26.4 c -0.7,-0.5 -1.4,-0.9 -2,-1.3 -2.8,-1.9 -5.3,-4 -7.3,-6.8 -1.8,-2.6 -2.6,-5.3 -1.2,-8.4 0.2,-0.5 0.3,-1 0.5,-1.5 -1,-0.1 -1.8,-0.3 -2.7,-0.4 -6,-0.7 -12,-0.7 -18,0.3 -4,0.7 -7.9,1.7 -11.5,3.6 -1.9,1 -3.6,2.1 -4.8,3.9 -0.9,1.2 -1.3,2.6 -0.9,4.1 0.3,1.2 0.9,2.1 1.7,3 2,2.1 4.6,3.4 7.3,4.4 5.9,2.2 12,2.9 18.2,3 4.3,0 8.6,-0.4 12.8,-1.3 2.6,-0.6 5.3,-1.4 7.9,-2.6 z m 8.2,-27.2 c 0.3,0 0.8,0 1,-0.2 0.8,-0.7 1.7,-1.3 2.3,-2.2 0.9,-1.2 0.9,-2.5 0,-3.7 -0.4,-0.6 -1,-1.2 -1.6,-1.7 -1.7,-1.3 -3.6,-2.1 -5.7,-2.8 -5.1,-1.6 -10.4,-2.1 -15.8,-1.9 -3.8,0.1 -7.6,0.7 -11.3,1.8 -2.3,0.7 -4.5,1.6 -6.3,3.3 -1.1,1 -1.8,2.1 -1.5,3.7 0.2,1.1 0.9,1.9 1.8,2.6 1.7,1.4 3.6,2.2 5.6,2.9 4.6,1.5 9.3,2 14.1,2 0.7,0 1.2,-0.1 1.8,-0.7 1.6,-1.7 3.7,-2.4 5.9,-2.9 3.2,-0.5 6.4,-0.6 9.7,-0.2 z m 12.3,28.1 c -0.6,1.8 -1.2,3.6 -1.8,5.5 1.6,0.3 3.2,0.5 4.8,0.8 0.1,0 0.3,-0.1 0.4,-0.3 0.6,-1.7 1.1,-3.4 1.7,-5.1 -1.7,-0.3 -3.4,-0.6 -5.1,-0.9 z m -52.6,3 c 0,1.9 0,3.6 0,5.4 0,0.1 0.3,0.3 0.4,0.4 0.8,0.2 1.6,0.3 2.4,0.4 0.7,0.1 1.5,0.2 2.2,0.3 0,-2 0,-3.8 0,-5.7 -1.6,-0.4 -3.3,-0.6 -5,-0.8 z m 23,0 c -1.7,0.2 -3.4,0.5 -5,0.7 0,1.9 0,3.8 0,5.8 1.6,-0.2 3.2,-0.5 4.8,-0.7 0.1,0 0.3,-0.2 0.3,-0.3 -0.1,-1.9 -0.1,-3.7 -0.1,-5.5 z m 12.8,-9.4 c -0.6,1.7 -1.1,3.4 -1.7,5.1 0,0.1 0.1,0.4 0.2,0.5 1.4,0.7 2.8,1.5 4.3,2.2 0.6,-1.9 1.2,-3.7 1.8,-5.5 -1.5,-0.8 -3,-1.5 -4.6,-2.3 z m 15.8,6.1 c -1.6,-0.5 -3.2,-0.9 -4.8,-1.3 -0.6,1.8 -1.2,3.6 -1.8,5.5 1.6,0.5 3.2,0.9 4.7,1.4 0.7,-2 1.3,-3.8 1.9,-5.6 z m -7.5,3.8 c 0.6,-1.9 1.2,-3.7 1.8,-5.5 -1.6,-0.6 -3.1,-1.2 -4.6,-1.8 -0.6,1.8 -1.2,3.6 -1.8,5.5 1.6,0.7 3.1,1.2 4.6,1.8 z m -38,0.2 c 0,1.9 0,3.8 0,5.8 1.6,0.1 3.2,0.2 4.9,0.2 0,-2 0,-3.9 0,-5.8 -1.7,0 -3.3,-0.1 -4.9,-0.2 z m 10.8,0.1 c -1.6,0.1 -3.2,0.2 -4.8,0.2 0,1.9 0,3.8 0,5.8 1.6,-0.1 3.2,-0.2 4.8,-0.2 0,-2.1 0,-3.9 0,-5.8 z m 14.7,-12.8 c -0.5,1.4 -0.9,2.7 -1.3,4 -0.5,1.4 -0.5,1.4 0.8,2.3 0.7,0.4 1.4,0.9 2.1,1.3 0.6,-1.9 1.2,-3.7 1.8,-5.4 -1.2,-0.8 -2.2,-1.5 -3.4,-2.2 z m 31,10.3 c -1.3,-0.1 -2.5,-0.2 -3.7,-0.3 -0.1,0 -0.4,0.2 -0.4,0.4 -0.4,1 -0.7,2 -1,3.1 -0.2,0.6 -0.4,1.3 -0.7,2 1.3,0.1 2.5,0.2 3.7,0.2 0.1,0 0.3,-0.1 0.3,-0.2 0.7,-1.7 1.2,-3.4 1.8,-5.2 z m -67.5,0.5 c 0,1.8 0,3.6 0,5.3 0,0.1 0.1,0.3 0.2,0.4 1.2,0.3 2.4,0.6 3.5,1 0.1,-0.1 0.1,-0.1 0.1,-0.1 0,-1.8 0,-3.5 0,-5.3 0,-0.1 -0.1,-0.3 -0.3,-0.3 -1,-0.4 -2.2,-0.7 -3.5,-1 z m 32.8,0 c -1.2,0.3 -2.3,0.6 -3.4,0.8 -0.4,0.1 -0.5,0.3 -0.5,0.6 0,1.5 0,3 0,4.5 0,0.2 0,0.4 0,0.7 1.3,-0.3 2.5,-0.6 3.6,-1 0.1,0 0.2,-0.2 0.2,-0.4 0.1,-1.6 0.1,-3.4 0.1,-5.2 z m 3.7,-1.4 c -0.4,0.2 -0.8,0.3 -1.1,0.4 -0.5,0.2 -1.2,0.3 -1.5,0.6 -0.3,0.4 -0.1,1.1 -0.1,1.7 0,1.3 0,2.6 0,4 0.9,-0.4 1.7,-0.7 2.5,-1 0.1,0 0.2,-0.2 0.2,-0.4 0,-1.7 0,-3.4 0,-5.3 z m -40.2,0 c 0,1.9 0,3.6 0,5.4 0,0.1 0.1,0.3 0.1,0.3 0.8,0.4 1.7,0.7 2.6,1 0,-2 0,-3.8 0,-5.7 -0.8,-0.3 -1.7,-0.6 -2.7,-1 z m 75.2,0.8 c -0.9,0 -1.7,0.1 -2.5,0.1 -0.3,0 -0.5,0.1 -0.6,0.4 -0.5,1.5 -1,3 -1.5,4.5 0,0.1 -0.1,0.3 -0.1,0.5 1,-0.1 1.9,-0.1 2.8,-0.2 0.3,-0.7 0.5,-1.4 0.8,-2.1 0,-0.1 0.1,-0.3 0.1,-0.4 0.4,-0.9 0.7,-1.8 1,-2.8 z m -38.1,-12.7 c -0.6,1.7 -1.1,3.4 -1.7,5.1 0,0.1 0,0.3 0.1,0.4 0.6,0.6 1.3,1.1 2,1.7 0.6,-1.8 1.2,-3.5 1.7,-5.2 0,-0.1 0,-0.2 -0.1,-0.3 -0.6,-0.6 -1.3,-1.1 -2,-1.7 z m -40.6,10.1 c 0,1.8 0,3.5 0,5.2 0,0.1 0.1,0.3 0.1,0.4 0.7,0.5 1.5,0.9 2.4,1.4 0,-1.9 0,-3.7 0,-5.4 0,-0.1 -0.1,-0.3 -0.2,-0.4 -0.7,-0.3 -1.5,-0.7 -2.3,-1.2 z m 78,7.9 c 0.9,-0.2 1.7,-0.3 2.4,-0.5 0.2,-0.1 0.5,-0.3 0.5,-0.5 0.5,-1.5 1,-2.9 1.5,-4.4 0,-0.1 0.1,-0.2 0.1,-0.4 -0.4,0.1 -0.7,0.2 -1,0.2 -1.5,-0.1 -2.1,0.8 -2.4,2.1 -0.2,1.1 -0.7,2.2 -1.1,3.5 z m -40,-13.4 c 0.6,-1.8 1.2,-3.5 1.7,-5.2 0,-0.1 0,-0.3 -0.1,-0.4 -0.7,-0.6 -1.3,-1.1 -1.9,-1.6 -0.4,1.3 -1,3 -1.5,4.6 0,0.1 0,0.3 0,0.4 0.6,0.8 1.2,1.5 1.8,2.2 z m 6.7,12.5 c 0.9,-0.5 1.6,-1 2.4,-1.4 0.1,-0.1 0.1,-0.3 0.2,-0.4 0,-0.9 0,-1.8 0,-2.8 0,-0.2 -0.1,-0.4 -0.3,-0.5 -0.5,-0.3 -0.9,-0.5 -1.4,-0.8 -0.4,-0.2 -0.8,0 -0.8,0.5 -0.1,1.8 -0.1,3.5 -0.1,5.4 z m -13.9,-26 c 1.2,0.2 2.4,0.3 3.6,0.5 0,-1.1 0,-2.2 0,-3.3 -1.2,0 -2.4,0 -3.6,0 0,0.9 0,1.8 0,2.8 z m -1.1,-3 c -1.3,-0.2 -2.4,-0.3 -3.7,-0.5 0,1 0,2.1 0,3.1 1.2,0.1 2.5,0.1 3.7,0.2 0,-0.9 0,-1.8 0,-2.8 z m -4.7,2.6 c 0,-1 0,-2 0,-3 0,-0.1 -0.1,-0.3 -0.2,-0.3 -0.8,-0.2 -1.7,-0.4 -2.5,-0.6 0,1.3 0,2.6 0,3.9 0.9,0 1.7,0 2.7,0 z m -27.5,17.5 c 0,1.6 0,3 0,4.4 0,0.9 0.6,1.8 1.5,2.1 0,-1.7 0,-3.4 0,-5 0,-0.1 -0.1,-0.3 -0.2,-0.4 -0.4,-0.4 -0.8,-0.7 -1.3,-1.1 z m 88.1,2.8 c -0.5,0.2 -0.9,0.4 -1.3,0.5 -0.4,0.1 -0.6,0.3 -0.7,0.7 -0.4,1.4 -0.9,2.8 -1.4,4.2 0,0.1 -0.1,0.3 -0.1,0.5 0.5,-0.2 0.9,-0.4 1.3,-0.6 0.2,-0.1 0.5,-0.3 0.6,-0.5 0.5,-1.6 1,-3.1 1.6,-4.8 z m -49.5,-16.4 c -0.5,1.4 -0.8,2.7 -1.3,3.9 -0.5,1.2 0,1.9 0.6,2.9 0.6,-1.7 1.1,-3.3 1.7,-5 0,-0.1 0,-0.2 0,-0.3 -0.4,-0.5 -0.7,-1 -1,-1.5 z m -14.9,-4.2 c 0,-1.3 0,-2.5 0,-3.6 0,-0.1 -0.1,-0.3 -0.2,-0.3 -0.5,-0.2 -1.1,-0.4 -1.7,-0.6 0,1.2 0,2.4 0,3.5 0,0.1 0.1,0.4 0.2,0.4 0.6,0.2 1.1,0.4 1.7,0.6 z m -4.6,-5.9 c 0,1.2 0,2.4 0,3.5 0,0.1 0.1,0.3 0.1,0.3 0.5,0.3 1,0.6 1.6,0.9 0,-1.3 0,-2.5 0,-3.7 0,-0.1 -0.1,-0.2 -0.2,-0.3 -0.4,-0.1 -1,-0.4 -1.5,-0.7 z m -2,-1.3 c 0,1 0,1.9 0,2.9 0,0.7 0.4,1 1,1.4 0,-1 -0.1,-1.9 0,-2.8 0.1,-0.7 -0.3,-1.1 -1,-1.5 z m 35,30.2 c -0.5,-0.2 -0.9,-0.4 -1.4,-0.6 0,0.7 0,1.3 0,2.1 0.6,-0.6 1,-1 1.4,-1.5 z m -53.1,-5.2 c -0.5,1.1 -0.5,2.3 0,3.4 0,-1.2 0,-2.3 0,-3.4 z m 88.9,6.3 c 0.9,-0.9 1.3,-2 1.1,-3.2 -0.3,1.1 -0.7,2.1 -1.1,3.2 z m -51.3,-17.1 c 0.4,-1.1 0.7,-2.2 1.1,-3.3 -0.9,1 -1.3,2.1 -1.1,3.3 z"
             inkscape:connector-curvature="0"
             style="fill:#e6e6e6" />
          <path
             id="path7843"
             d="m 252.20556,329.85866 c 1,0.1 2,0.2 2.9,0.4 2.9,0.4 5.7,1 8.2,2.4 0.7,0.4 1.3,0.8 1.9,1.3 1,0.8 1.5,1.9 1.5,3.3 -0.1,1 -0.1,2.1 0,3.1 0.1,1.3 -0.5,2.3 -1.4,3.2 -1.7,1.5 -3.8,2.4 -6,2.9 -6.8,1.7 -13.7,1.7 -20.5,-0.4 -1.6,-0.5 -3.1,-1.2 -4.4,-2.3 -1.2,-1 -1.8,-2.1 -1.7,-3.7 0.1,-0.9 0.1,-1.9 0,-2.8 -0.1,-1.4 0.5,-2.5 1.5,-3.3 1.6,-1.4 3.5,-2.1 5.4,-2.7 2.3,-0.7 4.7,-1.1 7.1,-1.2 0.2,0 0.3,-0.1 0.5,-0.1 1.7,-0.1 3.3,-0.1 5,-0.1 z m -2.4,0.7 c -3.3,0 -6.4,0.3 -9.5,1.2 -2.1,0.6 -4.1,1.3 -5.7,2.8 -1.5,1.4 -1.6,3.1 0,4.4 0.9,0.8 2,1.5 3.1,2 3.3,1.5 6.9,1.9 10.5,2.1 4.1,0.1 8.1,-0.2 12,-1.4 1.8,-0.6 3.6,-1.3 4.9,-2.7 1.2,-1.3 1.3,-2.6 0.1,-4 -1,-1.2 -2.4,-1.9 -3.9,-2.4 -3.8,-1.5 -7.7,-1.9 -11.5,-2 z m -4.1,16.1 c 0,-1.1 0,-2 0,-3 -1,-0.1 -1.9,-0.2 -2.8,-0.4 0,1 0,2 0,3 1,0.2 1.9,0.3 2.8,0.4 z m 10.7,-3.3 c -1,0.1 -1.9,0.3 -2.8,0.4 0,1 0,2 0,3 1,-0.1 1.9,-0.3 2.8,-0.4 0,-1.1 0,-2 0,-3 z m -7.1,0.5 c -0.9,0 -1.8,0 -2.7,0 0,1 0,1.9 0,2.9 0.9,0 1.8,0.1 2.7,0.1 0,-1 0,-2 0,-3 z m 3.5,0 c -0.9,0 -1.8,0 -2.7,0 0,1 0,2 0,3 0.9,0 1.8,-0.1 2.7,-0.1 0,-1 0,-1.9 0,-2.9 z m 6.5,-1.2 c -0.7,0.2 -1.3,0.3 -1.9,0.4 -0.1,0 -0.2,0.2 -0.2,0.3 0,0.9 0,1.7 0,2.7 0.7,-0.2 1.3,-0.3 1.9,-0.5 0.1,0 0.2,-0.2 0.2,-0.3 0,-0.8 0,-1.6 0,-2.6 z m -17.1,3.4 c 0,-0.9 0,-1.7 0,-2.6 0,-0.1 -0.1,-0.3 -0.2,-0.4 -0.6,-0.2 -1.3,-0.3 -1.9,-0.4 0,0.4 0,0.8 0,1.2 0,2 0,2 2,2.2 0,0.1 0,0 0.1,0 z m 19.3,-4.1 c -0.5,0.2 -0.9,0.3 -1.2,0.4 -0.1,0 -0.2,0.2 -0.2,0.2 0,0.9 0,1.8 0,2.8 0.5,-0.2 0.8,-0.3 1.2,-0.4 0.1,-0.1 0.2,-0.2 0.2,-0.3 0.1,-0.9 0,-1.8 0,-2.7 z m -23.7,0 c 0,1 0,1.9 0,2.7 0,0.1 0.1,0.2 0.2,0.2 0.4,0.2 0.8,0.3 1.3,0.5 0,-1 0,-1.8 0,-2.7 0,-0.1 -0.1,-0.3 -0.3,-0.4 -0.3,0 -0.7,-0.2 -1.2,-0.3 z m 24.5,2.6 c 0.4,-0.2 0.6,-0.3 0.8,-0.4 0.2,-0.1 0.5,-0.3 0.5,-0.5 0.1,-0.9 0,-1.7 0,-2.7 -0.4,0.2 -0.8,0.4 -1.1,0.6 -0.1,0.1 -0.2,0.2 -0.2,0.4 0,0.8 0,1.6 0,2.6 z m -25.2,0 c 0,-1 0,-1.8 0,-2.7 0,-0.1 -0.1,-0.3 -0.2,-0.4 -0.3,-0.2 -0.7,-0.4 -1.1,-0.6 0,0.9 0,1.7 0,2.5 0,0.1 0.1,0.4 0.2,0.4 0.3,0.4 0.6,0.5 1.1,0.8 z m -2.1,-1.3 c 0,-0.9 0,-1.5 0,-2.2 0,-0.6 -0.2,-0.8 -0.9,-1.1 0.5,1.1 -0.4,2.3 0.9,3.3 z m 30.1,-3.2 c 0,0 -0.1,0 -0.1,-0.1 -0.2,0.2 -0.5,0.4 -0.5,0.6 -0.1,0.8 0,1.7 0,2.5 0.1,0 0.1,0 0.2,0.1 0.2,-0.3 0.5,-0.6 0.5,-0.8 0,-0.8 -0.1,-1.5 -0.1,-2.3 z"
             inkscape:connector-curvature="0"
             style="fill:#e6e6e6" />
        </g>
      </g>
    </g>
  </g>
</svg>
