<?xml version="1.0" encoding="UTF-8" standalone="no"?>
<!-- Created with Inkscape (http://www.inkscape.org/) -->

<svg
   xmlns:dc="http://purl.org/dc/elements/1.1/"
   xmlns:cc="http://creativecommons.org/ns#"
   xmlns:rdf="http://www.w3.org/1999/02/22-rdf-syntax-ns#"
   xmlns:svg="http://www.w3.org/2000/svg"
   xmlns="http://www.w3.org/2000/svg"
   xmlns:sodipodi="http://sodipodi.sourceforge.net/DTD/sodipodi-0.dtd"
   xmlns:inkscape="http://www.inkscape.org/namespaces/inkscape"
   width="42.333332mm"
   height="42.333332mm"
   viewBox="0 0 149.99999 150"
   id="svg4759"
   version="1.1"
   inkscape:version="0.91 r13725"
   sodipodi:docname="Node-Hacking-Org.svg">
  <defs
     id="defs4761">
    <filter
       inkscape:collect="always"
       style="color-interpolation-filters:sRGB"
       id="filter5841"
       x="-0.023111811"
       width="1.0462236"
       y="-0.024959184"
       height="1.0499184">
      <feGaussianBlur
         inkscape:collect="always"
         stdDeviation="1.223"
         id="feGaussianBlur5843" />
    </filter>
  </defs>
  <sodipodi:namedview
     id="base"
     pagecolor="#ffffff"
     bordercolor="#666666"
     borderopacity="1.0"
     inkscape:pageopacity="0.0"
     inkscape:pageshadow="2"
     inkscape:zoom="2"
     inkscape:cx="145.7768"
     inkscape:cy="86.603195"
     inkscape:document-units="px"
     inkscape:current-layer="layer1"
     showgrid="false"
     fit-margin-top="0"
     fit-margin-left="0"
     fit-margin-right="0"
     fit-margin-bottom="0"
     inkscape:window-width="1366"
     inkscape:window-height="713"
     inkscape:window-x="0"
     inkscape:window-y="27"
     inkscape:window-maximized="1"
     showborder="false"
     showguides="true"
     inkscape:guide-bbox="true" />
  <metadata
     id="metadata4764">
    <rdf:RDF>
      <cc:Work
         rdf:about="">
        <dc:format>image/svg+xml</dc:format>
        <dc:type
           rdf:resource="http://purl.org/dc/dcmitype/StillImage" />
        <dc:title></dc:title>
      </cc:Work>
    </rdf:RDF>
  </metadata>
  <g
     inkscape:label="Layer 1"
     inkscape:groupmode="layer"
     id="layer1"
     transform="translate(-259.47977,-941.85193)">
    <g
       id="g5921">
      <rect
         ry="0"
         rx="0"
         style="opacity:1;fill:#b3b3b3;fill-opacity:1;stroke:none;stroke-width:6.79094839;stroke-linecap:round;stroke-linejoin:round;stroke-miterlimit:4;stroke-dasharray:none;stroke-dashoffset:0;stroke-opacity:1"
         id="rect5453"
         width="150"
         height="150"
         x="259.47977"
         y="941.85193" />
      <g
         transform="translate(-149.71499,23.144996)"
         id="g5845">
        <g
           style="fill:#000000;filter:url(#filter5841)"
           transform="translate(420.19476,929.70693)"
           id="g5763">
          <path
             style="fill:#000000"
             id="path5765"
             d="m 117.2,12.8 c 0.1,0.1 0.3,0.2 0.5,0.2 0.2,0 0.4,-0.1 0.5,-0.2 0.3,-0.3 0.3,-0.8 0,-1 l -1.5,-1.5 c -0.3,-0.3 -0.8,-0.3 -1,0 -0.3,0.3 -0.3,0.8 0,1 l 1.5,1.5 z"
             inkscape:connector-curvature="0" />
          <path
             style="fill:#000000"
             id="path5767"
             d="m 122.1,17.7 c 0.1,0.1 0.3,0.2 0.5,0.2 0.2,0 0.4,-0.1 0.5,-0.2 0.3,-0.3 0.3,-0.8 0,-1 l -1.5,-1.5 c -0.3,-0.3 -0.8,-0.3 -1,0 -0.3,0.3 -0.3,0.8 0,1 l 1.5,1.5 z"
             inkscape:connector-curvature="0" />
          <path
             style="fill:#000000"
             id="path5769"
             d="m 116.2,17.9 c 0.2,0 0.4,-0.1 0.5,-0.2 l 1.5,-1.5 c 0.3,-0.3 0.3,-0.8 0,-1 -0.3,-0.3 -0.8,-0.3 -1,0 l -1.5,1.5 c -0.3,0.3 -0.3,0.8 0,1 0.1,0.1 0.3,0.2 0.5,0.2 z"
             inkscape:connector-curvature="0" />
          <path
             style="fill:#000000"
             id="path5771"
             d="m 121.1,13 c 0.2,0 0.4,-0.1 0.5,-0.2 l 1.5,-1.5 c 0.3,-0.3 0.3,-0.8 0,-1 -0.3,-0.3 -0.8,-0.3 -1,0 l -1.5,1.5 c -0.3,0.3 -0.3,0.8 0,1 0.1,0.2 0.3,0.2 0.5,0.2 z"
             inkscape:connector-curvature="0" />
          <path
             style="fill:#000000"
             id="path5773"
             d="m 116.3,103.7 c -0.3,-0.3 -0.8,-0.3 -1,0 -0.2,0.3 -0.3,0.8 0,1 l 1.5,1.5 c 0.1,0.1 0.3,0.2 0.5,0.2 0.2,0 0.4,-0.1 0.5,-0.2 0.3,-0.3 0.3,-0.8 0,-1 l -1.5,-1.5 z"
             inkscape:connector-curvature="0" />
          <path
             style="fill:#000000"
             id="path5775"
             d="m 121.2,108.6 c -0.3,-0.3 -0.8,-0.3 -1,0 -0.3,0.3 -0.3,0.8 0,1 l 1.5,1.5 c 0.1,0.1 0.3,0.2 0.5,0.2 0.2,0 0.4,-0.1 0.5,-0.2 0.3,-0.3 0.3,-0.8 0,-1 l -1.5,-1.5 z"
             inkscape:connector-curvature="0" />
          <path
             style="fill:#000000"
             id="path5777"
             d="m 116.8,108.6 -1.5,1.5 c -0.3,0.3 -0.3,0.8 0,1 0.1,0.1 0.3,0.2 0.5,0.2 0.2,0 0.4,-0.1 0.5,-0.2 l 1.5,-1.5 c 0.3,-0.3 0.3,-0.8 0,-1 -0.3,-0.2 -0.7,-0.3 -1,0 z"
             inkscape:connector-curvature="0" />
          <path
             style="fill:#000000"
             id="path5779"
             d="m 121.7,103.7 -1.5,1.5 c -0.3,0.3 -0.3,0.8 0,1 0.1,0.1 0.3,0.2 0.5,0.2 0.2,0 0.4,-0.1 0.5,-0.2 l 1.5,-1.5 c 0.3,-0.3 0.3,-0.8 0,-1 -0.3,-0.3 -0.7,-0.3 -1,0 z"
             inkscape:connector-curvature="0" />
          <path
             style="fill:#000000"
             id="path5781"
             d="m 4.8,109.9 c -0.3,-0.3 -0.8,-0.3 -1,0 -0.3,0.3 -0.3,0.8 0,1 l 1.5,1.5 c 0.1,0.1 0.3,0.2 0.5,0.2 0.2,0 0.4,-0.1 0.5,-0.2 0.3,-0.3 0.3,-0.8 0,-1 l -1.5,-1.5 z"
             inkscape:connector-curvature="0" />
          <path
             style="fill:#000000"
             id="path5783"
             d="m 9.7,114.8 c -0.3,-0.3 -0.8,-0.3 -1,0 -0.3,0.3 -0.3,0.8 0,1 l 1.5,1.5 c 0.1,0.1 0.3,0.2 0.5,0.2 0.2,0 0.4,-0.1 0.5,-0.2 0.3,-0.3 0.3,-0.8 0,-1 l -1.5,-1.5 z"
             inkscape:connector-curvature="0" />
          <path
             style="fill:#000000"
             id="path5785"
             d="m 5.3,114.8 -1.5,1.5 c -0.3,0.3 -0.3,0.8 0,1 0.1,0.1 0.3,0.2 0.5,0.2 0.2,0 0.4,-0.1 0.5,-0.2 l 1.5,-1.5 c 0.3,-0.3 0.3,-0.8 0,-1 -0.3,-0.3 -0.7,-0.3 -1,0 z"
             inkscape:connector-curvature="0" />
          <path
             style="fill:#000000"
             id="path5787"
             d="m 10.1,109.9 -1.5,1.5 c -0.3,0.3 -0.3,0.8 0,1 0.1,0.1 0.3,0.2 0.5,0.2 0.2,0 0.4,-0.1 0.5,-0.2 l 1.5,-1.5 c 0.3,-0.3 0.3,-0.8 0,-1 -0.2,-0.3 -0.7,-0.3 -1,0 z"
             inkscape:connector-curvature="0" />
          <path
             style="fill:#000000"
             id="path5789"
             d="m 77.6,13 c 2.1,0 3.9,-1.7 3.9,-3.9 0,-2.1 -1.7,-3.9 -3.9,-3.9 -2.1,0 -3.9,1.7 -3.9,3.9 0.1,2.1 1.8,3.9 3.9,3.9 z m 0,-6.3 c 1.3,0 2.4,1.1 2.4,2.4 0,1.3 -1.1,2.4 -2.4,2.4 -1.3,0 -2.4,-1.1 -2.4,-2.4 0,-1.3 1.1,-2.4 2.4,-2.4 z"
             inkscape:connector-curvature="0" />
          <path
             style="fill:#000000"
             id="path5791"
             d="m 4.4,77.9 c -2.1,0 -3.9,1.7 -3.9,3.9 0,2.1 1.7,3.9 3.9,3.9 2.1,0 3.9,-1.7 3.9,-3.9 C 8.2,79.6 6.5,77.9 4.4,77.9 Z m 0,6.2 C 3,84.1 2,83.1 2,81.8 c 0,-1.3 1.1,-2.4 2.4,-2.4 1.3,0 2.4,1.1 2.4,2.4 -0.1,1.3 -1.1,2.3 -2.4,2.3 z"
             inkscape:connector-curvature="0" />
          <path
             style="fill:#000000"
             id="path5793"
             d="m 9.4,10.4 c 0,0.4 0.3,0.7 0.7,0.7 l 11.9,0 c 0.4,0 0.7,-0.3 0.7,-0.7 C 22.7,10 22.4,9.7 22,9.7 l -11.8,0 C 9.8,9.7 9.4,10 9.4,10.4 Z"
             inkscape:connector-curvature="0" />
          <path
             style="fill:#000000"
             id="path5795"
             d="m 2.4,11.1 3.8,0 c 0.4,0 0.7,-0.3 0.7,-0.7 C 7,10 6.7,9.7 6.3,9.7 l -3.9,0 C 2,9.7 1.7,10 1.7,10.4 c 0,0.4 0.3,0.7 0.7,0.7 z"
             inkscape:connector-curvature="0" />
          <path
             style="fill:#000000"
             id="path5797"
             d="m 2.4,7.1 8.3,0 c 0.4,0 0.7,-0.3 0.7,-0.7 0,-0.4 -0.3,-0.7 -0.7,-0.7 l -8.3,0 C 2,5.6 1.7,5.9 1.7,6.3 1.7,6.7 2,7.1 2.4,7.1 Z"
             inkscape:connector-curvature="0" />
          <path
             style="fill:#000000"
             id="path5799"
             d="m 14.3,7.1 2.7,0 c 0.4,0 0.7,-0.3 0.7,-0.7 C 17.7,6 17.4,5.7 17,5.7 l -2.7,0 c -0.4,0 -0.7,0.3 -0.7,0.7 -0.1,0.3 0.3,0.7 0.7,0.7 z"
             inkscape:connector-curvature="0" />
          <path
             style="fill:#000000"
             id="path5801"
             d="m 119.8,84.9 c 0,-0.4 -0.3,-0.7 -0.7,-0.7 l -11.9,0 c -0.4,0 -0.7,0.3 -0.7,0.7 0,0.4 0.3,0.7 0.7,0.7 l 11.8,0 c 0.4,0 0.8,-0.3 0.8,-0.7 z"
             inkscape:connector-curvature="0" />
          <path
             style="fill:#000000"
             id="path5803"
             d="m 122.2,84.9 c 0,0.4 0.3,0.7 0.7,0.7 l 3.8,0 c 0.4,0 0.7,-0.3 0.7,-0.7 0,-0.4 -0.3,-0.7 -0.7,-0.7 l -3.8,0 c -0.4,-0.1 -0.7,0.3 -0.7,0.7 z"
             inkscape:connector-curvature="0" />
          <path
             style="fill:#000000"
             id="path5805"
             d="m 126.8,88.2 -8.3,0 c -0.4,0 -0.7,0.3 -0.7,0.7 0,0.4 0.3,0.7 0.7,0.7 l 8.3,0 c 0.4,0 0.7,-0.3 0.7,-0.7 0,-0.3 -0.3,-0.7 -0.7,-0.7 z"
             inkscape:connector-curvature="0" />
          <path
             style="fill:#000000"
             id="path5807"
             d="m 115.7,89 c 0,-0.4 -0.3,-0.7 -0.7,-0.7 l -2.7,0 c -0.4,0 -0.7,0.3 -0.7,0.7 0,0.4 0.3,0.7 0.7,0.7 l 2.7,0 c 0.3,0 0.7,-0.3 0.7,-0.7 z"
             inkscape:connector-curvature="0" />
          <path
             style="fill:#000000"
             id="path5809"
             d="m 7,31.2 c 0,-0.4 -0.3,-0.7 -0.7,-0.7 -0.4,0 -0.7,0.3 -0.7,0.7 l 0,11.2 c 0,0.4 0.3,0.7 0.7,0.7 0.4,0 0.7,-0.3 0.7,-0.7 L 7,31.2 Z"
             inkscape:connector-curvature="0" />
          <path
             style="fill:#000000"
             id="path5811"
             d="m 6.3,45.4 c -0.4,0 -0.7,0.3 -0.7,0.7 l 0,3.6 c 0,0.4 0.3,0.7 0.7,0.7 0.4,0 0.7,-0.3 0.7,-0.7 L 7,46.1 C 7,45.7 6.7,45.4 6.3,45.4 Z"
             inkscape:connector-curvature="0" />
          <path
             style="fill:#000000"
             id="path5813"
             d="m 121.1,63.2 c 0.4,0 0.7,-0.3 0.7,-0.7 l 0,-11.2 c 0,-0.4 -0.3,-0.7 -0.7,-0.7 -0.4,0 -0.7,0.3 -0.7,0.7 l 0,11.2 c -0.1,0.4 0.3,0.7 0.7,0.7 z"
             inkscape:connector-curvature="0" />
          <path
             style="fill:#000000"
             id="path5815"
             d="m 121.1,70.6 c 0.4,0 0.7,-0.3 0.7,-0.7 l 0,-3.6 c 0,-0.4 -0.3,-0.7 -0.7,-0.7 -0.4,0 -0.7,0.3 -0.7,0.7 l 0,3.6 c -0.1,0.3 0.3,0.7 0.7,0.7 z"
             inkscape:connector-curvature="0" />
          <path
             style="fill:#000000"
             id="path5817"
             d="M 69.1,45.5 65.4,45.1 C 65,42.7 64,40.4 62.6,38.4 l 2.3,-2.9 c 0.2,-0.3 0.2,-0.7 0,-1 L 62.3,32 c -0.3,-0.3 -0.7,-0.3 -1,0 l -2.9,2.3 c -2,-1.4 -4.3,-2.3 -6.7,-2.8 l -0.4,-3.7 c 0,-0.4 -0.4,-0.7 -0.7,-0.7 l -3.6,0 c -0.4,0 -0.7,0.3 -0.7,0.7 l -0.4,3.7 c -2.4,0.4 -4.7,1.4 -6.7,2.8 L 36.3,32 c -0.3,-0.2 -0.7,-0.2 -1,0 l -2.6,2.6 c -0.3,0.3 -0.3,0.7 0,1 l 2.3,2.9 c -1.4,2 -2.3,4.3 -2.8,6.7 l -3.7,0.4 c -0.4,0 -0.7,0.4 -0.7,0.7 l 0,3.7 c 0,0.4 0.3,0.7 0.7,0.7 l 3.7,0.4 c 0.4,2.4 1.4,4.7 2.8,6.7 l -2.3,2.9 c -0.2,0.3 -0.2,0.7 0,1 l 2.6,2.6 c 0.3,0.3 0.7,0.3 1,0 L 39.2,62 c 2,1.4 4.3,2.3 6.7,2.8 l 0.4,3.7 c 0,0.4 0.4,0.7 0.7,0.7 l 3.7,0 c 0.4,0 0.7,-0.3 0.7,-0.7 l 0.4,-3.7 c 2.4,-0.4 4.7,-1.4 6.7,-2.8 l 2.9,2.3 c 0.3,0.2 0.7,0.2 1,0 L 65,61.7 c 0.3,-0.3 0.3,-0.7 0,-1 l -2.3,-2.9 c 1.4,-2 2.3,-4.3 2.8,-6.7 l 3.7,-0.4 c 0.4,0 0.7,-0.4 0.7,-0.7 l 0,-3.7 c -0.1,-0.5 -0.4,-0.8 -0.8,-0.8 z m -0.8,3.7 -3.6,0.4 c -0.3,0 -0.6,0.3 -0.7,0.6 -0.4,2.5 -1.4,5 -2.9,7 -0.2,0.3 -0.2,0.6 0,0.9 l 2.3,2.8 -1.7,1.7 -2.7,-2.2 c -0.3,-0.2 -0.6,-0.2 -0.9,0 -2.1,1.5 -4.5,2.6 -7,2.9 -0.3,0 -0.6,0.3 -0.6,0.7 l -0.4,3.6 -2.4,0 -0.4,-3.6 c 0,-0.3 -0.3,-0.6 -0.6,-0.7 -2.5,-0.4 -5,-1.4 -7,-2.9 -0.3,-0.2 -0.6,-0.2 -0.9,0 L 36,62.6 34.3,61 36.6,58.2 c 0.2,-0.3 0.2,-0.6 0,-0.9 -1.5,-2.1 -2.6,-4.5 -2.9,-7 0,-0.3 -0.3,-0.6 -0.7,-0.6 l -3.6,-0.4 0,-2.4 3.6,-0.4 c 0.3,0 0.6,-0.3 0.7,-0.6 0.4,-2.5 1.4,-5 2.9,-7 0.2,-0.3 0.2,-0.6 0,-0.9 l -2.3,-2.8 1.7,-1.7 2.8,2.3 c 0.3,0.2 0.6,0.2 0.9,0 2.1,-1.5 4.5,-2.6 7,-2.9 0.3,0 0.6,-0.3 0.6,-0.7 l 0.4,-3.6 2.4,0 0.4,3.6 c 0,0.3 0.3,0.6 0.6,0.7 2.5,0.4 5,1.4 7,2.9 0.3,0.2 0.6,0.2 0.9,0 l 2.8,-2.3 1.7,1.7 -2.3,2.8 c -0.2,0.3 -0.2,0.6 0,0.9 1.5,2.1 2.6,4.5 2.9,7 0,0.3 0.3,0.6 0.7,0.6 l 3.6,0.4 0,2.3 z"
             inkscape:connector-curvature="0" />
          <path
             style="fill:#000000"
             id="path5819"
             d="m 48.9,36.6 c -6.3,0 -11.5,5.1 -11.5,11.5 0,6.3 5.1,11.5 11.5,11.5 6.3,0 11.5,-5.1 11.5,-11.5 C 60.3,41.7 55.2,36.6 48.9,36.6 Z m 0,21.5 c -5.5,0 -10,-4.5 -10,-10 0,-5.5 4.5,-10 10,-10 5.5,0 10,4.5 10,10 0,5.5 -4.5,10 -10,10 z"
             inkscape:connector-curvature="0" />
          <path
             style="fill:#000000"
             id="path5821"
             d="m 34.4,113.2 c -1.1,-0.4 -2.4,-0.4 -3.5,0.2 -0.7,0.4 -1.8,0.4 -2.5,0 -1.1,-0.6 -2.4,-0.7 -3.5,-0.2 -1,0.4 -1.7,1.2 -2,2.2 -0.2,0.6 -0.3,1.3 -0.2,2 l 0.3,4.7 c 0,0.4 0.3,0.7 0.7,0.7 l 11.8,0 c 0.4,0 0.7,-0.3 0.7,-0.7 l 0.3,-4.7 c 0,-0.7 0,-1.3 -0.2,-2 -0.2,-1.1 -0.9,-1.8 -1.9,-2.2 z m 0.8,4.1 -0.3,4 -10.4,0 -0.3,-4 c 0,-0.5 0,-1 0.2,-1.5 0.2,-0.6 0.6,-1 1.2,-1.3 0.7,-0.3 1.5,-0.2 2.2,0.2 1.2,0.6 2.8,0.6 3.9,0 0.7,-0.4 1.5,-0.4 2.2,-0.2 0.6,0.2 1,0.7 1.2,1.3 0.1,0.5 0.1,1 0.1,1.5 0,0 0,0 0,0 z"
             inkscape:connector-curvature="0" />
          <path
             style="fill:#000000"
             id="path5823"
             d="m 29.7,111.8 c 2.3,0 4.2,-2 4.2,-4.4 0,-2.4 -1.9,-4.4 -4.2,-4.4 -2.3,0 -4.2,2 -4.2,4.4 0,2.5 1.9,4.4 4.2,4.4 z m 0,-7.3 c 1.5,0 2.7,1.3 2.7,2.9 0,1.6 -1.2,2.9 -2.7,2.9 -1.5,0 -2.7,-1.3 -2.7,-2.9 0,-1.6 1.2,-2.9 2.7,-2.9 z"
             inkscape:connector-curvature="0" />
          <path
             style="fill:#000000"
             id="path5825"
             d="m 68.8,113.2 c -1.1,-0.4 -2.4,-0.4 -3.5,0.2 -0.7,0.4 -1.8,0.4 -2.5,0 -1.1,-0.6 -2.4,-0.7 -3.5,-0.2 -1,0.4 -1.7,1.2 -2,2.2 -0.2,0.6 -0.3,1.3 -0.2,2 l 0.3,4.7 c 0,0.4 0.3,0.7 0.7,0.7 l 11.9,0 c 0.4,0 0.7,-0.3 0.7,-0.7 l 0.3,-4.7 c 0,-0.7 0,-1.3 -0.2,-2 -0.3,-1.1 -1,-1.8 -2,-2.2 z m 0.7,4.1 -0.3,4 -10.4,0 -0.3,-4 c 0,-0.5 0,-1 0.2,-1.5 0.2,-0.6 0.6,-1 1.2,-1.3 0.7,-0.3 1.5,-0.2 2.2,0.2 1.2,0.6 2.8,0.6 3.9,0 0.7,-0.4 1.5,-0.4 2.2,-0.2 0.6,0.2 1,0.7 1.2,1.3 0.1,0.5 0.2,1 0.1,1.5 0,0 0,0 0,0 z"
             inkscape:connector-curvature="0" />
          <path
             style="fill:#000000"
             id="path5827"
             d="m 64.1,111.8 c 2.3,0 4.2,-2 4.2,-4.4 0,-2.4 -1.9,-4.4 -4.2,-4.4 -2.3,0 -4.2,2 -4.2,4.4 0,2.5 1.9,4.4 4.2,4.4 z m 0,-7.3 c 1.5,0 2.7,1.3 2.7,2.9 0,1.6 -1.2,2.9 -2.7,2.9 -1.5,0 -2.7,-1.3 -2.7,-2.9 0,-1.6 1.2,-2.9 2.7,-2.9 z"
             inkscape:connector-curvature="0" />
          <path
             style="fill:#000000"
             id="path5829"
             d="m 103.3,113.2 c -1.1,-0.4 -2.4,-0.4 -3.5,0.2 -0.7,0.4 -1.8,0.4 -2.5,0 -1.1,-0.6 -2.4,-0.7 -3.5,-0.2 -1,0.4 -1.7,1.2 -2,2.2 -0.2,0.6 -0.3,1.3 -0.2,2 l 0.3,4.7 c 0,0.4 0.3,0.7 0.7,0.7 l 11.8,0 c 0.4,0 0.7,-0.3 0.7,-0.7 l 0.3,-4.7 c 0,-0.7 0,-1.3 -0.2,-2 -0.2,-1.1 -0.9,-1.8 -1.9,-2.2 z m 0.8,4.1 -0.3,4 -10.4,0 -0.3,-4 c 0,-0.5 0,-1 0.2,-1.5 0.2,-0.6 0.6,-1 1.2,-1.3 0.7,-0.3 1.5,-0.2 2.2,0.2 1.2,0.6 2.8,0.6 3.9,0 0.7,-0.4 1.5,-0.4 2.2,-0.2 0.6,0.2 1,0.7 1.2,1.3 0,0.5 0.1,1 0.1,1.5 0,0 0,0 0,0 z"
             inkscape:connector-curvature="0" />
          <path
             style="fill:#000000"
             id="path5831"
             d="m 98.6,111.8 c 2.3,0 4.2,-2 4.2,-4.4 0,-2.4 -1.9,-4.4 -4.2,-4.4 -2.3,0 -4.2,2 -4.2,4.4 0,2.5 1.9,4.4 4.2,4.4 z m 0,-7.3 c 1.5,0 2.7,1.3 2.7,2.9 0,1.6 -1.2,2.9 -2.7,2.9 -1.5,0 -2.7,-1.3 -2.7,-2.9 0,-1.6 1.2,-2.9 2.7,-2.9 z"
             inkscape:connector-curvature="0" />
          <path
             style="fill:#000000"
             id="path5833"
             d="m 108.9,53.8 0,-11.5 c 0,-1.4 -1.2,-2.6 -2.6,-2.6 l -3.3,0 0,-19.3 c 0,-2.1 -1.7,-3.8 -3.8,-3.8 l -76,0 c -2.1,0 -3.8,1.7 -3.8,3.8 l 0,55.3 c 0,2.1 1.7,3.8 3.8,3.8 l 40.2,0 0,11.2 -33.7,0 C 29.3,90.7 29,91 29,91.4 l 0,7.8 c 0,0.4 0.3,0.7 0.7,0.7 0.4,0 0.7,-0.3 0.7,-0.7 l 0,-7 33,0 0,7 c 0,0.4 0.3,0.7 0.7,0.7 0.4,0 0.7,-0.3 0.7,-0.7 l 0,-7 33,0 0,7 c 0,0.4 0.3,0.7 0.7,0.7 0.4,0 0.7,-0.3 0.7,-0.7 l 0,-7.8 c 0,-0.4 -0.3,-0.7 -0.7,-0.7 l -33.6,0 0,-11.2 34.4,0 c 2.1,0 3.8,-1.7 3.8,-3.8 l 0,-19.3 3.2,0 c 1.4,0 2.6,-1.2 2.6,-2.6 z m -7.3,21.9 c 0,1.3 -1,2.3 -2.3,2.3 l -76.1,0 c -1.3,0 -2.3,-1 -2.3,-2.3 l 0,-55.3 c 0,-1.3 1,-2.3 2.3,-2.3 l 76.1,0 c 1.3,0 2.3,1 2.3,2.3 l 0,19.3 -15.5,0 c -0.7,0 -1.3,0.4 -1.6,1 l -3.2,6.6 c 0,0.1 -0.1,0.2 -0.1,0.2 0,0 0,0.1 0,0.1 0,0.1 0,0.2 0,0.2 0,0.1 0,0.1 0,0.2 0,0.1 0,0.1 0,0.2 0,0.1 0,0.1 0,0.2 0,0.1 0.1,0.2 0.1,0.4 l 3.2,6.6 c 0.3,0.6 0.9,1 1.6,1 l 15.4,0 0,19.3 z m 5.8,-21.9 c 0,0.6 -0.5,1.1 -1.1,1.1 l -4,0 -16.2,0 c -0.1,0 -0.2,-0.1 -0.2,-0.2 l -3.2,-6.6 c 0,-0.1 0,-0.1 0,-0.2 0,0 0,0 0,0 l 3.1,-6.6 c 0,-0.1 0.2,-0.2 0.3,-0.2 l 16.2,0 4,0 c 0.6,0 1.1,0.5 1.1,1.1 l 0,11.6 z"
             inkscape:connector-curvature="0" />
          <path
             style="fill:#000000"
             id="path5835"
             d="m 91.4,44.1 c -2.2,0 -4,1.8 -4,4 0,2.2 1.8,4 4,4 2.2,0 4,-1.8 4,-4 0,-2.2 -1.8,-4 -4,-4 z m 0,6.4 c -1.4,0 -2.5,-1.1 -2.5,-2.5 0,-1.4 1.1,-2.5 2.5,-2.5 1.4,0 2.5,1.1 2.5,2.5 0,1.4 -1.1,2.5 -2.5,2.5 z"
             inkscape:connector-curvature="0" />
        </g>
        <g
           id="g5599"
           transform="translate(420.19476,929.70693)"
           style="fill:#1a1a1a">
          <path
             inkscape:connector-curvature="0"
             d="m 117.2,12.8 c 0.1,0.1 0.3,0.2 0.5,0.2 0.2,0 0.4,-0.1 0.5,-0.2 0.3,-0.3 0.3,-0.8 0,-1 l -1.5,-1.5 c -0.3,-0.3 -0.8,-0.3 -1,0 -0.3,0.3 -0.3,0.8 0,1 l 1.5,1.5 z"
             id="path5601"
             style="fill:#1a1a1a" />
          <path
             inkscape:connector-curvature="0"
             d="m 122.1,17.7 c 0.1,0.1 0.3,0.2 0.5,0.2 0.2,0 0.4,-0.1 0.5,-0.2 0.3,-0.3 0.3,-0.8 0,-1 l -1.5,-1.5 c -0.3,-0.3 -0.8,-0.3 -1,0 -0.3,0.3 -0.3,0.8 0,1 l 1.5,1.5 z"
             id="path5603"
             style="fill:#1a1a1a" />
          <path
             inkscape:connector-curvature="0"
             d="m 116.2,17.9 c 0.2,0 0.4,-0.1 0.5,-0.2 l 1.5,-1.5 c 0.3,-0.3 0.3,-0.8 0,-1 -0.3,-0.3 -0.8,-0.3 -1,0 l -1.5,1.5 c -0.3,0.3 -0.3,0.8 0,1 0.1,0.1 0.3,0.2 0.5,0.2 z"
             id="path5605"
             style="fill:#1a1a1a" />
          <path
             inkscape:connector-curvature="0"
             d="m 121.1,13 c 0.2,0 0.4,-0.1 0.5,-0.2 l 1.5,-1.5 c 0.3,-0.3 0.3,-0.8 0,-1 -0.3,-0.3 -0.8,-0.3 -1,0 l -1.5,1.5 c -0.3,0.3 -0.3,0.8 0,1 0.1,0.2 0.3,0.2 0.5,0.2 z"
             id="path5607"
             style="fill:#1a1a1a" />
          <path
             inkscape:connector-curvature="0"
             d="m 116.3,103.7 c -0.3,-0.3 -0.8,-0.3 -1,0 -0.2,0.3 -0.3,0.8 0,1 l 1.5,1.5 c 0.1,0.1 0.3,0.2 0.5,0.2 0.2,0 0.4,-0.1 0.5,-0.2 0.3,-0.3 0.3,-0.8 0,-1 l -1.5,-1.5 z"
             id="path5609"
             style="fill:#1a1a1a" />
          <path
             inkscape:connector-curvature="0"
             d="m 121.2,108.6 c -0.3,-0.3 -0.8,-0.3 -1,0 -0.3,0.3 -0.3,0.8 0,1 l 1.5,1.5 c 0.1,0.1 0.3,0.2 0.5,0.2 0.2,0 0.4,-0.1 0.5,-0.2 0.3,-0.3 0.3,-0.8 0,-1 l -1.5,-1.5 z"
             id="path5611"
             style="fill:#1a1a1a" />
          <path
             inkscape:connector-curvature="0"
             d="m 116.8,108.6 -1.5,1.5 c -0.3,0.3 -0.3,0.8 0,1 0.1,0.1 0.3,0.2 0.5,0.2 0.2,0 0.4,-0.1 0.5,-0.2 l 1.5,-1.5 c 0.3,-0.3 0.3,-0.8 0,-1 -0.3,-0.2 -0.7,-0.3 -1,0 z"
             id="path5613"
             style="fill:#1a1a1a" />
          <path
             inkscape:connector-curvature="0"
             d="m 121.7,103.7 -1.5,1.5 c -0.3,0.3 -0.3,0.8 0,1 0.1,0.1 0.3,0.2 0.5,0.2 0.2,0 0.4,-0.1 0.5,-0.2 l 1.5,-1.5 c 0.3,-0.3 0.3,-0.8 0,-1 -0.3,-0.3 -0.7,-0.3 -1,0 z"
             id="path5615"
             style="fill:#1a1a1a" />
          <path
             inkscape:connector-curvature="0"
             d="m 4.8,109.9 c -0.3,-0.3 -0.8,-0.3 -1,0 -0.3,0.3 -0.3,0.8 0,1 l 1.5,1.5 c 0.1,0.1 0.3,0.2 0.5,0.2 0.2,0 0.4,-0.1 0.5,-0.2 0.3,-0.3 0.3,-0.8 0,-1 l -1.5,-1.5 z"
             id="path5617"
             style="fill:#1a1a1a" />
          <path
             inkscape:connector-curvature="0"
             d="m 9.7,114.8 c -0.3,-0.3 -0.8,-0.3 -1,0 -0.3,0.3 -0.3,0.8 0,1 l 1.5,1.5 c 0.1,0.1 0.3,0.2 0.5,0.2 0.2,0 0.4,-0.1 0.5,-0.2 0.3,-0.3 0.3,-0.8 0,-1 l -1.5,-1.5 z"
             id="path5619"
             style="fill:#1a1a1a" />
          <path
             inkscape:connector-curvature="0"
             d="m 5.3,114.8 -1.5,1.5 c -0.3,0.3 -0.3,0.8 0,1 0.1,0.1 0.3,0.2 0.5,0.2 0.2,0 0.4,-0.1 0.5,-0.2 l 1.5,-1.5 c 0.3,-0.3 0.3,-0.8 0,-1 -0.3,-0.3 -0.7,-0.3 -1,0 z"
             id="path5621"
             style="fill:#1a1a1a" />
          <path
             inkscape:connector-curvature="0"
             d="m 10.1,109.9 -1.5,1.5 c -0.3,0.3 -0.3,0.8 0,1 0.1,0.1 0.3,0.2 0.5,0.2 0.2,0 0.4,-0.1 0.5,-0.2 l 1.5,-1.5 c 0.3,-0.3 0.3,-0.8 0,-1 -0.2,-0.3 -0.7,-0.3 -1,0 z"
             id="path5623"
             style="fill:#1a1a1a" />
          <path
             inkscape:connector-curvature="0"
             d="m 77.6,13 c 2.1,0 3.9,-1.7 3.9,-3.9 0,-2.1 -1.7,-3.9 -3.9,-3.9 -2.1,0 -3.9,1.7 -3.9,3.9 0.1,2.1 1.8,3.9 3.9,3.9 z m 0,-6.3 c 1.3,0 2.4,1.1 2.4,2.4 0,1.3 -1.1,2.4 -2.4,2.4 -1.3,0 -2.4,-1.1 -2.4,-2.4 0,-1.3 1.1,-2.4 2.4,-2.4 z"
             id="path5625"
             style="fill:#1a1a1a" />
          <path
             inkscape:connector-curvature="0"
             d="m 4.4,77.9 c -2.1,0 -3.9,1.7 -3.9,3.9 0,2.1 1.7,3.9 3.9,3.9 2.1,0 3.9,-1.7 3.9,-3.9 C 8.2,79.6 6.5,77.9 4.4,77.9 Z m 0,6.2 C 3,84.1 2,83.1 2,81.8 c 0,-1.3 1.1,-2.4 2.4,-2.4 1.3,0 2.4,1.1 2.4,2.4 -0.1,1.3 -1.1,2.3 -2.4,2.3 z"
             id="path5627"
             style="fill:#1a1a1a" />
          <path
             inkscape:connector-curvature="0"
             d="m 9.4,10.4 c 0,0.4 0.3,0.7 0.7,0.7 l 11.9,0 c 0.4,0 0.7,-0.3 0.7,-0.7 C 22.7,10 22.4,9.7 22,9.7 l -11.8,0 C 9.8,9.7 9.4,10 9.4,10.4 Z"
             id="path5629"
             style="fill:#1a1a1a" />
          <path
             inkscape:connector-curvature="0"
             d="m 2.4,11.1 3.8,0 c 0.4,0 0.7,-0.3 0.7,-0.7 C 7,10 6.7,9.7 6.3,9.7 l -3.9,0 C 2,9.7 1.7,10 1.7,10.4 c 0,0.4 0.3,0.7 0.7,0.7 z"
             id="path5631"
             style="fill:#1a1a1a" />
          <path
             inkscape:connector-curvature="0"
             d="m 2.4,7.1 8.3,0 c 0.4,0 0.7,-0.3 0.7,-0.7 0,-0.4 -0.3,-0.7 -0.7,-0.7 l -8.3,0 C 2,5.6 1.7,5.9 1.7,6.3 1.7,6.7 2,7.1 2.4,7.1 Z"
             id="path5633"
             style="fill:#1a1a1a" />
          <path
             inkscape:connector-curvature="0"
             d="m 14.3,7.1 2.7,0 c 0.4,0 0.7,-0.3 0.7,-0.7 C 17.7,6 17.4,5.7 17,5.7 l -2.7,0 c -0.4,0 -0.7,0.3 -0.7,0.7 -0.1,0.3 0.3,0.7 0.7,0.7 z"
             id="path5635"
             style="fill:#1a1a1a" />
          <path
             inkscape:connector-curvature="0"
             d="m 119.8,84.9 c 0,-0.4 -0.3,-0.7 -0.7,-0.7 l -11.9,0 c -0.4,0 -0.7,0.3 -0.7,0.7 0,0.4 0.3,0.7 0.7,0.7 l 11.8,0 c 0.4,0 0.8,-0.3 0.8,-0.7 z"
             id="path5637"
             style="fill:#1a1a1a" />
          <path
             inkscape:connector-curvature="0"
             d="m 122.2,84.9 c 0,0.4 0.3,0.7 0.7,0.7 l 3.8,0 c 0.4,0 0.7,-0.3 0.7,-0.7 0,-0.4 -0.3,-0.7 -0.7,-0.7 l -3.8,0 c -0.4,-0.1 -0.7,0.3 -0.7,0.7 z"
             id="path5639"
             style="fill:#1a1a1a" />
          <path
             inkscape:connector-curvature="0"
             d="m 126.8,88.2 -8.3,0 c -0.4,0 -0.7,0.3 -0.7,0.7 0,0.4 0.3,0.7 0.7,0.7 l 8.3,0 c 0.4,0 0.7,-0.3 0.7,-0.7 0,-0.3 -0.3,-0.7 -0.7,-0.7 z"
             id="path5641"
             style="fill:#1a1a1a" />
          <path
             inkscape:connector-curvature="0"
             d="m 115.7,89 c 0,-0.4 -0.3,-0.7 -0.7,-0.7 l -2.7,0 c -0.4,0 -0.7,0.3 -0.7,0.7 0,0.4 0.3,0.7 0.7,0.7 l 2.7,0 c 0.3,0 0.7,-0.3 0.7,-0.7 z"
             id="path5643"
             style="fill:#1a1a1a" />
          <path
             inkscape:connector-curvature="0"
             d="m 7,31.2 c 0,-0.4 -0.3,-0.7 -0.7,-0.7 -0.4,0 -0.7,0.3 -0.7,0.7 l 0,11.2 c 0,0.4 0.3,0.7 0.7,0.7 0.4,0 0.7,-0.3 0.7,-0.7 L 7,31.2 Z"
             id="path5645"
             style="fill:#1a1a1a" />
          <path
             inkscape:connector-curvature="0"
             d="m 6.3,45.4 c -0.4,0 -0.7,0.3 -0.7,0.7 l 0,3.6 c 0,0.4 0.3,0.7 0.7,0.7 0.4,0 0.7,-0.3 0.7,-0.7 L 7,46.1 C 7,45.7 6.7,45.4 6.3,45.4 Z"
             id="path5647"
             style="fill:#1a1a1a" />
          <path
             inkscape:connector-curvature="0"
             d="m 121.1,63.2 c 0.4,0 0.7,-0.3 0.7,-0.7 l 0,-11.2 c 0,-0.4 -0.3,-0.7 -0.7,-0.7 -0.4,0 -0.7,0.3 -0.7,0.7 l 0,11.2 c -0.1,0.4 0.3,0.7 0.7,0.7 z"
             id="path5649"
             style="fill:#1a1a1a" />
          <path
             inkscape:connector-curvature="0"
             d="m 121.1,70.6 c 0.4,0 0.7,-0.3 0.7,-0.7 l 0,-3.6 c 0,-0.4 -0.3,-0.7 -0.7,-0.7 -0.4,0 -0.7,0.3 -0.7,0.7 l 0,3.6 c -0.1,0.3 0.3,0.7 0.7,0.7 z"
             id="path5651"
             style="fill:#1a1a1a" />
          <path
             inkscape:connector-curvature="0"
             d="M 69.1,45.5 65.4,45.1 C 65,42.7 64,40.4 62.6,38.4 l 2.3,-2.9 c 0.2,-0.3 0.2,-0.7 0,-1 L 62.3,32 c -0.3,-0.3 -0.7,-0.3 -1,0 l -2.9,2.3 c -2,-1.4 -4.3,-2.3 -6.7,-2.8 l -0.4,-3.7 c 0,-0.4 -0.4,-0.7 -0.7,-0.7 l -3.6,0 c -0.4,0 -0.7,0.3 -0.7,0.7 l -0.4,3.7 c -2.4,0.4 -4.7,1.4 -6.7,2.8 L 36.3,32 c -0.3,-0.2 -0.7,-0.2 -1,0 l -2.6,2.6 c -0.3,0.3 -0.3,0.7 0,1 l 2.3,2.9 c -1.4,2 -2.3,4.3 -2.8,6.7 l -3.7,0.4 c -0.4,0 -0.7,0.4 -0.7,0.7 l 0,3.7 c 0,0.4 0.3,0.7 0.7,0.7 l 3.7,0.4 c 0.4,2.4 1.4,4.7 2.8,6.7 l -2.3,2.9 c -0.2,0.3 -0.2,0.7 0,1 l 2.6,2.6 c 0.3,0.3 0.7,0.3 1,0 L 39.2,62 c 2,1.4 4.3,2.3 6.7,2.8 l 0.4,3.7 c 0,0.4 0.4,0.7 0.7,0.7 l 3.7,0 c 0.4,0 0.7,-0.3 0.7,-0.7 l 0.4,-3.7 c 2.4,-0.4 4.7,-1.4 6.7,-2.8 l 2.9,2.3 c 0.3,0.2 0.7,0.2 1,0 L 65,61.7 c 0.3,-0.3 0.3,-0.7 0,-1 l -2.3,-2.9 c 1.4,-2 2.3,-4.3 2.8,-6.7 l 3.7,-0.4 c 0.4,0 0.7,-0.4 0.7,-0.7 l 0,-3.7 c -0.1,-0.5 -0.4,-0.8 -0.8,-0.8 z m -0.8,3.7 -3.6,0.4 c -0.3,0 -0.6,0.3 -0.7,0.6 -0.4,2.5 -1.4,5 -2.9,7 -0.2,0.3 -0.2,0.6 0,0.9 l 2.3,2.8 -1.7,1.7 -2.7,-2.2 c -0.3,-0.2 -0.6,-0.2 -0.9,0 -2.1,1.5 -4.5,2.6 -7,2.9 -0.3,0 -0.6,0.3 -0.6,0.7 l -0.4,3.6 -2.4,0 -0.4,-3.6 c 0,-0.3 -0.3,-0.6 -0.6,-0.7 -2.5,-0.4 -5,-1.4 -7,-2.9 -0.3,-0.2 -0.6,-0.2 -0.9,0 L 36,62.6 34.3,61 36.6,58.2 c 0.2,-0.3 0.2,-0.6 0,-0.9 -1.5,-2.1 -2.6,-4.5 -2.9,-7 0,-0.3 -0.3,-0.6 -0.7,-0.6 l -3.6,-0.4 0,-2.4 3.6,-0.4 c 0.3,0 0.6,-0.3 0.7,-0.6 0.4,-2.5 1.4,-5 2.9,-7 0.2,-0.3 0.2,-0.6 0,-0.9 l -2.3,-2.8 1.7,-1.7 2.8,2.3 c 0.3,0.2 0.6,0.2 0.9,0 2.1,-1.5 4.5,-2.6 7,-2.9 0.3,0 0.6,-0.3 0.6,-0.7 l 0.4,-3.6 2.4,0 0.4,3.6 c 0,0.3 0.3,0.6 0.6,0.7 2.5,0.4 5,1.4 7,2.9 0.3,0.2 0.6,0.2 0.9,0 l 2.8,-2.3 1.7,1.7 -2.3,2.8 c -0.2,0.3 -0.2,0.6 0,0.9 1.5,2.1 2.6,4.5 2.9,7 0,0.3 0.3,0.6 0.7,0.6 l 3.6,0.4 0,2.3 z"
             id="path5653"
             style="fill:#1a1a1a" />
          <path
             inkscape:connector-curvature="0"
             d="m 48.9,36.6 c -6.3,0 -11.5,5.1 -11.5,11.5 0,6.3 5.1,11.5 11.5,11.5 6.3,0 11.5,-5.1 11.5,-11.5 C 60.3,41.7 55.2,36.6 48.9,36.6 Z m 0,21.5 c -5.5,0 -10,-4.5 -10,-10 0,-5.5 4.5,-10 10,-10 5.5,0 10,4.5 10,10 0,5.5 -4.5,10 -10,10 z"
             id="path5655"
             style="fill:#1a1a1a" />
          <path
             inkscape:connector-curvature="0"
             d="m 34.4,113.2 c -1.1,-0.4 -2.4,-0.4 -3.5,0.2 -0.7,0.4 -1.8,0.4 -2.5,0 -1.1,-0.6 -2.4,-0.7 -3.5,-0.2 -1,0.4 -1.7,1.2 -2,2.2 -0.2,0.6 -0.3,1.3 -0.2,2 l 0.3,4.7 c 0,0.4 0.3,0.7 0.7,0.7 l 11.8,0 c 0.4,0 0.7,-0.3 0.7,-0.7 l 0.3,-4.7 c 0,-0.7 0,-1.3 -0.2,-2 -0.2,-1.1 -0.9,-1.8 -1.9,-2.2 z m 0.8,4.1 -0.3,4 -10.4,0 -0.3,-4 c 0,-0.5 0,-1 0.2,-1.5 0.2,-0.6 0.6,-1 1.2,-1.3 0.7,-0.3 1.5,-0.2 2.2,0.2 1.2,0.6 2.8,0.6 3.9,0 0.7,-0.4 1.5,-0.4 2.2,-0.2 0.6,0.2 1,0.7 1.2,1.3 0.1,0.5 0.1,1 0.1,1.5 0,0 0,0 0,0 z"
             id="path5657"
             style="fill:#1a1a1a" />
          <path
             inkscape:connector-curvature="0"
             d="m 29.7,111.8 c 2.3,0 4.2,-2 4.2,-4.4 0,-2.4 -1.9,-4.4 -4.2,-4.4 -2.3,0 -4.2,2 -4.2,4.4 0,2.5 1.9,4.4 4.2,4.4 z m 0,-7.3 c 1.5,0 2.7,1.3 2.7,2.9 0,1.6 -1.2,2.9 -2.7,2.9 -1.5,0 -2.7,-1.3 -2.7,-2.9 0,-1.6 1.2,-2.9 2.7,-2.9 z"
             id="path5659"
             style="fill:#1a1a1a" />
          <path
             inkscape:connector-curvature="0"
             d="m 68.8,113.2 c -1.1,-0.4 -2.4,-0.4 -3.5,0.2 -0.7,0.4 -1.8,0.4 -2.5,0 -1.1,-0.6 -2.4,-0.7 -3.5,-0.2 -1,0.4 -1.7,1.2 -2,2.2 -0.2,0.6 -0.3,1.3 -0.2,2 l 0.3,4.7 c 0,0.4 0.3,0.7 0.7,0.7 l 11.9,0 c 0.4,0 0.7,-0.3 0.7,-0.7 l 0.3,-4.7 c 0,-0.7 0,-1.3 -0.2,-2 -0.3,-1.1 -1,-1.8 -2,-2.2 z m 0.7,4.1 -0.3,4 -10.4,0 -0.3,-4 c 0,-0.5 0,-1 0.2,-1.5 0.2,-0.6 0.6,-1 1.2,-1.3 0.7,-0.3 1.5,-0.2 2.2,0.2 1.2,0.6 2.8,0.6 3.9,0 0.7,-0.4 1.5,-0.4 2.2,-0.2 0.6,0.2 1,0.7 1.2,1.3 0.1,0.5 0.2,1 0.1,1.5 0,0 0,0 0,0 z"
             id="path5661"
             style="fill:#1a1a1a" />
          <path
             inkscape:connector-curvature="0"
             d="m 64.1,111.8 c 2.3,0 4.2,-2 4.2,-4.4 0,-2.4 -1.9,-4.4 -4.2,-4.4 -2.3,0 -4.2,2 -4.2,4.4 0,2.5 1.9,4.4 4.2,4.4 z m 0,-7.3 c 1.5,0 2.7,1.3 2.7,2.9 0,1.6 -1.2,2.9 -2.7,2.9 -1.5,0 -2.7,-1.3 -2.7,-2.9 0,-1.6 1.2,-2.9 2.7,-2.9 z"
             id="path5663"
             style="fill:#1a1a1a" />
          <path
             inkscape:connector-curvature="0"
             d="m 103.3,113.2 c -1.1,-0.4 -2.4,-0.4 -3.5,0.2 -0.7,0.4 -1.8,0.4 -2.5,0 -1.1,-0.6 -2.4,-0.7 -3.5,-0.2 -1,0.4 -1.7,1.2 -2,2.2 -0.2,0.6 -0.3,1.3 -0.2,2 l 0.3,4.7 c 0,0.4 0.3,0.7 0.7,0.7 l 11.8,0 c 0.4,0 0.7,-0.3 0.7,-0.7 l 0.3,-4.7 c 0,-0.7 0,-1.3 -0.2,-2 -0.2,-1.1 -0.9,-1.8 -1.9,-2.2 z m 0.8,4.1 -0.3,4 -10.4,0 -0.3,-4 c 0,-0.5 0,-1 0.2,-1.5 0.2,-0.6 0.6,-1 1.2,-1.3 0.7,-0.3 1.5,-0.2 2.2,0.2 1.2,0.6 2.8,0.6 3.9,0 0.7,-0.4 1.5,-0.4 2.2,-0.2 0.6,0.2 1,0.7 1.2,1.3 0,0.5 0.1,1 0.1,1.5 0,0 0,0 0,0 z"
             id="path5665"
             style="fill:#1a1a1a" />
          <path
             inkscape:connector-curvature="0"
             d="m 98.6,111.8 c 2.3,0 4.2,-2 4.2,-4.4 0,-2.4 -1.9,-4.4 -4.2,-4.4 -2.3,0 -4.2,2 -4.2,4.4 0,2.5 1.9,4.4 4.2,4.4 z m 0,-7.3 c 1.5,0 2.7,1.3 2.7,2.9 0,1.6 -1.2,2.9 -2.7,2.9 -1.5,0 -2.7,-1.3 -2.7,-2.9 0,-1.6 1.2,-2.9 2.7,-2.9 z"
             id="path5667"
             style="fill:#1a1a1a" />
          <path
             inkscape:connector-curvature="0"
             d="m 108.9,53.8 0,-11.5 c 0,-1.4 -1.2,-2.6 -2.6,-2.6 l -3.3,0 0,-19.3 c 0,-2.1 -1.7,-3.8 -3.8,-3.8 l -76,0 c -2.1,0 -3.8,1.7 -3.8,3.8 l 0,55.3 c 0,2.1 1.7,3.8 3.8,3.8 l 40.2,0 0,11.2 -33.7,0 C 29.3,90.7 29,91 29,91.4 l 0,7.8 c 0,0.4 0.3,0.7 0.7,0.7 0.4,0 0.7,-0.3 0.7,-0.7 l 0,-7 33,0 0,7 c 0,0.4 0.3,0.7 0.7,0.7 0.4,0 0.7,-0.3 0.7,-0.7 l 0,-7 33,0 0,7 c 0,0.4 0.3,0.7 0.7,0.7 0.4,0 0.7,-0.3 0.7,-0.7 l 0,-7.8 c 0,-0.4 -0.3,-0.7 -0.7,-0.7 l -33.6,0 0,-11.2 34.4,0 c 2.1,0 3.8,-1.7 3.8,-3.8 l 0,-19.3 3.2,0 c 1.4,0 2.6,-1.2 2.6,-2.6 z m -7.3,21.9 c 0,1.3 -1,2.3 -2.3,2.3 l -76.1,0 c -1.3,0 -2.3,-1 -2.3,-2.3 l 0,-55.3 c 0,-1.3 1,-2.3 2.3,-2.3 l 76.1,0 c 1.3,0 2.3,1 2.3,2.3 l 0,19.3 -15.5,0 c -0.7,0 -1.3,0.4 -1.6,1 l -3.2,6.6 c 0,0.1 -0.1,0.2 -0.1,0.2 0,0 0,0.1 0,0.1 0,0.1 0,0.2 0,0.2 0,0.1 0,0.1 0,0.2 0,0.1 0,0.1 0,0.2 0,0.1 0,0.1 0,0.2 0,0.1 0.1,0.2 0.1,0.4 l 3.2,6.6 c 0.3,0.6 0.9,1 1.6,1 l 15.4,0 0,19.3 z m 5.8,-21.9 c 0,0.6 -0.5,1.1 -1.1,1.1 l -4,0 -16.2,0 c -0.1,0 -0.2,-0.1 -0.2,-0.2 l -3.2,-6.6 c 0,-0.1 0,-0.1 0,-0.2 0,0 0,0 0,0 l 3.1,-6.6 c 0,-0.1 0.2,-0.2 0.3,-0.2 l 16.2,0 4,0 c 0.6,0 1.1,0.5 1.1,1.1 l 0,11.6 z"
             id="path5669"
             style="fill:#1a1a1a" />
          <path
             inkscape:connector-curvature="0"
             d="m 91.4,44.1 c -2.2,0 -4,1.8 -4,4 0,2.2 1.8,4 4,4 2.2,0 4,-1.8 4,-4 0,-2.2 -1.8,-4 -4,-4 z m 0,6.4 c -1.4,0 -2.5,-1.1 -2.5,-2.5 0,-1.4 1.1,-2.5 2.5,-2.5 1.4,0 2.5,1.1 2.5,2.5 0,1.4 -1.1,2.5 -2.5,2.5 z"
             id="path5671"
             style="fill:#1a1a1a" />
        </g>
      </g>
    </g>
  </g>
</svg>
