<?xml version="1.0" encoding="UTF-8" standalone="no"?>
<!-- Created with Inkscape (http://www.inkscape.org/) -->

<svg
   xmlns:dc="http://purl.org/dc/elements/1.1/"
   xmlns:cc="http://creativecommons.org/ns#"
   xmlns:rdf="http://www.w3.org/1999/02/22-rdf-syntax-ns#"
   xmlns:svg="http://www.w3.org/2000/svg"
   xmlns="http://www.w3.org/2000/svg"
   xmlns:sodipodi="http://sodipodi.sourceforge.net/DTD/sodipodi-0.dtd"
   xmlns:inkscape="http://www.inkscape.org/namespaces/inkscape"
   width="42.333336mm"
   height="42.333336mm"
   viewBox="0 0 150 150.00002"
   id="svg4759"
   version="1.1"
   inkscape:version="0.91 r13725"
   sodipodi:docname="Node-Hacking-SW.svg">
  <defs
     id="defs4761">
    <filter
       inkscape:collect="always"
       style="color-interpolation-filters:sRGB"
       id="filter13763"
       x="-0.059904762"
       width="1.1198095"
       y="-0.060095541"
       height="1.1201911">
      <feGaussianBlur
         inkscape:collect="always"
         stdDeviation="2.35875"
         id="feGaussianBlur13765" />
    </filter>
  </defs>
  <sodipodi:namedview
     id="base"
     pagecolor="#ffffff"
     bordercolor="#666666"
     borderopacity="1.0"
     inkscape:pageopacity="0.0"
     inkscape:pageshadow="2"
     inkscape:zoom="2.8284271"
     inkscape:cx="48.424424"
     inkscape:cy="65.7028"
     inkscape:document-units="px"
     inkscape:current-layer="layer1"
     showgrid="false"
     fit-margin-top="0"
     fit-margin-left="0"
     fit-margin-right="0"
     fit-margin-bottom="0"
     inkscape:window-width="1366"
     inkscape:window-height="713"
     inkscape:window-x="0"
     inkscape:window-y="27"
     inkscape:window-maximized="1"
     showborder="false"
     showguides="true"
     inkscape:guide-bbox="true" />
  <metadata
     id="metadata4764">
    <rdf:RDF>
      <cc:Work
         rdf:about="">
        <dc:format>image/svg+xml</dc:format>
        <dc:type
           rdf:resource="http://purl.org/dc/dcmitype/StillImage" />
        <dc:title></dc:title>
      </cc:Work>
    </rdf:RDF>
  </metadata>
  <g
     inkscape:label="Layer 1"
     inkscape:groupmode="layer"
     id="layer1"
     transform="translate(-264.49537,-946.30689)">
    <g
       id="g13775"
       inkscape:export-xdpi="90"
       inkscape:export-ydpi="90">
      <rect
         ry="0"
         rx="0"
         style="opacity:1;fill:#999999;fill-opacity:1;stroke:none;stroke-width:6.79094839;stroke-linecap:round;stroke-linejoin:round;stroke-miterlimit:4;stroke-dasharray:none;stroke-dashoffset:0;stroke-opacity:1"
         id="rect5453"
         width="150.00002"
         height="150.00002"
         x="262.96902"
         y="948.15771" />
      <g
         style="opacity:0.25;fill:#e6e6e6"
         transform="matrix(1.5283868,0,0,1.5283868,258.4738,946.73836)"
         id="g10046">
        <g
           style="fill:#e6e6e6"
           id="Layer_1">
          <g
             style="fill:#e6e6e6"
             id="g9958">
            <polygon
               style="fill:#e6e6e6"
               points="47.166,40.544 38.341,49.367 38.341,53.298 15.88,75.262 14.006,73.346 35.661,52.171 35.661,48.256 44.486,39.434 44.486,27.077 47.965,21.933 47.965,3.223 50.645,3.223 50.645,22.754 47.166,27.898 "
               id="polygon9960" />
          </g>
          <g
             style="fill:#e6e6e6"
             id="g9962">
            <polygon
               style="fill:#e6e6e6"
               points="42.998,50.77 42.998,72.05 40.318,72.05 40.318,49.8 47.16,41.588 54.041,41.588 65.068,28.841 75.484,28.841 75.484,31.521 66.293,31.521 55.266,44.268 48.415,44.268 "
               id="polygon9964" />
          </g>
          <g
             style="fill:#e6e6e6"
             id="g9966">
            <polygon
               style="fill:#e6e6e6"
               points="47.9,51.115 47.9,63.392 55.993,70.251 55.993,83.515 60.944,88.023 59.14,90.004 53.313,84.698 53.313,71.493 45.221,64.634 45.221,49.942 49.225,46.247 59.487,46.247 62.526,43.208 64.421,45.103 60.597,48.927 50.271,48.927 "
               id="polygon9968" />
          </g>
          <g
             style="fill:#e6e6e6"
             id="g9970">
            <polygon
               style="fill:#e6e6e6"
               points="43.89,36.65 28.026,51.507 26.194,49.551 41.21,35.488 41.21,7.773 43.89,7.773 "
               id="polygon9972" />
          </g>
          <g
             style="fill:#e6e6e6"
             id="g9974">
            <path
               sodipodi:nodetypes="sssss"
               style="fill:#e6e6e6"
               inkscape:connector-curvature="0"
               d="m 41.658,70.05 c -2.357,0 -4.272,1.915 -4.272,4.276 0,2.359 1.915,4.271 4.272,4.271 2.363,0 4.274,-1.912 4.274,-4.271 0,-2.361 -1.911,-4.276 -4.274,-4.276 z"
               id="path9976" />
          </g>
          <g
             style="fill:#e6e6e6"
             id="g9978">
            <path
               style="fill:#e6e6e6"
               inkscape:connector-curvature="0"
               d="m 29.038,75.541 c -2.364,0 -4.276,1.92 -4.276,4.278 0,2.361 1.913,4.272 4.276,4.272 2.359,0 4.271,-1.911 4.271,-4.272 0.001,-2.358 -1.912,-4.278 -4.271,-4.278 z"
               id="path9980" />
          </g>
          <g
             style="fill:#e6e6e6"
             id="g9982">
            <circle
               style="fill:#e6e6e6"
               cx="29.038"
               cy="79.819"
               r="2.138"
               id="circle9984" />
          </g>
          <g
             style="fill:#e6e6e6"
             id="g9986">
            <path
               style="fill:#e6e6e6"
               inkscape:connector-curvature="0"
               d="m 41.658,88.231 c -2.357,0 -4.272,1.91 -4.272,4.27 0,2.361 1.915,4.276 4.272,4.276 2.363,0 4.274,-1.915 4.274,-4.276 0,-2.359 -1.911,-4.27 -4.274,-4.27 z"
               id="path9988" />
          </g>
          <g
             style="fill:#e6e6e6"
             id="g9990">
            <path
               style="fill:#e6e6e6"
               inkscape:connector-curvature="0"
               d="m 41.658,90.366 c -1.179,0 -2.137,0.956 -2.137,2.135 0,1.183 0.958,2.139 2.137,2.139 1.185,0 2.139,-0.956 2.139,-2.139 0,-1.179 -0.954,-2.135 -2.139,-2.135 z"
               id="path9992" />
          </g>
          <g
             style="fill:#e6e6e6"
             id="g9994">
            <path
               sodipodi:nodetypes="ssscs"
               style="fill:#e6e6e6"
               inkscape:connector-curvature="0"
               d="m 13.76,71.409 c -2.366,0 -4.276,1.912 -4.276,4.271 0,2.361 1.911,4.276 4.276,4.276 2.361,0 4.27,-1.915 4.27,-4.276 -0.001,-2.359 -1.909,-4.271 -4.27,-4.271 z"
               id="path9996" />
          </g>
          <g
             style="fill:#e6e6e6"
             id="g9998">
            <path
               sodipodi:nodetypes="sssss"
               style="fill:#e6e6e6"
               inkscape:connector-curvature="0"
               d="m 13.76,73.541 c -1.183,0 -2.139,0.959 -2.139,2.14 0,1.183 0.956,2.139 2.139,2.139 1.174,0 2.135,-0.956 2.135,-2.139 0,-1.181 -0.961,-2.14 -2.135,-2.14 z"
               id="path10000" />
          </g>
          <g
             style="fill:#e6e6e6"
             id="g10002">
            <path
               style="fill:#e6e6e6"
               inkscape:connector-curvature="0"
               d="m 66.721,38.318 c -2.358,0 -4.27,1.913 -4.27,4.276 0,2.359 1.911,4.271 4.27,4.271 2.366,0 4.276,-1.913 4.276,-4.271 0,-2.364 -1.91,-4.276 -4.276,-4.276 z"
               id="path10004" />
          </g>
          <g
             style="fill:#e6e6e6"
             id="g10006">
            <path
               style="fill:#e6e6e6"
               inkscape:connector-curvature="0"
               d="m 66.721,40.455 c -1.181,0 -2.135,0.958 -2.135,2.139 0,1.174 0.954,2.137 2.135,2.137 1.183,0 2.14,-0.963 2.14,-2.137 -0.001,-1.18 -0.958,-2.139 -2.14,-2.139 z"
               id="path10008" />
          </g>
          <g
             style="fill:#e6e6e6"
             id="g10010">
            <path
               style="fill:#e6e6e6"
               inkscape:connector-curvature="0"
               d="m 78.856,25.912 c -2.363,0 -4.275,1.911 -4.275,4.27 0,2.366 1.912,4.278 4.275,4.278 2.364,0 4.274,-1.913 4.274,-4.278 0.001,-2.36 -1.909,-4.27 -4.274,-4.27 z"
               id="path10012" />
          </g>
          <g
             style="fill:#e6e6e6"
             id="g10014">
            <path
               style="fill:#e6e6e6"
               inkscape:connector-curvature="0"
               d="m 78.856,28.046 c -1.183,0 -2.139,0.954 -2.139,2.135 0,1.185 0.956,2.137 2.139,2.137 1.179,0 2.135,-0.952 2.135,-2.137 0,-1.181 -0.956,-2.135 -2.135,-2.135 z"
               id="path10016" />
          </g>
          <g
             style="fill:#e6e6e6"
             id="g10018">
            <path
               style="fill:#e6e6e6"
               inkscape:connector-curvature="0"
               d="m 53.903,51.115 c -2.366,0 -4.276,1.918 -4.276,4.274 0,2.361 1.91,4.276 4.276,4.276 2.359,0 4.27,-1.915 4.27,-4.276 0,-2.356 -1.91,-4.274 -4.27,-4.274 z"
               id="path10020" />
          </g>
          <g
             style="fill:#e6e6e6"
             id="g10022">
            <path
               style="fill:#e6e6e6"
               inkscape:connector-curvature="0"
               d="m 53.903,53.252 c -1.183,0 -2.14,0.959 -2.14,2.138 0,1.183 0.957,2.139 2.14,2.139 1.177,0 2.133,-0.956 2.133,-2.139 0,-1.179 -0.956,-2.138 -2.133,-2.138 z"
               id="path10024" />
          </g>
          <g
             style="fill:#e6e6e6"
             id="g10026">
            <polygon
               style="fill:#e6e6e6"
               points="94.541,25.862 65.648,56.729 58.173,56.729 58.173,54.05 64.486,54.05 92.584,24.031 "
               id="polygon10028" />
          </g>
          <g
             style="fill:#e6e6e6"
             id="g10030">
            <path
               style="fill:#e6e6e6"
               inkscape:connector-curvature="0"
               d="m 24.968,48.798 c -2.363,0 -4.278,1.913 -4.278,4.272 0,2.358 1.915,4.276 4.278,4.276 2.359,0 4.272,-1.918 4.272,-4.276 0,-2.359 -1.912,-4.272 -4.272,-4.272 z"
               id="path10032" />
          </g>
          <g
             style="fill:#e6e6e6"
             id="g10034">
            <path
               style="fill:#e6e6e6"
               inkscape:connector-curvature="0"
               d="m 62.11,87.126 c -2.361,0 -4.273,1.914 -4.273,4.278 0,2.354 1.912,4.271 4.273,4.271 2.363,0 4.274,-1.917 4.274,-4.271 0.001,-2.364 -1.91,-4.278 -4.274,-4.278 z"
               id="path10036" />
          </g>
        </g>
        <g
           style="fill:#e6e6e6"
           id="_x3C_Layer_x3E_" />
        <g
           style="fill:#e6e6e6"
           id="toolbar" />
      </g>
      <g
         id="g13767">
        <g
           transform="matrix(0.84656085,0,0,0.84656085,106.27502,168.07562)"
           id="g13729"
           style="filter:url(#filter13763)">
          <path
             style="fill:#000000"
             inkscape:connector-curvature="0"
             d="m 319.93854,978.6657 c 0.5,-0.2 0.7,-0.8 0.7,-1.3 l 0,-14.4 -94.2,0 0,14.4 c 0,0.5 0.3,1.1 0.7,1.3 1.2,0.6 2,2.4 2,4.6 0,2.2 -0.9,4 -2,4.6 -0.4,0.2 -0.7,0.7 -0.7,1.2 l 0,68.1 7,0 c 0.6,0 1.1,-0.3 1.4,-0.9 0.3,-0.9 1.2,-1.5 2.2,-1.5 1,0 1.8,0.6 2.2,1.5 0.2,0.5 0.8,0.9 1.4,0.9 l 66.3,0 c 0.6,0 1.1,-0.3 1.4,-0.9 0.3,-0.9 1.2,-1.5 2.2,-1.5 1,0 1.8,0.6 2.2,1.5 0.2,0.5 0.8,0.9 1.4,0.9 l 6.8,0 0,-68.1 c 0,-0.5 -0.3,-1.1 -0.7,-1.3 -1.2,-0.6 -2,-2.4 -2,-4.6 -0.4,-2.1 0.5,-4 1.7,-4.5 z m -60.2,-13.9 0.3,-0.3 c 0.2,-0.2 0.6,-0.2 0.9,0 l 1.6,1.7 c 0.2,0.2 0.2,0.6 0,0.9 l -0.3,0.3 c -0.2,0.2 -0.6,0.2 -0.9,0 l -1.7,-1.7 c -0.2,-0.3 -0.2,-0.7 0.1,-0.9 z m -17.2,3.8 c -0.2,-0.2 -0.2,-0.6 0,-0.9 l 0.3,-0.3 c 0.2,-0.2 0.6,-0.2 0.9,0 l 1.6,1.7 c 0.2,0.2 0.2,0.6 0,0.9 l -0.3,0.3 c -0.2,0.2 -0.6,0.2 -0.9,0 l -1.6,-1.7 z m -0.2,1.4 -0.3,0.3 c -0.2,0.2 -0.6,0.2 -0.9,0 l -1.6,-1.7 c -0.2,-0.2 -0.2,-0.6 0,-0.9 l 0.3,-0.3 c 0.2,-0.2 0.6,-0.2 0.9,0 l 1.6,1.7 c 0.3,0.3 0.3,0.6 0,0.9 z m 3,-1.4 c -0.2,-0.2 -0.2,-0.6 0,-0.9 l 0.3,-0.3 c 0.2,-0.2 0.6,-0.2 0.9,0 l 1.7,1.7 c 0.2,0.2 0.2,0.6 0,0.9 l -0.3,0.3 c -0.2,0.2 -0.6,0.2 -0.9,0 l -1.7,-1.7 z m 2.8,0 c -0.2,-0.2 -0.2,-0.6 0,-0.9 l 0.3,-0.3 c 0.2,-0.2 0.6,-0.2 0.9,0 l 1.6,1.7 c 0.2,0.2 0.2,0.6 0,0.9 l -0.3,0.3 c -0.2,0.2 -0.6,0.2 -0.9,0 l -1.6,-1.7 z m 3,0 c -0.2,-0.2 -0.2,-0.6 0,-0.9 l 0.3,-0.3 c 0.2,-0.2 0.6,-0.2 0.9,0 l 1.6,1.7 c 0.2,0.2 0.2,0.6 0,0.9 l -0.3,0.3 c -0.2,0.2 -0.6,0.2 -0.9,0 l -1.6,-1.7 z m 2.8,0 c -0.2,-0.2 -0.2,-0.6 0,-0.9 l 0.3,-0.3 c 0.2,-0.2 0.6,-0.2 0.9,0 l 1.6,1.7 c 0.2,0.2 0.2,0.6 0,0.9 l -0.2,0.2 c -0.2,0.2 -0.6,0.2 -0.9,0 l -1.7,-1.6 z m 2.8,0 c -0.2,-0.2 -0.2,-0.6 0,-0.9 l 0.3,-0.3 c 0.2,-0.2 0.6,-0.2 0.9,0 l 1.6,1.7 c 0.2,0.2 0.2,0.6 0,0.9 l -0.3,0.3 c -0.2,0.2 -0.6,0.2 -0.9,0 l -1.6,-1.7 z m 3,0 c -0.2,-0.2 -0.2,-0.6 0,-0.9 l 0.3,-0.3 c 0.2,-0.2 0.6,-0.2 0.9,0 l 1.6,1.7 c 0.2,0.2 0.2,0.6 0,0.9 l -0.3,0.3 c -0.2,0.2 -0.6,0.2 -0.9,0 l -1.6,-1.7 z m -3,-3.8 0.3,-0.3 c 0.2,-0.2 0.6,-0.2 0.9,0 l 1.6,1.7 c 0.2,0.2 0.2,0.6 0,0.9 l -0.3,0.3 c -0.2,0.2 -0.6,0.2 -0.9,0 l -1.7,-1.7 c -0.1,-0.3 -0.1,-0.7 0.1,-0.9 z m -2.8,0 0.3,-0.3 c 0.2,-0.2 0.6,-0.2 0.9,0 l 1.7,1.7 c 0.2,0.2 0.2,0.6 0,0.9 l -0.3,0.2 c -0.2,0.2 -0.6,0.2 -0.9,0 l -1.7,-1.7 c -0.2,-0.2 -0.2,-0.6 0,-0.8 z m -2.8,0 0.3,-0.3 c 0.2,-0.2 0.6,-0.2 0.9,0 l 1.7,1.7 c 0.2,0.2 0.2,0.6 0,0.9 l -0.3,0.3 c -0.2,0.2 -0.6,0.2 -0.9,0 l -1.7,-1.7 c -0.3,-0.3 -0.3,-0.7 0,-0.9 z m -3,0 0.3,-0.3 c 0.2,-0.2 0.6,-0.2 0.9,0 l 1.7,1.7 c 0.2,0.2 0.2,0.6 0,0.9 l -0.3,0.3 c -0.2,0.2 -0.6,0.2 -0.9,0 l -1.7,-1.7 c -0.2,-0.3 -0.2,-0.7 0,-0.9 z m -2.8,0 0.3,-0.3 c 0.2,-0.2 0.6,-0.2 0.9,0 l 1.7,1.7 c 0.2,0.2 0.2,0.6 0,0.9 l -0.3,0.3 c -0.2,0.2 -0.6,0.2 -0.9,0 l -1.7,-1.7 c -0.2,-0.3 -0.2,-0.7 0,-0.9 z m -2.8,0 0.3,-0.3 c 0.2,-0.2 0.6,-0.2 0.9,0 l 1.7,1.7 c 0.2,0.2 0.2,0.6 0,0.9 l -0.3,0.3 c -0.2,0.2 -0.6,0.2 -0.9,0 l -1.7,-1.8 c -0.3,-0.2 -0.3,-0.6 0,-0.8 z m -3,0 0.3,-0.3 c 0.2,-0.2 0.6,-0.2 0.9,0 l 1.7,1.7 c 0.2,0.2 0.2,0.6 0,0.9 l -0.3,0.3 c -0.2,0.2 -0.6,0.2 -0.9,0 l -1.7,-1.8 c -0.2,-0.2 -0.2,-0.6 0,-0.8 z m -2.7,0 0.3,-0.3 c 0.2,-0.2 0.6,-0.2 0.9,0 l 1.7,1.7 c 0.2,0.2 0.2,0.6 0,0.9 l -0.3,0.3 c -0.2,0.2 -0.6,0.2 -0.9,0 l -1.7,-1.7 c -0.3,-0.3 -0.3,-0.7 0,-0.9 z m -2.9,0 0.3,-0.3 c 0.2,-0.2 0.6,-0.2 0.9,0 l 1.7,1.7 c 0.2,0.2 0.2,0.6 0,0.9 l -0.3,0.3 c -0.2,0.2 -0.6,0.2 -0.9,0 l -1.7,-1.7 c -0.3,-0.3 -0.3,-0.7 0,-0.9 z m -3,0 0.3,-0.3 c 0.2,-0.2 0.6,-0.2 0.9,0 l 1.7,1.7 c 0.2,0.2 0.2,0.6 0,0.9 l -0.3,0.2 c -0.2,0.2 -0.6,0.2 -0.9,0 l -1.7,-1.7 c -0.2,-0.2 -0.2,-0.6 0,-0.8 z m -2.7,0 0.3,-0.3 c 0.2,-0.2 0.6,-0.2 0.9,0 l 1.7,1.7 c 0.2,0.2 0.2,0.6 0,0.9 l -0.4,0.2 c -0.2,0.2 -0.6,0.2 -0.9,0 l -1.6,-1.7 c -0.3,-0.2 -0.3,-0.6 0,-0.8 z m 0,3.8 c -0.2,-0.2 -0.2,-0.6 0,-0.9 l 0.3,-0.3 c 0.2,-0.2 0.6,-0.2 0.9,0 l 1.6,1.7 c 0.2,0.2 0.2,0.6 0,0.9 l -0.3,0.3 c -0.2,0.2 -0.6,0.2 -0.9,0 l -1.6,-1.7 z m -0.9,87.8 0,-5.5 5.5,5.5 -5.5,0 z m 6.5,-86.4 -0.3,0.2 c -0.2,0.2 -0.6,0.2 -0.9,0 l -1.7,-1.6 c -0.2,-0.2 -0.2,-0.6 0,-0.9 l 0.3,-0.3 c 0.2,-0.2 0.6,-0.2 0.9,0 l 1.7,1.7 c 0.2,0.3 0.2,0.6 0,0.9 z m 1.8,0.2 -1.7,-1.7 c -0.2,-0.2 -0.2,-0.6 0,-0.9 l 0.3,-0.3 c 0.2,-0.2 0.6,-0.2 0.9,0 l 1.6,1.8 c 0.2,0.2 0.2,0.6 0,0.9 l -0.3,0.3 c -0.2,0.2 -0.6,0.2 -0.8,-0.1 z m 1.7,59.9 c -0.5,-0.1 -0.9,-0.6 -0.8,-1.1 0.1,-0.5 0.6,-0.9 1.1,-0.8 0.5,0.1 0.9,0.6 0.8,1.1 0,0.5 -0.5,0.8 -1.1,0.8 z m 1,-3.4 c -0.3,0.4 -1,0.5 -1.4,0.2 -0.4,-0.3 -0.5,-1 -0.2,-1.4 0.3,-0.4 1,-0.5 1.4,-0.2 0.4,0.4 0.5,1 0.2,1.4 z m 0,-2.8 c -0.3,0.4 -1,0.5 -1.4,0.2 -0.4,-0.3 -0.5,-1 -0.2,-1.4 0.3,-0.4 1,-0.5 1.4,-0.2 0.4,0.3 0.5,1 0.2,1.4 z m 1,-53.7 c -0.2,0.2 -0.6,0.2 -0.9,0 l -1.7,-1.7 c -0.2,-0.2 -0.2,-0.6 0,-0.9 l 0.3,-0.3 c 0.2,-0.2 0.6,-0.2 0.9,0 l 1.7,1.8 c 0.2,0.2 0.2,0.6 0,0.9 l -0.3,0.2 z m 3.4,85.2 -0.2,0.3 c -0.2,0.2 -0.6,0.2 -0.9,0 l -1.7,-1.7 c -0.2,-0.2 -0.2,-0.6 0,-0.9 l 0.3,-0.3 c 0.2,-0.2 0.6,-0.2 0.9,0 l 1.7,1.7 c 0.2,0.3 0.2,0.7 -0.1,0.9 z m -2.8,-5.2 0.3,-0.3 c 0.2,-0.2 0.6,-0.2 0.9,0 l 1.7,1.7 c 0.2,0.2 0.2,0.6 0,0.9 l -0.3,0.3 c -0.2,0.2 -0.6,0.2 -0.9,0 l -1.7,-1.7 c -0.2,-0.3 -0.2,-0.6 0,-0.9 z m 5.6,5.2 -0.3,0.3 c -0.2,0.2 -0.6,0.2 -0.9,0 l -1.7,-1.7 c -0.2,-0.2 -0.2,-0.6 0,-0.9 l 0.3,-0.3 c 0.2,-0.2 0.6,-0.2 0.9,0 l 1.7,1.7 c 0.3,0.3 0.3,0.7 0,0.9 z m 0,-2.9 -0.3,0.3 c -0.2,0.2 -0.6,0.2 -0.9,0 l -1.6,-1.7 c -0.2,-0.2 -0.2,-0.6 0,-0.9 l 0.3,-0.3 c 0.2,-0.2 0.6,-0.2 0.9,0 l 1.7,1.7 c 0.2,0.3 0.2,0.7 -0.1,0.9 z m 44,2.9 -0.3,0.3 c -0.2,0.2 -0.6,0.2 -0.9,0 l -1.7,-1.7 c -0.2,-0.2 -0.2,-0.6 0,-0.9 l 0.3,-0.3 c 0.2,-0.2 0.6,-0.2 0.9,0 l 1.7,1.7 c 0.2,0.3 0.2,0.7 0,0.9 z m 11.4,-3.8 c 0.2,0.2 0.2,0.6 0,0.9 l -0.3,0.3 c -0.2,0.2 -0.6,0.2 -0.9,0 l -1.7,-1.7 c -0.2,-0.2 -0.2,-0.6 0,-0.9 l 0.3,-0.3 c 0.2,-0.2 0.6,-0.2 0.9,0 l 1.7,1.7 z m 0.1,-1.4 0.3,-0.3 c 0.2,-0.2 0.6,-0.2 0.9,0 l 1.7,1.7 c 0.2,0.2 0.2,0.6 0,0.9 l -0.4,0.3 c -0.2,0.2 -0.6,0.2 -0.9,0 l -1.6,-1.7 c -0.3,-0.3 -0.3,-0.6 0,-0.9 z m -2.9,1.4 c 0.2,0.2 0.2,0.6 0,0.9 l -0.3,0.3 c -0.2,0.2 -0.6,0.2 -0.9,0 l -1.6,-1.7 c -0.2,-0.2 -0.2,-0.6 0,-0.9 l 0.3,-0.3 c 0.2,-0.2 0.6,-0.2 0.9,0 l 1.6,1.7 z m -2.9,0 c 0.2,0.2 0.2,0.6 0,0.9 l -0.3,0.3 c -0.2,0.2 -0.6,0.2 -0.9,0 l -1.6,-1.7 c -0.2,-0.2 -0.2,-0.6 0,-0.9 l 0.3,-0.3 c 0.2,-0.2 0.6,-0.2 0.9,0 l 1.6,1.7 z m -2.9,0 c 0.2,0.2 0.2,0.6 0,0.9 l -0.3,0.3 c -0.2,0.2 -0.6,0.2 -0.9,0 l -1.6,-1.7 c -0.2,-0.2 -0.2,-0.6 0,-0.9 l 0.3,-0.3 c 0.2,-0.2 0.6,-0.2 0.9,0 l 1.6,1.7 z m -2.8,0 c 0.2,0.2 0.2,0.6 0,0.9 l -0.3,0.3 c -0.2,0.2 -0.6,0.2 -0.9,0 l -1.6,-1.7 c -0.2,-0.2 -0.2,-0.6 0,-0.9 l 0.3,-0.3 c 0.2,-0.2 0.6,-0.2 0.9,0 l 1.6,1.7 z m 2.8,3.8 -0.3,0.3 c -0.2,0.2 -0.6,0.2 -0.9,0 l -1.6,-1.7 c -0.2,-0.2 -0.2,-0.6 0,-0.9 l 0.3,-0.3 c 0.2,-0.2 0.6,-0.2 0.9,0 l 1.7,1.7 c 0.1,0.3 0.1,0.7 -0.1,0.9 z m 2.9,0 -0.3,0.3 c -0.2,0.2 -0.6,0.2 -0.9,0 l -1.7,-1.7 c -0.2,-0.2 -0.2,-0.6 0,-0.9 l 0.3,-0.3 c 0.2,-0.2 0.6,-0.2 0.9,0 l 1.7,1.7 c 0.2,0.3 0.2,0.7 0,0.9 z m 2.9,0 -0.3,0.3 c -0.2,0.2 -0.6,0.2 -0.9,0 l -1.7,-1.7 c -0.2,-0.2 -0.2,-0.6 0,-0.9 l 0.3,-0.3 c 0.2,-0.2 0.6,-0.2 0.9,0 l 1.7,1.7 c 0.2,0.3 0.2,0.7 0,0.9 z m 2.8,0 -0.3,0.3 c -0.2,0.2 -0.6,0.2 -0.9,0 l -1.7,-1.7 c -0.2,-0.2 -0.2,-0.6 0,-0.9 l 0.3,-0.3 c 0.2,-0.2 0.6,-0.2 0.9,0 l 1.7,1.7 c 0.2,0.3 0.2,0.7 0,0.9 z m 2.9,0 -0.3,0.3 c -0.2,0.2 -0.6,0.2 -0.9,0 l -1.7,-1.7 c -0.2,-0.2 -0.2,-0.6 0,-0.9 l 0.3,-0.3 c 0.2,-0.2 0.6,-0.2 0.9,0 l 1.7,1.7 c 0.2,0.3 0.2,0.7 0,0.9 z m 2.9,0 -0.3,0.3 c -0.2,0.2 -0.6,0.2 -0.9,0 l -1.7,-1.7 c -0.2,-0.2 -0.2,-0.6 0,-0.9 l 0.3,-0.3 c 0.2,-0.2 0.6,-0.2 0.9,0 l 1.7,1.7 c 0.2,0.3 0.2,0.7 0,0.9 z m 0,-2.9 -0.3,0.3 c -0.2,0.2 -0.6,0.2 -0.9,0 l -1.7,-1.7 c -0.2,-0.2 -0.2,-0.6 0,-0.9 l 0.3,-0.3 c 0.2,-0.2 0.6,-0.2 0.9,0 l 1.7,1.7 c 0.2,0.3 0.2,0.7 0,0.9 z m 0.8,-64.4 0,44 0,0.8 c 0,6.2 -5,11.2 -11.2,11.2 l -0.8,0 -44,0 -0.8,0 c -6.2,0 -11.2,-5 -11.2,-11.2 l 0,-0.8 0,-44 0,-0.8 c 0,-6.2 5,-11.2 11.2,-11.2 l 0.8,0 44,0 0.8,0 c 6.2,0 11.2,5 11.2,11.2 l 0,0.8 z m 0.9,-22.7 c -0.3,-0.5 -0.1,-1.1 0.4,-1.4 0.5,-0.3 1.1,-0.1 1.4,0.4 0.3,0.5 0.1,1.1 -0.4,1.4 -0.5,0.3 -1.1,0.1 -1.4,-0.4 z m 2.3,36 c 0,0.3 -0.3,0.6 -0.6,0.6 l -0.3,0 c -0.3,0 -0.6,-0.3 -0.6,-0.6 l 0,-5 c 0,-0.3 0.3,-0.6 0.6,-0.6 l 0.3,0 c 0.3,0 0.6,0.3 0.6,0.6 l 0,5 z m 0,-7.8 c 0,0.3 -0.3,0.6 -0.6,0.6 l -0.3,0 c -0.3,0 -0.6,-0.3 -0.6,-0.6 l 0,-5 c 0,-0.3 0.3,-0.6 0.6,-0.6 l 0.3,0 c 0.3,0 0.6,0.3 0.6,0.6 l 0,5 z m 1.5,-27.8 c -0.5,0.3 -1.1,0.1 -1.4,-0.4 -0.3,-0.5 -0.1,-1.1 0.4,-1.4 0.5,-0.3 1.1,-0.1 1.4,0.4 0.2,0.5 0.1,1.1 -0.4,1.4 z m 1.9,-1.8 5.5,0 0,5.5 -5.5,-5.5 z"
             id="path13731" />
          <path
             style="fill:#000000"
             inkscape:connector-curvature="0"
             d="m 304.83854,1032.8657 0,-45.6 c 0,-4.7 -3.8,-8.5 -8.5,-8.5 l -45.6,0 c -4.7,0 -8.5,3.8 -8.5,8.5 l 0,45.6 c 0,4.7 3.8,8.5 8.5,8.5 l 45.6,0 c 4.7,0 8.5,-3.8 8.5,-8.5 z m -11.4,5 -39.8,0 -0.5,0 c -4.1,0 -7.4,-3.3 -7.4,-7.4 l 0,-0.5 0,-39.8 0,-0.5 c 0,-4.1 3.3,-7.4 7.4,-7.4 l 0.5,0 39.8,0 0.5,0 c 4.1,0 7.4,3.3 7.4,7.4 l 0,0.5 0,39.8 0,0.5 c 0,4.1 -3.3,7.4 -7.4,7.4 l -0.5,0 z"
             id="path13733" />
        </g>
        <g
           id="g13725"
           transform="matrix(0.84656085,0,0,0.84656085,106.27502,168.07562)"
           style="fill:#cccccc">
          <path
             id="path11179"
             d="m 319.93854,978.6657 c 0.5,-0.2 0.7,-0.8 0.7,-1.3 l 0,-14.4 -94.2,0 0,14.4 c 0,0.5 0.3,1.1 0.7,1.3 1.2,0.6 2,2.4 2,4.6 0,2.2 -0.9,4 -2,4.6 -0.4,0.2 -0.7,0.7 -0.7,1.2 l 0,68.1 7,0 c 0.6,0 1.1,-0.3 1.4,-0.9 0.3,-0.9 1.2,-1.5 2.2,-1.5 1,0 1.8,0.6 2.2,1.5 0.2,0.5 0.8,0.9 1.4,0.9 l 66.3,0 c 0.6,0 1.1,-0.3 1.4,-0.9 0.3,-0.9 1.2,-1.5 2.2,-1.5 1,0 1.8,0.6 2.2,1.5 0.2,0.5 0.8,0.9 1.4,0.9 l 6.8,0 0,-68.1 c 0,-0.5 -0.3,-1.1 -0.7,-1.3 -1.2,-0.6 -2,-2.4 -2,-4.6 -0.4,-2.1 0.5,-4 1.7,-4.5 z m -60.2,-13.9 0.3,-0.3 c 0.2,-0.2 0.6,-0.2 0.9,0 l 1.6,1.7 c 0.2,0.2 0.2,0.6 0,0.9 l -0.3,0.3 c -0.2,0.2 -0.6,0.2 -0.9,0 l -1.7,-1.7 c -0.2,-0.3 -0.2,-0.7 0.1,-0.9 z m -17.2,3.8 c -0.2,-0.2 -0.2,-0.6 0,-0.9 l 0.3,-0.3 c 0.2,-0.2 0.6,-0.2 0.9,0 l 1.6,1.7 c 0.2,0.2 0.2,0.6 0,0.9 l -0.3,0.3 c -0.2,0.2 -0.6,0.2 -0.9,0 l -1.6,-1.7 z m -0.2,1.4 -0.3,0.3 c -0.2,0.2 -0.6,0.2 -0.9,0 l -1.6,-1.7 c -0.2,-0.2 -0.2,-0.6 0,-0.9 l 0.3,-0.3 c 0.2,-0.2 0.6,-0.2 0.9,0 l 1.6,1.7 c 0.3,0.3 0.3,0.6 0,0.9 z m 3,-1.4 c -0.2,-0.2 -0.2,-0.6 0,-0.9 l 0.3,-0.3 c 0.2,-0.2 0.6,-0.2 0.9,0 l 1.7,1.7 c 0.2,0.2 0.2,0.6 0,0.9 l -0.3,0.3 c -0.2,0.2 -0.6,0.2 -0.9,0 l -1.7,-1.7 z m 2.8,0 c -0.2,-0.2 -0.2,-0.6 0,-0.9 l 0.3,-0.3 c 0.2,-0.2 0.6,-0.2 0.9,0 l 1.6,1.7 c 0.2,0.2 0.2,0.6 0,0.9 l -0.3,0.3 c -0.2,0.2 -0.6,0.2 -0.9,0 l -1.6,-1.7 z m 3,0 c -0.2,-0.2 -0.2,-0.6 0,-0.9 l 0.3,-0.3 c 0.2,-0.2 0.6,-0.2 0.9,0 l 1.6,1.7 c 0.2,0.2 0.2,0.6 0,0.9 l -0.3,0.3 c -0.2,0.2 -0.6,0.2 -0.9,0 l -1.6,-1.7 z m 2.8,0 c -0.2,-0.2 -0.2,-0.6 0,-0.9 l 0.3,-0.3 c 0.2,-0.2 0.6,-0.2 0.9,0 l 1.6,1.7 c 0.2,0.2 0.2,0.6 0,0.9 l -0.2,0.2 c -0.2,0.2 -0.6,0.2 -0.9,0 l -1.7,-1.6 z m 2.8,0 c -0.2,-0.2 -0.2,-0.6 0,-0.9 l 0.3,-0.3 c 0.2,-0.2 0.6,-0.2 0.9,0 l 1.6,1.7 c 0.2,0.2 0.2,0.6 0,0.9 l -0.3,0.3 c -0.2,0.2 -0.6,0.2 -0.9,0 l -1.6,-1.7 z m 3,0 c -0.2,-0.2 -0.2,-0.6 0,-0.9 l 0.3,-0.3 c 0.2,-0.2 0.6,-0.2 0.9,0 l 1.6,1.7 c 0.2,0.2 0.2,0.6 0,0.9 l -0.3,0.3 c -0.2,0.2 -0.6,0.2 -0.9,0 l -1.6,-1.7 z m -3,-3.8 0.3,-0.3 c 0.2,-0.2 0.6,-0.2 0.9,0 l 1.6,1.7 c 0.2,0.2 0.2,0.6 0,0.9 l -0.3,0.3 c -0.2,0.2 -0.6,0.2 -0.9,0 l -1.7,-1.7 c -0.1,-0.3 -0.1,-0.7 0.1,-0.9 z m -2.8,0 0.3,-0.3 c 0.2,-0.2 0.6,-0.2 0.9,0 l 1.7,1.7 c 0.2,0.2 0.2,0.6 0,0.9 l -0.3,0.2 c -0.2,0.2 -0.6,0.2 -0.9,0 l -1.7,-1.7 c -0.2,-0.2 -0.2,-0.6 0,-0.8 z m -2.8,0 0.3,-0.3 c 0.2,-0.2 0.6,-0.2 0.9,0 l 1.7,1.7 c 0.2,0.2 0.2,0.6 0,0.9 l -0.3,0.3 c -0.2,0.2 -0.6,0.2 -0.9,0 l -1.7,-1.7 c -0.3,-0.3 -0.3,-0.7 0,-0.9 z m -3,0 0.3,-0.3 c 0.2,-0.2 0.6,-0.2 0.9,0 l 1.7,1.7 c 0.2,0.2 0.2,0.6 0,0.9 l -0.3,0.3 c -0.2,0.2 -0.6,0.2 -0.9,0 l -1.7,-1.7 c -0.2,-0.3 -0.2,-0.7 0,-0.9 z m -2.8,0 0.3,-0.3 c 0.2,-0.2 0.6,-0.2 0.9,0 l 1.7,1.7 c 0.2,0.2 0.2,0.6 0,0.9 l -0.3,0.3 c -0.2,0.2 -0.6,0.2 -0.9,0 l -1.7,-1.7 c -0.2,-0.3 -0.2,-0.7 0,-0.9 z m -2.8,0 0.3,-0.3 c 0.2,-0.2 0.6,-0.2 0.9,0 l 1.7,1.7 c 0.2,0.2 0.2,0.6 0,0.9 l -0.3,0.3 c -0.2,0.2 -0.6,0.2 -0.9,0 l -1.7,-1.8 c -0.3,-0.2 -0.3,-0.6 0,-0.8 z m -3,0 0.3,-0.3 c 0.2,-0.2 0.6,-0.2 0.9,0 l 1.7,1.7 c 0.2,0.2 0.2,0.6 0,0.9 l -0.3,0.3 c -0.2,0.2 -0.6,0.2 -0.9,0 l -1.7,-1.8 c -0.2,-0.2 -0.2,-0.6 0,-0.8 z m -2.7,0 0.3,-0.3 c 0.2,-0.2 0.6,-0.2 0.9,0 l 1.7,1.7 c 0.2,0.2 0.2,0.6 0,0.9 l -0.3,0.3 c -0.2,0.2 -0.6,0.2 -0.9,0 l -1.7,-1.7 c -0.3,-0.3 -0.3,-0.7 0,-0.9 z m -2.9,0 0.3,-0.3 c 0.2,-0.2 0.6,-0.2 0.9,0 l 1.7,1.7 c 0.2,0.2 0.2,0.6 0,0.9 l -0.3,0.3 c -0.2,0.2 -0.6,0.2 -0.9,0 l -1.7,-1.7 c -0.3,-0.3 -0.3,-0.7 0,-0.9 z m -3,0 0.3,-0.3 c 0.2,-0.2 0.6,-0.2 0.9,0 l 1.7,1.7 c 0.2,0.2 0.2,0.6 0,0.9 l -0.3,0.2 c -0.2,0.2 -0.6,0.2 -0.9,0 l -1.7,-1.7 c -0.2,-0.2 -0.2,-0.6 0,-0.8 z m -2.7,0 0.3,-0.3 c 0.2,-0.2 0.6,-0.2 0.9,0 l 1.7,1.7 c 0.2,0.2 0.2,0.6 0,0.9 l -0.4,0.2 c -0.2,0.2 -0.6,0.2 -0.9,0 l -1.6,-1.7 c -0.3,-0.2 -0.3,-0.6 0,-0.8 z m 0,3.8 c -0.2,-0.2 -0.2,-0.6 0,-0.9 l 0.3,-0.3 c 0.2,-0.2 0.6,-0.2 0.9,0 l 1.6,1.7 c 0.2,0.2 0.2,0.6 0,0.9 l -0.3,0.3 c -0.2,0.2 -0.6,0.2 -0.9,0 l -1.6,-1.7 z m -0.9,87.8 0,-5.5 5.5,5.5 -5.5,0 z m 6.5,-86.4 -0.3,0.2 c -0.2,0.2 -0.6,0.2 -0.9,0 l -1.7,-1.6 c -0.2,-0.2 -0.2,-0.6 0,-0.9 l 0.3,-0.3 c 0.2,-0.2 0.6,-0.2 0.9,0 l 1.7,1.7 c 0.2,0.3 0.2,0.6 0,0.9 z m 1.8,0.2 -1.7,-1.7 c -0.2,-0.2 -0.2,-0.6 0,-0.9 l 0.3,-0.3 c 0.2,-0.2 0.6,-0.2 0.9,0 l 1.6,1.8 c 0.2,0.2 0.2,0.6 0,0.9 l -0.3,0.3 c -0.2,0.2 -0.6,0.2 -0.8,-0.1 z m 1.7,59.9 c -0.5,-0.1 -0.9,-0.6 -0.8,-1.1 0.1,-0.5 0.6,-0.9 1.1,-0.8 0.5,0.1 0.9,0.6 0.8,1.1 0,0.5 -0.5,0.8 -1.1,0.8 z m 1,-3.4 c -0.3,0.4 -1,0.5 -1.4,0.2 -0.4,-0.3 -0.5,-1 -0.2,-1.4 0.3,-0.4 1,-0.5 1.4,-0.2 0.4,0.4 0.5,1 0.2,1.4 z m 0,-2.8 c -0.3,0.4 -1,0.5 -1.4,0.2 -0.4,-0.3 -0.5,-1 -0.2,-1.4 0.3,-0.4 1,-0.5 1.4,-0.2 0.4,0.3 0.5,1 0.2,1.4 z m 1,-53.7 c -0.2,0.2 -0.6,0.2 -0.9,0 l -1.7,-1.7 c -0.2,-0.2 -0.2,-0.6 0,-0.9 l 0.3,-0.3 c 0.2,-0.2 0.6,-0.2 0.9,0 l 1.7,1.8 c 0.2,0.2 0.2,0.6 0,0.9 l -0.3,0.2 z m 3.4,85.2 -0.2,0.3 c -0.2,0.2 -0.6,0.2 -0.9,0 l -1.7,-1.7 c -0.2,-0.2 -0.2,-0.6 0,-0.9 l 0.3,-0.3 c 0.2,-0.2 0.6,-0.2 0.9,0 l 1.7,1.7 c 0.2,0.3 0.2,0.7 -0.1,0.9 z m -2.8,-5.2 0.3,-0.3 c 0.2,-0.2 0.6,-0.2 0.9,0 l 1.7,1.7 c 0.2,0.2 0.2,0.6 0,0.9 l -0.3,0.3 c -0.2,0.2 -0.6,0.2 -0.9,0 l -1.7,-1.7 c -0.2,-0.3 -0.2,-0.6 0,-0.9 z m 5.6,5.2 -0.3,0.3 c -0.2,0.2 -0.6,0.2 -0.9,0 l -1.7,-1.7 c -0.2,-0.2 -0.2,-0.6 0,-0.9 l 0.3,-0.3 c 0.2,-0.2 0.6,-0.2 0.9,0 l 1.7,1.7 c 0.3,0.3 0.3,0.7 0,0.9 z m 0,-2.9 -0.3,0.3 c -0.2,0.2 -0.6,0.2 -0.9,0 l -1.6,-1.7 c -0.2,-0.2 -0.2,-0.6 0,-0.9 l 0.3,-0.3 c 0.2,-0.2 0.6,-0.2 0.9,0 l 1.7,1.7 c 0.2,0.3 0.2,0.7 -0.1,0.9 z m 44,2.9 -0.3,0.3 c -0.2,0.2 -0.6,0.2 -0.9,0 l -1.7,-1.7 c -0.2,-0.2 -0.2,-0.6 0,-0.9 l 0.3,-0.3 c 0.2,-0.2 0.6,-0.2 0.9,0 l 1.7,1.7 c 0.2,0.3 0.2,0.7 0,0.9 z m 11.4,-3.8 c 0.2,0.2 0.2,0.6 0,0.9 l -0.3,0.3 c -0.2,0.2 -0.6,0.2 -0.9,0 l -1.7,-1.7 c -0.2,-0.2 -0.2,-0.6 0,-0.9 l 0.3,-0.3 c 0.2,-0.2 0.6,-0.2 0.9,0 l 1.7,1.7 z m 0.1,-1.4 0.3,-0.3 c 0.2,-0.2 0.6,-0.2 0.9,0 l 1.7,1.7 c 0.2,0.2 0.2,0.6 0,0.9 l -0.4,0.3 c -0.2,0.2 -0.6,0.2 -0.9,0 l -1.6,-1.7 c -0.3,-0.3 -0.3,-0.6 0,-0.9 z m -2.9,1.4 c 0.2,0.2 0.2,0.6 0,0.9 l -0.3,0.3 c -0.2,0.2 -0.6,0.2 -0.9,0 l -1.6,-1.7 c -0.2,-0.2 -0.2,-0.6 0,-0.9 l 0.3,-0.3 c 0.2,-0.2 0.6,-0.2 0.9,0 l 1.6,1.7 z m -2.9,0 c 0.2,0.2 0.2,0.6 0,0.9 l -0.3,0.3 c -0.2,0.2 -0.6,0.2 -0.9,0 l -1.6,-1.7 c -0.2,-0.2 -0.2,-0.6 0,-0.9 l 0.3,-0.3 c 0.2,-0.2 0.6,-0.2 0.9,0 l 1.6,1.7 z m -2.9,0 c 0.2,0.2 0.2,0.6 0,0.9 l -0.3,0.3 c -0.2,0.2 -0.6,0.2 -0.9,0 l -1.6,-1.7 c -0.2,-0.2 -0.2,-0.6 0,-0.9 l 0.3,-0.3 c 0.2,-0.2 0.6,-0.2 0.9,0 l 1.6,1.7 z m -2.8,0 c 0.2,0.2 0.2,0.6 0,0.9 l -0.3,0.3 c -0.2,0.2 -0.6,0.2 -0.9,0 l -1.6,-1.7 c -0.2,-0.2 -0.2,-0.6 0,-0.9 l 0.3,-0.3 c 0.2,-0.2 0.6,-0.2 0.9,0 l 1.6,1.7 z m 2.8,3.8 -0.3,0.3 c -0.2,0.2 -0.6,0.2 -0.9,0 l -1.6,-1.7 c -0.2,-0.2 -0.2,-0.6 0,-0.9 l 0.3,-0.3 c 0.2,-0.2 0.6,-0.2 0.9,0 l 1.7,1.7 c 0.1,0.3 0.1,0.7 -0.1,0.9 z m 2.9,0 -0.3,0.3 c -0.2,0.2 -0.6,0.2 -0.9,0 l -1.7,-1.7 c -0.2,-0.2 -0.2,-0.6 0,-0.9 l 0.3,-0.3 c 0.2,-0.2 0.6,-0.2 0.9,0 l 1.7,1.7 c 0.2,0.3 0.2,0.7 0,0.9 z m 2.9,0 -0.3,0.3 c -0.2,0.2 -0.6,0.2 -0.9,0 l -1.7,-1.7 c -0.2,-0.2 -0.2,-0.6 0,-0.9 l 0.3,-0.3 c 0.2,-0.2 0.6,-0.2 0.9,0 l 1.7,1.7 c 0.2,0.3 0.2,0.7 0,0.9 z m 2.8,0 -0.3,0.3 c -0.2,0.2 -0.6,0.2 -0.9,0 l -1.7,-1.7 c -0.2,-0.2 -0.2,-0.6 0,-0.9 l 0.3,-0.3 c 0.2,-0.2 0.6,-0.2 0.9,0 l 1.7,1.7 c 0.2,0.3 0.2,0.7 0,0.9 z m 2.9,0 -0.3,0.3 c -0.2,0.2 -0.6,0.2 -0.9,0 l -1.7,-1.7 c -0.2,-0.2 -0.2,-0.6 0,-0.9 l 0.3,-0.3 c 0.2,-0.2 0.6,-0.2 0.9,0 l 1.7,1.7 c 0.2,0.3 0.2,0.7 0,0.9 z m 2.9,0 -0.3,0.3 c -0.2,0.2 -0.6,0.2 -0.9,0 l -1.7,-1.7 c -0.2,-0.2 -0.2,-0.6 0,-0.9 l 0.3,-0.3 c 0.2,-0.2 0.6,-0.2 0.9,0 l 1.7,1.7 c 0.2,0.3 0.2,0.7 0,0.9 z m 0,-2.9 -0.3,0.3 c -0.2,0.2 -0.6,0.2 -0.9,0 l -1.7,-1.7 c -0.2,-0.2 -0.2,-0.6 0,-0.9 l 0.3,-0.3 c 0.2,-0.2 0.6,-0.2 0.9,0 l 1.7,1.7 c 0.2,0.3 0.2,0.7 0,0.9 z m 0.8,-64.4 0,44 0,0.8 c 0,6.2 -5,11.2 -11.2,11.2 l -0.8,0 -44,0 -0.8,0 c -6.2,0 -11.2,-5 -11.2,-11.2 l 0,-0.8 0,-44 0,-0.8 c 0,-6.2 5,-11.2 11.2,-11.2 l 0.8,0 44,0 0.8,0 c 6.2,0 11.2,5 11.2,11.2 l 0,0.8 z m 0.9,-22.7 c -0.3,-0.5 -0.1,-1.1 0.4,-1.4 0.5,-0.3 1.1,-0.1 1.4,0.4 0.3,0.5 0.1,1.1 -0.4,1.4 -0.5,0.3 -1.1,0.1 -1.4,-0.4 z m 2.3,36 c 0,0.3 -0.3,0.6 -0.6,0.6 l -0.3,0 c -0.3,0 -0.6,-0.3 -0.6,-0.6 l 0,-5 c 0,-0.3 0.3,-0.6 0.6,-0.6 l 0.3,0 c 0.3,0 0.6,0.3 0.6,0.6 l 0,5 z m 0,-7.8 c 0,0.3 -0.3,0.6 -0.6,0.6 l -0.3,0 c -0.3,0 -0.6,-0.3 -0.6,-0.6 l 0,-5 c 0,-0.3 0.3,-0.6 0.6,-0.6 l 0.3,0 c 0.3,0 0.6,0.3 0.6,0.6 l 0,5 z m 1.5,-27.8 c -0.5,0.3 -1.1,0.1 -1.4,-0.4 -0.3,-0.5 -0.1,-1.1 0.4,-1.4 0.5,-0.3 1.1,-0.1 1.4,0.4 0.2,0.5 0.1,1.1 -0.4,1.4 z m 1.9,-1.8 5.5,0 0,5.5 -5.5,-5.5 z"
             inkscape:connector-curvature="0"
             style="fill:#cccccc" />
          <path
             id="path11181"
             d="m 304.83854,1032.8657 0,-45.6 c 0,-4.7 -3.8,-8.5 -8.5,-8.5 l -45.6,0 c -4.7,0 -8.5,3.8 -8.5,8.5 l 0,45.6 c 0,4.7 3.8,8.5 8.5,8.5 l 45.6,0 c 4.7,0 8.5,-3.8 8.5,-8.5 z m -11.4,5 -39.8,0 -0.5,0 c -4.1,0 -7.4,-3.3 -7.4,-7.4 l 0,-0.5 0,-39.8 0,-0.5 c 0,-4.1 3.3,-7.4 7.4,-7.4 l 0.5,0 39.8,0 0.5,0 c 4.1,0 7.4,3.3 7.4,7.4 l 0,0.5 0,39.8 0,0.5 c 0,4.1 -3.3,7.4 -7.4,7.4 l -0.5,0 z"
             inkscape:connector-curvature="0"
             style="fill:#cccccc" />
        </g>
      </g>
    </g>
  </g>
</svg>
