<?xml version="1.0" encoding="UTF-8" standalone="no"?>
<!-- Created with Inkscape (http://www.inkscape.org/) -->

<svg
   xmlns:dc="http://purl.org/dc/elements/1.1/"
   xmlns:cc="http://creativecommons.org/ns#"
   xmlns:rdf="http://www.w3.org/1999/02/22-rdf-syntax-ns#"
   xmlns:svg="http://www.w3.org/2000/svg"
   xmlns="http://www.w3.org/2000/svg"
   xmlns:sodipodi="http://sodipodi.sourceforge.net/DTD/sodipodi-0.dtd"
   xmlns:inkscape="http://www.inkscape.org/namespaces/inkscape"
   width="42.333332mm"
   height="42.333332mm"
   viewBox="0 0 149.99999 150"
   id="svg4759"
   version="1.1"
   inkscape:version="0.91 r13725"
   sodipodi:docname="Node-Hacking-black.svg">
  <defs
     id="defs4761">
    <filter
       inkscape:collect="always"
       style="color-interpolation-filters:sRGB"
       id="filter11654"
       x="-0.044034131"
       width="1.0880683"
       y="-0.030445201"
       height="1.0608904">
      <feGaussianBlur
         inkscape:collect="always"
         stdDeviation="0.82563995"
         id="feGaussianBlur11656" />
    </filter>
  </defs>
  <sodipodi:namedview
     id="base"
     pagecolor="#ffffff"
     bordercolor="#666666"
     borderopacity="1.0"
     inkscape:pageopacity="0.0"
     inkscape:pageshadow="2"
     inkscape:zoom="2"
     inkscape:cx="-38.725782"
     inkscape:cy="90.288192"
     inkscape:document-units="px"
     inkscape:current-layer="layer1"
     showgrid="false"
     fit-margin-top="0"
     fit-margin-left="0"
     fit-margin-right="0"
     fit-margin-bottom="0"
     inkscape:window-width="1366"
     inkscape:window-height="713"
     inkscape:window-x="0"
     inkscape:window-y="27"
     inkscape:window-maximized="1"
     showborder="false"
     showguides="true"
     inkscape:guide-bbox="true" />
  <metadata
     id="metadata4764">
    <rdf:RDF>
      <cc:Work
         rdf:about="">
        <dc:format>image/svg+xml</dc:format>
        <dc:type
           rdf:resource="http://purl.org/dc/dcmitype/StillImage" />
        <dc:title />
      </cc:Work>
    </rdf:RDF>
  </metadata>
  <g
     inkscape:label="Layer 1"
     inkscape:groupmode="layer"
     id="layer1"
     transform="translate(-263.37482,-945.53693)">
    <g
       id="g5032"
       inkscape:export-xdpi="90"
       inkscape:export-ydpi="90">
      <rect
         ry="0"
         rx="0"
         style="opacity:1;fill:#333333;fill-opacity:1;stroke:none;stroke-width:6.79094839;stroke-linecap:round;stroke-linejoin:round;stroke-miterlimit:4;stroke-dasharray:none;stroke-dashoffset:0;stroke-opacity:1"
         id="rect5453"
         width="150"
         height="150"
         x="259.47977"
         y="941.85193" />
      <g
         id="g5016">
        <g
           style="fill:#ffffff;filter:url(#filter11654)"
           id="g11606"
           transform="matrix(1.1626754,0,0,1.1626754,-56.927779,-172.55831)">
          <g
             style="fill:#ffffff"
             id="g11608"
             transform="matrix(0.45009902,0,0,0.45009902,314.14387,1010.527)">
            <polygon
               id="polygon11610"
               points="0,25 0,37.5 49.987,12.5 99.978,37.5 99.978,25 49.987,0 "
               style="fill:#ffffff" />
            <path
               id="path11612"
               d="m 74.978,37.5 0,62.5 18.75,0 0,-62.5 -18.75,0 z m 14.583,8.334 -6.25,0 0,4.166 6.25,0 0,4.167 -3.125,0 0,4.167 3.125,0 0,4.166 -6.25,0 0,4.167 6.25,0 0,4.166 -3.125,0 0,4.167 3.125,0 0,4.167 -6.25,0 0,4.166 6.25,0 0,4.167 -3.125,0 0,4.166 3.125,0 0,4.167 -10.416,0 0,-54.166 10.416,0 0,4.167 z"
               inkscape:connector-curvature="0"
               style="fill:#ffffff" />
            <path
               id="path11614"
               d="m 41.111,48.539 c -5.442,-7.942 -12.465,-9.623 -17.427,-9.623 -3.235,0 -5.497,0.741 -5.593,0.773 -0.307,0.102 -0.586,0.276 -0.814,0.505 l -1.473,1.473 -1.221,0 c 0,-1.151 -0.932,-2.083 -2.083,-2.083 l -4.167,0 c -1.151,0 -2.083,0.932 -2.083,2.083 l 0,6.25 C 6.25,49.068 7.182,50 8.333,50 l 4.167,0 c 1.151,0 2.083,-0.932 2.083,-2.083 l 2.083,0 0,14.245 -1.975,5.929 c -0.071,0.212 -0.108,0.436 -0.108,0.659 l 0,29.166 c 0,1.152 0.932,2.084 2.083,2.084 L 25,100 c 1.151,0 2.083,-0.932 2.083,-2.084 l 0,-29.166 c 0,-0.224 -0.037,-0.447 -0.108,-0.659 L 25,62.162 25,49.149 c 0.903,-0.386 1.961,-0.581 3.158,-0.581 4.905,0 10.302,3.186 10.355,3.218 0.325,0.195 0.684,0.289 1.043,0.293 1.17,0.094 2.15,-0.907 2.15,-2.079 10e-4,-0.569 -0.227,-1.086 -0.595,-1.461 z"
               inkscape:connector-curvature="0"
               style="fill:#ffffff" />
            <path
               id="path11616"
               d="m 58.26,60.588 c 1.029,-1.677 1.978,-3.805 1.994,-6.092 0.014,-2.233 -0.86,-4.301 -2.531,-5.969 -0.539,-0.541 -1.2,-1.082 -1.904,-1.652 -2.256,-1.822 -3.735,-3.174 -3.735,-5.208 0,-2.689 2.569,-5.867 3.558,-6.864 0.81,-0.813 0.808,-2.132 -0.006,-2.946 -0.816,-0.81 -2.13,-0.81 -2.942,0.004 -0.488,0.488 -4.777,4.916 -4.777,9.807 0,4.175 3.052,6.645 5.281,8.447 0.58,0.472 1.133,0.911 1.579,1.359 0.887,0.887 1.314,1.863 1.31,2.982 -0.012,2.254 -1.737,4.703 -2.838,5.969 -7.212,0.11 -13.666,1.624 -13.666,10.408 l 0,8.334 c 0,10.241 5.455,20.833 14.583,20.833 9.473,0 14.583,-10.734 14.583,-20.833 l 0,-8.334 C 68.75,63.367 64.088,61.153 58.26,60.588 Z m 6.323,10.245 0,2.084 -8.333,0 0,-8.289 c 7.053,0.302 8.333,2.246 8.333,6.205 z m -12.5,-6.205 0,8.289 -8.333,0 0,-2.084 c 0,-3.959 1.279,-5.903 8.333,-6.205 z m 2.084,31.205 c -6.433,0 -10.417,-8.65 -10.417,-16.666 l 0,-2.084 20.833,0 0,2.084 c 0,6.921 -3.231,16.666 -10.416,16.666 z"
               inkscape:connector-curvature="0"
               style="fill:#ffffff" />
          </g>
          <path
             style="fill:#ffffff"
             id="path11618"
             d="m 338.15881,999.862 c 0.83742,0.8374 0.83742,2.1962 0,3.0315 -0.83742,0.8374 -2.19404,0.8374 -3.03145,0 -0.83742,-0.8353 -0.83742,-2.1941 0,-3.0315 0.83741,-0.8374 2.19403,-0.8374 3.03145,0 z m 3.03145,-3.03143 c -0.41871,-0.41871 -1.09701,-0.41871 -1.51573,0 -0.4187,0.41871 -0.4187,1.09704 0,1.51573 0.81023,0.8081 1.25614,1.8863 1.25614,3.0315 0,1.1452 -0.44591,2.2212 -1.25614,3.0314 -0.4187,0.4187 -0.4187,1.097 0,1.5157 0.20936,0.2094 0.48363,0.3141 0.75791,0.3141 0.27426,0 0.54853,-0.1047 0.75789,-0.3141 1.21419,-1.2142 1.88412,-2.8284 1.88412,-4.5471 0,-1.7188 -0.66993,-3.333 -1.88419,-4.54723 z m 3.03353,-3.03351 c -0.4187,-0.41871 -1.09701,-0.41871 -1.51572,0 -0.41871,0.41871 -0.41871,1.097 0,1.51571 3.34337,3.34343 3.34337,8.78453 0,12.12793 -0.41871,0.4187 -0.41871,1.097 0,1.5157 0.20935,0.2094 0.48362,0.3141 0.7579,0.3141 0.27427,0 0.54854,-0.1047 0.75789,-0.3141 4.17865,-4.1787 4.17865,-10.97854 -7e-5,-15.15934 z m 3.03145,-3.03146 c -0.4187,-0.4187 -1.09701,-0.4187 -1.51572,0 -0.4187,0.4187 -0.4187,1.097 0,1.51574 5.01406,5.01404 5.01406,13.17686 0,18.19296 -0.4187,0.4187 -0.4187,1.097 0,1.5157 0.20935,0.2094 0.48363,0.3141 0.7579,0.3141 0.27427,0 0.54854,-0.1047 0.75789,-0.3141 5.85142,-5.8536 5.85142,-15.37291 -7e-5,-21.2244 z m -13.64361,6.06497 c -0.41871,-0.41871 -1.09702,-0.41871 -1.51572,0 -1.21426,1.21423 -1.8842,2.82843 -1.8842,4.54723 0,1.7187 0.66994,3.3329 1.8842,4.5471 0.20935,0.2094 0.48362,0.3141 0.75789,0.3141 0.27427,0 0.54854,-0.1047 0.7579,-0.3141 0.4187,-0.4187 0.4187,-1.097 0,-1.5157 -0.81029,-0.8102 -1.2562,-1.8862 -1.2562,-3.0314 0,-1.1452 0.44591,-2.2234 1.25613,-3.0315 0.4187,-0.41869 0.4187,-1.09702 0,-1.51573 z m -3.03353,-1.5178 c 0.41871,-0.41871 0.41871,-1.097 0,-1.51571 -0.41871,-0.41871 -1.09702,-0.41871 -1.51573,0 -4.17872,4.1808 -4.17872,10.98064 0,15.15934 0.20936,0.2094 0.48362,0.3141 0.7579,0.3141 0.27427,0 0.54854,-0.1047 0.7579,-0.3141 0.4187,-0.4187 0.4187,-1.097 0,-1.5157 -3.34345,-3.3434 -3.34345,-8.7845 -7e-5,-12.12793 z m -3.03145,-3.03143 c 0.4187,-0.41874 0.4187,-1.09704 0,-1.51574 -0.41872,-0.4187 -1.09703,-0.4187 -1.51574,0 -5.84939,5.85149 -5.84939,15.3708 0,21.2244 0.20936,0.2094 0.48363,0.3141 0.7579,0.3141 0.27428,0 0.54854,-0.1047 0.7579,-0.3141 0.41871,-0.4187 0.41871,-1.097 0,-1.5157 -5.01413,-5.0162 -5.01413,-13.17892 -6e-5,-18.19296 z"
             inkscape:connector-curvature="0" />
        </g>
        <g
           id="g11598"
           style="fill:#cccccc"
           transform="matrix(1.1626754,0,0,1.1626754,-56.927779,-172.55831)">
          <g
             transform="matrix(0.45009902,0,0,0.45009902,314.14387,1010.527)"
             id="g7913"
             style="fill:#cccccc">
            <polygon
               style="fill:#cccccc"
               points="49.987,0 0,25 0,37.5 49.987,12.5 99.978,37.5 99.978,25 "
               id="polygon7899" />
            <path
               style="fill:#cccccc"
               inkscape:connector-curvature="0"
               d="m 74.978,37.5 0,62.5 18.75,0 0,-62.5 -18.75,0 z m 14.583,8.334 -6.25,0 0,4.166 6.25,0 0,4.167 -3.125,0 0,4.167 3.125,0 0,4.166 -6.25,0 0,4.167 6.25,0 0,4.166 -3.125,0 0,4.167 3.125,0 0,4.167 -6.25,0 0,4.166 6.25,0 0,4.167 -3.125,0 0,4.166 3.125,0 0,4.167 -10.416,0 0,-54.166 10.416,0 0,4.167 z"
               id="path7901" />
            <path
               style="fill:#cccccc"
               inkscape:connector-curvature="0"
               d="m 41.111,48.539 c -5.442,-7.942 -12.465,-9.623 -17.427,-9.623 -3.235,0 -5.497,0.741 -5.593,0.773 -0.307,0.102 -0.586,0.276 -0.814,0.505 l -1.473,1.473 -1.221,0 c 0,-1.151 -0.932,-2.083 -2.083,-2.083 l -4.167,0 c -1.151,0 -2.083,0.932 -2.083,2.083 l 0,6.25 C 6.25,49.068 7.182,50 8.333,50 l 4.167,0 c 1.151,0 2.083,-0.932 2.083,-2.083 l 2.083,0 0,14.245 -1.975,5.929 c -0.071,0.212 -0.108,0.436 -0.108,0.659 l 0,29.166 c 0,1.152 0.932,2.084 2.083,2.084 L 25,100 c 1.151,0 2.083,-0.932 2.083,-2.084 l 0,-29.166 c 0,-0.224 -0.037,-0.447 -0.108,-0.659 L 25,62.162 25,49.149 c 0.903,-0.386 1.961,-0.581 3.158,-0.581 4.905,0 10.302,3.186 10.355,3.218 0.325,0.195 0.684,0.289 1.043,0.293 1.17,0.094 2.15,-0.907 2.15,-2.079 10e-4,-0.569 -0.227,-1.086 -0.595,-1.461 z"
               id="path7903" />
            <path
               style="fill:#cccccc"
               inkscape:connector-curvature="0"
               d="m 58.26,60.588 c 1.029,-1.677 1.978,-3.805 1.994,-6.092 0.014,-2.233 -0.86,-4.301 -2.531,-5.969 -0.539,-0.541 -1.2,-1.082 -1.904,-1.652 -2.256,-1.822 -3.735,-3.174 -3.735,-5.208 0,-2.689 2.569,-5.867 3.558,-6.864 0.81,-0.813 0.808,-2.132 -0.006,-2.946 -0.816,-0.81 -2.13,-0.81 -2.942,0.004 -0.488,0.488 -4.777,4.916 -4.777,9.807 0,4.175 3.052,6.645 5.281,8.447 0.58,0.472 1.133,0.911 1.579,1.359 0.887,0.887 1.314,1.863 1.31,2.982 -0.012,2.254 -1.737,4.703 -2.838,5.969 -7.212,0.11 -13.666,1.624 -13.666,10.408 l 0,8.334 c 0,10.241 5.455,20.833 14.583,20.833 9.473,0 14.583,-10.734 14.583,-20.833 l 0,-8.334 C 68.75,63.367 64.088,61.153 58.26,60.588 Z m 6.323,10.245 0,2.084 -8.333,0 0,-8.289 c 7.053,0.302 8.333,2.246 8.333,6.205 z m -12.5,-6.205 0,8.289 -8.333,0 0,-2.084 c 0,-3.959 1.279,-5.903 8.333,-6.205 z m 2.084,31.205 c -6.433,0 -10.417,-8.65 -10.417,-16.666 l 0,-2.084 20.833,0 0,2.084 c 0,6.921 -3.231,16.666 -10.416,16.666 z"
               id="path7905" />
          </g>
          <path
             inkscape:connector-curvature="0"
             d="m 338.15881,999.862 c 0.83742,0.8374 0.83742,2.1962 0,3.0315 -0.83742,0.8374 -2.19404,0.8374 -3.03145,0 -0.83742,-0.8353 -0.83742,-2.1941 0,-3.0315 0.83741,-0.8374 2.19403,-0.8374 3.03145,0 z m 3.03145,-3.03143 c -0.41871,-0.41871 -1.09701,-0.41871 -1.51573,0 -0.4187,0.41871 -0.4187,1.09704 0,1.51573 0.81023,0.8081 1.25614,1.8863 1.25614,3.0315 0,1.1452 -0.44591,2.2212 -1.25614,3.0314 -0.4187,0.4187 -0.4187,1.097 0,1.5157 0.20936,0.2094 0.48363,0.3141 0.75791,0.3141 0.27426,0 0.54853,-0.1047 0.75789,-0.3141 1.21419,-1.2142 1.88412,-2.8284 1.88412,-4.5471 0,-1.7188 -0.66993,-3.333 -1.88419,-4.54723 z m 3.03353,-3.03351 c -0.4187,-0.41871 -1.09701,-0.41871 -1.51572,0 -0.41871,0.41871 -0.41871,1.097 0,1.51571 3.34337,3.34343 3.34337,8.78453 0,12.12793 -0.41871,0.4187 -0.41871,1.097 0,1.5157 0.20935,0.2094 0.48362,0.3141 0.7579,0.3141 0.27427,0 0.54854,-0.1047 0.75789,-0.3141 4.17865,-4.1787 4.17865,-10.97854 -7e-5,-15.15934 z m 3.03145,-3.03146 c -0.4187,-0.4187 -1.09701,-0.4187 -1.51572,0 -0.4187,0.4187 -0.4187,1.097 0,1.51574 5.01406,5.01404 5.01406,13.17686 0,18.19296 -0.4187,0.4187 -0.4187,1.097 0,1.5157 0.20935,0.2094 0.48363,0.3141 0.7579,0.3141 0.27427,0 0.54854,-0.1047 0.75789,-0.3141 5.85142,-5.8536 5.85142,-15.37291 -7e-5,-21.2244 z m -13.64361,6.06497 c -0.41871,-0.41871 -1.09702,-0.41871 -1.51572,0 -1.21426,1.21423 -1.8842,2.82843 -1.8842,4.54723 0,1.7187 0.66994,3.3329 1.8842,4.5471 0.20935,0.2094 0.48362,0.3141 0.75789,0.3141 0.27427,0 0.54854,-0.1047 0.7579,-0.3141 0.4187,-0.4187 0.4187,-1.097 0,-1.5157 -0.81029,-0.8102 -1.2562,-1.8862 -1.2562,-3.0314 0,-1.1452 0.44591,-2.2234 1.25613,-3.0315 0.4187,-0.41869 0.4187,-1.09702 0,-1.51573 z m -3.03353,-1.5178 c 0.41871,-0.41871 0.41871,-1.097 0,-1.51571 -0.41871,-0.41871 -1.09702,-0.41871 -1.51573,0 -4.17872,4.1808 -4.17872,10.98064 0,15.15934 0.20936,0.2094 0.48362,0.3141 0.7579,0.3141 0.27427,0 0.54854,-0.1047 0.7579,-0.3141 0.4187,-0.4187 0.4187,-1.097 0,-1.5157 -3.34345,-3.3434 -3.34345,-8.7845 -7e-5,-12.12793 z m -3.03145,-3.03143 c 0.4187,-0.41874 0.4187,-1.09704 0,-1.51574 -0.41872,-0.4187 -1.09703,-0.4187 -1.51574,0 -5.84939,5.85149 -5.84939,15.3708 0,21.2244 0.20936,0.2094 0.48363,0.3141 0.7579,0.3141 0.27428,0 0.54854,-0.1047 0.7579,-0.3141 0.41871,-0.4187 0.41871,-1.097 0,-1.5157 -5.01413,-5.0162 -5.01413,-13.17892 -6e-5,-18.19296 z"
             id="path10239"
             style="fill:#cccccc" />
        </g>
      </g>
    </g>
  </g>
</svg>
