<?xml version="1.0" encoding="UTF-8" standalone="no"?>
<!-- Created with Inkscape (http://www.inkscape.org/) -->

<svg
   xmlns:dc="http://purl.org/dc/elements/1.1/"
   xmlns:cc="http://creativecommons.org/ns#"
   xmlns:rdf="http://www.w3.org/1999/02/22-rdf-syntax-ns#"
   xmlns:svg="http://www.w3.org/2000/svg"
   xmlns="http://www.w3.org/2000/svg"
   xmlns:sodipodi="http://sodipodi.sourceforge.net/DTD/sodipodi-0.dtd"
   xmlns:inkscape="http://www.inkscape.org/namespaces/inkscape"
   width="42.333332mm"
   height="42.333332mm"
   viewBox="0 0 149.99999 150"
   id="svg4759"
   version="1.1"
   inkscape:version="0.92.2 (5c3e80d, 2017-08-06)"
   sodipodi:docname="Pirates.svg">
  <defs
     id="defs4761">
    <filter
       inkscape:collect="always"
       style="color-interpolation-filters:sRGB"
       id="filter4048"
       x="-0.047366545"
       width="1.0947331"
       y="-0.08182378"
       height="1.1636476">
      <feGaussianBlur
         inkscape:collect="always"
         stdDeviation="1.8634636"
         id="feGaussianBlur4050" />
    </filter>
  </defs>
  <sodipodi:namedview
     id="base"
     pagecolor="#ffffff"
     bordercolor="#666666"
     borderopacity="1.0"
     inkscape:pageopacity="0.0"
     inkscape:pageshadow="2"
     inkscape:zoom="2.9599431"
     inkscape:cx="50.881965"
     inkscape:cy="68.609145"
     inkscape:document-units="px"
     inkscape:current-layer="layer1"
     showgrid="false"
     fit-margin-top="0"
     fit-margin-left="0"
     fit-margin-right="0"
     fit-margin-bottom="0"
     inkscape:window-width="1366"
     inkscape:window-height="768"
     inkscape:window-x="0"
     inkscape:window-y="0"
     inkscape:window-maximized="0"
     showborder="false" />
  <metadata
     id="metadata4764">
    <rdf:RDF>
      <cc:Work
         rdf:about="">
        <dc:format>image/svg+xml</dc:format>
        <dc:type
           rdf:resource="http://purl.org/dc/dcmitype/StillImage" />
        <dc:title></dc:title>
      </cc:Work>
    </rdf:RDF>
  </metadata>
  <g
     inkscape:label="Layer 1"
     inkscape:groupmode="layer"
     id="layer1"
     transform="translate(-263.37482,-945.53693)">
    <g
       id="g4171"
       inkscape:export-xdpi="96"
       inkscape:export-ydpi="96">
      <rect
         ry="0"
         rx="0"
         style="opacity:1;fill:#333333;fill-opacity:1;stroke:none;stroke-width:8.48868561;stroke-linecap:round;stroke-linejoin:round;stroke-miterlimit:4;stroke-dasharray:none;stroke-dashoffset:0;stroke-opacity:1"
         id="rect5453"
         width="150"
         height="150"
         x="263.37482"
         y="945.53693" />
      <g
         style="filter:url(#filter4048)"
         id="g3210"
         transform="translate(5.2785119)">
        <path
           id="path3188"
           d="m 335.05931,1020.9929 c 4.45505,4.8727 10.85919,7.9355 17.95943,7.9355 13.39299,0 24.30787,-10.9148 24.30787,-24.3078 0,-13.39303 -10.91488,-24.3079 -24.30787,-24.3079 -7.10024,0 -13.50438,3.06285 -17.95943,7.93556 3.42482,4.56643 5.45744,10.21877 5.45744,16.37234 0,6.1257 -2.03262,11.8059 -5.45744,16.3723 z"
           inkscape:connector-curvature="0"
           style="fill:none;stroke-width:0.27844068" />
        <path
           id="path3190"
           d="m 352.99089,977.30554 c -7.85203,0 -14.92442,3.31344 -19.90851,8.60382 0.69611,0.72394 1.33652,1.50358 1.94909,2.31105 4.45505,-4.87271 10.85918,-7.93555 17.95942,-7.93555 13.393,0 24.30787,10.91487 24.30787,24.30784 0,13.393 -10.91487,24.3079 -24.30787,24.3079 -7.10024,0 -13.50437,-3.0629 -17.95942,-7.9356 -0.61257,0.8075 -1.25298,1.5871 -1.94909,2.3111 4.98409,5.2904 12.05648,8.6038 19.90851,8.6038 15.09149,0 27.31503,-12.2235 27.31503,-27.315 0,-15.03581 -12.22354,-27.25936 -27.31503,-27.25936 z"
           inkscape:connector-curvature="0"
           style="fill:#669933;stroke-width:0.27844068" />
        <path
           id="path3192"
           d="m 337.50959,1004.6206 c 0,5.179 -1.6428,9.996 -4.39936,13.9498 0.58472,0.8632 1.25298,1.6707 1.94908,2.4225 3.42482,-4.5664 5.45744,-10.2188 5.45744,-16.3723 0,-6.15357 -2.03262,-11.80591 -5.45744,-16.37234 -0.6961,0.77963 -1.33651,1.58711 -1.94908,2.42243 2.7844,3.95386 4.39936,8.74304 4.39936,13.94991 z"
           inkscape:connector-curvature="0"
           style="fill:#ff9933;stroke-width:0.27844068" />
        <path
           id="path3194"
           d="m 313.20172,1028.9284 c -13.393,0 -24.30787,-10.9148 -24.30787,-24.3078 0,-13.39303 10.91487,-24.3079 24.30787,-24.3079 7.10024,0 13.50437,3.06285 17.95942,7.93556 0.61257,-0.80748 1.25299,-1.58711 1.94909,-2.31106 -4.98409,-5.29037 -12.05648,-8.60382 -19.90851,-8.60382 -15.09148,0 -27.31503,12.22355 -27.31503,27.31502 0,15.0915 12.22355,27.315 27.31503,27.315 7.85203,0 14.92442,-3.3134 19.90851,-8.6038 -0.6961,-0.7239 -1.33652,-1.5036 -1.94909,-2.311 -4.45505,4.817 -10.85918,7.8798 -17.95942,7.8798 z"
           inkscape:connector-curvature="0"
           style="fill:#ff9933;stroke-width:0.27844068" />
        <path
           id="path3196"
           d="m 333.11023,1018.5704 c -0.58473,0.8632 -1.25298,1.6707 -1.94909,2.4225 0.61257,0.8075 1.25299,1.5871 1.94909,2.311 0.6961,-0.7239 1.33651,-1.5035 1.94908,-2.311 -0.6961,-0.7797 -1.36436,-1.5871 -1.94908,-2.4225 z"
           inkscape:connector-curvature="0"
           style="fill:#ff9933;stroke-width:0.27844068" />
        <path
           id="path3198"
           d="m 333.11023,990.67069 c 0.58472,-0.86316 1.25298,-1.67064 1.94908,-2.42243 -0.61257,-0.80748 -1.25298,-1.58711 -1.94908,-2.31106 -0.6961,0.72395 -1.33652,1.50358 -1.94909,2.31106 0.69611,0.75179 1.33652,1.55927 1.94909,2.42243 z"
           inkscape:connector-curvature="0"
           style="fill:#ff9933;stroke-width:0.27844068" />
        <g
           transform="matrix(0.27844067,0,0,0.27844067,252.47381,929.85925)"
           id="g3204">
          <rect
             id="rect3200"
             height="106.8"
             width="8.6999998"
             y="197.39999"
             x="328.5"
             style="fill:#669933" />
          <path
             id="path3202"
             d="m 337.5,290.5 c 8.5,-7.2 25,-13.8 28.1,-28.3 6.1,-29.1 -12.2,-41.8 -28.1,-44.9 -2.1,-0.5 -6.5,-1.2 -8.7,-1.3 -3.7,-0.4 -6.8,0 -8.8,0.6 -0.6,-1.2 2.8,-3.2 8.8,-4.9 2.5,-0.8 6.4,-1.7 8.7,-2.2 31.4,-7.2 94.3,-6.9 94.6,47.5 0.2,38.4 -67.9,32.5 -87.6,45 -21.5,13.5 -11.8,42.1 -11.8,42.1 0,0 -15.3,-28.2 -3.9,-44.3 1.5,-2.8 6.1,-7.4 8.7,-9.3 z"
             inkscape:connector-curvature="0"
             style="fill:#669933" />
        </g>
        <g
           transform="matrix(0.27844067,0,0,0.27844067,252.47381,929.85925)"
           id="g3208">
          <path
             id="path3206"
             d="m 269.4,283.5 c 0,0 -1,-3.6 -2.2,1.1 -1.2,4.7 -6.4,14.1 -13.3,17 -7,2.9 4,2.6 5.7,2.2 1.7,-0.5 1.7,1.8 -2.9,5.7 -4.5,3.9 -16.6,11.9 -24.6,6.6 0,0 -5.2,-2.6 -5.3,-10.6 -0.1,-8 -0.5,-67 -0.5,-67 h 7.7 c 0,0 2.2,1.8 5.2,-1 2.9,-2.8 8.4,-1.6 10.3,-2 1.9,-0.4 3.7,-10.6 -0.5,-11.2 -4.2,-0.6 -8.2,-1.8 -8.8,-2.1 -0.6,-0.3 -3.8,-2.1 -6,-1 h -8.5 v -5.3 c 3.9,-2.7 6.5,-7.2 6.5,-12.3 0,-8.2 -6.6,-14.8 -14.8,-14.8 -8.2,0 -14.8,6.6 -14.8,14.8 0,5.6 3.2,10.5 7.8,13 v 4.5 h -8.2 c -2.3,-1.1 -5.7,0.7 -6.2,1.1 -0.6,0.3 -4.6,1.5 -8.8,2.1 -4.2,0.6 -2.4,10.8 -0.5,11.2 1.9,0.4 7.4,-0.8 10.3,2 2.9,2.8 5.2,1 5.2,1 h 7.7 c 0,0 -0.5,59 -0.5,67 0,8 -5.3,10.6 -5.3,10.6 -8,5.3 -20.1,-2.7 -24.6,-6.6 -4.5,-3.9 -4.5,-6.1 -2.9,-5.7 1.7,0.5 12.7,0.7 5.7,-2.2 -7,-2.9 -12.2,-12.3 -13.4,-17 -1.2,-4.7 -2.2,-1.1 -2.2,-1.1 -3.4,8 -3.1,17.6 -0.8,25.5 2.3,7.9 3.6,3.5 4.4,1.3 0.8,-2.2 1.5,-1.5 1.5,-1.5 2.2,8.1 15.7,20.3 27.3,24.8 11.6,4.5 18.9,14.4 18.9,14.4 0,0 7.4,-9.9 18.9,-14.4 11.6,-4.5 25.2,-16.8 27.3,-24.8 0,0 0.7,-0.7 1.4,1.5 0.8,2.2 2.1,6.6 4.4,-1.3 2.5,-7.9 2.8,-17.4 -0.6,-25.5 z m -52,-70.7 c -5.1,0 -9.2,-4.1 -9.2,-9.2 0,-5.1 4.1,-9.2 9.2,-9.2 5.1,0 9.2,4.1 9.2,9.2 0,5.1 -4.1,9.2 -9.2,9.2 z"
             inkscape:connector-curvature="0"
             style="fill:#ff9933" />
        </g>
      </g>
      <g
         transform="matrix(0.24583062,0,0,0.24583062,263.81439,972.52089)"
         id="g3092">
        <path
           id="path3066"
           d="m 78.6,426.4 v 4.9 c 0,1.1 -0.4,1.8 -1.8,1.8 H 59.1 c -1.4,0 -1.8,-0.7 -1.8,-1.8 v -4.9 c 0,-1.1 0.4,-1.8 1.8,-1.8 H 63 v -23.8 h -3.8 c -1.4,0 -1.8,-0.7 -1.8,-1.8 v -5 c 0,-1.1 0.4,-1.8 1.8,-1.8 h 17.3 c 1.4,0 1.8,0.7 1.8,1.8 v 5 c 0,1.1 -0.4,1.8 -1.8,1.8 h -3.7 v 23.8 h 3.9 c 1.5,0 1.9,0.7 1.9,1.8 z"
           inkscape:connector-curvature="0"
           style="fill:#ff9933" />
        <path
           id="path3068"
           d="m 119.8,394 v 37.3 c 0,1.1 -0.4,1.8 -1.8,1.8 h -5.7 c -1.6,0 -2,-0.9 -2.8,-2.1 L 96.3,409.7 v 21.7 c 0,1.4 -0.7,1.8 -1.8,1.8 h -6.2 c -1.1,0 -1.8,-0.4 -1.8,-1.8 V 394 c 0,-1.1 0.4,-1.8 1.8,-1.8 h 5.9 c 1.6,0 2,0.9 2.8,2.1 l 13.2,21.3 V 394 c 0,-1.4 0.7,-1.8 1.8,-1.8 h 6 c 1.1,0 1.8,0.4 1.8,1.8 z"
           inkscape:connector-curvature="0"
           style="fill:#ff9933" />
        <path
           id="path3070"
           d="m 161.5,406.2 v 12.9 c 0,9.8 -9.3,14 -16.7,14 h -13.9 c -1.4,0 -1.8,-0.7 -1.8,-1.8 V 394 c 0,-1.1 0.4,-1.8 1.8,-1.8 h 13.9 c 7.4,0 16.7,4.3 16.7,14 z m -9.8,0.9 c 0,-3.9 -2.9,-6.2 -7,-6.2 h -6 v 23.7 h 6 c 4.1,0 7,-2.2 7,-6.2 z"
           inkscape:connector-curvature="0"
           style="fill:#ff9933" />
        <path
           id="path3072"
           d="m 189.1,426.4 v 4.9 c 0,1.1 -0.4,1.8 -1.8,1.8 h -17.6 c -1.4,0 -1.8,-0.7 -1.8,-1.8 v -4.9 c 0,-1.1 0.4,-1.8 1.8,-1.8 h 3.9 v -23.8 h -3.8 c -1.4,0 -1.8,-0.7 -1.8,-1.8 v -5 c 0,-1.1 0.4,-1.8 1.8,-1.8 h 17.3 c 1.4,0 1.8,0.7 1.8,1.8 v 5 c 0,1.1 -0.4,1.8 -1.8,1.8 h -3.7 v 23.8 h 3.9 c 1.4,0 1.8,0.7 1.8,1.8 z"
           inkscape:connector-curvature="0"
           style="fill:#ff9933" />
        <path
           id="path3074"
           d="m 231.3,433.2 h -6.5 c -1.4,0 -1.9,-0.4 -2.4,-1.9 l -1.7,-4.9 h -15.2 l -1.7,4.9 c -0.5,1.5 -1,1.9 -2.4,1.9 h -6.5 c -1.4,0 -1.4,-1 -1.1,-1.7 l 13.8,-37.3 c 0.5,-1.3 1.2,-1.9 2.6,-1.9 h 6 c 1.4,0 2,0.6 2.6,1.9 l 13.8,37.3 c 0.1,0.7 0.1,1.7 -1.3,1.7 z m -13.6,-15.5 -4.7,-13.8 -4.7,13.8 z"
           inkscape:connector-curvature="0"
           style="fill:#ff9933" />
        <path
           id="path3076"
           d="m 271.1,394 v 37.3 c 0,1.1 -0.4,1.8 -1.8,1.8 h -5.7 c -1.6,0 -2,-0.9 -2.8,-2.1 l -13.2,-21.3 v 21.7 c 0,1.4 -0.7,1.8 -1.8,1.8 h -6.2 c -1.1,0 -1.8,-0.4 -1.8,-1.8 V 394 c 0,-1.1 0.4,-1.8 1.8,-1.8 h 5.9 c 1.6,0 2,0.9 2.8,2.1 l 13.2,21.3 V 394 c 0,-1.4 0.7,-1.8 1.8,-1.8 h 6 c 1.1,0 1.8,0.4 1.8,1.8 z"
           inkscape:connector-curvature="0"
           style="fill:#ff9933" />
        <path
           id="path3078"
           d="m 329.3,406.7 c 0,8.7 -5.7,14.4 -16.4,14.4 h -6 v 10.3 c 0,1.4 -0.7,1.8 -1.8,1.8 H 299 c -1.1,0 -1.8,-0.4 -1.8,-1.8 V 394 c 0,-1.1 0.4,-1.8 1.8,-1.8 h 14 c 10.7,0 16.3,5.9 16.3,14.5 z m -9.4,0.1 c 0,-3.2 -2.1,-5.9 -7,-5.9 h -6 v 11.6 h 6 c 4.9,0.1 7,-2.5 7,-5.7 z"
           inkscape:connector-curvature="0"
           style="fill:#669933" />
        <path
           id="path3080"
           d="m 355.9,426.4 v 4.9 c 0,1.1 -0.4,1.8 -1.8,1.8 h -17.6 c -1.4,0 -1.8,-0.7 -1.8,-1.8 v -4.9 c 0,-1.1 0.4,-1.8 1.8,-1.8 h 3.9 v -23.8 h -3.8 c -1.4,0 -1.8,-0.7 -1.8,-1.8 v -5 c 0,-1.1 0.4,-1.8 1.8,-1.8 h 17.3 c 1.4,0 1.8,0.7 1.8,1.8 v 5 c 0,1.1 -0.4,1.8 -1.8,1.8 h -3.7 v 23.8 h 3.9 c 1.4,0 1.8,0.7 1.8,1.8 z"
           inkscape:connector-curvature="0"
           style="fill:#669933" />
        <path
           id="path3082"
           d="m 396.5,433.2 h -7.3 c -1.5,0 -2.2,-0.6 -3.1,-1.9 l -6.7,-10 c -0.6,-0.7 -0.7,-1.4 -0.7,-3.2 v -5 c 0,-1.1 0.4,-1.8 1.8,-1.8 h 1.2 c 3,0 5.9,-2.1 5.9,-5 0,-3.2 -2.5,-5.3 -5.7,-5.3 h -8.3 v 30.4 c 0,1.4 -0.7,1.8 -1.8,1.8 h -6.2 c -1.1,0 -1.7,-0.4 -1.7,-1.8 v -37.3 c 0,-1.1 0.3,-1.8 1.7,-1.8 h 15.7 c 6.8,0 9.8,1.4 12.4,4 2.3,2.2 3.6,5.8 3.6,9.8 0,6.5 -4.8,11.1 -8.7,12.4 l 8.8,12.8 c 0.6,0.7 0.3,1.9 -0.9,1.9 z"
           inkscape:connector-curvature="0"
           style="fill:#669933" />
        <path
           id="path3084"
           d="M 439.5,433.2 H 433 c -1.4,0 -1.9,-0.4 -2.4,-1.9 l -1.7,-4.9 h -15.2 l -1.7,4.9 c -0.5,1.5 -1,1.9 -2.4,1.9 H 403 c -1.4,0 -1.4,-1 -1.1,-1.7 l 13.8,-37.3 c 0.5,-1.3 1.2,-1.9 2.6,-1.9 h 6 c 1.4,0 2,0.6 2.6,1.9 l 13.8,37.3 c 0.2,0.7 0.2,1.7 -1.2,1.7 z m -13.5,-15.5 -4.7,-13.8 -4.7,13.8 z"
           inkscape:connector-curvature="0"
           style="fill:#669933" />
        <path
           id="path3086"
           d="m 473,394 v 5.2 c 0,1.1 -0.4,1.8 -1.8,1.8 h -9.5 v 30.4 c 0,1.4 -0.7,1.8 -1.8,1.8 h -6.2 c -1.1,0 -1.8,-0.4 -1.8,-1.8 V 401 h -9.6 c -1.4,0 -1.8,-0.7 -1.8,-1.8 V 394 c 0,-1.1 0.4,-1.8 1.8,-1.8 h 28.9 c 1.4,0 1.8,0.7 1.8,1.8 z"
           inkscape:connector-curvature="0"
           style="fill:#669933" />
        <path
           id="path3088"
           d="m 510.7,426.3 v 5.1 c 0,1.1 -0.4,1.8 -1.8,1.8 H 481 c -1.4,0 -1.8,-0.7 -1.8,-1.8 V 394 c 0,-1.1 0.4,-1.8 1.8,-1.8 h 26.8 c 1.4,0 1.8,0.7 1.8,1.8 v 5.2 c 0,1.1 -0.4,1.8 -1.8,1.8 H 489 v 6.8 h 16.7 c 1.4,0 1.8,0.7 1.8,1.8 v 4.9 c 0,1.1 -0.4,1.8 -1.8,1.8 H 489 v 8.2 h 19.9 c 1.5,0 1.8,0.6 1.8,1.8 z"
           inkscape:connector-curvature="0"
           style="fill:#669933" />
        <path
           id="path3090"
           d="m 549.3,421 c 0,8.8 -7,13.1 -16.6,13.1 -7.8,0 -16.7,-4.5 -16.7,-13.2 0,-1.4 0.4,-1.7 1.8,-1.7 h 6 c 1.4,0 2.1,0.2 2.2,1.7 0.1,0.8 0.4,1.6 1.2,2.6 1.2,1.5 3.8,2.1 6.1,2.1 3.4,0 6.1,-0.7 6.1,-4.2 0,-3.5 -5.5,-3.5 -10.8,-5.2 -6.3,-2 -12.1,-4.5 -12.1,-12.4 0,-8.1 7.3,-12.1 15.1,-12.4 7.9,0 16.6,3.6 16.6,11.8 0,1.5 -0.4,1.7 -1.8,1.7 h -6.1 c -1.2,0 -1.4,-0.9 -1.7,-1.7 -0.2,-0.6 -0.6,-1.1 -1.3,-1.9 -1.2,-1.1 -3.4,-1.7 -5.3,-1.7 -2.1,0 -5.5,0.8 -5.5,3.6 0,3.8 9.1,5.2 11.6,6.2 4.6,1.4 11.2,3.2 11.2,11.6 z"
           inkscape:connector-curvature="0"
           style="fill:#669933" />
      </g>
      <g
         transform="translate(5.2785119)"
         id="g3186">
        <path
           style="fill:none;stroke-width:0.27844068"
           inkscape:connector-curvature="0"
           d="m 335.05931,1020.9929 c 4.45505,4.8727 10.85919,7.9355 17.95943,7.9355 13.39299,0 24.30787,-10.9148 24.30787,-24.3078 0,-13.39303 -10.91488,-24.3079 -24.30787,-24.3079 -7.10024,0 -13.50438,3.06285 -17.95943,7.93556 3.42482,4.56643 5.45744,10.21877 5.45744,16.37234 0,6.1257 -2.03262,11.8059 -5.45744,16.3723 z"
           id="path3094" />
        <path
           style="fill:#669933;stroke-width:0.27844068"
           inkscape:connector-curvature="0"
           d="m 352.99089,977.30554 c -7.85203,0 -14.92442,3.31344 -19.90851,8.60382 0.69611,0.72394 1.33652,1.50358 1.94909,2.31105 4.45505,-4.87271 10.85918,-7.93555 17.95942,-7.93555 13.393,0 24.30787,10.91487 24.30787,24.30784 0,13.393 -10.91487,24.3079 -24.30787,24.3079 -7.10024,0 -13.50437,-3.0629 -17.95942,-7.9356 -0.61257,0.8075 -1.25298,1.5871 -1.94909,2.3111 4.98409,5.2904 12.05648,8.6038 19.90851,8.6038 15.09149,0 27.31503,-12.2235 27.31503,-27.315 0,-15.03581 -12.22354,-27.25936 -27.31503,-27.25936 z"
           id="path3096" />
        <path
           style="fill:#ff9933;stroke-width:0.27844068"
           inkscape:connector-curvature="0"
           d="m 337.50959,1004.6206 c 0,5.179 -1.6428,9.996 -4.39936,13.9498 0.58472,0.8632 1.25298,1.6707 1.94908,2.4225 3.42482,-4.5664 5.45744,-10.2188 5.45744,-16.3723 0,-6.15357 -2.03262,-11.80591 -5.45744,-16.37234 -0.6961,0.77963 -1.33651,1.58711 -1.94908,2.42243 2.7844,3.95386 4.39936,8.74304 4.39936,13.94991 z"
           id="path3098" />
        <path
           style="fill:#ff9933;stroke-width:0.27844068"
           inkscape:connector-curvature="0"
           d="m 313.20172,1028.9284 c -13.393,0 -24.30787,-10.9148 -24.30787,-24.3078 0,-13.39303 10.91487,-24.3079 24.30787,-24.3079 7.10024,0 13.50437,3.06285 17.95942,7.93556 0.61257,-0.80748 1.25299,-1.58711 1.94909,-2.31106 -4.98409,-5.29037 -12.05648,-8.60382 -19.90851,-8.60382 -15.09148,0 -27.31503,12.22355 -27.31503,27.31502 0,15.0915 12.22355,27.315 27.31503,27.315 7.85203,0 14.92442,-3.3134 19.90851,-8.6038 -0.6961,-0.7239 -1.33652,-1.5036 -1.94909,-2.311 -4.45505,4.817 -10.85918,7.8798 -17.95942,7.8798 z"
           id="path3100" />
        <path
           style="fill:#ff9933;stroke-width:0.27844068"
           inkscape:connector-curvature="0"
           d="m 333.11023,1018.5704 c -0.58473,0.8632 -1.25298,1.6707 -1.94909,2.4225 0.61257,0.8075 1.25299,1.5871 1.94909,2.311 0.6961,-0.7239 1.33651,-1.5035 1.94908,-2.311 -0.6961,-0.7797 -1.36436,-1.5871 -1.94908,-2.4225 z"
           id="path3102" />
        <path
           style="fill:#ff9933;stroke-width:0.27844068"
           inkscape:connector-curvature="0"
           d="m 333.11023,990.67069 c 0.58472,-0.86316 1.25298,-1.67064 1.94908,-2.42243 -0.61257,-0.80748 -1.25298,-1.58711 -1.94908,-2.31106 -0.6961,0.72395 -1.33652,1.50358 -1.94909,2.31106 0.69611,0.75179 1.33652,1.55927 1.94909,2.42243 z"
           id="path3104" />
        <g
           id="g3110"
           transform="matrix(0.27844067,0,0,0.27844067,252.47381,929.85925)">
          <rect
             style="fill:#669933"
             x="328.5"
             y="197.39999"
             width="8.6999998"
             height="106.8"
             id="rect3106" />
          <path
             style="fill:#669933"
             inkscape:connector-curvature="0"
             d="m 337.5,290.5 c 8.5,-7.2 25,-13.8 28.1,-28.3 6.1,-29.1 -12.2,-41.8 -28.1,-44.9 -2.1,-0.5 -6.5,-1.2 -8.7,-1.3 -3.7,-0.4 -6.8,0 -8.8,0.6 -0.6,-1.2 2.8,-3.2 8.8,-4.9 2.5,-0.8 6.4,-1.7 8.7,-2.2 31.4,-7.2 94.3,-6.9 94.6,47.5 0.2,38.4 -67.9,32.5 -87.6,45 -21.5,13.5 -11.8,42.1 -11.8,42.1 0,0 -15.3,-28.2 -3.9,-44.3 1.5,-2.8 6.1,-7.4 8.7,-9.3 z"
             id="path3108" />
        </g>
        <g
           id="g3114"
           transform="matrix(0.27844067,0,0,0.27844067,252.47381,929.85925)">
          <path
             style="fill:#ff9933"
             inkscape:connector-curvature="0"
             d="m 269.4,283.5 c 0,0 -1,-3.6 -2.2,1.1 -1.2,4.7 -6.4,14.1 -13.3,17 -7,2.9 4,2.6 5.7,2.2 1.7,-0.5 1.7,1.8 -2.9,5.7 -4.5,3.9 -16.6,11.9 -24.6,6.6 0,0 -5.2,-2.6 -5.3,-10.6 -0.1,-8 -0.5,-67 -0.5,-67 h 7.7 c 0,0 2.2,1.8 5.2,-1 2.9,-2.8 8.4,-1.6 10.3,-2 1.9,-0.4 3.7,-10.6 -0.5,-11.2 -4.2,-0.6 -8.2,-1.8 -8.8,-2.1 -0.6,-0.3 -3.8,-2.1 -6,-1 h -8.5 v -5.3 c 3.9,-2.7 6.5,-7.2 6.5,-12.3 0,-8.2 -6.6,-14.8 -14.8,-14.8 -8.2,0 -14.8,6.6 -14.8,14.8 0,5.6 3.2,10.5 7.8,13 v 4.5 h -8.2 c -2.3,-1.1 -5.7,0.7 -6.2,1.1 -0.6,0.3 -4.6,1.5 -8.8,2.1 -4.2,0.6 -2.4,10.8 -0.5,11.2 1.9,0.4 7.4,-0.8 10.3,2 2.9,2.8 5.2,1 5.2,1 h 7.7 c 0,0 -0.5,59 -0.5,67 0,8 -5.3,10.6 -5.3,10.6 -8,5.3 -20.1,-2.7 -24.6,-6.6 -4.5,-3.9 -4.5,-6.1 -2.9,-5.7 1.7,0.5 12.7,0.7 5.7,-2.2 -7,-2.9 -12.2,-12.3 -13.4,-17 -1.2,-4.7 -2.2,-1.1 -2.2,-1.1 -3.4,8 -3.1,17.6 -0.8,25.5 2.3,7.9 3.6,3.5 4.4,1.3 0.8,-2.2 1.5,-1.5 1.5,-1.5 2.2,8.1 15.7,20.3 27.3,24.8 11.6,4.5 18.9,14.4 18.9,14.4 0,0 7.4,-9.9 18.9,-14.4 11.6,-4.5 25.2,-16.8 27.3,-24.8 0,0 0.7,-0.7 1.4,1.5 0.8,2.2 2.1,6.6 4.4,-1.3 2.5,-7.9 2.8,-17.4 -0.6,-25.5 z m -52,-70.7 c -5.1,0 -9.2,-4.1 -9.2,-9.2 0,-5.1 4.1,-9.2 9.2,-9.2 5.1,0 9.2,4.1 9.2,9.2 0,5.1 -4.1,9.2 -9.2,9.2 z"
             id="path3112" />
        </g>
      </g>
    </g>
  </g>
</svg>
