<?xml version="1.0" encoding="UTF-8" standalone="no"?>
<!-- Created with Inkscape (http://www.inkscape.org/) -->

<svg
   xmlns:dc="http://purl.org/dc/elements/1.1/"
   xmlns:cc="http://creativecommons.org/ns#"
   xmlns:rdf="http://www.w3.org/1999/02/22-rdf-syntax-ns#"
   xmlns:svg="http://www.w3.org/2000/svg"
   xmlns="http://www.w3.org/2000/svg"
   xmlns:sodipodi="http://sodipodi.sourceforge.net/DTD/sodipodi-0.dtd"
   xmlns:inkscape="http://www.inkscape.org/namespaces/inkscape"
   width="42.333332mm"
   height="42.333332mm"
   viewBox="0 0 150 149.99999"
   id="svg5089"
   version="1.1"
   inkscape:version="0.91 r13725"
   sodipodi:docname="Police-Brutality.svg">
  <defs
     id="defs5091">
    <filter
       inkscape:collect="always"
       style="color-interpolation-filters:sRGB"
       id="filter5328"
       x="-0.073000968"
       width="1.1460019"
       y="-0.050929762"
       height="1.1018595">
      <feGaussianBlur
         inkscape:collect="always"
         stdDeviation="2.4462986"
         id="feGaussianBlur5330" />
    </filter>
  </defs>
  <sodipodi:namedview
     id="base"
     pagecolor="#ffffff"
     bordercolor="#666666"
     borderopacity="1.0"
     inkscape:pageopacity="0.0"
     inkscape:pageshadow="2"
     inkscape:zoom="0.98994949"
     inkscape:cx="17.182754"
     inkscape:cy="-51.620438"
     inkscape:document-units="px"
     inkscape:current-layer="layer1"
     showgrid="false"
     inkscape:window-width="1366"
     inkscape:window-height="713"
     inkscape:window-x="0"
     inkscape:window-y="27"
     inkscape:window-maximized="1"
     fit-margin-top="0"
     fit-margin-left="0"
     fit-margin-right="0"
     fit-margin-bottom="0"
     showborder="false" />
  <metadata
     id="metadata5094">
    <rdf:RDF>
      <cc:Work
         rdf:about="">
        <dc:format>image/svg+xml</dc:format>
        <dc:type
           rdf:resource="http://purl.org/dc/dcmitype/StillImage" />
        <dc:title></dc:title>
      </cc:Work>
    </rdf:RDF>
  </metadata>
  <g
     inkscape:label="Layer 1"
     inkscape:groupmode="layer"
     id="layer1"
     transform="translate(-283.60416,-223.78841)">
    <g
       id="g5336">
      <rect
         ry="0"
         rx="0"
         style="opacity:1;fill:#333333;fill-opacity:1;stroke:none;stroke-width:6.79094839;stroke-linecap:round;stroke-linejoin:round;stroke-miterlimit:4;stroke-dasharray:none;stroke-dashoffset:0;stroke-opacity:1"
         id="rect5453"
         width="150"
         height="150"
         x="283.60416"
         y="223.78841" />
      <g
         transform="matrix(0.92223474,0,0,0.92223474,27.886947,23.235359)"
         id="g5332">
        <path
           style="fill:#ffffff;filter:url(#filter5328)"
           id="path5326"
           d="m 331.27186,356.42776 -12.8803,0 0,-13.65311 c 0,-10.69065 6.31135,-19.44927 16.22919,-20.60848 l 11.59226,18.16122 c 1.67445,2.57606 4.50811,4.1217 7.85698,4.1217 2.96248,0 5.92495,-1.54564 7.59938,-3.9929 0,0 0,0 0,-0.1288 l 12.2363,-18.41883 c 11.72107,0.64401 17.90362,10.81945 17.90362,21.12369 l 0,13.39551 -12.8803,0 0,-9.0162 -4.12171,0 0,9.0162 -39.67133,0 0,-9.0162 -3.86409,0 0,9.0162 z m 35.67844,-55.7717 c -0.25761,-5.02332 -3.47768,-9.40262 -7.98579,-11.20587 -1.54563,-0.64401 -3.34887,-1.03042 -5.15212,-1.03042 -1.80324,0 -3.47768,0.38641 -5.15212,1.03042 -4.63691,1.93205 -7.98579,6.69776 -7.98579,12.10749 0,5.40972 3.34888,10.04663 7.98579,12.10749 1.54564,0.64401 3.34888,1.03042 5.15212,1.03042 1.80325,0 3.47769,-0.38641 5.15212,-1.03042 1.80325,-0.77283 3.47768,-2.06086 4.76572,-3.47769 -0.25761,-0.90162 -0.25761,-1.54564 -0.25761,-2.31846 0,-2.96247 1.28803,-5.53852 3.47768,-7.21296 z m 8.11459,1.80324 c -0.64402,-0.25761 -1.41683,-0.51522 -2.31845,-0.51522 -0.25761,0 -0.64402,0 -0.90163,0.12881 -0.90161,0.1288 -1.67444,0.51521 -2.44726,0.90162 -1.54563,1.03043 -2.57606,2.83367 -2.57606,4.89451 0,2.06085 1.03043,3.8641 2.57606,4.89452 0.64402,0.51521 1.54565,0.77282 2.44726,0.90163 0.25761,0 0.64402,0.1288 0.90163,0.1288 0.77281,0 1.54563,-0.1288 2.31845,-0.51522 2.06084,-0.90162 3.60649,-2.96246 3.60649,-5.40973 0,-2.44725 -1.54565,-4.5081 -3.60649,-5.40972 z m 22.79813,-13.13791 -0.1288,-0.25761 c -0.1288,-0.2576 -0.2576,-0.3864 -0.51521,-0.64401 -0.77282,-0.90162 -1.93205,-1.54564 -3.09127,-1.67444 -0.1288,0 -25.503,-5.79614 -30.13991,-6.82656 -2.31846,1.41683 -4.89452,2.31845 -7.47058,2.70487 -0.77281,0.1288 -1.41683,0.1288 -2.06085,0.1288 -2.57605,0 -5.15211,-0.51522 -7.47057,-1.67444 -0.25761,-0.12881 -0.51521,-0.25761 -0.77282,-0.38641 -2.31845,2.31846 -15.84277,15.45636 -15.84277,15.45636 -2.18965,1.67444 -3.73528,5.66733 -2.18965,8.11459 0.77282,1.15923 5.66734,8.88741 10.56185,16.61559 5.28092,8.2434 10.43304,16.48679 10.43304,16.48679 0.90163,1.54563 2.57606,2.57606 4.89451,2.57606 2.06085,0 3.8641,-1.15923 4.76572,-2.44726 l 11.07706,-16.74439 2.44726,-3.73529 c -2.83368,-0.1288 -5.40973,-1.54564 -7.08417,-3.73529 -2.18965,2.06085 -4.76571,3.47769 -7.85698,4.2505 l -2.31846,3.60649 -0.77282,1.28803 -0.1288,0.1288 0,0 0,0 0,0 0,0 -2.70487,-4.76571 c -7.98579,-1.15923 -14.16832,-7.98579 -14.16832,-16.35798 0,-9.14502 7.47057,-16.48679 16.48678,-16.48679 6.69776,0 12.36509,3.60648 14.94116,9.40262 l 7.85698,0.64402 -3.60649,3.60648 c 4.76571,0.12881 8.62981,3.73529 9.01621,8.37219 0,0 14.94116,-10.30424 15.06996,-10.43304 1.93204,-1.93205 2.31845,-4.89451 0.77281,-7.21297 z m -43.02021,-18.29003 c -5.15211,0 -10.04663,-1.03042 -13.78192,-2.83367 l -0.1288,0 -0.12881,0 0,0 c 0.77283,3.22008 2.57606,6.82657 5.28093,8.75861 0.64401,0.51521 1.41683,0.90162 2.18965,1.28803 1.80325,0.90162 3.86409,1.28803 6.05374,1.28803 3.60649,0 7.98579,-1.93204 10.17544,-4.12169 1.80325,-1.67445 3.09128,-4.25051 3.7353,-6.82657 l -0.12881,0 c -3.60649,1.54564 -8.3722,2.44726 -13.26672,2.44726 z m 11.72108,-6.18254 c 0.2576,-0.1288 0.51521,-0.25761 0.77282,-0.38641 -3.09127,-0.51521 -7.47058,-1.15923 -12.4939,-1.15923 -4.25049,0 -8.50099,0.38641 -12.75149,1.15923 0.1288,0.1288 0.38641,0.25761 0.51521,0.25761 3.09127,1.54563 7.34177,2.44725 12.10748,2.44725 4.63691,0 8.75861,-0.90162 11.84988,-2.31845 z m 7.21297,-17.25961 -19.57806,-6.44015 -18.54764,7.34177 -3.22007,10.56185 c 0,0 2.31846,1.28803 4.50811,2.44726 l 4.5081,-0.77282 c 4.50811,-0.77282 8.88741,-1.15923 13.39551,-1.15923 5.28093,0 9.78904,0.64402 13.13792,1.15923 l 3.86408,0.64402 4.89452,-3.34888 -2.96247,-10.43305 z m -17.77482,8.3722 c -0.2576,0.1288 -0.64401,0.1288 -1.03042,0.2576 -0.25761,0.12881 -0.51522,0.25761 -0.51522,0.25761 0,0 -0.2576,-0.1288 -0.51521,-0.25761 -0.2576,-0.1288 -0.77281,-0.1288 -1.15922,-0.2576 -0.38641,-0.12881 -0.90162,-0.12881 -1.28804,-0.25761 -1.03041,-0.38641 -1.67443,-1.41683 -1.67443,-2.44725 0,-0.64402 0.1288,-1.28803 0.25761,-1.80325 0.2576,-0.90162 0.77281,-2.31845 -0.12881,-3.09127 -0.1288,-0.12881 -0.1288,-0.12881 -0.2576,-0.12881 0,0 0,0 0,0 0,0 1.28802,-1.54562 1.41682,-1.54562 0.77283,0.644 1.80326,0.644 2.70487,0.1288 0.2576,-0.1288 0.51521,-0.25761 0.64401,-0.38641 0,0 0.77283,0.64401 1.54564,0.64401 1.03043,0 1.28804,-0.2576 1.54564,-0.3864 0,0 1.15923,1.15921 1.41683,1.28802 -0.64401,0.38641 -0.64401,1.15923 -0.51521,1.93204 0,0.25761 0.1288,0.51522 0.1288,0.64402 0.12881,0.51521 0.25761,0.77282 0.38641,1.28803 0,0 0,0 0,0 0.1288,0.51521 0.25761,1.03042 0.25761,1.54564 -0.12881,1.54563 -1.80324,2.31845 -3.22008,2.57606 z"
           inkscape:connector-curvature="0" />
        <path
           inkscape:connector-curvature="0"
           d="m 331.27186,356.42776 -12.8803,0 0,-13.65311 c 0,-10.69065 6.31135,-19.44927 16.22919,-20.60848 l 11.59226,18.16122 c 1.67445,2.57606 4.50811,4.1217 7.85698,4.1217 2.96248,0 5.92495,-1.54564 7.59938,-3.9929 0,0 0,0 0,-0.1288 l 12.2363,-18.41883 c 11.72107,0.64401 17.90362,10.81945 17.90362,21.12369 l 0,13.39551 -12.8803,0 0,-9.0162 -4.12171,0 0,9.0162 -39.67133,0 0,-9.0162 -3.86409,0 0,9.0162 z m 35.67844,-55.7717 c -0.25761,-5.02332 -3.47768,-9.40262 -7.98579,-11.20587 -1.54563,-0.64401 -3.34887,-1.03042 -5.15212,-1.03042 -1.80324,0 -3.47768,0.38641 -5.15212,1.03042 -4.63691,1.93205 -7.98579,6.69776 -7.98579,12.10749 0,5.40972 3.34888,10.04663 7.98579,12.10749 1.54564,0.64401 3.34888,1.03042 5.15212,1.03042 1.80325,0 3.47769,-0.38641 5.15212,-1.03042 1.80325,-0.77283 3.47768,-2.06086 4.76572,-3.47769 -0.25761,-0.90162 -0.25761,-1.54564 -0.25761,-2.31846 0,-2.96247 1.28803,-5.53852 3.47768,-7.21296 z m 8.11459,1.80324 c -0.64402,-0.25761 -1.41683,-0.51522 -2.31845,-0.51522 -0.25761,0 -0.64402,0 -0.90163,0.12881 -0.90161,0.1288 -1.67444,0.51521 -2.44726,0.90162 -1.54563,1.03043 -2.57606,2.83367 -2.57606,4.89451 0,2.06085 1.03043,3.8641 2.57606,4.89452 0.64402,0.51521 1.54565,0.77282 2.44726,0.90163 0.25761,0 0.64402,0.1288 0.90163,0.1288 0.77281,0 1.54563,-0.1288 2.31845,-0.51522 2.06084,-0.90162 3.60649,-2.96246 3.60649,-5.40973 0,-2.44725 -1.54565,-4.5081 -3.60649,-5.40972 z m 22.79813,-13.13791 -0.1288,-0.25761 c -0.1288,-0.2576 -0.2576,-0.3864 -0.51521,-0.64401 -0.77282,-0.90162 -1.93205,-1.54564 -3.09127,-1.67444 -0.1288,0 -25.503,-5.79614 -30.13991,-6.82656 -2.31846,1.41683 -4.89452,2.31845 -7.47058,2.70487 -0.77281,0.1288 -1.41683,0.1288 -2.06085,0.1288 -2.57605,0 -5.15211,-0.51522 -7.47057,-1.67444 -0.25761,-0.12881 -0.51521,-0.25761 -0.77282,-0.38641 -2.31845,2.31846 -15.84277,15.45636 -15.84277,15.45636 -2.18965,1.67444 -3.73528,5.66733 -2.18965,8.11459 0.77282,1.15923 5.66734,8.88741 10.56185,16.61559 5.28092,8.2434 10.43304,16.48679 10.43304,16.48679 0.90163,1.54563 2.57606,2.57606 4.89451,2.57606 2.06085,0 3.8641,-1.15923 4.76572,-2.44726 l 11.07706,-16.74439 2.44726,-3.73529 c -2.83368,-0.1288 -5.40973,-1.54564 -7.08417,-3.73529 -2.18965,2.06085 -4.76571,3.47769 -7.85698,4.2505 l -2.31846,3.60649 -0.77282,1.28803 -0.1288,0.1288 0,0 0,0 0,0 0,0 -2.70487,-4.76571 c -7.98579,-1.15923 -14.16832,-7.98579 -14.16832,-16.35798 0,-9.14502 7.47057,-16.48679 16.48678,-16.48679 6.69776,0 12.36509,3.60648 14.94116,9.40262 l 7.85698,0.64402 -3.60649,3.60648 c 4.76571,0.12881 8.62981,3.73529 9.01621,8.37219 0,0 14.94116,-10.30424 15.06996,-10.43304 1.93204,-1.93205 2.31845,-4.89451 0.77281,-7.21297 z m -43.02021,-18.29003 c -5.15211,0 -10.04663,-1.03042 -13.78192,-2.83367 l -0.1288,0 -0.12881,0 0,0 c 0.77283,3.22008 2.57606,6.82657 5.28093,8.75861 0.64401,0.51521 1.41683,0.90162 2.18965,1.28803 1.80325,0.90162 3.86409,1.28803 6.05374,1.28803 3.60649,0 7.98579,-1.93204 10.17544,-4.12169 1.80325,-1.67445 3.09128,-4.25051 3.7353,-6.82657 l -0.12881,0 c -3.60649,1.54564 -8.3722,2.44726 -13.26672,2.44726 z m 11.72108,-6.18254 c 0.2576,-0.1288 0.51521,-0.25761 0.77282,-0.38641 -3.09127,-0.51521 -7.47058,-1.15923 -12.4939,-1.15923 -4.25049,0 -8.50099,0.38641 -12.75149,1.15923 0.1288,0.1288 0.38641,0.25761 0.51521,0.25761 3.09127,1.54563 7.34177,2.44725 12.10748,2.44725 4.63691,0 8.75861,-0.90162 11.84988,-2.31845 z m 7.21297,-17.25961 -19.57806,-6.44015 -18.54764,7.34177 -3.22007,10.56185 c 0,0 2.31846,1.28803 4.50811,2.44726 l 4.5081,-0.77282 c 4.50811,-0.77282 8.88741,-1.15923 13.39551,-1.15923 5.28093,0 9.78904,0.64402 13.13792,1.15923 l 3.86408,0.64402 4.89452,-3.34888 -2.96247,-10.43305 z m -17.77482,8.3722 c -0.2576,0.1288 -0.64401,0.1288 -1.03042,0.2576 -0.25761,0.12881 -0.51522,0.25761 -0.51522,0.25761 0,0 -0.2576,-0.1288 -0.51521,-0.25761 -0.2576,-0.1288 -0.77281,-0.1288 -1.15922,-0.2576 -0.38641,-0.12881 -0.90162,-0.12881 -1.28804,-0.25761 -1.03041,-0.38641 -1.67443,-1.41683 -1.67443,-2.44725 0,-0.64402 0.1288,-1.28803 0.25761,-1.80325 0.2576,-0.90162 0.77281,-2.31845 -0.12881,-3.09127 -0.1288,-0.12881 -0.1288,-0.12881 -0.2576,-0.12881 0,0 0,0 0,0 0,0 1.28802,-1.54562 1.41682,-1.54562 0.77283,0.644 1.80326,0.644 2.70487,0.1288 0.2576,-0.1288 0.51521,-0.25761 0.64401,-0.38641 0,0 0.77283,0.64401 1.54564,0.64401 1.03043,0 1.28804,-0.2576 1.54564,-0.3864 0,0 1.15923,1.15921 1.41683,1.28802 -0.64401,0.38641 -0.64401,1.15923 -0.51521,1.93204 0,0.25761 0.1288,0.51522 0.1288,0.64402 0.12881,0.51521 0.25761,0.77282 0.38641,1.28803 0,0 0,0 0,0 0.1288,0.51521 0.25761,1.03042 0.25761,1.54564 -0.12881,1.54563 -1.80324,2.31845 -3.22008,2.57606 z"
           id="path5202"
           style="fill:#e6e6e6" />
      </g>
    </g>
  </g>
</svg>
