<?xml version="1.0" encoding="UTF-8" standalone="no"?>
<!-- Created with Inkscape (http://www.inkscape.org/) -->

<svg
   xmlns:dc="http://purl.org/dc/elements/1.1/"
   xmlns:cc="http://creativecommons.org/ns#"
   xmlns:rdf="http://www.w3.org/1999/02/22-rdf-syntax-ns#"
   xmlns:svg="http://www.w3.org/2000/svg"
   xmlns="http://www.w3.org/2000/svg"
   xmlns:sodipodi="http://sodipodi.sourceforge.net/DTD/sodipodi-0.dtd"
   xmlns:inkscape="http://www.inkscape.org/namespaces/inkscape"
   width="42.333332mm"
   height="42.333332mm"
   viewBox="0 0 149.99999 150"
   id="svg4759"
   version="1.1"
   inkscape:version="0.92.2 (5c3e80d, 2017-08-06)"
   sodipodi:docname="PublicLabs.svg">
  <defs
     id="defs4761" />
  <sodipodi:namedview
     id="base"
     pagecolor="#ffffff"
     bordercolor="#666666"
     borderopacity="1.0"
     inkscape:pageopacity="0.0"
     inkscape:pageshadow="2"
     inkscape:zoom="2.8284271"
     inkscape:cx="127.48989"
     inkscape:cy="86.194587"
     inkscape:document-units="px"
     inkscape:current-layer="layer1"
     showgrid="false"
     fit-margin-top="0"
     fit-margin-left="0"
     fit-margin-right="0"
     fit-margin-bottom="0"
     inkscape:window-width="1366"
     inkscape:window-height="708"
     inkscape:window-x="0"
     inkscape:window-y="23"
     inkscape:window-maximized="1"
     showborder="false"
     showguides="true"
     inkscape:guide-bbox="true" />
  <metadata
     id="metadata4764">
    <rdf:RDF>
      <cc:Work
         rdf:about="">
        <dc:format>image/svg+xml</dc:format>
        <dc:type
           rdf:resource="http://purl.org/dc/dcmitype/StillImage" />
        <dc:title></dc:title>
      </cc:Work>
    </rdf:RDF>
  </metadata>
  <g
     inkscape:label="Layer 1"
     inkscape:groupmode="layer"
     id="layer1"
     transform="translate(-263.37482,-945.53693)">
    <g
       id="g4348"
       inkscape:export-xdpi="96"
       inkscape:export-ydpi="96">
      <rect
         ry="0"
         rx="0"
         style="opacity:1;fill:#b3b3b3;fill-opacity:1;stroke:none;stroke-width:8.48868561;stroke-linecap:round;stroke-linejoin:round;stroke-miterlimit:4;stroke-dasharray:none;stroke-dashoffset:0;stroke-opacity:1"
         id="rect5453"
         width="150"
         height="150"
         x="263.37482"
         y="945.53693" />
      <path
         inkscape:connector-curvature="0"
         id="path4344"
         d="m 330.74694,1084.4258 c -27.62498,-3.5625 -49.48867,-23.8965 -55.35631,-51.4831 -1.7079,-8.0297 -1.32063,-20.1972 0.92174,-28.9596 6.75083,-26.38016 30.32051,-45.90286 57.56064,-47.67734 11.7,-0.76216 22.84983,1.42738 32.89928,6.46058 7.20266,3.60739 12.01633,7.1741 17.89656,13.26052 16.37944,16.95375 21.99073,42.12704 14.45023,64.82654 -9.52556,28.6751 -38.87151,47.3767 -68.37214,43.5724 z m 15.81658,-11.9956 c 6.067,-6.0949 10.69992,-10.9657 10.29537,-10.8242 -0.40455,0.1417 -1.81129,0.5042 -3.12608,0.8056 -2.25089,0.5161 -2.57753,0.7334 -5.59183,3.7201 -1.76072,1.7446 -3.25021,3.5124 -3.30997,3.9284 -0.0604,0.4204 -0.5988,0.9806 -1.21198,1.2609 -0.60683,0.2776 -3.63128,3.0098 -6.721,6.0718 l -5.61766,5.5672 1.38827,0.2236 c 0.76355,0.123 1.7203,0.2472 2.12611,0.2759 0.51256,0.036 4.10594,-3.3313 11.76877,-11.0293 z m 7.78879,-1.496 c 6.92826,-6.9174 12.54875,-12.6254 12.48994,-12.6842 -0.0588,-0.059 -1.78632,0.5119 -3.83892,1.2683 l -3.73203,1.3753 -11.31776,11.309 -11.31777,11.3091 h 2.55984 2.55984 z m 19.72248,-13.8181 c 14.12108,-14.1044 25.81304,-25.8927 25.98214,-26.1961 0.1691,-0.3035 0.4231,-1.7102 0.56444,-3.1261 l 0.25699,-2.5744 -11.49496,11.4604 c -10.70939,10.6773 -11.45326,11.5023 -10.88458,12.0709 0.33571,0.3357 0.61039,0.9156 0.61039,1.2884 0,1.0464 -2.85554,3.3027 -6.85412,5.4158 -3.58195,1.8928 -3.78883,2.0789 -16.49953,14.8443 l -12.87208,12.9275 2.7583,-0.2331 2.75831,-0.233 z m -38.3629,20.3273 5.3232,-5.3328 h -2.53915 -2.53917 l -4.90351,4.8555 c -2.69692,2.6705 -4.9035,4.9766 -4.9035,5.1244 0,0.2827 1.26709,0.5378 3.13084,0.6305 0.96455,0.048 1.79755,-0.6356 6.43129,-5.2776 z m 18.02092,4.0596 2.39054,-0.5874 21.19504,-21.183 21.19505,-21.1831 0.64741,-2.8034 c 0.35608,-1.5418 0.72791,-2.9689 0.82631,-3.1712 0.0984,-0.2022 -11.09608,10.8858 -24.8766,24.6399 -13.78052,13.7542 -25.05548,25.0606 -25.05548,25.1253 0,0.065 0.28962,0.035 0.6436,-0.066 0.35398,-0.1012 1.71934,-0.4481 3.03413,-0.7711 z m -23.73408,-4.2308 c 2.61679,-2.6226 4.68312,-4.8362 4.59188,-4.9189 -0.0912,-0.083 -1.07617,-0.2593 -2.18869,-0.3923 l -2.02276,-0.2418 -4.5791,4.5965 c -2.51851,2.528 -4.50449,4.6629 -4.41329,4.7441 0.17435,0.1553 2.8411,0.8775 3.48109,0.9428 0.20519,0.021 2.51409,-2.1079 5.13087,-4.7304 z m -4.98233,-1.2698 c 4.23763,-4.2478 4.5136,-4.6095 3.94805,-5.1751 -0.33442,-0.3344 -0.60805,-0.7642 -0.60805,-0.955 0,-0.5117 2.04839,-1.6673 3.84931,-2.1714 1.12531,-0.3151 2.22323,-1.0963 3.85556,-2.7433 l 2.28223,-2.3027 -1.33683,-0.7887 c -0.73526,-0.4338 -1.45273,-0.7887 -1.59439,-0.7887 -0.37373,0 -18.63907,18.3328 -18.44016,18.5082 0.28733,0.2535 2.34667,0.9242 2.931,0.9547 0.30645,0.016 2.60742,-2.0262 5.11328,-4.538 z m 38.09465,2.3438 2.94219,-1.2146 13.90334,-13.8195 c 12.70166,-12.6251 14.01192,-14.042 15.15972,-16.3939 1.19677,-2.4523 2.83756,-6.4361 2.65081,-6.4361 -0.0483,0 -9.02383,8.9371 -19.94556,19.8602 -14.46573,14.4677 -19.55834,19.7732 -18.7552,19.5393 0.60637,-0.1765 2.4265,-0.8675 4.0447,-1.5354 z m -37.75,-8.5729 c 9.95639,-9.9621 9.85,-9.7992 6.39909,-9.7992 h -1.68492 l -8.76655,8.7177 c -4.8216,4.7947 -8.76655,8.8317 -8.76655,8.9711 0,0.2625 2.47518,1.3831 3.12879,1.4166 0.20376,0.011 4.56433,-4.1774 9.69014,-9.3062 z m -6.01166,0.097 c 6.70098,-6.7349 7.18743,-7.3076 5.49314,-6.4663 -1.0224,0.5076 -2.83525,1.1779 -4.02858,1.4895 -2.05215,0.5359 -2.44742,0.8443 -7.29739,5.6943 l -5.12774,5.1277 1.43305,0.7557 c 0.78817,0.4157 1.6001,0.7631 1.80427,0.772 0.20416,0.011 3.67964,-3.3089 7.72325,-7.3729 z m -2.19395,-4.3021 c -0.0782,-0.078 -1.20944,-0.028 -2.51386,0.1118 l -2.37169,0.254 -3.77459,3.7874 -3.77459,3.7875 1.42824,0.9233 1.42823,0.9233 4.86022,-4.8226 c 2.67312,-2.6524 4.79625,-4.8866 4.71804,-4.9647 z m 57.01356,6.478 c 6.39519,-4.3633 14.18693,-12.7059 17.62976,-18.8759 0.82756,-1.4831 -1.29698,0.4734 -10.98056,10.1117 -6.60366,6.5727 -12.00666,12.0063 -12.00666,12.0746 0,0.1874 2.44645,-1.3242 5.35746,-3.3104 z m -66.26511,-2.8365 3.62288,-3.6366 -2.29314,-0.2661 -2.29315,-0.2662 -2.89968,2.8827 c -1.59482,1.5855 -2.8975,2.9694 -2.89485,3.0752 0.006,0.274 2.31115,1.7973 2.76038,1.8246 0.20608,0.013 2.00498,-1.6135 3.99756,-3.6136 z m 34.50435,1.7654 c 0.74999,-0.1955 1.46957,-0.527 1.59906,-0.7364 0.39941,-0.6464 -0.94188,-1.7537 -3.10466,-2.5631 -1.84711,-0.6914 -2.29366,-0.7278 -4.23772,-0.3455 -3.28687,0.6463 -6.69477,1.775 -7.2011,2.3851 -0.37512,0.4519 -0.27336,0.6151 0.59954,0.9613 2.57654,1.0217 8.97688,1.1765 12.34488,0.2986 z m -36.40769,-6.4794 c -0.26032,-0.098 -0.93531,-0.5674 -1.49997,-1.0426 l -1.02668,-0.8638 -2.84563,2.8624 -2.84563,2.8625 1.36493,1.1983 1.36493,1.1984 2.98068,-3.0182 c 1.84851,-1.8719 2.80089,-3.0862 2.50737,-3.197 z m 43.57715,-1.076 c -0.0485,-0.048 -1.32418,0.067 -2.83497,0.2568 -2.48892,0.3125 -2.87976,0.4777 -4.16149,1.7595 l -1.41459,1.4146 1.59396,0.9515 1.59397,0.9515 2.65559,-2.6229 c 1.46059,-1.4427 2.61598,-2.6625 2.56753,-2.711 z m -44.34069,-3.7215 c 8.52211,-8.5078 8.49729,-8.4679 5.30131,-8.5248 -1.40551,-0.025 -1.6827,0.2039 -8.63458,7.1301 l -7.18244,7.1559 1.07208,1.1189 c 0.58965,0.6155 1.15288,1.119 1.25164,1.119 0.0987,0 3.78514,-3.5995 8.19199,-7.9991 z m 33.60096,6.8011 c 1.57612,0.024 2.00965,-0.1343 3.03413,-1.1136 1.42913,-1.3662 1.49271,-1.7339 0.29977,-1.7339 -0.49252,0 -1.35165,-0.1734 -1.90918,-0.3853 -0.94357,-0.3588 -1.15512,-0.2418 -3.05807,1.6912 -1.62801,1.6537 -1.85713,2.0191 -1.12496,1.7947 0.50569,-0.155 1.74692,-0.2688 2.75831,-0.2531 z m -18.10669,-2.2887 c 2.19234,-0.5713 4.15369,-1.5266 7.60886,-3.7062 2.84022,-1.7917 4.33846,-1.727 8.29175,0.3583 4.17245,2.2009 6.39582,2.6302 10.64891,2.0563 7.40319,-0.9989 15.44808,-3.5724 23.18573,-7.417 5.63715,-2.8008 7.99387,-4.4755 7.83813,-5.5696 -0.19702,-1.384 -2.35007,-1.8388 -9.51376,-2.0098 l -6.45669,-0.154 -0.43615,2.8054 c -0.92769,5.9672 -3.11004,8.0712 -8.34914,8.0492 -3.85481,-0.016 -6.67028,-0.8471 -8.14419,-2.4039 -2.35553,-2.4879 -2.71032,-4.5051 -1.57513,-8.9558 0.72378,-2.8376 0.76907,-3.467 0.39536,-5.4951 -0.23212,-1.2598 -0.42205,-2.8094 -0.42205,-3.4434 0,-1.8148 -0.97377,-1.4598 -1.26163,0.4598 -0.30492,2.0333 -1.05414,2.7081 -3.59975,3.242 -1.85026,0.3881 -2.1447,0.356 -3.37155,-0.3679 l -1.34424,-0.7931 -2.03052,0.898 c -2.74721,1.215 -9.54674,3.3914 -12.78266,4.0916 -3.48051,0.7531 -9.92383,0.7448 -12.54166,-0.016 -1.97782,-0.5749 -3.23048,-1.649 -3.71922,-3.1888 -0.22036,-0.6943 -0.26619,-0.6911 -1.71436,0.1223 -3.18707,1.7898 -4.07697,4.1261 -2.26272,5.9404 1.54504,1.545 4.11843,2.0938 9.40204,2.0053 3.82943,-0.064 4.78219,0.03 5.579,0.5522 0.5285,0.3463 0.96091,0.9045 0.96091,1.2403 0,1.0214 -3.35745,3.9219 -7.06644,6.1048 -1.93011,1.136 -3.61163,2.3321 -3.73672,2.658 -0.55946,1.458 1.4917,2.761 5.48083,3.4819 2.42203,0.4377 8.28748,0.1455 10.93706,-0.5448 z m -19.80933,-6.04 6.57698,-6.5846 -2.26508,-0.1273 -2.26509,-0.1273 -5.58895,5.599 -5.58895,5.5991 1.06621,1.1128 c 0.58641,0.612 1.16108,1.1129 1.27706,1.1129 0.11596,0 3.17049,-2.9631 6.78782,-6.5846 z m -4.20704,-1.6774 c 2.92065,-2.9258 5.23548,-5.3669 5.14407,-5.4246 -0.0914,-0.058 -0.85317,-0.4546 -1.6928,-0.8819 l -1.52661,-0.777 -4.86478,4.8748 -4.86479,4.8749 1.05868,1.3267 c 0.58227,0.7298 1.14356,1.3269 1.24731,1.3269 0.10381,0 2.57827,-2.3939 5.49892,-5.3198 z m -3.19918,-2.6851 c 4.65166,-4.6619 4.68144,-4.7026 4.25989,-5.8194 -0.23349,-0.6186 -0.31498,-1.5611 -0.1811,-2.0946 0.29485,-1.1748 2.44273,-3.3313 3.93265,-3.9484 0.81113,-0.336 1.08506,-0.6927 1.08506,-1.4132 0,-0.8239 -1.16994,0.2054 -8.07051,7.1006 -4.43879,4.4355 -7.96624,8.2404 -7.83879,8.4558 0.56646,0.9568 1.72334,2.4141 1.91641,2.4141 0.11658,0 2.31996,-2.1126 4.89639,-4.6949 z m 19.43449,0.5579 c 1.34905,-1.3 1.79005,-2.1152 1.14432,-2.1152 -0.15755,0 -1.35741,1.098 -2.66636,2.4399 -1.93775,1.9865 -2.15035,2.3112 -1.14433,1.7469 0.67957,-0.381 1.87943,-1.3133 2.66637,-2.0716 z m -18.52397,-7.7206 c 5.92194,-5.9176 8.18598,-8.4137 8.18598,-9.0252 0,-0.4648 0.34049,-1.5125 0.75664,-2.3283 0.57602,-1.1291 1.21251,-1.6954 2.66636,-2.3723 1.05035,-0.489 2.16011,-0.8907 2.46614,-0.8928 0.30603,0 2.95186,-2.4032 5.87962,-5.3362 l 5.32321,-5.3327 h -2.38741 -2.38742 l -15.37863,15.3818 -15.37864,15.3819 0.79759,1.3519 c 0.43867,0.7435 0.90402,1.3518 1.0341,1.3518 0.13007,0 3.92018,-3.6809 8.42246,-8.1799 z m 4.50824,-10.3927 14.89144,-14.8948 h -2.57461 -2.5746 l -13.3653,13.369 -13.36528,13.369 0.77839,1.5259 c 0.42812,0.8391 0.89993,1.5258 1.04846,1.5258 0.14853,0 6.97121,-6.7027 15.1615,-14.8949 z m 90.17984,-0.092 c 11.04969,-11.0696 11.66156,-11.7534 11.76662,-13.1479 0.10509,-1.395 0.0537,-1.4765 -0.9925,-1.5747 -1.00559,-0.095 -2.24199,1.0363 -13.95683,12.7635 -8.45184,8.4608 -12.67096,12.9297 -12.32044,13.0496 0.63313,0.2167 2.08109,0.4664 3.10967,0.5362 0.51124,0.035 4.31562,-3.5343 12.39348,-11.6267 z m -83.81214,-14.7294 -2.46769,-0.1105 -11.34187,11.342 -11.34189,11.3418 0.78872,1.783 0.78873,1.7831 13.02085,-13.0146 13.02084,-13.0144 z m 73.62314,12.7986 12.86816,-12.8721 h -2.55974 -2.55974 l -12.24119,12.2211 c -6.8628,6.8516 -12.2412,12.5072 -12.2412,12.8721 0,0.5402 0.32889,0.6509 1.93278,0.6509 h 1.93278 z m 5.88438,0 12.86816,-12.8721 h -2.39054 -2.39053 l -12.86815,12.8721 -12.86814,12.872 h 2.39052 2.39053 z m -1.53742,-12.7986 -2.46611,-0.1104 -9.69043,9.6725 -9.69041,9.6725 0.24129,1.8388 c 0.13272,1.0114 0.32661,1.982 0.43086,2.1569 0.10424,0.1748 5.46611,-4.9556 11.91523,-11.401 l 11.72568,-11.7189 z m -84.03485,0 -2.28155,-0.1113 -9.13641,9.1217 c -9.73004,9.7144 -9.33936,9.1651 -8.35599,11.7515 0.3794,0.9979 0.48267,0.9075 11.21922,-9.8217 l 10.83628,-10.8288 -2.28155,-0.1112 z m 71.22909,9.1219 9.18884,-9.1943 h -2.39107 -2.39105 l -7.63544,7.6419 -7.63544,7.642 0.65102,1.5486 c 0.35806,0.8518 0.73501,1.5503 0.83766,1.5523 0.10264,0 4.32162,-4.1336 9.37548,-9.1905 z m -83.30081,-0.5517 8.63682,-8.6426 h -2.55156 -2.55156 l -6.73169,6.7119 -6.7317,6.7118 0.38772,1.4711 c 0.49434,1.8756 0.66638,2.3905 0.79873,2.3905 0.0585,0 3.99299,-3.8892 8.74324,-8.6427 z m 56.63719,5.9144 c 0,-0.2868 0.10574,-0.8247 0.23504,-1.1952 0.2036,-0.5835 0.12386,-0.568 -0.5963,0.1167 -0.45722,0.4348 -0.71872,0.9726 -0.5811,1.1953 0.35514,0.5747 0.94236,0.5019 0.94236,-0.1168 z m 22.80199,-7.3854 7.16452,-7.1716 h -2.54237 -2.54239 l -5.26929,5.2242 c -3.2359,3.2085 -5.26927,5.5045 -5.26927,5.9503 0,0.8588 0.79369,3.1686 1.08879,3.1686 0.11303,0 3.42953,-3.2271 7.37001,-7.1715 z m -22.43422,2.1496 c 0,-2.4539 -0.23086,-2.7653 -1.23104,-1.6601 -0.49203,0.5437 -0.56363,1.1125 -0.37147,2.951 0.22884,2.1894 0.2644,2.2536 0.92027,1.66 0.52792,-0.4777 0.68224,-1.1453 0.68224,-2.9509 z m -60.49882,-3.0692 6.24406,-6.252 h -2.57637 -2.57636 l -4.17869,4.1905 -4.17868,4.1906 0.25758,2.0616 c 0.14167,1.1338 0.37162,2.0615 0.511,2.0615 0.13939,0 3.06324,-2.8134 6.49746,-6.2522 z m 30.79094,3.0825 c 2.19336,-0.4989 2.9054,-0.8646 4.39394,-2.257 1.88378,-1.762 2.01994,-2.2489 1.28844,-4.6065 l -0.43146,-1.3906 -4.40754,4.4247 c -2.42415,2.4337 -4.19455,4.4248 -3.93422,4.4248 0.26031,0 1.65119,-0.268 3.09084,-0.5954 z m 50.79235,-9.261 -2.46827,-0.1104 -2.29843,2.3171 -2.29843,2.3169 -0.24519,2.7583 -0.24519,2.7583 5.01189,-4.9649 5.01187,-4.965 z m -44.82557,7.1579 c 0.36991,-0.2705 0.60513,-0.694 0.52272,-0.9413 -0.0957,-0.287 -0.4694,-0.1094 -1.03415,0.4918 -0.93673,0.9971 -0.61917,1.2762 0.51143,0.4495 z m -39.20641,-7.1588 c -2.26704,-0.1105 -2.29625,-0.099 -3.9186,1.5233 l -1.63454,1.6345 0.26423,2.1147 0.26421,2.1147 3.65439,-3.638 3.65438,-3.638 z m 61.90718,6.6741 c 0.68835,-0.6229 0.81853,-2.2064 0.35322,-4.2963 l -0.23232,-1.0435 -0.85837,0.9161 c -0.76867,0.8204 -0.8315,1.1313 -0.60123,2.9743 0.14143,1.132 0.34916,2.0581 0.46164,2.0581 0.11247,0 0.50715,-0.2739 0.87706,-0.6087 z m 17.39792,-6.6822 c -1.58283,-0.1942 -2.01439,0.1601 -2.01439,1.6535 v 1.3734 l 1.4938,-1.4537 1.4938,-1.4539 z m -17.4609,0.2391 c 0,-0.167 -0.4965,-0.3036 -1.10333,-0.3036 -0.91067,0 -1.10332,0.1497 -1.10332,0.8581 0,0.472 0.11185,0.9699 0.24854,1.1067 0.26931,0.2693 1.95811,-1.1634 1.95811,-1.6612 z m -66.19932,0.6158 0.86377,-0.9194 h -0.98355 c -0.80393,0 -0.98355,0.1679 -0.98355,0.9194 0,1.1352 0.0369,1.1352 1.10333,0 z m 42.29401,-2.3965 c 0,-0.6774 -5.17533,-22.59294 -5.54524,-23.48196 -1.27243,-3.05809 3.09705,-4.52225 15.5933,-5.22508 3.87939,-0.21819 8.04641,-0.34284 9.26008,-0.277 2.09676,0.11375 2.22296,0.17493 2.53429,1.22883 l 0.32764,1.10912 2.93321,-0.98415 c 7.23792,-2.42849 13.80351,-1.44235 16.56599,2.48817 l 1.06084,1.5094 -1.49219,11.72207 c -0.82071,6.4471 -1.36428,11.8499 -1.20795,12.0062 0.15634,0.1564 9.62523,0.2416 21.04199,0.1892 l 20.75775,-0.095 -0.12662,-3.31 c -0.3649,-9.539 -3.80598,-20.80493 -8.87434,-29.0542 -6.39134,-10.40259 -15.50162,-18.69555 -26.23641,-23.88265 -20.20926,-9.76522 -43.67067,-8.16463 -62.22273,4.24496 -9.42239,6.3027 -16.67605,14.64659 -21.54786,24.78653 -3.74434,7.79326 -5.69926,15.23056 -6.11448,23.26176 l -0.21391,4.1374 h 21.75332 c 14.48797,0 21.75332,-0.1248 21.75332,-0.3737 z m -24.80797,-19.841 c -2.70374,-1.61467 -3.49708,-2.24917 -3.03414,-2.42685 0.34476,-0.13227 0.62684,-0.51694 0.62684,-0.85492 0,-2.23112 2.75061,-2.98174 4.75284,-1.29698 1.60261,1.34857 1.54795,3.17885 -0.12217,4.09153 -0.63715,0.34822 -0.56091,0.46442 0.82466,1.25582 1.5231,0.87 1.94328,1.4265 1.07265,1.4206 -0.25284,0 -2.10715,-0.9868 -4.12068,-2.1892 z m 2.16602,-1.45895 c 0.84076,-0.9291 0.46808,-2.07958 -0.90339,-2.7888 -1.41814,-0.73329 -2.09688,-0.68975 -2.55373,0.16393 -0.71167,1.32975 0.60436,3.29188 2.2287,3.32279 0.32264,0.0107 0.87542,-0.30793 1.22842,-0.69792 z m 80.26185,2.89985 c -2.00516,-1.57724 -1.42503,-5.14048 0.74813,-4.59509 0.46623,0.11703 0.84358,0.0437 0.84358,-0.16307 0,-0.20614 0.27064,-0.37476 0.60143,-0.37476 0.33078,0 0.98488,-0.41376 1.45354,-0.91942 0.46866,-0.50568 1.12619,-0.91943 1.4612,-0.91943 0.58031,0 3.82716,3.19121 3.83539,3.76964 0.005,0.4014 -0.64989,0.33788 -0.91337,-0.0885 -0.13275,-0.21477 -0.66778,-0.0373 -1.30342,0.43284 -0.9556,0.70655 -1.18277,0.7413 -1.9971,0.30547 -0.50536,-0.27051 -1.01549,-0.7963 -1.1336,-1.16838 -0.11812,-0.3722 -0.46565,-0.67671 -0.77229,-0.67671 -0.30664,0 -0.47174,0.20688 -0.36689,0.4597 0.10487,0.25293 0.39957,1.10198 0.65494,1.88698 0.43321,1.33183 0.40746,1.47333 -0.38462,2.11473 -1.08095,0.8753 -1.54662,0.8644 -2.72692,-0.064 z m 2.49208,-0.6887 c 0.29415,-0.476 -0.45286,-2.33564 -1.15162,-2.86686 -0.74042,-0.56299 -1.95539,0.0138 -1.95539,0.92814 0,1.58872 2.39836,3.08532 3.10701,1.93872 z m 4.17271,-3.54506 c 0.0595,-0.41569 -0.20621,-1.04027 -0.59041,-1.38806 -1.23565,-1.1182 -2.68336,0.14389 -1.8822,1.64088 0.53209,0.99422 2.32036,0.81132 2.47261,-0.25282 z M 296.99326,993.329 c -1.36094,-0.97328 -1.99788,-1.647 -1.77128,-1.8736 0.2266,-0.2266 1.02642,0.13988 2.22423,1.01917 2.14753,1.57642 2.95677,1.50774 2.96507,-0.25168 0.004,-0.96384 -0.3035,-1.47278 -1.52999,-2.52786 -2.25364,-1.93863 -1.21683,-2.01667 1.34775,-0.10147 2.31189,1.72652 2.98238,2.58441 1.77261,2.26805 -0.54352,-0.14213 -0.72617,0.0211 -0.78228,0.69927 -0.1082,1.30718 -0.75421,2.31876 -1.47033,2.30232 -0.34686,-0.007 -1.58697,-0.69836 -2.75578,-1.53423 z m 77.70589,-0.38211 c 0.002,-0.25284 0.95338,-1.07177 2.1147,-1.81983 1.89303,-1.21939 2.83223,-1.67512 2.5712,-1.24762 -0.0505,0.0828 0.36317,0.50857 0.91943,0.94613 0.55626,0.43755 1.01139,1.03178 1.01139,1.32052 0,0.74832 -0.48132,0.64874 -1.01798,-0.21058 -0.64189,-1.02783 -1.71032,-0.91805 -3.57921,0.36777 -1.78927,1.23106 -2.02417,1.30592 -2.01953,0.64361 z m -2.74067,-3.66763 c -0.86695,-1.23773 -0.7051,-2.59664 0.43886,-3.68476 1.55477,-1.47887 2.80713,-1.64269 3.93507,-0.51475 1.28192,1.28193 1.21238,2.62654 -0.20428,3.9499 -1.44295,1.34792 -3.32159,1.46039 -4.16965,0.24961 z m 3.21778,-0.66331 c 1.16355,-0.91525 1.56595,-2.05565 0.97611,-2.76636 -0.67264,-0.8105 -2.11947,-0.63997 -3.12814,0.36871 -2.07756,2.07755 -0.15878,4.21533 2.15203,2.39765 z m -74.90451,-2.00694 c -2.15007,-2.00314 -3.10962,-3.13 -2.81847,-3.30995 0.26366,-0.16293 0.94706,0.21725 1.69688,0.944 0.82585,0.80045 1.25542,1.02709 1.25542,0.66235 0,-0.90067 1.42553,-2.16424 2.44164,-2.16424 1.26772,0 3.44275,2.18634 3.44275,3.46066 0,0.53212 -0.34787,1.24501 -0.78066,1.59982 -0.42936,0.352 -1.04998,0.91102 -1.37915,1.24224 -0.55375,0.55722 -0.84223,0.37516 -3.85841,-2.43488 z m 4.47357,0.83966 c 1.2228,-1.2228 -0.24492,-3.74518 -2.05666,-3.53453 -0.68629,0.0798 -1.08833,0.41742 -1.33405,1.12028 -0.29295,0.83792 -0.20654,1.16058 0.51706,1.93081 0.93192,0.99198 2.15872,1.19837 2.87365,0.48344 z m 64.12808,-1.63102 c 0.0727,-0.37727 0.29534,-0.64459 0.49485,-0.59401 0.53452,0.13548 0.44111,0.92395 -0.13211,1.11503 -0.32225,0.10741 -0.44876,-0.0743 -0.36274,-0.52102 z m -63.45261,-4.29663 c -1.5447,-1.70147 -2.80856,-3.21086 -2.80856,-3.35422 0,-0.74175 1.24776,0.26974 3.46232,2.80671 1.72429,1.97532 2.6444,2.76257 3.04784,2.60776 0.3899,-0.14963 0.52176,-0.0532 0.4053,0.29655 -0.39599,1.18918 -1.42232,0.60021 -4.1069,-2.3568 z m 57.19127,2.74719 c -0.57445,-0.38197 0.0748,-0.98343 0.66668,-0.61762 0.19338,0.11952 0.91918,-0.0198 1.61291,-0.30972 1.10257,-0.46069 1.36539,-0.84403 2.08818,-3.04583 0.98593,-3.00338 1.05505,-3.1393 1.46686,-2.8848 0.17593,0.10874 -10e-4,1.13033 -0.39318,2.27022 -0.39218,1.13989 -0.71306,2.13216 -0.71306,2.20504 0,0.0729 0.84085,-0.29359 1.86857,-0.81437 3.55001,-1.79892 3.12983,-0.72349 -0.47857,1.22487 -3.75504,2.02755 -5.29069,2.52255 -6.11839,1.97221 z m -53.17012,-3.70005 c -1.5483,-2.01212 -2.02045,-2.97583 -1.45798,-2.97583 0.1226,0 0.57772,0.44452 1.01138,0.98784 2.09127,2.62004 2.80305,3.75486 2.48025,3.95437 -0.19403,0.11992 -1.10918,-0.76495 -2.03365,-1.96638 z m 2.70412,-1.10867 c -1.4513,-1.45131 -1.5298,-3.75888 -0.15844,-4.65743 0.52809,-0.34602 1.1906,-0.49384 1.56304,-0.34876 0.53223,0.20732 0.43527,0.34129 -0.54881,0.75823 -1.28991,0.54651 -1.52795,1.42935 -0.77244,2.8647 0.83802,1.59209 2.45563,1.84494 3.37465,0.52747 l 0.57723,-0.82749 0.0193,0.80664 c 0.0212,0.88849 -1.23033,1.95166 -2.29749,1.95166 -0.37511,0 -1.16577,-0.48375 -1.75704,-1.07502 z m 48.94223,0.34662 c 0,-0.2658 2.04895,-3.76297 2.75241,-4.69785 0.13157,-0.17486 2.57904,1.13731 2.83188,1.51826 0.42227,0.63623 -0.0616,0.97582 -0.76477,0.5367 -1.09596,-0.68444 -2.39497,-0.0854 -3.2977,1.5208 -0.78165,1.39077 -1.52182,1.93652 -1.52182,1.12209 z m -4.54758,-2.24048 c -0.70239,-0.55251 -0.96903,-1.10131 -0.96903,-1.99454 0,-1.68716 1.53895,-3.49537 2.97489,-3.49537 1.25115,0 2.54172,1.13889 2.54172,2.243 0,1.28639 -1.16121,3.31382 -2.10309,3.67193 -1.2186,0.4633 -1.34257,0.44175 -2.44449,-0.42502 z m 3.24223,-1.89328 c 0.62288,-1.48136 0.33246,-2.44657 -0.8234,-2.73667 -0.71042,-0.17829 -1.10183,-0.0324 -1.6157,0.6022 -1.14828,1.41806 -1.26252,2.61431 -0.32235,3.37561 1.04226,0.84397 2.08105,0.37709 2.76145,-1.24114 z m -43.64163,-1.55882 c -1.05217,-2.11561 -1.77326,-3.97747 -1.60243,-4.13745 0.17082,-0.15999 0.37707,-0.1254 0.45832,0.0769 0.83674,2.083 3.72481,6.96706 4.07765,6.89576 0.25024,-0.0506 0.45498,0.1563 0.45498,0.45972 0,0.30702 -0.32715,0.55166 -0.73774,0.55166 -0.56953,0 -1.17398,-0.87714 -2.65078,-3.84657 z m -9.85134,2.19158 c 0,-0.33712 0.20687,-0.54399 0.45971,-0.45971 0.52065,0.17355 0.46342,0.76496 -0.092,0.95008 -0.20228,0.0675 -0.36777,-0.15324 -0.36777,-0.49037 z m 13.83087,-0.39785 c -0.48776,-1.27108 -0.19552,-2.03383 1.06398,-2.77695 0.70796,-0.41771 1.2872,-0.99656 1.2872,-1.28635 0,-0.93481 -1.10349,-0.99962 -2.04001,-0.1198 -1.18246,1.11085 -1.64619,0.61556 -0.53305,-0.56932 0.51318,-0.54626 1.27107,-0.91799 1.8716,-0.91799 0.8932,0 1.10753,0.25362 1.86483,2.20664 0.4706,1.21365 0.98061,2.20664 1.13335,2.20664 0.15274,0 0.2777,0.1848 0.2777,0.41068 0,0.22586 -0.31179,0.32913 -0.69285,0.22947 -0.40339,-0.10552 -0.93966,0.10707 -1.28361,0.50878 -0.72651,0.84849 -2.63815,0.91863 -2.94914,0.1082 z m 2.6454,-0.59514 c 0.5816,-0.58159 0.56815,-2.13533 -0.0184,-2.12491 -0.88535,0.0158 -2.23802,1.34663 -1.99977,1.96753 0.26934,0.70188 1.38655,0.78901 2.01816,0.15738 z m 28.93471,0.66404 c -0.68188,-0.4986 -0.68323,-0.57036 -0.0485,-2.58389 0.35906,-1.13907 0.54913,-2.39778 0.42238,-2.79712 -0.15943,-0.50233 -0.0607,-0.72608 0.32042,-0.72608 0.30298,0 0.60376,-0.35941 0.66839,-0.79869 0.0646,-0.43926 0.34185,-0.87263 0.61603,-0.963 0.38142,-0.12574 0.43933,0.10509 0.24654,0.98287 -0.1907,0.86825 -0.1107,1.20141 0.32899,1.37013 0.84983,0.32612 0.70946,0.8856 -0.19659,0.78351 -0.62862,-0.0708 -0.87406,0.22932 -1.28162,1.56737 -0.67478,2.21535 -0.64473,2.60943 0.21615,2.83455 0.40228,0.1052 0.64075,0.33796 0.52996,0.51723 -0.2931,0.47424 -1.01995,0.3997 -1.82214,-0.18688 z m -25.69528,-4.37654 c -0.35652,-1.86204 -0.73888,-3.84065 -0.8497,-4.3969 -0.26732,-1.34194 0.53844,-1.34194 0.83708,0 0.53934,2.42353 0.46769,2.34684 1.63101,1.74526 2.04606,-1.05806 3.67454,0.39493 3.67454,3.27857 0,1.54389 -0.84414,2.26724 -2.96596,2.54156 l -1.67876,0.21704 z m 4.35471,1.09467 c 0.72185,-2.06513 -1.45448,-4.05772 -2.87757,-2.63464 -0.68601,0.68602 -0.75418,1.55607 -0.22996,2.93488 0.30796,0.81 0.56024,0.94802 1.5564,0.85143 0.92332,-0.0895 1.26977,-0.34675 1.55113,-1.15167 z m 18.09218,1.77607 c -0.16593,-0.4324 -0.41667,-0.46901 -1.19232,-0.17411 -1.11546,0.42409 -2.72177,-0.34878 -2.72177,-1.30958 0,-1.05208 1.40544,-2.01427 2.94218,-2.01427 1.22592,0 1.4711,-0.1226 1.4711,-0.73555 0,-0.62658 -0.24518,-0.73555 -1.65498,-0.73555 -0.91025,0 -1.65499,-0.14708 -1.65499,-0.32685 0,-0.55107 2.50398,-0.84005 3.35103,-0.38673 0.71711,0.38379 0.76264,0.60536 0.51339,2.49817 -0.15043,1.14237 -0.25582,2.4494 -0.23421,2.90453 0.0442,0.93144 -0.4983,1.11679 -0.81943,0.27994 z m -0.68596,-1.12829 c 1.60032,-1.12091 0.44768,-2.17482 -1.54308,-1.41089 -0.69165,0.26541 -0.77653,1.47574 -0.12201,1.73983 0.72376,0.29206 0.8,0.27699 1.66509,-0.32894 z m -13.54027,-0.10083 c -1.11183,-0.90031 -1.2297,-3.67132 -0.20437,-4.80454 1.68731,-1.86483 4.26434,-0.44361 4.26434,2.35176 0,2.75127 -2.11408,4.02846 -4.05997,2.45278 z m 2.7465,-0.64017 c 1.24084,-1.24084 0.32109,-4.20314 -1.305,-4.20314 -1.34929,0 -1.97163,3.08062 -0.84911,4.20314 0.73356,0.73356 1.42054,0.73356 2.15411,0 z m 3.20999,-1.78785 c 0.13028,-2.58006 0.57231,-3.91358 0.9479,-2.85965 0.12925,0.36269 0.29021,0.37473 0.68043,0.0508 0.59996,-0.49793 2.49878,-0.12934 2.15974,0.41924 -0.12643,0.20457 -0.51917,0.28012 -0.87277,0.1679 -0.98744,-0.3134 -1.86675,0.96059 -2.11609,3.06588 -0.34682,2.92842 -0.95716,2.28369 -0.79921,-0.84424 z m 2.51678,49.12208 c 0,-0.7453 -2.64827,-13.8515 -2.8332,-14.0214 -0.29425,-0.2705 0.13419,12.9305 0.44453,13.6967 0.26703,0.6591 2.38867,0.9476 2.38867,0.3247 z m 12.79151,-19.5357 c 3.70806,-0.87714 5.59718,-2.04691 5.59718,-3.46566 0,-1.20953 -2.32744,-3.71646 -4.11418,-4.43137 -4.52087,-1.8089 -13.72907,-0.41043 -16.67143,2.53192 -1.98581,1.98589 -0.65169,4.80336 2.81135,5.93731 2.20924,0.7234 8.03929,0.4538 12.37708,-0.5722 z m -21.93292,-2.74526 c 4.30181,-0.90714 7.16035,-3.01973 6.86831,-5.07591 -0.11096,-0.78124 -0.31015,-0.83333 -3.61129,-0.9443 -4.50091,-0.15131 -14.4005,0.53655 -17.69458,1.22949 -7.30366,1.53636 -6.55912,4.16976 1.51252,5.34976 2.69332,0.39362 9.88141,0.0831 12.92504,-0.55904 z"
         style="fill:#000000;stroke-width:0.36777398" />
    </g>
  </g>
</svg>
