<?xml version="1.0" encoding="UTF-8" standalone="no"?>
<!-- Created with Inkscape (http://www.inkscape.org/) -->

<svg
   xmlns:dc="http://purl.org/dc/elements/1.1/"
   xmlns:cc="http://creativecommons.org/ns#"
   xmlns:rdf="http://www.w3.org/1999/02/22-rdf-syntax-ns#"
   xmlns:svg="http://www.w3.org/2000/svg"
   xmlns="http://www.w3.org/2000/svg"
   xmlns:sodipodi="http://sodipodi.sourceforge.net/DTD/sodipodi-0.dtd"
   xmlns:inkscape="http://www.inkscape.org/namespaces/inkscape"
   width="42.333332mm"
   height="42.333332mm"
   viewBox="0 0 149.99999 150"
   id="svg4759"
   version="1.1"
   inkscape:version="0.92pre2 r"
   sodipodi:docname="Social-Food.svg">
  <defs
     id="defs4761">
    <filter
       inkscape:collect="always"
       style="color-interpolation-filters:sRGB"
       id="filter12493"
       x="-0.045"
       width="1.09"
       y="-0.09"
       height="1.18">
      <feGaussianBlur
         inkscape:collect="always"
         stdDeviation="1.426642"
         id="feGaussianBlur12495" />
    </filter>
  </defs>
  <sodipodi:namedview
     id="base"
     pagecolor="#ffffff"
     bordercolor="#666666"
     borderopacity="1.0"
     inkscape:pageopacity="0.0"
     inkscape:pageshadow="2"
     inkscape:zoom="1.1497535"
     inkscape:cx="-188.9969"
     inkscape:cy="-18.056229"
     inkscape:document-units="px"
     inkscape:current-layer="layer1"
     showgrid="false"
     fit-margin-top="0"
     fit-margin-left="0"
     fit-margin-right="0"
     fit-margin-bottom="0"
     inkscape:window-width="1366"
     inkscape:window-height="708"
     inkscape:window-x="0"
     inkscape:window-y="23"
     inkscape:window-maximized="1"
     showborder="false"
     showguides="true"
     inkscape:guide-bbox="true" />
  <metadata
     id="metadata4764">
    <rdf:RDF>
      <cc:Work
         rdf:about="">
        <dc:format>image/svg+xml</dc:format>
        <dc:type
           rdf:resource="http://purl.org/dc/dcmitype/StillImage" />
        <dc:title />
      </cc:Work>
    </rdf:RDF>
  </metadata>
  <g
     inkscape:label="Layer 1"
     inkscape:groupmode="layer"
     id="layer1"
     transform="translate(-254.30068,-943.69336)">
    <g
       id="g6888"
       inkscape:export-xdpi="96"
       inkscape:export-ydpi="96">
      <rect
         ry="0"
         rx="0"
         style="opacity:1;fill:#333333;fill-opacity:1;stroke:none;stroke-width:6.79094839;stroke-linecap:round;stroke-linejoin:round;stroke-miterlimit:4;stroke-dasharray:none;stroke-dashoffset:0;stroke-opacity:1"
         id="rect5453"
         width="150"
         height="150"
         x="254.30067"
         y="943.69336" />
      <g
         style="filter:url(#filter12493)"
         id="g12431"
         transform="matrix(0.99260769,0.96821815,-0.96821815,0.99260769,988.59947,-325.6182)">
        <g
           transform="matrix(0.32938344,0,0,0.32938344,287.57876,976.58917)"
           id="g12433">
          <path
             inkscape:connector-curvature="0"
             style="fill:#b3b3b3"
             d="m 247.5,115.5 c 0,54.676 -44.324,99 -99,99 -54.676,0 -99,-44.324 -99,-99 z"
             id="path12435" />
        </g>
        <g
           transform="matrix(0.32938344,0,0,0.32938344,287.57876,976.58917)"
           id="g12437">
          <path
             inkscape:connector-curvature="0"
             style="fill:#32373b"
             d="m 113.25,134.5 c 0,-2.485 2.015,-8 4.5,-8 2.485,0 4.5,5.515 4.5,8 0,2.485 -2.015,4.5 -4.5,4.5 -2.485,0 -4.5,-2.015 -4.5,-4.5 z"
             id="path12439" />
        </g>
        <g
           transform="matrix(0.32938344,0,0,0.32938344,287.57876,976.58917)"
           id="g12441">
          <path
             inkscape:connector-curvature="0"
             style="fill:#666666"
             d="m 247.5,115.5 h -99 v 99 c 54.676,0 99,-44.324 99,-99 z"
             id="path12443" />
        </g>
        <g
           transform="matrix(0.32938344,0,0,0.32938344,287.57876,976.58917)"
           id="g12445">
          <path
             inkscape:connector-curvature="0"
             style="fill:#32373b"
             d="m 82.5,134.5 c 0,-2.485 2.015,-8 4.5,-8 2.485,0 4.5,5.515 4.5,8 0,2.485 -2.015,4.5 -4.5,4.5 -2.485,0 -4.5,-2.015 -4.5,-4.5 z"
             id="path12447" />
        </g>
        <g
           transform="matrix(0.32938344,0,0,0.32938344,287.57876,976.58917)"
           id="g12449">
          <path
             inkscape:connector-curvature="0"
             style="fill:#292d30"
             d="m 174.75,134.5 c 0,-2.485 2.015,-8 4.5,-8 2.485,0 4.5,5.515 4.5,8 0,2.485 -2.015,4.5 -4.5,4.5 -2.485,0 -4.5,-2.015 -4.5,-4.5 z"
             id="path12451" />
        </g>
        <g
           transform="matrix(0.32938344,0,0,0.32938344,287.57876,976.58917)"
           id="g12453">
          <path
             inkscape:connector-curvature="0"
             style="fill:#292d30"
             d="m 205.5,134.5 c 0,-2.485 2.015,-8 4.5,-8 2.485,0 4.5,5.515 4.5,8 0,2.485 -2.015,4.5 -4.5,4.5 -2.485,0 -4.5,-2.015 -4.5,-4.5 z"
             id="path12455" />
        </g>
        <g
           transform="matrix(0.32938344,0,0,0.32938344,287.57876,976.58917)"
           id="g12457">
          <path
             inkscape:connector-curvature="0"
             style="fill:#32373b"
             d="m 96.75,161.75 c 0,-2.485 2.015,-8 4.5,-8 2.485,0 4.5,5.515 4.5,8 0,2.485 -2.015,4.5 -4.5,4.5 -2.485,0 -4.5,-2.015 -4.5,-4.5 z"
             id="path12459" />
        </g>
        <g
           transform="matrix(0.32938344,0,0,0.32938344,287.57876,976.58917)"
           id="g12461">
          <path
             inkscape:connector-curvature="0"
             style="fill:#32373b"
             d="m 127.5,161.75 c 0,-2.485 2.015,-8 4.5,-8 2.485,0 4.5,5.515 4.5,8 0,2.485 -2.015,4.5 -4.5,4.5 -2.485,0 -4.5,-2.015 -4.5,-4.5 z"
             id="path12463" />
        </g>
        <g
           transform="matrix(0.32938344,0,0,0.32938344,287.57876,976.58917)"
           id="g12465">
          <path
             inkscape:connector-curvature="0"
             style="fill:#292d30"
             d="m 158.25,161.75 c 0,-2.485 2.015,-8 4.5,-8 2.485,0 4.5,5.515 4.5,8 0,2.485 -2.015,4.5 -4.5,4.5 -2.485,0 -4.5,-2.015 -4.5,-4.5 z"
             id="path12467" />
        </g>
        <g
           transform="matrix(0.32938344,0,0,0.32938344,287.57876,976.58917)"
           id="g12469">
          <path
             inkscape:connector-curvature="0"
             style="fill:#292d30"
             d="m 189,161.75 c 0,-2.485 2.015,-8 4.5,-8 2.485,0 4.5,5.515 4.5,8 0,2.485 -2.015,4.5 -4.5,4.5 -2.485,0 -4.5,-2.015 -4.5,-4.5 z"
             id="path12471" />
        </g>
        <g
           transform="matrix(0.32938344,0,0,0.32938344,287.57876,976.58917)"
           id="g12473">
          <path
             inkscape:connector-curvature="0"
             style="fill:#32373b"
             d="m 144,134.5 c 0,-2.485 2.015,-8 4.5,-8 2.485,0 4.5,5.515 4.5,8 0,2.485 -2.015,4.5 -4.5,4.5 -2.485,0 -4.5,-2.015 -4.5,-4.5 z"
             id="path12475" />
        </g>
        <g
           transform="matrix(0.32938344,0,0,0.32938344,287.57876,976.58917)"
           id="g12477">
          <path
             inkscape:connector-curvature="0"
             style="fill:#e6e6e6"
             d="M 33,115.5 C 33,179.289 84.711,231 148.5,231 212.289,231 264,179.289 264,115.5 h -24.75 c 0,50.12 -40.63,90.75 -90.75,90.75 -50.12,0 -90.75,-40.63 -90.75,-90.75 z"
             id="path12479" />
        </g>
        <g
           transform="matrix(0.32938344,0,0,0.32938344,287.57876,976.58917)"
           id="g12481">
          <path
             inkscape:connector-curvature="0"
             style="fill:#cccccc"
             d="m 264,115.5 h -24.75 c 0,50.12 -40.63,90.75 -90.75,90.75 V 231 C 212.289,231 264,179.289 264,115.5 Z"
             id="path12483" />
        </g>
        <g
           transform="matrix(0.32938344,0,0,0.32938344,287.57876,976.58917)"
           id="g12485">
          <path
             inkscape:connector-curvature="0"
             style="fill:#292d30"
             d="m 153,134.5 c 0,-2.485 -2.015,-7.999 -4.5,-8 V 139 c 2.485,0 4.5,-2.015 4.5,-4.5 z"
             id="path12487" />
        </g>
      </g>
      <g
         transform="matrix(0.99260769,0.96821815,-0.96821815,0.99260769,988.59947,-325.6182)"
         id="g18010">
        <g
           id="g17788"
           transform="matrix(0.32938344,0,0,0.32938344,287.57876,976.58917)">
          <path
             id="path17790"
             d="m 247.5,115.5 c 0,54.676 -44.324,99 -99,99 -54.676,0 -99,-44.324 -99,-99 z"
             style="fill:#b3b3b3"
             inkscape:connector-curvature="0" />
        </g>
        <g
           id="g17792"
           transform="matrix(0.32938344,0,0,0.32938344,287.57876,976.58917)">
          <path
             id="path17794"
             d="m 113.25,134.5 c 0,-2.485 2.015,-8 4.5,-8 2.485,0 4.5,5.515 4.5,8 0,2.485 -2.015,4.5 -4.5,4.5 -2.485,0 -4.5,-2.015 -4.5,-4.5 z"
             style="fill:#32373b"
             inkscape:connector-curvature="0" />
        </g>
        <g
           id="g17796"
           transform="matrix(0.32938344,0,0,0.32938344,287.57876,976.58917)">
          <path
             id="path17798"
             d="m 247.5,115.5 h -99 v 99 c 54.676,0 99,-44.324 99,-99 z"
             style="fill:#666666"
             inkscape:connector-curvature="0" />
        </g>
        <g
           id="g17800"
           transform="matrix(0.32938344,0,0,0.32938344,287.57876,976.58917)">
          <path
             id="path17802"
             d="m 82.5,134.5 c 0,-2.485 2.015,-8 4.5,-8 2.485,0 4.5,5.515 4.5,8 0,2.485 -2.015,4.5 -4.5,4.5 -2.485,0 -4.5,-2.015 -4.5,-4.5 z"
             style="fill:#32373b"
             inkscape:connector-curvature="0" />
        </g>
        <g
           id="g17804"
           transform="matrix(0.32938344,0,0,0.32938344,287.57876,976.58917)">
          <path
             id="path17806"
             d="m 174.75,134.5 c 0,-2.485 2.015,-8 4.5,-8 2.485,0 4.5,5.515 4.5,8 0,2.485 -2.015,4.5 -4.5,4.5 -2.485,0 -4.5,-2.015 -4.5,-4.5 z"
             style="fill:#292d30"
             inkscape:connector-curvature="0" />
        </g>
        <g
           id="g17808"
           transform="matrix(0.32938344,0,0,0.32938344,287.57876,976.58917)">
          <path
             id="path17810"
             d="m 205.5,134.5 c 0,-2.485 2.015,-8 4.5,-8 2.485,0 4.5,5.515 4.5,8 0,2.485 -2.015,4.5 -4.5,4.5 -2.485,0 -4.5,-2.015 -4.5,-4.5 z"
             style="fill:#292d30"
             inkscape:connector-curvature="0" />
        </g>
        <g
           id="g17812"
           transform="matrix(0.32938344,0,0,0.32938344,287.57876,976.58917)">
          <path
             id="path17814"
             d="m 96.75,161.75 c 0,-2.485 2.015,-8 4.5,-8 2.485,0 4.5,5.515 4.5,8 0,2.485 -2.015,4.5 -4.5,4.5 -2.485,0 -4.5,-2.015 -4.5,-4.5 z"
             style="fill:#32373b"
             inkscape:connector-curvature="0" />
        </g>
        <g
           id="g17816"
           transform="matrix(0.32938344,0,0,0.32938344,287.57876,976.58917)">
          <path
             id="path17818"
             d="m 127.5,161.75 c 0,-2.485 2.015,-8 4.5,-8 2.485,0 4.5,5.515 4.5,8 0,2.485 -2.015,4.5 -4.5,4.5 -2.485,0 -4.5,-2.015 -4.5,-4.5 z"
             style="fill:#32373b"
             inkscape:connector-curvature="0" />
        </g>
        <g
           id="g17820"
           transform="matrix(0.32938344,0,0,0.32938344,287.57876,976.58917)">
          <path
             id="path17822"
             d="m 158.25,161.75 c 0,-2.485 2.015,-8 4.5,-8 2.485,0 4.5,5.515 4.5,8 0,2.485 -2.015,4.5 -4.5,4.5 -2.485,0 -4.5,-2.015 -4.5,-4.5 z"
             style="fill:#292d30"
             inkscape:connector-curvature="0" />
        </g>
        <g
           id="g17824"
           transform="matrix(0.32938344,0,0,0.32938344,287.57876,976.58917)">
          <path
             id="path17826"
             d="m 189,161.75 c 0,-2.485 2.015,-8 4.5,-8 2.485,0 4.5,5.515 4.5,8 0,2.485 -2.015,4.5 -4.5,4.5 -2.485,0 -4.5,-2.015 -4.5,-4.5 z"
             style="fill:#292d30"
             inkscape:connector-curvature="0" />
        </g>
        <g
           id="g17828"
           transform="matrix(0.32938344,0,0,0.32938344,287.57876,976.58917)">
          <path
             id="path17830"
             d="m 144,134.5 c 0,-2.485 2.015,-8 4.5,-8 2.485,0 4.5,5.515 4.5,8 0,2.485 -2.015,4.5 -4.5,4.5 -2.485,0 -4.5,-2.015 -4.5,-4.5 z"
             style="fill:#32373b"
             inkscape:connector-curvature="0" />
        </g>
        <g
           id="g17832"
           transform="matrix(0.32938344,0,0,0.32938344,287.57876,976.58917)">
          <path
             id="path17834"
             d="M 33,115.5 C 33,179.289 84.711,231 148.5,231 212.289,231 264,179.289 264,115.5 h -24.75 c 0,50.12 -40.63,90.75 -90.75,90.75 -50.12,0 -90.75,-40.63 -90.75,-90.75 z"
             style="fill:#e6e6e6"
             inkscape:connector-curvature="0" />
        </g>
        <g
           id="g17836"
           transform="matrix(0.32938344,0,0,0.32938344,287.57876,976.58917)">
          <path
             id="path17838"
             d="m 264,115.5 h -24.75 c 0,50.12 -40.63,90.75 -90.75,90.75 V 231 C 212.289,231 264,179.289 264,115.5 Z"
             style="fill:#cccccc"
             inkscape:connector-curvature="0" />
        </g>
        <g
           id="g17840"
           transform="matrix(0.32938344,0,0,0.32938344,287.57876,976.58917)">
          <path
             id="path17842"
             d="m 153,134.5 c 0,-2.485 -2.015,-7.999 -4.5,-8 V 139 c 2.485,0 4.5,-2.015 4.5,-4.5 z"
             style="fill:#292d30"
             inkscape:connector-curvature="0" />
        </g>
      </g>
    </g>
  </g>
</svg>
