<?xml version="1.0" encoding="UTF-8" standalone="no"?>
<!-- Created with Inkscape (http://www.inkscape.org/) -->

<svg
   xmlns:dc="http://purl.org/dc/elements/1.1/"
   xmlns:cc="http://creativecommons.org/ns#"
   xmlns:rdf="http://www.w3.org/1999/02/22-rdf-syntax-ns#"
   xmlns:svg="http://www.w3.org/2000/svg"
   xmlns="http://www.w3.org/2000/svg"
   xmlns:sodipodi="http://sodipodi.sourceforge.net/DTD/sodipodi-0.dtd"
   xmlns:inkscape="http://www.inkscape.org/namespaces/inkscape"
   width="42.333332mm"
   height="42.333332mm"
   viewBox="0 0 149.99999 150"
   id="svg4759"
   version="1.1"
   inkscape:version="0.92.1 r"
   sodipodi:docname="Transport-Infrastructure.svg">
  <defs
     id="defs4761">
    <filter
       inkscape:collect="always"
       style="color-interpolation-filters:sRGB"
       id="filter4300"
       x="-0.059999238"
       width="1.1199985"
       y="-0.060000762"
       height="1.1200015">
      <feGaussianBlur
         inkscape:collect="always"
         stdDeviation="2.1360264"
         id="feGaussianBlur4302" />
    </filter>
    <filter
       inkscape:collect="always"
       style="color-interpolation-filters:sRGB"
       id="filter5375"
       x="-0.11999924"
       width="1.2399985"
       y="-0.12000076"
       height="1.2400015">
      <feGaussianBlur
         inkscape:collect="always"
         stdDeviation="3.943075"
         id="feGaussianBlur5377" />
    </filter>
  </defs>
  <sodipodi:namedview
     id="base"
     pagecolor="#ffffff"
     bordercolor="#666666"
     borderopacity="1.0"
     inkscape:pageopacity="0.0"
     inkscape:pageshadow="2"
     inkscape:zoom="2"
     inkscape:cx="120.77422"
     inkscape:cy="79.842298"
     inkscape:document-units="px"
     inkscape:current-layer="layer1"
     showgrid="false"
     fit-margin-top="0"
     fit-margin-left="0"
     fit-margin-right="0"
     fit-margin-bottom="0"
     inkscape:window-width="1366"
     inkscape:window-height="704"
     inkscape:window-x="0"
     inkscape:window-y="27"
     inkscape:window-maximized="1"
     showborder="false"
     showguides="true"
     inkscape:guide-bbox="true" />
  <metadata
     id="metadata4764">
    <rdf:RDF>
      <cc:Work
         rdf:about="">
        <dc:format>image/svg+xml</dc:format>
        <dc:type
           rdf:resource="http://purl.org/dc/dcmitype/StillImage" />
        <dc:title></dc:title>
      </cc:Work>
    </rdf:RDF>
  </metadata>
  <g
     inkscape:label="Layer 1"
     inkscape:groupmode="layer"
     id="layer1"
     transform="translate(-263.37482,-945.53693)">
    <g
       id="g5434"
       inkscape:export-xdpi="96"
       inkscape:export-ydpi="96">
      <rect
         ry="0"
         rx="0"
         style="opacity:1;fill:#b3b3b3;fill-opacity:1;stroke:none;stroke-width:6.79094839;stroke-linecap:round;stroke-linejoin:round;stroke-miterlimit:4;stroke-dasharray:none;stroke-dashoffset:0;stroke-opacity:1"
         id="rect5453"
         width="150"
         height="150"
         x="259.47977"
         y="941.85193" />
      <g
         transform="matrix(0.67924087,0,0,0.67924087,138.78744,356.66438)"
         id="g4304">
        <path
           style="fill:#000000;filter:url(#filter4300)"
           id="path3498"
           d="m 375.7188,1034.3349 -16.85,-8.532 15.95,-8.246 c 0.508,-0.264 0.508,-0.688 -0.003,-0.945 l -17.988,-9.107 18.912,-9.77797 c 0.919,-0.477 1.464,-1.323 1.459,-2.264 -0.006,-0.939 -0.561,-1.777 -1.48,-2.241 l -36.884,-18.672 c -0.683,-0.345 -1.396,-0.418 -1.875,-0.418 -0.44,0 -1.098,0.062 -1.735,0.36 l -41.928,19.629 c -0.954,0.447 -1.529,1.283 -1.538,2.235 -0.009,0.953 0.552,1.8 1.499,2.266 l 20.139,9.90297 -19.251,9.012 c -0.514,0.241 -0.516,0.643 -0.005,0.894 l 17.094,8.406 -17.938,8.396 c -0.955,0.447 -1.53,1.283 -1.538,2.235 -0.008,0.953 0.553,1.8 1.499,2.264 l 39.554,19.452 c 0.651,0.321 1.327,0.388 1.779,0.388 0.476,0 1.186,-0.073 1.872,-0.425 l 39.279,-20.308 c 0.919,-0.477 1.464,-1.323 1.459,-2.264 -0.008,-0.938 -0.562,-1.777 -1.482,-2.24 z m -38.865,-56.19397 c 0.01,-0.002 0.049,-0.009 0.106,-0.009 0.061,0 0.106,0.008 0.082,-0.006 l 34.309,17.368 -36.657,18.95797 c -0.01,0 -0.048,0.01 -0.103,0.01 l -0.014,0.021 -36.745,-18.06897 z m -2.155,77.42097 c -0.011,0 -0.051,0.01 -0.109,0.01 l -0.012,0.023 -36.744,-18.07 17.375,-8.134 17.601,8.655 c 0.652,0.321 1.328,0.389 1.78,0.389 0.477,0 1.188,-0.074 1.87,-0.426 l 18.634,-9.633 16.255,8.23 z"
           inkscape:connector-curvature="0" />
        <path
           inkscape:connector-curvature="0"
           d="m 375.7188,1034.3349 -16.85,-8.532 15.95,-8.246 c 0.508,-0.264 0.508,-0.688 -0.003,-0.945 l -17.988,-9.107 18.912,-9.77797 c 0.919,-0.477 1.464,-1.323 1.459,-2.264 -0.006,-0.939 -0.561,-1.777 -1.48,-2.241 l -36.884,-18.672 c -0.683,-0.345 -1.396,-0.418 -1.875,-0.418 -0.44,0 -1.098,0.062 -1.735,0.36 l -41.928,19.629 c -0.954,0.447 -1.529,1.283 -1.538,2.235 -0.009,0.953 0.552,1.8 1.499,2.266 l 20.139,9.90297 -19.251,9.012 c -0.514,0.241 -0.516,0.643 -0.005,0.894 l 17.094,8.406 -17.938,8.396 c -0.955,0.447 -1.53,1.283 -1.538,2.235 -0.008,0.953 0.553,1.8 1.499,2.264 l 39.554,19.452 c 0.651,0.321 1.327,0.388 1.779,0.388 0.476,0 1.186,-0.073 1.872,-0.425 l 39.279,-20.308 c 0.919,-0.477 1.464,-1.323 1.459,-2.264 -0.008,-0.938 -0.562,-1.777 -1.482,-2.24 z m -38.865,-56.19397 c 0.01,-0.002 0.049,-0.009 0.106,-0.009 0.061,0 0.106,0.008 0.082,-0.006 l 34.309,17.368 -36.657,18.95797 c -0.01,0 -0.048,0.01 -0.103,0.01 l -0.014,0.021 -36.745,-18.06897 z m -2.155,77.42097 c -0.011,0 -0.051,0.01 -0.109,0.01 l -0.012,0.023 -36.744,-18.07 17.375,-8.134 17.601,8.655 c 0.652,0.321 1.328,0.389 1.78,0.389 0.477,0 1.188,-0.074 1.87,-0.426 l 18.634,-9.633 16.255,8.23 z"
           id="path3478"
           style="fill:#333333" />
      </g>
      <g
         id="g5411">
        <g
           id="g864"
           transform="matrix(0.7132803,0,0,0.7132803,267.45824,950.19434)"
           style="fill:#333333;filter:url(#filter5375)">
          <path
             inkscape:connector-curvature="0"
             d="M 45,5.773 C 23.224,5.773 5.57,23.425 5.569,45.202 5.57,66.978 23.221,84.634 44.999,84.634 H 84.431 V 45.202 C 84.431,23.424 66.777,5.773 45,5.773 Z m -10e-4,71.661 c -17.8,0 -32.23,-14.433 -32.23,-32.23 0,-17.802 14.431,-32.233 32.231,-32.233 17.8,0 32.231,14.432 32.231,32.231 0,17.801 -14.429,32.232 -32.232,32.232 z"
             id="path850"
             style="fill:#333333" />
          <g
             id="g862"
             style="fill:#333333">
            <path
               style="fill:#333333"
               inkscape:connector-curvature="0"
               d="m 73.443,44.77 c 0,0 -0.466,-0.345 -0.466,-0.911 l -1.636,-7.543 c 0,0 -0.086,-0.816 -1.107,-0.816 -1.021,0 -51.284,0 -51.284,0 0,0 -2.744,0.125 -2.744,2.419 v 13.074 l 11.811,2.481 c -0.004,-0.079 -0.012,-0.156 -0.012,-0.237 0,-2.149 1.742,-3.891 3.89,-3.891 2.149,0 3.89,1.741 3.89,3.891 0,0.091 -0.007,0.181 -0.014,0.269 h 21.106 c -0.007,-0.089 -0.014,-0.179 -0.014,-0.269 0,-2.149 1.741,-3.891 3.89,-3.891 1.704,0 3.148,1.099 3.675,2.623 h 0.033 c 0.011,0.056 0.016,0.121 0.025,0.179 0.1,0.347 0.156,0.712 0.156,1.089 0,0.091 -0.007,0.181 -0.014,0.269 h 7.44 c 0,0 1.722,0.314 1.722,-2.514 v -5.625 c 0.005,0 -0.112,-0.503 -0.347,-0.597 z M 31.121,43.462 c 0,0.385 -0.289,0.695 -0.646,0.695 H 23.47 c -0.357,0 -0.646,-0.311 -0.646,-0.695 v -4.289 c 0,-0.385 0.289,-0.695 0.646,-0.695 h 7.005 c 0.356,0 0.646,0.311 0.646,0.695 z m 10.567,0 c 0,0.385 -0.288,0.695 -0.646,0.695 h -7.005 c -0.357,0 -0.646,-0.311 -0.646,-0.695 v -4.289 c 0,-0.385 0.289,-0.695 0.646,-0.695 h 7.005 c 0.357,0 0.646,0.311 0.646,0.695 z m 10.566,-0.001 c 0,0.385 -0.291,0.696 -0.646,0.696 h -7.006 c -0.356,0 -0.645,-0.311 -0.645,-0.696 v -4.29 c 0,-0.385 0.288,-0.695 0.645,-0.695 h 7.006 c 0.355,0 0.646,0.311 0.646,0.695 z m 11.207,0 c 0,0.385 -0.289,0.696 -0.646,0.696 -0.031,0 -0.06,-0.015 -0.088,-0.019 v 0.019 h -4.203 v -0.019 c -0.313,-0.049 -0.559,-0.326 -0.559,-0.677 v -4.289 c 0,-0.385 0.29,-0.695 0.646,-0.695 h 4.204 c 0.356,0 0.646,0.311 0.646,0.695 z m 7.057,6.702 c 0,1.023 -0.897,0.933 -0.897,0.933 h -2.015 c -0.984,0 -0.963,-1 -0.963,-1 V 39.342 c 0,-0.932 0.811,-0.864 0.811,-0.864 h 1.072 c 0.424,0 0.467,0.432 0.467,0.432 l 0.48,4.001 c 0.088,0.47 0.41,0.849 0.41,0.849 l 0.459,0.534 c 0.174,0.18 0.176,0.493 0.176,0.493 z"
               id="path852" />
            <path
               style="fill:#333333"
               inkscape:connector-curvature="0"
               d="m 31.917,49.884 c -1.874,0 -3.395,1.518 -3.395,3.396 0,1.874 1.521,3.395 3.395,3.395 1.878,0 3.397,-1.521 3.397,-3.395 10e-4,-1.88 -1.52,-3.396 -3.397,-3.396 z m 0.002,5.167 c -0.98,0 -1.771,-0.794 -1.771,-1.771 0,-0.98 0.791,-1.774 1.771,-1.774 0.979,0 1.773,0.794 1.773,1.774 0,0.978 -0.794,1.771 -1.773,1.771 z"
               id="path854" />
            <path
               style="fill:#333333"
               inkscape:connector-curvature="0"
               d="m 31.919,51.939 c -0.739,0 -1.336,0.599 -1.336,1.338 0,0.738 0.597,1.339 1.336,1.339 0.741,0 1.339,-0.601 1.339,-1.339 0,-0.739 -0.599,-1.338 -1.339,-1.338 z m 0,2.038 c -0.385,0 -0.698,-0.313 -0.698,-0.699 0,-0.385 0.312,-0.697 0.698,-0.697 0.386,0 0.7,0.312 0.7,0.697 0,0.385 -0.314,0.699 -0.7,0.699 z"
               id="path856" />
            <path
               style="fill:#333333"
               inkscape:connector-curvature="0"
               d="m 60.777,49.884 c -1.875,0 -3.396,1.518 -3.396,3.396 0,1.874 1.521,3.395 3.396,3.395 1.878,0 3.396,-1.521 3.396,-3.395 0.002,-1.88 -1.521,-3.396 -3.396,-3.396 z m 10e-4,5.167 c -0.98,0 -1.772,-0.794 -1.772,-1.771 0,-0.98 0.792,-1.774 1.772,-1.774 0.979,0 1.772,0.794 1.772,1.774 0.001,0.978 -0.792,1.771 -1.772,1.771 z"
               id="path858" />
            <path
               style="fill:#333333"
               inkscape:connector-curvature="0"
               d="m 60.778,51.939 c -0.739,0 -1.337,0.599 -1.337,1.338 0,0.738 0.598,1.339 1.337,1.339 0.741,0 1.339,-0.601 1.339,-1.339 0,-0.739 -0.597,-1.338 -1.339,-1.338 z m 0,2.038 c -0.386,0 -0.698,-0.313 -0.698,-0.699 0,-0.385 0.312,-0.697 0.698,-0.697 0.386,0 0.698,0.312 0.698,0.697 10e-4,0.385 -0.312,0.699 -0.698,0.699 z"
               id="path860" />
          </g>
        </g>
        <g
           style="fill:#333333;"
           transform="matrix(0.7132803,0,0,0.7132803,267.45824,950.19434)"
           id="g5393">
          <path
             style="fill:#333333"
             id="path5379"
             d="M 45,5.773 C 23.224,5.773 5.57,23.425 5.569,45.202 5.57,66.978 23.221,84.634 44.999,84.634 H 84.431 V 45.202 C 84.431,23.424 66.777,5.773 45,5.773 Z m -10e-4,71.661 c -17.8,0 -32.23,-14.433 -32.23,-32.23 0,-17.802 14.431,-32.233 32.231,-32.233 17.8,0 32.231,14.432 32.231,32.231 0,17.801 -14.429,32.232 -32.232,32.232 z"
             inkscape:connector-curvature="0" />
          <g
             style="fill:#333333"
             id="g5391">
            <path
               id="path5381"
               d="m 73.443,44.77 c 0,0 -0.466,-0.345 -0.466,-0.911 l -1.636,-7.543 c 0,0 -0.086,-0.816 -1.107,-0.816 -1.021,0 -51.284,0 -51.284,0 0,0 -2.744,0.125 -2.744,2.419 v 13.074 l 11.811,2.481 c -0.004,-0.079 -0.012,-0.156 -0.012,-0.237 0,-2.149 1.742,-3.891 3.89,-3.891 2.149,0 3.89,1.741 3.89,3.891 0,0.091 -0.007,0.181 -0.014,0.269 h 21.106 c -0.007,-0.089 -0.014,-0.179 -0.014,-0.269 0,-2.149 1.741,-3.891 3.89,-3.891 1.704,0 3.148,1.099 3.675,2.623 h 0.033 c 0.011,0.056 0.016,0.121 0.025,0.179 0.1,0.347 0.156,0.712 0.156,1.089 0,0.091 -0.007,0.181 -0.014,0.269 h 7.44 c 0,0 1.722,0.314 1.722,-2.514 v -5.625 c 0.005,0 -0.112,-0.503 -0.347,-0.597 z M 31.121,43.462 c 0,0.385 -0.289,0.695 -0.646,0.695 H 23.47 c -0.357,0 -0.646,-0.311 -0.646,-0.695 v -4.289 c 0,-0.385 0.289,-0.695 0.646,-0.695 h 7.005 c 0.356,0 0.646,0.311 0.646,0.695 z m 10.567,0 c 0,0.385 -0.288,0.695 -0.646,0.695 h -7.005 c -0.357,0 -0.646,-0.311 -0.646,-0.695 v -4.289 c 0,-0.385 0.289,-0.695 0.646,-0.695 h 7.005 c 0.357,0 0.646,0.311 0.646,0.695 z m 10.566,-0.001 c 0,0.385 -0.291,0.696 -0.646,0.696 h -7.006 c -0.356,0 -0.645,-0.311 -0.645,-0.696 v -4.29 c 0,-0.385 0.288,-0.695 0.645,-0.695 h 7.006 c 0.355,0 0.646,0.311 0.646,0.695 z m 11.207,0 c 0,0.385 -0.289,0.696 -0.646,0.696 -0.031,0 -0.06,-0.015 -0.088,-0.019 v 0.019 h -4.203 v -0.019 c -0.313,-0.049 -0.559,-0.326 -0.559,-0.677 v -4.289 c 0,-0.385 0.29,-0.695 0.646,-0.695 h 4.204 c 0.356,0 0.646,0.311 0.646,0.695 z m 7.057,6.702 c 0,1.023 -0.897,0.933 -0.897,0.933 h -2.015 c -0.984,0 -0.963,-1 -0.963,-1 V 39.342 c 0,-0.932 0.811,-0.864 0.811,-0.864 h 1.072 c 0.424,0 0.467,0.432 0.467,0.432 l 0.48,4.001 c 0.088,0.47 0.41,0.849 0.41,0.849 l 0.459,0.534 c 0.174,0.18 0.176,0.493 0.176,0.493 z"
               inkscape:connector-curvature="0"
               style="fill:#333333" />
            <path
               id="path5383"
               d="m 31.917,49.884 c -1.874,0 -3.395,1.518 -3.395,3.396 0,1.874 1.521,3.395 3.395,3.395 1.878,0 3.397,-1.521 3.397,-3.395 10e-4,-1.88 -1.52,-3.396 -3.397,-3.396 z m 0.002,5.167 c -0.98,0 -1.771,-0.794 -1.771,-1.771 0,-0.98 0.791,-1.774 1.771,-1.774 0.979,0 1.773,0.794 1.773,1.774 0,0.978 -0.794,1.771 -1.773,1.771 z"
               inkscape:connector-curvature="0"
               style="fill:#333333" />
            <path
               id="path5385"
               d="m 31.919,51.939 c -0.739,0 -1.336,0.599 -1.336,1.338 0,0.738 0.597,1.339 1.336,1.339 0.741,0 1.339,-0.601 1.339,-1.339 0,-0.739 -0.599,-1.338 -1.339,-1.338 z m 0,2.038 c -0.385,0 -0.698,-0.313 -0.698,-0.699 0,-0.385 0.312,-0.697 0.698,-0.697 0.386,0 0.7,0.312 0.7,0.697 0,0.385 -0.314,0.699 -0.7,0.699 z"
               inkscape:connector-curvature="0"
               style="fill:#333333" />
            <path
               id="path5387"
               d="m 60.777,49.884 c -1.875,0 -3.396,1.518 -3.396,3.396 0,1.874 1.521,3.395 3.396,3.395 1.878,0 3.396,-1.521 3.396,-3.395 0.002,-1.88 -1.521,-3.396 -3.396,-3.396 z m 10e-4,5.167 c -0.98,0 -1.772,-0.794 -1.772,-1.771 0,-0.98 0.792,-1.774 1.772,-1.774 0.979,0 1.772,0.794 1.772,1.774 0.001,0.978 -0.792,1.771 -1.772,1.771 z"
               inkscape:connector-curvature="0"
               style="fill:#333333" />
            <path
               id="path5389"
               d="m 60.778,51.939 c -0.739,0 -1.337,0.599 -1.337,1.338 0,0.738 0.598,1.339 1.337,1.339 0.741,0 1.339,-0.601 1.339,-1.339 0,-0.739 -0.597,-1.338 -1.339,-1.338 z m 0,2.038 c -0.386,0 -0.698,-0.313 -0.698,-0.699 0,-0.385 0.312,-0.697 0.698,-0.697 0.386,0 0.698,0.312 0.698,0.697 10e-4,0.385 -0.312,0.699 -0.698,0.699 z"
               inkscape:connector-curvature="0"
               style="fill:#333333" />
          </g>
        </g>
      </g>
    </g>
  </g>
</svg>
