<?xml version="1.0" encoding="UTF-8" standalone="no"?>
<!-- Created with Inkscape (http://www.inkscape.org/) -->

<svg
   xmlns:dc="http://purl.org/dc/elements/1.1/"
   xmlns:cc="http://creativecommons.org/ns#"
   xmlns:rdf="http://www.w3.org/1999/02/22-rdf-syntax-ns#"
   xmlns:svg="http://www.w3.org/2000/svg"
   xmlns="http://www.w3.org/2000/svg"
   xmlns:sodipodi="http://sodipodi.sourceforge.net/DTD/sodipodi-0.dtd"
   xmlns:inkscape="http://www.inkscape.org/namespaces/inkscape"
   width="793.70081"
   height="1122.5197"
   viewBox="0 0 210 297"
   version="1.1"
   id="svg8"
   inkscape:version="0.92.1 r"
   sodipodi:docname="bootstrapping.svg">
  <defs
     id="defs2" />
  <sodipodi:namedview
     id="base"
     pagecolor="#ffffff"
     bordercolor="#666666"
     borderopacity="1.0"
     inkscape:pageopacity="0.0"
     inkscape:pageshadow="2"
     inkscape:zoom="1.4"
     inkscape:cx="430.87183"
     inkscape:cy="947.68881"
     inkscape:document-units="px"
     inkscape:current-layer="layer1"
     showgrid="false"
     inkscape:window-width="1366"
     inkscape:window-height="708"
     inkscape:window-x="0"
     inkscape:window-y="23"
     inkscape:window-maximized="1"
     units="px" />
  <metadata
     id="metadata5">
    <rdf:RDF>
      <cc:Work
         rdf:about="">
        <dc:format>image/svg+xml</dc:format>
        <dc:type
           rdf:resource="http://purl.org/dc/dcmitype/StillImage" />
        <dc:title></dc:title>
      </cc:Work>
    </rdf:RDF>
  </metadata>
  <g
     inkscape:label="Layer 1"
     inkscape:groupmode="layer"
     id="layer1">
    <path
       inkscape:connector-curvature="0"
       d="M 24.793537,93.353721 H 6.7489539 a 2.8389791,2.8389791 0 0 0 -2.8839582,2.783417 v 11.112502 c 0,1.64041 1.3070416,3.03741 2.8839582,3.03741 h 3.4660421 v 0.68263 a 0.38364583,0.38364583 0 0 0 0.428625,0.37571 h 10.197041 a 0.39158333,0.39158333 0 0 0 0.396875,-0.21167 c 0,0 0.0291,0 0.03175,0 a 0.42862499,0.42862499 0 0 0 0.05821,-0.16139 v -0.68528 h 3.466042 c 1.635125,0 2.883958,-1.45785 2.883958,-3.00302 V 96.171534 a 2.82575,2.82575 0 0 0 -2.883958,-2.817813 z m 1.825625,13.901209 c 0,0.9525 -0.933979,1.70921 -1.852083,1.70921 H 6.7489539 c -0.9524999,0 -1.8256249,-0.79375 -1.8256249,-1.70921 v -11.1125 c 0,-0.957792 0.904875,-1.730375 1.8256249,-1.730375 H 24.767079 c 0.9525,0 1.852083,0.79375 1.852083,1.725083 z"
       id="path2666"
       style="stroke-width:0.26458332" />
    <path
       inkscape:connector-curvature="0"
       d="m 21.523287,96.314409 a 0.59531249,0.59531249 0 1 0 0.597958,0.595312 0.54768749,0.54768749 0 0 0 -0.597958,-0.595312 z"
       id="path2668"
       style="stroke-width:0.26458332" />
    <path
       inkscape:connector-curvature="0"
       d="m 7.2543081,106.15426 a 0.59531249,0.59531249 0 1 0 0.5953125,0.59532 0.56091666,0.56091666 0 0 0 -0.5953125,-0.59532 z"
       id="path2670"
       style="stroke-width:0.26458332" />
    <path
       inkscape:connector-curvature="0"
       d="m 7.2543081,104.13285 a 0.59531249,0.59531249 0 1 0 0.5953125,0.59795 0.54768749,0.54768749 0 0 0 -0.5953125,-0.59795 z"
       id="path2672"
       style="stroke-width:0.26458332" />
    <path
       inkscape:connector-curvature="0"
       d="m 7.2543081,102.08497 a 0.59531249,0.59531249 0 1 0 0.5953125,0.59531 0.54768749,0.54768749 0 0 0 -0.5953125,-0.59531 z"
       id="path2674"
       style="stroke-width:0.26458332" />
    <g
       id="g2707"
       transform="matrix(0.26458333,0,0,0.26458333,31.719441,107.35331)">
      <path
         inkscape:connector-curvature="0"
         d="m 31.669922,18.930485 c 0.269531,0.200195 0.583008,0.296875 0.894531,0.296875 0.458008,0 0.910156,-0.208985 1.204102,-0.604492 3.859375,-5.1875 9.77539,-8.163086 16.231445,-8.163086 6.456055,0 12.37207,2.975586 16.231445,8.163086 0.494141,0.665039 1.432617,0.802734 2.098633,0.307617 0.664063,-0.494141 0.802735,-1.433594 0.307617,-2.098633 C 64.272461,10.963688 57.304687,7.4597821 50,7.4597821 c -7.305664,0 -14.273438,3.5039059 -18.637695,9.3720699 -0.495118,0.665039 -0.356446,1.604492 0.307617,2.098633 z"
         id="path2699" />
      <path
         inkscape:connector-curvature="0"
         d="m 60.450195,23.345524 c 0.476563,0.678711 1.411133,0.841797 2.089844,0.365234 0.677734,-0.476562 0.841797,-1.412109 0.365234,-2.089844 C 59.954102,17.419743 55.128906,14.910954 50,14.910954 c -5.128906,0 -9.953125,2.508789 -12.90625,6.70996 -0.475586,0.677735 -0.3125,1.613282 0.365234,2.089844 0.261719,0.183594 0.563477,0.272461 0.861328,0.272461 0.47168,0 0.936524,-0.22168 1.228516,-0.637695 2.391602,-3.40332 6.297852,-5.43457 10.451172,-5.43457 4.15332,0 8.05957,2.03125 10.450195,5.43457 z"
         id="path2701" />
      <path
         inkscape:connector-curvature="0"
         d="m 50,21.594547 c -3.163086,0 -6.144531,1.684571 -7.779297,4.396485 -0.427734,0.708984 -0.200195,1.630859 0.509766,2.058593 0.242187,0.146485 0.508789,0.215821 0.773437,0.215821 0.507813,0 1.003906,-0.258789 1.285156,-0.725586 1.112305,-1.84375 3.060547,-2.945313 5.210938,-2.945313 2.149414,0 4.09668,1.100586 5.208984,2.94336 0.426758,0.710937 1.351563,0.935547 2.058594,0.509765 0.709961,-0.427734 0.9375,-1.349609 0.509766,-2.058593 C 56.142578,23.278141 53.162109,21.594547 50,21.594547 Z"
         id="path2703" />
      <path
         inkscape:connector-curvature="0"
         d="m 78.732422,38.817203 c 0,-3.884765 -3.160156,-7.044921 -7.044922,-7.044921 h -43.375 c -3.884766,0 -7.044922,3.160156 -7.044922,7.044921 v 40.296879 c 0,0.384522 0.03925,0.759217 0.09882,1.127137 -0.06097,0.163269 -0.09882,0.337829 -0.09882,0.522277 v 4.732422 c 0,3.884766 3.160156,7.044922 7.044922,7.044922 h 43.375 c 3.884766,0 7.044922,-3.160156 7.044922,-7.044922 v -4.292969 c 0,-0.231323 -0.05676,-0.447814 -0.150391,-0.643554 0.09772,-0.466797 0.150391,-0.949951 0.150391,-1.445313 z m -54.464844,0 c 0,-2.230468 1.814453,-4.044921 4.044922,-4.044921 h 43.375 c 2.230469,0 4.044922,1.814453 4.044922,4.044921 v 40.296879 c 0,2.230469 -1.814453,4.044922 -4.044922,4.044922 h -43.375 c -2.230469,0 -4.044922,-1.814453 -4.044922,-4.044922 z M 71.6875,89.54084 h -43.375 c -2.230469,0 -4.044922,-1.814453 -4.044922,-4.044922 v -0.623047 c 1.146057,0.807434 2.53949,1.286133 4.044922,1.286133 h 43.375 c 1.505432,0 2.898865,-0.478699 4.044922,-1.286133 v 0.623047 c 0,2.230469 -1.814453,4.044922 -4.044922,4.044922 z"
         id="path2705" />
    </g>
    <rect
       style="opacity:0.7;fill:none;fill-opacity:0.01167315;stroke:#000000;stroke-width:0.77066356;stroke-linecap:round;stroke-linejoin:round;stroke-miterlimit:4;stroke-dasharray:none;stroke-dashoffset:0;stroke-opacity:1"
       id="rect2745"
       width="30.979338"
       height="4.5210032"
       x="88.830299"
       y="46.198738" />
    <rect
       y="58.616158"
       x="79.136116"
       height="9.1683006"
       width="51.501637"
       id="rect3552"
       style="opacity:0.7;fill:none;fill-opacity:0.01167315;stroke:#000000;stroke-width:1.41503215;stroke-linecap:round;stroke-linejoin:round;stroke-miterlimit:4;stroke-dasharray:none;stroke-dashoffset:0;stroke-opacity:1" />
  </g>
  <style
     id="style2697"
     type="text/css">
	.st0{fill:#1D1D1B;}
</style>
</svg>
