<?xml version="1.0" encoding="UTF-8" standalone="no"?>
<!-- Created with Inkscape (http://www.inkscape.org/) -->

<svg
   xmlns:dc="http://purl.org/dc/elements/1.1/"
   xmlns:cc="http://creativecommons.org/ns#"
   xmlns:rdf="http://www.w3.org/1999/02/22-rdf-syntax-ns#"
   xmlns:svg="http://www.w3.org/2000/svg"
   xmlns="http://www.w3.org/2000/svg"
   xmlns:xlink="http://www.w3.org/1999/xlink"
   xmlns:sodipodi="http://sodipodi.sourceforge.net/DTD/sodipodi-0.dtd"
   xmlns:inkscape="http://www.inkscape.org/namespaces/inkscape"
   width="141.11111mm"
   height="133.44943mm"
   viewBox="0 0 500.00001 472.85232"
   id="svg7922"
   version="1.1"
   inkscape:version="0.91 r13725"
   sodipodi:docname="civil-disobedience.svg">
  <defs
     id="defs7924">
    <clipPath
       clipPathUnits="userSpaceOnUse"
       id="clipPath6545-9">
      <rect
         style="opacity:1;fill:#cccccc;fill-opacity:1;stroke:none;stroke-width:0.2;stroke-linecap:round;stroke-linejoin:round;stroke-miterlimit:4;stroke-dasharray:none;stroke-dashoffset:0;stroke-opacity:1"
         id="rect6547-1"
         width="71.568138"
         height="71.568138"
         x="-196.50887"
         y="94.819542"
         rx="0"
         ry="0"
         transform="matrix(0.70710678,0.70710678,-0.70710678,0.70710678,0,0)" />
    </clipPath>
    <pattern
       patternTransform="matrix(10,0,0,10,-1275.1943,-1313.7954)"
       id="pattern5589"
       xlink:href="#Checkerboard"
       inkscape:collect="always" />
    <pattern
       inkscape:isstock="true"
       inkscape:collect="always"
       patternUnits="userSpaceOnUse"
       width="2"
       height="2"
       patternTransform="translate(0,0) scale(10,10)"
       id="Checkerboard"
       inkscape:stockid="Checkerboard">
      <rect
         style="fill:black;stroke:none"
         x="0"
         y="0"
         width="1"
         height="1"
         id="rect4940" />
      <rect
         style="fill:black;stroke:none"
         x="1"
         y="1"
         width="1"
         height="1"
         id="rect4942" />
    </pattern>
    <pattern
       id="pattern5586"
       patternTransform="translate(61.70704,503.49469)"
       height="65.735043"
       width="526.58585"
       patternUnits="userSpaceOnUse">
      <rect
         style="opacity:1;fill:url(#pattern5589);fill-opacity:1;stroke:#ececec;stroke-width:4.28598452;stroke-linecap:round;stroke-linejoin:round;stroke-miterlimit:4;stroke-dasharray:none;stroke-dashoffset:0;stroke-opacity:1"
         id="rect3336"
         width="366.2804"
         height="167.23994"
         x="159.36771"
         y="2.1429923"
         transform="matrix(1,0,-0.92365014,0.38323677,0,0)" />
    </pattern>
    <clipPath
       id="clipPath6545-9-7"
       clipPathUnits="userSpaceOnUse">
      <rect
         transform="matrix(0.70710678,0.70710678,-0.70710678,0.70710678,0,0)"
         ry="0"
         rx="0"
         y="94.819542"
         x="-196.50887"
         height="71.568138"
         width="71.568138"
         id="rect6547-1-5"
         style="opacity:1;fill:#cccccc;fill-opacity:1;stroke:none;stroke-width:0.2;stroke-linecap:round;stroke-linejoin:round;stroke-miterlimit:4;stroke-dasharray:none;stroke-dashoffset:0;stroke-opacity:1" />
    </clipPath>
    <pattern
       inkscape:collect="always"
       xlink:href="#Checkerboard-5"
       id="pattern5589-3"
       patternTransform="matrix(10,0,0,10,-1275.1943,-1313.7954)" />
    <pattern
       inkscape:stockid="Checkerboard"
       id="Checkerboard-5"
       patternTransform="translate(0,0) scale(10,10)"
       height="2"
       width="2"
       patternUnits="userSpaceOnUse"
       inkscape:collect="always"
       inkscape:isstock="true">
      <rect
         id="rect4940-6"
         height="1"
         width="1"
         y="0"
         x="0"
         style="fill:black;stroke:none" />
      <rect
         id="rect4942-2"
         height="1"
         width="1"
         y="1"
         x="1"
         style="fill:black;stroke:none" />
    </pattern>
    <pattern
       patternUnits="userSpaceOnUse"
       width="526.58585"
       height="65.735043"
       patternTransform="translate(61.70704,503.49469)"
       id="pattern5586-9">
      <rect
         transform="matrix(1,0,-0.92365014,0.38323677,0,0)"
         y="2.1429923"
         x="159.36771"
         height="167.23994"
         width="366.2804"
         id="rect3336-1"
         style="opacity:1;fill:url(#pattern5589-3);fill-opacity:1;stroke:#ececec;stroke-width:4.28598452;stroke-linecap:round;stroke-linejoin:round;stroke-miterlimit:4;stroke-dasharray:none;stroke-dashoffset:0;stroke-opacity:1" />
    </pattern>
    <filter
       height="1.1343421"
       y="-0.067171037"
       width="1.1084248"
       x="-0.054212399"
       id="filter14481"
       style="color-interpolation-filters:sRGB"
       inkscape:collect="always">
      <feGaussianBlur
         id="feGaussianBlur14483"
         stdDeviation="2.0329875"
         inkscape:collect="always" />
    </filter>
    <filter
       height="1.1292773"
       y="-0.064638704"
       width="1.1119649"
       x="-0.055982497"
       id="filter14549"
       style="color-interpolation-filters:sRGB"
       inkscape:collect="always">
      <feGaussianBlur
         id="feGaussianBlur14551"
         stdDeviation="1.772531"
         inkscape:collect="always" />
    </filter>
    <filter
       inkscape:collect="always"
       style="color-interpolation-filters:sRGB"
       id="filter39805"
       x="-0.067896568"
       width="1.1357931"
       y="-0.053748852"
       height="1.1074977">
      <feGaussianBlur
         inkscape:collect="always"
         stdDeviation="11.46575"
         id="feGaussianBlur39807" />
    </filter>
    <clipPath
       id="clipPath6545-9-6"
       clipPathUnits="userSpaceOnUse">
      <rect
         transform="matrix(0.70710678,0.70710678,-0.70710678,0.70710678,0,0)"
         ry="0"
         rx="0"
         y="94.819542"
         x="-196.50887"
         height="71.568138"
         width="71.568138"
         id="rect6547-1-0"
         style="opacity:1;fill:#cccccc;fill-opacity:1;stroke:none;stroke-width:0.2;stroke-linecap:round;stroke-linejoin:round;stroke-miterlimit:4;stroke-dasharray:none;stroke-dashoffset:0;stroke-opacity:1" />
    </clipPath>
    <pattern
       inkscape:collect="always"
       xlink:href="#Checkerboard-2"
       id="pattern5589-6"
       patternTransform="matrix(10,0,0,10,-1275.1943,-1313.7954)" />
    <pattern
       inkscape:stockid="Checkerboard"
       id="Checkerboard-2"
       patternTransform="translate(0,0) scale(10,10)"
       height="2"
       width="2"
       patternUnits="userSpaceOnUse"
       inkscape:collect="always"
       inkscape:isstock="true">
      <rect
         id="rect4940-61"
         height="1"
         width="1"
         y="0"
         x="0"
         style="fill:black;stroke:none" />
      <rect
         id="rect4942-8"
         height="1"
         width="1"
         y="1"
         x="1"
         style="fill:black;stroke:none" />
    </pattern>
    <pattern
       patternUnits="userSpaceOnUse"
       width="526.58585"
       height="65.735043"
       patternTransform="translate(61.70704,503.49469)"
       id="pattern5586-7">
      <rect
         transform="matrix(1,0,-0.92365014,0.38323677,0,0)"
         y="2.1429923"
         x="159.36771"
         height="167.23994"
         width="366.2804"
         id="rect3336-9"
         style="opacity:1;fill:url(#pattern5589-6);fill-opacity:1;stroke:#ececec;stroke-width:4.28598452;stroke-linecap:round;stroke-linejoin:round;stroke-miterlimit:4;stroke-dasharray:none;stroke-dashoffset:0;stroke-opacity:1" />
    </pattern>
  </defs>
  <sodipodi:namedview
     id="base"
     pagecolor="#ffffff"
     bordercolor="#666666"
     borderopacity="1.0"
     inkscape:pageopacity="0.0"
     inkscape:pageshadow="2"
     inkscape:zoom="1.4"
     inkscape:cx="779.23235"
     inkscape:cy="-26.690725"
     inkscape:document-units="px"
     inkscape:current-layer="layer1"
     showgrid="false"
     inkscape:window-width="1366"
     inkscape:window-height="713"
     inkscape:window-x="0"
     inkscape:window-y="27"
     inkscape:window-maximized="1"
     fit-margin-top="0"
     fit-margin-left="0"
     fit-margin-right="0"
     fit-margin-bottom="0"
     showborder="false"
     showguides="true"
     inkscape:guide-bbox="true" />
  <metadata
     id="metadata7927">
    <rdf:RDF>
      <cc:Work
         rdf:about="">
        <dc:format>image/svg+xml</dc:format>
        <dc:type
           rdf:resource="http://purl.org/dc/dcmitype/StillImage" />
        <dc:title></dc:title>
      </cc:Work>
    </rdf:RDF>
  </metadata>
  <g
     inkscape:label="Layer 1"
     inkscape:groupmode="layer"
     id="layer1"
     transform="translate(-136.9812,-31.833646)">
    <circle
       style="opacity:1;fill:#4d4d4d;fill-opacity:0;stroke:#1a1a1a;stroke-width:2.7829814;stroke-linecap:round;stroke-linejoin:round;stroke-miterlimit:4;stroke-dasharray:none;stroke-dashoffset:0;stroke-opacity:0"
       id="path14781"
       cx="1315.0562"
       cy="283.60831"
       r="152.12077" />
    <circle
       style="opacity:1;fill:#4d4d4d;fill-opacity:0;stroke:#1a1a1a;stroke-width:2.7829814;stroke-linecap:round;stroke-linejoin:round;stroke-miterlimit:4;stroke-dasharray:none;stroke-dashoffset:0;stroke-opacity:0"
       id="path14781-3"
       cx="1404.8911"
       cy="690.505"
       r="152.12077" />
    <g
       id="g40888"
       transform="matrix(1.0079168,0,0,1.0079168,-6.2793496,-5.0057012)"
       inkscape:export-xdpi="90"
       inkscape:export-ydpi="90">
      <text
         xml:space="preserve"
         style="font-style:normal;font-weight:normal;font-size:30.80823708px;line-height:125%;font-family:sans-serif;text-align:center;letter-spacing:0px;word-spacing:0px;text-anchor:middle;fill:#000000;fill-opacity:1;stroke:none;stroke-width:1px;stroke-linecap:butt;stroke-linejoin:miter;stroke-opacity:1"
         x="853.8064"
         y="547.30615"
         id="text14643"
         sodipodi:linespacing="125%"><tspan
           sodipodi:role="line"
           id="tspan14645"
           x="857.03882"
           y="547.30615"
           style="font-style:normal;font-variant:normal;font-weight:bold;font-stretch:normal;font-size:10px;font-family:Purisa;-inkscape-font-specification:'Purisa Bold';text-align:center;text-anchor:middle">Non-Violent protest </tspan><tspan
           id="tspan39841"
           sodipodi:role="line"
           x="857.03882"
           y="559.80615"
           style="font-style:normal;font-variant:normal;font-weight:bold;font-stretch:normal;font-size:10px;font-family:Purisa;-inkscape-font-specification:'Purisa Bold';text-align:center;text-anchor:middle">&amp; </tspan><tspan
           id="tspan39843"
           sodipodi:role="line"
           x="853.8064"
           y="572.30615"
           style="font-style:normal;font-variant:normal;font-weight:bold;font-stretch:normal;font-size:10px;font-family:Purisa;-inkscape-font-specification:'Purisa Bold';text-align:center;text-anchor:middle">Demonstrations</tspan></text>
      <text
         xml:space="preserve"
         style="font-style:normal;font-weight:normal;font-size:30.80823708px;line-height:125%;font-family:sans-serif;text-align:center;letter-spacing:0px;word-spacing:0px;text-anchor:middle;fill:#000000;fill-opacity:1;stroke:none;stroke-width:1px;stroke-linecap:butt;stroke-linejoin:miter;stroke-opacity:1"
         x="1334.4139"
         y="559.52112"
         id="text14651"
         sodipodi:linespacing="125%"><tspan
           sodipodi:role="line"
           id="tspan14653"
           x="1334.4139"
           y="559.52112"
           style="font-style:normal;font-variant:normal;font-weight:bold;font-stretch:normal;font-size:12.15513039px;font-family:Purisa;-inkscape-font-specification:'Purisa Bold';text-align:center;text-anchor:middle">government</tspan></text>
      <g
         transform="translate(0,3.4216858)"
         id="g39827">
        <g
           style="fill:#333333;filter:url(#filter14549)"
           transform="matrix(1.2792688,0,0,1.2792688,790.08917,423.22442)"
           id="g14515">
          <path
             style="fill:#333333"
             id="path14517"
             d="m 86.812,55.433 c -0.073,-0.011 -0.143,-0.015 -0.21,-0.017 l 0,-3.293 -0.817,0 0,3.568 c -0.24,0.211 -0.413,0.538 -0.511,0.975 -0.563,2.525 -2.106,4.123 -4.572,4.777 0.475,-0.503 0.774,-1.246 0.774,-2.078 0,-1.518 -0.998,-2.749 -2.229,-2.749 -1.231,0 -2.229,1.231 -2.229,2.749 0,1.178 0.601,2.178 1.443,2.57 -0.527,0.1 -1.056,0.192 -1.585,0.281 -1.27,0.211 -2.352,-0.24 -3.181,-0.919 0.528,-1.179 1.071,-2.231 1.474,-3.335 0.315,-0.867 -0.076,-1.572 -0.816,-1.783 -0.777,-0.223 -1.381,0.21 -1.698,1.125 -0.22,0.636 -0.527,1.242 -0.859,2.007 C 71.457,58.804 71.24,58.48 71.024,58.156 70.53,57.418 69.85,57.215 69.19,57.605 c -0.674,0.396 -0.828,1.156 -0.372,1.93 0.284,0.48 0.599,0.943 0.912,1.436 -1.094,0.623 -2.241,0.771 -3.391,0.85 0.882,-0.366 1.519,-1.393 1.519,-2.604 0,-1.519 -0.998,-2.749 -2.229,-2.749 -1.23,0 -2.229,1.23 -2.229,2.749 0,1.299 0.731,2.386 1.715,2.672 -1.717,0.533 -3.212,0.167 -4.386,-0.972 0.49,-0.94 0.992,-1.781 1.373,-2.673 0.335,-0.785 -0.01,-1.508 -0.707,-1.771 -0.714,-0.269 -1.361,0.062 -1.715,0.856 -0.195,0.436 -0.418,0.857 -0.693,1.421 -0.258,-0.476 -0.43,-0.796 -0.605,-1.116 -0.447,-0.812 -1.126,-1.085 -1.836,-0.736 -0.698,0.343 -0.903,1.09 -0.492,1.912 0.284,0.569 0.608,1.118 0.983,1.801 -0.688,0.223 -1.301,0.554 -1.935,0.602 -0.604,0.045 -1.207,0.077 -1.812,0.105 0.816,-0.409 1.393,-1.395 1.393,-2.548 0,-1.518 -0.997,-2.748 -2.229,-2.748 -1.232,0 -2.229,1.23 -2.229,2.748 0,1.204 0.629,2.226 1.503,2.597 -0.578,0.012 -1.156,0.016 -1.733,0.008 -0.944,-0.012 -1.727,-0.538 -2.316,-1.157 0.854,-1.086 1.478,-2.241 1.646,-3.59 0.079,-0.635 -0.452,-1.218 -1.083,-1.3 -0.675,-0.089 -1.158,0.215 -1.413,0.834 -0.238,0.578 -0.434,1.172 -0.716,1.947 -0.31,-0.68 -0.535,-1.168 -0.754,-1.659 -0.101,-0.225 -0.222,-0.412 -0.358,-0.562 l 0,-3.989 -0.817,0 0,3.577 c -0.188,-0.01 -0.386,0.023 -0.59,0.109 -0.72,0.303 -0.985,1.033 -0.632,1.863 0.355,0.838 0.754,1.658 1.193,2.617 -0.7,0.248 -1.37,0.58 -2.078,0.714 -0.439,0.084 -0.883,0.145 -1.329,0.196 0.822,-0.404 1.404,-1.395 1.404,-2.553 0,-1.518 -0.998,-2.748 -2.229,-2.748 -1.231,0 -2.229,1.23 -2.229,2.748 0,1.321 0.756,2.425 1.764,2.688 -0.229,0.022 -0.459,0.048 -0.688,0.073 l 0.011,10e-4 c -1.765,0.396 -3.208,-0.159 -4.265,-1.327 0.463,-1.104 0.945,-2.094 1.292,-3.132 0.172,-0.515 0.04,-0.986 -0.275,-1.304 L 46.456,31.595 c 0.195,-0.429 0.431,-0.567 0.897,-0.538 4.111,0.26 7.441,2.013 9.805,5.369 2.99,4.248 7.131,5.811 12.139,5.593 0.47,-0.021 0.736,-0.192 0.952,-0.641 2.169,-4.525 4.366,-9.038 6.554,-13.555 0.092,-0.189 0.157,-0.392 0.248,-0.621 -0.523,0 -0.966,10e-4 -1.409,0 -4.734,-0.015 -8.585,-1.705 -11.355,-5.71 -1.826,-2.642 -4.399,-4.336 -7.573,-4.963 -1.366,-0.27 -2.778,-0.301 -4.166,-0.44 -3.422,7.458 -13.465,29.357 -17.857,38.942 -0.62,-0.061 -1.148,0.33 -1.385,1.036 -0.147,0.437 -0.311,0.867 -0.502,1.397 -0.16,-0.275 -0.262,-0.441 -0.356,-0.611 -0.266,-0.479 -0.626,-0.778 -1.017,-0.875 l 0,-3.685 -0.817,0 0,3.78 c -0.02,0.009 -0.039,0.017 -0.058,0.027 -0.657,0.353 -0.836,1.121 -0.43,1.936 0.249,0.5 0.526,0.986 0.867,1.621 -0.891,0.314 -1.678,0.691 -2.508,0.863 -0.227,0.047 -0.456,0.084 -0.687,0.116 0.522,-0.503 0.859,-1.284 0.859,-2.166 0,-1.518 -0.998,-2.748 -2.229,-2.748 -1.231,0 -2.229,1.23 -2.229,2.748 0,1.038 0.467,1.941 1.156,2.409 -1.894,0.484 -3.411,-0.215 -4.6,-1.668 -0.684,-0.835 -1.217,-1.797 -1.786,-2.721 -0.333,-0.541 -0.795,-0.841 -1.282,-0.83 l 0,-4.111 -0.817,0 0,4.436 c -0.449,0.39 -0.558,1.04 -0.22,1.71 0.311,0.617 0.656,1.222 1.036,1.799 1.181,1.798 2.629,3.284 4.779,3.9 0.304,0.087 0.612,0.159 0.913,0.238 0.015,0.205 0.034,0.353 0.034,0.499 0.013,3.985 0.025,7.972 0.035,11.957 0.003,1.139 -0.073,2.284 0.038,3.413 0.042,0.429 0.427,0.99 0.807,1.17 0.345,0.163 1.01,0.026 1.324,-0.232 0.298,-0.245 0.442,-0.819 0.45,-1.253 0.04,-2.228 0.013,-4.456 0.013,-6.684 0,-0.263 0.026,-0.524 0.039,-0.785 0.414,0 0.748,0 1.16,0 0,1.382 0,2.713 0,4.044 -10e-4,1.238 -0.021,2.477 0.002,3.715 0.015,0.795 0.567,1.343 1.288,1.356 0.719,0.014 1.27,-0.532 1.324,-1.32 0.015,-0.223 0.006,-0.446 0.006,-0.668 -0.002,-5.077 -0.006,-10.151 -0.008,-15.227 0,-0.238 0,-0.479 0,-0.625 0.846,-0.428 1.589,-0.816 2.347,-1.176 0.142,-0.066 0.411,-0.09 0.501,-0.005 1.164,1.095 2.509,1.829 4.125,2.083 0,0.355 0,0.65 0,0.946 0.004,5.075 0.006,10.151 0.012,15.227 10e-4,1.107 0.458,1.693 1.314,1.706 0.864,0.014 1.33,-0.567 1.333,-1.67 0.003,-1.114 0.001,-2.229 0.001,-3.342 0,-1.157 0,-2.315 0,-3.479 0.437,0 0.791,0 1.194,0 0,0.222 0,0.392 0,0.562 -10e-4,2.03 -0.008,4.06 0.001,6.09 0.004,0.854 0.518,1.422 1.27,1.451 0.772,0.031 1.333,-0.552 1.373,-1.431 0.007,-0.148 0.003,-0.297 0.003,-0.446 -10e-4,-5.075 0.018,-10.151 -0.026,-15.226 -0.006,-0.799 0.109,-1.301 0.969,-1.477 0.35,-0.072 0.687,-0.287 0.99,-0.494 0.346,-0.238 0.562,-0.159 0.904,0.067 0.775,0.514 1.593,0.979 2.442,1.358 0.403,0.181 0.51,0.334 0.453,0.752 -0.68,5.021 -0.579,10.073 -0.563,15.121 0.003,0.99 0.489,1.559 1.292,1.568 0.828,0.009 1.32,-0.58 1.328,-1.608 0.008,-1.04 0.002,-2.079 0.002,-3.119 0,-1.381 0,-2.763 0,-4.238 0.471,0.053 0.867,0.097 1.295,0.146 0,0.361 0,0.631 0,0.901 0.002,2.253 -0.008,4.506 0.008,6.759 0.006,0.803 0.539,1.336 1.276,1.355 0.729,0.019 1.278,-0.502 1.351,-1.295 0.016,-0.172 -0.002,-0.347 10e-4,-0.521 0.062,-3.81 0.094,-7.619 0.2,-11.429 0.042,-1.448 0.252,-2.892 0.377,-4.233 1.088,-0.437 2.066,-0.829 3.098,-1.24 1.102,1.081 2.455,1.799 4.075,2.044 0,0.302 0,0.547 0,0.792 0.003,2.995 0.007,5.99 0.009,8.986 10e-4,2.006 -0.011,4.011 0.004,6.016 0.007,0.868 0.518,1.393 1.299,1.404 0.764,0.011 1.288,-0.525 1.34,-1.378 0.01,-0.174 0.002,-0.347 0.002,-0.521 0,-2.129 0,-4.259 -0.002,-6.388 0,-0.262 0,-0.523 0,-0.78 0.452,0 0.789,0 1.201,0 0,0.312 0,0.578 0,0.844 -0.003,2.278 -0.016,4.556 -0.003,6.834 0.005,0.936 0.665,1.508 1.526,1.375 0.716,-0.109 1.077,-0.641 1.077,-1.611 0.001,-5.15 -0.002,-10.3 -0.005,-15.449 0,-0.271 0,-0.539 0,-0.768 0.707,-0.335 1.345,-0.658 2.004,-0.931 0.158,-0.066 0.408,-0.006 0.579,0.074 0.22,0.102 0.385,0.324 0.605,0.422 1.157,0.509 2.326,0.994 3.692,1.572 0.148,2.817 0.349,5.877 0.456,8.94 0.071,2.002 -0.001,4.01 0.013,6.015 0.006,0.816 0.523,1.344 1.264,1.358 0.736,0.016 1.276,-0.507 1.334,-1.303 0.018,-0.247 0.009,-0.495 0.008,-0.742 -0.001,-1.981 -0.008,-3.962 -0.007,-5.942 0,-0.262 0.025,-0.523 0.042,-0.82 0.421,0 0.755,0 1.165,0 0,0.453 0,0.869 0,1.285 -0.002,2.055 -0.022,4.109 0.006,6.164 0.011,0.857 0.584,1.379 1.353,1.357 0.706,-0.021 1.266,-0.543 1.253,-1.298 -0.068,-4.106 -0.146,-8.212 -0.264,-12.316 -0.041,-1.424 -0.205,-2.845 -0.312,-4.249 0.392,-0.195 0.732,-0.346 1.053,-0.529 2.356,-1.341 3.793,-3.35 4.297,-6.01 C 88,56.194 87.579,55.548 86.812,55.433 Z"
             inkscape:connector-curvature="0" />
          <rect
             style="fill:#333333"
             id="rect14519"
             height="17.458"
             width="11.812"
             y="33.687"
             x="11.875" />
          <rect
             style="fill:#333333"
             id="rect14521"
             height="11.195"
             width="7.8740001"
             y="40.669998"
             x="27.42" />
          <path
             style="fill:#333333"
             id="path14523"
             d="m 70.882,42.341 c -0.238,0.497 -0.533,0.687 -1.055,0.709 -4.617,0.202 -8.568,-0.965 -11.674,-4.071 l -14.65,0 0,12.5 43.533,0 0,-12.5 -14.537,0 c -0.54,1.12 -1.079,2.24 -1.617,3.362 z"
             inkscape:connector-curvature="0" />
        </g>
        <g
           id="g13246"
           transform="matrix(1.2792688,0,0,1.2792688,790.08917,423.22442)"
           style="fill:#4d4d4d">
          <path
             inkscape:connector-curvature="0"
             d="m 86.812,55.433 c -0.073,-0.011 -0.143,-0.015 -0.21,-0.017 l 0,-3.293 -0.817,0 0,3.568 c -0.24,0.211 -0.413,0.538 -0.511,0.975 -0.563,2.525 -2.106,4.123 -4.572,4.777 0.475,-0.503 0.774,-1.246 0.774,-2.078 0,-1.518 -0.998,-2.749 -2.229,-2.749 -1.231,0 -2.229,1.231 -2.229,2.749 0,1.178 0.601,2.178 1.443,2.57 -0.527,0.1 -1.056,0.192 -1.585,0.281 -1.27,0.211 -2.352,-0.24 -3.181,-0.919 0.528,-1.179 1.071,-2.231 1.474,-3.335 0.315,-0.867 -0.076,-1.572 -0.816,-1.783 -0.777,-0.223 -1.381,0.21 -1.698,1.125 -0.22,0.636 -0.527,1.242 -0.859,2.007 C 71.457,58.804 71.24,58.48 71.024,58.156 70.53,57.418 69.85,57.215 69.19,57.605 c -0.674,0.396 -0.828,1.156 -0.372,1.93 0.284,0.48 0.599,0.943 0.912,1.436 -1.094,0.623 -2.241,0.771 -3.391,0.85 0.882,-0.366 1.519,-1.393 1.519,-2.604 0,-1.519 -0.998,-2.749 -2.229,-2.749 -1.23,0 -2.229,1.23 -2.229,2.749 0,1.299 0.731,2.386 1.715,2.672 -1.717,0.533 -3.212,0.167 -4.386,-0.972 0.49,-0.94 0.992,-1.781 1.373,-2.673 0.335,-0.785 -0.01,-1.508 -0.707,-1.771 -0.714,-0.269 -1.361,0.062 -1.715,0.856 -0.195,0.436 -0.418,0.857 -0.693,1.421 -0.258,-0.476 -0.43,-0.796 -0.605,-1.116 -0.447,-0.812 -1.126,-1.085 -1.836,-0.736 -0.698,0.343 -0.903,1.09 -0.492,1.912 0.284,0.569 0.608,1.118 0.983,1.801 -0.688,0.223 -1.301,0.554 -1.935,0.602 -0.604,0.045 -1.207,0.077 -1.812,0.105 0.816,-0.409 1.393,-1.395 1.393,-2.548 0,-1.518 -0.997,-2.748 -2.229,-2.748 -1.232,0 -2.229,1.23 -2.229,2.748 0,1.204 0.629,2.226 1.503,2.597 -0.578,0.012 -1.156,0.016 -1.733,0.008 -0.944,-0.012 -1.727,-0.538 -2.316,-1.157 0.854,-1.086 1.478,-2.241 1.646,-3.59 0.079,-0.635 -0.452,-1.218 -1.083,-1.3 -0.675,-0.089 -1.158,0.215 -1.413,0.834 -0.238,0.578 -0.434,1.172 -0.716,1.947 -0.31,-0.68 -0.535,-1.168 -0.754,-1.659 -0.101,-0.225 -0.222,-0.412 -0.358,-0.562 l 0,-3.989 -0.817,0 0,3.577 c -0.188,-0.01 -0.386,0.023 -0.59,0.109 -0.72,0.303 -0.985,1.033 -0.632,1.863 0.355,0.838 0.754,1.658 1.193,2.617 -0.7,0.248 -1.37,0.58 -2.078,0.714 -0.439,0.084 -0.883,0.145 -1.329,0.196 0.822,-0.404 1.404,-1.395 1.404,-2.553 0,-1.518 -0.998,-2.748 -2.229,-2.748 -1.231,0 -2.229,1.23 -2.229,2.748 0,1.321 0.756,2.425 1.764,2.688 -0.229,0.022 -0.459,0.048 -0.688,0.073 l 0.011,10e-4 c -1.765,0.396 -3.208,-0.159 -4.265,-1.327 0.463,-1.104 0.945,-2.094 1.292,-3.132 0.172,-0.515 0.04,-0.986 -0.275,-1.304 L 46.456,31.595 c 0.195,-0.429 0.431,-0.567 0.897,-0.538 4.111,0.26 7.441,2.013 9.805,5.369 2.99,4.248 7.131,5.811 12.139,5.593 0.47,-0.021 0.736,-0.192 0.952,-0.641 2.169,-4.525 4.366,-9.038 6.554,-13.555 0.092,-0.189 0.157,-0.392 0.248,-0.621 -0.523,0 -0.966,10e-4 -1.409,0 -4.734,-0.015 -8.585,-1.705 -11.355,-5.71 -1.826,-2.642 -4.399,-4.336 -7.573,-4.963 -1.366,-0.27 -2.778,-0.301 -4.166,-0.44 -3.422,7.458 -13.465,29.357 -17.857,38.942 -0.62,-0.061 -1.148,0.33 -1.385,1.036 -0.147,0.437 -0.311,0.867 -0.502,1.397 -0.16,-0.275 -0.262,-0.441 -0.356,-0.611 -0.266,-0.479 -0.626,-0.778 -1.017,-0.875 l 0,-3.685 -0.817,0 0,3.78 c -0.02,0.009 -0.039,0.017 -0.058,0.027 -0.657,0.353 -0.836,1.121 -0.43,1.936 0.249,0.5 0.526,0.986 0.867,1.621 -0.891,0.314 -1.678,0.691 -2.508,0.863 -0.227,0.047 -0.456,0.084 -0.687,0.116 0.522,-0.503 0.859,-1.284 0.859,-2.166 0,-1.518 -0.998,-2.748 -2.229,-2.748 -1.231,0 -2.229,1.23 -2.229,2.748 0,1.038 0.467,1.941 1.156,2.409 -1.894,0.484 -3.411,-0.215 -4.6,-1.668 -0.684,-0.835 -1.217,-1.797 -1.786,-2.721 -0.333,-0.541 -0.795,-0.841 -1.282,-0.83 l 0,-4.111 -0.817,0 0,4.436 c -0.449,0.39 -0.558,1.04 -0.22,1.71 0.311,0.617 0.656,1.222 1.036,1.799 1.181,1.798 2.629,3.284 4.779,3.9 0.304,0.087 0.612,0.159 0.913,0.238 0.015,0.205 0.034,0.353 0.034,0.499 0.013,3.985 0.025,7.972 0.035,11.957 0.003,1.139 -0.073,2.284 0.038,3.413 0.042,0.429 0.427,0.99 0.807,1.17 0.345,0.163 1.01,0.026 1.324,-0.232 0.298,-0.245 0.442,-0.819 0.45,-1.253 0.04,-2.228 0.013,-4.456 0.013,-6.684 0,-0.263 0.026,-0.524 0.039,-0.785 0.414,0 0.748,0 1.16,0 0,1.382 0,2.713 0,4.044 -10e-4,1.238 -0.021,2.477 0.002,3.715 0.015,0.795 0.567,1.343 1.288,1.356 0.719,0.014 1.27,-0.532 1.324,-1.32 0.015,-0.223 0.006,-0.446 0.006,-0.668 -0.002,-5.077 -0.006,-10.151 -0.008,-15.227 0,-0.238 0,-0.479 0,-0.625 0.846,-0.428 1.589,-0.816 2.347,-1.176 0.142,-0.066 0.411,-0.09 0.501,-0.005 1.164,1.095 2.509,1.829 4.125,2.083 0,0.355 0,0.65 0,0.946 0.004,5.075 0.006,10.151 0.012,15.227 10e-4,1.107 0.458,1.693 1.314,1.706 0.864,0.014 1.33,-0.567 1.333,-1.67 0.003,-1.114 0.001,-2.229 0.001,-3.342 0,-1.157 0,-2.315 0,-3.479 0.437,0 0.791,0 1.194,0 0,0.222 0,0.392 0,0.562 -10e-4,2.03 -0.008,4.06 0.001,6.09 0.004,0.854 0.518,1.422 1.27,1.451 0.772,0.031 1.333,-0.552 1.373,-1.431 0.007,-0.148 0.003,-0.297 0.003,-0.446 -10e-4,-5.075 0.018,-10.151 -0.026,-15.226 -0.006,-0.799 0.109,-1.301 0.969,-1.477 0.35,-0.072 0.687,-0.287 0.99,-0.494 0.346,-0.238 0.562,-0.159 0.904,0.067 0.775,0.514 1.593,0.979 2.442,1.358 0.403,0.181 0.51,0.334 0.453,0.752 -0.68,5.021 -0.579,10.073 -0.563,15.121 0.003,0.99 0.489,1.559 1.292,1.568 0.828,0.009 1.32,-0.58 1.328,-1.608 0.008,-1.04 0.002,-2.079 0.002,-3.119 0,-1.381 0,-2.763 0,-4.238 0.471,0.053 0.867,0.097 1.295,0.146 0,0.361 0,0.631 0,0.901 0.002,2.253 -0.008,4.506 0.008,6.759 0.006,0.803 0.539,1.336 1.276,1.355 0.729,0.019 1.278,-0.502 1.351,-1.295 0.016,-0.172 -0.002,-0.347 10e-4,-0.521 0.062,-3.81 0.094,-7.619 0.2,-11.429 0.042,-1.448 0.252,-2.892 0.377,-4.233 1.088,-0.437 2.066,-0.829 3.098,-1.24 1.102,1.081 2.455,1.799 4.075,2.044 0,0.302 0,0.547 0,0.792 0.003,2.995 0.007,5.99 0.009,8.986 10e-4,2.006 -0.011,4.011 0.004,6.016 0.007,0.868 0.518,1.393 1.299,1.404 0.764,0.011 1.288,-0.525 1.34,-1.378 0.01,-0.174 0.002,-0.347 0.002,-0.521 0,-2.129 0,-4.259 -0.002,-6.388 0,-0.262 0,-0.523 0,-0.78 0.452,0 0.789,0 1.201,0 0,0.312 0,0.578 0,0.844 -0.003,2.278 -0.016,4.556 -0.003,6.834 0.005,0.936 0.665,1.508 1.526,1.375 0.716,-0.109 1.077,-0.641 1.077,-1.611 0.001,-5.15 -0.002,-10.3 -0.005,-15.449 0,-0.271 0,-0.539 0,-0.768 0.707,-0.335 1.345,-0.658 2.004,-0.931 0.158,-0.066 0.408,-0.006 0.579,0.074 0.22,0.102 0.385,0.324 0.605,0.422 1.157,0.509 2.326,0.994 3.692,1.572 0.148,2.817 0.349,5.877 0.456,8.94 0.071,2.002 -0.001,4.01 0.013,6.015 0.006,0.816 0.523,1.344 1.264,1.358 0.736,0.016 1.276,-0.507 1.334,-1.303 0.018,-0.247 0.009,-0.495 0.008,-0.742 -0.001,-1.981 -0.008,-3.962 -0.007,-5.942 0,-0.262 0.025,-0.523 0.042,-0.82 0.421,0 0.755,0 1.165,0 0,0.453 0,0.869 0,1.285 -0.002,2.055 -0.022,4.109 0.006,6.164 0.011,0.857 0.584,1.379 1.353,1.357 0.706,-0.021 1.266,-0.543 1.253,-1.298 -0.068,-4.106 -0.146,-8.212 -0.264,-12.316 -0.041,-1.424 -0.205,-2.845 -0.312,-4.249 0.392,-0.195 0.732,-0.346 1.053,-0.529 2.356,-1.341 3.793,-3.35 4.297,-6.01 C 88,56.194 87.579,55.548 86.812,55.433 Z"
             id="path13248"
             style="fill:#4d4d4d" />
          <rect
             x="11.875"
             y="33.687"
             width="11.812"
             height="17.458"
             id="rect13250"
             style="fill:#4d4d4d" />
          <rect
             x="27.42"
             y="40.669998"
             width="7.8740001"
             height="11.195"
             id="rect13252"
             style="fill:#4d4d4d" />
          <path
             inkscape:connector-curvature="0"
             d="m 70.882,42.341 c -0.238,0.497 -0.533,0.687 -1.055,0.709 -4.617,0.202 -8.568,-0.965 -11.674,-4.071 l -14.65,0 0,12.5 43.533,0 0,-12.5 -14.537,0 c -0.54,1.12 -1.079,2.24 -1.617,3.362 z"
             id="path13254"
             style="fill:#4d4d4d" />
        </g>
      </g>
      <g
         transform="matrix(1.0826054,0,0,1.0826054,-874.66465,163.2824)"
         id="g14485">
        <g
           id="g13581"
           transform="translate(1990.5443,255.04835)"
           style="filter:url(#filter14481)">
          <path
             inkscape:connector-curvature="0"
             d="m 9.63,66.229 3.004,0 0,-5.619 -3.004,0 0,5.619 z m 0.914,-4.706 1.176,0 0,3.789 -1.176,0 0,-3.789 z"
             id="path13583" />
          <path
             inkscape:connector-curvature="0"
             d="m 9.63,72.57 3.004,0 0,-5.616 -3.004,0 0,5.616 z m 0.914,-4.702 1.176,0 0,3.788 -1.176,0 0,-3.788 z"
             id="path13585" />
          <path
             inkscape:connector-curvature="0"
             d="m 14.034,66.229 3.003,0 0,-5.619 -3.003,0 0,5.619 z m 0.914,-4.706 1.175,0 0,3.789 -1.175,0 0,-3.789 z"
             id="path13587" />
          <path
             inkscape:connector-curvature="0"
             d="m 18.438,66.229 3.003,0 0,-5.619 -3.003,0 0,5.619 z m 0.914,-4.706 1.175,0 0,3.789 -1.175,0 0,-3.789 z"
             id="path13589-3" />
          <path
             inkscape:connector-curvature="0"
             d="m 14.034,72.57 3.003,0 0,-5.616 -3.003,0 0,5.616 z m 0.914,-4.702 1.175,0 0,3.788 -1.175,0 0,-3.788 z"
             id="path13591-6" />
          <path
             inkscape:connector-curvature="0"
             d="m 18.438,72.57 3.003,0 0,-5.616 -3.003,0 0,5.616 z m 0.914,-4.702 1.175,0 0,3.788 -1.175,0 0,-3.788 z"
             id="path13593-7" />
          <path
             inkscape:connector-curvature="0"
             d="m 81.448,60.609 -3.003,0 0,5.617 3.003,0 0,-5.617 z m -0.914,4.703 -1.175,0 0,-3.789 1.175,0 0,3.789 z"
             id="path13595" />
          <path
             inkscape:connector-curvature="0"
             d="m 85.852,60.609 -3.004,0 0,5.617 3.004,0 0,-5.617 z m -0.914,4.703 -1.176,0 0,-3.789 1.176,0 0,3.789 z"
             id="path13597" />
          <path
             inkscape:connector-curvature="0"
             d="m 90.255,60.609 -3.004,0 0,5.617 3.004,0 0,-5.617 z m -0.914,4.703 -1.176,0 0,-3.789 1.176,0 0,3.789 z"
             id="path13599-5" />
          <path
             inkscape:connector-curvature="0"
             d="m 81.448,66.954 -3.003,0 0,5.616 3.003,0 0,-5.616 z m -0.914,4.702 -1.175,0 0,-3.788 1.175,0 0,3.788 z"
             id="path13601-3" />
          <path
             inkscape:connector-curvature="0"
             d="m 85.852,66.954 -3.004,0 0,5.616 3.004,0 0,-5.616 z m -0.914,4.702 -1.176,0 0,-3.788 1.176,0 0,3.788 z"
             id="path13603" />
          <path
             inkscape:connector-curvature="0"
             d="m 90.255,66.954 -3.004,0 0,5.616 3.004,0 0,-5.616 z m -0.914,4.702 -1.176,0 0,-3.788 1.176,0 0,3.788 z"
             id="path13605-5" />
          <path
             inkscape:connector-curvature="0"
             d="m 93.523,56.434 0,0.002 -16.27,0 0,-1.74 0.597,0 0,-3.782 -1.578,0 C 75.874,40.378 69.221,31.358 59.968,27.465 l 0,-1.36 0.052,-0.003 -0.052,0 0,-0.768 -3.644,0 0,-2.955 -5.227,0 0,-2.979 1.317,0 0,1.115 5.537,0 0,-6.811 -2.709,0 0,-1.115 -4.146,0 0,-0.079 -1.871,0 0,9.868 -5.52,0 0,2.955 -3.642,0 0,1.958 c -9.479,3.79 -16.338,12.92 -16.744,23.622 l -1.138,0 0,3.782 0.597,0 0,1.74 -16.268,0 -1.493,0 0,2.888 1.493,0 0,20.153 13.137,0 0,1.887 -2.986,0 0,3.785 66.711,0 0,-3.785 -2.983,0 0,-1.887 13.135,0 0,-20.154 1.494,0 0,-2.889 -1.495,0 z m -38.279,-41.817 1.795,0 0,4.983 -3.709,0 0,-0.201 0,-0.457 0,-0.457 0,-3.868 1,0 0.457,0 0.457,0 z m -4.144,-1.115 3.23,0 0,0.201 -1.914,0 0,4.782 -1.316,0 0,-4.983 z m 24.261,37.41 -4.806,0 C 70.525,39.329 63.76,31.424 60.031,28.494 c 8.705,3.848 14.938,12.419 15.33,22.418 z m -5.491,0 -5.202,0 c -0.016,-8.277 -2.51,-15.083 -4.604,-18.504 -1.291,-2.11 -2.561,-3.562 -3.449,-4.457 l 1.509,0 c 2.782,1.852 11.71,9.819 11.746,22.961 z m -34.647,0 C 35.248,37.82 41.553,29.85 43.577,27.951 l 1.701,0 c -1.484,2.447 -4.838,10.368 -4.852,22.961 l -5.203,0 z m 10.873,-22.961 1.854,0 c -0.472,2.338 -1.63,10.351 -1.635,22.961 l -5.204,0 C 41.126,37.871 44.854,29.91 46.096,27.951 Z m 2.553,0 1.908,0 c 0.441,2.139 1.643,10.127 1.647,22.961 l -5.204,0 C 47.005,38.079 48.207,30.09 48.649,27.951 Z m 4.242,22.961 C 52.886,38.302 51.728,30.289 51.256,27.951 l 1.854,0 c 1.241,1.955 4.967,9.899 4.982,22.961 l -5.201,0 z m 5.887,0 C 58.764,38.32 55.412,30.4 53.927,27.951 l 1.702,0 c 2.024,1.896 8.326,9.853 8.352,22.961 l -5.203,0 z m -8.635,-31.514 0,-5.975 0.022,4.938 0.003,0.581 10e-4,0.457 0.014,2.979 -0.04,0 0,-2.98 z m -5.52,3.894 4.606,0 1.871,0 4.312,0 0,2.041 -10.789,0 0,-2.041 z m -3.342,2.942 17.773,0.014 0,0.79 -0.174,0 -0.91,0 -0.441,0 -0.004,0 -1.785,0 -0.102,0 -0.341,0 -1.972,0 -0.225,0 -6.998,0 -0.222,0 -1.972,0 -0.055,0 -0.286,0 -1.503,0 -0.382,0 -0.412,-0.02 0.011,-0.784 z m -0.2,1.717 1.508,0 c -0.889,0.895 -2.158,2.346 -3.45,4.457 -2.094,3.421 -4.587,10.226 -4.603,18.504 l -5.202,0 C 29.37,37.77 38.298,29.803 41.081,27.951 Z m -2.432,0.966 c -3.805,3.144 -9.972,10.938 -10.001,21.995 l -4.416,0 C 24.61,41.265 30.423,32.946 38.649,28.917 Z m -15.551,22.909 0.195,0 53.008,0 0.635,0 0,1.955 -1.903,0 -3.335,0 -6.02,0 -3.335,0 -6.018,0 -3.334,0 -6.021,0 -3.334,0 -6.017,0 -3.335,0 -6.018,0 -3.336,0 -1.832,0 0,-1.955 z m 1.833,25.377 3.335,0 6.018,0 3.335,0 6.017,0 3.334,0 6.021,0 3.334,0 6.018,0 3.335,0 6.02,0 3.335,0 1.903,0 0,1.357 0,0.266 -53.837,0 0,-0.266 0,-1.357 1.832,0 z m -1.235,-1.18 0,-16.701 0,-0.457 0,-0.457 0,-1.061 0,-0.457 0,-0.455 0,-1.623 1.234,0 0,1.623 0,0.457 0,0.457 0,1.06 0,0.457 0,0.457 0,16.7 -1.234,0 z m 2.148,0.266 0,-0.266 0,-16.701 0,-0.457 0,-0.457 0,-1.061 0,-0.457 0,-0.457 0,-1.623 0,-0.115 1.507,0 0,0.115 0,1.623 0,0.457 0,0.457 0,1.061 0,0.457 0,0.457 0,16.701 0,0.266 -1.507,0 z m 2.422,-0.266 0,-16.701 0,-0.457 0,-0.457 0,-1.061 0,-0.457 0,-0.457 0,-1.623 6.018,0 0,1.623 0,0.457 0,0.457 0,1.061 0,0.457 0,0.457 0,6.186 -3.746,0 0,10.516 -2.272,0 z m 6.932,0.267 0,-0.267 0,-10.515 0,-6.186 0,-0.457 0,-0.457 0,-1.061 0,-0.457 0,-0.457 0,-1.623 0,-0.115 1.507,0 0,0.115 0,1.623 0,0.457 0,0.457 0,1.061 0,0.457 0,0.457 0,6.186 0,10.516 0,0.267 -1.507,0 z m 8.438,-19.854 0,0.457 0,0.457 0,1.06 0,0.457 0,0.457 0,6.186 -1.754,0 0,10.517 -3.434,0 0,-10.519 -0.83,0 0,-6.186 0,-0.457 0,-0.457 0,-1.061 0,-0.457 0,-0.457 0,-1.623 6.017,0 0.001,1.626 0,0 z m 0.914,19.854 0,-0.267 0,-10.515 0,-6.186 0,-0.457 0,-0.457 0,-1.061 0,-0.457 0,-0.457 0,-1.623 0,-0.115 1.506,0 0,0.115 0,1.623 0,0.457 0,0.457 0,1.061 0,0.457 0,0.457 0,6.186 0,10.516 0,0.267 -1.506,0 z m 2.42,-10.781 0,-6.186 0,-0.457 0,-0.457 0,-1.06 0,-0.457 0,-0.457 0,-1.623 6.021,0 0,1.623 0,0.457 0,0.457 0,1.06 0,0.457 0,0.457 0,6.186 -6.021,0 z m 6.934,10.781 0,-0.267 0,-10.515 0,-6.186 0,-0.457 0,-0.457 0,-1.061 0,-0.457 0,-0.457 0,-1.623 0,-0.115 1.507,0 0,0.115 0,1.623 0,0.457 0,0.457 0,1.061 0,0.457 0,0.457 0,6.186 0,10.516 0,0.267 -1.507,0 z m 2.422,-10.782 0,-6.186 0,-0.457 0,-0.457 0,-1.061 0,-0.457 0,-0.457 0,-1.623 6.018,0 0,1.625 -10e-4,0 0,0.457 0,0.457 0,1.06 0,0.457 0,0.457 0,6.186 -1.278,0 0,10.517 -3.656,0 0,-10.518 -1.083,0 z m 6.931,10.782 0,-0.267 0,-10.515 0,-6.186 0,-0.457 0,-0.457 0,-1.061 0,-0.457 0,-0.457 0,-1.623 0,-0.115 1.507,0 0,0.115 0,1.623 0,0.457 0,0.457 0,1.061 0,0.457 0,0.457 0,6.186 0,10.516 0,0.267 -1.507,0 z m 2.42,-10.782 0,-6.186 0,-0.457 0,-0.457 0,-1.061 0,-0.457 0,-0.457 0,-1.623 6.019,0 0,1.625 0,0.457 0,0.457 0,1.06 0,0.457 0,0.457 0,16.7 -2.721,0 0,-10.515 -3.298,0 z m 6.932,10.782 0,-0.267 0,-16.701 0,-0.457 0,-0.457 0,-1.061 0,-0.457 0,-0.457 0,-1.623 0,-0.115 1.508,0 0,0.117 0,1.623 0,0.457 0,0.457 0,1.06 0,0.457 0,0.457 0,16.7 0,0.267 -1.508,0 z m 2.422,-0.267 0,-16.701 0,-0.457 0,-0.457 0,-1.061 0,-0.457 0,-0.457 0,-1.623 1.308,0 0,1.625 0,0.457 0,0.457 0,1.06 0,0.457 0,0.457 0,16.7 -1.308,0 z m 2.819,3.717 1.625,0 0,1.621 -58.914,0 0,-1.621 1.624,0 55.665,0 z M 6.51,58.409 l -0.579,0 0,-1.06 0.579,0 0.457,0 0.457,0 15.357,0 0,1.06 -15.357,0 -0.457,0 -0.457,0 z m 0.914,20.152 0,-19.239 15.357,0 0,16.967 -0.597,0 0,2.271 -14.76,0 z m 75.034,3.714 0,1.957 -64.883,0 0,-1.957 2.072,0 60.742,0 2.069,0 z m 10.151,-3.713 -14.759,0 0,-2.272 -0.597,0 0,-16.968 15.356,0 0,19.24 z m 1.495,-20.154 -0.58,0 -0.457,0 -0.457,0 -15.357,0 0,-1.061 15.356,0 0.457,0 0.457,0 0.58,0 0,1.061 z"
             id="path13607-6" />
        </g>
        <g
           transform="translate(1990.5443,255.04835)"
           id="g13653"
           style="fill:#4d4d4d">
          <path
             id="path13655"
             d="m 9.63,66.229 3.004,0 0,-5.619 -3.004,0 0,5.619 z m 0.914,-4.706 1.176,0 0,3.789 -1.176,0 0,-3.789 z"
             inkscape:connector-curvature="0"
             style="fill:#4d4d4d" />
          <path
             id="path13657"
             d="m 9.63,72.57 3.004,0 0,-5.616 -3.004,0 0,5.616 z m 0.914,-4.702 1.176,0 0,3.788 -1.176,0 0,-3.788 z"
             inkscape:connector-curvature="0"
             style="fill:#4d4d4d" />
          <path
             id="path13659"
             d="m 14.034,66.229 3.003,0 0,-5.619 -3.003,0 0,5.619 z m 0.914,-4.706 1.175,0 0,3.789 -1.175,0 0,-3.789 z"
             inkscape:connector-curvature="0"
             style="fill:#4d4d4d" />
          <path
             id="path13661"
             d="m 18.438,66.229 3.003,0 0,-5.619 -3.003,0 0,5.619 z m 0.914,-4.706 1.175,0 0,3.789 -1.175,0 0,-3.789 z"
             inkscape:connector-curvature="0"
             style="fill:#4d4d4d" />
          <path
             id="path13663"
             d="m 14.034,72.57 3.003,0 0,-5.616 -3.003,0 0,5.616 z m 0.914,-4.702 1.175,0 0,3.788 -1.175,0 0,-3.788 z"
             inkscape:connector-curvature="0"
             style="fill:#4d4d4d" />
          <path
             id="path13665"
             d="m 18.438,72.57 3.003,0 0,-5.616 -3.003,0 0,5.616 z m 0.914,-4.702 1.175,0 0,3.788 -1.175,0 0,-3.788 z"
             inkscape:connector-curvature="0"
             style="fill:#4d4d4d" />
          <path
             id="path13667"
             d="m 81.448,60.609 -3.003,0 0,5.617 3.003,0 0,-5.617 z m -0.914,4.703 -1.175,0 0,-3.789 1.175,0 0,3.789 z"
             inkscape:connector-curvature="0"
             style="fill:#4d4d4d" />
          <path
             id="path13669"
             d="m 85.852,60.609 -3.004,0 0,5.617 3.004,0 0,-5.617 z m -0.914,4.703 -1.176,0 0,-3.789 1.176,0 0,3.789 z"
             inkscape:connector-curvature="0"
             style="fill:#4d4d4d" />
          <path
             id="path13671"
             d="m 90.255,60.609 -3.004,0 0,5.617 3.004,0 0,-5.617 z m -0.914,4.703 -1.176,0 0,-3.789 1.176,0 0,3.789 z"
             inkscape:connector-curvature="0"
             style="fill:#4d4d4d" />
          <path
             id="path13673"
             d="m 81.448,66.954 -3.003,0 0,5.616 3.003,0 0,-5.616 z m -0.914,4.702 -1.175,0 0,-3.788 1.175,0 0,3.788 z"
             inkscape:connector-curvature="0"
             style="fill:#4d4d4d" />
          <path
             id="path13675"
             d="m 85.852,66.954 -3.004,0 0,5.616 3.004,0 0,-5.616 z m -0.914,4.702 -1.176,0 0,-3.788 1.176,0 0,3.788 z"
             inkscape:connector-curvature="0"
             style="fill:#4d4d4d" />
          <path
             id="path13677"
             d="m 90.255,66.954 -3.004,0 0,5.616 3.004,0 0,-5.616 z m -0.914,4.702 -1.176,0 0,-3.788 1.176,0 0,3.788 z"
             inkscape:connector-curvature="0"
             style="fill:#4d4d4d" />
          <path
             id="path13679"
             d="m 93.523,56.434 0,0.002 -16.27,0 0,-1.74 0.597,0 0,-3.782 -1.578,0 C 75.874,40.378 69.221,31.358 59.968,27.465 l 0,-1.36 0.052,-0.003 -0.052,0 0,-0.768 -3.644,0 0,-2.955 -5.227,0 0,-2.979 1.317,0 0,1.115 5.537,0 0,-6.811 -2.709,0 0,-1.115 -4.146,0 0,-0.079 -1.871,0 0,9.868 -5.52,0 0,2.955 -3.642,0 0,1.958 c -9.479,3.79 -16.338,12.92 -16.744,23.622 l -1.138,0 0,3.782 0.597,0 0,1.74 -16.268,0 -1.493,0 0,2.888 1.493,0 0,20.153 13.137,0 0,1.887 -2.986,0 0,3.785 66.711,0 0,-3.785 -2.983,0 0,-1.887 13.135,0 0,-20.154 1.494,0 0,-2.889 -1.495,0 z m -38.279,-41.817 1.795,0 0,4.983 -3.709,0 0,-0.201 0,-0.457 0,-0.457 0,-3.868 1,0 0.457,0 0.457,0 z m -4.144,-1.115 3.23,0 0,0.201 -1.914,0 0,4.782 -1.316,0 0,-4.983 z m 24.261,37.41 -4.806,0 C 70.525,39.329 63.76,31.424 60.031,28.494 c 8.705,3.848 14.938,12.419 15.33,22.418 z m -5.491,0 -5.202,0 c -0.016,-8.277 -2.51,-15.083 -4.604,-18.504 -1.291,-2.11 -2.561,-3.562 -3.449,-4.457 l 1.509,0 c 2.782,1.852 11.71,9.819 11.746,22.961 z m -34.647,0 C 35.248,37.82 41.553,29.85 43.577,27.951 l 1.701,0 c -1.484,2.447 -4.838,10.368 -4.852,22.961 l -5.203,0 z m 10.873,-22.961 1.854,0 c -0.472,2.338 -1.63,10.351 -1.635,22.961 l -5.204,0 C 41.126,37.871 44.854,29.91 46.096,27.951 Z m 2.553,0 1.908,0 c 0.441,2.139 1.643,10.127 1.647,22.961 l -5.204,0 C 47.005,38.079 48.207,30.09 48.649,27.951 Z m 4.242,22.961 C 52.886,38.302 51.728,30.289 51.256,27.951 l 1.854,0 c 1.241,1.955 4.967,9.899 4.982,22.961 l -5.201,0 z m 5.887,0 C 58.764,38.32 55.412,30.4 53.927,27.951 l 1.702,0 c 2.024,1.896 8.326,9.853 8.352,22.961 l -5.203,0 z m -8.635,-31.514 0,-5.975 0.022,4.938 0.003,0.581 10e-4,0.457 0.014,2.979 -0.04,0 0,-2.98 z m -5.52,3.894 4.606,0 1.871,0 4.312,0 0,2.041 -10.789,0 0,-2.041 z m -3.342,2.942 17.773,0.014 0,0.79 -0.174,0 -0.91,0 -0.441,0 -0.004,0 -1.785,0 -0.102,0 -0.341,0 -1.972,0 -0.225,0 -6.998,0 -0.222,0 -1.972,0 -0.055,0 -0.286,0 -1.503,0 -0.382,0 -0.412,-0.02 0.011,-0.784 z m -0.2,1.717 1.508,0 c -0.889,0.895 -2.158,2.346 -3.45,4.457 -2.094,3.421 -4.587,10.226 -4.603,18.504 l -5.202,0 C 29.37,37.77 38.298,29.803 41.081,27.951 Z m -2.432,0.966 c -3.805,3.144 -9.972,10.938 -10.001,21.995 l -4.416,0 C 24.61,41.265 30.423,32.946 38.649,28.917 Z m -15.551,22.909 0.195,0 53.008,0 0.635,0 0,1.955 -1.903,0 -3.335,0 -6.02,0 -3.335,0 -6.018,0 -3.334,0 -6.021,0 -3.334,0 -6.017,0 -3.335,0 -6.018,0 -3.336,0 -1.832,0 0,-1.955 z m 1.833,25.377 3.335,0 6.018,0 3.335,0 6.017,0 3.334,0 6.021,0 3.334,0 6.018,0 3.335,0 6.02,0 3.335,0 1.903,0 0,1.357 0,0.266 -53.837,0 0,-0.266 0,-1.357 1.832,0 z m -1.235,-1.18 0,-16.701 0,-0.457 0,-0.457 0,-1.061 0,-0.457 0,-0.455 0,-1.623 1.234,0 0,1.623 0,0.457 0,0.457 0,1.06 0,0.457 0,0.457 0,16.7 -1.234,0 z m 2.148,0.266 0,-0.266 0,-16.701 0,-0.457 0,-0.457 0,-1.061 0,-0.457 0,-0.457 0,-1.623 0,-0.115 1.507,0 0,0.115 0,1.623 0,0.457 0,0.457 0,1.061 0,0.457 0,0.457 0,16.701 0,0.266 -1.507,0 z m 2.422,-0.266 0,-16.701 0,-0.457 0,-0.457 0,-1.061 0,-0.457 0,-0.457 0,-1.623 6.018,0 0,1.623 0,0.457 0,0.457 0,1.061 0,0.457 0,0.457 0,6.186 -3.746,0 0,10.516 -2.272,0 z m 6.932,0.267 0,-0.267 0,-10.515 0,-6.186 0,-0.457 0,-0.457 0,-1.061 0,-0.457 0,-0.457 0,-1.623 0,-0.115 1.507,0 0,0.115 0,1.623 0,0.457 0,0.457 0,1.061 0,0.457 0,0.457 0,6.186 0,10.516 0,0.267 -1.507,0 z m 8.438,-19.854 0,0.457 0,0.457 0,1.06 0,0.457 0,0.457 0,6.186 -1.754,0 0,10.517 -3.434,0 0,-10.519 -0.83,0 0,-6.186 0,-0.457 0,-0.457 0,-1.061 0,-0.457 0,-0.457 0,-1.623 6.017,0 0.001,1.626 0,0 z m 0.914,19.854 0,-0.267 0,-10.515 0,-6.186 0,-0.457 0,-0.457 0,-1.061 0,-0.457 0,-0.457 0,-1.623 0,-0.115 1.506,0 0,0.115 0,1.623 0,0.457 0,0.457 0,1.061 0,0.457 0,0.457 0,6.186 0,10.516 0,0.267 -1.506,0 z m 2.42,-10.781 0,-6.186 0,-0.457 0,-0.457 0,-1.06 0,-0.457 0,-0.457 0,-1.623 6.021,0 0,1.623 0,0.457 0,0.457 0,1.06 0,0.457 0,0.457 0,6.186 -6.021,0 z m 6.934,10.781 0,-0.267 0,-10.515 0,-6.186 0,-0.457 0,-0.457 0,-1.061 0,-0.457 0,-0.457 0,-1.623 0,-0.115 1.507,0 0,0.115 0,1.623 0,0.457 0,0.457 0,1.061 0,0.457 0,0.457 0,6.186 0,10.516 0,0.267 -1.507,0 z m 2.422,-10.782 0,-6.186 0,-0.457 0,-0.457 0,-1.061 0,-0.457 0,-0.457 0,-1.623 6.018,0 0,1.625 -10e-4,0 0,0.457 0,0.457 0,1.06 0,0.457 0,0.457 0,6.186 -1.278,0 0,10.517 -3.656,0 0,-10.518 -1.083,0 z m 6.931,10.782 0,-0.267 0,-10.515 0,-6.186 0,-0.457 0,-0.457 0,-1.061 0,-0.457 0,-0.457 0,-1.623 0,-0.115 1.507,0 0,0.115 0,1.623 0,0.457 0,0.457 0,1.061 0,0.457 0,0.457 0,6.186 0,10.516 0,0.267 -1.507,0 z m 2.42,-10.782 0,-6.186 0,-0.457 0,-0.457 0,-1.061 0,-0.457 0,-0.457 0,-1.623 6.019,0 0,1.625 0,0.457 0,0.457 0,1.06 0,0.457 0,0.457 0,16.7 -2.721,0 0,-10.515 -3.298,0 z m 6.932,10.782 0,-0.267 0,-16.701 0,-0.457 0,-0.457 0,-1.061 0,-0.457 0,-0.457 0,-1.623 0,-0.115 1.508,0 0,0.117 0,1.623 0,0.457 0,0.457 0,1.06 0,0.457 0,0.457 0,16.7 0,0.267 -1.508,0 z m 2.422,-0.267 0,-16.701 0,-0.457 0,-0.457 0,-1.061 0,-0.457 0,-0.457 0,-1.623 1.308,0 0,1.625 0,0.457 0,0.457 0,1.06 0,0.457 0,0.457 0,16.7 -1.308,0 z m 2.819,3.717 1.625,0 0,1.621 -58.914,0 0,-1.621 1.624,0 55.665,0 z M 6.51,58.409 l -0.579,0 0,-1.06 0.579,0 0.457,0 0.457,0 15.357,0 0,1.06 -15.357,0 -0.457,0 -0.457,0 z m 0.914,20.152 0,-19.239 15.357,0 0,16.967 -0.597,0 0,2.271 -14.76,0 z m 75.034,3.714 0,1.957 -64.883,0 0,-1.957 2.072,0 60.742,0 2.069,0 z m 10.151,-3.713 -14.759,0 0,-2.272 -0.597,0 0,-16.968 15.356,0 0,19.24 z m 1.495,-20.154 -0.58,0 -0.457,0 -0.457,0 -15.357,0 0,-1.061 15.356,0 0.457,0 0.457,0 0.58,0 0,1.061 z"
             inkscape:connector-curvature="0"
             style="fill:#4d4d4d" />
        </g>
      </g>
      <g
         transform="matrix(1.0587132,0,0,1.0587132,-39.801272,-26.014816)"
         id="g39809">
        <g
           style="fill:#1a1a1a;filter:url(#filter39805)"
           transform="matrix(0.13337361,0,0,0.13337361,1029.3726,459.70667)"
           id="g38967">
          <path
             id="path38969"
             d="m 447.988,405.334 c 5.891,0 10.656,-4.781 10.656,-10.688 l 0,-383.967 c 0,-5.891 -4.766,-10.663 -10.656,-10.663 l -351.978,0 c -23.53,0 -42.654,19.14 -42.654,42.661 l 0,383.968 c 0,23.531 19.124,42.686 42.654,42.686 l 10.655,0 0,31.998 c 0,3.422 1.656,6.641 4.438,8.641 2.781,2.016 6.358,2.547 9.608,1.469 l 28.639,-9.547 28.624,9.547 c 1.094,0.359 2.233,0.547 3.374,0.547 2.203,0 4.391,-0.688 6.219,-2.016 2.781,-2 4.438,-5.219 4.438,-8.641 l 0,-31.999 234.643,0 10.686,0 10.656,0 c 5.891,0 10.656,-4.781 10.656,-10.688 0,-5.875 -4.766,-10.654 -10.656,-10.654 l 0,-42.654 z m -10.656,-21.342 -10.686,0 -298.638,0 0,-362.642 309.324,0 0,362.642 z M 74.667,42.677 C 74.667,30.92 84.244,21.35 96.01,21.35 l 10.655,0 0,362.643 -10.655,0 c -7.766,0 -15.062,2.094 -21.343,5.748 l 0,-48.402 c 5.906,0 10.687,-4.781 10.687,-10.688 0,-5.875 -4.78,-10.654 -10.687,-10.654 l 0,-42.654 c 5.906,0 10.687,-4.781 10.687,-10.68 0,-5.891 -4.78,-10.662 -10.687,-10.662 l 0,-42.662 c 5.906,0 10.687,-4.78 10.687,-10.671 0,-5.891 -4.78,-10.663 -10.687,-10.663 l 0,-42.662 c 5.906,0 10.687,-4.78 10.687,-10.671 0,-5.891 -4.78,-10.663 -10.687,-10.663 l 0,-42.663 c 5.906,0 10.687,-4.78 10.687,-10.671 0,-5.891 -4.78,-10.663 -10.687,-10.663 l 0,-21.335 z m 95.994,443.839 -17.952,-5.982 c -2.188,-0.734 -4.547,-0.734 -6.733,0 l -17.968,5.982 0,-49.184 42.653,0 0,49.184 z m 21.343,-38.528 0,-10.656 c 5.89,0 10.655,-4.781 10.655,-10.688 0,-5.875 -4.766,-10.654 -10.655,-10.654 l -85.339,0 c -5.875,0 -10.655,4.779 -10.655,10.654 0,5.906 4.78,10.688 10.655,10.688 l 0,10.656 -10.655,0 c -11.766,0 -21.343,-9.562 -21.343,-21.344 0,-11.748 9.577,-21.311 21.343,-21.311 l 330.637,0 0,10.656 -74.652,0 c -5.891,0 -10.656,4.779 -10.656,10.654 0,5.906 4.766,10.688 10.656,10.688 l 74.652,0 0,10.656 -234.643,0 z"
             inkscape:connector-curvature="0"
             style="fill:#1a1a1a" />
          <path
             id="path38971"
             d="m 160.553,209.964 c -0.016,0.023 -0.016,0.039 -0.016,0.062 -0.078,0.234 -0.141,0.469 -0.188,0.711 -0.031,0.117 -0.078,0.227 -0.094,0.344 -0.047,0.188 -0.062,0.367 -0.094,0.555 -0.031,0.18 -0.062,0.359 -0.094,0.538 0,0.125 -0.016,0.25 -0.031,0.375 0,0.242 -0.031,0.477 -0.031,0.719 0,0.023 0,0.047 0,0.07 0,23.522 19.14,42.662 42.653,42.662 23.53,0 42.686,-19.14 42.686,-42.662 0,-0.023 -0.016,-0.047 -0.016,-0.07 0,-0.242 -0.016,-0.484 -0.031,-0.727 -0.016,-0.125 -0.016,-0.242 -0.031,-0.367 -0.016,-0.179 -0.047,-0.358 -0.078,-0.538 -0.031,-0.188 -0.062,-0.367 -0.094,-0.547 -0.031,-0.125 -0.062,-0.234 -0.094,-0.352 -0.062,-0.242 -0.125,-0.477 -0.188,-0.711 -0.016,-0.023 -0.016,-0.039 -0.031,-0.062 l -27.312,-81.956 49.186,0 0,149.334 -53.311,0 c -5.905,0 -10.687,4.766 -10.687,10.656 0,5.889 4.781,10.654 10.687,10.654 l 127.992,0 c 5.875,0 10.656,-4.766 10.656,-10.654 0,-5.891 -4.781,-10.656 -10.656,-10.656 l -53.34,0 0,-149.334 49.2,0 -27.327,81.956 c 0,0.023 0,0.039 -0.016,0.062 -0.078,0.234 -0.141,0.469 -0.203,0.711 -0.016,0.117 -0.062,0.227 -0.078,0.352 -0.047,0.18 -0.062,0.359 -0.094,0.547 -0.031,0.18 -0.062,0.359 -0.078,0.538 -0.031,0.125 -0.031,0.242 -0.031,0.367 -0.016,0.242 -0.031,0.484 -0.031,0.727 0,0.023 0,0.047 0,0.07 0,23.522 19.125,42.662 42.654,42.662 23.529,0 42.654,-19.14 42.654,-42.662 0,-0.023 0,-0.047 0,-0.07 0,-0.242 -0.016,-0.484 -0.031,-0.727 0,-0.125 0,-0.242 -0.031,-0.367 -0.016,-0.179 -0.047,-0.358 -0.078,-0.538 -0.031,-0.188 -0.047,-0.367 -0.094,-0.547 -0.016,-0.125 -0.062,-0.234 -0.078,-0.352 -0.062,-0.242 -0.125,-0.477 -0.203,-0.711 -0.016,-0.023 -0.016,-0.039 -0.016,-0.062 l -31.936,-95.783 c 0,0 0,-0.023 0,-0.039 l -0.062,-0.172 c -0.031,-0.07 -0.062,-0.133 -0.094,-0.203 -0.031,-0.133 -0.078,-0.258 -0.125,-0.383 -0.062,-0.117 -0.094,-0.227 -0.156,-0.336 -0.031,-0.102 -0.078,-0.195 -0.125,-0.289 -0.062,-0.109 -0.094,-0.211 -0.156,-0.312 -0.062,-0.109 -0.109,-0.211 -0.172,-0.32 -0.047,-0.102 -0.109,-0.203 -0.172,-0.305 -0.062,-0.094 -0.125,-0.188 -0.188,-0.281 -0.063,-0.093 -0.109,-0.18 -0.172,-0.273 -0.078,-0.102 -0.141,-0.211 -0.234,-0.312 -0.062,-0.086 -0.125,-0.18 -0.203,-0.266 -0.062,-0.078 -0.125,-0.156 -0.188,-0.227 -0.078,-0.102 -0.172,-0.195 -0.25,-0.297 -0.078,-0.086 -0.172,-0.172 -0.25,-0.258 -0.078,-0.07 -0.141,-0.133 -0.203,-0.203 -0.094,-0.086 -0.172,-0.172 -0.266,-0.25 -0.094,-0.086 -0.188,-0.172 -0.297,-0.25 -0.062,-0.062 -0.141,-0.125 -0.219,-0.188 -0.094,-0.078 -0.188,-0.148 -0.281,-0.211 -0.094,-0.078 -0.188,-0.156 -0.297,-0.227 -0.094,-0.062 -0.172,-0.117 -0.266,-0.18 -0.094,-0.063 -0.188,-0.117 -0.281,-0.18 -0.109,-0.062 -0.219,-0.117 -0.312,-0.18 -0.109,-0.055 -0.219,-0.109 -0.312,-0.164 -0.109,-0.055 -0.219,-0.109 -0.328,-0.156 -0.094,-0.047 -0.188,-0.094 -0.281,-0.133 -0.109,-0.055 -0.219,-0.102 -0.328,-0.141 -0.125,-0.055 -0.266,-0.102 -0.391,-0.148 -0.078,-0.023 -0.141,-0.055 -0.203,-0.078 -0.031,0 -0.047,-0.008 -0.062,-0.016 -0.109,-0.031 -0.219,-0.062 -0.312,-0.094 -0.156,-0.047 -0.297,-0.078 -0.438,-0.117 -0.109,-0.023 -0.219,-0.055 -0.312,-0.078 -0.078,-0.016 -0.156,-0.031 -0.25,-0.047 -0.156,-0.031 -0.312,-0.047 -0.469,-0.07 -0.125,-0.023 -0.25,-0.047 -0.375,-0.055 -0.062,-0.008 -0.109,-0.016 -0.156,-0.016 -0.156,-0.016 -0.328,-0.023 -0.484,-0.031 -0.141,-0.008 -0.297,-0.016 -0.453,-0.016 -0.031,0 -0.031,-0.008 -0.062,-0.008 l -0.188,0 -0.031,0 -63.777,0 0,-10.661 c 0,-5.891 -4.781,-10.664 -10.656,-10.664 -5.905,0 -10.686,4.773 -10.686,10.664 l 0,10.663 -63.747,0 c -0.031,0 -0.062,0 -0.078,0 l -0.172,0 c -0.016,0 -0.031,0.008 -0.062,0.008 -0.141,0 -0.281,0.008 -0.422,0.016 -0.172,0.008 -0.328,0.016 -0.516,0.031 -0.047,0 -0.094,0.008 -0.156,0.016 -0.125,0.008 -0.234,0.031 -0.344,0.047 -0.172,0.023 -0.344,0.047 -0.5,0.086 -0.094,0.008 -0.156,0.023 -0.25,0.039 -0.094,0.023 -0.188,0.055 -0.281,0.078 -0.156,0.039 -0.312,0.07 -0.469,0.117 -0.094,0.031 -0.188,0.062 -0.297,0.094 -0.016,0.008 -0.047,0.016 -0.062,0.016 -0.078,0.023 -0.141,0.055 -0.203,0.078 -0.125,0.047 -0.266,0.094 -0.406,0.148 -0.094,0.047 -0.219,0.086 -0.312,0.141 -0.094,0.039 -0.188,0.086 -0.281,0.125 -0.109,0.055 -0.219,0.109 -0.344,0.164 -0.094,0.055 -0.188,0.109 -0.297,0.164 -0.109,0.062 -0.203,0.117 -0.297,0.18 -0.094,0.063 -0.203,0.117 -0.297,0.18 -0.094,0.063 -0.172,0.117 -0.266,0.18 -0.109,0.07 -0.203,0.148 -0.312,0.219 -0.094,0.07 -0.188,0.148 -0.28,0.219 -0.062,0.062 -0.141,0.125 -0.219,0.188 -0.094,0.078 -0.188,0.156 -0.281,0.242 -0.093,0.086 -0.188,0.172 -0.281,0.258 -0.062,0.07 -0.125,0.133 -0.188,0.203 -0.094,0.086 -0.172,0.172 -0.25,0.258 -0.094,0.094 -0.172,0.195 -0.25,0.297 -0.062,0.07 -0.125,0.148 -0.188,0.227 -0.078,0.086 -0.156,0.172 -0.219,0.266 -0.062,0.102 -0.156,0.211 -0.219,0.312 -0.062,0.094 -0.125,0.188 -0.188,0.273 -0.062,0.094 -0.109,0.188 -0.172,0.273 -0.062,0.109 -0.125,0.211 -0.172,0.312 -0.062,0.109 -0.125,0.211 -0.188,0.32 -0.047,0.102 -0.094,0.203 -0.141,0.312 -0.047,0.094 -0.094,0.188 -0.141,0.289 -0.047,0.109 -0.094,0.227 -0.141,0.336 -0.047,0.125 -0.094,0.25 -0.141,0.375 -0.031,0.07 -0.062,0.141 -0.078,0.211 l -0.047,0.172 c -0.016,0.016 -0.016,0.031 -0.031,0.039 l -31.917,95.782 z m 208.643,-7.297 -34.404,0 17.202,-51.599 17.202,51.599 z m -17.202,31.998 c -7.875,0 -14.78,-4.289 -18.468,-10.663 l 36.936,0 c -3.688,6.374 -10.593,10.663 -18.468,10.663 z m -149.335,-83.597 17.218,51.599 -34.404,0 17.186,-51.599 z m 0,83.597 c -7.874,0 -14.765,-4.289 -18.468,-10.663 l 36.951,0 c -3.703,6.374 -10.592,10.663 -18.483,10.663 z"
             inkscape:connector-curvature="0"
             style="fill:#1a1a1a" />
        </g>
        <g
           id="g38939"
           transform="matrix(0.13337361,0,0,0.13337361,1027.8777,458.21175)"
           style="fill:#808080">
          <path
             style="fill:#666666"
             inkscape:connector-curvature="0"
             d="m 447.988,405.334 c 5.891,0 10.656,-4.781 10.656,-10.688 l 0,-383.967 c 0,-5.891 -4.766,-10.663 -10.656,-10.663 l -351.978,0 c -23.53,0 -42.654,19.14 -42.654,42.661 l 0,383.968 c 0,23.531 19.124,42.686 42.654,42.686 l 10.655,0 0,31.998 c 0,3.422 1.656,6.641 4.438,8.641 2.781,2.016 6.358,2.547 9.608,1.469 l 28.639,-9.547 28.624,9.547 c 1.094,0.359 2.233,0.547 3.374,0.547 2.203,0 4.391,-0.688 6.219,-2.016 2.781,-2 4.438,-5.219 4.438,-8.641 l 0,-31.999 234.643,0 10.686,0 10.656,0 c 5.891,0 10.656,-4.781 10.656,-10.688 0,-5.875 -4.766,-10.654 -10.656,-10.654 l 0,-42.654 z m -10.656,-21.342 -10.686,0 -298.638,0 0,-362.642 309.324,0 0,362.642 z M 74.667,42.677 C 74.667,30.92 84.244,21.35 96.01,21.35 l 10.655,0 0,362.643 -10.655,0 c -7.766,0 -15.062,2.094 -21.343,5.748 l 0,-48.402 c 5.906,0 10.687,-4.781 10.687,-10.688 0,-5.875 -4.78,-10.654 -10.687,-10.654 l 0,-42.654 c 5.906,0 10.687,-4.781 10.687,-10.68 0,-5.891 -4.78,-10.662 -10.687,-10.662 l 0,-42.662 c 5.906,0 10.687,-4.78 10.687,-10.671 0,-5.891 -4.78,-10.663 -10.687,-10.663 l 0,-42.662 c 5.906,0 10.687,-4.78 10.687,-10.671 0,-5.891 -4.78,-10.663 -10.687,-10.663 l 0,-42.663 c 5.906,0 10.687,-4.78 10.687,-10.671 0,-5.891 -4.78,-10.663 -10.687,-10.663 l 0,-21.335 z m 95.994,443.839 -17.952,-5.982 c -2.188,-0.734 -4.547,-0.734 -6.733,0 l -17.968,5.982 0,-49.184 42.653,0 0,49.184 z m 21.343,-38.528 0,-10.656 c 5.89,0 10.655,-4.781 10.655,-10.688 0,-5.875 -4.766,-10.654 -10.655,-10.654 l -85.339,0 c -5.875,0 -10.655,4.779 -10.655,10.654 0,5.906 4.78,10.688 10.655,10.688 l 0,10.656 -10.655,0 c -11.766,0 -21.343,-9.562 -21.343,-21.344 0,-11.748 9.577,-21.311 21.343,-21.311 l 330.637,0 0,10.656 -74.652,0 c -5.891,0 -10.656,4.779 -10.656,10.654 0,5.906 4.766,10.688 10.656,10.688 l 74.652,0 0,10.656 -234.643,0 z"
             id="path38941" />
          <path
             style="fill:#333333"
             inkscape:connector-curvature="0"
             d="m 160.553,209.964 c -0.016,0.023 -0.016,0.039 -0.016,0.062 -0.078,0.234 -0.141,0.469 -0.188,0.711 -0.031,0.117 -0.078,0.227 -0.094,0.344 -0.047,0.188 -0.062,0.367 -0.094,0.555 -0.031,0.18 -0.062,0.359 -0.094,0.538 0,0.125 -0.016,0.25 -0.031,0.375 0,0.242 -0.031,0.477 -0.031,0.719 0,0.023 0,0.047 0,0.07 0,23.522 19.14,42.662 42.653,42.662 23.53,0 42.686,-19.14 42.686,-42.662 0,-0.023 -0.016,-0.047 -0.016,-0.07 0,-0.242 -0.016,-0.484 -0.031,-0.727 -0.016,-0.125 -0.016,-0.242 -0.031,-0.367 -0.016,-0.179 -0.047,-0.358 -0.078,-0.538 -0.031,-0.188 -0.062,-0.367 -0.094,-0.547 -0.031,-0.125 -0.062,-0.234 -0.094,-0.352 -0.062,-0.242 -0.125,-0.477 -0.188,-0.711 -0.016,-0.023 -0.016,-0.039 -0.031,-0.062 l -27.312,-81.956 49.186,0 0,149.334 -53.311,0 c -5.905,0 -10.687,4.766 -10.687,10.656 0,5.889 4.781,10.654 10.687,10.654 l 127.992,0 c 5.875,0 10.656,-4.766 10.656,-10.654 0,-5.891 -4.781,-10.656 -10.656,-10.656 l -53.34,0 0,-149.334 49.2,0 -27.327,81.956 c 0,0.023 0,0.039 -0.016,0.062 -0.078,0.234 -0.141,0.469 -0.203,0.711 -0.016,0.117 -0.062,0.227 -0.078,0.352 -0.047,0.18 -0.062,0.359 -0.094,0.547 -0.031,0.18 -0.062,0.359 -0.078,0.538 -0.031,0.125 -0.031,0.242 -0.031,0.367 -0.016,0.242 -0.031,0.484 -0.031,0.727 0,0.023 0,0.047 0,0.07 0,23.522 19.125,42.662 42.654,42.662 23.529,0 42.654,-19.14 42.654,-42.662 0,-0.023 0,-0.047 0,-0.07 0,-0.242 -0.016,-0.484 -0.031,-0.727 0,-0.125 0,-0.242 -0.031,-0.367 -0.016,-0.179 -0.047,-0.358 -0.078,-0.538 -0.031,-0.188 -0.047,-0.367 -0.094,-0.547 -0.016,-0.125 -0.062,-0.234 -0.078,-0.352 -0.062,-0.242 -0.125,-0.477 -0.203,-0.711 -0.016,-0.023 -0.016,-0.039 -0.016,-0.062 l -31.936,-95.783 c 0,0 0,-0.023 0,-0.039 l -0.062,-0.172 c -0.031,-0.07 -0.062,-0.133 -0.094,-0.203 -0.031,-0.133 -0.078,-0.258 -0.125,-0.383 -0.062,-0.117 -0.094,-0.227 -0.156,-0.336 -0.031,-0.102 -0.078,-0.195 -0.125,-0.289 -0.062,-0.109 -0.094,-0.211 -0.156,-0.312 -0.062,-0.109 -0.109,-0.211 -0.172,-0.32 -0.047,-0.102 -0.109,-0.203 -0.172,-0.305 -0.062,-0.094 -0.125,-0.188 -0.188,-0.281 -0.063,-0.093 -0.109,-0.18 -0.172,-0.273 -0.078,-0.102 -0.141,-0.211 -0.234,-0.312 -0.062,-0.086 -0.125,-0.18 -0.203,-0.266 -0.062,-0.078 -0.125,-0.156 -0.188,-0.227 -0.078,-0.102 -0.172,-0.195 -0.25,-0.297 -0.078,-0.086 -0.172,-0.172 -0.25,-0.258 -0.078,-0.07 -0.141,-0.133 -0.203,-0.203 -0.094,-0.086 -0.172,-0.172 -0.266,-0.25 -0.094,-0.086 -0.188,-0.172 -0.297,-0.25 -0.062,-0.062 -0.141,-0.125 -0.219,-0.188 -0.094,-0.078 -0.188,-0.148 -0.281,-0.211 -0.094,-0.078 -0.188,-0.156 -0.297,-0.227 -0.094,-0.062 -0.172,-0.117 -0.266,-0.18 -0.094,-0.063 -0.188,-0.117 -0.281,-0.18 -0.109,-0.062 -0.219,-0.117 -0.312,-0.18 -0.109,-0.055 -0.219,-0.109 -0.312,-0.164 -0.109,-0.055 -0.219,-0.109 -0.328,-0.156 -0.094,-0.047 -0.188,-0.094 -0.281,-0.133 -0.109,-0.055 -0.219,-0.102 -0.328,-0.141 -0.125,-0.055 -0.266,-0.102 -0.391,-0.148 -0.078,-0.023 -0.141,-0.055 -0.203,-0.078 -0.031,0 -0.047,-0.008 -0.062,-0.016 -0.109,-0.031 -0.219,-0.062 -0.312,-0.094 -0.156,-0.047 -0.297,-0.078 -0.438,-0.117 -0.109,-0.023 -0.219,-0.055 -0.312,-0.078 -0.078,-0.016 -0.156,-0.031 -0.25,-0.047 -0.156,-0.031 -0.312,-0.047 -0.469,-0.07 -0.125,-0.023 -0.25,-0.047 -0.375,-0.055 -0.062,-0.008 -0.109,-0.016 -0.156,-0.016 -0.156,-0.016 -0.328,-0.023 -0.484,-0.031 -0.141,-0.008 -0.297,-0.016 -0.453,-0.016 -0.031,0 -0.031,-0.008 -0.062,-0.008 l -0.188,0 -0.031,0 -63.777,0 0,-10.661 c 0,-5.891 -4.781,-10.664 -10.656,-10.664 -5.905,0 -10.686,4.773 -10.686,10.664 l 0,10.663 -63.747,0 c -0.031,0 -0.062,0 -0.078,0 l -0.172,0 c -0.016,0 -0.031,0.008 -0.062,0.008 -0.141,0 -0.281,0.008 -0.422,0.016 -0.172,0.008 -0.328,0.016 -0.516,0.031 -0.047,0 -0.094,0.008 -0.156,0.016 -0.125,0.008 -0.234,0.031 -0.344,0.047 -0.172,0.023 -0.344,0.047 -0.5,0.086 -0.094,0.008 -0.156,0.023 -0.25,0.039 -0.094,0.023 -0.188,0.055 -0.281,0.078 -0.156,0.039 -0.312,0.07 -0.469,0.117 -0.094,0.031 -0.188,0.062 -0.297,0.094 -0.016,0.008 -0.047,0.016 -0.062,0.016 -0.078,0.023 -0.141,0.055 -0.203,0.078 -0.125,0.047 -0.266,0.094 -0.406,0.148 -0.094,0.047 -0.219,0.086 -0.312,0.141 -0.094,0.039 -0.188,0.086 -0.281,0.125 -0.109,0.055 -0.219,0.109 -0.344,0.164 -0.094,0.055 -0.188,0.109 -0.297,0.164 -0.109,0.062 -0.203,0.117 -0.297,0.18 -0.094,0.063 -0.203,0.117 -0.297,0.18 -0.094,0.063 -0.172,0.117 -0.266,0.18 -0.109,0.07 -0.203,0.148 -0.312,0.219 -0.094,0.07 -0.188,0.148 -0.28,0.219 -0.062,0.062 -0.141,0.125 -0.219,0.188 -0.094,0.078 -0.188,0.156 -0.281,0.242 -0.093,0.086 -0.188,0.172 -0.281,0.258 -0.062,0.07 -0.125,0.133 -0.188,0.203 -0.094,0.086 -0.172,0.172 -0.25,0.258 -0.094,0.094 -0.172,0.195 -0.25,0.297 -0.062,0.07 -0.125,0.148 -0.188,0.227 -0.078,0.086 -0.156,0.172 -0.219,0.266 -0.062,0.102 -0.156,0.211 -0.219,0.312 -0.062,0.094 -0.125,0.188 -0.188,0.273 -0.062,0.094 -0.109,0.188 -0.172,0.273 -0.062,0.109 -0.125,0.211 -0.172,0.312 -0.062,0.109 -0.125,0.211 -0.188,0.32 -0.047,0.102 -0.094,0.203 -0.141,0.312 -0.047,0.094 -0.094,0.188 -0.141,0.289 -0.047,0.109 -0.094,0.227 -0.141,0.336 -0.047,0.125 -0.094,0.25 -0.141,0.375 -0.031,0.07 -0.062,0.141 -0.078,0.211 l -0.047,0.172 c -0.016,0.016 -0.016,0.031 -0.031,0.039 l -31.917,95.782 z m 208.643,-7.297 -34.404,0 17.202,-51.599 17.202,51.599 z m -17.202,31.998 c -7.875,0 -14.78,-4.289 -18.468,-10.663 l 36.936,0 c -3.688,6.374 -10.593,10.663 -18.468,10.663 z m -149.335,-83.597 17.218,51.599 -34.404,0 17.186,-51.599 z m 0,83.597 c -7.874,0 -14.765,-4.289 -18.468,-10.663 l 36.951,0 c -3.703,6.374 -10.592,10.663 -18.483,10.663 z"
             id="path38943" />
        </g>
      </g>
      <text
         sodipodi:linespacing="125%"
         id="text39845"
         y="559.73114"
         x="1085.9869"
         style="font-style:normal;font-weight:normal;font-size:30.80823708px;line-height:125%;font-family:sans-serif;text-align:center;letter-spacing:0px;word-spacing:0px;text-anchor:middle;fill:#000000;fill-opacity:1;stroke:none;stroke-width:1px;stroke-linecap:butt;stroke-linejoin:miter;stroke-opacity:1"
         xml:space="preserve"><tspan
           style="font-style:normal;font-variant:normal;font-weight:bold;font-stretch:normal;font-size:10px;font-family:Purisa;-inkscape-font-specification:'Purisa Bold';text-align:center;text-anchor:middle"
           y="559.73114"
           x="1085.9869"
           sodipodi:role="line"
           id="tspan39851">Constitution</tspan></text>
      <g
         id="g40827">
        <g
           id="g40764"
           transform="matrix(-1,0,0,1,1973.1241,-108.59728)">
          <g
             style="fill:#4d4d4d;stroke:#1a1a1a"
             id="g25846"
             transform="matrix(1.0489324,-0.01857537,-0.01857537,-1.0489324,-390.20672,837.96633)">
            <path
               inkscape:connector-curvature="0"
               id="path25848"
               d="m 1366.6445,204.68734 -6.3927,-6.39277"
               style="fill:#4d4d4d;fill-rule:evenodd;stroke:#1a1a1a;stroke-width:1.90032458;stroke-linecap:round;stroke-linejoin:round;stroke-miterlimit:4;stroke-dasharray:none;stroke-opacity:1"
               sodipodi:nodetypes="cc" />
            <path
               sodipodi:nodetypes="cc"
               style="fill:#4d4d4d;fill-rule:evenodd;stroke:#1a1a1a;stroke-width:1.90032458;stroke-linecap:round;stroke-linejoin:round;stroke-miterlimit:4;stroke-dasharray:none;stroke-opacity:1"
               d="m 1366.6445,204.82896 -6.3927,6.39277"
               id="path25850"
               inkscape:connector-curvature="0" />
          </g>
          <path
             sodipodi:nodetypes="cc"
             inkscape:connector-curvature="0"
             id="path25852"
             d="m 954.261,597.92187 83.6685,0"
             style="fill:none;fill-rule:evenodd;stroke:#000000;stroke-width:2.4602263;stroke-linecap:round;stroke-linejoin:round;stroke-miterlimit:4;stroke-dasharray:none;stroke-opacity:1" />
        </g>
        <text
           sodipodi:linespacing="125%"
           id="text25854"
           y="481.21347"
           x="978.34711"
           style="font-style:normal;font-weight:normal;font-size:25.2650795px;line-height:125%;font-family:sans-serif;text-align:center;letter-spacing:0px;word-spacing:0px;text-anchor:middle;fill:#000000;fill-opacity:1;stroke:none;stroke-width:1px;stroke-linecap:butt;stroke-linejoin:miter;stroke-opacity:1"
           xml:space="preserve"><tspan
             style="font-style:normal;font-variant:normal;font-weight:bold;font-stretch:normal;font-size:10px;font-family:Purisa;-inkscape-font-specification:'Purisa Bold';text-align:center;text-anchor:middle"
             y="481.21347"
             x="978.34711"
             id="tspan25856"
             sodipodi:role="line">rights</tspan></text>
        <text
           xml:space="preserve"
           style="font-style:normal;font-weight:normal;font-size:25.2650795px;line-height:125%;font-family:sans-serif;text-align:center;letter-spacing:0px;word-spacing:0px;text-anchor:middle;fill:#000000;fill-opacity:1;stroke:none;stroke-width:1px;stroke-linecap:butt;stroke-linejoin:miter;stroke-opacity:1"
           x="978.34711"
           y="505.2135"
           id="text40782"
           sodipodi:linespacing="125%"><tspan
             sodipodi:role="line"
             id="tspan40784"
             x="978.34711"
             y="505.2135"
             style="font-style:normal;font-variant:normal;font-weight:bold;font-stretch:normal;font-size:10px;font-family:Purisa;-inkscape-font-specification:'Purisa Bold';text-align:center;text-anchor:middle">duties</tspan></text>
      </g>
      <g
         transform="translate(0,-12)"
         id="g40816">
        <g
           transform="translate(206.8795,-108.59728)"
           id="g40772">
          <g
             transform="matrix(1.0489324,-0.01857537,-0.01857537,-1.0489324,-390.20672,837.96633)"
             id="g40774"
             style="fill:#4d4d4d;stroke:#1a1a1a">
            <path
               sodipodi:nodetypes="cc"
               style="fill:#4d4d4d;fill-rule:evenodd;stroke:#1a1a1a;stroke-width:1.90032458;stroke-linecap:round;stroke-linejoin:round;stroke-miterlimit:4;stroke-dasharray:none;stroke-opacity:1"
               d="m 1366.6445,204.68734 -6.3927,-6.39277"
               id="path40776"
               inkscape:connector-curvature="0" />
            <path
               inkscape:connector-curvature="0"
               id="path40778"
               d="m 1366.6445,204.82896 -6.3927,6.39277"
               style="fill:#4d4d4d;fill-rule:evenodd;stroke:#1a1a1a;stroke-width:1.90032458;stroke-linecap:round;stroke-linejoin:round;stroke-miterlimit:4;stroke-dasharray:none;stroke-opacity:1"
               sodipodi:nodetypes="cc" />
          </g>
          <path
             style="fill:none;fill-rule:evenodd;stroke:#000000;stroke-width:2.4602263;stroke-linecap:round;stroke-linejoin:round;stroke-miterlimit:4;stroke-dasharray:none;stroke-opacity:1"
             d="m 954.261,597.92187 83.6685,0"
             id="path40780"
             inkscape:connector-curvature="0"
             sodipodi:nodetypes="cc" />
        </g>
        <text
           sodipodi:linespacing="125%"
           id="text40786"
           y="481.83786"
           x="1204.5603"
           style="font-style:normal;font-weight:normal;font-size:25.2650795px;line-height:125%;font-family:sans-serif;text-align:center;letter-spacing:0px;word-spacing:0px;text-anchor:middle;fill:#000000;fill-opacity:1;stroke:none;stroke-width:1px;stroke-linecap:butt;stroke-linejoin:miter;stroke-opacity:1"
           xml:space="preserve"><tspan
             style="font-style:normal;font-variant:normal;font-weight:bold;font-stretch:normal;font-size:10px;font-family:Purisa;-inkscape-font-specification:'Purisa Bold';text-align:center;text-anchor:middle"
             y="481.83786"
             x="1204.5603"
             id="tspan40788"
             sodipodi:role="line">duties</tspan></text>
        <text
           xml:space="preserve"
           style="font-style:normal;font-weight:normal;font-size:25.2650795px;line-height:125%;font-family:sans-serif;text-align:center;letter-spacing:0px;word-spacing:0px;text-anchor:middle;fill:#000000;fill-opacity:1;stroke:none;stroke-width:1px;stroke-linecap:butt;stroke-linejoin:miter;stroke-opacity:1"
           x="1202.5603"
           y="507.83789"
           id="text40790"
           sodipodi:linespacing="125%"><tspan
             sodipodi:role="line"
             id="tspan40792"
             x="1202.5603"
             y="507.83789"
             style="font-style:normal;font-variant:normal;font-weight:bold;font-stretch:normal;font-size:10px;font-family:Purisa;-inkscape-font-specification:'Purisa Bold';text-align:center;text-anchor:middle">directive principles</tspan></text>
      </g>
      <g
         style="fill:#4d4d4d;stroke:#1a1a1a"
         id="g40796"
         transform="matrix(1.0489324,-0.01857537,-0.01857537,-1.0489324,-340.14438,649.36912)">
        <path
           inkscape:connector-curvature="0"
           id="path40798"
           d="m 1366.6445,204.68734 -6.3927,-6.39277"
           style="fill:#4d4d4d;fill-rule:evenodd;stroke:#1a1a1a;stroke-width:1.90032458;stroke-linecap:round;stroke-linejoin:round;stroke-miterlimit:4;stroke-dasharray:none;stroke-opacity:1"
           sodipodi:nodetypes="cc" />
        <path
           sodipodi:nodetypes="cc"
           style="fill:#4d4d4d;fill-rule:evenodd;stroke:#1a1a1a;stroke-width:1.90032458;stroke-linecap:round;stroke-linejoin:round;stroke-miterlimit:4;stroke-dasharray:none;stroke-opacity:1"
           d="m 1366.6445,204.82896 -6.3927,6.39277"
           id="path40800"
           inkscape:connector-curvature="0" />
      </g>
      <path
         sodipodi:nodetypes="cccc"
         inkscape:connector-curvature="0"
         id="path40802"
         d="m 853.89264,439.32459 -0.008,-30 480.59606,0 0,33.78571"
         style="fill:none;fill-rule:evenodd;stroke:#000000;stroke-width:2.4602263;stroke-linecap:round;stroke-linejoin:round;stroke-miterlimit:4;stroke-dasharray:none;stroke-opacity:1" />
      <text
         xml:space="preserve"
         style="font-style:normal;font-weight:normal;font-size:30.80823708px;line-height:125%;font-family:sans-serif;text-align:center;letter-spacing:0px;word-spacing:0px;text-anchor:middle;fill:#000000;fill-opacity:1;stroke:none;stroke-width:1px;stroke-linecap:butt;stroke-linejoin:miter;stroke-opacity:1"
         x="1085.9869"
         y="397.73114"
         id="text40812"
         sodipodi:linespacing="125%"><tspan
           id="tspan40814"
           sodipodi:role="line"
           x="1085.9869"
           y="397.73114"
           style="font-style:normal;font-variant:normal;font-weight:bold;font-stretch:normal;font-size:10px;font-family:Purisa;-inkscape-font-specification:'Purisa Bold';text-align:center;text-anchor:middle">civil disobedience - pressure</tspan></text>
      <g
         id="g40867">
        <g
           id="g40840"
           transform="matrix(-1,0,0,1,2200.4084,-78.59728)">
          <g
             style="fill:#4d4d4d;stroke:#1a1a1a"
             id="g40842"
             transform="matrix(1.0489324,-0.01857537,-0.01857537,-1.0489324,-390.20672,837.96633)">
            <path
               inkscape:connector-curvature="0"
               id="path40844"
               d="m 1366.6445,204.68734 -6.3927,-6.39277"
               style="fill:#4d4d4d;fill-rule:evenodd;stroke:#1a1a1a;stroke-width:1.90032458;stroke-linecap:round;stroke-linejoin:round;stroke-miterlimit:4;stroke-dasharray:none;stroke-opacity:1"
               sodipodi:nodetypes="cc" />
            <path
               sodipodi:nodetypes="cc"
               style="fill:#4d4d4d;fill-rule:evenodd;stroke:#1a1a1a;stroke-width:1.90032458;stroke-linecap:round;stroke-linejoin:round;stroke-miterlimit:4;stroke-dasharray:none;stroke-opacity:1"
               d="m 1366.6445,204.82896 -6.3927,6.39277"
               id="path40846"
               inkscape:connector-curvature="0" />
          </g>
          <path
             sodipodi:nodetypes="cc"
             inkscape:connector-curvature="0"
             id="path40848"
             d="m 954.261,597.92187 83.6685,0"
             style="fill:none;fill-rule:evenodd;stroke:#000000;stroke-width:2.4602263;stroke-linecap:round;stroke-linejoin:round;stroke-miterlimit:4;stroke-dasharray:none;stroke-opacity:1" />
        </g>
        <text
           sodipodi:linespacing="125%"
           id="text40854"
           y="533.83789"
           x="1207.5186"
           style="font-style:normal;font-weight:normal;font-size:25.2650795px;line-height:125%;font-family:sans-serif;text-align:center;letter-spacing:0px;word-spacing:0px;text-anchor:middle;fill:#000000;fill-opacity:1;stroke:none;stroke-width:1px;stroke-linecap:butt;stroke-linejoin:miter;stroke-opacity:1"
           xml:space="preserve"><tspan
             style="font-style:normal;font-variant:normal;font-weight:bold;font-stretch:normal;font-size:10px;font-family:Purisa;-inkscape-font-specification:'Purisa Bold';text-align:center;text-anchor:middle"
             y="533.83789"
             x="1207.5186"
             id="tspan40856"
             sodipodi:role="line">amendments</tspan></text>
      </g>
      <path
         style="fill:none;fill-rule:evenodd;stroke:#000000;stroke-width:2.4602263;stroke-linecap:round;stroke-linejoin:round;stroke-miterlimit:4;stroke-dasharray:none;stroke-opacity:1"
         d="m 853.89264,583.12782 -0.008,30 480.59606,0 0,-33.78571"
         id="path40876"
         inkscape:connector-curvature="0"
         sodipodi:nodetypes="cccc" />
      <g
         transform="matrix(-1.0489324,-0.01857537,0.01857537,-1.0489324,2512.4595,853.36912)"
         id="g40878"
         style="fill:#4d4d4d;stroke:#1a1a1a">
        <path
           sodipodi:nodetypes="cc"
           style="fill:#4d4d4d;fill-rule:evenodd;stroke:#1a1a1a;stroke-width:1.90032458;stroke-linecap:round;stroke-linejoin:round;stroke-miterlimit:4;stroke-dasharray:none;stroke-opacity:1"
           d="m 1366.6445,204.68734 -6.3927,-6.39277"
           id="path40880"
           inkscape:connector-curvature="0" />
        <path
           inkscape:connector-curvature="0"
           id="path40882"
           d="m 1366.6445,204.82896 -6.3927,6.39277"
           style="fill:#4d4d4d;fill-rule:evenodd;stroke:#1a1a1a;stroke-width:1.90032458;stroke-linecap:round;stroke-linejoin:round;stroke-miterlimit:4;stroke-dasharray:none;stroke-opacity:1"
           sodipodi:nodetypes="cc" />
      </g>
      <text
         sodipodi:linespacing="125%"
         id="text40884"
         y="631.73114"
         x="1085.9869"
         style="font-style:normal;font-weight:normal;font-size:30.80823708px;line-height:125%;font-family:sans-serif;text-align:center;letter-spacing:0px;word-spacing:0px;text-anchor:middle;fill:#000000;fill-opacity:1;stroke:none;stroke-width:1px;stroke-linecap:butt;stroke-linejoin:miter;stroke-opacity:1"
         xml:space="preserve"><tspan
           style="font-style:normal;font-variant:normal;font-weight:bold;font-stretch:normal;font-size:10px;font-family:Purisa;-inkscape-font-specification:'Purisa Bold';text-align:center;text-anchor:middle"
           y="631.73114"
           x="1085.9869"
           sodipodi:role="line"
           id="tspan40886">services</tspan></text>
    </g>
  </g>
</svg>
