<?xml version="1.0" encoding="UTF-8" standalone="no"?>
<!-- Created with Inkscape (http://www.inkscape.org/) -->

<svg
   xmlns:dc="http://purl.org/dc/elements/1.1/"
   xmlns:cc="http://creativecommons.org/ns#"
   xmlns:rdf="http://www.w3.org/1999/02/22-rdf-syntax-ns#"
   xmlns:svg="http://www.w3.org/2000/svg"
   xmlns="http://www.w3.org/2000/svg"
   xmlns:xlink="http://www.w3.org/1999/xlink"
   xmlns:sodipodi="http://sodipodi.sourceforge.net/DTD/sodipodi-0.dtd"
   xmlns:inkscape="http://www.inkscape.org/namespaces/inkscape"
   width="112.88889mm"
   height="95.717049mm"
   viewBox="0 0 400.00001 339.1549"
   id="svg7922"
   version="1.1"
   inkscape:version="0.91 r13725"
   sodipodi:docname="demonstration-internet.svg">
  <defs
     id="defs7924">
    <clipPath
       clipPathUnits="userSpaceOnUse"
       id="clipPath6545-9">
      <rect
         style="opacity:1;fill:#cccccc;fill-opacity:1;stroke:none;stroke-width:0.2;stroke-linecap:round;stroke-linejoin:round;stroke-miterlimit:4;stroke-dasharray:none;stroke-dashoffset:0;stroke-opacity:1"
         id="rect6547-1"
         width="71.568138"
         height="71.568138"
         x="-196.50887"
         y="94.819542"
         rx="0"
         ry="0"
         transform="matrix(0.70710678,0.70710678,-0.70710678,0.70710678,0,0)" />
    </clipPath>
    <pattern
       patternTransform="matrix(10,0,0,10,-1275.1943,-1313.7954)"
       id="pattern5589"
       xlink:href="#Checkerboard"
       inkscape:collect="always" />
    <pattern
       inkscape:isstock="true"
       inkscape:collect="always"
       patternUnits="userSpaceOnUse"
       width="2"
       height="2"
       patternTransform="translate(0,0) scale(10,10)"
       id="Checkerboard"
       inkscape:stockid="Checkerboard">
      <rect
         style="fill:black;stroke:none"
         x="0"
         y="0"
         width="1"
         height="1"
         id="rect4940" />
      <rect
         style="fill:black;stroke:none"
         x="1"
         y="1"
         width="1"
         height="1"
         id="rect4942" />
    </pattern>
    <pattern
       id="pattern5586"
       patternTransform="translate(61.70704,503.49469)"
       height="65.735043"
       width="526.58585"
       patternUnits="userSpaceOnUse">
      <rect
         style="opacity:1;fill:url(#pattern5589);fill-opacity:1;stroke:#ececec;stroke-width:4.28598452;stroke-linecap:round;stroke-linejoin:round;stroke-miterlimit:4;stroke-dasharray:none;stroke-dashoffset:0;stroke-opacity:1"
         id="rect3336"
         width="366.2804"
         height="167.23994"
         x="159.36771"
         y="2.1429923"
         transform="matrix(1,0,-0.92365014,0.38323677,0,0)" />
    </pattern>
    <filter
       inkscape:collect="always"
       style="color-interpolation-filters:sRGB"
       id="filter14481"
       x="-0.054212399"
       width="1.1084248"
       y="-0.067171037"
       height="1.1343421">
      <feGaussianBlur
         inkscape:collect="always"
         stdDeviation="2.0329875"
         id="feGaussianBlur14483" />
    </filter>
    <filter
       inkscape:collect="always"
       style="color-interpolation-filters:sRGB"
       id="filter14549"
       x="-0.055982497"
       width="1.1119649"
       y="-0.064638704"
       height="1.1292773">
      <feGaussianBlur
         inkscape:collect="always"
         stdDeviation="1.772531"
         id="feGaussianBlur14551" />
    </filter>
    <filter
       inkscape:collect="always"
       style="color-interpolation-filters:sRGB"
       id="filter14595"
       x="-0.047394928"
       width="1.0947899"
       y="-0.081739224"
       height="1.1634784">
      <feGaussianBlur
         inkscape:collect="always"
         stdDeviation="1.4416786"
         id="feGaussianBlur14597" />
    </filter>
  </defs>
  <sodipodi:namedview
     id="base"
     pagecolor="#ffffff"
     bordercolor="#666666"
     borderopacity="1.0"
     inkscape:pageopacity="0.0"
     inkscape:pageshadow="2"
     inkscape:zoom="0.98994949"
     inkscape:cx="196.78743"
     inkscape:cy="221.36835"
     inkscape:document-units="px"
     inkscape:current-layer="layer1"
     showgrid="false"
     inkscape:window-width="1366"
     inkscape:window-height="713"
     inkscape:window-x="0"
     inkscape:window-y="27"
     inkscape:window-maximized="1"
     fit-margin-top="0"
     fit-margin-left="0"
     fit-margin-right="0"
     fit-margin-bottom="0"
     showborder="false"
     showguides="true"
     inkscape:guide-bbox="true">
    <sodipodi:guide
       position="353.7645,155.26405"
       orientation="0,1"
       id="guide14747" />
    <sodipodi:guide
       position="194.1604,173.4468"
       orientation="1,0"
       id="guide14749" />
    <sodipodi:guide
       position="83.548695,140.11176"
       orientation="1,0"
       id="guide14751" />
    <sodipodi:guide
       position="303.7619,155.26405"
       orientation="1,0"
       id="guide14753" />
  </sodipodi:namedview>
  <metadata
     id="metadata7927">
    <rdf:RDF>
      <cc:Work
         rdf:about="">
        <dc:format>image/svg+xml</dc:format>
        <dc:type
           rdf:resource="http://purl.org/dc/dcmitype/StillImage" />
        <dc:title></dc:title>
      </cc:Work>
    </rdf:RDF>
  </metadata>
  <g
     inkscape:label="Layer 1"
     inkscape:groupmode="layer"
     id="layer1"
     transform="translate(-1736.3467,-130.38137)">
    <g
       id="g14811"
       inkscape:export-xdpi="90"
       inkscape:export-ydpi="90"
       transform="matrix(1.2792688,0,0,1.2792688,-537.88987,-85.897821)">
      <path
         sodipodi:nodetypes="csssccsssssssssccsssc"
         inkscape:connector-curvature="0"
         id="path14677"
         d="m 1887.6995,-213.57135 c -6.5504,-2.77057 -12.775,-6.1604 -18.6006,-10.09608 -5.8256,-3.93569 -11.2521,-8.41724 -16.2061,-13.37126 -4.954,-4.95403 -9.4356,-10.38053 -13.3713,-16.20611 -3.9356,-5.82558 -7.3255,-12.05025 -10.096,-18.60061 m 10.096,-103.84741 c 3.9357,-5.82558 8.4173,-11.25208 13.3713,-16.2061 4.954,-4.95402 10.3805,-9.43557 16.2061,-13.37126 5.8256,-3.93568 12.0502,-7.32551 18.6006,-10.09608 6.5504,-2.77057 13.4264,-4.92189 20.5548,-6.38056 7.1283,-1.45868 14.509,-2.22471 22.0686,-2.22471 7.5596,0 14.9403,0.76603 22.0686,2.2247 7.1284,1.45868 14.0044,3.60999 20.5548,6.38056 6.5504,2.77057 12.775,6.1604 18.6006,10.09608 5.8256,3.93569 11.2521,8.41724 16.2061,13.37126 4.954,4.95403 9.4356,10.38053 13.3713,16.20611 m 10.096,103.84741 c -2.7705,6.55036 -6.1604,12.77502 -10.096,18.60061 -3.9357,5.82558 -8.4173,11.25208 -13.3713,16.2061 -4.954,4.95402 -10.3805,9.43557 -16.2061,13.37126 -5.8256,3.93568 -12.0502,7.32551 -18.6006,10.09608"
         style="opacity:1;fill:#1a1a1a;fill-opacity:0;stroke:#1a1a1a;stroke-width:1.99999988;stroke-linecap:round;stroke-linejoin:round;stroke-miterlimit:4;stroke-dasharray:none;stroke-dashoffset:0;stroke-opacity:1"
         transform="scale(1,-1)" />
      <text
         xml:space="preserve"
         style="font-style:normal;font-weight:normal;font-size:24.0826931px;line-height:125%;font-family:sans-serif;text-align:center;letter-spacing:0px;word-spacing:0px;text-anchor:middle;fill:#000000;fill-opacity:1;stroke:none;stroke-width:1px;stroke-linecap:butt;stroke-linejoin:miter;stroke-opacity:1"
         x="1826.7255"
         y="363.9733"
         id="text14643"
         sodipodi:linespacing="125%"><tspan
           sodipodi:role="line"
           id="tspan14645"
           x="1826.7255"
           y="363.9733"
           style="font-style:normal;font-variant:normal;font-weight:bold;font-stretch:normal;font-size:9.50162315px;font-family:Purisa;-inkscape-font-specification:'Purisa Bold';text-align:center;text-anchor:middle">demonstration</tspan></text>
      <text
         xml:space="preserve"
         style="font-style:normal;font-weight:normal;font-size:24.0826931px;line-height:125%;font-family:sans-serif;text-align:center;letter-spacing:0px;word-spacing:0px;text-anchor:middle;fill:#000000;fill-opacity:1;stroke:none;stroke-width:1px;stroke-linecap:butt;stroke-linejoin:miter;stroke-opacity:1"
         x="2044.2"
         y="366.49692"
         id="text14651"
         sodipodi:linespacing="125%"><tspan
           sodipodi:role="line"
           id="tspan14653"
           x="2044.2"
           y="366.49692"
           style="font-style:normal;font-variant:normal;font-weight:bold;font-stretch:normal;font-size:9.50162315px;font-family:Purisa;-inkscape-font-specification:'Purisa Bold';text-align:center;text-anchor:middle">government</tspan></text>
      <g
         style="fill:#4d4d4d;stroke:#1a1a1a"
         id="g14703"
         transform="matrix(-0.99984323,-0.01770605,0.01770605,-0.99984323,3289.271,652.65172)">
        <path
           inkscape:connector-curvature="0"
           id="path14705"
           d="m 1366.6445,204.68734 -6.3927,-6.39277"
           style="fill:#4d4d4d;fill-rule:evenodd;stroke:#1a1a1a;stroke-width:1.90032458;stroke-linecap:round;stroke-linejoin:round;stroke-miterlimit:4;stroke-dasharray:none;stroke-opacity:1"
           sodipodi:nodetypes="cc" />
        <path
           sodipodi:nodetypes="cc"
           style="fill:#4d4d4d;fill-rule:evenodd;stroke:#1a1a1a;stroke-width:1.90032458;stroke-linecap:round;stroke-linejoin:round;stroke-miterlimit:4;stroke-dasharray:none;stroke-opacity:1"
           d="m 1366.6445,204.82896 -6.3927,6.39277"
           id="path14707"
           inkscape:connector-curvature="0" />
      </g>
      <text
         inkscape:transform-center-y="-70.624249"
         transform="matrix(-0.7305108,0.68290114,-0.68290114,-0.7305108,3555.0125,-775.30023)"
         inkscape:transform-center-x="-75.472754"
         sodipodi:linespacing="125%"
         id="text14729"
         style="font-style:normal;font-weight:normal;font-size:24.0826931px;line-height:125%;font-family:sans-serif;text-align:center;letter-spacing:0px;word-spacing:0px;text-anchor:middle;fill:#000000;fill-opacity:1;stroke:none;stroke-width:1px;stroke-linecap:butt;stroke-linejoin:miter;stroke-opacity:1"
         xml:space="preserve"><textPath
           id="textPath14789"
           startOffset="50%"
           xlink:href="#path14781"><tspan
   id="tspan14731"
   style="font-style:normal;font-variant:normal;font-weight:bold;font-stretch:normal;font-size:9.50162315px;font-family:Purisa;-inkscape-font-specification:'Purisa Bold';text-align:center;text-anchor:middle">pressure</tspan></textPath></text>
      <text
         inkscape:transform-center-y="-82.449428"
         transform="matrix(0.70710678,0.70710678,-0.70710678,0.70710678,787.65404,-1273.0016)"
         inkscape:transform-center-x="82.359633"
         xml:space="preserve"
         style="font-style:normal;font-weight:normal;font-size:24.0826931px;line-height:125%;font-family:sans-serif;text-align:center;letter-spacing:0px;word-spacing:0px;text-anchor:middle;fill:#000000;fill-opacity:1;stroke:none;stroke-width:1px;stroke-linecap:butt;stroke-linejoin:miter;stroke-opacity:1"
         id="text14735"
         sodipodi:linespacing="125%"><textPath
           id="textPath14786"
           startOffset="50%"
           xlink:href="#path14781"><tspan
   id="tspan14739"
   style="font-style:normal;font-variant:normal;font-weight:bold;font-stretch:normal;font-size:9.50162315px;font-family:Purisa;-inkscape-font-specification:'Purisa Bold';text-align:center;text-anchor:middle">conversations</tspan></textPath></text>
      <g
         transform="translate(-10.101579,8.5862966)"
         id="g14553">
        <g
           style="fill:#333333;filter:url(#filter14549)"
           transform="translate(1780.2435,259.50945)"
           id="g14515">
          <path
             style="fill:#333333"
             id="path14517"
             d="m 86.812,55.433 c -0.073,-0.011 -0.143,-0.015 -0.21,-0.017 l 0,-3.293 -0.817,0 0,3.568 c -0.24,0.211 -0.413,0.538 -0.511,0.975 -0.563,2.525 -2.106,4.123 -4.572,4.777 0.475,-0.503 0.774,-1.246 0.774,-2.078 0,-1.518 -0.998,-2.749 -2.229,-2.749 -1.231,0 -2.229,1.231 -2.229,2.749 0,1.178 0.601,2.178 1.443,2.57 -0.527,0.1 -1.056,0.192 -1.585,0.281 -1.27,0.211 -2.352,-0.24 -3.181,-0.919 0.528,-1.179 1.071,-2.231 1.474,-3.335 0.315,-0.867 -0.076,-1.572 -0.816,-1.783 -0.777,-0.223 -1.381,0.21 -1.698,1.125 -0.22,0.636 -0.527,1.242 -0.859,2.007 C 71.457,58.804 71.24,58.48 71.024,58.156 70.53,57.418 69.85,57.215 69.19,57.605 c -0.674,0.396 -0.828,1.156 -0.372,1.93 0.284,0.48 0.599,0.943 0.912,1.436 -1.094,0.623 -2.241,0.771 -3.391,0.85 0.882,-0.366 1.519,-1.393 1.519,-2.604 0,-1.519 -0.998,-2.749 -2.229,-2.749 -1.23,0 -2.229,1.23 -2.229,2.749 0,1.299 0.731,2.386 1.715,2.672 -1.717,0.533 -3.212,0.167 -4.386,-0.972 0.49,-0.94 0.992,-1.781 1.373,-2.673 0.335,-0.785 -0.01,-1.508 -0.707,-1.771 -0.714,-0.269 -1.361,0.062 -1.715,0.856 -0.195,0.436 -0.418,0.857 -0.693,1.421 -0.258,-0.476 -0.43,-0.796 -0.605,-1.116 -0.447,-0.812 -1.126,-1.085 -1.836,-0.736 -0.698,0.343 -0.903,1.09 -0.492,1.912 0.284,0.569 0.608,1.118 0.983,1.801 -0.688,0.223 -1.301,0.554 -1.935,0.602 -0.604,0.045 -1.207,0.077 -1.812,0.105 0.816,-0.409 1.393,-1.395 1.393,-2.548 0,-1.518 -0.997,-2.748 -2.229,-2.748 -1.232,0 -2.229,1.23 -2.229,2.748 0,1.204 0.629,2.226 1.503,2.597 -0.578,0.012 -1.156,0.016 -1.733,0.008 -0.944,-0.012 -1.727,-0.538 -2.316,-1.157 0.854,-1.086 1.478,-2.241 1.646,-3.59 0.079,-0.635 -0.452,-1.218 -1.083,-1.3 -0.675,-0.089 -1.158,0.215 -1.413,0.834 -0.238,0.578 -0.434,1.172 -0.716,1.947 -0.31,-0.68 -0.535,-1.168 -0.754,-1.659 -0.101,-0.225 -0.222,-0.412 -0.358,-0.562 l 0,-3.989 -0.817,0 0,3.577 c -0.188,-0.01 -0.386,0.023 -0.59,0.109 -0.72,0.303 -0.985,1.033 -0.632,1.863 0.355,0.838 0.754,1.658 1.193,2.617 -0.7,0.248 -1.37,0.58 -2.078,0.714 -0.439,0.084 -0.883,0.145 -1.329,0.196 0.822,-0.404 1.404,-1.395 1.404,-2.553 0,-1.518 -0.998,-2.748 -2.229,-2.748 -1.231,0 -2.229,1.23 -2.229,2.748 0,1.321 0.756,2.425 1.764,2.688 -0.229,0.022 -0.459,0.048 -0.688,0.073 l 0.011,10e-4 c -1.765,0.396 -3.208,-0.159 -4.265,-1.327 0.463,-1.104 0.945,-2.094 1.292,-3.132 0.172,-0.515 0.04,-0.986 -0.275,-1.304 L 46.456,31.595 c 0.195,-0.429 0.431,-0.567 0.897,-0.538 4.111,0.26 7.441,2.013 9.805,5.369 2.99,4.248 7.131,5.811 12.139,5.593 0.47,-0.021 0.736,-0.192 0.952,-0.641 2.169,-4.525 4.366,-9.038 6.554,-13.555 0.092,-0.189 0.157,-0.392 0.248,-0.621 -0.523,0 -0.966,10e-4 -1.409,0 -4.734,-0.015 -8.585,-1.705 -11.355,-5.71 -1.826,-2.642 -4.399,-4.336 -7.573,-4.963 -1.366,-0.27 -2.778,-0.301 -4.166,-0.44 -3.422,7.458 -13.465,29.357 -17.857,38.942 -0.62,-0.061 -1.148,0.33 -1.385,1.036 -0.147,0.437 -0.311,0.867 -0.502,1.397 -0.16,-0.275 -0.262,-0.441 -0.356,-0.611 -0.266,-0.479 -0.626,-0.778 -1.017,-0.875 l 0,-3.685 -0.817,0 0,3.78 c -0.02,0.009 -0.039,0.017 -0.058,0.027 -0.657,0.353 -0.836,1.121 -0.43,1.936 0.249,0.5 0.526,0.986 0.867,1.621 -0.891,0.314 -1.678,0.691 -2.508,0.863 -0.227,0.047 -0.456,0.084 -0.687,0.116 0.522,-0.503 0.859,-1.284 0.859,-2.166 0,-1.518 -0.998,-2.748 -2.229,-2.748 -1.231,0 -2.229,1.23 -2.229,2.748 0,1.038 0.467,1.941 1.156,2.409 -1.894,0.484 -3.411,-0.215 -4.6,-1.668 -0.684,-0.835 -1.217,-1.797 -1.786,-2.721 -0.333,-0.541 -0.795,-0.841 -1.282,-0.83 l 0,-4.111 -0.817,0 0,4.436 c -0.449,0.39 -0.558,1.04 -0.22,1.71 0.311,0.617 0.656,1.222 1.036,1.799 1.181,1.798 2.629,3.284 4.779,3.9 0.304,0.087 0.612,0.159 0.913,0.238 0.015,0.205 0.034,0.353 0.034,0.499 0.013,3.985 0.025,7.972 0.035,11.957 0.003,1.139 -0.073,2.284 0.038,3.413 0.042,0.429 0.427,0.99 0.807,1.17 0.345,0.163 1.01,0.026 1.324,-0.232 0.298,-0.245 0.442,-0.819 0.45,-1.253 0.04,-2.228 0.013,-4.456 0.013,-6.684 0,-0.263 0.026,-0.524 0.039,-0.785 0.414,0 0.748,0 1.16,0 0,1.382 0,2.713 0,4.044 -10e-4,1.238 -0.021,2.477 0.002,3.715 0.015,0.795 0.567,1.343 1.288,1.356 0.719,0.014 1.27,-0.532 1.324,-1.32 0.015,-0.223 0.006,-0.446 0.006,-0.668 -0.002,-5.077 -0.006,-10.151 -0.008,-15.227 0,-0.238 0,-0.479 0,-0.625 0.846,-0.428 1.589,-0.816 2.347,-1.176 0.142,-0.066 0.411,-0.09 0.501,-0.005 1.164,1.095 2.509,1.829 4.125,2.083 0,0.355 0,0.65 0,0.946 0.004,5.075 0.006,10.151 0.012,15.227 10e-4,1.107 0.458,1.693 1.314,1.706 0.864,0.014 1.33,-0.567 1.333,-1.67 0.003,-1.114 0.001,-2.229 0.001,-3.342 0,-1.157 0,-2.315 0,-3.479 0.437,0 0.791,0 1.194,0 0,0.222 0,0.392 0,0.562 -10e-4,2.03 -0.008,4.06 0.001,6.09 0.004,0.854 0.518,1.422 1.27,1.451 0.772,0.031 1.333,-0.552 1.373,-1.431 0.007,-0.148 0.003,-0.297 0.003,-0.446 -10e-4,-5.075 0.018,-10.151 -0.026,-15.226 -0.006,-0.799 0.109,-1.301 0.969,-1.477 0.35,-0.072 0.687,-0.287 0.99,-0.494 0.346,-0.238 0.562,-0.159 0.904,0.067 0.775,0.514 1.593,0.979 2.442,1.358 0.403,0.181 0.51,0.334 0.453,0.752 -0.68,5.021 -0.579,10.073 -0.563,15.121 0.003,0.99 0.489,1.559 1.292,1.568 0.828,0.009 1.32,-0.58 1.328,-1.608 0.008,-1.04 0.002,-2.079 0.002,-3.119 0,-1.381 0,-2.763 0,-4.238 0.471,0.053 0.867,0.097 1.295,0.146 0,0.361 0,0.631 0,0.901 0.002,2.253 -0.008,4.506 0.008,6.759 0.006,0.803 0.539,1.336 1.276,1.355 0.729,0.019 1.278,-0.502 1.351,-1.295 0.016,-0.172 -0.002,-0.347 10e-4,-0.521 0.062,-3.81 0.094,-7.619 0.2,-11.429 0.042,-1.448 0.252,-2.892 0.377,-4.233 1.088,-0.437 2.066,-0.829 3.098,-1.24 1.102,1.081 2.455,1.799 4.075,2.044 0,0.302 0,0.547 0,0.792 0.003,2.995 0.007,5.99 0.009,8.986 10e-4,2.006 -0.011,4.011 0.004,6.016 0.007,0.868 0.518,1.393 1.299,1.404 0.764,0.011 1.288,-0.525 1.34,-1.378 0.01,-0.174 0.002,-0.347 0.002,-0.521 0,-2.129 0,-4.259 -0.002,-6.388 0,-0.262 0,-0.523 0,-0.78 0.452,0 0.789,0 1.201,0 0,0.312 0,0.578 0,0.844 -0.003,2.278 -0.016,4.556 -0.003,6.834 0.005,0.936 0.665,1.508 1.526,1.375 0.716,-0.109 1.077,-0.641 1.077,-1.611 0.001,-5.15 -0.002,-10.3 -0.005,-15.449 0,-0.271 0,-0.539 0,-0.768 0.707,-0.335 1.345,-0.658 2.004,-0.931 0.158,-0.066 0.408,-0.006 0.579,0.074 0.22,0.102 0.385,0.324 0.605,0.422 1.157,0.509 2.326,0.994 3.692,1.572 0.148,2.817 0.349,5.877 0.456,8.94 0.071,2.002 -0.001,4.01 0.013,6.015 0.006,0.816 0.523,1.344 1.264,1.358 0.736,0.016 1.276,-0.507 1.334,-1.303 0.018,-0.247 0.009,-0.495 0.008,-0.742 -0.001,-1.981 -0.008,-3.962 -0.007,-5.942 0,-0.262 0.025,-0.523 0.042,-0.82 0.421,0 0.755,0 1.165,0 0,0.453 0,0.869 0,1.285 -0.002,2.055 -0.022,4.109 0.006,6.164 0.011,0.857 0.584,1.379 1.353,1.357 0.706,-0.021 1.266,-0.543 1.253,-1.298 -0.068,-4.106 -0.146,-8.212 -0.264,-12.316 -0.041,-1.424 -0.205,-2.845 -0.312,-4.249 0.392,-0.195 0.732,-0.346 1.053,-0.529 2.356,-1.341 3.793,-3.35 4.297,-6.01 C 88,56.194 87.579,55.548 86.812,55.433 Z"
             inkscape:connector-curvature="0" />
          <rect
             style="fill:#333333"
             id="rect14519"
             height="17.458"
             width="11.812"
             y="33.687"
             x="11.875" />
          <rect
             style="fill:#333333"
             id="rect14521"
             height="11.195"
             width="7.8740001"
             y="40.669998"
             x="27.42" />
          <path
             style="fill:#333333"
             id="path14523"
             d="m 70.882,42.341 c -0.238,0.497 -0.533,0.687 -1.055,0.709 -4.617,0.202 -8.568,-0.965 -11.674,-4.071 l -14.65,0 0,12.5 43.533,0 0,-12.5 -14.537,0 c -0.54,1.12 -1.079,2.24 -1.617,3.362 z"
             inkscape:connector-curvature="0" />
        </g>
        <g
           id="g13246"
           transform="translate(1780.2435,259.50945)"
           style="fill:#333333">
          <path
             inkscape:connector-curvature="0"
             d="m 86.812,55.433 c -0.073,-0.011 -0.143,-0.015 -0.21,-0.017 l 0,-3.293 -0.817,0 0,3.568 c -0.24,0.211 -0.413,0.538 -0.511,0.975 -0.563,2.525 -2.106,4.123 -4.572,4.777 0.475,-0.503 0.774,-1.246 0.774,-2.078 0,-1.518 -0.998,-2.749 -2.229,-2.749 -1.231,0 -2.229,1.231 -2.229,2.749 0,1.178 0.601,2.178 1.443,2.57 -0.527,0.1 -1.056,0.192 -1.585,0.281 -1.27,0.211 -2.352,-0.24 -3.181,-0.919 0.528,-1.179 1.071,-2.231 1.474,-3.335 0.315,-0.867 -0.076,-1.572 -0.816,-1.783 -0.777,-0.223 -1.381,0.21 -1.698,1.125 -0.22,0.636 -0.527,1.242 -0.859,2.007 C 71.457,58.804 71.24,58.48 71.024,58.156 70.53,57.418 69.85,57.215 69.19,57.605 c -0.674,0.396 -0.828,1.156 -0.372,1.93 0.284,0.48 0.599,0.943 0.912,1.436 -1.094,0.623 -2.241,0.771 -3.391,0.85 0.882,-0.366 1.519,-1.393 1.519,-2.604 0,-1.519 -0.998,-2.749 -2.229,-2.749 -1.23,0 -2.229,1.23 -2.229,2.749 0,1.299 0.731,2.386 1.715,2.672 -1.717,0.533 -3.212,0.167 -4.386,-0.972 0.49,-0.94 0.992,-1.781 1.373,-2.673 0.335,-0.785 -0.01,-1.508 -0.707,-1.771 -0.714,-0.269 -1.361,0.062 -1.715,0.856 -0.195,0.436 -0.418,0.857 -0.693,1.421 -0.258,-0.476 -0.43,-0.796 -0.605,-1.116 -0.447,-0.812 -1.126,-1.085 -1.836,-0.736 -0.698,0.343 -0.903,1.09 -0.492,1.912 0.284,0.569 0.608,1.118 0.983,1.801 -0.688,0.223 -1.301,0.554 -1.935,0.602 -0.604,0.045 -1.207,0.077 -1.812,0.105 0.816,-0.409 1.393,-1.395 1.393,-2.548 0,-1.518 -0.997,-2.748 -2.229,-2.748 -1.232,0 -2.229,1.23 -2.229,2.748 0,1.204 0.629,2.226 1.503,2.597 -0.578,0.012 -1.156,0.016 -1.733,0.008 -0.944,-0.012 -1.727,-0.538 -2.316,-1.157 0.854,-1.086 1.478,-2.241 1.646,-3.59 0.079,-0.635 -0.452,-1.218 -1.083,-1.3 -0.675,-0.089 -1.158,0.215 -1.413,0.834 -0.238,0.578 -0.434,1.172 -0.716,1.947 -0.31,-0.68 -0.535,-1.168 -0.754,-1.659 -0.101,-0.225 -0.222,-0.412 -0.358,-0.562 l 0,-3.989 -0.817,0 0,3.577 c -0.188,-0.01 -0.386,0.023 -0.59,0.109 -0.72,0.303 -0.985,1.033 -0.632,1.863 0.355,0.838 0.754,1.658 1.193,2.617 -0.7,0.248 -1.37,0.58 -2.078,0.714 -0.439,0.084 -0.883,0.145 -1.329,0.196 0.822,-0.404 1.404,-1.395 1.404,-2.553 0,-1.518 -0.998,-2.748 -2.229,-2.748 -1.231,0 -2.229,1.23 -2.229,2.748 0,1.321 0.756,2.425 1.764,2.688 -0.229,0.022 -0.459,0.048 -0.688,0.073 l 0.011,10e-4 c -1.765,0.396 -3.208,-0.159 -4.265,-1.327 0.463,-1.104 0.945,-2.094 1.292,-3.132 0.172,-0.515 0.04,-0.986 -0.275,-1.304 L 46.456,31.595 c 0.195,-0.429 0.431,-0.567 0.897,-0.538 4.111,0.26 7.441,2.013 9.805,5.369 2.99,4.248 7.131,5.811 12.139,5.593 0.47,-0.021 0.736,-0.192 0.952,-0.641 2.169,-4.525 4.366,-9.038 6.554,-13.555 0.092,-0.189 0.157,-0.392 0.248,-0.621 -0.523,0 -0.966,10e-4 -1.409,0 -4.734,-0.015 -8.585,-1.705 -11.355,-5.71 -1.826,-2.642 -4.399,-4.336 -7.573,-4.963 -1.366,-0.27 -2.778,-0.301 -4.166,-0.44 -3.422,7.458 -13.465,29.357 -17.857,38.942 -0.62,-0.061 -1.148,0.33 -1.385,1.036 -0.147,0.437 -0.311,0.867 -0.502,1.397 -0.16,-0.275 -0.262,-0.441 -0.356,-0.611 -0.266,-0.479 -0.626,-0.778 -1.017,-0.875 l 0,-3.685 -0.817,0 0,3.78 c -0.02,0.009 -0.039,0.017 -0.058,0.027 -0.657,0.353 -0.836,1.121 -0.43,1.936 0.249,0.5 0.526,0.986 0.867,1.621 -0.891,0.314 -1.678,0.691 -2.508,0.863 -0.227,0.047 -0.456,0.084 -0.687,0.116 0.522,-0.503 0.859,-1.284 0.859,-2.166 0,-1.518 -0.998,-2.748 -2.229,-2.748 -1.231,0 -2.229,1.23 -2.229,2.748 0,1.038 0.467,1.941 1.156,2.409 -1.894,0.484 -3.411,-0.215 -4.6,-1.668 -0.684,-0.835 -1.217,-1.797 -1.786,-2.721 -0.333,-0.541 -0.795,-0.841 -1.282,-0.83 l 0,-4.111 -0.817,0 0,4.436 c -0.449,0.39 -0.558,1.04 -0.22,1.71 0.311,0.617 0.656,1.222 1.036,1.799 1.181,1.798 2.629,3.284 4.779,3.9 0.304,0.087 0.612,0.159 0.913,0.238 0.015,0.205 0.034,0.353 0.034,0.499 0.013,3.985 0.025,7.972 0.035,11.957 0.003,1.139 -0.073,2.284 0.038,3.413 0.042,0.429 0.427,0.99 0.807,1.17 0.345,0.163 1.01,0.026 1.324,-0.232 0.298,-0.245 0.442,-0.819 0.45,-1.253 0.04,-2.228 0.013,-4.456 0.013,-6.684 0,-0.263 0.026,-0.524 0.039,-0.785 0.414,0 0.748,0 1.16,0 0,1.382 0,2.713 0,4.044 -10e-4,1.238 -0.021,2.477 0.002,3.715 0.015,0.795 0.567,1.343 1.288,1.356 0.719,0.014 1.27,-0.532 1.324,-1.32 0.015,-0.223 0.006,-0.446 0.006,-0.668 -0.002,-5.077 -0.006,-10.151 -0.008,-15.227 0,-0.238 0,-0.479 0,-0.625 0.846,-0.428 1.589,-0.816 2.347,-1.176 0.142,-0.066 0.411,-0.09 0.501,-0.005 1.164,1.095 2.509,1.829 4.125,2.083 0,0.355 0,0.65 0,0.946 0.004,5.075 0.006,10.151 0.012,15.227 10e-4,1.107 0.458,1.693 1.314,1.706 0.864,0.014 1.33,-0.567 1.333,-1.67 0.003,-1.114 0.001,-2.229 0.001,-3.342 0,-1.157 0,-2.315 0,-3.479 0.437,0 0.791,0 1.194,0 0,0.222 0,0.392 0,0.562 -10e-4,2.03 -0.008,4.06 0.001,6.09 0.004,0.854 0.518,1.422 1.27,1.451 0.772,0.031 1.333,-0.552 1.373,-1.431 0.007,-0.148 0.003,-0.297 0.003,-0.446 -10e-4,-5.075 0.018,-10.151 -0.026,-15.226 -0.006,-0.799 0.109,-1.301 0.969,-1.477 0.35,-0.072 0.687,-0.287 0.99,-0.494 0.346,-0.238 0.562,-0.159 0.904,0.067 0.775,0.514 1.593,0.979 2.442,1.358 0.403,0.181 0.51,0.334 0.453,0.752 -0.68,5.021 -0.579,10.073 -0.563,15.121 0.003,0.99 0.489,1.559 1.292,1.568 0.828,0.009 1.32,-0.58 1.328,-1.608 0.008,-1.04 0.002,-2.079 0.002,-3.119 0,-1.381 0,-2.763 0,-4.238 0.471,0.053 0.867,0.097 1.295,0.146 0,0.361 0,0.631 0,0.901 0.002,2.253 -0.008,4.506 0.008,6.759 0.006,0.803 0.539,1.336 1.276,1.355 0.729,0.019 1.278,-0.502 1.351,-1.295 0.016,-0.172 -0.002,-0.347 10e-4,-0.521 0.062,-3.81 0.094,-7.619 0.2,-11.429 0.042,-1.448 0.252,-2.892 0.377,-4.233 1.088,-0.437 2.066,-0.829 3.098,-1.24 1.102,1.081 2.455,1.799 4.075,2.044 0,0.302 0,0.547 0,0.792 0.003,2.995 0.007,5.99 0.009,8.986 10e-4,2.006 -0.011,4.011 0.004,6.016 0.007,0.868 0.518,1.393 1.299,1.404 0.764,0.011 1.288,-0.525 1.34,-1.378 0.01,-0.174 0.002,-0.347 0.002,-0.521 0,-2.129 0,-4.259 -0.002,-6.388 0,-0.262 0,-0.523 0,-0.78 0.452,0 0.789,0 1.201,0 0,0.312 0,0.578 0,0.844 -0.003,2.278 -0.016,4.556 -0.003,6.834 0.005,0.936 0.665,1.508 1.526,1.375 0.716,-0.109 1.077,-0.641 1.077,-1.611 0.001,-5.15 -0.002,-10.3 -0.005,-15.449 0,-0.271 0,-0.539 0,-0.768 0.707,-0.335 1.345,-0.658 2.004,-0.931 0.158,-0.066 0.408,-0.006 0.579,0.074 0.22,0.102 0.385,0.324 0.605,0.422 1.157,0.509 2.326,0.994 3.692,1.572 0.148,2.817 0.349,5.877 0.456,8.94 0.071,2.002 -0.001,4.01 0.013,6.015 0.006,0.816 0.523,1.344 1.264,1.358 0.736,0.016 1.276,-0.507 1.334,-1.303 0.018,-0.247 0.009,-0.495 0.008,-0.742 -0.001,-1.981 -0.008,-3.962 -0.007,-5.942 0,-0.262 0.025,-0.523 0.042,-0.82 0.421,0 0.755,0 1.165,0 0,0.453 0,0.869 0,1.285 -0.002,2.055 -0.022,4.109 0.006,6.164 0.011,0.857 0.584,1.379 1.353,1.357 0.706,-0.021 1.266,-0.543 1.253,-1.298 -0.068,-4.106 -0.146,-8.212 -0.264,-12.316 -0.041,-1.424 -0.205,-2.845 -0.312,-4.249 0.392,-0.195 0.732,-0.346 1.053,-0.529 2.356,-1.341 3.793,-3.35 4.297,-6.01 C 88,56.194 87.579,55.548 86.812,55.433 Z"
             id="path13248"
             style="fill:#333333" />
          <rect
             x="11.875"
             y="33.687"
             width="11.812"
             height="17.458"
             id="rect13250"
             style="fill:#333333" />
          <rect
             x="27.42"
             y="40.669998"
             width="7.8740001"
             height="11.195"
             id="rect13252"
             style="fill:#333333" />
          <path
             inkscape:connector-curvature="0"
             d="m 70.882,42.341 c -0.238,0.497 -0.533,0.687 -1.055,0.709 -4.617,0.202 -8.568,-0.965 -11.674,-4.071 l -14.65,0 0,12.5 43.533,0 0,-12.5 -14.537,0 c -0.54,1.12 -1.079,2.24 -1.617,3.362 z"
             id="path13254"
             style="fill:#333333" />
        </g>
      </g>
      <g
         transform="translate(5.4706052e-6,13.213952)"
         id="g14485">
        <g
           id="g13581"
           transform="translate(1990.5443,255.04835)"
           style="filter:url(#filter14481)">
          <path
             inkscape:connector-curvature="0"
             d="m 9.63,66.229 3.004,0 0,-5.619 -3.004,0 0,5.619 z m 0.914,-4.706 1.176,0 0,3.789 -1.176,0 0,-3.789 z"
             id="path13583" />
          <path
             inkscape:connector-curvature="0"
             d="m 9.63,72.57 3.004,0 0,-5.616 -3.004,0 0,5.616 z m 0.914,-4.702 1.176,0 0,3.788 -1.176,0 0,-3.788 z"
             id="path13585" />
          <path
             inkscape:connector-curvature="0"
             d="m 14.034,66.229 3.003,0 0,-5.619 -3.003,0 0,5.619 z m 0.914,-4.706 1.175,0 0,3.789 -1.175,0 0,-3.789 z"
             id="path13587" />
          <path
             inkscape:connector-curvature="0"
             d="m 18.438,66.229 3.003,0 0,-5.619 -3.003,0 0,5.619 z m 0.914,-4.706 1.175,0 0,3.789 -1.175,0 0,-3.789 z"
             id="path13589-3" />
          <path
             inkscape:connector-curvature="0"
             d="m 14.034,72.57 3.003,0 0,-5.616 -3.003,0 0,5.616 z m 0.914,-4.702 1.175,0 0,3.788 -1.175,0 0,-3.788 z"
             id="path13591-6" />
          <path
             inkscape:connector-curvature="0"
             d="m 18.438,72.57 3.003,0 0,-5.616 -3.003,0 0,5.616 z m 0.914,-4.702 1.175,0 0,3.788 -1.175,0 0,-3.788 z"
             id="path13593-7" />
          <path
             inkscape:connector-curvature="0"
             d="m 81.448,60.609 -3.003,0 0,5.617 3.003,0 0,-5.617 z m -0.914,4.703 -1.175,0 0,-3.789 1.175,0 0,3.789 z"
             id="path13595" />
          <path
             inkscape:connector-curvature="0"
             d="m 85.852,60.609 -3.004,0 0,5.617 3.004,0 0,-5.617 z m -0.914,4.703 -1.176,0 0,-3.789 1.176,0 0,3.789 z"
             id="path13597" />
          <path
             inkscape:connector-curvature="0"
             d="m 90.255,60.609 -3.004,0 0,5.617 3.004,0 0,-5.617 z m -0.914,4.703 -1.176,0 0,-3.789 1.176,0 0,3.789 z"
             id="path13599-5" />
          <path
             inkscape:connector-curvature="0"
             d="m 81.448,66.954 -3.003,0 0,5.616 3.003,0 0,-5.616 z m -0.914,4.702 -1.175,0 0,-3.788 1.175,0 0,3.788 z"
             id="path13601-3" />
          <path
             inkscape:connector-curvature="0"
             d="m 85.852,66.954 -3.004,0 0,5.616 3.004,0 0,-5.616 z m -0.914,4.702 -1.176,0 0,-3.788 1.176,0 0,3.788 z"
             id="path13603" />
          <path
             inkscape:connector-curvature="0"
             d="m 90.255,66.954 -3.004,0 0,5.616 3.004,0 0,-5.616 z m -0.914,4.702 -1.176,0 0,-3.788 1.176,0 0,3.788 z"
             id="path13605-5" />
          <path
             inkscape:connector-curvature="0"
             d="m 93.523,56.434 0,0.002 -16.27,0 0,-1.74 0.597,0 0,-3.782 -1.578,0 C 75.874,40.378 69.221,31.358 59.968,27.465 l 0,-1.36 0.052,-0.003 -0.052,0 0,-0.768 -3.644,0 0,-2.955 -5.227,0 0,-2.979 1.317,0 0,1.115 5.537,0 0,-6.811 -2.709,0 0,-1.115 -4.146,0 0,-0.079 -1.871,0 0,9.868 -5.52,0 0,2.955 -3.642,0 0,1.958 c -9.479,3.79 -16.338,12.92 -16.744,23.622 l -1.138,0 0,3.782 0.597,0 0,1.74 -16.268,0 -1.493,0 0,2.888 1.493,0 0,20.153 13.137,0 0,1.887 -2.986,0 0,3.785 66.711,0 0,-3.785 -2.983,0 0,-1.887 13.135,0 0,-20.154 1.494,0 0,-2.889 -1.495,0 z m -38.279,-41.817 1.795,0 0,4.983 -3.709,0 0,-0.201 0,-0.457 0,-0.457 0,-3.868 1,0 0.457,0 0.457,0 z m -4.144,-1.115 3.23,0 0,0.201 -1.914,0 0,4.782 -1.316,0 0,-4.983 z m 24.261,37.41 -4.806,0 C 70.525,39.329 63.76,31.424 60.031,28.494 c 8.705,3.848 14.938,12.419 15.33,22.418 z m -5.491,0 -5.202,0 c -0.016,-8.277 -2.51,-15.083 -4.604,-18.504 -1.291,-2.11 -2.561,-3.562 -3.449,-4.457 l 1.509,0 c 2.782,1.852 11.71,9.819 11.746,22.961 z m -34.647,0 C 35.248,37.82 41.553,29.85 43.577,27.951 l 1.701,0 c -1.484,2.447 -4.838,10.368 -4.852,22.961 l -5.203,0 z m 10.873,-22.961 1.854,0 c -0.472,2.338 -1.63,10.351 -1.635,22.961 l -5.204,0 C 41.126,37.871 44.854,29.91 46.096,27.951 Z m 2.553,0 1.908,0 c 0.441,2.139 1.643,10.127 1.647,22.961 l -5.204,0 C 47.005,38.079 48.207,30.09 48.649,27.951 Z m 4.242,22.961 C 52.886,38.302 51.728,30.289 51.256,27.951 l 1.854,0 c 1.241,1.955 4.967,9.899 4.982,22.961 l -5.201,0 z m 5.887,0 C 58.764,38.32 55.412,30.4 53.927,27.951 l 1.702,0 c 2.024,1.896 8.326,9.853 8.352,22.961 l -5.203,0 z m -8.635,-31.514 0,-5.975 0.022,4.938 0.003,0.581 10e-4,0.457 0.014,2.979 -0.04,0 0,-2.98 z m -5.52,3.894 4.606,0 1.871,0 4.312,0 0,2.041 -10.789,0 0,-2.041 z m -3.342,2.942 17.773,0.014 0,0.79 -0.174,0 -0.91,0 -0.441,0 -0.004,0 -1.785,0 -0.102,0 -0.341,0 -1.972,0 -0.225,0 -6.998,0 -0.222,0 -1.972,0 -0.055,0 -0.286,0 -1.503,0 -0.382,0 -0.412,-0.02 0.011,-0.784 z m -0.2,1.717 1.508,0 c -0.889,0.895 -2.158,2.346 -3.45,4.457 -2.094,3.421 -4.587,10.226 -4.603,18.504 l -5.202,0 C 29.37,37.77 38.298,29.803 41.081,27.951 Z m -2.432,0.966 c -3.805,3.144 -9.972,10.938 -10.001,21.995 l -4.416,0 C 24.61,41.265 30.423,32.946 38.649,28.917 Z m -15.551,22.909 0.195,0 53.008,0 0.635,0 0,1.955 -1.903,0 -3.335,0 -6.02,0 -3.335,0 -6.018,0 -3.334,0 -6.021,0 -3.334,0 -6.017,0 -3.335,0 -6.018,0 -3.336,0 -1.832,0 0,-1.955 z m 1.833,25.377 3.335,0 6.018,0 3.335,0 6.017,0 3.334,0 6.021,0 3.334,0 6.018,0 3.335,0 6.02,0 3.335,0 1.903,0 0,1.357 0,0.266 -53.837,0 0,-0.266 0,-1.357 1.832,0 z m -1.235,-1.18 0,-16.701 0,-0.457 0,-0.457 0,-1.061 0,-0.457 0,-0.455 0,-1.623 1.234,0 0,1.623 0,0.457 0,0.457 0,1.06 0,0.457 0,0.457 0,16.7 -1.234,0 z m 2.148,0.266 0,-0.266 0,-16.701 0,-0.457 0,-0.457 0,-1.061 0,-0.457 0,-0.457 0,-1.623 0,-0.115 1.507,0 0,0.115 0,1.623 0,0.457 0,0.457 0,1.061 0,0.457 0,0.457 0,16.701 0,0.266 -1.507,0 z m 2.422,-0.266 0,-16.701 0,-0.457 0,-0.457 0,-1.061 0,-0.457 0,-0.457 0,-1.623 6.018,0 0,1.623 0,0.457 0,0.457 0,1.061 0,0.457 0,0.457 0,6.186 -3.746,0 0,10.516 -2.272,0 z m 6.932,0.267 0,-0.267 0,-10.515 0,-6.186 0,-0.457 0,-0.457 0,-1.061 0,-0.457 0,-0.457 0,-1.623 0,-0.115 1.507,0 0,0.115 0,1.623 0,0.457 0,0.457 0,1.061 0,0.457 0,0.457 0,6.186 0,10.516 0,0.267 -1.507,0 z m 8.438,-19.854 0,0.457 0,0.457 0,1.06 0,0.457 0,0.457 0,6.186 -1.754,0 0,10.517 -3.434,0 0,-10.519 -0.83,0 0,-6.186 0,-0.457 0,-0.457 0,-1.061 0,-0.457 0,-0.457 0,-1.623 6.017,0 0.001,1.626 0,0 z m 0.914,19.854 0,-0.267 0,-10.515 0,-6.186 0,-0.457 0,-0.457 0,-1.061 0,-0.457 0,-0.457 0,-1.623 0,-0.115 1.506,0 0,0.115 0,1.623 0,0.457 0,0.457 0,1.061 0,0.457 0,0.457 0,6.186 0,10.516 0,0.267 -1.506,0 z m 2.42,-10.781 0,-6.186 0,-0.457 0,-0.457 0,-1.06 0,-0.457 0,-0.457 0,-1.623 6.021,0 0,1.623 0,0.457 0,0.457 0,1.06 0,0.457 0,0.457 0,6.186 -6.021,0 z m 6.934,10.781 0,-0.267 0,-10.515 0,-6.186 0,-0.457 0,-0.457 0,-1.061 0,-0.457 0,-0.457 0,-1.623 0,-0.115 1.507,0 0,0.115 0,1.623 0,0.457 0,0.457 0,1.061 0,0.457 0,0.457 0,6.186 0,10.516 0,0.267 -1.507,0 z m 2.422,-10.782 0,-6.186 0,-0.457 0,-0.457 0,-1.061 0,-0.457 0,-0.457 0,-1.623 6.018,0 0,1.625 -10e-4,0 0,0.457 0,0.457 0,1.06 0,0.457 0,0.457 0,6.186 -1.278,0 0,10.517 -3.656,0 0,-10.518 -1.083,0 z m 6.931,10.782 0,-0.267 0,-10.515 0,-6.186 0,-0.457 0,-0.457 0,-1.061 0,-0.457 0,-0.457 0,-1.623 0,-0.115 1.507,0 0,0.115 0,1.623 0,0.457 0,0.457 0,1.061 0,0.457 0,0.457 0,6.186 0,10.516 0,0.267 -1.507,0 z m 2.42,-10.782 0,-6.186 0,-0.457 0,-0.457 0,-1.061 0,-0.457 0,-0.457 0,-1.623 6.019,0 0,1.625 0,0.457 0,0.457 0,1.06 0,0.457 0,0.457 0,16.7 -2.721,0 0,-10.515 -3.298,0 z m 6.932,10.782 0,-0.267 0,-16.701 0,-0.457 0,-0.457 0,-1.061 0,-0.457 0,-0.457 0,-1.623 0,-0.115 1.508,0 0,0.117 0,1.623 0,0.457 0,0.457 0,1.06 0,0.457 0,0.457 0,16.7 0,0.267 -1.508,0 z m 2.422,-0.267 0,-16.701 0,-0.457 0,-0.457 0,-1.061 0,-0.457 0,-0.457 0,-1.623 1.308,0 0,1.625 0,0.457 0,0.457 0,1.06 0,0.457 0,0.457 0,16.7 -1.308,0 z m 2.819,3.717 1.625,0 0,1.621 -58.914,0 0,-1.621 1.624,0 55.665,0 z M 6.51,58.409 l -0.579,0 0,-1.06 0.579,0 0.457,0 0.457,0 15.357,0 0,1.06 -15.357,0 -0.457,0 -0.457,0 z m 0.914,20.152 0,-19.239 15.357,0 0,16.967 -0.597,0 0,2.271 -14.76,0 z m 75.034,3.714 0,1.957 -64.883,0 0,-1.957 2.072,0 60.742,0 2.069,0 z m 10.151,-3.713 -14.759,0 0,-2.272 -0.597,0 0,-16.968 15.356,0 0,19.24 z m 1.495,-20.154 -0.58,0 -0.457,0 -0.457,0 -15.357,0 0,-1.061 15.356,0 0.457,0 0.457,0 0.58,0 0,1.061 z"
             id="path13607-6" />
        </g>
        <g
           transform="translate(1990.5443,255.04835)"
           id="g13653"
           style="fill:#4d4d4d">
          <path
             id="path13655"
             d="m 9.63,66.229 3.004,0 0,-5.619 -3.004,0 0,5.619 z m 0.914,-4.706 1.176,0 0,3.789 -1.176,0 0,-3.789 z"
             inkscape:connector-curvature="0"
             style="fill:#4d4d4d" />
          <path
             id="path13657"
             d="m 9.63,72.57 3.004,0 0,-5.616 -3.004,0 0,5.616 z m 0.914,-4.702 1.176,0 0,3.788 -1.176,0 0,-3.788 z"
             inkscape:connector-curvature="0"
             style="fill:#4d4d4d" />
          <path
             id="path13659"
             d="m 14.034,66.229 3.003,0 0,-5.619 -3.003,0 0,5.619 z m 0.914,-4.706 1.175,0 0,3.789 -1.175,0 0,-3.789 z"
             inkscape:connector-curvature="0"
             style="fill:#4d4d4d" />
          <path
             id="path13661"
             d="m 18.438,66.229 3.003,0 0,-5.619 -3.003,0 0,5.619 z m 0.914,-4.706 1.175,0 0,3.789 -1.175,0 0,-3.789 z"
             inkscape:connector-curvature="0"
             style="fill:#4d4d4d" />
          <path
             id="path13663"
             d="m 14.034,72.57 3.003,0 0,-5.616 -3.003,0 0,5.616 z m 0.914,-4.702 1.175,0 0,3.788 -1.175,0 0,-3.788 z"
             inkscape:connector-curvature="0"
             style="fill:#4d4d4d" />
          <path
             id="path13665"
             d="m 18.438,72.57 3.003,0 0,-5.616 -3.003,0 0,5.616 z m 0.914,-4.702 1.175,0 0,3.788 -1.175,0 0,-3.788 z"
             inkscape:connector-curvature="0"
             style="fill:#4d4d4d" />
          <path
             id="path13667"
             d="m 81.448,60.609 -3.003,0 0,5.617 3.003,0 0,-5.617 z m -0.914,4.703 -1.175,0 0,-3.789 1.175,0 0,3.789 z"
             inkscape:connector-curvature="0"
             style="fill:#4d4d4d" />
          <path
             id="path13669"
             d="m 85.852,60.609 -3.004,0 0,5.617 3.004,0 0,-5.617 z m -0.914,4.703 -1.176,0 0,-3.789 1.176,0 0,3.789 z"
             inkscape:connector-curvature="0"
             style="fill:#4d4d4d" />
          <path
             id="path13671"
             d="m 90.255,60.609 -3.004,0 0,5.617 3.004,0 0,-5.617 z m -0.914,4.703 -1.176,0 0,-3.789 1.176,0 0,3.789 z"
             inkscape:connector-curvature="0"
             style="fill:#4d4d4d" />
          <path
             id="path13673"
             d="m 81.448,66.954 -3.003,0 0,5.616 3.003,0 0,-5.616 z m -0.914,4.702 -1.175,0 0,-3.788 1.175,0 0,3.788 z"
             inkscape:connector-curvature="0"
             style="fill:#4d4d4d" />
          <path
             id="path13675"
             d="m 85.852,66.954 -3.004,0 0,5.616 3.004,0 0,-5.616 z m -0.914,4.702 -1.176,0 0,-3.788 1.176,0 0,3.788 z"
             inkscape:connector-curvature="0"
             style="fill:#4d4d4d" />
          <path
             id="path13677"
             d="m 90.255,66.954 -3.004,0 0,5.616 3.004,0 0,-5.616 z m -0.914,4.702 -1.176,0 0,-3.788 1.176,0 0,3.788 z"
             inkscape:connector-curvature="0"
             style="fill:#4d4d4d" />
          <path
             id="path13679"
             d="m 93.523,56.434 0,0.002 -16.27,0 0,-1.74 0.597,0 0,-3.782 -1.578,0 C 75.874,40.378 69.221,31.358 59.968,27.465 l 0,-1.36 0.052,-0.003 -0.052,0 0,-0.768 -3.644,0 0,-2.955 -5.227,0 0,-2.979 1.317,0 0,1.115 5.537,0 0,-6.811 -2.709,0 0,-1.115 -4.146,0 0,-0.079 -1.871,0 0,9.868 -5.52,0 0,2.955 -3.642,0 0,1.958 c -9.479,3.79 -16.338,12.92 -16.744,23.622 l -1.138,0 0,3.782 0.597,0 0,1.74 -16.268,0 -1.493,0 0,2.888 1.493,0 0,20.153 13.137,0 0,1.887 -2.986,0 0,3.785 66.711,0 0,-3.785 -2.983,0 0,-1.887 13.135,0 0,-20.154 1.494,0 0,-2.889 -1.495,0 z m -38.279,-41.817 1.795,0 0,4.983 -3.709,0 0,-0.201 0,-0.457 0,-0.457 0,-3.868 1,0 0.457,0 0.457,0 z m -4.144,-1.115 3.23,0 0,0.201 -1.914,0 0,4.782 -1.316,0 0,-4.983 z m 24.261,37.41 -4.806,0 C 70.525,39.329 63.76,31.424 60.031,28.494 c 8.705,3.848 14.938,12.419 15.33,22.418 z m -5.491,0 -5.202,0 c -0.016,-8.277 -2.51,-15.083 -4.604,-18.504 -1.291,-2.11 -2.561,-3.562 -3.449,-4.457 l 1.509,0 c 2.782,1.852 11.71,9.819 11.746,22.961 z m -34.647,0 C 35.248,37.82 41.553,29.85 43.577,27.951 l 1.701,0 c -1.484,2.447 -4.838,10.368 -4.852,22.961 l -5.203,0 z m 10.873,-22.961 1.854,0 c -0.472,2.338 -1.63,10.351 -1.635,22.961 l -5.204,0 C 41.126,37.871 44.854,29.91 46.096,27.951 Z m 2.553,0 1.908,0 c 0.441,2.139 1.643,10.127 1.647,22.961 l -5.204,0 C 47.005,38.079 48.207,30.09 48.649,27.951 Z m 4.242,22.961 C 52.886,38.302 51.728,30.289 51.256,27.951 l 1.854,0 c 1.241,1.955 4.967,9.899 4.982,22.961 l -5.201,0 z m 5.887,0 C 58.764,38.32 55.412,30.4 53.927,27.951 l 1.702,0 c 2.024,1.896 8.326,9.853 8.352,22.961 l -5.203,0 z m -8.635,-31.514 0,-5.975 0.022,4.938 0.003,0.581 10e-4,0.457 0.014,2.979 -0.04,0 0,-2.98 z m -5.52,3.894 4.606,0 1.871,0 4.312,0 0,2.041 -10.789,0 0,-2.041 z m -3.342,2.942 17.773,0.014 0,0.79 -0.174,0 -0.91,0 -0.441,0 -0.004,0 -1.785,0 -0.102,0 -0.341,0 -1.972,0 -0.225,0 -6.998,0 -0.222,0 -1.972,0 -0.055,0 -0.286,0 -1.503,0 -0.382,0 -0.412,-0.02 0.011,-0.784 z m -0.2,1.717 1.508,0 c -0.889,0.895 -2.158,2.346 -3.45,4.457 -2.094,3.421 -4.587,10.226 -4.603,18.504 l -5.202,0 C 29.37,37.77 38.298,29.803 41.081,27.951 Z m -2.432,0.966 c -3.805,3.144 -9.972,10.938 -10.001,21.995 l -4.416,0 C 24.61,41.265 30.423,32.946 38.649,28.917 Z m -15.551,22.909 0.195,0 53.008,0 0.635,0 0,1.955 -1.903,0 -3.335,0 -6.02,0 -3.335,0 -6.018,0 -3.334,0 -6.021,0 -3.334,0 -6.017,0 -3.335,0 -6.018,0 -3.336,0 -1.832,0 0,-1.955 z m 1.833,25.377 3.335,0 6.018,0 3.335,0 6.017,0 3.334,0 6.021,0 3.334,0 6.018,0 3.335,0 6.02,0 3.335,0 1.903,0 0,1.357 0,0.266 -53.837,0 0,-0.266 0,-1.357 1.832,0 z m -1.235,-1.18 0,-16.701 0,-0.457 0,-0.457 0,-1.061 0,-0.457 0,-0.455 0,-1.623 1.234,0 0,1.623 0,0.457 0,0.457 0,1.06 0,0.457 0,0.457 0,16.7 -1.234,0 z m 2.148,0.266 0,-0.266 0,-16.701 0,-0.457 0,-0.457 0,-1.061 0,-0.457 0,-0.457 0,-1.623 0,-0.115 1.507,0 0,0.115 0,1.623 0,0.457 0,0.457 0,1.061 0,0.457 0,0.457 0,16.701 0,0.266 -1.507,0 z m 2.422,-0.266 0,-16.701 0,-0.457 0,-0.457 0,-1.061 0,-0.457 0,-0.457 0,-1.623 6.018,0 0,1.623 0,0.457 0,0.457 0,1.061 0,0.457 0,0.457 0,6.186 -3.746,0 0,10.516 -2.272,0 z m 6.932,0.267 0,-0.267 0,-10.515 0,-6.186 0,-0.457 0,-0.457 0,-1.061 0,-0.457 0,-0.457 0,-1.623 0,-0.115 1.507,0 0,0.115 0,1.623 0,0.457 0,0.457 0,1.061 0,0.457 0,0.457 0,6.186 0,10.516 0,0.267 -1.507,0 z m 8.438,-19.854 0,0.457 0,0.457 0,1.06 0,0.457 0,0.457 0,6.186 -1.754,0 0,10.517 -3.434,0 0,-10.519 -0.83,0 0,-6.186 0,-0.457 0,-0.457 0,-1.061 0,-0.457 0,-0.457 0,-1.623 6.017,0 0.001,1.626 0,0 z m 0.914,19.854 0,-0.267 0,-10.515 0,-6.186 0,-0.457 0,-0.457 0,-1.061 0,-0.457 0,-0.457 0,-1.623 0,-0.115 1.506,0 0,0.115 0,1.623 0,0.457 0,0.457 0,1.061 0,0.457 0,0.457 0,6.186 0,10.516 0,0.267 -1.506,0 z m 2.42,-10.781 0,-6.186 0,-0.457 0,-0.457 0,-1.06 0,-0.457 0,-0.457 0,-1.623 6.021,0 0,1.623 0,0.457 0,0.457 0,1.06 0,0.457 0,0.457 0,6.186 -6.021,0 z m 6.934,10.781 0,-0.267 0,-10.515 0,-6.186 0,-0.457 0,-0.457 0,-1.061 0,-0.457 0,-0.457 0,-1.623 0,-0.115 1.507,0 0,0.115 0,1.623 0,0.457 0,0.457 0,1.061 0,0.457 0,0.457 0,6.186 0,10.516 0,0.267 -1.507,0 z m 2.422,-10.782 0,-6.186 0,-0.457 0,-0.457 0,-1.061 0,-0.457 0,-0.457 0,-1.623 6.018,0 0,1.625 -10e-4,0 0,0.457 0,0.457 0,1.06 0,0.457 0,0.457 0,6.186 -1.278,0 0,10.517 -3.656,0 0,-10.518 -1.083,0 z m 6.931,10.782 0,-0.267 0,-10.515 0,-6.186 0,-0.457 0,-0.457 0,-1.061 0,-0.457 0,-0.457 0,-1.623 0,-0.115 1.507,0 0,0.115 0,1.623 0,0.457 0,0.457 0,1.061 0,0.457 0,0.457 0,6.186 0,10.516 0,0.267 -1.507,0 z m 2.42,-10.782 0,-6.186 0,-0.457 0,-0.457 0,-1.061 0,-0.457 0,-0.457 0,-1.623 6.019,0 0,1.625 0,0.457 0,0.457 0,1.06 0,0.457 0,0.457 0,16.7 -2.721,0 0,-10.515 -3.298,0 z m 6.932,10.782 0,-0.267 0,-16.701 0,-0.457 0,-0.457 0,-1.061 0,-0.457 0,-0.457 0,-1.623 0,-0.115 1.508,0 0,0.117 0,1.623 0,0.457 0,0.457 0,1.06 0,0.457 0,0.457 0,16.7 0,0.267 -1.508,0 z m 2.422,-0.267 0,-16.701 0,-0.457 0,-0.457 0,-1.061 0,-0.457 0,-0.457 0,-1.623 1.308,0 0,1.625 0,0.457 0,0.457 0,1.06 0,0.457 0,0.457 0,16.7 -1.308,0 z m 2.819,3.717 1.625,0 0,1.621 -58.914,0 0,-1.621 1.624,0 55.665,0 z M 6.51,58.409 l -0.579,0 0,-1.06 0.579,0 0.457,0 0.457,0 15.357,0 0,1.06 -15.357,0 -0.457,0 -0.457,0 z m 0.914,20.152 0,-19.239 15.357,0 0,16.967 -0.597,0 0,2.271 -14.76,0 z m 75.034,3.714 0,1.957 -64.883,0 0,-1.957 2.072,0 60.742,0 2.069,0 z m 10.151,-3.713 -14.759,0 0,-2.272 -0.597,0 0,-16.968 15.356,0 0,19.24 z m 1.495,-20.154 -0.58,0 -0.457,0 -0.457,0 -15.357,0 0,-1.061 15.356,0 0.457,0 0.457,0 0.58,0 0,1.061 z"
             inkscape:connector-curvature="0"
             style="fill:#4d4d4d" />
        </g>
      </g>
      <g
         transform="translate(-5.4309411,-16.162441)"
         id="g14599">
        <path
           style="fill:#1a1a1a;filter:url(#filter14595)"
           inkscape:connector-curvature="0"
           d="m 1966.623,214.57828 c 1.4023,0 2.5389,-1.13733 2.5389,-2.53964 0,-1.40158 -1.1366,-2.5389 -2.5389,-2.5389 -1.4023,0 -2.5389,1.13732 -2.5389,2.5389 0,0.30806 0.058,0.60224 0.1584,0.87599 l -7.4116,6.31368 -9.3906,-5.52383 c 0.053,-0.21681 0.085,-0.4431 0.085,-0.6767 0,-1.56364 -1.2673,-2.8309 -2.8309,-2.8309 -0.6344,0 -1.2176,0.21097 -1.6892,0.56355 l -8.4847,-6.73707 c 0.039,-0.1606 0.063,-0.32704 0.063,-0.49932 0,-1.15411 -0.9351,-2.0885 -2.0885,-2.0885 -1.1534,0 -2.0885,0.93512 -2.0885,2.0885 0,0.53217 0.2007,1.01688 0.5285,1.38552 l -4.2595,9.11611 c -0.1898,-0.0328 -0.384,-0.054 -0.584,-0.054 -0.6278,0 -1.2132,0.17446 -1.7162,0.4723 l -11.2696,-5.04788 c 0.026,-0.16425 0.044,-0.33141 0.044,-0.50296 0,-1.73738 -1.4081,-3.14553 -3.1455,-3.14553 -1.7366,0 -3.1455,1.40815 -3.1455,3.14553 0,1.73737 1.4081,3.14552 3.1455,3.14552 0.987,0 1.8659,-0.45478 2.4426,-1.16506 l 10.7177,4.80041 c -0.2803,0.49201 -0.4431,1.05995 -0.4431,1.6673 0,0.62195 0.2139,1.17163 0.5066,1.67167 l -6.01,6.01293 c -0.8293,-0.59202 -1.8294,-0.94461 -2.9222,-0.94461 -1.9286,0 -3.5879,1.09572 -4.4398,2.68928 l -0.07,-0.0234 c 0,0.009 0,0.0168 -0.01,0.0255 l -8.3789,-3.80762 c 0.012,-0.0978 0.018,-0.19783 0.018,-0.29857 0,-1.45195 -1.1768,-2.62869 -2.6287,-2.62869 -1.452,0 -2.6287,1.17674 -2.6287,2.62869 0,1.45195 1.1767,2.62869 2.6287,2.62869 0.7694,0 1.4592,-0.33214 1.9396,-0.85919 l 8.5576,3.89011 c 0,0.009 -0.01,0.0182 -0.011,0.027 l 0.041,0.0139 c -0.039,0.25404 -0.079,0.50661 -0.079,0.77014 0,1.4264 0.5935,2.71264 1.544,3.6317 l -0.012,0.009 c 0,0.004 0.01,0.007 0.01,0.0102 l -4.3602,6.42537 c -0.1132,-0.0197 -0.2292,-0.0321 -0.349,-0.0321 -1.0796,0 -1.9549,0.87452 -1.9549,1.95491 0,1.07965 0.8753,1.95491 1.9549,1.95491 1.0797,0 1.955,-0.87526 1.955,-1.95491 0,-0.36573 -0.1022,-0.70736 -0.2774,-1.00009 l 3.9156,-5.76984 0.5183,-0.6402 c 0.6431,0.29711 1.3571,0.46793 2.1126,0.46793 1.3885,0 2.6491,-0.56283 3.5646,-1.47166 l 5.1048,3.64338 c -0.1453,0.37521 -0.2438,0.77378 -0.2438,1.19791 0,1.86001 1.5074,3.37036 3.3703,3.37036 1.5761,0 2.8944,-1.08257 3.2638,-2.54182 l 11.6185,-3.59374 c 0.7132,1.32493 2.1119,2.22647 3.7222,2.22647 0.9293,0 1.7863,-0.30441 2.4842,-0.81321 l 5.1975,4.82596 c -0.028,0.14089 -0.043,0.28688 -0.043,0.4358 0,1.2658 1.0264,2.29217 2.2922,2.29217 1.2658,0 2.2914,-1.02564 2.2914,-2.29217 0,-1.26507 -1.0256,-2.29143 -2.2914,-2.29143 -0.5161,0 -0.9913,0.17227 -1.3746,0.46062 l -4.9719,-4.61573 c 0.4029,-0.6475 0.6519,-1.40888 0.6519,-2.22646 0,-2.05492 -1.2126,-3.76675 -3.4025,-4.14415 l 0,-12.91717 c 0.73,-0.12556 0.7898,-0.34893 1.1044,-0.64093 l 9.7323,5.72896 8.1605,11.42798 c -0.067,0.1679 -0.1066,0.35113 -0.1066,0.54385 0,0.82123 0.6643,1.48699 1.4856,1.48699 0.8212,0 1.487,-0.66576 1.487,-1.48699 0,-0.82124 -0.6665,-1.48699 -1.4878,-1.48699 -0.022,0 -0.044,0.002 -0.066,0.004 l -7.8327,-10.96445 7.2495,-6.17498 c 0.3942,0.25331 0.8628,0.4015 1.3665,0.4015 z m -26.1534,18.22127 c 0,0.15329 0.01,0.30367 0.026,0.45259 l -11.1506,3.44847 c -0.3811,-1.44173 -1.6907,-2.50751 -3.2543,-2.50751 -0.8198,0 -1.5432,0.32922 -2.1265,0.81248 l -5.1376,-3.66601 c 0.3263,-0.67159 0.5234,-1.40888 0.5234,-2.20238 0,-1.08915 -0.3555,-2.0958 -0.9417,-2.91923 l 6.01,-6.01292 c 0.5008,0.29272 1.0497,0.50661 1.6724,0.50661 1.1986,0 2.2476,-0.6256 2.8448,-1.56729 l 12.5719,10.88707 c -0.6439,0.7424 -1.0374,1.70817 -1.0374,2.76812 z m 3.5989,-4.14415 c -0.73,0.073 -0.8286,0.19928 -1.1651,0.36645 l -13.4026,-11.56741 c 0,-0.038 -0.017,-0.0745 -0.017,-0.11242 0,-1.08404 -0.5241,-2.04543 -1.3183,-2.66154 l 4.2332,-9.07232 c 0.034,0.001 0.064,0.005 0.098,0.005 0.3869,0 0.7468,-0.1073 1.0577,-0.29126 l 8.4833,6.73707 c -0.1103,0.30295 -0.082,0.62852 -0.082,0.96943 0,1.28259 0.6533,2.36371 2.1133,2.71191 l 0,12.91498 z"
           id="path14565" />
        <path
           id="path13370"
           d="m 1966.623,214.57828 c 1.4023,0 2.5389,-1.13733 2.5389,-2.53964 0,-1.40158 -1.1366,-2.5389 -2.5389,-2.5389 -1.4023,0 -2.5389,1.13732 -2.5389,2.5389 0,0.30806 0.058,0.60224 0.1584,0.87599 l -7.4116,6.31368 -9.3906,-5.52383 c 0.053,-0.21681 0.085,-0.4431 0.085,-0.6767 0,-1.56364 -1.2673,-2.8309 -2.8309,-2.8309 -0.6344,0 -1.2176,0.21097 -1.6892,0.56355 l -8.4847,-6.73707 c 0.039,-0.1606 0.063,-0.32704 0.063,-0.49932 0,-1.15411 -0.9351,-2.0885 -2.0885,-2.0885 -1.1534,0 -2.0885,0.93512 -2.0885,2.0885 0,0.53217 0.2007,1.01688 0.5285,1.38552 l -4.2595,9.11611 c -0.1898,-0.0328 -0.384,-0.054 -0.584,-0.054 -0.6278,0 -1.2132,0.17446 -1.7162,0.4723 l -11.2696,-5.04788 c 0.026,-0.16425 0.044,-0.33141 0.044,-0.50296 0,-1.73738 -1.4081,-3.14553 -3.1455,-3.14553 -1.7366,0 -3.1455,1.40815 -3.1455,3.14553 0,1.73737 1.4081,3.14552 3.1455,3.14552 0.987,0 1.8659,-0.45478 2.4426,-1.16506 l 10.7177,4.80041 c -0.2803,0.49201 -0.4431,1.05995 -0.4431,1.6673 0,0.62195 0.2139,1.17163 0.5066,1.67167 l -6.01,6.01293 c -0.8293,-0.59202 -1.8294,-0.94461 -2.9222,-0.94461 -1.9286,0 -3.5879,1.09572 -4.4398,2.68928 l -0.07,-0.0234 c 0,0.009 0,0.0168 -0.01,0.0255 l -8.3789,-3.80762 c 0.012,-0.0978 0.018,-0.19783 0.018,-0.29857 0,-1.45195 -1.1768,-2.62869 -2.6287,-2.62869 -1.452,0 -2.6287,1.17674 -2.6287,2.62869 0,1.45195 1.1767,2.62869 2.6287,2.62869 0.7694,0 1.4592,-0.33214 1.9396,-0.85919 l 8.5576,3.89011 c 0,0.009 -0.01,0.0182 -0.011,0.027 l 0.041,0.0139 c -0.039,0.25404 -0.079,0.50661 -0.079,0.77014 0,1.4264 0.5935,2.71264 1.544,3.6317 l -0.012,0.009 c 0,0.004 0.01,0.007 0.01,0.0102 l -4.3602,6.42537 c -0.1132,-0.0197 -0.2292,-0.0321 -0.349,-0.0321 -1.0796,0 -1.9549,0.87452 -1.9549,1.95491 0,1.07965 0.8753,1.95491 1.9549,1.95491 1.0797,0 1.955,-0.87526 1.955,-1.95491 0,-0.36573 -0.1022,-0.70736 -0.2774,-1.00009 l 3.9156,-5.76984 0.5183,-0.6402 c 0.6431,0.29711 1.3571,0.46793 2.1126,0.46793 1.3885,0 2.6491,-0.56283 3.5646,-1.47166 l 5.1048,3.64338 c -0.1453,0.37521 -0.2438,0.77378 -0.2438,1.19791 0,1.86001 1.5074,3.37036 3.3703,3.37036 1.5761,0 2.8944,-1.08257 3.2638,-2.54182 l 11.6185,-3.59374 c 0.7132,1.32493 2.1119,2.22647 3.7222,2.22647 0.9293,0 1.7863,-0.30441 2.4842,-0.81321 l 5.1975,4.82596 c -0.028,0.14089 -0.043,0.28688 -0.043,0.4358 0,1.2658 1.0264,2.29217 2.2922,2.29217 1.2658,0 2.2914,-1.02564 2.2914,-2.29217 0,-1.26507 -1.0256,-2.29143 -2.2914,-2.29143 -0.5161,0 -0.9913,0.17227 -1.3746,0.46062 l -4.9719,-4.61573 c 0.4029,-0.6475 0.6519,-1.40888 0.6519,-2.22646 0,-2.05492 -1.2126,-3.76675 -3.4025,-4.14415 l 0,-12.91717 c 0.73,-0.12556 0.7898,-0.34893 1.1044,-0.64093 l 9.7323,5.72896 8.1605,11.42798 c -0.067,0.1679 -0.1066,0.35113 -0.1066,0.54385 0,0.82123 0.6643,1.48699 1.4856,1.48699 0.8212,0 1.487,-0.66576 1.487,-1.48699 0,-0.82124 -0.6665,-1.48699 -1.4878,-1.48699 -0.022,0 -0.044,0.002 -0.066,0.004 l -7.8327,-10.96445 7.2495,-6.17498 c 0.3942,0.25331 0.8628,0.4015 1.3665,0.4015 z m -26.1534,18.22127 c 0,0.15329 0.01,0.30367 0.026,0.45259 l -11.1506,3.44847 c -0.3811,-1.44173 -1.6907,-2.50751 -3.2543,-2.50751 -0.8198,0 -1.5432,0.32922 -2.1265,0.81248 l -5.1376,-3.66601 c 0.3263,-0.67159 0.5234,-1.40888 0.5234,-2.20238 0,-1.08915 -0.3555,-2.0958 -0.9417,-2.91923 l 6.01,-6.01292 c 0.5008,0.29272 1.0497,0.50661 1.6724,0.50661 1.1986,0 2.2476,-0.6256 2.8448,-1.56729 l 12.5719,10.88707 c -0.6439,0.7424 -1.0374,1.70817 -1.0374,2.76812 z m 3.5989,-4.14415 c -0.73,0.073 -0.8286,0.19928 -1.1651,0.36645 l -13.4026,-11.56741 c 0,-0.038 -0.017,-0.0745 -0.017,-0.11242 0,-1.08404 -0.5241,-2.04543 -1.3183,-2.66154 l 4.2332,-9.07232 c 0.034,0.001 0.064,0.005 0.098,0.005 0.3869,0 0.7468,-0.1073 1.0577,-0.29126 l 8.4833,6.73707 c -0.1103,0.30295 -0.082,0.62852 -0.082,0.96943 0,1.28259 0.6533,2.36371 2.1133,2.71191 l 0,12.91498 z"
           inkscape:connector-curvature="0"
           style="fill:#4d4d4d" />
      </g>
      <text
         sodipodi:linespacing="125%"
         id="text14647"
         y="178.03423"
         x="1930.0507"
         style="font-style:normal;font-weight:normal;font-size:24.0826931px;line-height:125%;font-family:sans-serif;text-align:center;letter-spacing:0px;word-spacing:0px;text-anchor:middle;fill:#000000;fill-opacity:1;stroke:none;stroke-width:1px;stroke-linecap:butt;stroke-linejoin:miter;stroke-opacity:1"
         xml:space="preserve"><tspan
           style="font-style:normal;font-variant:normal;font-weight:bold;font-stretch:normal;font-size:9.50162315px;font-family:Purisa;-inkscape-font-specification:'Purisa Bold';text-align:center;text-anchor:middle"
           y="178.03423"
           x="1930.0507"
           id="tspan14649"
           sodipodi:role="line">internet</tspan></text>
      <g
         transform="matrix(0.75227982,-0.65884373,0.65884373,0.75227982,691.13294,982.26439)"
         id="g14756"
         style="fill:#4d4d4d;stroke:#1a1a1a">
        <path
           sodipodi:nodetypes="cc"
           style="fill:#4d4d4d;fill-rule:evenodd;stroke:#1a1a1a;stroke-width:1.90032458;stroke-linecap:round;stroke-linejoin:round;stroke-miterlimit:4;stroke-dasharray:none;stroke-opacity:1"
           d="m 1366.6445,204.68734 -6.3927,-6.39277"
           id="path14758"
           inkscape:connector-curvature="0" />
        <path
           inkscape:connector-curvature="0"
           id="path14760"
           d="m 1366.6445,204.82896 -6.3927,6.39277"
           style="fill:#4d4d4d;fill-rule:evenodd;stroke:#1a1a1a;stroke-width:1.90032458;stroke-linecap:round;stroke-linejoin:round;stroke-miterlimit:4;stroke-dasharray:none;stroke-opacity:1"
           sodipodi:nodetypes="cc" />
      </g>
      <g
         style="fill:#4d4d4d;stroke:#1a1a1a"
         id="g14762"
         transform="matrix(0.65884373,0.75227982,-0.75227982,0.65884373,1264.6101,-922.39113)">
        <path
           inkscape:connector-curvature="0"
           id="path14764"
           d="m 1366.6445,204.68734 -6.3927,-6.39277"
           style="fill:#4d4d4d;fill-rule:evenodd;stroke:#1a1a1a;stroke-width:1.90032458;stroke-linecap:round;stroke-linejoin:round;stroke-miterlimit:4;stroke-dasharray:none;stroke-opacity:1"
           sodipodi:nodetypes="cc" />
        <path
           sodipodi:nodetypes="cc"
           style="fill:#4d4d4d;fill-rule:evenodd;stroke:#1a1a1a;stroke-width:1.90032458;stroke-linecap:round;stroke-linejoin:round;stroke-miterlimit:4;stroke-dasharray:none;stroke-opacity:1"
           d="m 1366.6445,204.82896 -6.3927,6.39277"
           id="path14766"
           inkscape:connector-curvature="0" />
      </g>
      <circle
         r="118.91228"
         cy="314.18091"
         cx="1930.3639"
         id="path14781"
         style="opacity:1;fill:#4d4d4d;fill-opacity:0;stroke:#1a1a1a;stroke-width:2.17544699;stroke-linecap:round;stroke-linejoin:round;stroke-miterlimit:4;stroke-dasharray:none;stroke-dashoffset:0;stroke-opacity:0" />
      <text
         x="1929.3446"
         y="411.0426"
         sodipodi:linespacing="125%"
         id="text14801"
         style="font-style:normal;font-weight:normal;font-size:24.0826931px;line-height:125%;font-family:sans-serif;text-align:center;letter-spacing:0px;word-spacing:0px;text-anchor:middle;fill:#000000;fill-opacity:1;stroke:none;stroke-width:1px;stroke-linecap:butt;stroke-linejoin:miter;stroke-opacity:1"
         xml:space="preserve"><tspan
           style="font-style:normal;font-variant:normal;font-weight:bold;font-stretch:normal;font-size:9.50162315px;font-family:Purisa;-inkscape-font-specification:'Purisa Bold';text-align:center;text-anchor:middle"
           y="411.0426"
           x="1929.3446"
           id="tspan14803"
           sodipodi:role="line">service</tspan></text>
    </g>
  </g>
</svg>
