<?xml version="1.0" encoding="UTF-8" standalone="no"?>
<!-- Created with Inkscape (http://www.inkscape.org/) -->

<svg
   xmlns:dc="http://purl.org/dc/elements/1.1/"
   xmlns:cc="http://creativecommons.org/ns#"
   xmlns:rdf="http://www.w3.org/1999/02/22-rdf-syntax-ns#"
   xmlns:svg="http://www.w3.org/2000/svg"
   xmlns="http://www.w3.org/2000/svg"
   xmlns:xlink="http://www.w3.org/1999/xlink"
   xmlns:sodipodi="http://sodipodi.sourceforge.net/DTD/sodipodi-0.dtd"
   xmlns:inkscape="http://www.inkscape.org/namespaces/inkscape"
   width="133.53171mm"
   height="29.985096mm"
   viewBox="0 0 473.14384 106.2464"
   id="svg7922"
   version="1.1"
   inkscape:version="0.91 r13725"
   sodipodi:docname="communication-direct-audio.svg">
  <defs
     id="defs7924">
    <clipPath
       clipPathUnits="userSpaceOnUse"
       id="clipPath6545-9">
      <rect
         style="opacity:1;fill:#cccccc;fill-opacity:1;stroke:none;stroke-width:0.2;stroke-linecap:round;stroke-linejoin:round;stroke-miterlimit:4;stroke-dasharray:none;stroke-dashoffset:0;stroke-opacity:1"
         id="rect6547-1"
         width="71.568138"
         height="71.568138"
         x="-196.50887"
         y="94.819542"
         rx="0"
         ry="0"
         transform="matrix(0.70710678,0.70710678,-0.70710678,0.70710678,0,0)" />
    </clipPath>
    <pattern
       patternTransform="matrix(10,0,0,10,-1275.1943,-1313.7954)"
       id="pattern5589"
       xlink:href="#Checkerboard"
       inkscape:collect="always" />
    <pattern
       inkscape:isstock="true"
       inkscape:collect="always"
       patternUnits="userSpaceOnUse"
       width="2"
       height="2"
       patternTransform="translate(0,0) scale(10,10)"
       id="Checkerboard"
       inkscape:stockid="Checkerboard">
      <rect
         style="fill:black;stroke:none"
         x="0"
         y="0"
         width="1"
         height="1"
         id="rect4940" />
      <rect
         style="fill:black;stroke:none"
         x="1"
         y="1"
         width="1"
         height="1"
         id="rect4942" />
    </pattern>
    <pattern
       id="pattern5586"
       patternTransform="translate(61.70704,503.49469)"
       height="65.735043"
       width="526.58585"
       patternUnits="userSpaceOnUse">
      <rect
         style="opacity:1;fill:url(#pattern5589);fill-opacity:1;stroke:#ececec;stroke-width:4.28598452;stroke-linecap:round;stroke-linejoin:round;stroke-miterlimit:4;stroke-dasharray:none;stroke-dashoffset:0;stroke-opacity:1"
         id="rect3336"
         width="366.2804"
         height="167.23994"
         x="159.36771"
         y="2.1429923"
         transform="matrix(1,0,-0.92365014,0.38323677,0,0)" />
    </pattern>
    <filter
       inkscape:collect="always"
       style="color-interpolation-filters:sRGB"
       id="filter10474"
       x="-0.17007241"
       width="1.3401448"
       y="-0.092705742"
       height="1.1854115">
      <feGaussianBlur
         inkscape:collect="always"
         stdDeviation="3.4621073"
         id="feGaussianBlur10476" />
    </filter>
    <filter
       inkscape:collect="always"
       style="color-interpolation-filters:sRGB"
       id="filter10532"
       x="-0.18266962"
       width="1.3653393"
       y="-0.089347117"
       height="1.1786942">
      <feGaussianBlur
         inkscape:collect="always"
         stdDeviation="3.2323193"
         id="feGaussianBlur10534" />
    </filter>
  </defs>
  <sodipodi:namedview
     id="base"
     pagecolor="#ffffff"
     bordercolor="#666666"
     borderopacity="1.0"
     inkscape:pageopacity="0.0"
     inkscape:pageshadow="2"
     inkscape:zoom="7.5331532"
     inkscape:cx="210.45007"
     inkscape:cy="-51.921114"
     inkscape:document-units="px"
     inkscape:current-layer="layer1"
     showgrid="false"
     inkscape:window-width="1366"
     inkscape:window-height="713"
     inkscape:window-x="0"
     inkscape:window-y="27"
     inkscape:window-maximized="1"
     fit-margin-top="0"
     fit-margin-left="0"
     fit-margin-right="0"
     fit-margin-bottom="0"
     showborder="false"
     showguides="true"
     inkscape:guide-bbox="true" />
  <metadata
     id="metadata7927">
    <rdf:RDF>
      <cc:Work
         rdf:about="">
        <dc:format>image/svg+xml</dc:format>
        <dc:type
           rdf:resource="http://purl.org/dc/dcmitype/StillImage" />
        <dc:title></dc:title>
      </cc:Work>
    </rdf:RDF>
  </metadata>
  <g
     inkscape:label="Layer 1"
     inkscape:groupmode="layer"
     id="layer1"
     transform="translate(-1309.2232,-195.73205)">
    <g
       id="g10562"
       inkscape:export-xdpi="90"
       inkscape:export-ydpi="90">
      <g
         id="g10548">
        <g
           transform="translate(1293.2183,195.6694)"
           id="g9626"
           style="fill:#666666;filter:url(#filter10474)">
          <path
             id="path9628"
             d="m 56.321,20.551 c 0.005,0.021 0.013,0.039 0.018,0.06 0.097,0.278 0.883,0.152 0.938,-0.115 0.042,-0.188 0.064,-0.379 0.097,-0.57 0.028,-0.055 0.083,-0.082 0.11,-0.151 0.02,-0.037 0.015,-0.069 -0.014,-0.099 -0.014,-0.016 -0.032,-0.03 -0.045,-0.045 0.013,-0.104 0.036,-0.207 0.05,-0.311 0.019,-0.131 -0.308,-0.138 -0.368,-0.138 -0.133,0 -0.262,0 -0.396,0 -0.137,0 -0.569,0.044 -0.569,0.253 0,0.329 0,0.658 0,0.984 -0.001,0.084 0.077,0.119 0.179,0.132 z"
             inkscape:connector-curvature="0"
             style="fill:#666666" />
          <path
             id="path9630"
             d="m 52.054,19.97 c 0,0.018 0.005,0.052 0.01,0.071 0.037,0.29 0.12,0.54 0.248,0.756 -0.005,0.013 0.005,0.03 0,0.043 0.014,0 0.023,0 0.037,0 0.073,0.096 0.097,0.22 0.239,0.273 0.078,0.03 0.321,0.081 0.478,0.042 0.147,0.011 0.276,-0.002 0.271,-0.074 -0.01,-0.317 -0.041,-0.588 -0.124,-0.811 -0.009,-0.18 0.051,-0.361 0,-0.518 -0.068,-0.198 -0.727,-0.462 -0.873,-0.257 0.101,0.055 0.092,0.073 -0.028,0.052 -0.05,0 -0.271,-0.009 -0.271,0.09 0,0.113 0.005,0.166 0.008,0.235 0,0.004 -0.008,0.004 -0.008,0.012 0.006,0.029 0.009,0.056 0.013,0.086 z"
             inkscape:connector-curvature="0"
             style="fill:#666666" />
          <path
             id="path9632"
             d="m 50.713,40.754 c 1.485,0.154 2.437,-0.569 2.997,-1.941 1.255,0.177 2.528,-0.069 3.517,-0.968 0.248,-0.23 -0.647,-0.232 -0.837,-0.064 -1.559,1.42 -3.773,0.414 -5.023,-0.676 -0.17,-0.147 -0.906,-0.108 -0.906,0.193 0,1.11 0,2.22 0,3.332 -10e-4,0.099 0.192,0.117 0.252,0.124 z m 0.675,-2.831 c 0.543,0.329 1.112,0.567 1.729,0.722 -0.139,0.035 -0.262,0.084 -0.295,0.168 -0.004,0.005 -1.434,2.3 -1.434,0.903 0,-0.598 0,-1.196 0,-1.793 z"
             inkscape:connector-curvature="0"
             style="fill:#666666" />
          <path
             id="path9634"
             d="m 56.307,27.496 c -0.005,-0.002 -0.01,-0.002 -0.015,-0.004 -0.005,0.007 -0.005,0.011 -0.009,0.019 -0.033,0.029 -0.078,0.027 -0.115,0.071 -0.046,0.058 0.027,0.065 0.046,0.099 -0.019,0.048 -0.042,0.096 -0.06,0.147 -0.105,0.248 0.805,0.223 0.91,-0.032 0.046,-0.11 0.097,-0.223 0.143,-0.333 0.102,-0.249 -0.52,-0.168 -0.607,-0.147 -0.132,0.031 -0.206,0.109 -0.293,0.18 z m 0.588,0.14 c 0,0 0.005,0 0.005,0.002 -0.005,0 -0.005,-0.002 -0.01,-0.002 0.005,0 0.005,0 0.005,0 z"
             inkscape:connector-curvature="0"
             style="fill:#666666" />
          <path
             id="path9636"
             d="m 71.502,55.579 -0.022,-0.446 -12.876,0 -0.083,0.37 c -0.188,0.859 -0.39,1.662 -0.601,2.416 -1.247,-0.446 -2.487,-0.895 -3.729,-1.339 -0.763,-0.274 -1.525,-0.548 -2.289,-0.821 -0.184,-0.066 -0.367,-0.131 -0.551,-0.2 -0.083,-1.42 -0.17,-2.845 -0.253,-4.268 -0.105,-1.696 -0.207,-3.395 -0.308,-5.091 -0.023,-0.355 1.695,-0.9 2.348,-1.181 2.975,-1.283 5.948,-2.563 8.922,-3.845 0.063,-0.027 0.102,-0.043 0.097,-0.119 -0.438,-4.247 -0.874,-8.497 -1.305,-12.743 l 4.834,-2.34 -5.253,-1.802 c -0.345,-3.325 -0.685,-6.655 -1.025,-9.98 -0.027,-0.234 -0.538,-0.356 -0.712,-0.347 -5.194,0.253 -10.383,0.508 -15.577,0.761 0.005,-0.006 0.019,-0.005 0.023,-0.011 0.06,-0.164 0.055,-0.349 0.083,-0.524 0.234,0.071 0.483,0.085 0.505,-0.064 0.051,-0.335 0.027,-0.673 0.056,-1.006 0.211,0.105 0.515,0.151 0.647,0.087 0.235,0.062 0.474,0.068 0.474,-0.065 0,-0.021 0,-0.041 0,-0.062 0.027,0.094 0.046,0.188 0.073,0.28 0.056,0.195 0.772,0.377 0.869,0.204 0.257,0.099 0.593,0.134 0.625,-0.027 0.129,-0.609 0.124,-1.191 0.124,-1.774 0.188,0.354 0.335,0.724 0.575,1.064 0.087,0.122 0.873,0.382 0.873,0.122 0,-0.267 -0.042,-0.524 -0.045,-0.789 0.124,0.221 0.202,0.453 0.349,0.667 0.092,0.131 0.836,0.39 0.873,0.122 0.047,-0.294 -0.023,-0.583 0,-0.873 0.203,0.429 0.4,0.862 0.662,1.285 0.097,0.154 0.841,0.483 0.906,0.177 0.101,-0.479 0.096,-0.955 0.124,-1.43 0.174,0.418 0.321,0.841 0.538,1.252 0.092,0.172 0.831,0.471 0.905,0.177 0.118,-0.476 0.175,-0.931 0.243,-1.391 0.142,0.271 0.253,0.547 0.423,0.818 0.087,0.145 0.874,0.48 0.905,0.177 0.068,-0.588 0.05,-1.179 0.078,-1.767 0.188,0.354 0.331,0.719 0.616,1.057 0.102,0.115 0.832,0.402 0.874,0.122 0.063,-0.437 0.045,-0.874 0.078,-1.308 0.073,0.177 0.118,0.364 0.192,0.542 0.073,0.182 0.883,0.451 0.904,0.177 0.02,-0.244 0.052,-0.476 0.078,-0.712 0.078,0.174 0.111,0.361 0.193,0.535 0.078,0.17 0.882,0.458 0.905,0.177 0.01,-0.09 0.019,-0.177 0.028,-0.267 0.087,0.058 0.193,0.104 0.317,0.133 0.041,0.117 0.082,0.235 0.124,0.352 0.064,0.195 0.892,0.438 0.905,0.177 -0.028,-0.283 0.037,-0.545 0.193,-0.787 0.078,-0.186 -0.318,-0.28 -0.566,-0.312 C 58.577,10.376 58.307,9.615 58.039,8.848 57.971,8.64 57.115,8.438 57.134,8.671 57.157,9.027 57.13,9.372 57.102,9.719 57.034,9.491 56.922,9.282 56.863,9.046 56.808,8.816 55.939,8.653 55.959,8.869 55.977,9.161 55.944,9.441 55.931,9.724 55.858,9.496 55.746,9.282 55.688,9.046 55.632,8.83 54.782,8.63 54.782,8.869 c -0.004,0.71 -0.073,1.408 -0.124,2.107 -0.303,-0.678 -0.492,-1.391 -0.537,-2.269 -0.014,-0.296 -0.91,-0.453 -0.91,-0.23 -0.005,0.958 -0.074,1.91 -0.129,2.861 -0.271,-0.655 -0.473,-1.337 -0.534,-2.096 -0.055,-0.243 -0.927,-0.434 -0.9,-0.124 0.222,0.926 0.17,1.811 0.042,2.696 -0.399,-1.016 -0.731,-2.052 -0.906,-3.16 -0.036,-0.253 -0.941,-0.421 -0.9,-0.125 0.146,1.117 0.184,2.208 0.115,3.305 -0.34,-0.761 -0.621,-1.54 -0.781,-2.399 -0.046,-0.252 -0.947,-0.418 -0.901,-0.123 0.087,0.581 0,1.137 0,1.695 -0.207,-0.56 -0.354,-1.142 -0.474,-1.765 -0.046,-0.25 -0.942,-0.423 -0.9,-0.124 0.078,0.609 0.068,1.202 0.101,1.797 C 46.736,10.188 46.488,9.439 46.277,8.654 46.208,8.401 45.312,8.25 45.376,8.529 c 0.037,0.177 0.046,0.347 0.078,0.522 -0.275,-0.115 -0.694,-0.14 -0.667,0.067 0.019,0.143 0.005,0.287 0.019,0.43 C 44.608,9.387 44.102,9.279 44.029,9.431 43.758,9.339 43.404,9.318 43.408,9.456 c 0,0.018 0.005,0.035 0.005,0.053 0.027,0.22 0.018,0.432 0.037,0.648 -0.216,-0.039 -0.432,-0.025 -0.432,0.085 0,0.299 -0.046,0.591 -0.051,0.885 -0.083,-0.389 -0.165,-0.761 -0.22,-1.103 -0.037,-0.249 -0.926,-0.43 -0.903,-0.125 0.062,0.796 0.236,1.54 0.453,2.275 0.124,0.775 0.166,1.545 -0.064,2.186 -0.042,0.111 0.143,0.226 0.354,0.29 -0.073,0.009 -0.156,0.021 -0.147,0.108 0.271,2.955 0.542,5.908 0.809,8.863 -0.882,0.154 -1.407,0.563 -1.662,0.917 -0.703,0.969 -0.561,2.478 0.347,3.67 0.418,0.547 1.084,0.951 1.848,1.213 0.321,3.523 0.644,7.042 0.965,10.563 0.414,4.545 0.832,9.091 1.245,13.634 0.065,0.705 0.377,1.689 -0.091,1.958 -0.588,0.341 -1.182,0.678 -1.774,1.018 -0.216,-0.486 -0.386,-0.893 -0.423,-1.084 l -0.073,-0.38 -13.185,0 L 24.314,98 73.17,86.807 71.502,55.579 Z M 57.943,10.987 c 0.027,0.085 0.056,0.167 0.087,0.253 -0.036,0.016 -0.073,0.029 -0.124,0.057 0.015,-0.104 0.022,-0.207 0.037,-0.31 z m -5.461,54.615 c -0.008,0 -0.018,0 -0.026,0 -3.14,-0.031 -6.532,-5.37 -7.998,-8.316 0.855,-0.492 1.709,-0.984 2.56,-1.474 0.032,-0.026 0.046,-0.056 0.037,-0.095 -0.795,-8.688 -1.585,-17.375 -2.381,-26.063 0.083,0.004 0.138,0.057 0.225,0.057 0.459,0 0.956,-0.087 1.48,-0.283 l -0.331,-0.882 c -1.935,0.733 -3.065,-0.51 -3.364,-0.905 -0.648,-0.851 -0.788,-1.921 -0.335,-2.547 0.547,-0.747 1.894,-0.811 3.709,-0.176 l 0.312,-0.887 c -0.919,-0.324 -1.632,-0.43 -2.252,-0.453 -0.197,-2.17 -0.4,-4.339 -0.598,-6.506 -0.051,-0.587 -0.105,-1.174 -0.161,-1.761 -0.042,-0.475 -0.285,-0.202 0.386,-0.234 4.937,-0.241 9.873,-0.48 14.809,-0.724 0.326,3.169 0.647,6.341 0.979,9.51 l -2.376,-0.813 -0.304,0.892 6.362,2.179 -5.047,2.445 0.413,0.845 1.442,-0.698 c 0.245,2.374 0.493,4.748 0.731,7.122 0.143,1.402 0.285,2.801 0.433,4.203 0.105,1.041 0.091,0.717 -1.011,1.193 -3.397,1.463 -6.798,2.93 -10.195,4.394 -0.064,0.027 -0.102,0.044 -0.097,0.119 0.198,3.252 0.395,6.504 0.588,9.754 0.01,0.14 0.281,0.247 0.383,0.285 2.315,0.832 4.633,1.665 6.949,2.497 -1.397,4.788 -3.211,7.322 -5.322,7.322 z"
             inkscape:connector-curvature="0"
             style="fill:#666666" />
        </g>
        <g
           id="g4945"
           transform="translate(1293.2183,195.6694)">
          <path
             style="fill:#000000"
             inkscape:connector-curvature="0"
             d="m 56.321,20.551 c 0.005,0.021 0.013,0.039 0.018,0.06 0.097,0.278 0.883,0.152 0.938,-0.115 0.042,-0.188 0.064,-0.379 0.097,-0.57 0.028,-0.055 0.083,-0.082 0.11,-0.151 0.02,-0.037 0.015,-0.069 -0.014,-0.099 -0.014,-0.016 -0.032,-0.03 -0.045,-0.045 0.013,-0.104 0.036,-0.207 0.05,-0.311 0.019,-0.131 -0.308,-0.138 -0.368,-0.138 -0.133,0 -0.262,0 -0.396,0 -0.137,0 -0.569,0.044 -0.569,0.253 0,0.329 0,0.658 0,0.984 -0.001,0.084 0.077,0.119 0.179,0.132 z"
             id="path4947" />
          <path
             style="fill:#000000"
             inkscape:connector-curvature="0"
             d="m 52.054,19.97 c 0,0.018 0.005,0.052 0.01,0.071 0.037,0.29 0.12,0.54 0.248,0.756 -0.005,0.013 0.005,0.03 0,0.043 0.014,0 0.023,0 0.037,0 0.073,0.096 0.097,0.22 0.239,0.273 0.078,0.03 0.321,0.081 0.478,0.042 0.147,0.011 0.276,-0.002 0.271,-0.074 -0.01,-0.317 -0.041,-0.588 -0.124,-0.811 -0.009,-0.18 0.051,-0.361 0,-0.518 -0.068,-0.198 -0.727,-0.462 -0.873,-0.257 0.101,0.055 0.092,0.073 -0.028,0.052 -0.05,0 -0.271,-0.009 -0.271,0.09 0,0.113 0.005,0.166 0.008,0.235 0,0.004 -0.008,0.004 -0.008,0.012 0.006,0.029 0.009,0.056 0.013,0.086 z"
             id="path4949" />
          <path
             style="fill:#000000"
             inkscape:connector-curvature="0"
             d="m 50.713,40.754 c 1.485,0.154 2.437,-0.569 2.997,-1.941 1.255,0.177 2.528,-0.069 3.517,-0.968 0.248,-0.23 -0.647,-0.232 -0.837,-0.064 -1.559,1.42 -3.773,0.414 -5.023,-0.676 -0.17,-0.147 -0.906,-0.108 -0.906,0.193 0,1.11 0,2.22 0,3.332 -10e-4,0.099 0.192,0.117 0.252,0.124 z m 0.675,-2.831 c 0.543,0.329 1.112,0.567 1.729,0.722 -0.139,0.035 -0.262,0.084 -0.295,0.168 -0.004,0.005 -1.434,2.3 -1.434,0.903 0,-0.598 0,-1.196 0,-1.793 z"
             id="path4951" />
          <path
             style="fill:#000000"
             inkscape:connector-curvature="0"
             d="m 56.307,27.496 c -0.005,-0.002 -0.01,-0.002 -0.015,-0.004 -0.005,0.007 -0.005,0.011 -0.009,0.019 -0.033,0.029 -0.078,0.027 -0.115,0.071 -0.046,0.058 0.027,0.065 0.046,0.099 -0.019,0.048 -0.042,0.096 -0.06,0.147 -0.105,0.248 0.805,0.223 0.91,-0.032 0.046,-0.11 0.097,-0.223 0.143,-0.333 0.102,-0.249 -0.52,-0.168 -0.607,-0.147 -0.132,0.031 -0.206,0.109 -0.293,0.18 z m 0.588,0.14 c 0,0 0.005,0 0.005,0.002 -0.005,0 -0.005,-0.002 -0.01,-0.002 0.005,0 0.005,0 0.005,0 z"
             id="path4953" />
          <path
             style="fill:#000000"
             inkscape:connector-curvature="0"
             d="m 71.502,55.579 -0.022,-0.446 -12.876,0 -0.083,0.37 c -0.188,0.859 -0.39,1.662 -0.601,2.416 -1.247,-0.446 -2.487,-0.895 -3.729,-1.339 -0.763,-0.274 -1.525,-0.548 -2.289,-0.821 -0.184,-0.066 -0.367,-0.131 -0.551,-0.2 -0.083,-1.42 -0.17,-2.845 -0.253,-4.268 -0.105,-1.696 -0.207,-3.395 -0.308,-5.091 -0.023,-0.355 1.695,-0.9 2.348,-1.181 2.975,-1.283 5.948,-2.563 8.922,-3.845 0.063,-0.027 0.102,-0.043 0.097,-0.119 -0.438,-4.247 -0.874,-8.497 -1.305,-12.743 l 4.834,-2.34 -5.253,-1.802 c -0.345,-3.325 -0.685,-6.655 -1.025,-9.98 -0.027,-0.234 -0.538,-0.356 -0.712,-0.347 -5.194,0.253 -10.383,0.508 -15.577,0.761 0.005,-0.006 0.019,-0.005 0.023,-0.011 0.06,-0.164 0.055,-0.349 0.083,-0.524 0.234,0.071 0.483,0.085 0.505,-0.064 0.051,-0.335 0.027,-0.673 0.056,-1.006 0.211,0.105 0.515,0.151 0.647,0.087 0.235,0.062 0.474,0.068 0.474,-0.065 0,-0.021 0,-0.041 0,-0.062 0.027,0.094 0.046,0.188 0.073,0.28 0.056,0.195 0.772,0.377 0.869,0.204 0.257,0.099 0.593,0.134 0.625,-0.027 0.129,-0.609 0.124,-1.191 0.124,-1.774 0.188,0.354 0.335,0.724 0.575,1.064 0.087,0.122 0.873,0.382 0.873,0.122 0,-0.267 -0.042,-0.524 -0.045,-0.789 0.124,0.221 0.202,0.453 0.349,0.667 0.092,0.131 0.836,0.39 0.873,0.122 0.047,-0.294 -0.023,-0.583 0,-0.873 0.203,0.429 0.4,0.862 0.662,1.285 0.097,0.154 0.841,0.483 0.906,0.177 0.101,-0.479 0.096,-0.955 0.124,-1.43 0.174,0.418 0.321,0.841 0.538,1.252 0.092,0.172 0.831,0.471 0.905,0.177 0.118,-0.476 0.175,-0.931 0.243,-1.391 0.142,0.271 0.253,0.547 0.423,0.818 0.087,0.145 0.874,0.48 0.905,0.177 0.068,-0.588 0.05,-1.179 0.078,-1.767 0.188,0.354 0.331,0.719 0.616,1.057 0.102,0.115 0.832,0.402 0.874,0.122 0.063,-0.437 0.045,-0.874 0.078,-1.308 0.073,0.177 0.118,0.364 0.192,0.542 0.073,0.182 0.883,0.451 0.904,0.177 0.02,-0.244 0.052,-0.476 0.078,-0.712 0.078,0.174 0.111,0.361 0.193,0.535 0.078,0.17 0.882,0.458 0.905,0.177 0.01,-0.09 0.019,-0.177 0.028,-0.267 0.087,0.058 0.193,0.104 0.317,0.133 0.041,0.117 0.082,0.235 0.124,0.352 0.064,0.195 0.892,0.438 0.905,0.177 -0.028,-0.283 0.037,-0.545 0.193,-0.787 0.078,-0.186 -0.318,-0.28 -0.566,-0.312 C 58.577,10.376 58.307,9.615 58.039,8.848 57.971,8.64 57.115,8.438 57.134,8.671 57.157,9.027 57.13,9.372 57.102,9.719 57.034,9.491 56.922,9.282 56.863,9.046 56.808,8.816 55.939,8.653 55.959,8.869 55.977,9.161 55.944,9.441 55.931,9.724 55.858,9.496 55.746,9.282 55.688,9.046 55.632,8.83 54.782,8.63 54.782,8.869 c -0.004,0.71 -0.073,1.408 -0.124,2.107 -0.303,-0.678 -0.492,-1.391 -0.537,-2.269 -0.014,-0.296 -0.91,-0.453 -0.91,-0.23 -0.005,0.958 -0.074,1.91 -0.129,2.861 -0.271,-0.655 -0.473,-1.337 -0.534,-2.096 -0.055,-0.243 -0.927,-0.434 -0.9,-0.124 0.222,0.926 0.17,1.811 0.042,2.696 -0.399,-1.016 -0.731,-2.052 -0.906,-3.16 -0.036,-0.253 -0.941,-0.421 -0.9,-0.125 0.146,1.117 0.184,2.208 0.115,3.305 -0.34,-0.761 -0.621,-1.54 -0.781,-2.399 -0.046,-0.252 -0.947,-0.418 -0.901,-0.123 0.087,0.581 0,1.137 0,1.695 -0.207,-0.56 -0.354,-1.142 -0.474,-1.765 -0.046,-0.25 -0.942,-0.423 -0.9,-0.124 0.078,0.609 0.068,1.202 0.101,1.797 C 46.736,10.188 46.488,9.439 46.277,8.654 46.208,8.401 45.312,8.25 45.376,8.529 c 0.037,0.177 0.046,0.347 0.078,0.522 -0.275,-0.115 -0.694,-0.14 -0.667,0.067 0.019,0.143 0.005,0.287 0.019,0.43 C 44.608,9.387 44.102,9.279 44.029,9.431 43.758,9.339 43.404,9.318 43.408,9.456 c 0,0.018 0.005,0.035 0.005,0.053 0.027,0.22 0.018,0.432 0.037,0.648 -0.216,-0.039 -0.432,-0.025 -0.432,0.085 0,0.299 -0.046,0.591 -0.051,0.885 -0.083,-0.389 -0.165,-0.761 -0.22,-1.103 -0.037,-0.249 -0.926,-0.43 -0.903,-0.125 0.062,0.796 0.236,1.54 0.453,2.275 0.124,0.775 0.166,1.545 -0.064,2.186 -0.042,0.111 0.143,0.226 0.354,0.29 -0.073,0.009 -0.156,0.021 -0.147,0.108 0.271,2.955 0.542,5.908 0.809,8.863 -0.882,0.154 -1.407,0.563 -1.662,0.917 -0.703,0.969 -0.561,2.478 0.347,3.67 0.418,0.547 1.084,0.951 1.848,1.213 0.321,3.523 0.644,7.042 0.965,10.563 0.414,4.545 0.832,9.091 1.245,13.634 0.065,0.705 0.377,1.689 -0.091,1.958 -0.588,0.341 -1.182,0.678 -1.774,1.018 -0.216,-0.486 -0.386,-0.893 -0.423,-1.084 l -0.073,-0.38 -13.185,0 L 24.314,98 73.17,86.807 71.502,55.579 Z M 57.943,10.987 c 0.027,0.085 0.056,0.167 0.087,0.253 -0.036,0.016 -0.073,0.029 -0.124,0.057 0.015,-0.104 0.022,-0.207 0.037,-0.31 z m -5.461,54.615 c -0.008,0 -0.018,0 -0.026,0 -3.14,-0.031 -6.532,-5.37 -7.998,-8.316 0.855,-0.492 1.709,-0.984 2.56,-1.474 0.032,-0.026 0.046,-0.056 0.037,-0.095 -0.795,-8.688 -1.585,-17.375 -2.381,-26.063 0.083,0.004 0.138,0.057 0.225,0.057 0.459,0 0.956,-0.087 1.48,-0.283 l -0.331,-0.882 c -1.935,0.733 -3.065,-0.51 -3.364,-0.905 -0.648,-0.851 -0.788,-1.921 -0.335,-2.547 0.547,-0.747 1.894,-0.811 3.709,-0.176 l 0.312,-0.887 c -0.919,-0.324 -1.632,-0.43 -2.252,-0.453 -0.197,-2.17 -0.4,-4.339 -0.598,-6.506 -0.051,-0.587 -0.105,-1.174 -0.161,-1.761 -0.042,-0.475 -0.285,-0.202 0.386,-0.234 4.937,-0.241 9.873,-0.48 14.809,-0.724 0.326,3.169 0.647,6.341 0.979,9.51 l -2.376,-0.813 -0.304,0.892 6.362,2.179 -5.047,2.445 0.413,0.845 1.442,-0.698 c 0.245,2.374 0.493,4.748 0.731,7.122 0.143,1.402 0.285,2.801 0.433,4.203 0.105,1.041 0.091,0.717 -1.011,1.193 -3.397,1.463 -6.798,2.93 -10.195,4.394 -0.064,0.027 -0.102,0.044 -0.097,0.119 0.198,3.252 0.395,6.504 0.588,9.754 0.01,0.14 0.281,0.247 0.383,0.285 2.315,0.832 4.633,1.665 6.949,2.497 -1.397,4.788 -3.211,7.322 -5.322,7.322 z"
             id="path4955" />
        </g>
      </g>
      <g
         id="g10536">
        <g
           transform="matrix(-1,0,0,1,1801.6055,198.41077)"
           id="g10478"
           style="fill:#b3b3b3;filter:url(#filter10532)">
          <path
             id="path10480"
             d="m 67.898,24.086 c 1.103,-1.876 2.079,-4.305 1.264,-6.459 -0.813,-2.143 -3.568,-2.622 -5.548,-2.744 -4.234,-0.258 -8.741,0.374 -12.937,0.938 -1.626,0.218 -3.858,0.538 -6.211,1.062 1.595,-2.433 3.705,-7.682 0.57,-9.521 C 43.814,6.647 42.179,7.234 41.04,7.8 c -3.013,1.493 -5.71,4.433 -7.53,7.21 -1.588,2.422 -1.767,5.442 0.458,6.775 -1.239,1.351 -1.977,3.004 -1.883,5.048 0.095,2.077 1.171,4.229 2.58,5.741 1.674,1.34 3.72,2.24 5.865,2.825 l 0.077,0.746 c -1.333,-0.164 -2.534,0.068 -3.392,0.809 -0.955,0.826 -1.306,2.065 -0.918,3.235 0.032,0.097 0.075,0.21 0.133,0.333 0.024,0.051 0.062,0.111 0.091,0.166 0.042,0.079 0.08,0.155 0.135,0.239 0.039,0.062 0.096,0.126 0.142,0.189 0.063,0.083 0.12,0.167 0.195,0.252 0.06,0.067 0.136,0.131 0.205,0.198 0.085,0.085 0.166,0.169 0.267,0.252 0.082,0.066 0.186,0.128 0.278,0.195 0.112,0.079 0.22,0.159 0.352,0.234 0.105,0.062 0.235,0.114 0.355,0.17 0.145,0.07 0.287,0.142 0.452,0.205 0.135,0.051 0.294,0.092 0.442,0.136 0.183,0.057 0.362,0.115 0.567,0.159 0.164,0.036 0.353,0.058 0.532,0.087 0.181,0.029 0.343,0.068 0.542,0.089 l 1.712,23.126 -3.015,2.599 C 39.661,68.5 39.64,68.21 39.62,67.879 l -0.042,-0.788 -5.072,5.151 -7.51,21.384 0.659,0.231 0.048,-0.137 31.406,-1.785 0,0.014 0.696,-0.068 -1.54,-16.467 -0.01,-0.119 -7.85,-8.272 0,0.877 c 0,0.082 -0.017,0.215 -0.038,0.349 l -2.592,-2.049 0,-7.382 11.912,2.435 1.769,-20.027 5.285,-3.421 -4.258,-2.494 -0.604,-4.406 c 2.386,-1.906 4.469,-4.181 6.019,-6.819 z m -7.111,16.736 -1.728,19.591 -12.435,-2.544 -0.144,0.687 0.598,0.123 0,7.863 3.141,2.481 c -0.822,3.626 -4.285,13.551 -6.919,13.623 -0.007,0 -0.015,0 -0.023,0 -1.018,0 -2.755,-1.779 -3.541,-12.95 l 3.683,-3.175 -1.784,-24.076 -0.3,-0.022 C 39.049,42.254 37.414,41.336 36.961,39.97 36.664,39.074 36.937,38.119 37.673,37.483 38.844,36.469 40.8,36.5 42.9,37.548 l 0.314,-0.625 c -0.647,-0.324 -1.28,-0.54 -1.895,-0.685 l -0.068,-0.664 c 2.108,0.499 4.292,0.717 6.326,0.676 5.661,-0.116 10.554,-2.866 13.268,-7.757 l 0.973,7.08 0.346,-0.048 -0.488,0.119 3.734,2.19 -4.623,2.988 z"
             inkscape:connector-curvature="0"
             style="fill:#b3b3b3" />
          <path
             id="path10482"
             d="m 59.404,34.851 c -0.059,0.042 -0.106,0.079 -0.065,0.148 0.055,0.099 0.205,0.126 0.376,0.128 0.13,0.048 0.403,0.014 0.536,-0.077 l 0,0 c 0.023,-0.005 0.044,0.01 0.068,0.003 0.082,-0.022 0.229,-0.072 0.232,-0.176 0,-0.083 0,-0.167 0.003,-0.251 0,-0.097 -0.226,-0.096 -0.276,-0.089 -0.386,0.044 -0.563,0.084 -0.874,0.314 z"
             inkscape:connector-curvature="0"
             style="fill:#b3b3b3" />
          <path
             id="path10484"
             d="m 56.095,36 c -0.078,-0.009 -0.15,-0.01 -0.226,-0.017 -0.089,-0.012 -0.181,-0.022 -0.272,-0.021 -0.004,0 -0.004,0 -0.007,0 l -0.004,0 c -0.034,10e-4 -0.068,0 -0.105,0 -0.089,0 -0.314,0.036 -0.379,0.145 -0.007,0.003 -0.014,0.009 -0.018,0.014 -0.007,0.012 -0.03,0.012 -0.03,0.025 0,0.146 0,0.292 0,0.438 0,0.041 0.064,0.041 0.108,0.056 0,0.019 0,0.036 0,0.053 0.008,0.031 0.027,0.053 0.055,0.065 0.045,0.019 0.086,0.039 0.13,0.058 0.175,0.08 0.506,0.06 0.632,-0.104 0.086,-0.118 0.082,-0.239 0.105,-0.355 0.035,-0.017 0.059,-0.03 0.072,-0.049 0.075,-0.026 0.153,-0.063 0.14,-0.13 -0.007,-0.025 -0.01,-0.051 -0.017,-0.077 C 56.262,36.025 56.157,36.007 56.095,36 Z"
             inkscape:connector-curvature="0"
             style="fill:#b3b3b3" />
          <path
             id="path10486"
             d="m 52.739,52.154 c -0.116,-0.068 -0.594,-0.031 -0.625,0.144 -0.412,2.349 0.943,2.896 2.206,0.942 0.011,-0.014 -0.017,-0.021 -0.024,-0.034 0.414,0.089 0.823,0.185 1.281,0.204 0.211,0.008 0.758,-0.279 0.307,-0.3 -1.181,-0.054 -2.144,-0.355 -3.145,-0.956 z m 0.905,1.127 c -0.98,1.516 -1.015,0.286 -0.908,-0.629 0.406,0.198 0.819,0.39 1.239,0.502 -0.143,0.018 -0.283,0.052 -0.331,0.127 z"
             inkscape:connector-curvature="0"
             style="fill:#b3b3b3" />
        </g>
        <g
           id="g8224"
           transform="matrix(-1,0,0,1,1801.6055,198.41077)">
          <path
             style="fill:#000000"
             inkscape:connector-curvature="0"
             d="m 67.898,24.086 c 1.103,-1.876 2.079,-4.305 1.264,-6.459 -0.813,-2.143 -3.568,-2.622 -5.548,-2.744 -4.234,-0.258 -8.741,0.374 -12.937,0.938 -1.626,0.218 -3.858,0.538 -6.211,1.062 1.595,-2.433 3.705,-7.682 0.57,-9.521 C 43.814,6.647 42.179,7.234 41.04,7.8 c -3.013,1.493 -5.71,4.433 -7.53,7.21 -1.588,2.422 -1.767,5.442 0.458,6.775 -1.239,1.351 -1.977,3.004 -1.883,5.048 0.095,2.077 1.171,4.229 2.58,5.741 1.674,1.34 3.72,2.24 5.865,2.825 l 0.077,0.746 c -1.333,-0.164 -2.534,0.068 -3.392,0.809 -0.955,0.826 -1.306,2.065 -0.918,3.235 0.032,0.097 0.075,0.21 0.133,0.333 0.024,0.051 0.062,0.111 0.091,0.166 0.042,0.079 0.08,0.155 0.135,0.239 0.039,0.062 0.096,0.126 0.142,0.189 0.063,0.083 0.12,0.167 0.195,0.252 0.06,0.067 0.136,0.131 0.205,0.198 0.085,0.085 0.166,0.169 0.267,0.252 0.082,0.066 0.186,0.128 0.278,0.195 0.112,0.079 0.22,0.159 0.352,0.234 0.105,0.062 0.235,0.114 0.355,0.17 0.145,0.07 0.287,0.142 0.452,0.205 0.135,0.051 0.294,0.092 0.442,0.136 0.183,0.057 0.362,0.115 0.567,0.159 0.164,0.036 0.353,0.058 0.532,0.087 0.181,0.029 0.343,0.068 0.542,0.089 l 1.712,23.126 -3.015,2.599 C 39.661,68.5 39.64,68.21 39.62,67.879 l -0.042,-0.788 -5.072,5.151 -7.51,21.384 0.659,0.231 0.048,-0.137 31.406,-1.785 0,0.014 0.696,-0.068 -1.54,-16.467 -0.01,-0.119 -7.85,-8.272 0,0.877 c 0,0.082 -0.017,0.215 -0.038,0.349 l -2.592,-2.049 0,-7.382 11.912,2.435 1.769,-20.027 5.285,-3.421 -4.258,-2.494 -0.604,-4.406 c 2.386,-1.906 4.469,-4.181 6.019,-6.819 z m -7.111,16.736 -1.728,19.591 -12.435,-2.544 -0.144,0.687 0.598,0.123 0,7.863 3.141,2.481 c -0.822,3.626 -4.285,13.551 -6.919,13.623 -0.007,0 -0.015,0 -0.023,0 -1.018,0 -2.755,-1.779 -3.541,-12.95 l 3.683,-3.175 -1.784,-24.076 -0.3,-0.022 C 39.049,42.254 37.414,41.336 36.961,39.97 36.664,39.074 36.937,38.119 37.673,37.483 38.844,36.469 40.8,36.5 42.9,37.548 l 0.314,-0.625 c -0.647,-0.324 -1.28,-0.54 -1.895,-0.685 l -0.068,-0.664 c 2.108,0.499 4.292,0.717 6.326,0.676 5.661,-0.116 10.554,-2.866 13.268,-7.757 l 0.973,7.08 0.346,-0.048 -0.488,0.119 3.734,2.19 -4.623,2.988 z"
             id="path8226" />
          <path
             style="fill:#000000"
             inkscape:connector-curvature="0"
             d="m 59.404,34.851 c -0.059,0.042 -0.106,0.079 -0.065,0.148 0.055,0.099 0.205,0.126 0.376,0.128 0.13,0.048 0.403,0.014 0.536,-0.077 l 0,0 c 0.023,-0.005 0.044,0.01 0.068,0.003 0.082,-0.022 0.229,-0.072 0.232,-0.176 0,-0.083 0,-0.167 0.003,-0.251 0,-0.097 -0.226,-0.096 -0.276,-0.089 -0.386,0.044 -0.563,0.084 -0.874,0.314 z"
             id="path8228" />
          <path
             style="fill:#000000"
             inkscape:connector-curvature="0"
             d="m 56.095,36 c -0.078,-0.009 -0.15,-0.01 -0.226,-0.017 -0.089,-0.012 -0.181,-0.022 -0.272,-0.021 -0.004,0 -0.004,0 -0.007,0 l -0.004,0 c -0.034,10e-4 -0.068,0 -0.105,0 -0.089,0 -0.314,0.036 -0.379,0.145 -0.007,0.003 -0.014,0.009 -0.018,0.014 -0.007,0.012 -0.03,0.012 -0.03,0.025 0,0.146 0,0.292 0,0.438 0,0.041 0.064,0.041 0.108,0.056 0,0.019 0,0.036 0,0.053 0.008,0.031 0.027,0.053 0.055,0.065 0.045,0.019 0.086,0.039 0.13,0.058 0.175,0.08 0.506,0.06 0.632,-0.104 0.086,-0.118 0.082,-0.239 0.105,-0.355 0.035,-0.017 0.059,-0.03 0.072,-0.049 0.075,-0.026 0.153,-0.063 0.14,-0.13 -0.007,-0.025 -0.01,-0.051 -0.017,-0.077 C 56.262,36.025 56.157,36.007 56.095,36 Z"
             id="path8230" />
          <path
             style="fill:#000000"
             inkscape:connector-curvature="0"
             d="m 52.739,52.154 c -0.116,-0.068 -0.594,-0.031 -0.625,0.144 -0.412,2.349 0.943,2.896 2.206,0.942 0.011,-0.014 -0.017,-0.021 -0.024,-0.034 0.414,0.089 0.823,0.185 1.281,0.204 0.211,0.008 0.758,-0.279 0.307,-0.3 -1.181,-0.054 -2.144,-0.355 -3.145,-0.956 z m 0.905,1.127 c -0.98,1.516 -1.015,0.286 -0.908,-0.629 0.406,0.198 0.819,0.39 1.239,0.502 -0.143,0.018 -0.283,0.052 -0.331,0.127 z"
             id="path8232" />
        </g>
      </g>
      <g
         id="g9154"
         transform="matrix(6.830552,0,0,2.0593305,1378.1627,-1866.8229)">
        <rect
           id="rect9156"
           style="fill:#000000;fill-opacity:1;stroke-width:0"
           width="0.20737724"
           height="0.74997121"
           x="0.91559875"
           y="1026.9871" />
        <rect
           id="rect9158"
           y="1025.6017"
           x="1.344709"
           height="3.520968"
           width="0.20737983"
           style="fill:#000000;fill-opacity:1;stroke-width:0" />
        <rect
           id="rect9160"
           style="fill:#000000;fill-opacity:1;stroke-width:0"
           width="0.20738164"
           height="2.1739619"
           x="1.7738204"
           y="1026.2753" />
        <rect
           id="rect9162"
           y="1024.3583"
           x="2.202935"
           height="6.00775"
           width="0.20737724"
           style="fill:#000000;fill-opacity:1;stroke-width:0" />
        <rect
           id="rect9164"
           style="fill:#000000;fill-opacity:1;stroke-width:0"
           width="0.20737511"
           height="8.5463409"
           x="2.6320484"
           y="1023.0889" />
        <rect
           id="rect9166"
           y="1025.1613"
           x="3.0611587"
           height="4.4017029"
           width="0.20737883"
           style="fill:#000000;fill-opacity:1;stroke-width:0" />
        <rect
           id="rect9168"
           style="fill:#000000;fill-opacity:1;stroke-width:0"
           width="0.20738198"
           height="1.9667301"
           x="3.4902701"
           y="1026.3788" />
        <rect
           id="rect9170"
           y="1026.8452"
           x="3.9193816"
           height="1.0341885"
           width="0.20738372"
           style="fill:#000000;fill-opacity:1;stroke-width:0" />
        <rect
           id="rect9172"
           style="fill:#000000;fill-opacity:1;stroke-width:0"
           width="0.20737889"
           height="4.349895"
           x="4.348496"
           y="1025.1873" />
        <rect
           id="rect9174"
           y="1023.4517"
           x="4.7776098"
           height="7.8210287"
           width="0.20737568"
           style="fill:#000000;fill-opacity:1;stroke-width:0" />
        <rect
           id="rect9176"
           style="fill:#000000;fill-opacity:1;stroke-width:0"
           width="0.20737936"
           height="3.935431"
           x="5.2067208"
           y="1025.3944" />
        <rect
           id="rect9178"
           y="1026.4567"
           x="5.6358309"
           height="1.8113066"
           width="0.20738223"
           style="fill:#000000;fill-opacity:1;stroke-width:0" />
        <rect
           id="rect9180"
           style="fill:#000000;fill-opacity:1;stroke-width:0"
           width="0.20737964"
           height="3.6763916"
           x="6.0649452"
           y="1025.5239" />
        <rect
           id="rect9182"
           y="1026.4305"
           x="6.4940557"
           height="1.8631142"
           width="0.20738214"
           style="fill:#000000;fill-opacity:1;stroke-width:0" />
        <rect
           id="rect9184"
           style="fill:#000000;fill-opacity:1;stroke-width:0"
           width="0.20738141"
           height="2.3293855"
           x="6.9231677"
           y="1026.1976" />
        <rect
           id="rect9186"
           y="1026.6638"
           x="7.3522787"
           height="1.3968436"
           width="0.20738296"
           style="fill:#000000;fill-opacity:1;stroke-width:0" />
        <rect
           id="rect9188"
           style="fill:#000000;fill-opacity:1;stroke-width:0"
           width="0.20738076"
           height="2.7956569"
           x="7.7813911"
           y="1025.9644" />
        <rect
           id="rect9190"
           y="1024.3583"
           x="8.2105055"
           height="6.00775"
           width="0.20737724"
           style="fill:#000000;fill-opacity:1;stroke-width:0" />
        <rect
           id="rect9192"
           style="fill:#000000;fill-opacity:1;stroke-width:0"
           width="0.20737369"
           height="10.463237"
           x="8.6396198"
           y="1022.1307" />
        <rect
           id="rect9194"
           y="1020.7318"
           x="9.0687313"
           height="13.260869"
           width="0.20737186"
           style="fill:#000000;fill-opacity:1;stroke-width:0" />
        <rect
           id="rect9196"
           style="fill:#000000;fill-opacity:1;stroke-width:0"
           width="0.20737265"
           height="12.017476"
           x="9.4978447"
           y="1021.3536" />
        <rect
           id="rect9198"
           y="1022.9855"
           x="9.9269543"
           height="8.7535734"
           width="0.20737495"
           style="fill:#000000;fill-opacity:1;stroke-width:0" />
        <rect
           id="rect9200"
           style="fill:#000000;fill-opacity:1;stroke-width:0"
           width="0.20737724"
           height="6.00775"
           x="10.356065"
           y="1024.3583" />
        <rect
           id="rect9202"
           y="1022.4932"
           x="10.785178"
           height="9.7379246"
           width="0.20737422"
           style="fill:#000000;fill-opacity:1;stroke-width:0" />
        <rect
           id="rect9204"
           style="fill:#000000;fill-opacity:1;stroke-width:0"
           width="0.20737629"
           height="7.095717"
           x="11.21429"
           y="1023.8145" />
        <rect
           id="rect9206"
           y="1021.1722"
           x="11.643402"
           height="12.380133"
           width="0.20737241"
           style="fill:#000000;fill-opacity:1;stroke-width:0" />
        <rect
           id="rect9208"
           style="fill:#000000;fill-opacity:1;stroke-width:0"
           width="0.20737463"
           height="9.1680374"
           x="12.072513"
           y="1022.7783" />
        <rect
           id="rect9210"
           y="1024.3583"
           x="12.501623"
           height="6.00775"
           width="0.20737724"
           style="fill:#000000;fill-opacity:1;stroke-width:0" />
        <rect
           id="rect9212"
           style="fill:#000000;fill-opacity:1;stroke-width:0"
           width="0.20738003"
           height="3.3655438"
           x="12.930734"
           y="1025.6796" />
        <rect
           id="rect9214"
           y="1023.1669"
           x="13.359848"
           height="8.3909168"
           width="0.20737523"
           style="fill:#000000;fill-opacity:1;stroke-width:0" />
        <rect
           id="rect9216"
           style="fill:#000000;fill-opacity:1;stroke-width:0"
           width="0.20737618"
           height="7.1993332"
           x="13.788959"
           y="1023.7626" />
        <rect
           id="rect9218"
           y="1025.55"
           x="14.21807"
           height="3.6245837"
           width="0.20737971"
           style="fill:#000000;fill-opacity:1;stroke-width:0" />
        <rect
           id="rect9220"
           style="fill:#000000;fill-opacity:1;stroke-width:0"
           width="0.20738076"
           height="2.7956569"
           x="14.647183"
           y="1025.9644" />
        <rect
           id="rect9222"
           y="1026.5343"
           x="15.076297"
           height="1.6558828"
           width="0.2073825"
           style="fill:#000000;fill-opacity:1;stroke-width:0" />
        <rect
           id="rect9224"
           style="fill:#000000;fill-opacity:1;stroke-width:0"
           width="0.20737942"
           height="3.8836234"
           x="15.505409"
           y="1025.4203" />
        <rect
           id="rect9226"
           y="1022.4413"
           x="15.934526"
           height="9.8415413"
           width="0.20737414"
           style="fill:#000000;fill-opacity:1;stroke-width:0" />
        <rect
           id="rect9228"
           style="fill:#000000;fill-opacity:1;stroke-width:0"
           width="0.20737575"
           height="7.7174129"
           x="16.363636"
           y="1023.5035" />
        <rect
           id="rect9230"
           y="1026.6897"
           x="16.792746"
           height="1.3450357"
           width="0.20738308"
           style="fill:#000000;fill-opacity:1;stroke-width:0" />
        <rect
           id="rect9232"
           style="fill:#000000;fill-opacity:1;stroke-width:0"
           width="0.20737724"
           height="6.00775"
           x="17.650974"
           y="1024.3583" />
        <rect
           id="rect9234"
           y="1025.7572"
           x="17.221859"
           height="3.2101202"
           width="0.20738022"
           style="fill:#000000;fill-opacity:1;stroke-width:0" />
        <rect
           id="rect9236"
           y="1025.9125"
           x="18.509197"
           height="2.8992727"
           width="0.20738062"
           style="fill:#000000;fill-opacity:1;stroke-width:0" />
        <rect
           id="rect9238"
           style="fill:#000000;fill-opacity:1;stroke-width:0"
           width="0.20738268"
           height="1.5522671"
           x="18.938311"
           y="1026.5862" />
        <rect
           id="rect9240"
           y="1025.8348"
           x="18.080086"
           height="3.0546963"
           width="0.20738043"
           style="fill:#000000;fill-opacity:1;stroke-width:0" />
        <rect
           id="rect9242"
           y="1025.783"
           x="19.367424"
           height="3.1583121"
           width="0.20738029"
           style="fill:#000000;fill-opacity:1;stroke-width:0" />
        <rect
           id="rect9244"
           style="fill:#000000;fill-opacity:1;stroke-width:0"
           width="0.20737877"
           height="4.4535108"
           x="19.796539"
           y="1025.1354" />
        <rect
           id="rect9246"
           style="fill:#000000;fill-opacity:1;stroke-width:0"
           width="0.20737964"
           height="3.6763916"
           x="20.225651"
           y="1025.5239" />
        <rect
           id="rect9248"
           y="1025.0317"
           x="20.654764"
           height="4.6607428"
           width="0.20737855"
           style="fill:#000000;fill-opacity:1;stroke-width:0" />
        <rect
           id="rect9250"
           style="fill:#000000;fill-opacity:1;stroke-width:0"
           width="0.20738189"
           height="2.018538"
           x="21.083876"
           y="1026.3529" />
        <rect
           id="rect9252"
           y="1026.7157"
           x="21.512989"
           height="1.2932278"
           width="0.20738317"
           style="fill:#000000;fill-opacity:1;stroke-width:0" />
        <rect
           id="rect9254"
           style="fill:#000000;fill-opacity:1;stroke-width:0"
           width="0.20738462"
           height="0.67153394"
           x="21.942099"
           y="1027.0264" />
        <rect
           id="rect9256"
           y="1026.6378"
           x="22.371214"
           height="1.4486513"
           width="0.20738289"
           style="fill:#000000;fill-opacity:1;stroke-width:0" />
        <rect
           id="rect9258"
           style="fill:#000000;fill-opacity:1;stroke-width:0"
           width="0.20737912"
           height="4.1426635"
           x="22.800329"
           y="1025.2908" />
        <rect
           id="rect9260"
           y="1026.0162"
           x="23.658554"
           height="2.6920409"
           width="0.20738091"
           style="fill:#000000;fill-opacity:1;stroke-width:0" />
        <rect
           id="rect9262"
           style="fill:#000000;fill-opacity:1;stroke-width:0"
           width="0.20738223"
           height="1.8113066"
           x="23.229441"
           y="1026.4567" />
        <rect
           id="rect9264"
           style="fill:#000000;fill-opacity:1;stroke-width:0"
           width="0.20737498"
           height="8.7017651"
           x="24.516783"
           y="1023.0113" />
        <rect
           id="rect9266"
           y="1024.7211"
           x="24.945894"
           height="5.2824359"
           width="0.20737681"
           style="fill:#000000;fill-opacity:1;stroke-width:0" />
        <rect
           id="rect9268"
           style="fill:#000000;fill-opacity:1;stroke-width:0"
           width="0.2073741"
           height="9.8933487"
           x="24.087671"
           y="1022.4155" />
        <rect
           id="rect9270"
           style="fill:#000000;fill-opacity:1;stroke-width:0"
           width="0.20738029"
           height="3.1583121"
           x="25.375006"
           y="1025.783" />
        <rect
           id="rect9272"
           y="1024.3583"
           x="25.804121"
           height="6.00775"
           width="0.20737724"
           style="fill:#000000;fill-opacity:1;stroke-width:0" />
        <rect
           id="rect9274"
           y="1025.783"
           x="26.233231"
           height="3.1583121"
           width="0.20738029"
           style="fill:#000000;fill-opacity:1;stroke-width:0" />
        <rect
           id="rect9276"
           style="fill:#000000;fill-opacity:1;stroke-width:0"
           width="0.20738296"
           height="1.3968436"
           x="26.662344"
           y="1026.6638" />
        <rect
           id="rect9278"
           y="1025.7312"
           x="27.091457"
           height="3.2619281"
           width="0.20738016"
           style="fill:#000000;fill-opacity:1;stroke-width:0" />
        <rect
           id="rect9280"
           style="fill:#000000;fill-opacity:1;stroke-width:0"
           width="0.20737724"
           height="6.00775"
           x="27.520573"
           y="1024.3583" />
        <rect
           id="rect9282"
           y="1023.4259"
           x="27.949684"
           height="7.8728366"
           width="0.20737563"
           style="fill:#000000;fill-opacity:1;stroke-width:0" />
        <rect
           id="rect9284"
           style="fill:#000000;fill-opacity:1;stroke-width:0"
           width="0.20737448"
           height="9.3752689"
           x="28.378799"
           y="1022.6746" />
        <rect
           id="rect9286"
           y="1024.3583"
           x="28.807911"
           height="6.00775"
           width="0.20737724"
           style="fill:#000000;fill-opacity:1;stroke-width:0" />
        <rect
           id="rect9288"
           style="fill:#000000;fill-opacity:1;stroke-width:0"
           width="0.20738164"
           height="2.1739619"
           x="29.666134"
           y="1026.2753" />
        <rect
           id="rect9290"
           y="1025.6796"
           x="29.237022"
           height="3.3655438"
           width="0.20738003"
           style="fill:#000000;fill-opacity:1;stroke-width:0" />
        <rect
           id="rect9292"
           y="1025.7312"
           x="30.524361"
           height="3.2619281"
           width="0.20738016"
           style="fill:#000000;fill-opacity:1;stroke-width:0" />
        <rect
           id="rect9294"
           style="fill:#000000;fill-opacity:1;stroke-width:0"
           width="0.20738205"
           height="1.9149221"
           x="30.953474"
           y="1026.4048" />
        <rect
           id="rect9296"
           y="1025.8867"
           x="30.095247"
           height="2.9510806"
           width="0.20738055"
           style="fill:#000000;fill-opacity:1;stroke-width:0" />
        <rect
           id="rect9298"
           y="1025.7572"
           x="31.382586"
           height="3.2101202"
           width="0.20738022"
           style="fill:#000000;fill-opacity:1;stroke-width:0" />
        <rect
           id="rect9300"
           style="fill:#000000;fill-opacity:1;stroke-width:0"
           width="0.20737724"
           height="6.00775"
           x="31.811703"
           y="1024.3583" />
        <rect
           id="rect9302"
           style="fill:#000000;fill-opacity:1;stroke-width:0"
           width="0.20737556"
           height="7.9764528"
           x="32.24081"
           y="1023.374" />
        <rect
           id="rect9304"
           y="1025.1354"
           x="32.669922"
           height="4.4535108"
           width="0.20737877"
           style="fill:#000000;fill-opacity:1;stroke-width:0" />
        <rect
           id="rect9306"
           style="fill:#000000;fill-opacity:1;stroke-width:0"
           width="0.20737645"
           height="6.8884854"
           x="33.099033"
           y="1023.9179" />
        <rect
           id="rect9308"
           y="1025.5239"
           x="33.528145"
           height="3.6763916"
           width="0.20737964"
           style="fill:#000000;fill-opacity:1;stroke-width:0" />
        <rect
           id="rect9310"
           style="fill:#000000;fill-opacity:1;stroke-width:0"
           width="0.207379"
           height="4.2462792"
           x="33.957256"
           y="1025.2391" />
        <rect
           id="rect9312"
           y="1024.6432"
           x="34.386368"
           height="5.4378624"
           width="0.20737778"
           style="fill:#000000;fill-opacity:1;stroke-width:0" />
        <rect
           id="rect9314"
           style="fill:#000000;fill-opacity:1;stroke-width:0"
           width="0.20737724"
           height="6.00775"
           x="34.815475"
           y="1024.3583" />
        <rect
           id="rect9316"
           y="1026.3788"
           x="35.673695"
           height="1.9667301"
           width="0.20738198"
           style="fill:#000000;fill-opacity:1;stroke-width:0" />
        <rect
           id="rect9318"
           style="fill:#000000;fill-opacity:1;stroke-width:0"
           width="0.20738035"
           height="3.1065044"
           x="35.244587"
           y="1025.8091" />
        <rect
           id="rect9320"
           style="fill:#000000;fill-opacity:1;stroke-width:0"
           width="0.20738328"
           height="1.2414199"
           x="36.531918"
           y="1026.7415" />
        <rect
           id="rect9322"
           y="1026.0939"
           x="36.961033"
           height="2.536617"
           width="0.20738111"
           style="fill:#000000;fill-opacity:1;stroke-width:0" />
        <rect
           id="rect9324"
           style="fill:#000000;fill-opacity:1;stroke-width:0"
           width="0.20738035"
           height="3.1065044"
           x="36.10281"
           y="1025.8091" />
        <rect
           id="rect9326"
           style="fill:#000000;fill-opacity:1;stroke-width:0"
           width="0.20738289"
           height="1.4486513"
           x="37.390137"
           y="1026.6378" />
        <rect
           id="rect9328"
           y="1025.6534"
           x="37.819252"
           height="3.417352"
           width="0.20737997"
           style="fill:#000000;fill-opacity:1;stroke-width:0" />
        <rect
           id="rect9330"
           y="1025.55"
           x="38.248363"
           height="3.6245837"
           width="0.20737971"
           style="fill:#000000;fill-opacity:1;stroke-width:0" />
        <rect
           id="rect9332"
           style="fill:#000000;fill-opacity:1;stroke-width:0"
           width="0.20737818"
           height="5.0233984"
           x="38.677475"
           y="1024.8506" />
        <rect
           id="rect9334"
           y="1025.6534"
           x="39.106586"
           height="3.417352"
           width="0.20737997"
           style="fill:#000000;fill-opacity:1;stroke-width:0" />
        <rect
           id="rect9336"
           style="fill:#000000;fill-opacity:1;stroke-width:0"
           width="0.20737724"
           height="6.00775"
           x="39.535698"
           y="1024.3583" />
        <rect
           id="rect9338"
           y="1022.6488"
           x="39.964806"
           height="9.4270763"
           width="0.20737444"
           style="fill:#000000;fill-opacity:1;stroke-width:0" />
        <rect
           id="rect9340"
           style="fill:#000000;fill-opacity:1;stroke-width:0"
           width="0.20737855"
           height="4.6607428"
           x="40.393917"
           y="1025.0317" />
        <rect
           id="rect9342"
           y="1025.6796"
           x="40.823029"
           height="3.3655438"
           width="0.20738003"
           style="fill:#000000;fill-opacity:1;stroke-width:0" />
        <rect
           id="rect9344"
           style="fill:#000000;fill-opacity:1;stroke-width:0"
           width="0.20738022"
           height="3.2101202"
           x="41.681252"
           y="1025.7572" />
        <rect
           id="rect9346"
           y="1026.301"
           x="41.252136"
           height="2.1221538"
           width="0.20738173"
           style="fill:#000000;fill-opacity:1;stroke-width:0" />
        <rect
           id="rect9348"
           y="1026.2493"
           x="42.539467"
           height="2.2257698"
           width="0.20738158"
           style="fill:#000000;fill-opacity:1;stroke-width:0" />
        <rect
           id="rect9350"
           style="fill:#000000;fill-opacity:1;stroke-width:0"
           width="0.2073825"
           height="1.6558828"
           x="42.968575"
           y="1026.5343" />
        <rect
           id="rect9352"
           y="1026.6897"
           x="42.110355"
           height="1.3450357"
           width="0.20738308"
           style="fill:#000000;fill-opacity:1;stroke-width:0" />
        <rect
           id="rect9354"
           y="1026.8969"
           x="43.397686"
           height="0.93057281"
           width="0.20738395"
           style="fill:#000000;fill-opacity:1;stroke-width:0" />
        <rect
           id="rect9356"
           style="fill:#000000;fill-opacity:1;stroke-width:0"
           width="0.20737202"
           height="13.001829"
           x="43.826805"
           y="1020.8613" />
        <rect
           id="rect9358"
           style="fill:#000000;fill-opacity:1;stroke-width:0"
           width="0.20737307"
           height="11.395781"
           x="44.255913"
           y="1021.6642" />
        <rect
           id="rect9360"
           y="1019.9028"
           x="44.685028"
           height="14.918724"
           width="0.20737086"
           style="fill:#000000;fill-opacity:1;stroke-width:0" />
        <rect
           id="rect9362"
           style="fill:#000000;fill-opacity:1;stroke-width:0"
           width="0.20737219"
           height="12.742788"
           x="45.114136"
           y="1020.9908" />
        <rect
           id="rect9364"
           y="1022.1565"
           x="45.543243"
           height="10.411429"
           width="0.20737374"
           style="fill:#000000;fill-opacity:1;stroke-width:0" />
        <rect
           id="rect9366"
           style="fill:#000000;fill-opacity:1;stroke-width:0"
           width="0.20737572"
           height="7.7692204"
           x="45.972355"
           y="1023.4775" />
        <rect
           id="rect9368"
           y="1025.0835"
           x="46.401466"
           height="4.5571265"
           width="0.20737867"
           style="fill:#000000;fill-opacity:1;stroke-width:0" />
        <rect
           id="rect9370"
           style="fill:#000000;fill-opacity:1;stroke-width:0"
           width="0.20738158"
           height="2.2257698"
           x="46.83057"
           y="1026.2493" />
        <rect
           id="rect9372"
           y="1026.1715"
           x="47.688797"
           height="2.3811934"
           width="0.20738135"
           style="fill:#000000;fill-opacity:1;stroke-width:0" />
        <rect
           id="rect9374"
           style="fill:#000000;fill-opacity:1;stroke-width:0"
           width="0.20738043"
           height="3.0546963"
           x="47.259686"
           y="1025.8348" />
        <rect
           id="rect9376"
           style="fill:#000000;fill-opacity:1;stroke-width:0"
           width="0.20738016"
           height="3.2619281"
           x="48.54702"
           y="1025.7312" />
        <rect
           id="rect9378"
           y="1026.6638"
           x="48.976128"
           height="1.3968436"
           width="0.20738296"
           style="fill:#000000;fill-opacity:1;stroke-width:0" />
        <rect
           id="rect9380"
           style="fill:#000000;fill-opacity:1;stroke-width:0"
           width="0.20738289"
           height="1.4486513"
           x="48.117905"
           y="1026.6378" />
      </g>
    </g>
  </g>
</svg>
