<?xml version="1.0" encoding="UTF-8" standalone="no"?>
<!-- Created with Inkscape (http://www.inkscape.org/) -->

<svg
   xmlns:dc="http://purl.org/dc/elements/1.1/"
   xmlns:cc="http://creativecommons.org/ns#"
   xmlns:rdf="http://www.w3.org/1999/02/22-rdf-syntax-ns#"
   xmlns:svg="http://www.w3.org/2000/svg"
   xmlns="http://www.w3.org/2000/svg"
   xmlns:sodipodi="http://sodipodi.sourceforge.net/DTD/sodipodi-0.dtd"
   xmlns:inkscape="http://www.inkscape.org/namespaces/inkscape"
   version="1.1"
   id="svg2"
   xml:space="preserve"
   width="358.28091"
   height="296.68039"
   viewBox="0 0 358.28091 296.68039"
   sodipodi:docname="perpetuate.svg"
   inkscape:version="0.92pre2 r"><metadata
     id="metadata8"><rdf:RDF><cc:Work
         rdf:about=""><dc:format>image/svg+xml</dc:format><dc:type
           rdf:resource="http://purl.org/dc/dcmitype/StillImage" /><dc:title></dc:title></cc:Work></rdf:RDF></metadata><defs
     id="defs6" /><sodipodi:namedview
     pagecolor="#ffffff"
     bordercolor="#666666"
     borderopacity="1"
     objecttolerance="10"
     gridtolerance="10"
     guidetolerance="10"
     inkscape:pageopacity="0"
     inkscape:pageshadow="2"
     inkscape:window-width="1366"
     inkscape:window-height="708"
     id="namedview4"
     showgrid="false"
     inkscape:zoom="0.83779743"
     inkscape:cx="197.63107"
     inkscape:cy="184.90547"
     inkscape:window-x="0"
     inkscape:window-y="23"
     inkscape:window-maximized="1"
     inkscape:current-layer="g10"
     showborder="false" /><g
     id="g10"
     inkscape:groupmode="layer"
     inkscape:label="Perpetuate"
     transform="matrix(1.3333333,0,0,-1.3333333,0,296.68038)"><g
       id="g9491"
       inkscape:export-xdpi="96"
       inkscape:export-ydpi="96"><rect
         ry="26.463703"
         rx="31.867369"
         transform="matrix(0.66213926,0.74938081,0.74938081,-0.66213926,0,0)"
         y="-1.5815594"
         x="18.869551"
         height="55.665596"
         width="294.67636"
         id="rect9076"
         style="fill:#e6e6e6;fill-opacity:1;stroke:none;stroke-width:1.08488381;stroke-linecap:round;stroke-linejoin:round;stroke-miterlimit:4;stroke-dasharray:none;stroke-dashoffset:0;stroke-opacity:1" /><g
         id="g9233"><g
           transform="matrix(3.3369674,0,0,-1.7515531,-374.76939,344.00574)"
           id="g18"><path
             inkscape:connector-curvature="0"
             id="path20"
             style="fill:#000000;fill-opacity:1;fill-rule:nonzero;stroke:#000000;stroke-width:1.60000002;stroke-linecap:butt;stroke-linejoin:miter;stroke-miterlimit:4;stroke-dasharray:none;stroke-opacity:1"
             d="m 188.461,30.098 h 22.394 c 0,0 0,0 0,0.004 v 9.589 c 0,0.004 0,0.004 0,0.004 h -22.394 c 0,0 -0.004,0 -0.004,-0.004 v -9.589 c 0,-0.004 0.004,-0.004 0.004,-0.004 z" /></g><text
           id="text24"
           style="font-variant:normal;font-weight:bold;font-size:14.89349747px;font-family:'Tlwg Typist';-inkscape-font-specification:TlwgTypist-Bold;writing-mode:lr-tb;fill:#ffffff;fill-opacity:1;fill-rule:nonzero;stroke:none;stroke-width:1.55140591"
           transform="scale(1,-1)"
           x="256.5141"
           y="-278.82144"><tspan
             id="tspan22"
             sodipodi:role="line"
             x="256.5141"
             y="-278.82144"
             style="stroke-width:1.55140591">Business</tspan></text>
</g><g
         id="g26"
         transform="matrix(1.5514059,0,0,-1.5514059,-20.77091,336.0609)"><path
           sodipodi:nodetypes="cc"
           d="M 173.85457,34.098 H 60.457"
           style="fill:none;stroke:#000000;stroke-width:0.80000001;stroke-linecap:round;stroke-linejoin:round;stroke-miterlimit:4;stroke-dasharray:none;stroke-opacity:1"
           id="path28"
           inkscape:connector-curvature="0" /></g><g
         id="g30"
         transform="matrix(1.5514059,0,0,-1.5514059,-20.77091,336.0609)"><path
           d="m 110.469,34.098 v 84.398"
           style="fill:none;stroke:#000000;stroke-width:0.80000001;stroke-linecap:round;stroke-linejoin:round;stroke-miterlimit:4;stroke-dasharray:none;stroke-opacity:1"
           id="path32"
           inkscape:connector-curvature="0" /></g><path
         d="m 153.61022,158.72236 -2.98646,-8.13868 -2.99421,8.13868 c 1.77015,-1.30318 4.18104,-1.29698 5.98067,0 z"
         style="fill:#000000;fill-opacity:1;fill-rule:evenodd;stroke:none;stroke-width:1.55140591"
         id="path34"
         inkscape:connector-curvature="0" /><g
         id="g36"
         transform="matrix(1.5514059,0,0,-1.5514059,-20.77091,336.0609)"><path
           d="M 86.469,34.098 V 146.496"
           style="fill:none;stroke:#000000;stroke-width:0.80000001;stroke-linecap:round;stroke-linejoin:round;stroke-miterlimit:4;stroke-dasharray:none;stroke-opacity:1"
           id="path38"
           inkscape:connector-curvature="0" /></g><path
         d="m 116.37647,115.28299 -2.98645,-8.13867 -2.99422,8.13867 c 1.77016,-1.30318 4.18104,-1.29697 5.98067,0 z"
         style="fill:#000000;fill-opacity:1;fill-rule:evenodd;stroke:none;stroke-width:1.55140591"
         id="path40"
         inkscape:connector-curvature="0" /><g
         id="g42"
         transform="matrix(1.5514059,0,0,-1.5514059,-20.77091,336.0609)"><path
           d="M 60.066,34.098 V 174.496"
           style="fill:none;stroke:#000000;stroke-width:0.80000001;stroke-linecap:round;stroke-linejoin:round;stroke-miterlimit:4;stroke-dasharray:none;stroke-opacity:1"
           id="path44"
           inkscape:connector-curvature="0" /></g><path
         d="m 75.422461,71.843629 -2.994213,-8.138675 -2.988008,8.138675 c 1.763949,-1.303181 4.182591,-1.296975 5.982221,0 z"
         style="fill:#000000;fill-opacity:1;fill-rule:evenodd;stroke:none;stroke-width:1.55140591"
         id="path46"
         inkscape:connector-curvature="0" /><g
         id="g9326"><g
           transform="matrix(1.5514059,0,0,-1.5514059,-20.77091,336.0609)"
           id="g48"><path
             inkscape:connector-curvature="0"
             id="path50"
             style="fill:none;stroke:#000000;stroke-width:0.80000001;stroke-linecap:round;stroke-linejoin:round;stroke-miterlimit:4;stroke-dasharray:none;stroke-opacity:1"
             d="m 140.066,96.895 h 61.192" /></g><g
           transform="matrix(1.5514059,0,0,-1.5514059,-20.77091,336.0609)"
           id="g52"><path
             inkscape:connector-curvature="0"
             id="path54"
             style="fill:#000000;fill-opacity:1;fill-rule:evenodd;stroke:#000000;stroke-width:0.40000001;stroke-linecap:butt;stroke-linejoin:miter;stroke-miterlimit:4;stroke-dasharray:none;stroke-opacity:1"
             d="m 202.824,96.895 c 0,0.882 -0.715,1.601 -1.597,1.601 -0.883,0 -1.602,-0.719 -1.602,-1.601 0,-0.883 0.719,-1.598 1.602,-1.598 0.882,0 1.597,0.715 1.597,1.598 z" /></g></g><g
         id="g9332"><g
           transform="matrix(1.5514059,0,0,-1.5514059,-20.77091,336.0609)"
           id="g56"><path
             inkscape:connector-curvature="0"
             id="path58"
             style="fill:none;stroke:#000000;stroke-width:0.80000001;stroke-linecap:round;stroke-linejoin:round;stroke-miterlimit:4;stroke-dasharray:none;stroke-opacity:1"
             d="m 116.066,124.895 h 85.192" /></g><g
           transform="matrix(1.5514059,0,0,-1.5514059,-20.77091,336.0609)"
           id="g60"><path
             inkscape:connector-curvature="0"
             id="path62"
             style="fill:#000000;fill-opacity:1;fill-rule:evenodd;stroke:#000000;stroke-width:0.40000001;stroke-linecap:butt;stroke-linejoin:miter;stroke-miterlimit:4;stroke-dasharray:none;stroke-opacity:1"
             d="m 202.824,124.895 c 0,0.882 -0.715,1.601 -1.597,1.601 -0.883,0 -1.602,-0.719 -1.602,-1.601 0,-0.883 0.719,-1.598 1.602,-1.598 0.882,0 1.597,0.715 1.597,1.598 z" /></g></g><g
         id="g9338"><g
           transform="matrix(1.5514059,0,0,-1.5514059,-20.77091,336.0609)"
           id="g64"><path
             inkscape:connector-curvature="0"
             id="path66"
             style="fill:none;stroke:#000000;stroke-width:0.80000001;stroke-linecap:round;stroke-linejoin:round;stroke-miterlimit:4;stroke-dasharray:none;stroke-opacity:1"
             d="M 92.066,152.895 H 201.258" /></g><g
           transform="matrix(1.5514059,0,0,-1.5514059,-20.77091,336.0609)"
           id="g68"><path
             inkscape:connector-curvature="0"
             id="path70"
             style="fill:#000000;fill-opacity:1;fill-rule:evenodd;stroke:#000000;stroke-width:0.40000001;stroke-linecap:butt;stroke-linejoin:miter;stroke-miterlimit:4;stroke-dasharray:none;stroke-opacity:1"
             d="m 202.824,152.895 c 0,0.882 -0.715,1.601 -1.597,1.601 -0.883,0 -1.602,-0.719 -1.602,-1.601 0,-0.883 0.719,-1.598 1.602,-1.598 0.882,0 1.597,0.715 1.597,1.598 z" /></g></g><g
         id="g9344"><g
           transform="matrix(1.5514059,0,0,-1.5514059,-20.77091,336.0609)"
           id="g72"><path
             inkscape:connector-curvature="0"
             id="path74"
             style="fill:none;stroke:#000000;stroke-width:0.80000001;stroke-linecap:round;stroke-linejoin:round;stroke-miterlimit:4;stroke-dasharray:none;stroke-opacity:1"
             d="m 65.668,180.895 h 135.59" /></g><g
           transform="matrix(1.5514059,0,0,-1.5514059,-20.77091,336.0609)"
           id="g76"><path
             inkscape:connector-curvature="0"
             id="path78"
             style="fill:#000000;fill-opacity:1;fill-rule:evenodd;stroke:#000000;stroke-width:0.40000001;stroke-linecap:butt;stroke-linejoin:miter;stroke-miterlimit:4;stroke-dasharray:none;stroke-opacity:1"
             d="m 202.824,180.895 c 0,0.882 -0.715,1.601 -1.597,1.601 -0.883,0 -1.602,-0.719 -1.602,-1.601 0,-0.883 0.719,-1.598 1.602,-1.598 0.882,0 1.597,0.715 1.597,1.598 z" /></g></g><g
         id="g9320"><g
           transform="matrix(1.5514059,0,0,-1.5514059,-20.77091,336.0609)"
           id="g80"><path
             inkscape:connector-curvature="0"
             id="path82"
             style="fill:none;stroke:#000000;stroke-width:0.80000001;stroke-linecap:round;stroke-linejoin:round;stroke-miterlimit:4;stroke-dasharray:none;stroke-opacity:1"
             d="M 201.258,42.098 V 180.895" /></g><path
           inkscape:connector-curvature="0"
           id="path84"
           style="fill:#000000;fill-opacity:1;fill-rule:evenodd;stroke:none;stroke-width:1.55140591"
           d="m 288.45531,264.25985 2.99422,8.13247 2.99421,-8.13247 c -1.77015,1.29697 -4.1888,1.29077 -5.98843,0 z" /></g><text
         y="-212.41873"
         x="77.640259"
         transform="scale(1,-1)"
         style="font-variant:normal;font-weight:bold;font-size:14.89349747px;font-family:'Tlwg Typist';-inkscape-font-specification:TlwgTypist-Bold;writing-mode:lr-tb;fill:#000000;fill-opacity:1;fill-rule:nonzero;stroke:none;stroke-width:1.55140591"
         id="text88"><tspan
           style="stroke-width:1.55140591"
           x="77.640259 86.576363 95.512459"
           y="-212.41873"
           sodipodi:role="line"
           id="tspan86">...</tspan></text>
<g
         id="g9247"><g
           transform="matrix(1.5514059,0,0,-1.5514059,-20.77091,336.0609)"
           id="g90"><path
             inkscape:connector-curvature="0"
             id="path92"
             style="fill:#000000;fill-opacity:1;fill-rule:nonzero;stroke:#000000;stroke-width:1.60000002;stroke-linecap:butt;stroke-linejoin:miter;stroke-miterlimit:4;stroke-dasharray:none;stroke-opacity:1"
             d="m 38.473,17.379 h 13.589 c 0.004,0 0.004,0.004 0.004,0.004 v 7.992 c 0,0.004 0,0.004 -0.004,0.004 H 38.473 c -0.004,0 -0.004,0 -0.004,-0.004 v -7.992 c 0,0 0,-0.004 0.004,-0.004 z" /></g><text
           id="text96"
           style="font-variant:normal;font-weight:bold;font-size:14.89349747px;font-family:'Tlwg Typist';-inkscape-font-specification:TlwgTypist-Bold;writing-mode:lr-tb;fill:#ffffff;fill-opacity:1;fill-rule:nonzero;stroke:none;stroke-width:1.55140591"
           transform="scale(1,-1)"
           x="39.750355"
           y="-298.55011"><tspan
             id="tspan94"
             sodipodi:role="line"
             y="-298.55011"
             x="39.750355 48.686451 57.622551"
             style="stroke-width:1.55140591">IA </tspan></text>
<text
           id="text100"
           style="font-style:oblique;font-variant:normal;font-weight:bold;font-size:12.41124725px;font-family:'Tlwg Typist';-inkscape-font-specification:TlwgTypist-BoldOblique;writing-mode:lr-tb;fill:#000000;fill-opacity:1;fill-rule:nonzero;stroke:none;stroke-width:1.55140591"
           transform="scale(1,-1)"
           x="66.239868"
           y="-299.16815"><tspan
             id="tspan98"
             sodipodi:role="line"
             y="-299.16815"
             x="66.239868 73.686623 81.096138 88.542877 95.989632 103.43639"
             style="stroke-width:1.55140591">market</tspan></text>
<text
           id="text104"
           style="font-style:oblique;font-variant:normal;font-weight:bold;font-size:12.41124725px;font-family:'Tlwg Typist';-inkscape-font-specification:TlwgTypist-BoldOblique;writing-mode:lr-tb;fill:#000000;fill-opacity:1;fill-rule:nonzero;stroke:none;stroke-width:1.55140591"
           transform="matrix(0,1,1,0,0,0)"
           x="249.62012"
           y="57.525311"><tspan
             id="tspan102"
             sodipodi:role="line"
             y="57.525311"
             x="249.62012 256.9924 264.40192 271.84866 279.29541"
             style="stroke-width:1.55140591">sales</tspan></text>
<g
           transform="matrix(1.5514059,0,0,-1.5514059,-20.77091,336.0609)"
           id="g106"><path
             inkscape:connector-curvature="0"
             id="path108"
             style="fill:none;stroke:#000000;stroke-width:0.80000001;stroke-linecap:round;stroke-linejoin:round;stroke-miterlimit:4;stroke-dasharray:none;stroke-opacity:1"
             d="M 52.469,59.895 V 25.379" /></g><g
           transform="matrix(1.5514059,0,0,-1.5514059,-20.77091,336.0609)"
           id="g110"><path
             inkscape:connector-curvature="0"
             id="path112"
             style="fill:none;stroke:#000000;stroke-width:0.80000001;stroke-linecap:round;stroke-linejoin:round;stroke-miterlimit:4;stroke-dasharray:none;stroke-opacity:1"
             d="M 51.953,25.781 H 86.469" /></g></g><g
         id="g9315"><g
           transform="matrix(1.5514059,0,0,-1.5514059,-20.77091,336.0609)"
           id="g114"><path
             inkscape:connector-curvature="0"
             id="path116"
             style="fill:#000000;fill-opacity:1;fill-rule:nonzero;stroke:#000000;stroke-width:1.60000002;stroke-linecap:butt;stroke-linejoin:miter;stroke-miterlimit:4;stroke-dasharray:none;stroke-opacity:1"
             d="m 130.473,92.895 h 7.992 c 0,0 0.004,0.003 0.004,0.003 v 7.993 c 0,0.004 -0.004,0.004 -0.004,0.004 h -7.992 c -0.004,0 -0.004,0 -0.004,-0.004 v -7.993 c 0,0 0,-0.003 0.004,-0.003 z" /></g><text
           id="text120"
           style="font-variant:normal;font-weight:bold;font-size:14.89349747px;font-family:'Tlwg Typist';-inkscape-font-specification:TlwgTypist-Bold;writing-mode:lr-tb;fill:#ffffff;fill-opacity:1;fill-rule:nonzero;stroke:none;stroke-width:1.55140591"
           transform="scale(1,-1)"
           x="183.18921"
           y="-181.39565"><tspan
             id="tspan118"
             y="-181.39565"
             x="183.18921"
             style="stroke-width:1.55140591">U</tspan></text>
<text
           id="text124"
           style="font-variant:normal;font-weight:bold;font-size:11.17012215px;font-family:'Tlwg Typist';-inkscape-font-specification:TlwgTypist-Bold;writing-mode:lr-tb;fill:#000000;fill-opacity:1;fill-rule:nonzero;stroke:none;stroke-width:1.55140591"
           transform="scale(1,-1)"
           x="195.66466"
           y="-174.56694"><tspan
             id="tspan122"
             y="-174.56694"
             x="195.66466"
             style="stroke-width:1.55140591">1</tspan></text>
<g
           transform="matrix(1.5514059,0,0,-1.5514059,-20.77091,336.0609)"
           id="g126"><path
             inkscape:connector-curvature="0"
             id="path128"
             style="fill:none;stroke:#000000;stroke-width:0.80000001;stroke-linecap:round;stroke-linejoin:round;stroke-miterlimit:4;stroke-dasharray:0.8, 1.6;stroke-dashoffset:0;stroke-opacity:1"
             d="m 132.867,103.297 -16,15.199" /></g><path
           inkscape:connector-curvature="0"
           id="path130"
           style="fill:#000000;fill-opacity:1;fill-rule:evenodd;stroke:none;stroke-width:1.55140591"
           d="m 167.31223,154.5227 -7.95716,-3.43636 3.83663,7.77565 c 0.27305,-2.17663 1.94546,-3.92816 4.12053,-4.33929 z" /><g
           transform="matrix(1.5514059,0,0,-1.5514059,-20.77091,336.0609)"
           id="g132"><path
             inkscape:connector-curvature="0"
             id="path134"
             style="fill:none;stroke:#000000;stroke-width:0.80000001;stroke-linecap:round;stroke-linejoin:round;stroke-miterlimit:4;stroke-dasharray:0.8, 1.6;stroke-dashoffset:0;stroke-opacity:1"
             d="m 134.469,103.297 -4,17.598" /></g><path
           inkscape:connector-curvature="0"
           id="path136"
           style="fill:#000000;fill-opacity:1;fill-rule:evenodd;stroke:none;stroke-width:1.55140591"
           d="m 186.00823,154.17053 -4.72093,-7.27143 -1.11546,8.59323 c 1.43039,-1.65535 3.79474,-2.18283 5.83639,-1.3218 z" /><g
           transform="matrix(1.5514059,0,0,-1.5514059,-20.77091,336.0609)"
           id="g138"><path
             inkscape:connector-curvature="0"
             id="path140"
             style="fill:none;stroke:#000000;stroke-width:0.80000001;stroke-linecap:round;stroke-linejoin:round;stroke-miterlimit:4;stroke-dasharray:0.8, 1.6;stroke-dashoffset:0;stroke-opacity:1"
             d="m 136.066,103.297 5.602,16.797" /></g><path
           inkscape:connector-curvature="0"
           id="path142"
           style="fill:#000000;fill-opacity:1;fill-rule:evenodd;stroke:none;stroke-width:1.55140591"
           d="m 199.80798,156.85602 -0.26064,-8.66615 -5.41285,6.76878 c 2.08509,-0.67331 4.37652,0.0962 5.67349,1.89737 z" /></g><g
         id="g9298"><g
           transform="matrix(1.5514059,0,0,-1.5514059,-20.77091,336.0609)"
           id="g144"><path
             inkscape:connector-curvature="0"
             id="path146"
             style="fill:#000000;fill-opacity:1;fill-rule:nonzero;stroke:#000000;stroke-width:1.60000002;stroke-linecap:butt;stroke-linejoin:miter;stroke-miterlimit:4;stroke-dasharray:none;stroke-opacity:1"
             d="m 106.473,120.895 h 7.992 c 0,0 0.004,0.003 0.004,0.003 v 7.993 c 0,0.004 -0.004,0.004 -0.004,0.004 h -7.992 c -0.004,0 -0.004,0 -0.004,-0.004 v -7.993 c 0,0 0,-0.003 0.004,-0.003 z" /></g><text
           id="text150"
           style="font-variant:normal;font-weight:bold;font-size:14.89349747px;font-family:'Tlwg Typist';-inkscape-font-specification:TlwgTypist-Bold;writing-mode:lr-tb;fill:#ffffff;fill-opacity:1;fill-rule:nonzero;stroke:none;stroke-width:1.55140591"
           transform="scale(1,-1)"
           x="145.95546"
           y="-137.95628"><tspan
             id="tspan148"
             y="-137.95628"
             x="145.95546"
             style="stroke-width:1.55140591">U</tspan></text>
<text
           id="text154"
           style="font-variant:normal;font-weight:bold;font-size:11.17012215px;font-family:'Tlwg Typist';-inkscape-font-specification:TlwgTypist-Bold;writing-mode:lr-tb;fill:#000000;fill-opacity:1;fill-rule:nonzero;stroke:none;stroke-width:1.55140591"
           transform="scale(1,-1)"
           x="158.43091"
           y="-129.88644"><tspan
             id="tspan152"
             y="-129.88644"
             x="158.43091"
             style="stroke-width:1.55140591">2</tspan></text>
<g
           transform="matrix(1.5514059,0,0,-1.5514059,-20.77091,336.0609)"
           id="g156"><path
             inkscape:connector-curvature="0"
             id="path158"
             style="fill:none;stroke:#000000;stroke-width:0.80000001;stroke-linecap:round;stroke-linejoin:round;stroke-miterlimit:4;stroke-dasharray:0.8, 1.6;stroke-dashoffset:0;stroke-opacity:1"
             d="m 108.867,131.297 -16,15.199" /></g><path
           inkscape:connector-curvature="0"
           id="path160"
           style="fill:#000000;fill-opacity:1;fill-rule:evenodd;stroke:none;stroke-width:1.55140591"
           d="m 130.07849,111.08334 -7.95716,-3.43637 3.83663,7.77565 c 0.27304,-2.17662 1.94546,-3.92816 4.12053,-4.33928 z" /><g
           transform="matrix(1.5514059,0,0,-1.5514059,-20.77091,336.0609)"
           id="g162"><path
             inkscape:connector-curvature="0"
             id="path164"
             style="fill:none;stroke:#000000;stroke-width:0.80000001;stroke-linecap:round;stroke-linejoin:round;stroke-miterlimit:4;stroke-dasharray:0.8, 1.6;stroke-dashoffset:0;stroke-opacity:1"
             d="m 110.469,131.297 -4,17.598" /></g><path
           inkscape:connector-curvature="0"
           id="path166"
           style="fill:#000000;fill-opacity:1;fill-rule:evenodd;stroke:none;stroke-width:1.55140591"
           d="m 148.77448,110.73117 -4.72092,-7.27144 -1.11547,8.59324 c 1.4304,-1.65535 3.79474,-2.18283 5.83639,-1.3218 z" /><g
           transform="matrix(1.5514059,0,0,-1.5514059,-20.77091,336.0609)"
           id="g168"><path
             inkscape:connector-curvature="0"
             id="path170"
             style="fill:none;stroke:#000000;stroke-width:0.80000001;stroke-linecap:round;stroke-linejoin:round;stroke-miterlimit:4;stroke-dasharray:0.8, 1.6;stroke-dashoffset:0;stroke-opacity:1"
             d="m 112.066,131.297 5.602,16.797" /></g><path
           inkscape:connector-curvature="0"
           id="path172"
           style="fill:#000000;fill-opacity:1;fill-rule:evenodd;stroke:none;stroke-width:1.55140591"
           d="m 162.57424,113.41665 -0.26064,-8.66615 -5.41285,6.76878 c 2.08509,-0.67331 4.37651,0.0962 5.67349,1.89737 z" /></g><g
         id="g9281"><g
           transform="matrix(1.5514059,0,0,-1.5514059,-20.77091,336.0609)"
           id="g174"><path
             inkscape:connector-curvature="0"
             id="path176"
             style="fill:#000000;fill-opacity:1;fill-rule:nonzero;stroke:#000000;stroke-width:1.60000002;stroke-linecap:butt;stroke-linejoin:miter;stroke-miterlimit:4;stroke-dasharray:none;stroke-opacity:1"
             d="m 82.473,148.895 h 7.992 c 0,0 0.004,0.003 0.004,0.003 v 7.993 c 0,0.004 -0.004,0.004 -0.004,0.004 h -7.992 c -0.004,0 -0.004,0 -0.004,-0.004 v -7.993 c 0,0 0,-0.003 0.004,-0.003 z" /></g><text
           id="text180"
           style="font-variant:normal;font-weight:bold;font-size:14.89349747px;font-family:'Tlwg Typist';-inkscape-font-specification:TlwgTypist-Bold;writing-mode:lr-tb;fill:#ffffff;fill-opacity:1;fill-rule:nonzero;stroke:none;stroke-width:1.55140591"
           transform="scale(1,-1)"
           x="108.72171"
           y="-94.516922"><tspan
             id="tspan178"
             y="-94.516922"
             x="108.72171"
             style="stroke-width:1.55140591">U</tspan></text>
<text
           id="text184"
           style="font-variant:normal;font-weight:bold;font-size:11.17012215px;font-family:'Tlwg Typist';-inkscape-font-specification:TlwgTypist-Bold;writing-mode:lr-tb;fill:#000000;fill-opacity:1;fill-rule:nonzero;stroke:none;stroke-width:1.55140591"
           transform="scale(1,-1)"
           x="121.19717"
           y="-87.688202"><tspan
             id="tspan182"
             y="-87.688202"
             x="121.19717"
             style="stroke-width:1.55140591">3</tspan></text>
<g
           transform="matrix(1.5514059,0,0,-1.5514059,-20.77091,336.0609)"
           id="g186"><path
             inkscape:connector-curvature="0"
             id="path188"
             style="fill:none;stroke:#000000;stroke-width:0.80000001;stroke-linecap:round;stroke-linejoin:round;stroke-miterlimit:4;stroke-dasharray:0.8, 1.6;stroke-dashoffset:0;stroke-opacity:1"
             d="m 83.27,159.297 -16,15.199" /></g><path
           inkscape:connector-curvature="0"
           id="path190"
           style="fill:#000000;fill-opacity:1;fill-rule:evenodd;stroke:none;stroke-width:1.55140591"
           d="m 90.367154,67.643974 -7.963366,-3.436365 3.841281,7.775647 c 0.273047,-2.176623 1.939257,-3.92816 4.122085,-4.339282 z" /><g
           transform="matrix(1.5514059,0,0,-1.5514059,-20.77091,336.0609)"
           id="g192"><path
             inkscape:connector-curvature="0"
             id="path194"
             style="fill:none;stroke:#000000;stroke-width:0.80000001;stroke-linecap:round;stroke-linejoin:round;stroke-miterlimit:4;stroke-dasharray:0.8, 1.6;stroke-dashoffset:0;stroke-opacity:1"
             d="m 84.867,159.297 -4,17.598" /></g><path
           inkscape:connector-curvature="0"
           id="path196"
           style="fill:#000000;fill-opacity:1;fill-rule:evenodd;stroke:none;stroke-width:1.55140591"
           d="m 109.05694,67.291804 -4.72093,-7.271439 -1.11546,8.593237 c 1.4366,-1.65535 3.79319,-2.182828 5.83639,-1.321798 z" /><g
           transform="matrix(1.5514059,0,0,-1.5514059,-20.77091,336.0609)"
           id="g198"><path
             inkscape:connector-curvature="0"
             id="path200"
             style="fill:none;stroke:#000000;stroke-width:0.80000001;stroke-linecap:round;stroke-linejoin:round;stroke-miterlimit:4;stroke-dasharray:0.8, 1.6;stroke-dashoffset:0;stroke-opacity:1"
             d="m 86.469,159.297 5.597,16.797" /></g><path
           inkscape:connector-curvature="0"
           id="path202"
           style="fill:#000000;fill-opacity:1;fill-rule:evenodd;stroke:none;stroke-width:1.55140591"
           d="m 122.86135,69.977288 -0.26684,-8.666153 -5.4113,6.768784 c 2.08508,-0.673311 4.37496,0.09619 5.67814,1.897369 z" /></g><g
         id="g9264"><g
           transform="matrix(1.5514059,0,0,-1.5514059,-20.77091,336.0609)"
           id="g204"><path
             inkscape:connector-curvature="0"
             id="path206"
             style="fill:#000000;fill-opacity:1;fill-rule:nonzero;stroke:#000000;stroke-width:1.60000002;stroke-linecap:butt;stroke-linejoin:miter;stroke-miterlimit:4;stroke-dasharray:none;stroke-opacity:1"
             d="m 56.07,176.895 h 7.992 c 0.004,0 0.004,0.003 0.004,0.003 v 7.993 c 0,0.004 0,0.004 -0.004,0.004 H 56.07 c 0,0 -0.004,0 -0.004,-0.004 v -7.993 c 0,0 0.004,-0.003 0.004,-0.003 z" /></g><text
           id="text210"
           style="font-variant:normal;font-weight:bold;font-size:14.89349747px;font-family:'Tlwg Typist';-inkscape-font-specification:TlwgTypist-Bold;writing-mode:lr-tb;fill:#ffffff;fill-opacity:1;fill-rule:nonzero;stroke:none;stroke-width:1.55140591"
           transform="scale(1,-1)"
           x="67.764595"
           y="-51.077549"><tspan
             id="tspan208"
             y="-51.077549"
             x="67.764595"
             style="stroke-width:1.55140591">U</tspan></text>
<text
           id="text214"
           style="font-variant:normal;font-weight:bold;font-size:11.17012215px;font-family:'Tlwg Typist';-inkscape-font-specification:TlwgTypist-Bold;writing-mode:lr-tb;fill:#000000;fill-opacity:1;fill-rule:nonzero;stroke:none;stroke-width:1.55140591"
           transform="scale(1,-1)"
           x="81.481216"
           y="-43.007717"><tspan
             id="tspan212"
             y="-43.007717"
             x="81.481216"
             style="stroke-width:1.55140591">n</tspan></text>
<g
           transform="matrix(1.5514059,0,0,-1.5514059,-20.77091,336.0609)"
           id="g216"><path
             inkscape:connector-curvature="0"
             id="path218"
             style="fill:none;stroke:#000000;stroke-width:0.80000001;stroke-linecap:round;stroke-linejoin:round;stroke-miterlimit:4;stroke-dasharray:0.8, 1.6;stroke-dashoffset:0;stroke-opacity:1"
             d="m 58.469,187.297 -16,15.199" /></g><path
           inkscape:connector-curvature="0"
           id="path220"
           style="fill:#000000;fill-opacity:1;fill-rule:evenodd;stroke:none;stroke-width:1.55140591"
           d="m 51.890737,24.204608 -7.963367,-3.436364 3.842833,7.775647 c 0.271496,-2.176623 1.945463,-3.92816 4.120534,-4.339283 z" /><g
           transform="matrix(1.5514059,0,0,-1.5514059,-20.77091,336.0609)"
           id="g222"><path
             inkscape:connector-curvature="0"
             id="path224"
             style="fill:none;stroke:#000000;stroke-width:0.80000001;stroke-linecap:round;stroke-linejoin:round;stroke-miterlimit:4;stroke-dasharray:0.8, 1.6;stroke-dashoffset:0;stroke-opacity:1"
             d="m 60.066,187.297 -4,17.598" /></g><path
           inkscape:connector-curvature="0"
           id="path226"
           style="fill:#000000;fill-opacity:1;fill-rule:evenodd;stroke:none;stroke-width:1.55140591"
           d="M 70.580524,23.852439 65.859595,16.581 l -1.11546,8.593237 c 1.436601,-1.65535 3.793187,-2.182828 5.836389,-1.321798 z" /><g
           transform="matrix(1.5514059,0,0,-1.5514059,-20.77091,336.0609)"
           id="g228"><path
             inkscape:connector-curvature="0"
             id="path230"
             style="fill:none;stroke:#000000;stroke-width:0.80000001;stroke-linecap:round;stroke-linejoin:round;stroke-miterlimit:4;stroke-dasharray:0.8, 1.6;stroke-dashoffset:0;stroke-opacity:1"
             d="m 61.668,187.297 5.602,16.797" /></g><path
           inkscape:connector-curvature="0"
           id="path232"
           style="fill:#000000;fill-opacity:1;fill-rule:evenodd;stroke:none;stroke-width:1.55140591"
           d="m 84.384933,26.537923 -0.266842,-8.666154 -5.411303,6.768784 c 2.091295,-0.67331 4.38117,0.09619 5.678145,1.89737 z" /></g><text
         y="-208.9425"
         x="-87.431259"
         transform="matrix(0,-1,-1,0,0,0)"
         style="font-variant:normal;font-weight:bold;font-size:14.89349747px;font-family:'Tlwg Typist';-inkscape-font-specification:TlwgTypist-Bold;writing-mode:lr-tb;fill:#000000;fill-opacity:1;fill-rule:nonzero;stroke:none;stroke-width:1.55140591"
         id="text236"><tspan
           style="stroke-width:1.55140591"
           x="-87.431259 -78.495163 -69.559059"
           y="-208.9425"
           sodipodi:role="line"
           id="tspan234">...</tspan></text>
<g
         id="g238"
         transform="matrix(1.5514059,0,0,-1.5514059,-20.77091,336.0609)"><path
           d="M 134.059,34.098 V 90.496"
           style="fill:none;stroke:#000000;stroke-width:0.80000001;stroke-linecap:round;stroke-linejoin:round;stroke-miterlimit:4;stroke-dasharray:none;stroke-opacity:1"
           id="path240"
           inkscape:connector-curvature="0" /></g><path
         d="m 190.20788,202.16172 -2.98801,-8.13867 -2.99266,8.13867 c 1.7624,-1.30318 4.18104,-1.29697 5.98067,0 z"
         style="fill:#000000;fill-opacity:1;fill-rule:evenodd;stroke:none;stroke-width:1.55140591"
         id="path242"
         inkscape:connector-curvature="0" /><g
         id="g9227"><g
           transform="matrix(1.5514059,0,0,-1.5514059,-20.77091,336.0609)"
           id="g244"><path
             inkscape:connector-curvature="0"
             id="path246"
             style="fill:#000000;fill-opacity:1;fill-rule:nonzero;stroke:#000000;stroke-width:1.60000002;stroke-linecap:butt;stroke-linejoin:miter;stroke-miterlimit:4;stroke-dasharray:none;stroke-opacity:1"
             d="m 211.848,192.895 h 18.39 c 0.004,0 0.004,0.003 0.004,0.003 v 7.993 c 0,0.004 0,0.004 -0.004,0.004 h -18.39 c -0.004,0 -0.004,0 -0.004,-0.004 v -7.993 c 0,0 0,-0.003 0.004,-0.003 z" /></g><text
           id="text250"
           style="font-variant:normal;font-weight:bold;font-size:14.89349747px;font-family:'Tlwg Typist';-inkscape-font-specification:TlwgTypist-Bold;writing-mode:lr-tb;fill:#ffffff;fill-opacity:1;fill-rule:nonzero;stroke:none;stroke-width:1.55140591"
           transform="scale(1,-1)"
           x="308.63959"
           y="-26.255054"><tspan
             id="tspan248"
             sodipodi:role="line"
             y="-26.255054"
             x="308.63959 317.57568 326.51178 335.44788"
             style="stroke-width:1.55140591">Ser </tspan></text>
<text
           id="text254"
           style="font-style:oblique;font-variant:normal;font-weight:bold;font-size:12.41124725px;font-family:'Tlwg Typist';-inkscape-font-specification:TlwgTypist-BoldOblique;writing-mode:lr-tb;fill:#000000;fill-opacity:1;fill-rule:nonzero;stroke:none;stroke-width:1.55140591"
           transform="scale(1,-1)"
           x="213.65959"
           y="-26.873098"><tspan
             id="tspan252"
             sodipodi:role="line"
             y="-26.873098"
             x="213.65959 221.03188 228.47864 235.92538 243.28526 250.73199 258.17874 265.62549 273.07224 280.51901 287.96573 295.37524"
             style="stroke-width:1.55140591">subscription</tspan></text>
<text
           id="text258"
           style="font-style:oblique;font-variant:normal;font-weight:bold;font-size:12.41124725px;font-family:'Tlwg Typist';-inkscape-font-specification:TlwgTypist-BoldOblique;writing-mode:lr-tb;fill:#000000;fill-opacity:1;fill-rule:nonzero;stroke:none;stroke-width:1.55140591"
           transform="matrix(0,1,1,0,0,0)"
           x="45.523903"
           y="317.81226"><tspan
             id="tspan256"
             sodipodi:role="line"
             y="317.81226"
             x="45.523903 52.970657 60.380165 67.82692"
             style="stroke-width:1.55140591">data</tspan></text>
<g
           transform="matrix(1.5514059,0,0,-1.5514059,-20.77091,336.0609)"
           id="g260"><path
             inkscape:connector-curvature="0"
             id="path262"
             style="fill:none;stroke:#000000;stroke-width:0.80000001;stroke-linecap:round;stroke-linejoin:round;stroke-miterlimit:4;stroke-dasharray:none;stroke-opacity:1"
             d="m 211.844,192.895 v -28" /></g></g><g
         id="g264"
         transform="matrix(1.5514059,0,0,-1.5514059,-20.77091,336.0609)"><path
           d="m 149.441,192.895 h 62.403"
           style="fill:none;stroke:#000000;stroke-width:0.80000001;stroke-linecap:round;stroke-linejoin:round;stroke-miterlimit:4;stroke-dasharray:none;stroke-opacity:1"
           id="path266"
           inkscape:connector-curvature="0" /></g><text
         id="text9205"
         style="font-style:oblique;font-variant:normal;font-weight:bold;font-size:12.41124725px;font-family:'Tlwg Typist';-inkscape-font-specification:TlwgTypist-BoldOblique;writing-mode:lr-tb;fill:#000000;fill-opacity:1;fill-rule:nonzero;stroke:none;stroke-width:1.55140591"
         transform="scale(1,-1)"
         x="-38.324493"
         y="-178.32523"><tspan
           y="-178.32523"
           x="-38.324493"
           id="tspan9203"
           sodipodi:role="line"
           style="text-align:center;text-anchor:middle;stroke-width:1.55140591">information diffusion</tspan><tspan
           id="tspan9207"
           y="-162.31181"
           x="-38.324493"
           sodipodi:role="line"
           style="text-align:center;text-anchor:middle;stroke-width:1.55140591">&amp;</tspan><tspan
           id="tspan9209"
           y="-146.2984"
           x="-38.324493"
           sodipodi:role="line"
           style="text-align:center;text-anchor:middle;stroke-width:1.55140591">consumer driven marketing</tspan></text>
<g
         transform="matrix(0.09742731,1.5483437,1.5483437,-0.09742731,-340.30957,68.226969)"
         id="g9213"><path
           sodipodi:nodetypes="czc"
           inkscape:connector-curvature="0"
           id="path9211"
           style="fill:none;stroke:#000000;stroke-width:0.80000001;stroke-linecap:round;stroke-linejoin:round;stroke-miterlimit:4;stroke-dasharray:0.8, 1.6;stroke-dashoffset:0;stroke-opacity:1"
           d="m 58.469,187.297 c 0,0 -21.014609,-0.48722 -35.047668,15.24259 -14.0330591,15.72981 -12.190213,39.53412 -12.190213,39.53412" /></g><path
         inkscape:connector-curvature="0"
         id="path9215"
         style="fill:#000000;fill-opacity:1;fill-rule:evenodd;stroke:none;stroke-width:1.55140591"
         d="m 33.976428,65.220626 7.579997,-4.215146 -8.505818,-1.696794 c 1.559379,1.542639 1.926542,3.937474 0.925821,5.91194 z" /></g></g></svg>