<?xml version="1.0" encoding="UTF-8" standalone="no"?>
<!-- Created with Inkscape (http://www.inkscape.org/) -->

<svg
   xmlns:dc="http://purl.org/dc/elements/1.1/"
   xmlns:cc="http://creativecommons.org/ns#"
   xmlns:rdf="http://www.w3.org/1999/02/22-rdf-syntax-ns#"
   xmlns:svg="http://www.w3.org/2000/svg"
   xmlns="http://www.w3.org/2000/svg"
   xmlns:xlink="http://www.w3.org/1999/xlink"
   xmlns:sodipodi="http://sodipodi.sourceforge.net/DTD/sodipodi-0.dtd"
   xmlns:inkscape="http://www.inkscape.org/namespaces/inkscape"
   width="116.39906mm"
   height="27.274237mm"
   viewBox="0 0 412.4376 96.640995"
   id="svg7922"
   version="1.1"
   inkscape:version="0.91 r13725"
   sodipodi:docname="story.svg">
  <defs
     id="defs7924">
    <clipPath
       clipPathUnits="userSpaceOnUse"
       id="clipPath6545-9">
      <rect
         style="opacity:1;fill:#cccccc;fill-opacity:1;stroke:none;stroke-width:0.2;stroke-linecap:round;stroke-linejoin:round;stroke-miterlimit:4;stroke-dasharray:none;stroke-dashoffset:0;stroke-opacity:1"
         id="rect6547-1"
         width="71.568138"
         height="71.568138"
         x="-196.50887"
         y="94.819542"
         rx="0"
         ry="0"
         transform="matrix(0.70710678,0.70710678,-0.70710678,0.70710678,0,0)" />
    </clipPath>
    <filter
       inkscape:collect="always"
       style="color-interpolation-filters:sRGB"
       id="filter9932"
       x="-0.060000721"
       width="1.1200014"
       y="-0.059999276"
       height="1.1199986">
      <feGaussianBlur
         inkscape:collect="always"
         stdDeviation="1.8000218"
         id="feGaussianBlur9934" />
    </filter>
    <pattern
       patternTransform="matrix(10,0,0,10,-1275.1943,-1313.7954)"
       id="pattern5589"
       xlink:href="#Checkerboard"
       inkscape:collect="always" />
    <pattern
       inkscape:isstock="true"
       inkscape:collect="always"
       patternUnits="userSpaceOnUse"
       width="2"
       height="2"
       patternTransform="translate(0,0) scale(10,10)"
       id="Checkerboard"
       inkscape:stockid="Checkerboard">
      <rect
         style="fill:black;stroke:none"
         x="0"
         y="0"
         width="1"
         height="1"
         id="rect4940" />
      <rect
         style="fill:black;stroke:none"
         x="1"
         y="1"
         width="1"
         height="1"
         id="rect4942" />
    </pattern>
    <pattern
       id="pattern5586"
       patternTransform="translate(61.70704,503.49469)"
       height="65.735043"
       width="526.58585"
       patternUnits="userSpaceOnUse">
      <rect
         style="opacity:1;fill:url(#pattern5589);fill-opacity:1;stroke:#ececec;stroke-width:4.28598452;stroke-linecap:round;stroke-linejoin:round;stroke-miterlimit:4;stroke-dasharray:none;stroke-dashoffset:0;stroke-opacity:1"
         id="rect3336"
         width="366.2804"
         height="167.23994"
         x="159.36771"
         y="2.1429923"
         transform="matrix(1,0,-0.92365014,0.38323677,0,0)" />
    </pattern>
    <filter
       inkscape:collect="always"
       style="color-interpolation-filters:sRGB"
       id="filter17150"
       x="-0.055625774"
       width="1.1112515"
       y="-0.065120891"
       height="1.1302418">
      <feGaussianBlur
         inkscape:collect="always"
         stdDeviation="1.66875"
         id="feGaussianBlur17152" />
    </filter>
    <filter
       inkscape:collect="always"
       style="color-interpolation-filters:sRGB"
       id="filter6049"
       x="-0.089420006"
       width="1.17884"
       y="-0.045146413"
       height="1.0902928">
      <feGaussianBlur
         inkscape:collect="always"
         stdDeviation="1.3838425"
         id="feGaussianBlur6051" />
    </filter>
    <filter
       inkscape:collect="always"
       style="color-interpolation-filters:sRGB"
       id="filter11269"
       x="-0.058338441"
       width="1.1166769"
       y="-0.06175898"
       height="1.123518">
      <feGaussianBlur
         inkscape:collect="always"
         stdDeviation="1.8797375"
         id="feGaussianBlur11271" />
    </filter>
    <filter
       inkscape:collect="always"
       style="color-interpolation-filters:sRGB"
       id="filter13988"
       x="-0.079682611"
       width="1.1593652"
       y="-0.048114989"
       height="1.09623">
      <feGaussianBlur
         inkscape:collect="always"
         stdDeviation="1.9990375"
         id="feGaussianBlur13990" />
    </filter>
  </defs>
  <sodipodi:namedview
     id="base"
     pagecolor="#ffffff"
     bordercolor="#666666"
     borderopacity="1.0"
     inkscape:pageopacity="0.0"
     inkscape:pageshadow="2"
     inkscape:zoom="1.979899"
     inkscape:cx="238.69519"
     inkscape:cy="32.972279"
     inkscape:document-units="px"
     inkscape:current-layer="layer1"
     showgrid="false"
     inkscape:window-width="1366"
     inkscape:window-height="713"
     inkscape:window-x="0"
     inkscape:window-y="27"
     inkscape:window-maximized="1"
     fit-margin-top="0"
     fit-margin-left="0"
     fit-margin-right="0"
     fit-margin-bottom="0"
     showborder="false"
     showguides="true"
     inkscape:guide-bbox="true" />
  <metadata
     id="metadata7927">
    <rdf:RDF>
      <cc:Work
         rdf:about="">
        <dc:format>image/svg+xml</dc:format>
        <dc:type
           rdf:resource="http://purl.org/dc/dcmitype/StillImage" />
        <dc:title></dc:title>
      </cc:Work>
    </rdf:RDF>
  </metadata>
  <g
     inkscape:label="Layer 1"
     inkscape:groupmode="layer"
     id="layer1"
     transform="translate(-1996.1381,-365.86111)">
    <g
       id="g14175"
       transform="matrix(0.96984363,0,0,0.96984363,60.196277,13.947384)"
       inkscape:export-xdpi="90"
       inkscape:export-ydpi="90">
      <g
         transform="matrix(-0.70710678,0.70710678,-0.70710678,-0.70710678,3738.9099,-546.00168)"
         id="g6065">
        <path
           inkscape:connector-curvature="0"
           id="path18302"
           d="m 1853.1584,496.47033 -14.7397,-14.73962"
           style="fill:none;fill-rule:evenodd;stroke:#000000;stroke-width:2.90880847;stroke-linecap:round;stroke-linejoin:round;stroke-miterlimit:4;stroke-dasharray:none;stroke-opacity:1"
           sodipodi:nodetypes="cc" />
        <path
           inkscape:connector-curvature="0"
           id="path18306"
           d="m 1838.3052,481.48947 11.5322,3e-5"
           style="fill:none;fill-rule:evenodd;stroke:#000000;stroke-width:2.42400718;stroke-linecap:round;stroke-linejoin:round;stroke-miterlimit:4;stroke-dasharray:none;stroke-opacity:1"
           sodipodi:nodetypes="cc" />
        <path
           sodipodi:nodetypes="cc"
           style="fill:none;fill-rule:evenodd;stroke:#000000;stroke-width:2.42400718;stroke-linecap:round;stroke-linejoin:round;stroke-miterlimit:4;stroke-dasharray:none;stroke-opacity:1"
           d="m 1838.1775,481.61721 0,11.53218"
           id="path18308"
           inkscape:connector-curvature="0" />
      </g>
      <g
         id="g14164">
        <text
           sodipodi:linespacing="125%"
           id="text18212"
           y="459.50845"
           x="2029.9056"
           style="font-style:normal;font-weight:normal;font-size:30.71928787px;line-height:125%;font-family:sans-serif;text-align:center;letter-spacing:0px;word-spacing:0px;text-anchor:middle;fill:#000000;fill-opacity:1;stroke:none;stroke-width:1px;stroke-linecap:butt;stroke-linejoin:miter;stroke-opacity:1"
           xml:space="preserve"><tspan
             style="font-style:normal;font-variant:normal;font-weight:bold;font-stretch:normal;font-size:12.12003613px;font-family:Purisa;-inkscape-font-specification:'Purisa Bold';text-align:center;text-anchor:middle"
             y="459.50845"
             x="2029.9056"
             id="tspan18214"
             sodipodi:role="line">bootstrap</tspan></text>
        <g
           id="g14082"
           transform="translate(-0.19461023,0.83290417)">
          <g
             style="fill:#999999"
             id="g20864"
             transform="matrix(0.99854512,0,0,0.99854512,1360.9351,-220.96797)">
            <path
               transform="matrix(0.79205859,0,0,0.79205859,465.70756,363.6895)"
               d="m 292.46178,323.43445 c -1.52019,-8.15999 -7.92697,-14.39975 -15.93294,-15.92093 -6.08474,-1.19815 -12.2515,-1.75922 -18.25523,-1.75922 -6.16574,0 -12.33149,0.56107 -18.41523,1.75922 -8.16699,1.52118 -14.33174,7.84095 -15.85392,15.84092 -2.32129,12.15948 -2.32129,24.56098 0,36.64045 1.52118,8.241 7.84595,14.40074 15.85392,15.92193 6.08374,1.27815 12.24949,1.83922 18.41523,1.83922 6.16475,0 12.24849,-0.56107 18.33424,-1.76021 8.16799,-1.6002 14.33374,-7.83995 15.85393,-15.91993 2.40229,-12.16148 2.40229,-24.56198 0,-36.64145 z"
               id="path20866"
               inkscape:connector-curvature="0"
               style="fill:#999999;filter:url(#filter9932)" />
            <path
               style="fill:#999999"
               inkscape:connector-curvature="0"
               id="path20868"
               d="m 697.35443,619.86853 c -1.20408,-6.46319 -6.27863,-11.40544 -12.61983,-12.6103 -4.81947,-0.94901 -9.7039,-1.39341 -14.45921,-1.39341 -4.88363,0 -9.76726,0.4444 -14.58594,1.39341 -6.46873,1.20486 -11.35158,6.21049 -12.55723,12.54693 -1.8386,9.63102 -1.8386,19.45374 0,29.02138 1.20486,6.52736 6.21445,11.40623 12.55723,12.61111 4.81868,1.01237 9.70231,1.45677 14.58594,1.45677 4.88284,0 9.70152,-0.4444 14.52179,-1.39419 6.46953,-1.26746 11.35317,-6.2097 12.55725,-12.60952 1.90275,-9.63261 1.90275,-19.45453 0,-29.02218 z" />
          </g>
          <g
             transform="matrix(0.60334574,0,0,0.60334574,769.8651,158.20013)"
             id="g6053">
            <path
               id="path11828"
               d="m 2088.2651,385.00898 0.01,0 c -0.033,0.0362 -0.062,0.075 -0.089,0.115 -3.5924,3.62625 -6.1702,7.697 -7.9268,11.977 -0.011,0.0238 -0.021,0.0475 -0.031,0.0712 -0.015,0.04 -0.04,0.0775 -0.056,0.11875 -0.032,0.0813 -0.053,0.165 -0.061,0.25012 -0.1309,0.36375 -0.262,0.77625 -0.3932,1.22575 -0.011,0.0238 -0.02,0.05 -0.028,0.0738 -0.015,0.0462 -0.025,0.095 -0.041,0.14313 -0.057,0.19525 -0.093,0.30512 -0.1456,0.493 -2.0154,6.49512 -2.4497,13.23887 -1.803,19.674 -0.7889,0.3235 -1.5348,0.72025 -2.1987,1.2385 -2.4772,1.9335 -4.0783,5.13012 -4.7474,8.92025 -0.8921,5.05362 -0.1901,11.25949 2.306,17.48025 0.3556,0.8835 1.6533,0.71737 1.7748,-0.22725 0.6054,-4.791 1.5752,-8.01688 2.7785,-9.75025 0.6016,-0.8665 1.2298,-1.358 1.9204,-1.60363 0.595,-0.21225 1.2781,-0.23937 2.0915,-0.0738 0.1114,0.2795 0.2047,0.58063 0.3193,0.85538 0.1436,0.34562 0.4813,0.57037 0.8554,0.56962 l 2.8091,0 c 0.6183,3.05725 1.4543,6.405 2.4414,10.10763 0,0 -0.01,0 0.01,0.02 0,0.0188 0.01,0.0288 0.013,0.0437 l 0.01,0.025 0.01,0.0188 c 0.01,0.0238 0.019,0.0475 0.031,0.0713 l 0.01,0.02 c 0.011,0.0213 0.021,0.04 0.033,0.0588 0.017,0.0275 0.034,0.0537 0.053,0.0787 0.01,0.0188 0.02,0.0275 0.031,0.04 0.01,0.0188 0.016,0.02 0.025,0.0313 l 0.015,0.0188 c 0.022,0.0213 0.045,0.0425 0.069,0.0625 0.018,0.0188 0.037,0.0313 0.056,0.0462 l 0.015,0.0188 c 0.025,0.0175 0.052,0.0325 0.079,0.0475 0.026,0.0187 0.052,0.0275 0.079,0.04 0.023,0.0175 0.046,0.02 0.069,0.0275 0.027,0.0188 0.054,0.0188 0.082,0.025 l 0,0 0.021,0 c 0.024,0 0.047,0.0188 0.072,0.0188 l 0.021,0 c 0.026,0 0.051,0 0.077,0 0.021,6.2e-4 0.043,6.2e-4 0.064,0 l 0.028,0 0.026,0 c 0.023,0 0.046,-0.0188 0.069,-0.0188 l 0.024,0 c 0.026,0 0.051,-0.0188 0.077,-0.0188 0.03,0 0.06,-0.0187 0.089,-0.0275 0.015,0 0.029,-0.0188 0.044,-0.0188 0.015,0 0.028,-0.0188 0.041,-0.0188 l 0.013,-0.0188 c 0.022,-0.0187 0.043,-0.025 0.064,-0.0387 0.02,-0.0187 0.04,-0.0225 0.059,-0.0325 0.011,-0.0188 0.021,-0.0188 0.031,-0.0288 0.018,-0.0188 0.036,-0.035 0.053,-0.0537 l 0.011,-0.0188 c 0.044,-0.0437 0.083,-0.0913 0.1171,-0.143 0.016,-0.025 0.032,-0.0512 0.046,-0.0775 0.015,-0.0275 0.029,-0.0575 0.041,-0.0863 0.015,-0.035 0.026,-0.0687 0.036,-0.10625 0,-0.0275 0.01,-0.0425 0.015,-0.0663 0.979,-3.68638 1.8101,-7.02413 2.426,-10.07188 l 2.7121,0 c 0.3741,7.5e-4 0.7118,-0.224 0.8555,-0.56937 0.1124,-0.2695 0.2048,-0.5665 0.3141,-0.8405 1.7399,-0.36263 2.9189,0.0663 4.0553,1.67012 1.2298,1.73475 2.2272,4.95513 2.8321,9.74263 0.1214,0.94462 1.4191,1.11087 1.7749,0.22737 2.4961,-6.22112 3.1981,-12.42687 2.306,-17.48025 -0.8512,-4.82287 -3.2322,-8.655 -6.9845,-10.17675 0.6736,-6.36625 0.3036,-13.03362 -1.6241,-19.444 -0.068,-0.25 -0.1185,-0.41125 -0.1916,-0.68175 -0.1528,-0.56437 -0.3085,-1.08025 -0.4724,-1.54 -0.011,-0.055 -0.027,-0.10875 -0.048,-0.1615 0,-8.7e-4 0,-8.7e-4 -0.011,-0.0188 -0.015,-0.035 -0.025,-0.09 -0.038,-0.125 -0.028,-0.07 -0.065,-0.13575 -0.1099,-0.19687 -1.7854,-4.28913 -4.4567,-8.37375 -8.0703,-11.9875 -0.3618,-0.36213 -0.9491,-0.36163 -1.3101,0 l 0,0 -0.015,0.0188 z m 0.6818,2.09162 c 2.7666,2.927 4.8793,6.13613 6.4227,9.49713 l -12.7662,0 c 1.5299,-3.36913 3.5872,-6.57413 6.3435,-9.49975 z m -7.2168,11.466 14.5512,0.0188 c 0.053,0.16875 0.1106,0.36413 0.1659,0.54938 l 0,0 c 0.01,0.0537 0.021,0.105 0.038,0.15587 0.1087,0.33225 0.1939,0.669 0.2936,1.00338 0.093,0.34412 0.1942,0.73087 0.2784,0.98837 0.013,0.0387 0.028,0.0762 0.046,0.11375 3.0668,11.4395 1.0962,23.78225 -2.7631,33.32137 l -1.711,0 c 0.3273,-1.86562 0.5871,-3.649 0.6716,-5.25849 0.2451,-4.6675 -0.713,-8.41188 -3.7055,-10.78425 -0.053,-0.0425 -0.1102,-0.0788 -0.1711,-0.10875 l -0.044,-0.0188 c -0.1936,-0.0937 -0.414,-0.1175 -0.6231,-0.0662 l -0.079,0.0225 c -0.1292,0.0313 -0.2503,0.0888 -0.355,0.1705 l -0.013,-0.0175 c -2.9925,2.37212 -3.9537,6.12175 -3.7105,10.78962 0.084,1.613 0.3436,3.39938 0.6716,5.26813 l -1.808,0 c -3.8507,-9.52375 -5.7219,-21.74338 -2.6508,-33.16788 0.019,-0.0387 0.035,-0.0787 0.049,-0.11875 0.2381,-0.7285 0.5991,-2.01225 0.8708,-2.86262 z m 3.9863,7.29125 c -0.8289,0.829 -1.3458,1.97388 -1.3458,3.23038 10e-5,2.51312 2.0607,4.56887 4.5738,4.5685 2.513,0 4.5687,-2.05575 4.5687,-4.5685 -1e-4,-2.51313 -2.0558,-4.57375 -4.5686,-4.57388 -1.2566,0 -2.399,0.51425 -3.2279,1.34325 z m 1.2999,1.3 c 0.4916,-0.49175 1.1712,-0.7945 1.928,-0.7945 1.5137,0 2.7199,1.21113 2.7197,2.725 0,1.5135 -1.2061,2.71975 -2.7197,2.71975 -1.5136,0 -2.7247,-1.20625 -2.7249,-2.71975 0,-0.75675 0.3052,-1.43925 0.7968,-1.9305 z m -11.5506,15.87125 c 0.7272,-0.701 1.5847,-1.18262 2.4542,-1.637 0.077,0.5055 0.1777,1.01925 0.2681,1.52975 0.01,0.0387 0.015,0.0775 0.023,0.11375 0.2227,1.24412 0.4782,2.49937 0.7866,3.76925 0.2509,1.0605 0.5389,2.08862 0.8401,3.11312 0.055,0.18338 0.1044,0.36138 0.1609,0.54363 0.31,1.01887 0.6395,2.0105 0.9934,2.9855 -0.7055,-0.035 -1.4398,-0.20575 -2.0813,0.0213 -1.1057,0.39437 -2.0538,1.19063 -2.8193,2.29338 -1.0414,1.49987 -1.7404,3.818 -2.3214,6.54 -1.2786,-4.58513 -1.8394,-9.04538 -1.2002,-12.6665 0.4087,-2.31525 1.166,-4.28838 2.2268,-5.81738 0.2048,-0.29362 0.4284,-0.55625 0.6691,-0.79162 z m 13.4812,-2.16312 c 1.8777,1.91125 2.7013,4.5575 2.495,8.48612 -0.185,3.52388 -1.2041,8.09375 -2.4976,13.21813 -1.2967,-5.12463 -2.319,-9.69425 -2.5026,-13.21813 -0.2047,-3.93 0.6246,-6.57462 2.5052,-8.48612 z m 11.0143,0.51325 c 2.6723,1.39012 4.6356,4.15062 5.3603,8.25625 0.6401,3.6265 0.076,8.09699 -1.2079,12.68949 -0.593,-2.73574 -1.3095,-5.06512 -2.375,-6.56812 -1.2305,-1.73588 -3.0214,-2.33387 -4.9364,-2.2855 0.367,-1.00638 0.7099,-2.03075 1.0317,-3.08513 0.015,-0.0512 0.029,-0.10125 0.046,-0.154 0.2818,-0.9315 0.5729,-1.85325 0.8147,-2.8165 0.5373,-2.04287 0.9551,-4.05687 1.2666,-6.03712 z m -14.1171,20.47087 0,10.202 1.2385,0 0,-5.40888 c -0.4418,-1.6605 -0.8609,-3.26175 -1.2411,-4.79575 z m 6.1954,0.0913 c -0.3802,1.535 -0.7979,3.137 -1.2386,4.79838 l 0,6.55275 1.2386,0 0,-11.34888 z m -3.7157,6.26413 0,7.56425 1.2386,0 0,-7.56425 c -0.017,0.0175 -0.046,0.02 -0.069,0.0275 l -0.028,0 c -0.034,0 -0.066,0.0188 -0.1,0.0225 l 0.021,0 c -0.039,0.0188 -0.08,0.0188 -0.12,0.0225 -0.048,0 -0.097,0.0188 -0.1457,0.0188 l -0.031,0 c -0.019,5e-4 -0.039,5e-4 -0.058,0 l -0.01,0 0,0 -0.021,0 -0.054,0 -0.026,0 -0.064,0 c -0.04,0 -0.08,0 -0.12,0 l -0.021,-0.0188 c -0.052,0 -0.1016,-0.02 -0.1533,-0.0313 -0.07,0 -0.1383,-0.0238 -0.2044,-0.0475 l -0.036,0 z m -2.4771,5.087 0,1.23875 1.2412,0 0,-1.23875 -1.236,0 z m 2.4746,3.71575 0,1.23862 1.236,0 0,-1.23862 -1.2411,0 z m 2.4771,-2.477 0,1.2385 1.236,0 0,-1.2385 -1.2411,0 z"
               style="color:#000000;font-style:normal;font-variant:normal;font-weight:normal;font-stretch:normal;font-size:medium;line-height:normal;font-family:sans-serif;text-indent:0;text-align:start;text-decoration:none;text-decoration-line:none;text-decoration-style:solid;text-decoration-color:#000000;letter-spacing:normal;word-spacing:normal;text-transform:none;direction:ltr;block-progression:tb;writing-mode:lr-tb;baseline-shift:baseline;text-anchor:start;white-space:normal;clip-rule:nonzero;display:inline;overflow:visible;visibility:visible;opacity:1;isolation:auto;mix-blend-mode:normal;color-interpolation:sRGB;color-interpolation-filters:linearRGB;solid-color:#000000;solid-opacity:1;fill:#333333;fill-opacity:1;fill-rule:evenodd;stroke:#333333;stroke-width:0.36681387;stroke-linecap:round;stroke-linejoin:round;stroke-miterlimit:4;stroke-dasharray:none;stroke-dashoffset:0;stroke-opacity:1;color-rendering:auto;image-rendering:auto;shape-rendering:auto;text-rendering:auto;enable-background:accumulate"
               inkscape:connector-curvature="0"
               sodipodi:nodetypes="cccccccccccccsccccccccccccccccccccccccccccccccccccccccccccccccccccccccccccccccccccccccccccccccccccccccscccccccscccccccscsccccscsccccccccccccccccccccccccscscccccccccccccccccccccccscccscccccccccccccccccccccccccccacccc" />
            <path
               sodipodi:nodetypes="cccccccccccccsccccccccccccccccccccccccccccccccccccccccccccccccccccccccccccccccccccccccccccccccccccccccscccccccscccccccscsccccscsccccccccccccccccccccccccscscccccccccccccccccccccccscccscccccccccccccccccccccccccccacccc"
               inkscape:connector-curvature="0"
               style="color:#000000;font-style:normal;font-variant:normal;font-weight:normal;font-stretch:normal;font-size:medium;line-height:normal;font-family:sans-serif;text-indent:0;text-align:start;text-decoration:none;text-decoration-line:none;text-decoration-style:solid;text-decoration-color:#000000;letter-spacing:normal;word-spacing:normal;text-transform:none;direction:ltr;block-progression:tb;writing-mode:lr-tb;baseline-shift:baseline;text-anchor:start;white-space:normal;clip-rule:nonzero;display:inline;overflow:visible;visibility:visible;opacity:1;isolation:auto;mix-blend-mode:normal;color-interpolation:sRGB;color-interpolation-filters:linearRGB;solid-color:#000000;solid-opacity:1;fill:#333333;fill-opacity:1;fill-rule:evenodd;stroke:#333333;stroke-width:0.36681387;stroke-linecap:round;stroke-linejoin:round;stroke-miterlimit:4;stroke-dasharray:none;stroke-dashoffset:0;stroke-opacity:1;filter:url(#filter6049);color-rendering:auto;image-rendering:auto;shape-rendering:auto;text-rendering:auto;enable-background:accumulate"
               d="m 2088.2651,385.00898 0.01,0 c -0.033,0.0362 -0.062,0.075 -0.089,0.115 -3.5924,3.62625 -6.1702,7.697 -7.9268,11.977 -0.011,0.0238 -0.021,0.0475 -0.031,0.0712 -0.015,0.04 -0.04,0.0775 -0.056,0.11875 -0.032,0.0813 -0.053,0.165 -0.061,0.25012 -0.1309,0.36375 -0.262,0.77625 -0.3932,1.22575 -0.011,0.0238 -0.02,0.05 -0.028,0.0738 -0.015,0.0462 -0.025,0.095 -0.041,0.14313 -0.057,0.19525 -0.093,0.30512 -0.1456,0.493 -2.0154,6.49512 -2.4497,13.23887 -1.803,19.674 -0.7889,0.3235 -1.5348,0.72025 -2.1987,1.2385 -2.4772,1.9335 -4.0783,5.13012 -4.7474,8.92025 -0.8921,5.05362 -0.1901,11.25949 2.306,17.48025 0.3556,0.8835 1.6533,0.71737 1.7748,-0.22725 0.6054,-4.791 1.5752,-8.01688 2.7785,-9.75025 0.6016,-0.8665 1.2298,-1.358 1.9204,-1.60363 0.595,-0.21225 1.2781,-0.23937 2.0915,-0.0738 0.1114,0.2795 0.2047,0.58063 0.3193,0.85538 0.1436,0.34562 0.4813,0.57037 0.8554,0.56962 l 2.8091,0 c 0.6183,3.05725 1.4543,6.405 2.4414,10.10763 0,0 -0.01,0 0.01,0.02 0,0.0188 0.01,0.0288 0.013,0.0437 l 0.01,0.025 0.01,0.0188 c 0.01,0.0238 0.019,0.0475 0.031,0.0713 l 0.01,0.02 c 0.011,0.0213 0.021,0.04 0.033,0.0588 0.017,0.0275 0.034,0.0537 0.053,0.0787 0.01,0.0188 0.02,0.0275 0.031,0.04 0.01,0.0188 0.016,0.02 0.025,0.0313 l 0.015,0.0188 c 0.022,0.0213 0.045,0.0425 0.069,0.0625 0.018,0.0188 0.037,0.0313 0.056,0.0462 l 0.015,0.0188 c 0.025,0.0175 0.052,0.0325 0.079,0.0475 0.026,0.0187 0.052,0.0275 0.079,0.04 0.023,0.0175 0.046,0.02 0.069,0.0275 0.027,0.0188 0.054,0.0188 0.082,0.025 l 0,0 0.021,0 c 0.024,0 0.047,0.0188 0.072,0.0188 l 0.021,0 c 0.026,0 0.051,0 0.077,0 0.021,6.2e-4 0.043,6.2e-4 0.064,0 l 0.028,0 0.026,0 c 0.023,0 0.046,-0.0188 0.069,-0.0188 l 0.024,0 c 0.026,0 0.051,-0.0188 0.077,-0.0188 0.03,0 0.06,-0.0187 0.089,-0.0275 0.015,0 0.029,-0.0188 0.044,-0.0188 0.015,0 0.028,-0.0188 0.041,-0.0188 l 0.013,-0.0188 c 0.022,-0.0187 0.043,-0.025 0.064,-0.0387 0.02,-0.0187 0.04,-0.0225 0.059,-0.0325 0.011,-0.0188 0.021,-0.0188 0.031,-0.0288 0.018,-0.0188 0.036,-0.035 0.053,-0.0537 l 0.011,-0.0188 c 0.044,-0.0437 0.083,-0.0913 0.1171,-0.143 0.016,-0.025 0.032,-0.0512 0.046,-0.0775 0.015,-0.0275 0.029,-0.0575 0.041,-0.0863 0.015,-0.035 0.026,-0.0687 0.036,-0.10625 0,-0.0275 0.01,-0.0425 0.015,-0.0663 0.979,-3.68638 1.8101,-7.02413 2.426,-10.07188 l 2.7121,0 c 0.3741,7.5e-4 0.7118,-0.224 0.8555,-0.56937 0.1124,-0.2695 0.2048,-0.5665 0.3141,-0.8405 1.7399,-0.36263 2.9189,0.0663 4.0553,1.67012 1.2298,1.73475 2.2272,4.95513 2.8321,9.74263 0.1214,0.94462 1.4191,1.11087 1.7749,0.22737 2.4961,-6.22112 3.1981,-12.42687 2.306,-17.48025 -0.8512,-4.82287 -3.2322,-8.655 -6.9845,-10.17675 0.6736,-6.36625 0.3036,-13.03362 -1.6241,-19.444 -0.068,-0.25 -0.1185,-0.41125 -0.1916,-0.68175 -0.1528,-0.56437 -0.3085,-1.08025 -0.4724,-1.54 -0.011,-0.055 -0.027,-0.10875 -0.048,-0.1615 0,-8.7e-4 0,-8.7e-4 -0.011,-0.0188 -0.015,-0.035 -0.025,-0.09 -0.038,-0.125 -0.028,-0.07 -0.065,-0.13575 -0.1099,-0.19687 -1.7854,-4.28913 -4.4567,-8.37375 -8.0703,-11.9875 -0.3618,-0.36213 -0.9491,-0.36163 -1.3101,0 l 0,0 -0.015,0.0188 z m 0.6818,2.09162 c 2.7666,2.927 4.8793,6.13613 6.4227,9.49713 l -12.7662,0 c 1.5299,-3.36913 3.5872,-6.57413 6.3435,-9.49975 z m -7.2168,11.466 14.5512,0.0188 c 0.053,0.16875 0.1106,0.36413 0.1659,0.54938 l 0,0 c 0.01,0.0537 0.021,0.105 0.038,0.15587 0.1087,0.33225 0.1939,0.669 0.2936,1.00338 0.093,0.34412 0.1942,0.73087 0.2784,0.98837 0.013,0.0387 0.028,0.0762 0.046,0.11375 3.0668,11.4395 1.0962,23.78225 -2.7631,33.32137 l -1.711,0 c 0.3273,-1.86562 0.5871,-3.649 0.6716,-5.25849 0.2451,-4.6675 -0.713,-8.41188 -3.7055,-10.78425 -0.053,-0.0425 -0.1102,-0.0788 -0.1711,-0.10875 l -0.044,-0.0188 c -0.1936,-0.0937 -0.414,-0.1175 -0.6231,-0.0662 l -0.079,0.0225 c -0.1292,0.0313 -0.2503,0.0888 -0.355,0.1705 l -0.013,-0.0175 c -2.9925,2.37212 -3.9537,6.12175 -3.7105,10.78962 0.084,1.613 0.3436,3.39938 0.6716,5.26813 l -1.808,0 c -3.8507,-9.52375 -5.7219,-21.74338 -2.6508,-33.16788 0.019,-0.0387 0.035,-0.0787 0.049,-0.11875 0.2381,-0.7285 0.5991,-2.01225 0.8708,-2.86262 z m 3.9863,7.29125 c -0.8289,0.829 -1.3458,1.97388 -1.3458,3.23038 10e-5,2.51312 2.0607,4.56887 4.5738,4.5685 2.513,0 4.5687,-2.05575 4.5687,-4.5685 -1e-4,-2.51313 -2.0558,-4.57375 -4.5686,-4.57388 -1.2566,0 -2.399,0.51425 -3.2279,1.34325 z m 1.2999,1.3 c 0.4916,-0.49175 1.1712,-0.7945 1.928,-0.7945 1.5137,0 2.7199,1.21113 2.7197,2.725 0,1.5135 -1.2061,2.71975 -2.7197,2.71975 -1.5136,0 -2.7247,-1.20625 -2.7249,-2.71975 0,-0.75675 0.3052,-1.43925 0.7968,-1.9305 z m -11.5506,15.87125 c 0.7272,-0.701 1.5847,-1.18262 2.4542,-1.637 0.077,0.5055 0.1777,1.01925 0.2681,1.52975 0.01,0.0387 0.015,0.0775 0.023,0.11375 0.2227,1.24412 0.4782,2.49937 0.7866,3.76925 0.2509,1.0605 0.5389,2.08862 0.8401,3.11312 0.055,0.18338 0.1044,0.36138 0.1609,0.54363 0.31,1.01887 0.6395,2.0105 0.9934,2.9855 -0.7055,-0.035 -1.4398,-0.20575 -2.0813,0.0213 -1.1057,0.39437 -2.0538,1.19063 -2.8193,2.29338 -1.0414,1.49987 -1.7404,3.818 -2.3214,6.54 -1.2786,-4.58513 -1.8394,-9.04538 -1.2002,-12.6665 0.4087,-2.31525 1.166,-4.28838 2.2268,-5.81738 0.2048,-0.29362 0.4284,-0.55625 0.6691,-0.79162 z m 13.4812,-2.16312 c 1.8777,1.91125 2.7013,4.5575 2.495,8.48612 -0.185,3.52388 -1.2041,8.09375 -2.4976,13.21813 -1.2967,-5.12463 -2.319,-9.69425 -2.5026,-13.21813 -0.2047,-3.93 0.6246,-6.57462 2.5052,-8.48612 z m 11.0143,0.51325 c 2.6723,1.39012 4.6356,4.15062 5.3603,8.25625 0.6401,3.6265 0.076,8.09699 -1.2079,12.68949 -0.593,-2.73574 -1.3095,-5.06512 -2.375,-6.56812 -1.2305,-1.73588 -3.0214,-2.33387 -4.9364,-2.2855 0.367,-1.00638 0.7099,-2.03075 1.0317,-3.08513 0.015,-0.0512 0.029,-0.10125 0.046,-0.154 0.2818,-0.9315 0.5729,-1.85325 0.8147,-2.8165 0.5373,-2.04287 0.9551,-4.05687 1.2666,-6.03712 z m -14.1171,20.47087 0,10.202 1.2385,0 0,-5.40888 c -0.4418,-1.6605 -0.8609,-3.26175 -1.2411,-4.79575 z m 6.1954,0.0913 c -0.3802,1.535 -0.7979,3.137 -1.2386,4.79838 l 0,6.55275 1.2386,0 0,-11.34888 z m -3.7157,6.26413 0,7.56425 1.2386,0 0,-7.56425 c -0.017,0.0175 -0.046,0.02 -0.069,0.0275 l -0.028,0 c -0.034,0 -0.066,0.0188 -0.1,0.0225 l 0.021,0 c -0.039,0.0188 -0.08,0.0188 -0.12,0.0225 -0.048,0 -0.097,0.0188 -0.1457,0.0188 l -0.031,0 c -0.019,5e-4 -0.039,5e-4 -0.058,0 l -0.01,0 0,0 -0.021,0 -0.054,0 -0.026,0 -0.064,0 c -0.04,0 -0.08,0 -0.12,0 l -0.021,-0.0188 c -0.052,0 -0.1016,-0.02 -0.1533,-0.0313 -0.07,0 -0.1383,-0.0238 -0.2044,-0.0475 l -0.036,0 z m -2.4771,5.087 0,1.23875 1.2412,0 0,-1.23875 -1.236,0 z m 2.4746,3.71575 0,1.23862 1.236,0 0,-1.23862 -1.2411,0 z m 2.4771,-2.477 0,1.2385 1.236,0 0,-1.2385 -1.2411,0 z"
               id="path5243" />
          </g>
        </g>
      </g>
      <g
         id="g6161"
         transform="matrix(-0.70710678,0.70710678,-0.70710678,-0.70710678,3854.2432,-546.00168)">
        <path
           sodipodi:nodetypes="cc"
           style="fill:none;fill-rule:evenodd;stroke:#000000;stroke-width:2.90880847;stroke-linecap:round;stroke-linejoin:round;stroke-miterlimit:4;stroke-dasharray:none;stroke-opacity:1"
           d="m 1853.1584,496.47033 -14.7397,-14.73962"
           id="path6163"
           inkscape:connector-curvature="0" />
        <path
           sodipodi:nodetypes="cc"
           style="fill:none;fill-rule:evenodd;stroke:#000000;stroke-width:2.42400718;stroke-linecap:round;stroke-linejoin:round;stroke-miterlimit:4;stroke-dasharray:none;stroke-opacity:1"
           d="m 1838.3052,481.48947 11.5322,3e-5"
           id="path6165"
           inkscape:connector-curvature="0" />
        <path
           inkscape:connector-curvature="0"
           id="path6167"
           d="m 1838.1775,481.61721 0,11.53218"
           style="fill:none;fill-rule:evenodd;stroke:#000000;stroke-width:2.42400718;stroke-linecap:round;stroke-linejoin:round;stroke-miterlimit:4;stroke-dasharray:none;stroke-opacity:1"
           sodipodi:nodetypes="cc" />
      </g>
      <g
         transform="matrix(-0.70710678,0.70710678,-0.70710678,-0.70710678,3969.5766,-546.00168)"
         id="g11315">
        <path
           inkscape:connector-curvature="0"
           id="path11317"
           d="m 1853.1584,496.47033 -14.7397,-14.73962"
           style="fill:none;fill-rule:evenodd;stroke:#000000;stroke-width:2.90880847;stroke-linecap:round;stroke-linejoin:round;stroke-miterlimit:4;stroke-dasharray:none;stroke-opacity:1"
           sodipodi:nodetypes="cc" />
        <path
           inkscape:connector-curvature="0"
           id="path11319"
           d="m 1838.3052,481.48947 11.5322,3e-5"
           style="fill:none;fill-rule:evenodd;stroke:#000000;stroke-width:2.42400718;stroke-linecap:round;stroke-linejoin:round;stroke-miterlimit:4;stroke-dasharray:none;stroke-opacity:1"
           sodipodi:nodetypes="cc" />
        <path
           sodipodi:nodetypes="cc"
           style="fill:none;fill-rule:evenodd;stroke:#000000;stroke-width:2.42400718;stroke-linecap:round;stroke-linejoin:round;stroke-miterlimit:4;stroke-dasharray:none;stroke-opacity:1"
           d="m 1838.1775,481.61721 0,11.53218"
           id="path11321"
           inkscape:connector-curvature="0" />
      </g>
      <g
         transform="translate(2.6998705e-5,0.83290417)"
         id="g14090">
        <g
           style="fill:#666666"
           id="g11325"
           transform="matrix(0.99854512,0,0,0.99854512,1706.9351,-220.96797)">
          <path
             transform="matrix(0.79205859,0,0,0.79205859,465.70756,363.6895)"
             d="m 292.46178,323.43445 c -1.52019,-8.15999 -7.92697,-14.39975 -15.93294,-15.92093 -6.08474,-1.19815 -12.2515,-1.75922 -18.25523,-1.75922 -6.16574,0 -12.33149,0.56107 -18.41523,1.75922 -8.16699,1.52118 -14.33174,7.84095 -15.85392,15.84092 -2.32129,12.15948 -2.32129,24.56098 0,36.64045 1.52118,8.241 7.84595,14.40074 15.85392,15.92193 6.08374,1.27815 12.24949,1.83922 18.41523,1.83922 6.16475,0 12.24849,-0.56107 18.33424,-1.76021 8.16799,-1.6002 14.33374,-7.83995 15.85393,-15.91993 2.40229,-12.16148 2.40229,-24.56198 0,-36.64145 z"
             id="path11327"
             inkscape:connector-curvature="0"
             style="fill:#666666;filter:url(#filter9932)" />
          <path
             style="fill:#666666"
             inkscape:connector-curvature="0"
             id="path11329"
             d="m 697.35443,619.86853 c -1.20408,-6.46319 -6.27863,-11.40544 -12.61983,-12.6103 -4.81947,-0.94901 -9.7039,-1.39341 -14.45921,-1.39341 -4.88363,0 -9.76726,0.4444 -14.58594,1.39341 -6.46873,1.20486 -11.35158,6.21049 -12.55723,12.54693 -1.8386,9.63102 -1.8386,19.45374 0,29.02138 1.20486,6.52736 6.21445,11.40623 12.55723,12.61111 4.81868,1.01237 9.70231,1.45677 14.58594,1.45677 4.88284,0 9.70152,-0.4444 14.52179,-1.39419 6.46953,-1.26746 11.35317,-6.2097 12.55725,-12.60952 1.90275,-9.63261 1.90275,-19.45453 0,-29.02218 z" />
        </g>
        <g
           id="g13992"
           transform="matrix(0.40535211,0,0,0.40535211,1390.1,234.00068)">
          <path
             style="fill:#000000;filter:url(#filter13988)"
             inkscape:connector-curvature="0"
             d="m 2461.5421,437.10568 c 0,-0.018 0,-0.035 -0.01,-0.052 -0.012,-0.078 -0.028,-0.154 -0.048,-0.23 0,-0.013 -0.01,-0.027 -0.011,-0.04 -0.025,-0.083 -0.057,-0.167 -0.093,-0.25 -0.01,-0.017 -0.016,-0.032 -0.023,-0.048 -0.02,-0.042 -0.038,-0.082 -0.061,-0.122 -0.013,-0.023 -0.027,-0.042 -0.04,-0.066 -0.012,-0.021 -0.025,-0.042 -0.039,-0.062 -0.046,-0.069 -0.09,-0.134 -0.143,-0.196 -0.01,-0.005 -0.01,-0.01 -0.012,-0.014 -0.059,-0.07 -0.122,-0.134 -0.188,-0.195 -0.014,-0.011 -0.026,-0.021 -0.04,-0.033 -0.059,-0.051 -0.12,-0.098 -0.183,-0.142 -0.013,-0.008 -0.025,-0.019 -0.038,-0.027 -0.075,-0.049 -0.153,-0.093 -0.232,-0.132 -0.01,-0.002 -0.01,-0.006 -0.015,-0.009 l -26.779,-12.863 0,-3.093 10.414,0 0,4.235 13.8,0 -6.898,-8.522 6.898,-8.522 -13.8,0 0,-4.235 -10.414,0 0,-2.502 c 1.844,-0.819 3.142,-2.662 3.142,-4.817 0,-2.906 -2.365,-5.268 -5.27,-5.268 -2.918,0 -5.281,2.362 -5.281,5.268 0,2.152 1.294,3.994 3.139,4.817 l 0,22.641 -26.778,12.86 c 0,0.002 -0.01,0.005 -0.013,0.008 -0.082,0.039 -0.161,0.084 -0.237,0.134 -0.012,0.008 -0.022,0.017 -0.034,0.024 -0.064,0.044 -0.127,0.093 -0.187,0.145 -0.013,0.012 -0.025,0.022 -0.037,0.033 -0.066,0.061 -0.129,0.125 -0.188,0.194 -0.01,0.006 -0.01,0.011 -0.014,0.017 -0.05,0.061 -0.097,0.125 -0.141,0.193 -0.014,0.022 -0.027,0.043 -0.041,0.065 -0.013,0.021 -0.028,0.041 -0.04,0.064 -0.021,0.038 -0.04,0.078 -0.058,0.118 -0.01,0.018 -0.018,0.035 -0.026,0.053 -0.036,0.081 -0.066,0.164 -0.091,0.248 0,0.014 -0.01,0.03 -0.012,0.044 -0.021,0.075 -0.037,0.15 -0.049,0.226 0,0.018 -0.01,0.036 -0.01,0.055 -0.012,0.09 -0.019,0.181 -0.019,0.271 0,0.002 0,0.003 0,0.005 l 0,34.596 c 0,0.765 0.415,1.469 1.084,1.84 l 28.004,15.528 c 0,10e-4 0,10e-4 0,0.003 0.073,0.041 0.151,0.078 0.23,0.107 0.013,0.006 0.026,0.011 0.04,0.016 0.064,0.024 0.128,0.045 0.194,0.063 0.021,0.007 0.042,0.012 0.062,0.015 0.061,0.015 0.123,0.026 0.185,0.037 0.021,0.002 0.042,0.006 0.062,0.009 0.082,0.009 0.162,0.016 0.245,0.016 0.083,0 0.165,-0.007 0.245,-0.016 0.021,-0.003 0.042,-0.007 0.062,-0.009 0.063,-0.011 0.125,-0.022 0.185,-0.037 0.021,-0.003 0.042,-0.008 0.062,-0.015 0.065,-0.019 0.131,-0.039 0.194,-0.063 0.012,-0.005 0.026,-0.01 0.039,-0.016 0.08,-0.029 0.156,-0.066 0.23,-0.107 0,-0.002 0,-0.002 0,-0.003 l 28.003,-15.528 c 0.67,-0.371 1.084,-1.075 1.084,-1.84 l 0,-34.596 c 0,-0.001 0,-0.002 0,-0.003 0,-0.092 0,-0.183 -0.018,-0.275 z m -30.088,13.4 -23.42,-12.987 21.284,-10.222 0,8.437 0,0 c 0,0.008 -10e-4,0.013 -10e-4,0.02 0,1.18 0.955,2.136 2.134,2.136 1.179,0 2.134,-0.956 2.134,-2.136 0,-0.006 0,-0.01 0,-0.016 l 0,0 0,-8.443 21.286,10.224 -23.42,12.987 z m -25.898,-9.548 23.793,13.193 0,29.784 -23.793,-13.195 0,-29.782 z m 28.002,42.977 0,-29.784 23.793,-13.193 0,29.782 -23.793,13.195 z"
             id="path13961" />
          <path
             id="path13970"
             d="m 2461.5421,437.10568 c 0,-0.018 0,-0.035 -0.01,-0.052 -0.012,-0.078 -0.028,-0.154 -0.048,-0.23 0,-0.013 -0.01,-0.027 -0.011,-0.04 -0.025,-0.083 -0.057,-0.167 -0.093,-0.25 -0.01,-0.017 -0.016,-0.032 -0.023,-0.048 -0.02,-0.042 -0.038,-0.082 -0.061,-0.122 -0.013,-0.023 -0.027,-0.042 -0.04,-0.066 -0.012,-0.021 -0.025,-0.042 -0.039,-0.062 -0.046,-0.069 -0.09,-0.134 -0.143,-0.196 -0.01,-0.005 -0.01,-0.01 -0.012,-0.014 -0.059,-0.07 -0.122,-0.134 -0.188,-0.195 -0.014,-0.011 -0.026,-0.021 -0.04,-0.033 -0.059,-0.051 -0.12,-0.098 -0.183,-0.142 -0.013,-0.008 -0.025,-0.019 -0.038,-0.027 -0.075,-0.049 -0.153,-0.093 -0.232,-0.132 -0.01,-0.002 -0.01,-0.006 -0.015,-0.009 l -26.779,-12.863 0,-3.093 10.414,0 0,4.235 13.8,0 -6.898,-8.522 6.898,-8.522 -13.8,0 0,-4.235 -10.414,0 0,-2.502 c 1.844,-0.819 3.142,-2.662 3.142,-4.817 0,-2.906 -2.365,-5.268 -5.27,-5.268 -2.918,0 -5.281,2.362 -5.281,5.268 0,2.152 1.294,3.994 3.139,4.817 l 0,22.641 -26.778,12.86 c 0,0.002 -0.01,0.005 -0.013,0.008 -0.082,0.039 -0.161,0.084 -0.237,0.134 -0.012,0.008 -0.022,0.017 -0.034,0.024 -0.064,0.044 -0.127,0.093 -0.187,0.145 -0.013,0.012 -0.025,0.022 -0.037,0.033 -0.066,0.061 -0.129,0.125 -0.188,0.194 -0.01,0.006 -0.01,0.011 -0.014,0.017 -0.05,0.061 -0.097,0.125 -0.141,0.193 -0.014,0.022 -0.027,0.043 -0.041,0.065 -0.013,0.021 -0.028,0.041 -0.04,0.064 -0.021,0.038 -0.04,0.078 -0.058,0.118 -0.01,0.018 -0.018,0.035 -0.026,0.053 -0.036,0.081 -0.066,0.164 -0.091,0.248 0,0.014 -0.01,0.03 -0.012,0.044 -0.021,0.075 -0.037,0.15 -0.049,0.226 0,0.018 -0.01,0.036 -0.01,0.055 -0.012,0.09 -0.019,0.181 -0.019,0.271 0,0.002 0,0.003 0,0.005 l 0,34.596 c 0,0.765 0.415,1.469 1.084,1.84 l 28.004,15.528 c 0,10e-4 0,10e-4 0,0.003 0.073,0.041 0.151,0.078 0.23,0.107 0.013,0.006 0.026,0.011 0.04,0.016 0.064,0.024 0.128,0.045 0.194,0.063 0.021,0.007 0.042,0.012 0.062,0.015 0.061,0.015 0.123,0.026 0.185,0.037 0.021,0.002 0.042,0.006 0.062,0.009 0.082,0.009 0.162,0.016 0.245,0.016 0.083,0 0.165,-0.007 0.245,-0.016 0.021,-0.003 0.042,-0.007 0.062,-0.009 0.063,-0.011 0.125,-0.022 0.185,-0.037 0.021,-0.003 0.042,-0.008 0.062,-0.015 0.065,-0.019 0.131,-0.039 0.194,-0.063 0.012,-0.005 0.026,-0.01 0.039,-0.016 0.08,-0.029 0.156,-0.066 0.23,-0.107 0,-0.002 0,-0.002 0,-0.003 l 28.003,-15.528 c 0.67,-0.371 1.084,-1.075 1.084,-1.84 l 0,-34.596 c 0,-0.001 0,-0.002 0,-0.003 0,-0.092 0,-0.183 -0.018,-0.275 z m -30.088,13.4 -23.42,-12.987 21.284,-10.222 0,8.437 0,0 c 0,0.008 -10e-4,0.013 -10e-4,0.02 0,1.18 0.955,2.136 2.134,2.136 1.179,0 2.134,-0.956 2.134,-2.136 0,-0.006 0,-0.01 0,-0.016 l 0,0 0,-8.443 21.286,10.224 -23.42,12.987 z m -25.898,-9.548 23.793,13.193 0,29.784 -23.793,-13.195 0,-29.782 z m 28.002,42.977 0,-29.784 23.793,-13.193 0,29.782 -23.793,13.195 z"
             inkscape:connector-curvature="0"
             style="fill:#cccccc" />
        </g>
      </g>
      <g
         id="g14141">
        <g
           id="g14056"
           transform="translate(1.3333247,0.83290417)">
          <g
             transform="matrix(0.99854512,0,0,0.99854512,1474.9351,-220.96797)"
             id="g6072"
             style="fill:#666666">
            <path
               style="fill:#666666;filter:url(#filter9932)"
               inkscape:connector-curvature="0"
               id="path6074"
               d="m 292.46178,323.43445 c -1.52019,-8.15999 -7.92697,-14.39975 -15.93294,-15.92093 -6.08474,-1.19815 -12.2515,-1.75922 -18.25523,-1.75922 -6.16574,0 -12.33149,0.56107 -18.41523,1.75922 -8.16699,1.52118 -14.33174,7.84095 -15.85392,15.84092 -2.32129,12.15948 -2.32129,24.56098 0,36.64045 1.52118,8.241 7.84595,14.40074 15.85392,15.92193 6.08374,1.27815 12.24949,1.83922 18.41523,1.83922 6.16475,0 12.24849,-0.56107 18.33424,-1.76021 8.16799,-1.6002 14.33374,-7.83995 15.85393,-15.91993 2.40229,-12.16148 2.40229,-24.56198 0,-36.64145 z"
               transform="matrix(0.79205859,0,0,0.79205859,465.70756,363.6895)" />
            <path
               d="m 697.35443,619.86853 c -1.20408,-6.46319 -6.27863,-11.40544 -12.61983,-12.6103 -4.81947,-0.94901 -9.7039,-1.39341 -14.45921,-1.39341 -4.88363,0 -9.76726,0.4444 -14.58594,1.39341 -6.46873,1.20486 -11.35158,6.21049 -12.55723,12.54693 -1.8386,9.63102 -1.8386,19.45374 0,29.02138 1.20486,6.52736 6.21445,11.40623 12.55723,12.61111 4.81868,1.01237 9.70231,1.45677 14.58594,1.45677 4.88284,0 9.70152,-0.4444 14.52179,-1.39419 6.46953,-1.26746 11.35317,-6.2097 12.55725,-12.60952 1.90275,-9.63261 1.90275,-19.45453 0,-29.02218 z"
               id="path6076"
               inkscape:connector-curvature="0"
               style="fill:#666666" />
          </g>
          <g
             id="g14040">
            <g
               style="fill:#000000;filter:url(#filter17150)"
               transform="matrix(0.63216795,0,0,0.63216795,2111.8606,380.21558)"
               id="g17136">
              <g
                 style="fill:#000000"
                 id="g17138" />
              <g
                 style="fill:#000000"
                 id="g17140">
                <path
                   style="fill:#000000"
                   inkscape:connector-curvature="0"
                   d="m 87.199,56.76 c 0,-6.969 -3.877,-13.046 -9.584,-16.2 -0.678,0.832 -1.472,1.564 -2.354,2.178 5.271,2.477 8.938,7.823 8.938,14.021 0,2.021 -2.904,3.746 -7.311,4.712 -2.158,-6.685 -6.845,-12.244 -12.942,-15.524 -0.717,0.801 -1.506,1.533 -2.36,2.188 8.04,3.882 13.614,12.093 13.614,21.603 0,3.002 -4.077,5.188 -6.918,5.825 l -5.053,-9.967 1.154,11.771 c -3.988,0.942 -8.637,1.434 -13.184,1.434 -4.011,0 -9.098,-0.386 -12.746,-1.122 L 39.67,65.596 34.531,75.994 C 30.372,74.802 27.247,72.177 27.199,69.739 27.012,60.231 32.773,52.018 40.813,48.136 39.959,47.481 39.17,46.749 38.453,45.948 32.356,49.228 27.669,54.787 25.511,61.472 21.103,60.506 18.2,58.781 18.2,56.76 c 0,-6.198 3.667,-11.544 8.938,-14.021 -0.882,-0.615 -1.676,-1.347 -2.354,-2.178 -5.707,3.154 -9.584,9.23 -9.584,16.2 0,3.915 4.101,6.385 9.544,7.609 -0.352,1.737 -0.544,3.53 -0.544,5.369 0,8.333 13.561,12.063 27,12.063 13.439,0 27,-3.729 27,-12.063 0,-1.839 -0.192,-3.633 -0.544,-5.369 5.442,-1.226 9.543,-3.695 9.543,-7.61 z"
                   id="path17142" />
                <path
                   style="fill:#000000"
                   inkscape:connector-curvature="0"
                   d="m 33.7,42.302 c 0.686,0 1.355,-0.077 2,-0.216 -0.447,-0.917 -0.816,-1.876 -1.096,-2.875 -0.298,0.042 -0.595,0.092 -0.904,0.092 -3.584,0 -6.5,-2.917 -6.5,-6.501 0,-3.584 2.916,-6.5 6.5,-6.5 0.759,0 1.477,0.155 2.154,0.396 0.471,-0.918 1.023,-1.784 1.645,-2.597 -1.165,-0.51 -2.448,-0.798 -3.799,-0.798 -5.238,0 -9.5,4.261 -9.5,9.5 0,5.239 4.261,9.499 9.5,9.499 z"
                   id="path17144" />
                <path
                   style="fill:#000000"
                   inkscape:connector-curvature="0"
                   d="m 68.699,26.301 c 3.584,0 6.5,2.915 6.5,6.5 0,3.585 -2.916,6.501 -6.5,6.501 -0.31,0 -0.606,-0.049 -0.904,-0.092 -0.28,0.999 -0.649,1.958 -1.096,2.875 0.646,0.139 1.314,0.216 2,0.216 5.238,0 9.5,-4.263 9.5,-9.501 0,-5.238 -4.262,-9.5 -9.5,-9.5 -1.351,0 -2.635,0.288 -3.799,0.798 0.621,0.813 1.174,1.679 1.645,2.597 0.677,-0.239 1.395,-0.394 2.154,-0.394 z"
                   id="path17146" />
                <path
                   style="fill:#000000"
                   inkscape:connector-curvature="0"
                   d="m 51.199,47.301 c 7.444,0 13.5,-6.056 13.5,-13.5 0,-7.444 -6.056,-13.5 -13.5,-13.5 -7.444,0 -13.5,6.056 -13.5,13.5 0,7.444 6.057,13.5 13.5,13.5 z m 0,-24 c 5.79,0 10.5,4.711 10.5,10.5 0,5.789 -4.71,10.5 -10.5,10.5 -5.79,0 -10.5,-4.711 -10.5,-10.5 0,-5.789 4.711,-10.5 10.5,-10.5 z"
                   id="path17148" />
              </g>
            </g>
            <g
               id="g17106"
               transform="matrix(0.63216795,0,0,0.63216795,2111.8606,380.21558)"
               style="fill:#cccccc">
              <g
                 id="Слой_1"
                 style="fill:#cccccc" />
              <g
                 id="Слой_2"
                 style="fill:#cccccc">
                <path
                   id="path17092"
                   d="m 87.199,56.76 c 0,-6.969 -3.877,-13.046 -9.584,-16.2 -0.678,0.832 -1.472,1.564 -2.354,2.178 5.271,2.477 8.938,7.823 8.938,14.021 0,2.021 -2.904,3.746 -7.311,4.712 -2.158,-6.685 -6.845,-12.244 -12.942,-15.524 -0.717,0.801 -1.506,1.533 -2.36,2.188 8.04,3.882 13.614,12.093 13.614,21.603 0,3.002 -4.077,5.188 -6.918,5.825 l -5.053,-9.967 1.154,11.771 c -3.988,0.942 -8.637,1.434 -13.184,1.434 -4.011,0 -9.098,-0.386 -12.746,-1.122 L 39.67,65.596 34.531,75.994 C 30.372,74.802 27.247,72.177 27.199,69.739 27.012,60.231 32.773,52.018 40.813,48.136 39.959,47.481 39.17,46.749 38.453,45.948 32.356,49.228 27.669,54.787 25.511,61.472 21.103,60.506 18.2,58.781 18.2,56.76 c 0,-6.198 3.667,-11.544 8.938,-14.021 -0.882,-0.615 -1.676,-1.347 -2.354,-2.178 -5.707,3.154 -9.584,9.23 -9.584,16.2 0,3.915 4.101,6.385 9.544,7.609 -0.352,1.737 -0.544,3.53 -0.544,5.369 0,8.333 13.561,12.063 27,12.063 13.439,0 27,-3.729 27,-12.063 0,-1.839 -0.192,-3.633 -0.544,-5.369 5.442,-1.226 9.543,-3.695 9.543,-7.61 z"
                   inkscape:connector-curvature="0"
                   style="fill:#cccccc" />
                <path
                   id="path17094"
                   d="m 33.7,42.302 c 0.686,0 1.355,-0.077 2,-0.216 -0.447,-0.917 -0.816,-1.876 -1.096,-2.875 -0.298,0.042 -0.595,0.092 -0.904,0.092 -3.584,0 -6.5,-2.917 -6.5,-6.501 0,-3.584 2.916,-6.5 6.5,-6.5 0.759,0 1.477,0.155 2.154,0.396 0.471,-0.918 1.023,-1.784 1.645,-2.597 -1.165,-0.51 -2.448,-0.798 -3.799,-0.798 -5.238,0 -9.5,4.261 -9.5,9.5 0,5.239 4.261,9.499 9.5,9.499 z"
                   inkscape:connector-curvature="0"
                   style="fill:#cccccc" />
                <path
                   id="path17096"
                   d="m 68.699,26.301 c 3.584,0 6.5,2.915 6.5,6.5 0,3.585 -2.916,6.501 -6.5,6.501 -0.31,0 -0.606,-0.049 -0.904,-0.092 -0.28,0.999 -0.649,1.958 -1.096,2.875 0.646,0.139 1.314,0.216 2,0.216 5.238,0 9.5,-4.263 9.5,-9.501 0,-5.238 -4.262,-9.5 -9.5,-9.5 -1.351,0 -2.635,0.288 -3.799,0.798 0.621,0.813 1.174,1.679 1.645,2.597 0.677,-0.239 1.395,-0.394 2.154,-0.394 z"
                   inkscape:connector-curvature="0"
                   style="fill:#cccccc" />
                <path
                   id="path17098"
                   d="m 51.199,47.301 c 7.444,0 13.5,-6.056 13.5,-13.5 0,-7.444 -6.056,-13.5 -13.5,-13.5 -7.444,0 -13.5,6.056 -13.5,13.5 0,7.444 6.057,13.5 13.5,13.5 z m 0,-24 c 5.79,0 10.5,4.711 10.5,10.5 0,5.789 -4.71,10.5 -10.5,10.5 -5.79,0 -10.5,-4.711 -10.5,-10.5 0,-5.789 4.711,-10.5 10.5,-10.5 z"
                   inkscape:connector-curvature="0"
                   style="fill:#cccccc" />
              </g>
            </g>
          </g>
        </g>
        <text
           xml:space="preserve"
           style="font-style:normal;font-weight:normal;font-size:30.71928787px;line-height:125%;font-family:sans-serif;text-align:center;letter-spacing:0px;word-spacing:0px;text-anchor:middle;fill:#000000;fill-opacity:1;stroke:none;stroke-width:1px;stroke-linecap:butt;stroke-linejoin:miter;stroke-opacity:1"
           x="2145.5542"
           y="377.50845"
           id="text14112"
           sodipodi:linespacing="125%"><tspan
             sodipodi:role="line"
             id="tspan14114"
             x="2145.5542"
             y="377.50845"
             style="font-style:normal;font-variant:normal;font-weight:bold;font-stretch:normal;font-size:12.12003613px;font-family:Purisa;-inkscape-font-specification:'Purisa Bold';text-align:center;text-anchor:middle">gain connections</tspan></text>
      </g>
      <g
         id="g14124">
        <g
           id="g14098"
           transform="translate(4.6666835,0.83290417)">
          <g
             style="fill:#666666"
             id="g6171"
             transform="matrix(0.99854512,0,0,0.99854512,1586.9351,-220.96797)">
            <path
               transform="matrix(0.79205859,0,0,0.79205859,465.70756,363.6895)"
               d="m 292.46178,323.43445 c -1.52019,-8.15999 -7.92697,-14.39975 -15.93294,-15.92093 -6.08474,-1.19815 -12.2515,-1.75922 -18.25523,-1.75922 -6.16574,0 -12.33149,0.56107 -18.41523,1.75922 -8.16699,1.52118 -14.33174,7.84095 -15.85392,15.84092 -2.32129,12.15948 -2.32129,24.56098 0,36.64045 1.52118,8.241 7.84595,14.40074 15.85392,15.92193 6.08374,1.27815 12.24949,1.83922 18.41523,1.83922 6.16475,0 12.24849,-0.56107 18.33424,-1.76021 8.16799,-1.6002 14.33374,-7.83995 15.85393,-15.91993 2.40229,-12.16148 2.40229,-24.56198 0,-36.64145 z"
               id="path6173"
               inkscape:connector-curvature="0"
               style="fill:#666666;filter:url(#filter9932)" />
            <path
               style="fill:#666666"
               inkscape:connector-curvature="0"
               id="path6175"
               d="m 697.35443,619.86853 c -1.20408,-6.46319 -6.27863,-11.40544 -12.61983,-12.6103 -4.81947,-0.94901 -9.7039,-1.39341 -14.45921,-1.39341 -4.88363,0 -9.76726,0.4444 -14.58594,1.39341 -6.46873,1.20486 -11.35158,6.21049 -12.55723,12.54693 -1.8386,9.63102 -1.8386,19.45374 0,29.02138 1.20486,6.52736 6.21445,11.40623 12.55723,12.61111 4.81868,1.01237 9.70231,1.45677 14.58594,1.45677 4.88284,0 9.70152,-0.4444 14.52179,-1.39419 6.46953,-1.26746 11.35317,-6.2097 12.55725,-12.60952 1.90275,-9.63261 1.90275,-19.45453 0,-29.02218 z" />
          </g>
          <g
             transform="matrix(0.87784825,0,0,0.87784825,276.75453,49.178633)"
             id="g11291">
            <g
               style="fill:#000000;filter:url(#filter11269)"
               transform="matrix(0.53437382,0,0,0.53437382,2228.2533,387.37541)"
               id="g11241">
              <path
                 style="fill:#000000"
                 inkscape:connector-curvature="0"
                 d="m 12.654,16.614 c -0.789,0 -1.427,0.639 -1.427,1.428 l 0,10.95 c 0,0.789 0.638,1.427 1.427,1.427 0.789,0 1.428,-0.638 1.428,-1.427 l 0,-10.95 c 0,-0.79 -0.639,-1.428 -1.428,-1.428 z"
                 id="path11243" />
              <path
                 style="fill:#000000"
                 inkscape:connector-curvature="0"
                 d="m 86.416,76.815 -64.491,0 9.188,-17.288 3.648,3.272 c 0.811,0.728 2.046,0.728 2.857,0 l 10.299,-9.234 10.16,2.097 c 0.953,0.199 1.921,-0.274 2.352,-1.146 l 12.04,-24.303 1.257,2.929 c 0.349,0.811 1.138,1.296 1.969,1.296 0.281,0 0.568,-0.056 0.843,-0.174 1.088,-0.467 1.59,-1.726 1.122,-2.812 L 74.574,24.267 C 74.56,24.233 74.539,24.205 74.522,24.173 74.489,24.105 74.454,24.038 74.414,23.974 74.379,23.918 74.342,23.867 74.303,23.815 74.261,23.761 74.219,23.708 74.171,23.656 74.121,23.603 74.068,23.554 74.014,23.507 73.968,23.466 73.923,23.426 73.873,23.388 73.804,23.338 73.729,23.295 73.655,23.253 73.622,23.233 73.593,23.209 73.557,23.191 73.545,23.186 73.533,23.183 73.52,23.177 73.435,23.136 73.347,23.107 73.257,23.078 73.214,23.064 73.172,23.046 73.129,23.035 73.037,23.011 72.942,23 72.846,22.99 c -0.04,-0.005 -0.079,-0.015 -0.119,-0.018 -0.097,-0.004 -0.192,0.003 -0.289,0.011 -0.039,0.003 -0.081,0 -0.12,0.005 -0.06,0.009 -0.119,0.028 -0.181,0.042 -0.074,0.017 -0.149,0.029 -0.222,0.055 -0.003,0 -0.004,0 -0.007,10e-4 l -8.018,2.766 c -1.117,0.386 -1.711,1.604 -1.325,2.723 0.385,1.117 1.602,1.708 2.723,1.326 l 3.083,-1.063 -11.046,22.297 -9.599,-1.981 c -0.673,-0.142 -1.358,0.049 -1.862,0.501 l -9.674,8.674 -4.256,-3.817 c -0.489,-0.438 -1.154,-0.625 -1.802,-0.513 -0.65,0.114 -1.208,0.521 -1.517,1.103 l -8.11,15.263 0,-55.178 c 0,-1.182 -0.959,-2.141 -2.141,-2.141 -1.182,0 -2.141,0.959 -2.141,2.141 l 0,63.771 c 0,0.036 0.008,0.071 0.011,0.107 0.004,0.074 0.011,0.147 0.022,0.22 0.01,0.07 0.024,0.137 0.042,0.204 0.017,0.065 0.036,0.13 0.059,0.192 0.025,0.068 0.052,0.132 0.082,0.196 0.029,0.062 0.062,0.12 0.096,0.179 0.037,0.059 0.073,0.115 0.113,0.17 0.042,0.058 0.087,0.11 0.134,0.162 0.046,0.051 0.093,0.1 0.145,0.146 0.048,0.047 0.102,0.088 0.156,0.129 0.062,0.047 0.124,0.089 0.191,0.128 0.029,0.019 0.055,0.04 0.085,0.058 0.021,0.011 0.045,0.015 0.067,0.024 0.108,0.055 0.222,0.097 0.34,0.132 0.041,0.011 0.081,0.027 0.121,0.037 0.151,0.033 0.307,0.056 0.469,0.056 0.002,0 0.004,0.002 0.007,0.002 l 0,0 c 0.001,0 0.001,0 0.001,0 l 68.052,0 c 1.183,0 2.142,-0.96 2.142,-2.142 0,-1.182 -0.959,-2.143 -2.142,-2.143 z"
                 id="path11245" />
              <path
                 style="fill:#000000"
                 inkscape:connector-curvature="0"
                 d="m 83.562,83.239 -10.95,0 c -0.789,0 -1.428,0.639 -1.428,1.428 0,0.789 0.639,1.427 1.428,1.427 l 10.949,0 c 0.789,0 1.428,-0.638 1.428,-1.427 0,-0.789 -0.638,-1.428 -1.427,-1.428 z"
                 id="path11247" />
            </g>
            <g
               id="g11223"
               transform="matrix(0.53437382,0,0,0.53437382,2228.2533,387.37541)"
               style="fill:#cccccc">
              <path
                 id="path11225"
                 d="m 12.654,16.614 c -0.789,0 -1.427,0.639 -1.427,1.428 l 0,10.95 c 0,0.789 0.638,1.427 1.427,1.427 0.789,0 1.428,-0.638 1.428,-1.427 l 0,-10.95 c 0,-0.79 -0.639,-1.428 -1.428,-1.428 z"
                 inkscape:connector-curvature="0"
                 style="fill:#cccccc" />
              <path
                 id="path11227"
                 d="m 86.416,76.815 -64.491,0 9.188,-17.288 3.648,3.272 c 0.811,0.728 2.046,0.728 2.857,0 l 10.299,-9.234 10.16,2.097 c 0.953,0.199 1.921,-0.274 2.352,-1.146 l 12.04,-24.303 1.257,2.929 c 0.349,0.811 1.138,1.296 1.969,1.296 0.281,0 0.568,-0.056 0.843,-0.174 1.088,-0.467 1.59,-1.726 1.122,-2.812 L 74.574,24.267 C 74.56,24.233 74.539,24.205 74.522,24.173 74.489,24.105 74.454,24.038 74.414,23.974 74.379,23.918 74.342,23.867 74.303,23.815 74.261,23.761 74.219,23.708 74.171,23.656 74.121,23.603 74.068,23.554 74.014,23.507 73.968,23.466 73.923,23.426 73.873,23.388 73.804,23.338 73.729,23.295 73.655,23.253 73.622,23.233 73.593,23.209 73.557,23.191 73.545,23.186 73.533,23.183 73.52,23.177 73.435,23.136 73.347,23.107 73.257,23.078 73.214,23.064 73.172,23.046 73.129,23.035 73.037,23.011 72.942,23 72.846,22.99 c -0.04,-0.005 -0.079,-0.015 -0.119,-0.018 -0.097,-0.004 -0.192,0.003 -0.289,0.011 -0.039,0.003 -0.081,0 -0.12,0.005 -0.06,0.009 -0.119,0.028 -0.181,0.042 -0.074,0.017 -0.149,0.029 -0.222,0.055 -0.003,0 -0.004,0 -0.007,10e-4 l -8.018,2.766 c -1.117,0.386 -1.711,1.604 -1.325,2.723 0.385,1.117 1.602,1.708 2.723,1.326 l 3.083,-1.063 -11.046,22.297 -9.599,-1.981 c -0.673,-0.142 -1.358,0.049 -1.862,0.501 l -9.674,8.674 -4.256,-3.817 c -0.489,-0.438 -1.154,-0.625 -1.802,-0.513 -0.65,0.114 -1.208,0.521 -1.517,1.103 l -8.11,15.263 0,-55.178 c 0,-1.182 -0.959,-2.141 -2.141,-2.141 -1.182,0 -2.141,0.959 -2.141,2.141 l 0,63.771 c 0,0.036 0.008,0.071 0.011,0.107 0.004,0.074 0.011,0.147 0.022,0.22 0.01,0.07 0.024,0.137 0.042,0.204 0.017,0.065 0.036,0.13 0.059,0.192 0.025,0.068 0.052,0.132 0.082,0.196 0.029,0.062 0.062,0.12 0.096,0.179 0.037,0.059 0.073,0.115 0.113,0.17 0.042,0.058 0.087,0.11 0.134,0.162 0.046,0.051 0.093,0.1 0.145,0.146 0.048,0.047 0.102,0.088 0.156,0.129 0.062,0.047 0.124,0.089 0.191,0.128 0.029,0.019 0.055,0.04 0.085,0.058 0.021,0.011 0.045,0.015 0.067,0.024 0.108,0.055 0.222,0.097 0.34,0.132 0.041,0.011 0.081,0.027 0.121,0.037 0.151,0.033 0.307,0.056 0.469,0.056 0.002,0 0.004,0.002 0.007,0.002 l 0,0 c 0.001,0 0.001,0 0.001,0 l 68.052,0 c 1.183,0 2.142,-0.96 2.142,-2.142 0,-1.182 -0.959,-2.143 -2.142,-2.143 z"
                 inkscape:connector-curvature="0"
                 style="fill:#cccccc" />
              <path
                 id="path11229"
                 d="m 83.562,83.239 -10.95,0 c -0.789,0 -1.428,0.639 -1.428,1.428 0,0.789 0.639,1.427 1.428,1.427 l 10.949,0 c 0.789,0 1.428,-0.638 1.428,-1.427 0,-0.789 -0.638,-1.428 -1.427,-1.428 z"
                 inkscape:connector-curvature="0"
                 style="fill:#cccccc" />
            </g>
          </g>
        </g>
        <text
           xml:space="preserve"
           style="font-style:normal;font-weight:normal;font-size:30.71928787px;line-height:125%;font-family:sans-serif;text-align:center;letter-spacing:0px;word-spacing:0px;text-anchor:middle;fill:#000000;fill-opacity:1;stroke:none;stroke-width:1px;stroke-linecap:butt;stroke-linejoin:miter;stroke-opacity:1"
           x="2260.7542"
           y="459.50845"
           id="text14116"
           sodipodi:linespacing="125%"><tspan
             sodipodi:role="line"
             id="tspan14118"
             x="2260.7542"
             y="459.50845"
             style="font-style:normal;font-variant:normal;font-weight:bold;font-stretch:normal;font-size:12.12003613px;font-family:Purisa;-inkscape-font-specification:'Purisa Bold';text-align:center;text-anchor:middle">scale</tspan></text>
      </g>
      <text
         xml:space="preserve"
         style="font-style:normal;font-weight:normal;font-size:30.71928787px;line-height:125%;font-family:sans-serif;text-align:center;letter-spacing:0px;word-spacing:0px;text-anchor:middle;fill:#000000;fill-opacity:1;stroke:none;stroke-width:1px;stroke-linecap:butt;stroke-linejoin:miter;stroke-opacity:1"
         x="2375.7664"
         y="377.72662"
         id="text14120"
         sodipodi:linespacing="125%"><tspan
           sodipodi:role="line"
           id="tspan14122"
           x="2375.7664"
           y="377.72662"
           style="font-style:normal;font-variant:normal;font-weight:bold;font-stretch:normal;font-size:12.12003613px;font-family:Purisa;-inkscape-font-specification:'Purisa Bold';text-align:center;text-anchor:middle">Capitalize</tspan></text>
    </g>
  </g>
</svg>
