<?xml version="1.0" encoding="UTF-8" standalone="no"?>
<!-- Created with Inkscape (http://www.inkscape.org/) -->

<svg
   xmlns:dc="http://purl.org/dc/elements/1.1/"
   xmlns:cc="http://creativecommons.org/ns#"
   xmlns:rdf="http://www.w3.org/1999/02/22-rdf-syntax-ns#"
   xmlns:svg="http://www.w3.org/2000/svg"
   xmlns="http://www.w3.org/2000/svg"
   xmlns:sodipodi="http://sodipodi.sourceforge.net/DTD/sodipodi-0.dtd"
   xmlns:inkscape="http://www.inkscape.org/namespaces/inkscape"
   version="1.1"
   id="svg3110"
   xml:space="preserve"
   width="256"
   height="122.66681"
   viewBox="0 0 256 122.66681"
   sodipodi:docname="DispBifur.svg"
   inkscape:version="0.92pre2 r"><metadata
     id="metadata3116"><rdf:RDF><cc:Work
         rdf:about=""><dc:format>image/svg+xml</dc:format><dc:type
           rdf:resource="http://purl.org/dc/dcmitype/StillImage" /><dc:title></dc:title></cc:Work></rdf:RDF></metadata><defs
     id="defs3114"><filter
       inkscape:collect="always"
       style="color-interpolation-filters:sRGB"
       id="filter13269"
       x="-0.054800889"
       width="1.1096018"
       y="-0.026804135"
       height="1.0536083"><feGaussianBlur
         inkscape:collect="always"
         stdDeviation="0.96969578"
         id="feGaussianBlur13271" /></filter><filter
       inkscape:collect="always"
       style="color-interpolation-filters:sRGB"
       id="filter27638"
       x="-0.052181579"
       width="1.1043632"
       y="-0.02747879"
       height="1.0549576"><feGaussianBlur
         inkscape:collect="always"
         stdDeviation="0.29545732"
         id="feGaussianBlur27640" /></filter><filter
       inkscape:collect="always"
       style="color-interpolation-filters:sRGB"
       id="filter40749"
       x="-0.036"
       width="1.072"
       y="-0.036"
       height="1.072"><feGaussianBlur
         inkscape:collect="always"
         stdDeviation="0.9"
         id="feGaussianBlur40751" /></filter></defs><sodipodi:namedview
     pagecolor="#ffffff"
     bordercolor="#666666"
     borderopacity="1"
     objecttolerance="10"
     gridtolerance="10"
     guidetolerance="10"
     inkscape:pageopacity="0"
     inkscape:pageshadow="2"
     inkscape:window-width="1366"
     inkscape:window-height="708"
     id="namedview3112"
     showgrid="false"
     inkscape:zoom="3.0032788"
     inkscape:cx="171.36308"
     inkscape:cy="64.99746"
     inkscape:window-x="0"
     inkscape:window-y="23"
     inkscape:window-maximized="1"
     inkscape:current-layer="g3118"
     showborder="false" /><g
     id="g3118"
     inkscape:groupmode="layer"
     inkscape:label="DispBifur"
     transform="matrix(1.3333333,0,0,-1.3333333,0,122.66681)"><g
       id="g40953"
       inkscape:export-xdpi="96"
       inkscape:export-ydpi="96"><g
         style="fill:none;stroke:#000000;stroke-opacity:1;stroke-width:1.12500003;stroke-miterlimit:4;stroke-dasharray:2.25000006,2.25000006;stroke-dashoffset:0"
         id="g3124"
         transform="matrix(1,0,0,-1,0,92.000107)"><path
           sodipodi:nodetypes="cc"
           d="M 35.211,82.105821 V 69.394725"
           style="fill:none;stroke:#000000;stroke-width:1.125;stroke-linecap:round;stroke-linejoin:miter;stroke-miterlimit:4;stroke-dasharray:2.25000006, 2.25000006;stroke-dashoffset:0;stroke-opacity:1"
           id="path3126"
           inkscape:connector-curvature="0" /></g><g
         id="g40856"><rect
           style="fill:#1a1a1a;fill-opacity:1;stroke:none;stroke-width:1.9410001;stroke-linecap:round;stroke-linejoin:round;stroke-miterlimit:4;stroke-dasharray:0.97050005, 0.97050005;stroke-dashoffset:0;stroke-opacity:1"
           id="rect4182"
           width="71.671669"
           height="10.23881"
           x="94.147102"
           y="-87.521736"
           transform="scale(1,-1)"
           rx="0.87404472"
           ry="0.87404472" /><text
           id="text3186"
           style="font-variant:normal;font-weight:bold;font-size:8px;font-family:'Tlwg Typist';-inkscape-font-specification:TlwgTypist-Bold;writing-mode:lr-tb;fill:#ffffff;fill-opacity:1;fill-rule:nonzero;stroke:none"
           transform="scale(1,-1)"
           x="110.90391"
           y="-80.000107"><tspan
             id="tspan3184"
             sodipodi:role="line"
             y="-80.000107"
             x="110.90391 115.7039 120.50391 125.30391 130.1039 134.90392 139.7039 144.50391">Internet</tspan></text>
</g><text
         y="-92.024719"
         x="76.775749"
         transform="scale(1,-1)"
         style="font-style:oblique;font-variant:normal;font-weight:bold;font-size:8px;font-family:'Tlwg Typist';-inkscape-font-specification:TlwgTypist-BoldOblique;writing-mode:lr-tb;fill:#000000;fill-opacity:1;fill-rule:nonzero;stroke:none"
         id="text3190"><tspan
           y="-92.024719"
           x="76.775749"
           sodipodi:role="line"
           id="tspan3188">Used as Service Bridge</tspan></text>
<g
         id="g40803"><g
           transform="matrix(1,0,0,-1,0,92.000107)"
           id="g3192"><path
             inkscape:connector-curvature="0"
             id="path3194"
             style="fill:none;stroke:#000000;stroke-width:0.80000001;stroke-linecap:round;stroke-linejoin:miter;stroke-miterlimit:4;stroke-dasharray:none;stroke-opacity:1"
             d="M 85.602,10.398 H 62.398 v 12" /></g><g
           id="g4107"><g
             transform="matrix(0.70710678,0.70710678,0.70710678,-0.70710678,2.4381735,41.317836)"
             id="g4097"><path
               sodipodi:nodetypes="cc"
               inkscape:connector-curvature="0"
               id="path4095"
               style="fill:none;stroke:#000000;stroke-width:0.80000001;stroke-linecap:round;stroke-linejoin:miter;stroke-miterlimit:4;stroke-dasharray:none;stroke-opacity:1"
               d="M 62.398,18.88872 V 22.398" /></g><g
             id="g4101"
             transform="rotate(135,52.616115,45.997736)"><path
               d="M 62.398,18.88872 V 22.398"
               style="fill:none;stroke:#000000;stroke-width:0.80000001;stroke-linecap:round;stroke-linejoin:miter;stroke-miterlimit:4;stroke-dasharray:none;stroke-opacity:1"
               id="path4099"
               inkscape:connector-curvature="0"
               sodipodi:nodetypes="cc" /></g></g><g
           id="g4117"
           transform="rotate(90,67.994405,87.209701)"><g
             id="g4111"
             transform="matrix(0.70710678,0.70710678,0.70710678,-0.70710678,2.4381735,41.317836)"><path
               d="M 62.398,18.88872 V 22.398"
               style="fill:none;stroke:#000000;stroke-width:0.80000001;stroke-linecap:round;stroke-linejoin:miter;stroke-miterlimit:4;stroke-dasharray:none;stroke-opacity:1"
               id="path4109"
               inkscape:connector-curvature="0"
               sodipodi:nodetypes="cc" /></g><g
             transform="rotate(135,52.616115,45.997736)"
             id="g4115"><path
               sodipodi:nodetypes="cc"
               inkscape:connector-curvature="0"
               id="path4113"
               style="fill:none;stroke:#000000;stroke-width:0.80000001;stroke-linecap:round;stroke-linejoin:miter;stroke-miterlimit:4;stroke-dasharray:none;stroke-opacity:1"
               d="M 62.398,18.88872 V 22.398" /></g></g></g><g
         id="g40817"><g
           transform="matrix(1,0,0,-1,43.792758,92.000107)"
           id="g3204"><path
             inkscape:connector-curvature="0"
             id="path3206"
             style="fill:none;stroke:#000000;stroke-width:0.80000001;stroke-linecap:round;stroke-linejoin:miter;stroke-miterlimit:4;stroke-dasharray:none;stroke-opacity:1"
             d="M 157.602,22.398 V 9.602 h -24.801" /></g><g
           id="g4127"
           transform="matrix(-1,0,0,1,263.78158,-0.08829223)"><g
             id="g4121"
             transform="matrix(0.70710678,0.70710678,0.70710678,-0.70710678,2.4381735,41.317836)"><path
               d="M 62.398,18.88872 V 22.398"
               style="fill:none;stroke:#000000;stroke-width:0.80000001;stroke-linecap:round;stroke-linejoin:miter;stroke-miterlimit:4;stroke-dasharray:none;stroke-opacity:1"
               id="path4119"
               inkscape:connector-curvature="0"
               sodipodi:nodetypes="cc" /></g><g
             transform="rotate(135,52.616115,45.997736)"
             id="g4125"><path
               sodipodi:nodetypes="cc"
               inkscape:connector-curvature="0"
               id="path4123"
               style="fill:none;stroke:#000000;stroke-width:0.80000001;stroke-linecap:round;stroke-linejoin:miter;stroke-miterlimit:4;stroke-dasharray:none;stroke-opacity:1"
               d="M 62.398,18.88872 V 22.398" /></g></g><g
           transform="matrix(0,1,1,0,106.10722,20.009924)"
           id="g4137"><g
             transform="matrix(0.70710678,0.70710678,0.70710678,-0.70710678,2.4381735,41.317836)"
             id="g4131"><path
               sodipodi:nodetypes="cc"
               inkscape:connector-curvature="0"
               id="path4129"
               style="fill:none;stroke:#000000;stroke-width:0.80000001;stroke-linecap:round;stroke-linejoin:miter;stroke-miterlimit:4;stroke-dasharray:none;stroke-opacity:1"
               d="M 62.398,18.88872 V 22.398" /></g><g
             id="g4135"
             transform="rotate(135,52.616115,45.997736)"><path
               d="M 62.398,18.88872 V 22.398"
               style="fill:none;stroke:#000000;stroke-width:0.80000001;stroke-linecap:round;stroke-linejoin:miter;stroke-miterlimit:4;stroke-dasharray:none;stroke-opacity:1"
               id="path4133"
               inkscape:connector-curvature="0"
               sodipodi:nodetypes="cc" /></g></g></g><g
         id="g40833"><g
           transform="matrix(1,0,0,-1,0,92.000107)"
           id="g3132"><path
             inkscape:connector-curvature="0"
             id="path3134"
             style="fill:none;stroke:#000000;stroke-width:0.80000001;stroke-linecap:round;stroke-linejoin:miter;stroke-miterlimit:4;stroke-dasharray:none;stroke-opacity:1"
             d="m 36.801,76 h 24" /></g><text
           id="text3146"
           style="font-style:oblique;font-variant:normal;font-weight:bold;font-size:8px;font-family:'Tlwg Typist';-inkscape-font-specification:TlwgTypist-BoldOblique;writing-mode:lr-tb;fill:#000000;fill-opacity:1;fill-rule:nonzero;stroke:none"
           transform="scale(1,-1)"
           x="44.838135"
           y="-21.600105"><tspan
             id="tspan3144"
             sodipodi:role="line"
             y="-21.600105"
             x="44.838135 49.638134">a'</tspan></text>
<g
           id="g4147"
           transform="matrix(0,1,1,0,-32.801107,-46.386704)"><g
             id="g4141"
             transform="matrix(0.70710678,0.70710678,0.70710678,-0.70710678,2.4381735,41.317836)"><path
               d="M 62.398,18.88872 V 22.398"
               style="fill:none;stroke:#000000;stroke-width:0.80000001;stroke-linecap:round;stroke-linejoin:miter;stroke-miterlimit:4;stroke-dasharray:none;stroke-opacity:1"
               id="path4139"
               inkscape:connector-curvature="0"
               sodipodi:nodetypes="cc" /></g><g
             transform="rotate(135,52.616115,45.997736)"
             id="g4145"><path
               sodipodi:nodetypes="cc"
               inkscape:connector-curvature="0"
               id="path4143"
               style="fill:none;stroke:#000000;stroke-width:0.80000001;stroke-linecap:round;stroke-linejoin:miter;stroke-miterlimit:4;stroke-dasharray:none;stroke-opacity:1"
               d="M 62.398,18.88872 V 22.398" /></g></g><g
           transform="rotate(90,88.395734,42.00903)"
           id="g4157"><g
             transform="matrix(0.70710678,0.70710678,0.70710678,-0.70710678,2.4381735,41.317836)"
             id="g4151"><path
               sodipodi:nodetypes="cc"
               inkscape:connector-curvature="0"
               id="path4149"
               style="fill:none;stroke:#000000;stroke-width:0.80000001;stroke-linecap:round;stroke-linejoin:miter;stroke-miterlimit:4;stroke-dasharray:none;stroke-opacity:1"
               d="M 62.398,18.88872 V 22.398" /></g><g
             id="g4155"
             transform="rotate(135,52.616115,45.997736)"><path
               d="M 62.398,18.88872 V 22.398"
               style="fill:none;stroke:#000000;stroke-width:0.80000001;stroke-linecap:round;stroke-linejoin:miter;stroke-miterlimit:4;stroke-dasharray:none;stroke-opacity:1"
               id="path4153"
               inkscape:connector-curvature="0"
               sodipodi:nodetypes="cc" /></g></g></g><g
         id="g40779"><g
           transform="matrix(1,0,0,-1,0,92.000107)"
           id="g3172"
           style="fill:none;stroke:#000000;stroke-opacity:1;stroke-width:0.90000002;stroke-miterlimit:4;stroke-dasharray:none"><path
             inkscape:connector-curvature="0"
             id="path3174"
             style="fill:none;fill-opacity:1;fill-rule:nonzero;stroke:#000000;stroke-width:0.90000002;stroke-linecap:square;stroke-linejoin:miter;stroke-miterlimit:4;stroke-dasharray:none;stroke-opacity:1"
             d="m 80.906,44 c 0,10.207 -8.277,18.484 -18.484,18.484 -10.207,0 -18.484,-8.277 -18.484,-18.484 0,-10.207 8.277,-18.484 18.484,-18.484 10.207,0 18.484,8.277 18.484,18.484 z" /></g><path
           style="fill:#333333;stroke-width:0.25804752;filter:url(#filter27638)"
           inkscape:connector-curvature="0"
           id="path27620"
           d="m 69.04131,57.341171 v 0.843815 c 0,2.650405 -2.42152,2.717756 -6.61944,2.717756 -4.19792,0 -6.61918,-0.06735 -6.61918,-2.717756 v -3.215014 c -0.0968,0 -0.17521,-0.07845 -0.17521,-0.175214 v -4.3192 c 0,-0.09651 0.0785,-0.174698 0.17521,-0.174698 V 37.81497 c 0,-2.650405 2.42178,-2.717497 6.61944,-2.717497 4.19766,0 6.61943,0.06735 6.61943,2.717497 v 17.238093 c 0.0973,0 0.17496,0.07845 0.17496,0.174957 v 1.938195 c -2.6e-4,0.09677 -0.0779,0.174956 -0.17521,0.174956 z m -7.99148,2.195726 h 2.7446 c 0.0893,0 0.16128,-0.072 0.16128,-0.161279 0,-0.08928 -0.072,-0.161538 -0.16128,-0.161538 h -2.7446 c -0.089,0 -0.16154,0.07225 -0.16154,0.161538 0,0.08928 0.0725,0.161279 0.16154,0.161279 z M 68.41606,37.96309 H 56.4282 V 58.144472 H 68.41632 V 37.96309 Z" /><path
           d="m 69.04131,57.341171 v 0.843815 c 0,2.650405 -2.42152,2.717756 -6.61944,2.717756 -4.19792,0 -6.61918,-0.06735 -6.61918,-2.717756 v -3.215014 c -0.0968,0 -0.17521,-0.07845 -0.17521,-0.175214 v -4.3192 c 0,-0.09651 0.0785,-0.174698 0.17521,-0.174698 V 37.81497 c 0,-2.650405 2.42178,-2.717497 6.61944,-2.717497 4.19766,0 6.61943,0.06735 6.61943,2.717497 v 17.238093 c 0.0973,0 0.17496,0.07845 0.17496,0.174957 v 1.938195 c -2.6e-4,0.09677 -0.0779,0.174956 -0.17521,0.174956 z m -7.99148,2.195726 h 2.7446 c 0.0893,0 0.16128,-0.072 0.16128,-0.161279 0,-0.08928 -0.072,-0.161538 -0.16128,-0.161538 h -2.7446 c -0.089,0 -0.16154,0.07225 -0.16154,0.161538 0,0.08928 0.0725,0.161279 0.16154,0.161279 z M 68.41606,37.96309 H 56.4282 V 58.144472 H 68.41632 V 37.96309 Z"
           id="Phone"
           inkscape:connector-curvature="0"
           style="fill:#333333;stroke-width:0.25804752" /></g><g
         id="g40789"><g
           transform="matrix(1,0,0,-1,43.792758,92.000107)"
           id="g3168"
           style="fill:none;stroke:#000000;stroke-opacity:1;stroke-width:0.90000002;stroke-miterlimit:4;stroke-dasharray:none"><path
             inkscape:connector-curvature="0"
             id="path3170"
             style="fill:none;fill-opacity:1;fill-rule:nonzero;stroke:#000000;stroke-width:0.90000002;stroke-linecap:square;stroke-linejoin:miter;stroke-miterlimit:4;stroke-dasharray:none;stroke-opacity:1"
             d="m 175.406,44 c 0,10.207 -8.277,18.484 -18.484,18.484 -10.207,0 -18.484,-8.277 -18.484,-18.484 0,-10.207 8.277,-18.484 18.484,-18.484 10.207,0 18.484,8.277 18.484,18.484 z" /></g><g
           style="fill:#4d4d4d;fill-rule:evenodd;stroke:none;stroke-width:1;filter:url(#filter40749)"
           transform="matrix(0.32494023,0,0,-0.32494023,-152.08482,415.50588)"
           id="g40739"><g
             transform="translate(1081,1100)"
             id="g40737"
             style="fill:#4d4d4d"><path
               inkscape:connector-curvature="0"
               d="m -20.263158,21.995 h 50 v -3 h -50 z m 0,21 h 50 v -3 h -50 z m 50,-14 H -4.2631577 c -0.553,0 -1,-0.447 -1,-1 0,-0.553 0.447,-1 1,-1 H 29.736842 c 0.553,0 1,0.447 1,1 0,0.553 -0.447,1 -1,1 z m -1,4 c 0.552,0 1,0.448 1,1 0,0.552 -0.448,1 -1,1 -0.552,0 -1,-0.448 -1,-1 0,-0.552 0.448,-1 1,-1 z m -2,-1 c -0.552,0 -1,-0.448 -1,-1 0,-0.552 0.448,-1 1,-1 0.552,0 1,0.448 1,1 0,0.552 -0.448,1 -1,1 z m -2,1 c 0.552,0 1,0.448 1,1 0,0.552 -0.448,1 -1,1 -0.552,0 -1,-0.448 -1,-1 0,-0.552 0.448,-1 1,-1 z m -2,-1 c -0.552,0 -1,-0.448 -1,-1 0,-0.552 0.448,-1 1,-1 0.552,0 1,0.448 1,1 0,0.552 -0.448,1 -1,1 z m -2,1 c 0.552,0 1,0.448 1,1 0,0.552 -0.448,1 -1,1 -0.552,0 -1,-0.448 -1,-1 0,-0.552 0.448,-1 1,-1 z m -2,-1 c -0.552,0 -1,-0.448 -1,-1 0,-0.552 0.448,-1 1,-1 0.552,0 1,0.448 1,1 0,0.552 -0.448,1 -1,1 z m -2,1 c 0.552,0 1,0.448 1,1 0,0.552 -0.448,1 -1,1 -0.552,0 -1,-0.448 -1,-1 0,-0.552 0.448,-1 1,-1 z m -2,-1 c -0.552,0 -1,-0.448 -1,-1 0,-0.552 0.448,-1 1,-1 0.552,0 1,0.448 1,1 0,0.552 -0.448,1 -1,1 z m -2,1 c 0.552,0 1,0.448 1,1 0,0.552 -0.448,1 -1,1 -0.552,0 -1,-0.448 -1,-1 0,-0.552 0.448,-1 1,-1 z m -2,-1 c -0.552,0 -0.9999997,-0.448 -0.9999997,-1 0,-0.552 0.4479997,-1 0.9999997,-1 0.552,0 1,0.448 1,1 0,0.552 -0.448,1 -1,1 z m -1.9999997,1 c 0.552,0 1,0.448 1,1 0,0.552 -0.448,1 -1,1 -0.552,0 -1,-0.448 -1,-1 0,-0.552 0.448,-1 1,-1 z m -2,-1 c -0.552,0 -1,-0.448 -1,-1 0,-0.552 0.448,-1 1,-1 0.552,0 1,0.448 1,1 0,0.552 -0.448,1 -1,1 z m -2,1 c 0.552,0 1,0.448 1,1 0,0.552 -0.448,1 -1,1 -0.552,0 -1,-0.448 -1,-1 0,-0.552 0.448,-1 1,-1 z m -2,-1 c -0.552,0 -1,-0.448 -1,-1 0,-0.552 0.448,-1 1,-1 0.552,0 1,0.448 1,1 0,0.552 -0.448,1 -1,1 z m -1.99999997,1 c 0.55199997,0 0.99999997,0.448 0.99999997,1 0,0.552 -0.448,1 -0.99999997,1 -0.552,0 -1,-0.448 -1,-1 0,-0.552 0.448,-1 1,-1 z m -2.00000003,-1 c -0.552,0 -1,-0.448 -1,-1 0,-0.552 0.448,-1 1,-1 0.55200003,0 1.00000003,0.448 1.00000003,1 0,0.552 -0.448,1 -1.00000003,1 z m -3,2 c 0,-0.552 0.448,-1 1,-1 0.552,0 1,0.448 1,1 0,0.552 -0.448,1 -1,1 -0.552,0 -1,-0.448 -1,-1 z m -17.0000003,0 v -6 c 0,-0.553 0.447,-1 1,-1 h 12.0000003 c 0.553,0 1,0.447 1,1 v 6 c 0,0.553 -0.447,1 -1,1 H -20.263158 c -0.553,0 -1,-0.447 -1,-1 z m 53.031,-15 c 1.637,0 2.969,-1.332 2.969,-2.969 V 3.964 c 0,-1.637 -1.332,-2.969 -2.969,-2.969 h -54.062 c -1.637,0 -2.969,1.332 -2.969,2.969 v 12.062 c 0,1.637 1.332,2.969 2.969,2.969 h 0.031 v 3 h -0.031 c -1.637,0 -2.969,1.332 -2.969,2.969 v 12.062 c 0,1.637 1.332,2.969 2.969,2.969 h 0.031 v 3 h -0.031 c -1.637,0 -2.969,1.332 -2.969,2.969 v 12.062 c 0,1.637 1.332,2.969 2.969,2.969 h 54.062 c 1.637,0 2.969,-1.332 2.969,-2.969 V 45.964 c 0,-1.637 -1.332,-2.969 -2.969,-2.969 h -0.031 v -3 h 0.031 c 1.637,0 2.969,-1.332 2.969,-2.969 V 24.964 c 0,-1.637 -1.332,-2.969 -2.969,-2.969 h -0.031 v -3 z"
               id="path40735"
               style="fill:#4d4d4d" /></g></g><g
           id="g26645"
           transform="matrix(0.32494023,0,0,-0.32494023,-152.08482,415.50588)"
           style="fill:#4d4d4d;fill-rule:evenodd;stroke:none;stroke-width:1"><g
             style="fill:#4d4d4d"
             id="g26643"
             transform="translate(1081,1100)"><path
               style="fill:#4d4d4d"
               id="path26639"
               d="m -20.263158,21.995 h 50 v -3 h -50 z m 0,21 h 50 v -3 h -50 z m 50,-14 H -4.2631577 c -0.553,0 -1,-0.447 -1,-1 0,-0.553 0.447,-1 1,-1 H 29.736842 c 0.553,0 1,0.447 1,1 0,0.553 -0.447,1 -1,1 z m -1,4 c 0.552,0 1,0.448 1,1 0,0.552 -0.448,1 -1,1 -0.552,0 -1,-0.448 -1,-1 0,-0.552 0.448,-1 1,-1 z m -2,-1 c -0.552,0 -1,-0.448 -1,-1 0,-0.552 0.448,-1 1,-1 0.552,0 1,0.448 1,1 0,0.552 -0.448,1 -1,1 z m -2,1 c 0.552,0 1,0.448 1,1 0,0.552 -0.448,1 -1,1 -0.552,0 -1,-0.448 -1,-1 0,-0.552 0.448,-1 1,-1 z m -2,-1 c -0.552,0 -1,-0.448 -1,-1 0,-0.552 0.448,-1 1,-1 0.552,0 1,0.448 1,1 0,0.552 -0.448,1 -1,1 z m -2,1 c 0.552,0 1,0.448 1,1 0,0.552 -0.448,1 -1,1 -0.552,0 -1,-0.448 -1,-1 0,-0.552 0.448,-1 1,-1 z m -2,-1 c -0.552,0 -1,-0.448 -1,-1 0,-0.552 0.448,-1 1,-1 0.552,0 1,0.448 1,1 0,0.552 -0.448,1 -1,1 z m -2,1 c 0.552,0 1,0.448 1,1 0,0.552 -0.448,1 -1,1 -0.552,0 -1,-0.448 -1,-1 0,-0.552 0.448,-1 1,-1 z m -2,-1 c -0.552,0 -1,-0.448 -1,-1 0,-0.552 0.448,-1 1,-1 0.552,0 1,0.448 1,1 0,0.552 -0.448,1 -1,1 z m -2,1 c 0.552,0 1,0.448 1,1 0,0.552 -0.448,1 -1,1 -0.552,0 -1,-0.448 -1,-1 0,-0.552 0.448,-1 1,-1 z m -2,-1 c -0.552,0 -0.9999997,-0.448 -0.9999997,-1 0,-0.552 0.4479997,-1 0.9999997,-1 0.552,0 1,0.448 1,1 0,0.552 -0.448,1 -1,1 z m -1.9999997,1 c 0.552,0 1,0.448 1,1 0,0.552 -0.448,1 -1,1 -0.552,0 -1,-0.448 -1,-1 0,-0.552 0.448,-1 1,-1 z m -2,-1 c -0.552,0 -1,-0.448 -1,-1 0,-0.552 0.448,-1 1,-1 0.552,0 1,0.448 1,1 0,0.552 -0.448,1 -1,1 z m -2,1 c 0.552,0 1,0.448 1,1 0,0.552 -0.448,1 -1,1 -0.552,0 -1,-0.448 -1,-1 0,-0.552 0.448,-1 1,-1 z m -2,-1 c -0.552,0 -1,-0.448 -1,-1 0,-0.552 0.448,-1 1,-1 0.552,0 1,0.448 1,1 0,0.552 -0.448,1 -1,1 z m -1.99999997,1 c 0.55199997,0 0.99999997,0.448 0.99999997,1 0,0.552 -0.448,1 -0.99999997,1 -0.552,0 -1,-0.448 -1,-1 0,-0.552 0.448,-1 1,-1 z m -2.00000003,-1 c -0.552,0 -1,-0.448 -1,-1 0,-0.552 0.448,-1 1,-1 0.55200003,0 1.00000003,0.448 1.00000003,1 0,0.552 -0.448,1 -1.00000003,1 z m -3,2 c 0,-0.552 0.448,-1 1,-1 0.552,0 1,0.448 1,1 0,0.552 -0.448,1 -1,1 -0.552,0 -1,-0.448 -1,-1 z m -17.0000003,0 v -6 c 0,-0.553 0.447,-1 1,-1 h 12.0000003 c 0.553,0 1,0.447 1,1 v 6 c 0,0.553 -0.447,1 -1,1 H -20.263158 c -0.553,0 -1,-0.447 -1,-1 z m 53.031,-15 c 1.637,0 2.969,-1.332 2.969,-2.969 V 3.964 c 0,-1.637 -1.332,-2.969 -2.969,-2.969 h -54.062 c -1.637,0 -2.969,1.332 -2.969,2.969 v 12.062 c 0,1.637 1.332,2.969 2.969,2.969 h 0.031 v 3 h -0.031 c -1.637,0 -2.969,1.332 -2.969,2.969 v 12.062 c 0,1.637 1.332,2.969 2.969,2.969 h 0.031 v 3 h -0.031 c -1.637,0 -2.969,1.332 -2.969,2.969 v 12.062 c 0,1.637 1.332,2.969 2.969,2.969 h 54.062 c 1.637,0 2.969,-1.332 2.969,-2.969 V 45.964 c 0,-1.637 -1.332,-2.969 -2.969,-2.969 h -0.031 v -3 h 0.031 c 1.637,0 2.969,-1.332 2.969,-2.969 V 24.964 c 0,-1.637 -1.332,-2.969 -2.969,-2.969 h -0.031 v -3 z"
               inkscape:connector-curvature="0" /></g></g></g><g
         transform="matrix(1,0,0,-1,27.211,92.000107)"
         id="g40755"
         style="fill:none;stroke:#000000;stroke-width:1.125;stroke-miterlimit:4;stroke-dasharray:2.25000006, 2.25000006;stroke-dashoffset:0;stroke-opacity:1"><path
           inkscape:connector-curvature="0"
           id="path40753"
           style="fill:none;stroke:#000000;stroke-width:1.125;stroke-linecap:round;stroke-linejoin:miter;stroke-miterlimit:4;stroke-dasharray:2.25000006, 2.25000006;stroke-dashoffset:0;stroke-opacity:1"
           d="M 35.211,82.105821 V 69.394725"
           sodipodi:nodetypes="cc" /></g><g
         id="g40851"><g
           transform="matrix(1,0,0,-1,0,92.000107)"
           id="g3152"><path
             inkscape:connector-curvature="0"
             id="path3154"
             style="fill:none;stroke:#000000;stroke-width:0.80000001;stroke-linecap:round;stroke-linejoin:miter;stroke-miterlimit:4;stroke-dasharray:none;stroke-opacity:1"
             d="M 64,76 H 198.63859"
             sodipodi:nodetypes="cc" /></g><text
           id="text3166"
           style="font-style:oblique;font-variant:normal;font-weight:bold;font-size:8px;font-family:'Tlwg Typist';-inkscape-font-specification:TlwgTypist-BoldOblique;writing-mode:lr-tb;fill:#000000;fill-opacity:1;fill-rule:nonzero;stroke:none"
           transform="scale(1,-1)"
           x="126.9433"
           y="-21.600105"><tspan
             id="tspan3164"
             sodipodi:role="line"
             y="-21.600105"
             x="126.9433 131.74329">b'</tspan></text>
<g
           transform="matrix(0,1,1,0,-5.6037635,-46.386704)"
           id="g4167"><g
             transform="matrix(0.70710678,0.70710678,0.70710678,-0.70710678,2.4381735,41.317836)"
             id="g4161"><path
               sodipodi:nodetypes="cc"
               inkscape:connector-curvature="0"
               id="path4159"
               style="fill:none;stroke:#000000;stroke-width:0.80000001;stroke-linecap:round;stroke-linejoin:miter;stroke-miterlimit:4;stroke-dasharray:none;stroke-opacity:1"
               d="M 62.398,18.88872 V 22.398" /></g><g
             id="g4165"
             transform="rotate(135,52.616115,45.997736)"><path
               d="M 62.398,18.88872 V 22.398"
               style="fill:none;stroke:#000000;stroke-width:0.80000001;stroke-linecap:round;stroke-linejoin:miter;stroke-miterlimit:4;stroke-dasharray:none;stroke-opacity:1"
               id="path4163"
               inkscape:connector-curvature="0"
               sodipodi:nodetypes="cc" /></g></g><g
           id="g4177"
           transform="rotate(90,157.44648,111.05978)"><g
             id="g4171"
             transform="matrix(0.70710678,0.70710678,0.70710678,-0.70710678,2.4381735,41.317836)"><path
               d="M 62.398,18.88872 V 22.398"
               style="fill:none;stroke:#000000;stroke-width:0.80000001;stroke-linecap:round;stroke-linejoin:miter;stroke-miterlimit:4;stroke-dasharray:none;stroke-opacity:1"
               id="path4169"
               inkscape:connector-curvature="0"
               sodipodi:nodetypes="cc" /></g><g
             transform="rotate(135,52.616115,45.997736)"
             id="g4175"><path
               sodipodi:nodetypes="cc"
               inkscape:connector-curvature="0"
               id="path4173"
               style="fill:none;stroke:#000000;stroke-width:0.80000001;stroke-linecap:round;stroke-linejoin:miter;stroke-miterlimit:4;stroke-dasharray:none;stroke-opacity:1"
               d="M 62.398,18.88872 V 22.398" /></g></g><g
           transform="matrix(1,0,0,-1,165.50376,92.000107)"
           id="g40759"
           style="fill:none;stroke:#000000;stroke-width:1.125;stroke-miterlimit:4;stroke-dasharray:2.25000006, 2.25000006;stroke-dashoffset:0;stroke-opacity:1"><path
             inkscape:connector-curvature="0"
             id="path40757"
             style="fill:none;stroke:#000000;stroke-width:1.125;stroke-linecap:round;stroke-linejoin:miter;stroke-miterlimit:4;stroke-dasharray:2.25000006, 2.25000006;stroke-dashoffset:0;stroke-opacity:1"
             d="M 35.211,82.105821 V 69.394725"
             sodipodi:nodetypes="cc" /></g></g><g
         id="g40773"><g
           transform="matrix(1,0,0,-1,0,92.000107)"
           id="g3176"
           style="fill:#ffffff;stroke:#000000;stroke-opacity:1;stroke-width:0.90000002;stroke-miterlimit:4;stroke-dasharray:none;fill-opacity:1"><path
             inkscape:connector-curvature="0"
             id="path3178"
             style="fill:#ffffff;fill-opacity:1;fill-rule:nonzero;stroke:#000000;stroke-width:0.90000002;stroke-linecap:square;stroke-linejoin:miter;stroke-miterlimit:4;stroke-dasharray:none;stroke-opacity:1"
             d="m 53.285,44 c 0,10.207 -8.277,18.484 -18.484,18.484 -10.207,0 -18.485,-8.277 -18.485,-18.484 0,-10.207 8.278,-18.484 18.485,-18.484 10.207,0 18.484,8.277 18.484,18.484 z" /></g><g
           style="fill:#666666;filter:url(#filter13269)"
           transform="matrix(0.31281603,0,0,-0.31281603,19.525994,62.702098)"
           id="g13259"><path
             id="path13251"
             d="m 68.497169,20.640357 c 1.103,-1.876 2.079,-4.305 1.264,-6.459 -0.813,-2.143 -3.568,-2.622 -5.548,-2.744 -4.234,-0.258 -8.741,0.374 -12.937,0.938 -1.626,0.218 -3.858,0.538 -6.211,1.062 1.595,-2.433 3.705,-7.6819999 0.57,-9.5209999 -1.222,-0.715 -2.857,-0.128 -3.996,0.438 -3.013,1.493 -5.71,4.433 -7.53,7.2099999 -1.588,2.422 -1.767,5.442 0.458,6.775 -1.239,1.351 -1.977,3.004 -1.883,5.048 0.095,2.077 1.171,4.229 2.58,5.741 1.674,1.34 3.72,2.24 5.865,2.825 l 0.077,0.746 c -1.333,-0.164 -2.534,0.068 -3.392,0.809 -0.955,0.826 -1.306,2.065 -0.918,3.235 0.032,0.097 0.075,0.21 0.133,0.333 0.024,0.051 0.062,0.111 0.091,0.166 0.042,0.079 0.08,0.155 0.135,0.239 0.039,0.062 0.096,0.126 0.142,0.189 0.063,0.083 0.12,0.167 0.195,0.252 0.06,0.067 0.136,0.131 0.205,0.198 0.085,0.085 0.166,0.169 0.267,0.252 0.082,0.066 0.186,0.128 0.278,0.195 0.112,0.079 0.22,0.159 0.352,0.234 0.105,0.062 0.235,0.114 0.355,0.17 0.145,0.07 0.287,0.142 0.452,0.205 0.135,0.051 0.294,0.092 0.442,0.136 0.183,0.057 0.362,0.115 0.567,0.159 0.164,0.036 0.353,0.058 0.532,0.087 0.181,0.029 0.343,0.068 0.542,0.089 l 1.712,23.126 -3.015,2.599 c -0.021,-0.318 -0.042,-0.608 -0.062,-0.939 l -0.042,-0.788 -5.072,5.151 -7.51,21.384 0.659,0.231 0.048,-0.137 31.406,-1.785 v 0.014 l 0.696,-0.068 -1.54,-16.467 -0.01,-0.119 -7.85,-8.272 v 0.877 c 0,0.082 -0.017,0.215 -0.038,0.349 l -2.592,-2.049 v -7.382 l 11.912,2.435 1.769,-20.027 5.285,-3.421 -4.258,-2.494 -0.604,-4.406 c 2.386,-1.906 4.469,-4.181 6.019,-6.819 z m -7.111,16.736 -1.728,19.591 -12.435,-2.544 -0.144,0.687 0.598,0.123 v 7.863 l 3.141,2.481 c -0.822,3.626 -4.285,13.551 -6.919,13.623 -0.007,0 -0.015,0 -0.023,0 -1.018,0 -2.755,-1.779 -3.541,-12.95 l 3.683,-3.175 -1.784,-24.076 -0.3,-0.022 c -2.286,-0.169 -3.921,-1.087 -4.374,-2.453 -0.297,-0.896 -0.024,-1.851 0.712,-2.487 1.171,-1.014 3.127,-0.983 5.227,0.065 l 0.314,-0.625 c -0.647,-0.324 -1.28,-0.54 -1.895,-0.685 l -0.068,-0.664 c 2.108,0.499 4.292,0.717 6.326,0.676 5.661,-0.116 10.554,-2.866 13.268,-7.757 l 0.973,7.08 0.346,-0.048 -0.488,0.119 3.734,2.19 z"
             inkscape:connector-curvature="0"
             style="fill:#666666" /><path
             id="path13253"
             d="m 59.404,34.851 c -0.059,0.042 -0.106,0.079 -0.065,0.148 0.055,0.099 0.205,0.126 0.376,0.128 0.13,0.048 0.403,0.014 0.536,-0.077 v 0 c 0.023,-0.005 0.044,0.01 0.068,0.003 0.082,-0.022 0.229,-0.072 0.232,-0.176 0,-0.083 0,-0.167 0.003,-0.251 0,-0.097 -0.226,-0.096 -0.276,-0.089 -0.386,0.044 -0.563,0.084 -0.874,0.314 z"
             inkscape:connector-curvature="0"
             style="fill:#666666" /><path
             id="path13255"
             d="m 56.095,36 c -0.078,-0.009 -0.15,-0.01 -0.226,-0.017 -0.089,-0.012 -0.181,-0.022 -0.272,-0.021 -0.004,0 -0.004,0 -0.007,0 h -0.004 c -0.034,10e-4 -0.068,0 -0.105,0 -0.089,0 -0.314,0.036 -0.379,0.145 -0.007,0.003 -0.014,0.009 -0.018,0.014 -0.007,0.012 -0.03,0.012 -0.03,0.025 0,0.146 0,0.292 0,0.438 0,0.041 0.064,0.041 0.108,0.056 0,0.019 0,0.036 0,0.053 0.008,0.031 0.027,0.053 0.055,0.065 0.045,0.019 0.086,0.039 0.13,0.058 0.175,0.08 0.506,0.06 0.632,-0.104 0.086,-0.118 0.082,-0.239 0.105,-0.355 0.035,-0.017 0.059,-0.03 0.072,-0.049 0.075,-0.026 0.153,-0.063 0.14,-0.13 -0.007,-0.025 -0.01,-0.051 -0.017,-0.077 C 56.262,36.025 56.157,36.007 56.095,36 Z"
             inkscape:connector-curvature="0"
             style="fill:#666666" /><path
             id="path13257"
             d="m 52.739,52.154 c -0.116,-0.068 -0.594,-0.031 -0.625,0.144 -0.412,2.349 0.943,2.896 2.206,0.942 0.011,-0.014 -0.017,-0.021 -0.024,-0.034 0.414,0.089 0.823,0.185 1.281,0.204 0.211,0.008 0.758,-0.279 0.307,-0.3 -1.181,-0.054 -2.144,-0.355 -3.145,-0.956 z m 0.905,1.127 c -0.98,1.516 -1.015,0.286 -0.908,-0.629 0.406,0.198 0.819,0.39 1.239,0.502 -0.143,0.018 -0.283,0.052 -0.331,0.127 z"
             inkscape:connector-curvature="0"
             style="fill:#666666" /></g><g
           id="g13221"
           transform="matrix(0.31281603,0,0,-0.31281603,19.525994,62.702098)"
           style="fill:#666666"><path
             style="fill:#666666"
             inkscape:connector-curvature="0"
             d="m 68.497169,20.640357 c 1.103,-1.876 2.079,-4.305 1.264,-6.459 -0.813,-2.143 -3.568,-2.622 -5.548,-2.744 -4.234,-0.258 -8.741,0.374 -12.937,0.938 -1.626,0.218 -3.858,0.538 -6.211,1.062 1.595,-2.433 3.705,-7.6819999 0.57,-9.5209999 -1.222,-0.715 -2.857,-0.128 -3.996,0.438 -3.013,1.493 -5.71,4.433 -7.53,7.2099999 -1.588,2.422 -1.767,5.442 0.458,6.775 -1.239,1.351 -1.977,3.004 -1.883,5.048 0.095,2.077 1.171,4.229 2.58,5.741 1.674,1.34 3.72,2.24 5.865,2.825 l 0.077,0.746 c -1.333,-0.164 -2.534,0.068 -3.392,0.809 -0.955,0.826 -1.306,2.065 -0.918,3.235 0.032,0.097 0.075,0.21 0.133,0.333 0.024,0.051 0.062,0.111 0.091,0.166 0.042,0.079 0.08,0.155 0.135,0.239 0.039,0.062 0.096,0.126 0.142,0.189 0.063,0.083 0.12,0.167 0.195,0.252 0.06,0.067 0.136,0.131 0.205,0.198 0.085,0.085 0.166,0.169 0.267,0.252 0.082,0.066 0.186,0.128 0.278,0.195 0.112,0.079 0.22,0.159 0.352,0.234 0.105,0.062 0.235,0.114 0.355,0.17 0.145,0.07 0.287,0.142 0.452,0.205 0.135,0.051 0.294,0.092 0.442,0.136 0.183,0.057 0.362,0.115 0.567,0.159 0.164,0.036 0.353,0.058 0.532,0.087 0.181,0.029 0.343,0.068 0.542,0.089 l 1.712,23.126 -3.015,2.599 c -0.021,-0.318 -0.042,-0.608 -0.062,-0.939 l -0.042,-0.788 -5.072,5.151 -7.51,21.384 0.659,0.231 0.048,-0.137 31.406,-1.785 v 0.014 l 0.696,-0.068 -1.54,-16.467 -0.01,-0.119 -7.85,-8.272 v 0.877 c 0,0.082 -0.017,0.215 -0.038,0.349 l -2.592,-2.049 v -7.382 l 11.912,2.435 1.769,-20.027 5.285,-3.421 -4.258,-2.494 -0.604,-4.406 c 2.386,-1.906 4.469,-4.181 6.019,-6.819 z m -7.111,16.736 -1.728,19.591 -12.435,-2.544 -0.144,0.687 0.598,0.123 v 7.863 l 3.141,2.481 c -0.822,3.626 -4.285,13.551 -6.919,13.623 -0.007,0 -0.015,0 -0.023,0 -1.018,0 -2.755,-1.779 -3.541,-12.95 l 3.683,-3.175 -1.784,-24.076 -0.3,-0.022 c -2.286,-0.169 -3.921,-1.087 -4.374,-2.453 -0.297,-0.896 -0.024,-1.851 0.712,-2.487 1.171,-1.014 3.127,-0.983 5.227,0.065 l 0.314,-0.625 c -0.647,-0.324 -1.28,-0.54 -1.895,-0.685 l -0.068,-0.664 c 2.108,0.499 4.292,0.717 6.326,0.676 5.661,-0.116 10.554,-2.866 13.268,-7.757 l 0.973,7.08 0.346,-0.048 -0.488,0.119 3.734,2.19 z"
             id="path13213" /><path
             style="fill:#666666"
             inkscape:connector-curvature="0"
             d="m 59.404,34.851 c -0.059,0.042 -0.106,0.079 -0.065,0.148 0.055,0.099 0.205,0.126 0.376,0.128 0.13,0.048 0.403,0.014 0.536,-0.077 v 0 c 0.023,-0.005 0.044,0.01 0.068,0.003 0.082,-0.022 0.229,-0.072 0.232,-0.176 0,-0.083 0,-0.167 0.003,-0.251 0,-0.097 -0.226,-0.096 -0.276,-0.089 -0.386,0.044 -0.563,0.084 -0.874,0.314 z"
             id="path13215" /><path
             style="fill:#666666"
             inkscape:connector-curvature="0"
             d="m 56.095,36 c -0.078,-0.009 -0.15,-0.01 -0.226,-0.017 -0.089,-0.012 -0.181,-0.022 -0.272,-0.021 -0.004,0 -0.004,0 -0.007,0 h -0.004 c -0.034,10e-4 -0.068,0 -0.105,0 -0.089,0 -0.314,0.036 -0.379,0.145 -0.007,0.003 -0.014,0.009 -0.018,0.014 -0.007,0.012 -0.03,0.012 -0.03,0.025 0,0.146 0,0.292 0,0.438 0,0.041 0.064,0.041 0.108,0.056 0,0.019 0,0.036 0,0.053 0.008,0.031 0.027,0.053 0.055,0.065 0.045,0.019 0.086,0.039 0.13,0.058 0.175,0.08 0.506,0.06 0.632,-0.104 0.086,-0.118 0.082,-0.239 0.105,-0.355 0.035,-0.017 0.059,-0.03 0.072,-0.049 0.075,-0.026 0.153,-0.063 0.14,-0.13 -0.007,-0.025 -0.01,-0.051 -0.017,-0.077 C 56.262,36.025 56.157,36.007 56.095,36 Z"
             id="path13217" /><path
             style="fill:#666666"
             inkscape:connector-curvature="0"
             d="m 52.739,52.154 c -0.116,-0.068 -0.594,-0.031 -0.625,0.144 -0.412,2.349 0.943,2.896 2.206,0.942 0.011,-0.014 -0.017,-0.021 -0.024,-0.034 0.414,0.089 0.823,0.185 1.281,0.204 0.211,0.008 0.758,-0.279 0.307,-0.3 -1.181,-0.054 -2.144,-0.355 -3.145,-0.956 z m 0.905,1.127 c -0.98,1.516 -1.015,0.286 -0.908,-0.629 0.406,0.198 0.819,0.39 1.239,0.502 -0.143,0.018 -0.283,0.052 -0.331,0.127 z"
             id="path13219" /></g></g></g></g></svg>