<?xml version="1.0" encoding="UTF-8" standalone="no"?>
<!-- Generator: Adobe Illustrator 16.0.0, SVG Export Plug-In . SVG Version: 6.00 Build 0)  -->

<svg
   xmlns:dc="http://purl.org/dc/elements/1.1/"
   xmlns:cc="http://creativecommons.org/ns#"
   xmlns:rdf="http://www.w3.org/1999/02/22-rdf-syntax-ns#"
   xmlns:svg="http://www.w3.org/2000/svg"
   xmlns="http://www.w3.org/2000/svg"
   xmlns:sodipodi="http://sodipodi.sourceforge.net/DTD/sodipodi-0.dtd"
   xmlns:inkscape="http://www.inkscape.org/namespaces/inkscape"
   version="1.1"
   id="Layer_1"
   x="0px"
   y="0px"
   width="113.30953"
   height="59.999996"
   viewBox="0 0 113.30953 59.999999"
   enable-background="new 0 0 266.893 266.895"
   xml:space="preserve"
   inkscape:version="0.91 r13725"
   sodipodi:docname="facebook.svg"><metadata
     id="metadata9"><rdf:RDF><cc:Work
         rdf:about=""><dc:format>image/svg+xml</dc:format><dc:type
           rdf:resource="http://purl.org/dc/dcmitype/StillImage" /><dc:title></dc:title></cc:Work></rdf:RDF></metadata><defs
     id="defs7"><filter
       height="1.9599518"
       y="-0.47997588"
       width="1.9600483"
       x="-0.48002413"
       id="filter4474"
       style="color-interpolation-filters:sRGB"
       inkscape:collect="always"><feGaussianBlur
         id="feGaussianBlur4476"
         stdDeviation="6.2697849"
         inkscape:collect="always" /></filter><filter
       height="1.0574059"
       y="-0.028702978"
       width="1.0628396"
       x="-0.031419788"
       id="filter40941"
       style="color-interpolation-filters:sRGB"
       inkscape:collect="always"><feGaussianBlur
         id="feGaussianBlur40943"
         stdDeviation="0.91741647"
         inkscape:collect="always" /></filter><filter
       height="1.024"
       y="-0.012"
       width="1.024"
       x="-0.012"
       id="filter1475"
       style="color-interpolation-filters:sRGB"
       inkscape:collect="always"><feGaussianBlur
         id="feGaussianBlur1477"
         stdDeviation="0.1171875"
         inkscape:collect="always" /></filter></defs><sodipodi:namedview
     pagecolor="#ffffff"
     bordercolor="#666666"
     borderopacity="1"
     objecttolerance="10"
     gridtolerance="10"
     guidetolerance="10"
     inkscape:pageopacity="0"
     inkscape:pageshadow="2"
     inkscape:window-width="1366"
     inkscape:window-height="705"
     id="namedview5"
     showgrid="false"
     inkscape:zoom="3.5369716"
     inkscape:cx="20.017422"
     inkscape:cy="2.8393228"
     inkscape:window-x="0"
     inkscape:window-y="30"
     inkscape:window-maximized="1"
     inkscape:current-layer="Layer_1"
     fit-margin-top="0"
     fit-margin-left="0"
     fit-margin-right="0"
     fit-margin-bottom="0" /><g
     id="g4461"
     transform="translate(117.72396,-22.021901)"><g
       inkscape:export-ydpi="90"
       inkscape:export-xdpi="90"
       id="g4426"><path
         sodipodi:open="true"
         d="m 418.03595,345.14563 a 11.71875,11.71875 0 0 1 -16.57188,9.4e-4 11.71875,11.71875 0 0 1 -0.003,-16.57187 11.71875,11.71875 0 0 1 16.57188,-0.005 11.71875,11.71875 0 0 1 0.007,16.57188"
         sodipodi:end="0.78494433"
         sodipodi:start="0.78539816"
         sodipodi:ry="11.71875"
         sodipodi:rx="11.71875"
         sodipodi:cy="336.85922"
         sodipodi:cx="409.74954"
         sodipodi:type="arc"
         id="path183"
         style="opacity:1;fill:#2f3537;fill-opacity:1;stroke:none;stroke-width:0.78125;stroke-linecap:round;stroke-linejoin:round;stroke-miterlimit:4;stroke-dasharray:none;stroke-dashoffset:0;stroke-opacity:1;filter:url(#filter1475)"
         transform="matrix(2.4999998,0,0,2.4999998,-1058.7882,-790.12609)" /><path
         style="opacity:1;fill:#2f3537;fill-opacity:1;stroke:#f9f9f9;stroke-width:1.17187488;stroke-linecap:round;stroke-linejoin:round;stroke-miterlimit:4;stroke-dasharray:none;stroke-dashoffset:0;stroke-opacity:1"
         id="path185"
         sodipodi:type="arc"
         sodipodi:cx="-34.414425"
         sodipodi:cy="52.0219"
         sodipodi:rx="28.357563"
         sodipodi:ry="28.357563"
         sodipodi:start="0.78539816"
         sodipodi:end="0.78494433"
         d="m -14.3626,72.073725 a 28.357563,28.357563 0 0 1 -40.101375,0.0023 28.357563,28.357563 0 0 1 -0.0068,-40.101374 28.357563,28.357563 0 0 1 40.101374,-0.01138 28.357563,28.357563 0 0 1 0.01592,40.101372"
         sodipodi:open="true" /><path
         style="fill:#ffffff"
         inkscape:connector-curvature="0"
         id="f"
         d="m -31.511032,70.77193 0,-17.105565 5.741504,0 0.859709,-6.666342 -6.601213,0 0,-4.256039 c 0,-1.93006 0.535947,-3.245332 3.303605,-3.245332 l 3.530017,-0.0016 0,-5.96243 c -0.610503,-0.08123 -2.705957,-0.262741 -5.143856,-0.262741 -5.089524,0 -8.573949,3.106675 -8.573949,8.811843 l 0,4.916246 -5.756244,0 0,6.666343 5.756244,0 0,17.105564 6.884183,0 z" /></g><g
       inkscape:export-ydpi="90"
       inkscape:export-xdpi="90"
       id="g4450"><path
         inkscape:connector-curvature="0"
         style="clip-rule:evenodd;fill:none;fill-rule:evenodd;stroke:#000000;stroke-width:1.65804231;stroke-miterlimit:4;stroke-dasharray:none;stroke-opacity:1;filter:url(#filter40941)"
         d="m 383.52919,347.80159 c 0.003,-1.205 -0.134,-2.388 -0.513,-3.531 -1.104,-3.334 -2.96,-6.099 -6.07,-7.896 -7.226,-4.175 -14.458,-8.337 -21.667,-12.537 -1.96,-1.143 -4.048,-1.718 -6.292,-1.777 -2.474,-0.064 -4.824,0.383 -7,1.646 -7.277,4.223 -14.599,8.374 -21.843,12.654 -4.319,2.553 -6.592,6.477 -6.646,11.49 -0.088,8.382 -0.021,16.764 -0.027,25.146 -10e-4,1.291 0.158,2.553 0.586,3.77 1.14,3.24 2.981,5.927 6.028,7.682 7.17,4.13 14.342,8.258 21.487,12.428 1.877,1.096 3.855,1.744 6.012,1.861 2.635,0.145 5.141,-0.283 7.461,-1.631 7.229,-4.195 14.459,-8.387 21.712,-12.541 2.023,-1.16 3.585,-2.738 4.772,-4.713 1.146,-1.904 1.953,-3.94 1.973,-6.189 0.037,-4.416 0.011,-8.832 0.011,-13.248 l 0.012,0 c 0,-4.205 -0.005,-8.41 0.004,-12.614 z"
         id="path3676"
         transform="matrix(0.69347364,0,0,0.69347364,-333.56804,-197.91262)" /><path
         inkscape:connector-curvature="0"
         style="clip-rule:evenodd;fill-rule:evenodd;stroke-width:0.81764174"
         d="m -67.60067,43.27861 c 0.002,-0.83563 -0.0929,-1.65601 -0.35575,-2.44864 -0.7656,-2.31205 -2.05268,-4.2295 -4.20939,-5.47568 -5.01104,-2.89525 -10.02624,-5.78148 -15.02549,-8.69408 -1.35921,-0.79264 -2.80718,-1.19139 -4.36334,-1.2323 -1.71565,-0.0444 -3.34532,0.2656 -4.85432,1.14146 -5.04641,2.92854 -10.12402,5.80715 -15.14754,8.77522 -2.99511,1.77043 -4.57137,4.49162 -4.60883,7.96801 -0.061,5.81269 -0.0145,11.62539 -0.0187,17.43809 -8.2e-4,0.89527 0.10957,1.77044 0.40637,2.61439 0.79056,2.24685 2.06725,4.11022 4.18026,5.32726 4.97221,2.86405 9.9458,5.72671 14.90067,8.61849 1.30165,0.76005 2.67334,1.20943 4.16916,1.29056 1.82731,0.10056 3.56515,-0.19625 5.17401,-1.13105 5.01312,-2.90913 10.02694,-5.81617 15.0567,-8.69686 1.4029,-0.80443 2.4861,-1.89873 3.30926,-3.26834 0.79472,-1.32037 1.35435,-2.73229 1.36822,-4.29191 0.0257,-3.06237 0.007,-6.12475 0.007,-9.18713 l 0.008,0 c 0,-2.91606 -0.003,-5.83212 0.002,-8.74749 z"
         id="path4486" /><g
         transform="matrix(0.81764174,0,0,0.81764174,-437.92146,-249.06304)"
         id="g3650"
         style="fill:#ffffff;filter:url(#filter4474)"><path
           sodipodi:nodetypes="ccccssccscccscccssssssscsscsccscssscccssccsccccccccccsccsccscscsscccssccccscc"
           inkscape:connector-curvature="0"
           id="path3652"
           d="m 413.17495,373.5323 c -1.16558,-0.79319 -1.17585,-0.83382 -1.23279,-4.87808 -0.0315,-2.23946 0.0121,-3.84826 0.11352,-4.18916 0.21575,-0.72494 1.0872,-1.55567 1.80073,-1.71659 1.07507,-0.24247 2.21298,0.22624 2.77097,1.14137 0.28003,0.45926 0.30568,0.81042 0.30622,4.1923 4.1e-4,2.6099 0.0627,3.91929 0.21255,4.47028 0.11658,0.42857 0.2401,0.8851 0.27449,1.0145 0.0526,0.19788 -0.23815,0.24225 -1.82891,0.27908 -1.74954,0.0405 -1.93084,0.017 -2.41678,-0.3137 z m 1.90387,-1.95033 c 0.35593,-0.32211 0.36465,-0.64928 0.0273,-1.02209 -0.3702,-0.40907 -0.93946,-0.36092 -1.24493,0.10528 -0.23801,0.36325 -0.23801,0.42102 0,0.78426 0.29629,0.4522 0.80346,0.50741 1.21767,0.13255 z m 0.0404,-2.81023 c 0.31743,-0.31743 0.31291,-0.67496 -0.0131,-1.0352 -0.3702,-0.40906 -0.93946,-0.36092 -1.24493,0.10529 -0.23801,0.36325 -0.23801,0.42101 0,0.78426 0.29542,0.45087 0.8846,0.51908 1.25803,0.14565 z m 0,-2.82334 c 0.31743,-0.31743 0.31291,-0.67495 -0.0131,-1.03519 -0.3702,-0.40907 -0.93946,-0.36092 -1.24493,0.10529 -0.23801,0.36324 -0.23801,0.42101 0,0.78426 0.29542,0.45086 0.8846,0.51907 1.25803,0.14564 z m 13.69681,7.84101 c -0.0502,-0.0502 0.023,-0.35015 0.1626,-0.66662 0.20674,-0.46867 0.26383,-1.31731 0.30779,-4.57513 0.0319,-2.36118 0.12352,-4.17773 0.22373,-4.43424 0.38406,-0.98301 1.73014,-1.63171 2.85394,-1.37536 0.7783,0.17754 1.62701,1.00047 1.83732,1.78152 0.0995,0.36935 0.14468,2.02268 0.11461,4.19022 -0.0552,3.9789 -0.0685,4.03116 -1.22446,4.81791 -0.46469,0.31627 -0.70886,0.35292 -2.35142,0.35292 -1.00809,0 -1.87394,-0.041 -1.92411,-0.0912 z m 3.58253,-2.33999 c 0.23801,-0.36324 0.23801,-0.42101 0,-0.78426 -0.43386,-0.66215 -1.50452,-0.3831 -1.50452,0.39213 0,0.77524 1.07066,1.05429 1.50452,0.39213 z m 0,-2.82333 c 0.23801,-0.36325 0.23801,-0.42101 0,-0.78426 -0.29629,-0.4522 -0.80346,-0.5074 -1.21768,-0.13254 -0.35203,0.31859 -0.36785,0.73496 -0.0404,1.06245 0.37344,0.37343 0.96262,0.30522 1.25804,-0.14565 z m 0,-2.82333 c 0.23801,-0.36325 0.23801,-0.42102 0,-0.78426 -0.29629,-0.4522 -0.80346,-0.50741 -1.21768,-0.13255 -0.35203,0.31859 -0.36785,0.73496 -0.0404,1.06245 0.37344,0.37343 0.96262,0.30522 1.25804,-0.14564 z m -10.41237,6.24776 c -1.30261,-0.642 -1.47886,-1.35843 -1.41578,-5.75497 0.0474,-3.30063 0.0676,-3.50162 0.40867,-4.05005 0.57948,-0.93191 1.38878,-1.22673 3.36745,-1.22673 0.91842,0 1.70921,0.069 1.76153,0.15361 0.0522,0.0845 0.003,0.31388 -0.10839,0.50977 -0.14673,0.25705 -0.22514,1.53468 -0.28174,4.59116 -0.0744,4.01876 -0.096,4.26334 -0.42359,4.78996 -0.685,1.10133 -2.17466,1.54589 -3.30815,0.98725 z m 1.65776,-1.8648 c 0.74358,-0.52082 0.1425,-1.68897 -0.71489,-1.38934 -0.58648,0.20495 -0.68383,1.01992 -0.16523,1.38316 0.43895,0.30745 0.44988,0.30753 0.88012,0.006 z m 0,-2.82334 c 0.74358,-0.52082 0.1425,-1.68896 -0.71489,-1.38934 -0.5192,0.18144 -0.67252,0.97305 -0.26701,1.37856 0.31861,0.31861 0.53896,0.32103 0.9819,0.0108 z m 0,-2.82333 c 0.7808,-0.54689 0.0387,-1.74771 -0.83421,-1.34996 -0.45582,0.20768 -0.53291,0.95395 -0.13922,1.34765 0.31013,0.31013 0.5332,0.31066 0.97343,0.002 z"
           style="fill:#ffffff" /><path
           inkscape:connector-curvature="0"
           id="path3654"
           d="m 420.72497,383.73822 c -1.50796,-0.21593 -3.72818,-0.98569 -5.09504,-1.76647 -8.68406,-4.96055 -10.77182,-16.2392 -4.40879,-23.8175 4.43229,-5.27881 11.72378,-7.02945 18.14468,-4.35642 3.47038,1.44472 6.83385,4.80819 8.27857,8.27857 1.86918,4.48996 1.58333,9.77812 -0.74629,13.80606 -3.35288,5.79719 -9.54492,8.80485 -16.17313,7.85576 z"
           style="fill:#ffffff"
           sodipodi:nodetypes="sssssss" /></g><g
         id="g4442"
         transform="matrix(0.40000001,0,0,0.40000001,-78.133077,31.213142)"><path
           sodipodi:open="true"
           d="m 418.03595,345.14563 a 11.71875,11.71875 0 0 1 -16.57188,9.4e-4 11.71875,11.71875 0 0 1 -0.003,-16.57187 11.71875,11.71875 0 0 1 16.57188,-0.005 11.71875,11.71875 0 0 1 0.007,16.57188"
           sodipodi:end="0.78494433"
           sodipodi:start="0.78539816"
           sodipodi:ry="11.71875"
           sodipodi:rx="11.71875"
           sodipodi:cy="336.85922"
           sodipodi:cx="409.74954"
           sodipodi:type="arc"
           id="path4444"
           style="opacity:1;fill:#2f3537;fill-opacity:1;stroke:none;stroke-width:0.78125;stroke-linecap:round;stroke-linejoin:round;stroke-miterlimit:4;stroke-dasharray:none;stroke-dashoffset:0;stroke-opacity:1;filter:url(#filter1475)"
           transform="matrix(2.4999998,0,0,2.4999998,-1058.7882,-790.12609)" /><path
           style="opacity:1;fill:#2f3537;fill-opacity:1;stroke:#f9f9f9;stroke-width:1.17187488;stroke-linecap:round;stroke-linejoin:round;stroke-miterlimit:4;stroke-dasharray:none;stroke-dashoffset:0;stroke-opacity:1"
           id="path4446"
           sodipodi:type="arc"
           sodipodi:cx="-34.414425"
           sodipodi:cy="52.0219"
           sodipodi:rx="28.357563"
           sodipodi:ry="28.357563"
           sodipodi:start="0.78539816"
           sodipodi:end="0.78494433"
           d="m -14.3626,72.073725 a 28.357563,28.357563 0 0 1 -40.101375,0.0023 28.357563,28.357563 0 0 1 -0.0068,-40.101374 28.357563,28.357563 0 0 1 40.101374,-0.01138 28.357563,28.357563 0 0 1 0.01592,40.101372"
           sodipodi:open="true" /><path
           style="fill:#ffffff"
           inkscape:connector-curvature="0"
           id="path4448"
           d="m -31.511032,70.77193 0,-17.105565 5.741504,0 0.859709,-6.666342 -6.601213,0 0,-4.256039 c 0,-1.93006 0.535947,-3.245332 3.303605,-3.245332 l 3.530017,-0.0016 0,-5.96243 c -0.610503,-0.08123 -2.705957,-0.262741 -5.143856,-0.262741 -5.089524,0 -8.573949,3.106675 -8.573949,8.811843 l 0,4.916246 -5.756244,0 0,6.666343 5.756244,0 0,17.105564 6.884183,0 z" /></g></g></g></svg>