<?xml version="1.0" encoding="UTF-8" standalone="no"?>
<!-- Created with Inkscape (http://www.inkscape.org/) -->

<svg
   xmlns:dc="http://purl.org/dc/elements/1.1/"
   xmlns:cc="http://creativecommons.org/ns#"
   xmlns:rdf="http://www.w3.org/1999/02/22-rdf-syntax-ns#"
   xmlns:svg="http://www.w3.org/2000/svg"
   xmlns="http://www.w3.org/2000/svg"
   xmlns:sodipodi="http://sodipodi.sourceforge.net/DTD/sodipodi-0.dtd"
   xmlns:inkscape="http://www.inkscape.org/namespaces/inkscape"
   width="32.512325mm"
   height="16.933334mm"
   viewBox="0 0 115.20115 60.000002"
   id="svg3644"
   version="1.1"
   inkscape:version="0.92.2 (5c3e80d, 2017-08-06)"
   sodipodi:docname="irc.svg"
   inkscape:export-filename="/run/media/firebird/Management/5-Repositories/Websites/cosmobird.github.io/assets/pics/social/irc.png"
   inkscape:export-xdpi="90"
   inkscape:export-ydpi="90">
  <defs
     id="defs3646">
    <filter
       inkscape:collect="always"
       style="color-interpolation-filters:sRGB"
       id="filter4659"
       x="-0.4918201"
       width="1.9836402"
       y="-0.46873474"
       height="1.9374695">
      <feGaussianBlur
         inkscape:collect="always"
         stdDeviation="10.246254"
         id="feGaussianBlur4661" />
    </filter>
    <filter
       inkscape:collect="always"
       style="color-interpolation-filters:sRGB"
       id="filter39663"
       x="-0.031419788"
       width="1.0628396"
       y="-0.028702978"
       height="1.0574059">
      <feGaussianBlur
         inkscape:collect="always"
         stdDeviation="0.91741647"
         id="feGaussianBlur39665" />
    </filter>
  </defs>
  <sodipodi:namedview
     id="base"
     pagecolor="#ffffff"
     bordercolor="#666666"
     borderopacity="1.0"
     inkscape:pageopacity="0.0"
     inkscape:pageshadow="2"
     inkscape:zoom="2"
     inkscape:cx="-22.727573"
     inkscape:cy="-63.061397"
     inkscape:document-units="px"
     inkscape:current-layer="layer1"
     showgrid="false"
     inkscape:window-width="1366"
     inkscape:window-height="708"
     inkscape:window-x="0"
     inkscape:window-y="23"
     inkscape:window-maximized="1"
     fit-margin-top="0"
     fit-margin-left="0"
     fit-margin-right="0"
     fit-margin-bottom="0"
     showborder="false" />
  <metadata
     id="metadata3649">
    <rdf:RDF>
      <cc:Work
         rdf:about="">
        <dc:format>image/svg+xml</dc:format>
        <dc:type
           rdf:resource="http://purl.org/dc/dcmitype/StillImage" />
        <dc:title></dc:title>
      </cc:Work>
    </rdf:RDF>
  </metadata>
  <g
     inkscape:label="Layer 1"
     inkscape:groupmode="layer"
     id="layer1"
     transform="translate(-261.59531,-295.93184)">
    <g
       id="g39673"
       transform="matrix(0.40882087,0,0,0.40882087,192.21967,195.62329)"
       inkscape:export-xdpi="96"
       inkscape:export-ydpi="96">
      <path
         transform="matrix(1.6962775,0,0,1.6962775,-202.82115,-292.61221)"
         id="path3676"
         d="m 383.52919,347.80159 c 0.003,-1.205 -0.134,-2.388 -0.513,-3.531 -1.104,-3.334 -2.96,-6.099 -6.07,-7.896 -7.226,-4.175 -14.458,-8.337 -21.667,-12.537 -1.96,-1.143 -4.048,-1.718 -6.292,-1.777 -2.474,-0.064 -4.824,0.383 -7,1.646 -7.277,4.223 -14.599,8.374 -21.843,12.654 -4.319,2.553 -6.592,6.477 -6.646,11.49 -0.088,8.382 -0.021,16.764 -0.027,25.146 -10e-4,1.291 0.158,2.553 0.586,3.77 1.14,3.24 2.981,5.927 6.028,7.682 7.17,4.13 14.342,8.258 21.487,12.428 1.877,1.096 3.855,1.744 6.012,1.861 2.635,0.145 5.141,-0.283 7.461,-1.631 7.229,-4.195 14.459,-8.387 21.712,-12.541 2.023,-1.16 3.585,-2.738 4.772,-4.713 1.146,-1.904 1.953,-3.94 1.973,-6.189 0.037,-4.416 0.011,-8.832 0.011,-13.248 h 0.012 c 0,-4.205 -0.005,-8.41 0.004,-12.614 z"
         style="clip-rule:evenodd;fill:none;fill-rule:evenodd;stroke:#000000;stroke-width:1.65804231;stroke-miterlimit:4;stroke-dasharray:none;stroke-opacity:1;filter:url(#filter39663)"
         inkscape:connector-curvature="0" />
      <path
         id="path4486"
         d="m 447.75076,297.3558 c 0.006,-2.04402 -0.2273,-4.05072 -0.87018,-5.98954 -1.8727,-5.6554 -5.02098,-10.3456 -10.29642,-13.39382 -12.2573,-7.08196 -24.52478,-14.14186 -36.75324,-21.26624 -3.3247,-1.93884 -6.86652,-2.9142 -10.67298,-3.01428 -4.19658,-0.1086 -8.18284,0.64968 -11.87394,2.79208 -12.34382,7.16338 -24.76396,14.20464 -37.0518,21.4647 -7.3262,4.33058 -11.18184,10.98678 -11.27346,19.49022 -0.1492,14.2182 -0.0356,28.4364 -0.0458,42.6546 -0.002,2.1899 0.26802,4.3306 0.99402,6.39496 1.93376,5.49594 5.0566,10.05384 10.22516,13.0308 12.16232,7.00564 24.32802,14.00786 36.44792,21.08134 3.18392,1.85912 6.53914,2.95832 10.19802,3.15678 4.4697,0.24596 8.72056,-0.48004 12.65592,-2.76662 12.2624,-7.1159 24.52648,-14.2267 36.82958,-21.27304 3.43158,-1.96768 6.08116,-4.6444 8.09464,-7.99454 1.94394,-3.22972 3.31282,-6.68334 3.34676,-10.49826 0.0628,-7.49076 0.018,-14.98152 0.018,-22.47228 h 0.0204 c 0,-7.13286 -0.008,-14.2657 0.006,-21.39686 z"
         style="clip-rule:evenodd;fill-rule:evenodd;stroke-width:2"
         inkscape:connector-curvature="0" />
      <g
         transform="matrix(1.0666667,0,0,1.0666667,-8.29966,-32.75238)"
         style="font-style:normal;font-weight:normal;font-size:73.09065247px;line-height:125%;font-family:sans-serif;letter-spacing:0px;word-spacing:0px;fill:#ffffff;fill-opacity:1;stroke:none;stroke-width:1px;stroke-linecap:round;stroke-linejoin:round;stroke-opacity:1;filter:url(#filter4659)"
         id="g5166">
        <path
           d="m 378.55449,323.60202 h -10.38544 l -2.99786,11.92006 h 10.45682 z m -5.35332,-20.30692 -3.71163,14.81085 h 10.42113 l 3.74732,-14.81085 h 5.71021 l -3.67595,14.81085 h 11.13491 v 5.49607 h -12.52677 l -2.92648,11.92006 h 11.34903 v 5.46039 h -12.7409 l -3.71163,14.77516 h -5.71021 l 3.67595,-14.77516 h -10.45682 l -3.67594,14.77516 h -5.7459 l 3.71163,-14.77516 h -11.24197 v -5.46039 h 12.56246 l 2.99786,-11.92006 h -11.49179 v -5.49607 h 12.88365 l 3.64026,-14.81085 z"
           style="fill:#ffffff;stroke:none;stroke-linecap:round;stroke-linejoin:round;stroke-opacity:1"
           id="path5168"
           inkscape:connector-curvature="0" />
      </g>
      <g
         transform="matrix(1.0666667,0,0,1.0666667,-8.29966,-32.75238)"
         id="text5159"
         style="font-style:normal;font-weight:normal;font-size:73.09065247px;line-height:125%;font-family:sans-serif;letter-spacing:0px;word-spacing:0px;fill:#f9f9f9;fill-opacity:1;stroke:none;stroke-width:1px;stroke-linecap:round;stroke-linejoin:round;stroke-opacity:1">
        <path
           inkscape:connector-curvature="0"
           id="path5164"
           style="fill:#cccccc;stroke:none;stroke-linecap:round;stroke-linejoin:round;stroke-opacity:1"
           d="m 378.55449,323.60202 h -10.38544 l -2.99786,11.92006 h 10.45682 z m -5.35332,-20.30692 -3.71163,14.81085 h 10.42113 l 3.74732,-14.81085 h 5.71021 l -3.67595,14.81085 h 11.13491 v 5.49607 h -12.52677 l -2.92648,11.92006 h 11.34903 v 5.46039 h -12.7409 l -3.71163,14.77516 h -5.71021 l 3.67595,-14.77516 h -10.45682 l -3.67594,14.77516 h -5.7459 l 3.71163,-14.77516 h -11.24197 v -5.46039 h 12.56246 l 2.99786,-11.92006 h -11.49179 v -5.49607 h 12.88365 l 3.64026,-14.81085 z" />
      </g>
    </g>
    <g
       id="g518"
       transform="matrix(2,0,0,2,-271.9078,-469.36932)"
       inkscape:export-xdpi="96"
       inkscape:export-ydpi="96">
      <path
         d="m 278.43332,384.00238 a 14.045783,14.045783 0 0 1 16.94687,10.25051 14.045783,14.045783 0 0 1 -10.15162,17.0063 14.045783,14.045783 0 0 1 -17.06514,-10.05239 14.045783,14.045783 0 0 1 9.95281,-17.12341"
         sodipodi:open="true"
         sodipodi:end="4.4505896"
         sodipodi:start="4.4738897"
         sodipodi:ry="14.045783"
         sodipodi:rx="14.045783"
         sodipodi:cy="397.65057"
         sodipodi:cx="281.75156"
         sodipodi:type="arc"
         id="path513"
         style="opacity:1;fill:#4d4d4d;fill-opacity:1;stroke:#1a1a1a;stroke-width:1.90451288;stroke-linecap:round;stroke-linejoin:round;stroke-miterlimit:4;stroke-dasharray:none;stroke-dashoffset:0;stroke-opacity:1;paint-order:stroke fill markers" />
      <g
         inkscape:export-ydpi="90"
         inkscape:export-xdpi="90"
         transform="matrix(0.37499992,0,0,0.37499992,142.3164,274.07822)"
         id="g329"
         style="font-style:normal;font-weight:normal;font-size:73.09065247px;line-height:125%;font-family:sans-serif;letter-spacing:0px;word-spacing:0px;fill:#cccccc;fill-opacity:1;stroke:none;stroke-width:1px;stroke-linecap:round;stroke-linejoin:round;stroke-opacity:1">
        <path
           inkscape:connector-curvature="0"
           id="path327"
           style="fill:#f9f9f9;stroke:none;stroke-linecap:round;stroke-linejoin:round;stroke-opacity:1"
           d="m 378.55449,323.60202 h -10.38544 l -2.99786,11.92006 h 10.45682 z m -5.35332,-20.30692 -3.71163,14.81085 h 10.42113 l 3.74732,-14.81085 h 5.71021 l -3.67595,14.81085 h 11.13491 v 5.49607 h -12.52677 l -2.92648,11.92006 h 11.34903 v 5.46039 h -12.7409 l -3.71163,14.77516 h -5.71021 l 3.67595,-14.77516 h -10.45682 l -3.67594,14.77516 h -5.7459 l 3.71163,-14.77516 h -11.24197 v -5.46039 h 12.56246 l 2.99786,-11.92006 h -11.49179 v -5.49607 h 12.88365 l 3.64026,-14.81085 z" />
      </g>
    </g>
  </g>
</svg>
