<?xml version="1.0" encoding="UTF-8" standalone="no"?>
<!-- Created with Inkscape (http://www.inkscape.org/) -->

<svg
   xmlns:dc="http://purl.org/dc/elements/1.1/"
   xmlns:cc="http://creativecommons.org/ns#"
   xmlns:rdf="http://www.w3.org/1999/02/22-rdf-syntax-ns#"
   xmlns:svg="http://www.w3.org/2000/svg"
   xmlns="http://www.w3.org/2000/svg"
   xmlns:sodipodi="http://sodipodi.sourceforge.net/DTD/sodipodi-0.dtd"
   xmlns:inkscape="http://www.inkscape.org/namespaces/inkscape"
   width="39.356422mm"
   height="42.333332mm"
   viewBox="0 0 139.45189 149.99999"
   id="svg3644"
   version="1.1"
   inkscape:version="0.91 r13725"
   sodipodi:docname="irc.svg">
  <defs
     id="defs3646">
    <filter
       inkscape:collect="always"
       style="color-interpolation-filters:sRGB"
       id="filter4478"
       x="-0.12567915"
       width="1.2513583"
       y="-0.11481191"
       height="1.2296238">
      <feGaussianBlur
         inkscape:collect="always"
         stdDeviation="3.6696659"
         id="feGaussianBlur4480" />
    </filter>
    <filter
       inkscape:collect="always"
       style="color-interpolation-filters:sRGB"
       id="filter4156"
       x="-0.12295502"
       width="1.24591"
       y="-0.11718368"
       height="1.2343674">
      <feGaussianBlur
         inkscape:collect="always"
         stdDeviation="2.5615635"
         id="feGaussianBlur4158" />
    </filter>
  </defs>
  <sodipodi:namedview
     id="base"
     pagecolor="#ffffff"
     bordercolor="#666666"
     borderopacity="1.0"
     inkscape:pageopacity="0.0"
     inkscape:pageshadow="2"
     inkscape:zoom="4"
     inkscape:cx="48.197827"
     inkscape:cy="49.454122"
     inkscape:document-units="px"
     inkscape:current-layer="layer1"
     showgrid="false"
     inkscape:window-width="1366"
     inkscape:window-height="713"
     inkscape:window-x="0"
     inkscape:window-y="27"
     inkscape:window-maximized="1"
     fit-margin-top="0"
     fit-margin-left="0"
     fit-margin-right="0"
     fit-margin-bottom="0"
     showborder="false" />
  <metadata
     id="metadata3649">
    <rdf:RDF>
      <cc:Work
         rdf:about="">
        <dc:format>image/svg+xml</dc:format>
        <dc:type
           rdf:resource="http://purl.org/dc/dcmitype/StillImage" />
        <dc:title />
      </cc:Work>
    </rdf:RDF>
  </metadata>
  <g
     inkscape:label="Layer 1"
     inkscape:groupmode="layer"
     id="layer1"
     transform="translate(-304.6452,-257.57164)">
    <g
       id="g4160"
       inkscape:export-xdpi="90"
       inkscape:export-ydpi="90">
      <path
         transform="matrix(0.84813877,0,0,0.84813877,46.263798,61.89433)"
         id="path3676"
         d="m 383.52919,347.80159 c 0.003,-1.205 -0.134,-2.388 -0.513,-3.531 -1.104,-3.334 -2.96,-6.099 -6.07,-7.896 -7.226,-4.175 -14.458,-8.337 -21.667,-12.537 -1.96,-1.143 -4.048,-1.718 -6.292,-1.777 -2.474,-0.064 -4.824,0.383 -7,1.646 -7.277,4.223 -14.599,8.374 -21.843,12.654 -4.319,2.553 -6.592,6.477 -6.646,11.49 -0.088,8.382 -0.021,16.764 -0.027,25.146 -10e-4,1.291 0.158,2.553 0.586,3.77 1.14,3.24 2.981,5.927 6.028,7.682 7.17,4.13 14.342,8.258 21.487,12.428 1.877,1.096 3.855,1.744 6.012,1.861 2.635,0.145 5.141,-0.283 7.461,-1.631 7.229,-4.195 14.459,-8.387 21.712,-12.541 2.023,-1.16 3.585,-2.738 4.772,-4.713 1.146,-1.904 1.953,-3.94 1.973,-6.189 0.037,-4.416 0.011,-8.832 0.011,-13.248 l 0.012,0 c 0,-4.205 -0.005,-8.41 0.004,-12.614 z"
         style="clip-rule:evenodd;fill-rule:evenodd;filter:url(#filter4478)"
         inkscape:connector-curvature="0" />
      <path
         id="path4486"
         d="m 371.54977,356.87834 c 0.003,-1.02201 -0.11365,-2.02536 -0.43509,-2.99477 -0.93635,-2.8277 -2.51049,-5.1728 -5.14821,-6.69691 -6.12865,-3.54098 -12.26239,-7.07093 -18.37662,-10.63312 -1.66235,-0.96942 -3.43326,-1.4571 -5.33649,-1.50714 -2.09829,-0.0543 -4.09142,0.32484 -5.93697,1.39604 -6.17191,3.58169 -12.38198,7.10232 -18.5259,10.73235 -3.6631,2.16529 -5.59092,5.49339 -5.63673,9.74511 -0.0746,7.1091 -0.0178,14.2182 -0.0229,21.3273 -0.001,1.09495 0.13401,2.1653 0.49701,3.19748 0.96688,2.74797 2.5283,5.02692 5.11258,6.5154 6.08116,3.50282 12.16401,7.00393 18.22396,10.54067 1.59196,0.92956 3.26957,1.47916 5.09901,1.57839 2.23485,0.12298 4.36028,-0.24002 6.32796,-1.38331 6.1312,-3.55795 12.26324,-7.11335 18.41479,-10.63652 1.71579,-0.98384 3.04058,-2.3222 4.04732,-3.99727 0.97197,-1.61486 1.65641,-3.34167 1.67338,-5.24913 0.0314,-3.74538 0.009,-7.49076 0.009,-11.23614 l 0.0102,0 c 0,-3.56643 -0.004,-7.13285 0.003,-10.69843 z"
         style="clip-rule:evenodd;fill-rule:evenodd"
         inkscape:connector-curvature="0" />
      <g
         transform="matrix(0.53333333,0,0,0.53333333,143.52456,191.82425)"
         style="font-style:normal;font-weight:normal;font-size:73.09065247px;line-height:125%;font-family:sans-serif;letter-spacing:0px;word-spacing:0px;fill:#ffffff;fill-opacity:1;stroke:none;stroke-width:1px;stroke-linecap:round;stroke-linejoin:round;stroke-opacity:1;filter:url(#filter4156)"
         id="g5166">
        <path
           d="m 378.55449,323.60202 -10.38544,0 -2.99786,11.92006 10.45682,0 2.92648,-11.92006 z m -5.35332,-20.30692 -3.71163,14.81085 10.42113,0 3.74732,-14.81085 5.71021,0 -3.67595,14.81085 11.13491,0 0,5.49607 -12.52677,0 -2.92648,11.92006 11.34903,0 0,5.46039 -12.7409,0 -3.71163,14.77516 -5.71021,0 3.67595,-14.77516 -10.45682,0 -3.67594,14.77516 -5.7459,0 3.71163,-14.77516 -11.24197,0 0,-5.46039 12.56246,0 2.99786,-11.92006 -11.49179,0 0,-5.49607 12.88365,0 3.64026,-14.81085 5.78158,0 z"
           style="fill:#ffffff;stroke:none;stroke-linecap:round;stroke-linejoin:round;stroke-opacity:1"
           id="path5168"
           inkscape:connector-curvature="0" />
      </g>
      <g
         transform="matrix(0.53333333,0,0,0.53333333,143.52456,191.82425)"
         id="text5159"
         style="font-style:normal;font-weight:normal;font-size:73.09065247px;line-height:125%;font-family:sans-serif;letter-spacing:0px;word-spacing:0px;fill:#cccccc;fill-opacity:1;stroke:none;stroke-width:1px;stroke-linecap:round;stroke-linejoin:round;stroke-opacity:1">
        <path
           inkscape:connector-curvature="0"
           id="path5164"
           style="fill:#cccccc;stroke:none;stroke-linecap:round;stroke-linejoin:round;stroke-opacity:1"
           d="m 378.55449,323.60202 -10.38544,0 -2.99786,11.92006 10.45682,0 2.92648,-11.92006 z m -5.35332,-20.30692 -3.71163,14.81085 10.42113,0 3.74732,-14.81085 5.71021,0 -3.67595,14.81085 11.13491,0 0,5.49607 -12.52677,0 -2.92648,11.92006 11.34903,0 0,5.46039 -12.7409,0 -3.71163,14.77516 -5.71021,0 3.67595,-14.77516 -10.45682,0 -3.67594,14.77516 -5.7459,0 3.71163,-14.77516 -11.24197,0 0,-5.46039 12.56246,0 2.99786,-11.92006 -11.49179,0 0,-5.49607 12.88365,0 3.64026,-14.81085 5.78158,0 z" />
      </g>
    </g>
  </g>
</svg>
