<?xml version="1.0" encoding="UTF-8" standalone="no"?>
<!-- Created with Inkscape (http://www.inkscape.org/) -->

<svg
   xmlns:dc="http://purl.org/dc/elements/1.1/"
   xmlns:cc="http://creativecommons.org/ns#"
   xmlns:rdf="http://www.w3.org/1999/02/22-rdf-syntax-ns#"
   xmlns:svg="http://www.w3.org/2000/svg"
   xmlns="http://www.w3.org/2000/svg"
   xmlns:sodipodi="http://sodipodi.sourceforge.net/DTD/sodipodi-0.dtd"
   xmlns:inkscape="http://www.inkscape.org/namespaces/inkscape"
   width="39.356422mm"
   height="42.333332mm"
   viewBox="0 0 139.45189 149.99999"
   id="svg3644"
   version="1.1"
   inkscape:version="0.91 r13725"
   sodipodi:docname="irc.svg">
  <defs
     id="defs3646">
    <filter
       inkscape:collect="always"
       style="color-interpolation-filters:sRGB"
       id="filter4478"
       x="-0.12567915"
       width="1.2513583"
       y="-0.11481191"
       height="1.2296238">
      <feGaussianBlur
         inkscape:collect="always"
         stdDeviation="3.6696659"
         id="feGaussianBlur4480" />
    </filter>
    <filter
       inkscape:collect="always"
       style="color-interpolation-filters:sRGB"
       id="filter5186"
       x="-0.061477512"
       width="1.122955"
       y="-0.058591841"
       height="1.1171837">
      <feGaussianBlur
         inkscape:collect="always"
         stdDeviation="1.2807818"
         id="feGaussianBlur5188" />
    </filter>
  </defs>
  <sodipodi:namedview
     id="base"
     pagecolor="#ffffff"
     bordercolor="#666666"
     borderopacity="1.0"
     inkscape:pageopacity="0.0"
     inkscape:pageshadow="2"
     inkscape:zoom="2.1229776"
     inkscape:cx="23.45112"
     inkscape:cy="83.493545"
     inkscape:document-units="px"
     inkscape:current-layer="layer1"
     showgrid="false"
     inkscape:window-width="1366"
     inkscape:window-height="713"
     inkscape:window-x="0"
     inkscape:window-y="27"
     inkscape:window-maximized="1"
     fit-margin-top="0"
     fit-margin-left="0"
     fit-margin-right="0"
     fit-margin-bottom="0"
     showborder="false" />
  <metadata
     id="metadata3649">
    <rdf:RDF>
      <cc:Work
         rdf:about="">
        <dc:format>image/svg+xml</dc:format>
        <dc:type
           rdf:resource="http://purl.org/dc/dcmitype/StillImage" />
        <dc:title></dc:title>
      </cc:Work>
    </rdf:RDF>
  </metadata>
  <g
     inkscape:label="Layer 1"
     inkscape:groupmode="layer"
     id="layer1"
     transform="translate(-304.6452,-257.57164)">
    <g
       id="g5196">
      <path
         transform="matrix(1.5902602,0,0,1.5902602,-179.81993,-240.57332)"
         id="path3676"
         d="m 383.52919,347.80159 c 0.003,-1.205 -0.134,-2.388 -0.513,-3.531 -1.104,-3.334 -2.96,-6.099 -6.07,-7.896 -7.226,-4.175 -14.458,-8.337 -21.667,-12.537 -1.96,-1.143 -4.048,-1.718 -6.292,-1.777 -2.474,-0.064 -4.824,0.383 -7,1.646 -7.277,4.223 -14.599,8.374 -21.843,12.654 -4.319,2.553 -6.592,6.477 -6.646,11.49 -0.088,8.382 -0.021,16.764 -0.027,25.146 -10e-4,1.291 0.158,2.553 0.586,3.77 1.14,3.24 2.981,5.927 6.028,7.682 7.17,4.13 14.342,8.258 21.487,12.428 1.877,1.096 3.855,1.744 6.012,1.861 2.635,0.145 5.141,-0.283 7.461,-1.631 7.229,-4.195 14.459,-8.387 21.712,-12.541 2.023,-1.16 3.585,-2.738 4.772,-4.713 1.146,-1.904 1.953,-3.94 1.973,-6.189 0.037,-4.416 0.011,-8.832 0.011,-13.248 l 0.012,0 c 0,-4.205 -0.005,-8.41 0.004,-12.614 z"
         style="clip-rule:evenodd;fill-rule:evenodd;filter:url(#filter4478)"
         inkscape:connector-curvature="0" />
      <path
         id="path4486"
         d="m 430.09127,312.52171 c 0.005,-1.91627 -0.21309,-3.79755 -0.8158,-5.61521 -1.75565,-5.30193 -4.70717,-9.699 -9.65288,-12.5567 -11.49122,-6.63933 -22.99198,-13.258 -34.45617,-19.93709 -3.11691,-1.81767 -6.43737,-2.73207 -10.00591,-2.82589 -3.93431,-0.10178 -7.67142,0.60907 -11.13182,2.61757 -11.57233,6.71567 -23.21621,13.31684 -34.73606,20.12315 -6.86833,4.05993 -10.48299,10.30011 -10.56887,18.27209 -0.13994,13.32956 -0.0334,26.65912 -0.0429,39.98868 -0.002,2.05303 0.25126,4.05994 0.93189,5.99528 1.81289,5.15245 4.74056,9.42547 9.58609,12.21638 11.40216,6.56778 22.80751,13.13237 34.16992,19.76376 2.98492,1.74292 6.13045,2.77341 9.56064,2.95947 4.19034,0.23059 8.17553,-0.45004 11.86493,-2.59371 11.49599,-6.67115 22.99358,-13.33752 34.52773,-19.94346 3.2171,-1.8447 5.70109,-4.35413 7.58872,-7.49489 1.82244,-3.02786 3.10578,-6.26563 3.13759,-9.84212 0.0588,-7.02259 0.0175,-14.04518 0.0175,-21.06777 l 0.0191,0 c 0,-6.68705 -0.008,-13.37409 0.006,-20.05954 z"
         style="clip-rule:evenodd;fill-rule:evenodd"
         inkscape:connector-curvature="0" />
      <g
         transform="translate(2.5439907,3.0452726)"
         id="g5190">
        <g
           id="g5166"
           style="font-style:normal;font-weight:normal;font-size:73.09065247px;line-height:125%;font-family:sans-serif;letter-spacing:0px;word-spacing:0px;fill:#ffffff;fill-opacity:1;stroke:none;stroke-width:1px;stroke-linecap:round;stroke-linejoin:round;stroke-opacity:1;filter:url(#filter5186)">
          <path
             inkscape:connector-curvature="0"
             id="path5168"
             style="fill:#ffffff;stroke:none;stroke-linecap:round;stroke-linejoin:round;stroke-opacity:1"
             d="m 378.55449,323.60202 -10.38544,0 -2.99786,11.92006 10.45682,0 2.92648,-11.92006 z m -5.35332,-20.30692 -3.71163,14.81085 10.42113,0 3.74732,-14.81085 5.71021,0 -3.67595,14.81085 11.13491,0 0,5.49607 -12.52677,0 -2.92648,11.92006 11.34903,0 0,5.46039 -12.7409,0 -3.71163,14.77516 -5.71021,0 3.67595,-14.77516 -10.45682,0 -3.67594,14.77516 -5.7459,0 3.71163,-14.77516 -11.24197,0 0,-5.46039 12.56246,0 2.99786,-11.92006 -11.49179,0 0,-5.49607 12.88365,0 3.64026,-14.81085 5.78158,0 z" />
        </g>
        <g
           style="font-style:normal;font-weight:normal;font-size:73.09065247px;line-height:125%;font-family:sans-serif;letter-spacing:0px;word-spacing:0px;fill:#cccccc;fill-opacity:1;stroke:none;stroke-width:1px;stroke-linecap:round;stroke-linejoin:round;stroke-opacity:1"
           id="text5159"
           transform="translate(-1.4901164e-6,0)">
          <path
             d="m 378.55449,323.60202 -10.38544,0 -2.99786,11.92006 10.45682,0 2.92648,-11.92006 z m -5.35332,-20.30692 -3.71163,14.81085 10.42113,0 3.74732,-14.81085 5.71021,0 -3.67595,14.81085 11.13491,0 0,5.49607 -12.52677,0 -2.92648,11.92006 11.34903,0 0,5.46039 -12.7409,0 -3.71163,14.77516 -5.71021,0 3.67595,-14.77516 -10.45682,0 -3.67594,14.77516 -5.7459,0 3.71163,-14.77516 -11.24197,0 0,-5.46039 12.56246,0 2.99786,-11.92006 -11.49179,0 0,-5.49607 12.88365,0 3.64026,-14.81085 5.78158,0 z"
             style="fill:#cccccc;stroke:none;stroke-linecap:round;stroke-linejoin:round;stroke-opacity:1"
             id="path5164"
             inkscape:connector-curvature="0" />
        </g>
      </g>
    </g>
  </g>
</svg>
