<?xml version="1.0" encoding="UTF-8" standalone="no"?>
<!-- Created with Inkscape (http://www.inkscape.org/) -->

<svg
   xmlns:dc="http://purl.org/dc/elements/1.1/"
   xmlns:cc="http://creativecommons.org/ns#"
   xmlns:rdf="http://www.w3.org/1999/02/22-rdf-syntax-ns#"
   xmlns:svg="http://www.w3.org/2000/svg"
   xmlns="http://www.w3.org/2000/svg"
   xmlns:sodipodi="http://sodipodi.sourceforge.net/DTD/sodipodi-0.dtd"
   xmlns:inkscape="http://www.inkscape.org/namespaces/inkscape"
   width="56.444443mm"
   height="56.444443mm"
   viewBox="0 0 199.99999 199.99999"
   id="svg3644"
   version="1.1"
   inkscape:version="0.92.2 (5c3e80d, 2017-08-06)"
   sodipodi:docname="mail.svg">
  <defs
     id="defs3646">
    <filter
       inkscape:collect="always"
       style="color-interpolation-filters:sRGB"
       id="filter4568"
       x="-0.46564537"
       width="1.9312907"
       y="-0.49526781"
       height="1.9905356">
      <feGaussianBlur
         inkscape:collect="always"
         stdDeviation="11.435061"
         id="feGaussianBlur4570" />
    </filter>
    <filter
       inkscape:collect="always"
       style="color-interpolation-filters:sRGB"
       id="filter40295"
       x="-0.031419788"
       width="1.0628396"
       y="-0.028702978"
       height="1.057406">
      <feGaussianBlur
         inkscape:collect="always"
         stdDeviation="0.91741647"
         id="feGaussianBlur40297" />
    </filter>
    <filter
       inkscape:collect="always"
       style="color-interpolation-filters:sRGB"
       id="filter1779"
       x="-0.081487955"
       width="1.1629759"
       y="-0.08667185"
       height="1.1733437">
      <feGaussianBlur
         inkscape:collect="always"
         stdDeviation="0.54427503"
         id="feGaussianBlur1781" />
    </filter>
  </defs>
  <sodipodi:namedview
     id="base"
     pagecolor="#ffffff"
     bordercolor="#666666"
     borderopacity="1.0"
     inkscape:pageopacity="0.0"
     inkscape:pageshadow="2"
     inkscape:zoom="2.1445313"
     inkscape:cx="79.889489"
     inkscape:cy="75.160304"
     inkscape:document-units="px"
     inkscape:current-layer="layer1"
     showgrid="false"
     inkscape:window-width="1366"
     inkscape:window-height="708"
     inkscape:window-x="0"
     inkscape:window-y="23"
     inkscape:window-maximized="1"
     fit-margin-top="0"
     fit-margin-left="0"
     fit-margin-right="0"
     fit-margin-bottom="0"
     showborder="false"
     showguides="true"
     inkscape:guide-bbox="true" />
  <metadata
     id="metadata3649">
    <rdf:RDF>
      <cc:Work
         rdf:about="">
        <dc:format>image/svg+xml</dc:format>
        <dc:type
           rdf:resource="http://purl.org/dc/dcmitype/StillImage" />
        <dc:title />
      </cc:Work>
    </rdf:RDF>
  </metadata>
  <g
     inkscape:label="Layer 1"
     inkscape:groupmode="layer"
     id="layer1"
     transform="translate(-291.83236,-217.57166)">
    <g
       id="g40303"
       transform="matrix(0.40882087,0,0,0.40882087,194.2985,228.41214)"
       inkscape:export-xdpi="96"
       inkscape:export-ydpi="96">
      <path
         transform="matrix(1.6962775,0,0,1.6962775,-199.30474,-293.78297)"
         id="path3676"
         d="m 383.52919,347.80159 c 0.003,-1.205 -0.134,-2.388 -0.513,-3.531 -1.104,-3.334 -2.96,-6.099 -6.07,-7.896 -7.226,-4.175 -14.458,-8.337 -21.667,-12.537 -1.96,-1.143 -4.048,-1.718 -6.292,-1.777 -2.474,-0.064 -4.824,0.383 -7,1.646 -7.277,4.223 -14.599,8.374 -21.843,12.654 -4.319,2.553 -6.592,6.477 -6.646,11.49 -0.088,8.382 -0.021,16.764 -0.027,25.146 -10e-4,1.291 0.158,2.553 0.586,3.77 1.14,3.24 2.981,5.927 6.028,7.682 7.17,4.13 14.342,8.258 21.487,12.428 1.877,1.096 3.855,1.744 6.012,1.861 2.635,0.145 5.141,-0.283 7.461,-1.631 7.229,-4.195 14.459,-8.387 21.712,-12.541 2.023,-1.16 3.585,-2.738 4.772,-4.713 1.146,-1.904 1.953,-3.94 1.973,-6.189 0.037,-4.416 0.011,-8.832 0.011,-13.248 h 0.012 c 0,-4.205 -0.005,-8.41 0.004,-12.614 z"
         style="clip-rule:evenodd;fill:none;fill-rule:evenodd;stroke:#000000;stroke-width:1.65804231;stroke-miterlimit:4;stroke-dasharray:none;stroke-opacity:1;filter:url(#filter40295)"
         inkscape:connector-curvature="0" />
      <path
         id="path4486"
         d="m 451.26717,296.18506 c 0.006,-2.04402 -0.2273,-4.05072 -0.87018,-5.98956 -1.8727,-5.6554 -5.021,-10.3456 -10.29642,-13.39382 -12.2573,-7.08194 -24.52478,-14.14186 -36.75324,-21.26622 -3.3247,-1.93884 -6.86654,-2.9142 -10.67298,-3.01428 -4.1966,-0.1086 -8.18284,0.64968 -11.87394,2.79208 -12.34382,7.16338 -24.76394,14.20462 -37.05178,21.46468 -7.32624,4.33058 -11.18188,10.98678 -11.27348,19.49022 -0.1492,14.2182 -0.0356,28.4364 -0.0458,42.6546 -0.002,2.1899 0.268,4.3306 0.994,6.39496 1.93376,5.49596 5.0566,10.05384 10.22516,13.0308 12.16232,7.00564 24.32802,14.00788 36.44792,21.08136 3.18392,1.85912 6.53916,2.9583 10.19802,3.15676 4.4697,0.24596 8.72058,-0.48004 12.65594,-2.76662 12.26238,-7.1159 24.52648,-14.2267 36.82956,-21.27302 3.43158,-1.96768 6.08116,-4.6444 8.09464,-7.99456 1.94394,-3.22972 3.31284,-6.68332 3.34676,-10.49826 0.0626,-7.49076 0.018,-14.98152 0.018,-22.47228 h 0.0204 c 0,-7.13286 -0.008,-14.2657 0.006,-21.39684 z"
         style="clip-rule:evenodd;fill-rule:evenodd;stroke-width:2"
         inkscape:connector-curvature="0" />
      <path
         transform="matrix(1.0705415,0,0,1.0705415,7.0707877,-48.37974)"
         inkscape:connector-curvature="0"
         d="m 347.80418,349.3054 11.86485,9.8531 -0.0268,0.0229 -11.838,-9.87602 z m 11.85176,7.52047 -10.71491,-8.89765 10.69199,8.91795 0.0229,-0.0203 z m 29.22139,-23.25361 v 35.97175 h -58.93787 v -35.97502 l 6.30111,-4.13024 v -9.85965 h 15.04226 l 8.31155,-5.44783 8.20546,5.44783 h 14.77245 v 9.80726 z m -6.30438,3.89186 3.92788,-3.32606 -3.92788,-2.60767 z M 354.54013,319.5791 h 10.03123 l -4.98353,-3.30838 z m -16.51374,19.24583 10.91464,9.10329 10.69199,8.91795 0.0236,-0.0203 21.13119,-17.9957 v -8.48509 -2.14402 -6.83614 h -10.29775 -3.22914 -15.445 -3.2573 -10.5322 v 6.90359 2.13551 8.42091 z m -5.69471,-4.68818 3.90889,3.24617 v -5.808 z m 54.75984,1.84083 -27.39891,23.19991 -0.0229,-0.019 -11.86551,-9.8531 -16.0789,-13.35205 v 31.8055 h 55.36689 v -31.78127 z m -27.81606,11.38221 c -4.62728,0 -8.55058,-3.38761 -8.55058,-8.80597 0,-5.81389 4.03463,-10.83737 10.30169,-10.83737 4.91018,0 8.21201,3.44263 8.21201,8.1557 0,4.2337 -2.37127,6.71826 -5.02413,6.71826 -1.12964,0 -2.17349,-0.76226 -2.08771,-2.48456 h -0.11329 c -0.98754,1.66532 -2.28679,2.48456 -3.97961,2.48456 -1.63651,0 -3.04775,-1.32741 -3.04775,-3.55723 0,-3.49894 2.76615,-6.68748 6.68945,-6.68748 1.21216,0 2.28548,0.25409 3.01828,0.59265 l -0.95807,5.10795 c -0.42436,2.14468 -0.0858,3.13353 0.84674,3.16103 1.43874,0.0295 3.04774,-1.89059 3.04774,-5.16492 0,-4.0916 -2.45509,-7.02736 -6.83024,-7.02736 -4.59978,0 -8.4661,3.64171 -8.4661,9.36916 0,4.71307 3.07525,7.62001 7.25263,7.62001 1.609,0 3.10406,-0.33856 4.26121,-0.98753 l 0.45186,1.21412 c -1.55269,0.81792 -3.13222,1.12898 -5.02413,1.12898 z m 3.47144,-13.32192 c -0.28159,-0.0838 -0.76226,-0.19777 -1.41123,-0.19777 -2.4826,0 -4.48649,2.3418 -4.48649,5.08045 0,1.24162 0.61951,2.14468 1.8631,2.14468 1.6365,0 3.13156,-2.08771 3.44262,-3.83882 z"
         id="path5321"
         style="fill:#ffffff;filter:url(#filter4568)" />
      <path
         style="fill:none;stroke:#ececec;stroke-width:1.875;stroke-miterlimit:4;stroke-dasharray:none;stroke-opacity:1"
         id="path5301"
         d="m 379.40961,325.5662 12.7018,10.54816 -0.0286,0.0246 -12.67306,-10.57268 z m 12.6878,8.05096 -11.47076,-9.5253 11.4462,9.54704 0.0246,-0.0218 z m 31.2827,-24.89394 v 38.50926 h -63.09544 v -38.51276 l 6.7456,-4.4216 v -10.55516 h 16.10336 l 8.89786,-5.83214 8.78428,5.83214 h 15.81454 v 10.49908 z m -6.7491,4.16638 4.20496,-3.56068 -4.20496,-2.7916 z m -30.0103,-19.14664 h 10.73886 l -5.33508,-3.54176 z m -17.67864,20.60346 11.68458,9.74544 11.4462,9.54704 0.0254,-0.0218 22.62182,-19.26514 v -9.08364 -2.29526 -7.31836 h -11.02416 -3.45694 -16.5345 -3.48708 -11.27516 v 7.39056 2.28616 9.01494 z m -6.09642,-5.0189 4.18462,3.47516 v -6.2177 z m 58.62268,1.97068 -29.33168,24.83648 -0.0246,-0.0202 -12.70252,-10.54816 -17.21314,-14.29392 v 34.04912 h 59.27256 v -34.02318 z m -29.77824,12.18514 c -4.95372,0 -9.15376,-3.62658 -9.15376,-9.42716 0,-6.22402 4.31924,-11.60186 11.02838,-11.60186 5.25656,0 8.7913,3.68548 8.7913,8.73102 0,4.53236 -2.53854,7.19218 -5.37854,7.19218 -1.20932,0 -2.32682,-0.81604 -2.23498,-2.65982 h -0.1214 c -1.05722,1.78278 -2.44812,2.65982 -4.26036,2.65982 -1.75194,0 -3.26274,-1.42104 -3.26274,-3.80816 0,-3.74576 2.96128,-7.15924 7.16134,-7.15924 1.29768,0 2.4467,0.27202 3.2312,0.63448 l -1.02566,5.46826 c -0.4543,2.29598 -0.0918,3.35458 0.90646,3.38402 1.54024,0.0316 3.26274,-2.02396 3.26274,-5.52928 0,-4.38022 -2.62826,-7.52308 -7.31206,-7.52308 -4.92424,0 -9.0633,3.89862 -9.0633,10.03008 0,5.04554 3.29218,8.15754 7.76424,8.15754 1.7225,0 3.32302,-0.36244 4.5618,-1.05718 l 0.48374,1.29976 c -1.66222,0.87562 -3.35318,1.20862 -5.37854,1.20862 z m 3.71632,-14.26166 c -0.30146,-0.0898 -0.81604,-0.21172 -1.5108,-0.21172 -2.65772,0 -4.80296,2.50698 -4.80296,5.43882 0,1.32922 0.6632,2.29598 1.99452,2.29598 1.75194,0 3.35246,-2.235 3.68548,-4.10962 z"
         inkscape:connector-curvature="0" />
    </g>
    <g
       id="g190"
       transform="matrix(0.62144843,0,0,0.62144843,62.604312,142.60496)"
       inkscape:export-xdpi="96"
       inkscape:export-ydpi="96">
      <path
         style="fill:#ffffff;filter:url(#filter4568)"
         id="path178"
         d="m 347.80418,349.3054 11.86485,9.8531 -0.0268,0.0229 -11.838,-9.87602 z m 11.85176,7.52047 -10.71491,-8.89765 10.69199,8.91795 0.0229,-0.0203 z m 29.22139,-23.25361 v 35.97175 h -58.93787 v -35.97502 l 6.30111,-4.13024 v -9.85965 h 15.04226 l 8.31155,-5.44783 8.20546,5.44783 h 14.77245 v 9.80726 z m -6.30438,3.89186 3.92788,-3.32606 -3.92788,-2.60767 z M 354.54013,319.5791 h 10.03123 l -4.98353,-3.30838 z m -16.51374,19.24583 10.91464,9.10329 10.69199,8.91795 0.0236,-0.0203 21.13119,-17.9957 v -8.48509 -2.14402 -6.83614 h -10.29775 -3.22914 -15.445 -3.2573 -10.5322 v 6.90359 2.13551 8.42091 z m -5.69471,-4.68818 3.90889,3.24617 v -5.808 z m 54.75984,1.84083 -27.39891,23.19991 -0.0229,-0.019 -11.86551,-9.8531 -16.0789,-13.35205 v 31.8055 h 55.36689 v -31.78127 z m -27.81606,11.38221 c -4.62728,0 -8.55058,-3.38761 -8.55058,-8.80597 0,-5.81389 4.03463,-10.83737 10.30169,-10.83737 4.91018,0 8.21201,3.44263 8.21201,8.1557 0,4.2337 -2.37127,6.71826 -5.02413,6.71826 -1.12964,0 -2.17349,-0.76226 -2.08771,-2.48456 h -0.11329 c -0.98754,1.66532 -2.28679,2.48456 -3.97961,2.48456 -1.63651,0 -3.04775,-1.32741 -3.04775,-3.55723 0,-3.49894 2.76615,-6.68748 6.68945,-6.68748 1.21216,0 2.28548,0.25409 3.01828,0.59265 l -0.95807,5.10795 c -0.42436,2.14468 -0.0858,3.13353 0.84674,3.16103 1.43874,0.0295 3.04774,-1.89059 3.04774,-5.16492 0,-4.0916 -2.45509,-7.02736 -6.83024,-7.02736 -4.59978,0 -8.4661,3.64171 -8.4661,9.36916 0,4.71307 3.07525,7.62001 7.25263,7.62001 1.609,0 3.10406,-0.33856 4.26121,-0.98753 l 0.45186,1.21412 c -1.55269,0.81792 -3.13222,1.12898 -5.02413,1.12898 z m 3.47144,-13.32192 c -0.28159,-0.0838 -0.76226,-0.19777 -1.41123,-0.19777 -2.4826,0 -4.48649,2.3418 -4.48649,5.08045 0,1.24162 0.61951,2.14468 1.8631,2.14468 1.6365,0 3.13156,-2.08771 3.44262,-3.83882 z"
         inkscape:connector-curvature="0"
         transform="matrix(0.43765971,0,0,0.43765971,397.68156,193.79584)" />
      <path
         inkscape:connector-curvature="0"
         d="m 549.90145,346.71069 5.19276,4.31231 -0.0117,0.0101 -5.18102,-4.32233 z m 5.18703,3.2914 -4.68948,-3.89414 4.67944,3.90303 0.0101,-0.009 z m 12.78902,-10.17716 v 15.74338 h -25.79473 v -15.74482 l 2.75774,-1.80764 v -4.31517 h 6.58339 l 3.63763,-2.3843 3.5912,2.3843 h 6.46532 v 4.29225 z m -2.75917,1.7033 1.71908,-1.45568 -1.71908,-1.14127 z m -12.26883,-7.82755 h 4.39027 l -2.1811,-1.44794 z m -7.2274,8.42313 4.7769,3.98414 4.67944,3.90303 0.0104,-0.009 9.24827,-7.87599 v -3.71358 -0.93835 -2.9919 h -4.50691 -1.41327 -6.75964 -1.4256 -4.60952 v 3.02142 0.93463 3.68549 z m -2.49235,-2.05183 1.71076,1.42071 v -2.54192 z m 23.96618,0.80565 -11.9914,10.15367 -0.0101,-0.008 -5.19306,-4.3123 -7.03709,-5.84366 v 13.91999 h 24.2319 v -13.90964 z m -12.17397,4.98154 c -2.02518,0 -3.74224,-1.48262 -3.74224,-3.85402 0,-2.54451 1.76579,-4.74308 4.50863,-4.74308 2.14899,0 3.59406,1.5067 3.59406,3.56942 0,1.85292 -1.0378,2.94031 -2.19886,2.94031 -0.49439,0 -0.95125,-0.33361 -0.9137,-1.08739 h -0.0496 c -0.43222,0.72884 -1.00085,1.08739 -1.74173,1.08739 -0.71623,0 -1.33387,-0.58095 -1.33387,-1.55685 0,-1.53135 1.21063,-2.92685 2.9277,-2.92685 0.53052,0 1.00026,0.11121 1.32098,0.25939 l -0.41931,2.23554 c -0.18572,0.93864 -0.0375,1.37142 0.37058,1.38346 0.62969,0.0129 1.33388,-0.82744 1.33388,-2.26049 0,-1.79072 -1.07449,-3.07559 -2.98932,-3.07559 -2.01314,0 -3.70527,1.59384 -3.70527,4.10051 0,2.06272 1.34591,3.33497 3.17418,3.33497 0.7042,0 1.35852,-0.14817 1.86496,-0.4322 l 0.19777,0.53137 c -0.67955,0.35797 -1.37085,0.49411 -2.19886,0.49411 z m 1.51931,-5.83046 c -0.12324,-0.0367 -0.33361,-0.0866 -0.61764,-0.0866 -1.08654,0 -1.96355,1.02491 -1.96355,2.2235 0,0.54342 0.27113,0.93865 0.8154,0.93865 0.71623,0 1.37055,-0.91372 1.5067,-1.6801 z"
         id="path180"
         style="fill:none;stroke:#ececec;stroke-width:0.76653916;stroke-miterlimit:4;stroke-dasharray:none;stroke-opacity:1" />
    </g>
    <g
       id="g1786"
       transform="translate(-21.857923)"
       inkscape:export-xdpi="96"
       inkscape:export-ydpi="96">
      <path
         d="m 463.42552,343.42957 a 14.143478,14.143478 0 0 1 17.06476,10.32181 14.143478,14.143478 0 0 1 -10.22224,17.12459 14.143478,14.143478 0 0 1 -17.18384,-10.12231 14.143478,14.143478 0 0 1 10.02204,-17.24251"
         sodipodi:open="true"
         sodipodi:end="4.4505896"
         sodipodi:start="4.4738897"
         sodipodi:ry="14.143478"
         sodipodi:rx="14.143478"
         sodipodi:cy="357.1727"
         sodipodi:cx="466.76685"
         sodipodi:type="arc"
         id="path1735"
         style="opacity:1;fill:#4d4d4d;fill-opacity:1;stroke:#333333;stroke-width:1.70879626;stroke-linecap:round;stroke-linejoin:round;stroke-miterlimit:4;stroke-dasharray:none;stroke-dashoffset:0;stroke-opacity:1;paint-order:stroke fill markers" />
      <path
         inkscape:connector-curvature="0"
         d="m 463.6107,359.20381 3.22703,2.67988 -0.007,0.006 -3.21974,-2.68611 z m 3.22347,2.04544 -2.91427,-2.42001 2.90803,2.42553 0.006,-0.006 z m 7.94772,-6.32458 v 9.7837 h -16.0301 v -9.7846 l 1.71379,-1.12335 v -2.68166 h 4.09124 l 2.2606,-1.48172 2.23175,1.48172 h 4.01786 v 2.66742 z m -1.71469,1.05851 1.06832,-0.90463 -1.06832,-0.70924 z m -7.62444,-4.86442 h 2.72833 l -1.35545,-0.89982 z m -4.49146,5.23454 2.9686,2.47594 2.90803,2.42553 0.006,-0.006 5.74733,-4.89452 v -2.3078 -0.58314 -1.85931 h -2.80082 -0.87827 -4.20077 -0.88594 -2.86457 v 1.87766 0.58082 2.29035 z m -1.54886,-1.2751 1.06314,0.8829 v -1.57968 z m 14.89374,0.50067 -7.45204,6.30998 -0.006,-0.005 -3.22722,-2.67987 -4.37319,-3.63154 v 8.65056 h 15.05888 v -8.64412 z m -7.56549,3.09577 c -1.25855,0 -2.32561,-0.92137 -2.32561,-2.39508 0,-1.58128 1.09734,-2.94758 2.80188,-2.94758 1.33548,0 2.23352,0.93634 2.23352,2.21821 0,1.1515 -0.64494,1.82726 -1.36648,1.82726 -0.30724,0 -0.59115,-0.20733 -0.56781,-0.67576 h -0.0308 c -0.2686,0.45294 -0.62198,0.67576 -1.08239,0.67576 -0.4451,0 -0.82894,-0.36104 -0.82894,-0.96751 0,-0.95165 0.75235,-1.81888 1.81942,-1.81888 0.32969,0 0.62161,0.0691 0.82092,0.16119 l -0.26058,1.38928 c -0.11541,0.58331 -0.0233,0.85226 0.2303,0.85975 0.39132,0.008 0.82893,-0.51421 0.82893,-1.40478 0,-1.11284 -0.66774,-1.91132 -1.8577,-1.91132 -1.25107,0 -2.30264,0.99049 -2.30264,2.54825 0,1.28188 0.83642,2.07252 1.97259,2.07252 0.43763,0 0.84425,-0.0921 1.15898,-0.26859 l 0.1229,0.33021 c -0.4223,0.22246 -0.85191,0.30707 -1.36648,0.30707 z m 0.94417,-3.62333 c -0.0766,-0.0228 -0.20732,-0.0538 -0.38383,-0.0538 -0.67523,0 -1.22025,0.63693 -1.22025,1.38179 0,0.33771 0.1685,0.58332 0.50673,0.58332 0.4451,0 0.85173,-0.56783 0.93634,-1.04409 z"
         id="path1737"
         style="fill:none;stroke:#ececec;stroke-width:0.47636455;stroke-miterlimit:4;stroke-dasharray:none;stroke-opacity:1;filter:url(#filter1779)" />
      <path
         style="fill:none;stroke:#ececec;stroke-width:0.47636455;stroke-miterlimit:4;stroke-dasharray:none;stroke-opacity:1"
         id="path1729"
         d="m 463.6107,359.22739 3.22703,2.67988 -0.007,0.006 -3.21974,-2.68611 z m 3.22347,2.04544 -2.91427,-2.42001 2.90803,2.42553 0.006,-0.006 z m 7.94772,-6.32458 v 9.7837 h -16.0301 v -9.7846 l 1.71379,-1.12335 v -2.68166 h 4.09124 l 2.2606,-1.48172 2.23175,1.48172 h 4.01786 v 2.66742 z m -1.71469,1.05851 1.06832,-0.90463 -1.06832,-0.70924 z m -7.62444,-4.86442 h 2.72833 l -1.35545,-0.89982 z m -4.49146,5.23454 2.9686,2.47594 2.90803,2.42553 0.006,-0.006 5.74733,-4.89452 v -2.3078 -0.58314 -1.85931 h -2.80082 -0.87827 -4.20077 -0.88594 -2.86457 v 1.87766 0.58082 2.29035 z m -1.54886,-1.2751 1.06314,0.8829 V 354.405 Z m 14.89374,0.50067 -7.45204,6.30998 -0.006,-0.005 -3.22722,-2.67987 -4.37319,-3.63154 v 8.65056 h 15.05888 v -8.64412 z m -7.56549,3.09577 c -1.25855,0 -2.32561,-0.92137 -2.32561,-2.39508 0,-1.58128 1.09734,-2.94758 2.80188,-2.94758 1.33548,0 2.23352,0.93634 2.23352,2.21821 0,1.1515 -0.64494,1.82726 -1.36648,1.82726 -0.30724,0 -0.59115,-0.20733 -0.56781,-0.67576 h -0.0308 c -0.2686,0.45294 -0.62198,0.67576 -1.08239,0.67576 -0.4451,0 -0.82894,-0.36104 -0.82894,-0.96751 0,-0.95165 0.75235,-1.81888 1.81942,-1.81888 0.32969,0 0.62161,0.0691 0.82092,0.16119 l -0.26058,1.38928 c -0.11541,0.58331 -0.0233,0.85226 0.2303,0.85975 0.39132,0.008 0.82893,-0.51421 0.82893,-1.40478 0,-1.11284 -0.66774,-1.91132 -1.8577,-1.91132 -1.25107,0 -2.30264,0.99049 -2.30264,2.54825 0,1.28188 0.83642,2.07252 1.97259,2.07252 0.43763,0 0.84425,-0.0921 1.15898,-0.26859 l 0.1229,0.33021 c -0.4223,0.22246 -0.85191,0.30707 -1.36648,0.30707 z m 0.94417,-3.62333 c -0.0766,-0.0228 -0.20732,-0.0538 -0.38383,-0.0538 -0.67523,0 -1.22025,0.63693 -1.22025,1.38179 0,0.33771 0.1685,0.58332 0.50673,0.58332 0.4451,0 0.85173,-0.56783 0.93634,-1.04409 z"
         inkscape:connector-curvature="0" />
    </g>
  </g>
</svg>
