<?xml version="1.0" encoding="UTF-8" standalone="no"?>
<!-- Created with Inkscape (http://www.inkscape.org/) -->

<svg
   xmlns:dc="http://purl.org/dc/elements/1.1/"
   xmlns:cc="http://creativecommons.org/ns#"
   xmlns:rdf="http://www.w3.org/1999/02/22-rdf-syntax-ns#"
   xmlns:svg="http://www.w3.org/2000/svg"
   xmlns="http://www.w3.org/2000/svg"
   xmlns:sodipodi="http://sodipodi.sourceforge.net/DTD/sodipodi-0.dtd"
   xmlns:inkscape="http://www.inkscape.org/namespaces/inkscape"
   width="39.356422mm"
   height="42.333332mm"
   viewBox="0 0 139.45189 149.99999"
   id="svg3644"
   version="1.1"
   inkscape:version="0.91 r13725"
   sodipodi:docname="mail.svg">
  <defs
     id="defs3646">
    <filter
       inkscape:collect="always"
       style="color-interpolation-filters:sRGB"
       id="filter4478"
       x="-0.12567915"
       width="1.2513583"
       y="-0.11481191"
       height="1.2296238">
      <feGaussianBlur
         inkscape:collect="always"
         stdDeviation="3.6696659"
         id="feGaussianBlur4480" />
    </filter>
    <filter
       inkscape:collect="always"
       style="color-interpolation-filters:sRGB"
       id="filter4568"
       x="-0.46564537"
       width="1.9312907"
       y="-0.49526781"
       height="1.9905356">
      <feGaussianBlur
         inkscape:collect="always"
         stdDeviation="11.435061"
         id="feGaussianBlur4570" />
    </filter>
  </defs>
  <sodipodi:namedview
     id="base"
     pagecolor="#ffffff"
     bordercolor="#666666"
     borderopacity="1.0"
     inkscape:pageopacity="0.0"
     inkscape:pageshadow="2"
     inkscape:zoom="2.8284271"
     inkscape:cx="35.602196"
     inkscape:cy="51.047078"
     inkscape:document-units="px"
     inkscape:current-layer="layer1"
     showgrid="false"
     inkscape:window-width="1366"
     inkscape:window-height="768"
     inkscape:window-x="0"
     inkscape:window-y="0"
     inkscape:window-maximized="0"
     fit-margin-top="0"
     fit-margin-left="0"
     fit-margin-right="0"
     fit-margin-bottom="0"
     showborder="false" />
  <metadata
     id="metadata3649">
    <rdf:RDF>
      <cc:Work
         rdf:about="">
        <dc:format>image/svg+xml</dc:format>
        <dc:type
           rdf:resource="http://purl.org/dc/dcmitype/StillImage" />
        <dc:title />
      </cc:Work>
    </rdf:RDF>
  </metadata>
  <g
     inkscape:label="Layer 1"
     inkscape:groupmode="layer"
     id="layer1"
     transform="translate(-304.6452,-257.57164)">
    <g
       id="g4572"
       inkscape:export-xdpi="90"
       inkscape:export-ydpi="90">
      <path
         transform="matrix(0.84813877,0,0,0.84813877,46.26381,61.894346)"
         id="path3676"
         d="m 383.52919,347.80159 c 0.003,-1.205 -0.134,-2.388 -0.513,-3.531 -1.104,-3.334 -2.96,-6.099 -6.07,-7.896 -7.226,-4.175 -14.458,-8.337 -21.667,-12.537 -1.96,-1.143 -4.048,-1.718 -6.292,-1.777 -2.474,-0.064 -4.824,0.383 -7,1.646 -7.277,4.223 -14.599,8.374 -21.843,12.654 -4.319,2.553 -6.592,6.477 -6.646,11.49 -0.088,8.382 -0.021,16.764 -0.027,25.146 -10e-4,1.291 0.158,2.553 0.586,3.77 1.14,3.24 2.981,5.927 6.028,7.682 7.17,4.13 14.342,8.258 21.487,12.428 1.877,1.096 3.855,1.744 6.012,1.861 2.635,0.145 5.141,-0.283 7.461,-1.631 7.229,-4.195 14.459,-8.387 21.712,-12.541 2.023,-1.16 3.585,-2.738 4.772,-4.713 1.146,-1.904 1.953,-3.94 1.973,-6.189 0.037,-4.416 0.011,-8.832 0.011,-13.248 l 0.012,0 c 0,-4.205 -0.005,-8.41 0.004,-12.614 z"
         style="clip-rule:evenodd;fill-rule:evenodd;filter:url(#filter4478)"
         inkscape:connector-curvature="0" />
      <path
         id="path4486"
         d="m 371.54977,356.87836 c 0.003,-1.02201 -0.11365,-2.02536 -0.43509,-2.99478 -0.93635,-2.8277 -2.5105,-5.1728 -5.14821,-6.69691 -6.12865,-3.54097 -12.26239,-7.07093 -18.37662,-10.63311 -1.66235,-0.96942 -3.43327,-1.4571 -5.33649,-1.50714 -2.0983,-0.0543 -4.09142,0.32484 -5.93697,1.39604 -6.17191,3.58169 -12.38197,7.10231 -18.52589,10.73234 -3.66312,2.16529 -5.59094,5.49339 -5.63674,9.74511 -0.0746,7.1091 -0.0178,14.2182 -0.0229,21.3273 -10e-4,1.09495 0.134,2.1653 0.497,3.19748 0.96688,2.74798 2.5283,5.02692 5.11258,6.5154 6.08116,3.50282 12.16401,7.00394 18.22396,10.54068 1.59196,0.92956 3.26958,1.47915 5.09901,1.57838 2.23485,0.12298 4.36029,-0.24002 6.32797,-1.38331 6.13119,-3.55795 12.26324,-7.11335 18.41478,-10.63651 1.71579,-0.98384 3.04058,-2.3222 4.04732,-3.99728 0.97197,-1.61486 1.65642,-3.34166 1.67338,-5.24913 0.0313,-3.74538 0.009,-7.49076 0.009,-11.23614 l 0.0102,0 c 0,-3.56643 -0.004,-7.13285 0.003,-10.69842 z"
         style="clip-rule:evenodd;fill-rule:evenodd"
         inkscape:connector-curvature="0" />
      <path
         transform="matrix(0.53527076,0,0,0.53527076,149.45158,184.59596)"
         inkscape:connector-curvature="0"
         d="m 347.80418,349.3054 11.86485,9.8531 -0.0268,0.0229 -11.838,-9.87602 z m 11.85176,7.52047 -10.71491,-8.89765 10.69199,8.91795 0.0229,-0.0203 z m 29.22139,-23.25361 0,35.97175 -58.93787,0 0,-35.97502 6.30111,-4.13024 0,-9.85965 15.04226,0 8.31155,-5.44783 8.20546,5.44783 14.77245,0 0,9.80726 6.30504,4.1859 z m -6.30438,3.89186 3.92788,-3.32606 -3.92788,-2.60767 0,5.93373 z m -28.03282,-17.88502 10.03123,0 -4.98353,-3.30838 -5.0477,3.30838 z m -16.51374,19.24583 10.91464,9.10329 10.69199,8.91795 0.0236,-0.0203 21.13119,-17.9957 0,-8.48509 0,-2.14402 0,-6.83614 -10.29775,0 -3.22914,0 -15.445,0 -3.2573,0 -10.5322,0 0,6.90359 0,2.13551 0,8.42091 z m -5.69471,-4.68818 3.90889,3.24617 0,-5.808 -3.90889,2.56183 z m 54.75984,1.84083 -27.39891,23.19991 -0.0229,-0.019 -11.86551,-9.8531 -16.0789,-13.35205 0,31.8055 55.36689,0 0,-31.78127 z m -27.81606,11.38221 c -4.62728,0 -8.55058,-3.38761 -8.55058,-8.80597 0,-5.81389 4.03463,-10.83737 10.30169,-10.83737 4.91018,0 8.21201,3.44263 8.21201,8.1557 0,4.2337 -2.37127,6.71826 -5.02413,6.71826 -1.12964,0 -2.17349,-0.76226 -2.08771,-2.48456 l -0.11329,0 c -0.98754,1.66532 -2.28679,2.48456 -3.97961,2.48456 -1.63651,0 -3.04775,-1.32741 -3.04775,-3.55723 0,-3.49894 2.76615,-6.68748 6.68945,-6.68748 1.21216,0 2.28548,0.25409 3.01828,0.59265 l -0.95807,5.10795 c -0.42436,2.14468 -0.0858,3.13353 0.84674,3.16103 1.43874,0.0295 3.04774,-1.89059 3.04774,-5.16492 0,-4.0916 -2.45509,-7.02736 -6.83024,-7.02736 -4.59978,0 -8.4661,3.64171 -8.4661,9.36916 0,4.71307 3.07525,7.62001 7.25263,7.62001 1.609,0 3.10406,-0.33856 4.26121,-0.98753 l 0.45186,1.21412 c -1.55269,0.81792 -3.13222,1.12898 -5.02413,1.12898 z m 3.47144,-13.32192 c -0.28159,-0.0838 -0.76226,-0.19777 -1.41123,-0.19777 -2.4826,0 -4.48649,2.3418 -4.48649,5.08045 0,1.24162 0.61951,2.14468 1.8631,2.14468 1.6365,0 3.13156,-2.08771 3.44262,-3.83882 l 0.592,-3.18854 z"
         id="path5321"
         style="fill:#ffffff;filter:url(#filter4568)" />
      <path
         style="fill:#f9f9f9"
         id="path5301"
         d="m 335.62099,371.56893 6.3509,5.27408 -0.0143,0.0123 -6.33653,-5.28634 z m 6.3439,4.02548 -5.73538,-4.76265 5.7231,4.77352 0.0123,-0.0109 z m 15.64135,-12.44697 0,19.25463 -31.54772,0 0,-19.25638 3.3728,-2.2108 0,-5.27758 8.05168,0 4.44893,-2.91607 4.39214,2.91607 7.90727,0 0,5.24954 3.3749,2.24059 z m -3.37455,2.08319 2.10248,-1.78034 -2.10248,-1.3958 0,3.17614 z m -15.00515,-9.57332 5.36943,0 -2.66754,-1.77088 -2.70189,1.77088 z m -8.83932,10.30173 5.84229,4.87272 5.7231,4.77352 0.0127,-0.0109 11.31091,-9.63257 0,-4.54182 0,-1.14763 0,-3.65918 -5.51208,0 -1.72847,0 -8.26725,0 -1.74354,0 -5.63758,0 0,3.69528 0,1.14308 0,4.50747 z m -3.04821,-2.50945 2.09231,1.73758 0,-3.10885 -2.09231,1.37127 z m 29.31134,0.98534 -14.66584,12.41824 -0.0123,-0.0101 -6.35126,-5.27408 -8.60657,-7.14696 0,17.02456 29.63628,0 0,-17.01159 z m -14.88912,6.09257 c -2.47686,0 -4.57688,-1.81329 -4.57688,-4.71358 0,-3.11201 2.15962,-5.80093 5.51419,-5.80093 2.62828,0 4.39565,1.84274 4.39565,4.36551 0,2.26618 -1.26927,3.59609 -2.68927,3.59609 -0.60466,0 -1.16341,-0.40802 -1.11749,-1.32991 l -0.0607,0 c -0.52861,0.89139 -1.22406,1.32991 -2.13018,1.32991 -0.87597,0 -1.63137,-0.71052 -1.63137,-1.90408 0,-1.87288 1.48064,-3.57962 3.58067,-3.57962 0.64884,0 1.22335,0.13601 1.6156,0.31724 l -0.51283,2.73413 c -0.22715,1.14799 -0.0459,1.67729 0.45323,1.69201 0.77012,0.0158 1.63137,-1.01198 1.63137,-2.76464 0,-2.19011 -1.31413,-3.76154 -3.65603,-3.76154 -2.46212,0 -4.53165,1.94931 -4.53165,5.01504 0,2.52277 1.64609,4.07877 3.88212,4.07877 0.86125,0 1.66151,-0.18122 2.2809,-0.52859 l 0.24187,0.64988 c -0.83111,0.43781 -1.67659,0.60431 -2.68927,0.60431 z m 1.85816,-7.13083 c -0.15073,-0.0449 -0.40802,-0.10586 -0.7554,-0.10586 -1.32886,0 -2.40148,1.25349 -2.40148,2.71941 0,0.66461 0.3316,1.14799 0.99726,1.14799 0.87597,0 1.67623,-1.1175 1.84274,-2.05481 l 0.31688,-1.70673 z"
         inkscape:connector-curvature="0" />
    </g>
  </g>
</svg>
