<?xml version="1.0" encoding="UTF-8" standalone="no"?>
<!-- Created with Inkscape (http://www.inkscape.org/) -->

<svg
   xmlns:dc="http://purl.org/dc/elements/1.1/"
   xmlns:cc="http://creativecommons.org/ns#"
   xmlns:rdf="http://www.w3.org/1999/02/22-rdf-syntax-ns#"
   xmlns:svg="http://www.w3.org/2000/svg"
   xmlns="http://www.w3.org/2000/svg"
   xmlns:sodipodi="http://sodipodi.sourceforge.net/DTD/sodipodi-0.dtd"
   xmlns:inkscape="http://www.inkscape.org/namespaces/inkscape"
   width="39.356422mm"
   height="42.333332mm"
   viewBox="0 0 139.45189 149.99999"
   id="svg3644"
   version="1.1"
   inkscape:version="0.91 r13725"
   sodipodi:docname="mail.svg">
  <defs
     id="defs3646">
    <filter
       inkscape:collect="always"
       style="color-interpolation-filters:sRGB"
       id="filter4478"
       x="-0.12567915"
       width="1.2513583"
       y="-0.11481191"
       height="1.2296238">
      <feGaussianBlur
         inkscape:collect="always"
         stdDeviation="3.6696659"
         id="feGaussianBlur4480" />
    </filter>
    <filter
       inkscape:collect="always"
       style="color-interpolation-filters:sRGB"
       id="filter5351"
       x="-0.058205671"
       width="1.1164113"
       y="-0.061908476"
       height="1.123817">
      <feGaussianBlur
         inkscape:collect="always"
         stdDeviation="1.4293826"
         id="feGaussianBlur5353" />
    </filter>
  </defs>
  <sodipodi:namedview
     id="base"
     pagecolor="#ffffff"
     bordercolor="#666666"
     borderopacity="1.0"
     inkscape:pageopacity="0.0"
     inkscape:pageshadow="2"
     inkscape:zoom="2.1229776"
     inkscape:cx="18.269718"
     inkscape:cy="83.493545"
     inkscape:document-units="px"
     inkscape:current-layer="layer1"
     showgrid="false"
     inkscape:window-width="1366"
     inkscape:window-height="713"
     inkscape:window-x="0"
     inkscape:window-y="27"
     inkscape:window-maximized="1"
     fit-margin-top="0"
     fit-margin-left="0"
     fit-margin-right="0"
     fit-margin-bottom="0"
     showborder="false" />
  <metadata
     id="metadata3649">
    <rdf:RDF>
      <cc:Work
         rdf:about="">
        <dc:format>image/svg+xml</dc:format>
        <dc:type
           rdf:resource="http://purl.org/dc/dcmitype/StillImage" />
        <dc:title></dc:title>
      </cc:Work>
    </rdf:RDF>
  </metadata>
  <g
     inkscape:label="Layer 1"
     inkscape:groupmode="layer"
     id="layer1"
     transform="translate(-304.6452,-257.57164)">
    <g
       id="g5359"
       inkscape:export-xdpi="90"
       inkscape:export-ydpi="90">
      <path
         transform="matrix(1.2722082,0,0,1.2722082,-82.926903,-110.94433)"
         id="path3676"
         d="m 383.52919,347.80159 c 0.003,-1.205 -0.134,-2.388 -0.513,-3.531 -1.104,-3.334 -2.96,-6.099 -6.07,-7.896 -7.226,-4.175 -14.458,-8.337 -21.667,-12.537 -1.96,-1.143 -4.048,-1.718 -6.292,-1.777 -2.474,-0.064 -4.824,0.383 -7,1.646 -7.277,4.223 -14.599,8.374 -21.843,12.654 -4.319,2.553 -6.592,6.477 -6.646,11.49 -0.088,8.382 -0.021,16.764 -0.027,25.146 -10e-4,1.291 0.158,2.553 0.586,3.77 1.14,3.24 2.981,5.927 6.028,7.682 7.17,4.13 14.342,8.258 21.487,12.428 1.877,1.096 3.855,1.744 6.012,1.861 2.635,0.145 5.141,-0.283 7.461,-1.631 7.229,-4.195 14.459,-8.387 21.712,-12.541 2.023,-1.16 3.585,-2.738 4.772,-4.713 1.146,-1.904 1.953,-3.94 1.973,-6.189 0.037,-4.416 0.011,-8.832 0.011,-13.248 l 0.012,0 c 0,-4.205 -0.005,-8.41 0.004,-12.614 z"
         style="clip-rule:evenodd;fill-rule:evenodd;filter:url(#filter4478)"
         inkscape:connector-curvature="0" />
      <path
         id="path4486"
         d="m 405.00207,331.53171 c 0.004,-1.53302 -0.17047,-3.03804 -0.65264,-4.49217 -1.40452,-4.24155 -3.76574,-7.7592 -7.72231,-10.04536 -9.19297,-5.31147 -18.39358,-10.6064 -27.56493,-15.94967 -2.49353,-1.45414 -5.1499,-2.18566 -8.00473,-2.26072 -3.14745,-0.0814 -6.13714,0.48726 -8.90546,2.09406 -9.25786,5.37254 -18.57296,10.65347 -27.78884,16.09852 -5.49467,3.24794 -8.3864,8.24009 -8.4551,14.61767 -0.11195,10.66365 -0.0267,21.3273 -0.0343,31.99095 -0.002,1.64242 0.20101,3.24795 0.74551,4.79622 1.45031,4.12196 3.79245,7.54038 7.66887,9.7731 9.12173,5.25423 18.24601,10.5059 27.33594,15.81101 2.38794,1.39434 4.90436,2.21873 7.64851,2.36758 3.35227,0.18447 6.54043,-0.36003 9.49195,-2.07497 9.19679,-5.33692 18.39486,-10.67002 27.62218,-15.95477 2.57368,-1.47576 4.56087,-3.4833 6.07098,-5.99591 1.45795,-2.42229 2.48462,-5.0125 2.51007,-7.8737 0.047,-5.61807 0.014,-11.23614 0.014,-16.85421 l 0.0153,0 c 0,-5.34964 -0.006,-10.69927 0.005,-16.04763 z"
         style="clip-rule:evenodd;fill-rule:evenodd"
         inkscape:connector-curvature="0" />
      <g
         transform="matrix(0.80290617,0,0,0.80290617,71.854753,73.1081)"
         id="g5355">
        <path
           style="fill:#ffffff;filter:url(#filter5351)"
           id="path5321"
           d="m 347.80418,349.3054 11.86485,9.8531 -0.0268,0.0229 -11.838,-9.87602 z m 11.85176,7.52047 -10.71491,-8.89765 10.69199,8.91795 0.0229,-0.0203 z m 29.22139,-23.25361 0,35.97175 -58.93787,0 0,-35.97502 6.30111,-4.13024 0,-9.85965 15.04226,0 8.31155,-5.44783 8.20546,5.44783 14.77245,0 0,9.80726 6.30504,4.1859 z m -6.30438,3.89186 3.92788,-3.32606 -3.92788,-2.60767 0,5.93373 z m -28.03282,-17.88502 10.03123,0 -4.98353,-3.30838 -5.0477,3.30838 z m -16.51374,19.24583 10.91464,9.10329 10.69199,8.91795 0.0236,-0.0203 21.13119,-17.9957 0,-8.48509 0,-2.14402 0,-6.83614 -10.29775,0 -3.22914,0 -15.445,0 -3.2573,0 -10.5322,0 0,6.90359 0,2.13551 0,8.42091 z m -5.69471,-4.68818 3.90889,3.24617 0,-5.808 -3.90889,2.56183 z m 54.75984,1.84083 -27.39891,23.19991 -0.0229,-0.019 -11.86551,-9.8531 -16.0789,-13.35205 0,31.8055 55.36689,0 0,-31.78127 z m -27.81606,11.38221 c -4.62728,0 -8.55058,-3.38761 -8.55058,-8.80597 0,-5.81389 4.03463,-10.83737 10.30169,-10.83737 4.91018,0 8.21201,3.44263 8.21201,8.1557 0,4.2337 -2.37127,6.71826 -5.02413,6.71826 -1.12964,0 -2.17349,-0.76226 -2.08771,-2.48456 l -0.11329,0 c -0.98754,1.66532 -2.28679,2.48456 -3.97961,2.48456 -1.63651,0 -3.04775,-1.32741 -3.04775,-3.55723 0,-3.49894 2.76615,-6.68748 6.68945,-6.68748 1.21216,0 2.28548,0.25409 3.01828,0.59265 l -0.95807,5.10795 c -0.42436,2.14468 -0.0858,3.13353 0.84674,3.16103 1.43874,0.0295 3.04774,-1.89059 3.04774,-5.16492 0,-4.0916 -2.45509,-7.02736 -6.83024,-7.02736 -4.59978,0 -8.4661,3.64171 -8.4661,9.36916 0,4.71307 3.07525,7.62001 7.25263,7.62001 1.609,0 3.10406,-0.33856 4.26121,-0.98753 l 0.45186,1.21412 c -1.55269,0.81792 -3.13222,1.12898 -5.02413,1.12898 z m 3.47144,-13.32192 c -0.28159,-0.0838 -0.76226,-0.19777 -1.41123,-0.19777 -2.4826,0 -4.48649,2.3418 -4.48649,5.08045 0,1.24162 0.61951,2.14468 1.8631,2.14468 1.6365,0 3.13156,-2.08771 3.44262,-3.83882 l 0.592,-3.18854 z"
           inkscape:connector-curvature="0" />
        <path
           inkscape:connector-curvature="0"
           d="m 347.80418,349.3054 11.86485,9.8531 -0.0268,0.0229 -11.838,-9.87602 z m 11.85176,7.52047 -10.71491,-8.89765 10.69199,8.91795 0.0229,-0.0203 z m 29.22139,-23.25361 0,35.97175 -58.93787,0 0,-35.97502 6.30111,-4.13024 0,-9.85965 15.04226,0 8.31155,-5.44783 8.20546,5.44783 14.77245,0 0,9.80726 6.30504,4.1859 z m -6.30438,3.89186 3.92788,-3.32606 -3.92788,-2.60767 0,5.93373 z m -28.03282,-17.88502 10.03123,0 -4.98353,-3.30838 -5.0477,3.30838 z m -16.51374,19.24583 10.91464,9.10329 10.69199,8.91795 0.0236,-0.0203 21.13119,-17.9957 0,-8.48509 0,-2.14402 0,-6.83614 -10.29775,0 -3.22914,0 -15.445,0 -3.2573,0 -10.5322,0 0,6.90359 0,2.13551 0,8.42091 z m -5.69471,-4.68818 3.90889,3.24617 0,-5.808 -3.90889,2.56183 z m 54.75984,1.84083 -27.39891,23.19991 -0.0229,-0.019 -11.86551,-9.8531 -16.0789,-13.35205 0,31.8055 55.36689,0 0,-31.78127 z m -27.81606,11.38221 c -4.62728,0 -8.55058,-3.38761 -8.55058,-8.80597 0,-5.81389 4.03463,-10.83737 10.30169,-10.83737 4.91018,0 8.21201,3.44263 8.21201,8.1557 0,4.2337 -2.37127,6.71826 -5.02413,6.71826 -1.12964,0 -2.17349,-0.76226 -2.08771,-2.48456 l -0.11329,0 c -0.98754,1.66532 -2.28679,2.48456 -3.97961,2.48456 -1.63651,0 -3.04775,-1.32741 -3.04775,-3.55723 0,-3.49894 2.76615,-6.68748 6.68945,-6.68748 1.21216,0 2.28548,0.25409 3.01828,0.59265 l -0.95807,5.10795 c -0.42436,2.14468 -0.0858,3.13353 0.84674,3.16103 1.43874,0.0295 3.04774,-1.89059 3.04774,-5.16492 0,-4.0916 -2.45509,-7.02736 -6.83024,-7.02736 -4.59978,0 -8.4661,3.64171 -8.4661,9.36916 0,4.71307 3.07525,7.62001 7.25263,7.62001 1.609,0 3.10406,-0.33856 4.26121,-0.98753 l 0.45186,1.21412 c -1.55269,0.81792 -3.13222,1.12898 -5.02413,1.12898 z m 3.47144,-13.32192 c -0.28159,-0.0838 -0.76226,-0.19777 -1.41123,-0.19777 -2.4826,0 -4.48649,2.3418 -4.48649,5.08045 0,1.24162 0.61951,2.14468 1.8631,2.14468 1.6365,0 3.13156,-2.08771 3.44262,-3.83882 l 0.592,-3.18854 z"
           id="path5301"
           style="fill:#e6e6e6" />
      </g>
    </g>
  </g>
</svg>
