<?xml version="1.0" encoding="UTF-8" standalone="no"?>
<!-- Created with Inkscape (http://www.inkscape.org/) -->

<svg
   xmlns:dc="http://purl.org/dc/elements/1.1/"
   xmlns:cc="http://creativecommons.org/ns#"
   xmlns:rdf="http://www.w3.org/1999/02/22-rdf-syntax-ns#"
   xmlns:svg="http://www.w3.org/2000/svg"
   xmlns="http://www.w3.org/2000/svg"
   xmlns:sodipodi="http://sodipodi.sourceforge.net/DTD/sodipodi-0.dtd"
   xmlns:inkscape="http://www.inkscape.org/namespaces/inkscape"
   width="32.555408mm"
   height="16.935036mm"
   viewBox="0 0 115.35381 60.00603"
   id="svg3644"
   version="1.1"
   inkscape:version="0.91 r13725"
   sodipodi:docname="mastodon.svg">
  <defs
     id="defs3646">
    <filter
       inkscape:collect="always"
       style="color-interpolation-filters:sRGB"
       id="filter4474"
       x="-0.48002413"
       width="1.9600483"
       y="-0.47997588"
       height="1.9599518">
      <feGaussianBlur
         inkscape:collect="always"
         stdDeviation="6.2697849"
         id="feGaussianBlur4476" />
    </filter>
    <filter
       inkscape:collect="always"
       style="color-interpolation-filters:sRGB"
       id="filter40941"
       x="-0.031419788"
       width="1.0628396"
       y="-0.028702978"
       height="1.0574059">
      <feGaussianBlur
         inkscape:collect="always"
         stdDeviation="0.91741647"
         id="feGaussianBlur40943" />
    </filter>
    <filter
       inkscape:collect="always"
       style="color-interpolation-filters:sRGB"
       id="filter4351"
       x="-0.18648562"
       width="1.3729712"
       y="-0.17395033"
       height="1.3479007">
      <feGaussianBlur
         inkscape:collect="always"
         stdDeviation="16.815906"
         id="feGaussianBlur4353" />
    </filter>
  </defs>
  <sodipodi:namedview
     id="base"
     pagecolor="#ffffff"
     bordercolor="#666666"
     borderopacity="1.0"
     inkscape:pageopacity="0.0"
     inkscape:pageshadow="2"
     inkscape:zoom="2.4421874"
     inkscape:cx="118.7169"
     inkscape:cy="29.582587"
     inkscape:document-units="px"
     inkscape:current-layer="layer1"
     showgrid="false"
     inkscape:window-width="1366"
     inkscape:window-height="705"
     inkscape:window-x="0"
     inkscape:window-y="30"
     inkscape:window-maximized="1"
     fit-margin-top="0"
     fit-margin-left="0"
     fit-margin-right="0"
     fit-margin-bottom="0"
     showborder="false"
     showguides="true"
     inkscape:guide-bbox="true" />
  <metadata
     id="metadata3649">
    <rdf:RDF>
      <cc:Work
         rdf:about="">
        <dc:format>image/svg+xml</dc:format>
        <dc:type
           rdf:resource="http://purl.org/dc/dcmitype/StillImage" />
        <dc:title />
      </cc:Work>
    </rdf:RDF>
  </metadata>
  <g
     inkscape:label="Layer 1"
     inkscape:groupmode="layer"
     id="layer1"
     transform="translate(-423.34693,-304.74291)">
    <g
       transform="matrix(0.81764174,0,0,0.81764174,103.14942,33.660977)"
       id="g3650"
       style="fill:#ffffff;filter:url(#filter4474)" />
    <g
       id="g1891"
       transform="matrix(1.9140374,0,0,1.9140374,-301.31201,-370.07113)"
       inkscape:export-xdpi="96"
       inkscape:export-ydpi="96">
      <path
         style="fill:#f1f9fe"
         d="m 413.17495,373.5323 c -1.16558,-0.79319 -1.17585,-0.83382 -1.23279,-4.87808 -0.0315,-2.23946 0.0121,-3.84826 0.11352,-4.18916 0.21575,-0.72494 1.0872,-1.55567 1.80073,-1.71659 1.07507,-0.24247 2.21298,0.22624 2.77097,1.14137 0.28003,0.45926 0.30568,0.81042 0.30622,4.1923 4.1e-4,2.6099 0.0627,3.91929 0.21255,4.47028 0.11658,0.42857 0.2401,0.8851 0.27449,1.0145 0.0526,0.19788 -0.23815,0.24225 -1.82891,0.27908 -1.74954,0.0405 -1.93084,0.017 -2.41678,-0.3137 z m 1.90387,-1.95033 c 0.35593,-0.32211 0.36465,-0.64928 0.0273,-1.02209 -0.3702,-0.40907 -0.93946,-0.36092 -1.24493,0.10528 -0.23801,0.36325 -0.23801,0.42102 0,0.78426 0.29629,0.4522 0.80346,0.50741 1.21767,0.13255 z m 0.0404,-2.81023 c 0.31743,-0.31743 0.31291,-0.67496 -0.0131,-1.0352 -0.3702,-0.40906 -0.93946,-0.36092 -1.24493,0.10529 -0.23801,0.36325 -0.23801,0.42101 0,0.78426 0.29542,0.45087 0.8846,0.51908 1.25803,0.14565 z m 0,-2.82334 c 0.31743,-0.31743 0.31291,-0.67495 -0.0131,-1.03519 -0.3702,-0.40907 -0.93946,-0.36092 -1.24493,0.10529 -0.23801,0.36324 -0.23801,0.42101 0,0.78426 0.29542,0.45086 0.8846,0.51907 1.25803,0.14564 z m 13.69681,7.84101 c -0.0502,-0.0502 0.023,-0.35015 0.1626,-0.66662 0.20674,-0.46867 0.26383,-1.31731 0.30779,-4.57513 0.0319,-2.36118 0.12352,-4.17773 0.22373,-4.43424 0.38406,-0.98301 1.73014,-1.63171 2.85394,-1.37536 0.7783,0.17754 1.62701,1.00047 1.83732,1.78152 0.0995,0.36935 0.14468,2.02268 0.11461,4.19022 -0.0552,3.9789 -0.0685,4.03116 -1.22446,4.81791 -0.46469,0.31627 -0.70886,0.35292 -2.35142,0.35292 -1.00809,0 -1.87394,-0.041 -1.92411,-0.0912 z m 3.58253,-2.33999 c 0.23801,-0.36324 0.23801,-0.42101 0,-0.78426 -0.43386,-0.66215 -1.50452,-0.3831 -1.50452,0.39213 0,0.77524 1.07066,1.05429 1.50452,0.39213 z m 0,-2.82333 c 0.23801,-0.36325 0.23801,-0.42101 0,-0.78426 -0.29629,-0.4522 -0.80346,-0.5074 -1.21768,-0.13254 -0.35203,0.31859 -0.36785,0.73496 -0.0404,1.06245 0.37344,0.37343 0.96262,0.30522 1.25804,-0.14565 z m 0,-2.82333 c 0.23801,-0.36325 0.23801,-0.42102 0,-0.78426 -0.29629,-0.4522 -0.80346,-0.50741 -1.21768,-0.13255 -0.35203,0.31859 -0.36785,0.73496 -0.0404,1.06245 0.37344,0.37343 0.96262,0.30522 1.25804,-0.14564 z m -10.41237,6.24776 c -1.30261,-0.642 -1.47886,-1.35843 -1.41578,-5.75497 0.0474,-3.30063 0.0676,-3.50162 0.40867,-4.05005 0.57948,-0.93191 1.38878,-1.22673 3.36745,-1.22673 0.91842,0 1.70921,0.069 1.76153,0.15361 0.0522,0.0845 0.003,0.31388 -0.10839,0.50977 -0.14673,0.25705 -0.22514,1.53468 -0.28174,4.59116 -0.0744,4.01876 -0.096,4.26334 -0.42359,4.78996 -0.685,1.10133 -2.17466,1.54589 -3.30815,0.98725 z m 1.65776,-1.8648 c 0.74358,-0.52082 0.1425,-1.68897 -0.71489,-1.38934 -0.58648,0.20495 -0.68383,1.01992 -0.16523,1.38316 0.43895,0.30745 0.44988,0.30753 0.88012,0.006 z m 0,-2.82334 c 0.74358,-0.52082 0.1425,-1.68896 -0.71489,-1.38934 -0.5192,0.18144 -0.67252,0.97305 -0.26701,1.37856 0.31861,0.31861 0.53896,0.32103 0.9819,0.0108 z m 0,-2.82333 c 0.7808,-0.54689 0.0387,-1.74771 -0.83421,-1.34996 -0.45582,0.20768 -0.53291,0.95395 -0.13922,1.34765 0.31013,0.31013 0.5332,0.31066 0.97343,0.002 z"
         id="path1887"
         inkscape:connector-curvature="0"
         sodipodi:nodetypes="ccccssccscccscccssssssscsscsccscssscccssccsccccccccccsccsccscscsscccssccccscc" />
      <path
         style="fill:#1c9ef8"
         d="m 420.72497,383.73822 c -1.50796,-0.21593 -3.72818,-0.98569 -5.09504,-1.76647 -8.68406,-4.96055 -10.77182,-16.2392 -4.40879,-23.8175 4.43229,-5.27881 11.72378,-7.02945 18.14468,-4.35642 3.47038,1.44472 6.83385,4.80819 8.27857,8.27857 1.86918,4.48996 1.58333,9.77812 -0.74629,13.80606 -3.35288,5.79719 -9.54492,8.80485 -16.17313,7.85576 z m -3.30433,-10.1713 c -0.0344,-0.1294 -0.15791,-0.58593 -0.27449,-1.0145 -0.14988,-0.55099 -0.21214,-1.86038 -0.21255,-4.47028 -5.4e-4,-3.38188 -0.0262,-3.73304 -0.30622,-4.1923 -0.55799,-0.91513 -1.6959,-1.38384 -2.77097,-1.14137 -0.71353,0.16092 -1.58498,0.99165 -1.80073,1.71659 -0.10146,0.3409 -0.14505,1.9497 -0.11352,4.18916 0.0569,4.04426 0.0672,4.08489 1.23279,4.87808 0.48594,0.33068 0.66724,0.35422 2.41678,0.3137 1.59076,-0.0368 1.8815,-0.0812 1.82891,-0.27908 z m -3.55949,-2.1175 c -0.23801,-0.36324 -0.23801,-0.42101 0,-0.78426 0.30547,-0.4662 0.87473,-0.51435 1.24493,-0.10528 0.33739,0.37281 0.32867,0.69998 -0.0273,1.02209 -0.41421,0.37486 -0.92138,0.31965 -1.21767,-0.13255 z m 0,-2.82333 c -0.23801,-0.36325 -0.23801,-0.42101 0,-0.78426 0.30547,-0.46621 0.87473,-0.51435 1.24493,-0.10529 0.32601,0.36024 0.33053,0.71777 0.0131,1.0352 -0.37343,0.37343 -0.96261,0.30522 -1.25803,-0.14565 z m 0,-2.82333 c -0.23801,-0.36325 -0.23801,-0.42102 0,-0.78426 0.30547,-0.46621 0.87473,-0.51436 1.24493,-0.10529 0.32601,0.36024 0.33053,0.71776 0.0131,1.03519 -0.37343,0.37343 -0.96261,0.30522 -1.25803,-0.14564 z m 19.23037,7.72495 c 1.15599,-0.78675 1.16927,-0.83901 1.22446,-4.81791 0.0301,-2.16754 -0.0152,-3.82087 -0.11461,-4.19022 -0.21031,-0.78105 -1.05902,-1.60398 -1.83732,-1.78152 -1.1238,-0.25635 -2.46988,0.39235 -2.85394,1.37536 -0.10021,0.25651 -0.19187,2.07306 -0.22373,4.43424 -0.044,3.25782 -0.10105,4.10646 -0.30779,4.57513 -0.1396,0.31647 -0.21277,0.61645 -0.1626,0.66662 0.0502,0.0502 0.91602,0.0912 1.92411,0.0912 1.64256,0 1.88673,-0.0367 2.35142,-0.35292 z m -1.95104,-1.93264 c -0.50719,-0.50719 -0.12271,-1.32204 0.6238,-1.32204 0.22938,0 0.47804,0.15374 0.63424,0.39213 0.23801,0.36325 0.23801,0.42102 0,0.78426 -0.29542,0.45087 -0.8846,0.51908 -1.25804,0.14565 z m 0,-2.82333 c -0.32749,-0.32749 -0.31167,-0.74386 0.0404,-1.06245 0.41422,-0.37486 0.92139,-0.31966 1.21768,0.13254 0.23801,0.36325 0.23801,0.42101 0,0.78426 -0.29542,0.45087 -0.8846,0.51908 -1.25804,0.14565 z m 0,-2.82334 c -0.32749,-0.32749 -0.31167,-0.74386 0.0404,-1.06245 0.41422,-0.37486 0.92139,-0.31965 1.21768,0.13255 0.23801,0.36324 0.23801,0.42101 0,0.78426 -0.29542,0.45086 -0.8846,0.51907 -1.25804,0.14564 z m -6.80865,6.01677 c 0.33951,-0.19082 0.77263,-0.59668 0.96247,-0.9019 0.32754,-0.52662 0.34917,-0.7712 0.42359,-4.78996 0.0566,-3.05648 0.13501,-4.33411 0.28174,-4.59116 0.11183,-0.19589 0.1606,-0.42528 0.10839,-0.50977 -0.0523,-0.0846 -0.84311,-0.15361 -1.76153,-0.15361 -1.97867,0 -2.78797,0.29482 -3.36745,1.22673 -0.34103,0.54843 -0.36131,0.74942 -0.40867,4.05005 -0.0519,3.61805 0.0397,4.40739 0.59284,5.11066 0.71599,0.91023 2.10702,1.15561 3.16862,0.55896 z m -1.56804,-1.78563 c -0.5186,-0.36324 -0.42125,-1.17821 0.16523,-1.38316 0.85739,-0.29963 1.45847,0.86852 0.71489,1.38934 -0.43024,0.30135 -0.44117,0.30127 -0.88012,-0.006 z m -0.10178,-2.82794 c -0.40551,-0.40551 -0.25219,-1.19712 0.26701,-1.37856 0.85739,-0.29962 1.45847,0.86852 0.71489,1.38934 -0.44294,0.31025 -0.66329,0.30783 -0.9819,-0.0108 z m 0.008,-2.81486 c -0.39369,-0.3937 -0.3166,-1.13997 0.13922,-1.34765 0.87296,-0.39775 1.61501,0.80307 0.83421,1.34996 -0.44023,0.30835 -0.6633,0.30782 -0.97343,-0.002 z"
         id="path1889"
         inkscape:connector-curvature="0" />
    </g>
    <g
       id="g4361"
       inkscape:export-xdpi="96"
       inkscape:export-ydpi="96">
      <path
         transform="matrix(0.69347364,0,0,0.69347364,207.50284,84.8114)"
         id="path3676"
         d="m 383.52919,347.80159 c 0.003,-1.205 -0.134,-2.388 -0.513,-3.531 -1.104,-3.334 -2.96,-6.099 -6.07,-7.896 -7.226,-4.175 -14.458,-8.337 -21.667,-12.537 -1.96,-1.143 -4.048,-1.718 -6.292,-1.777 -2.474,-0.064 -4.824,0.383 -7,1.646 -7.277,4.223 -14.599,8.374 -21.843,12.654 -4.319,2.553 -6.592,6.477 -6.646,11.49 -0.088,8.382 -0.021,16.764 -0.027,25.146 -10e-4,1.291 0.158,2.553 0.586,3.77 1.14,3.24 2.981,5.927 6.028,7.682 7.17,4.13 14.342,8.258 21.487,12.428 1.877,1.096 3.855,1.744 6.012,1.861 2.635,0.145 5.141,-0.283 7.461,-1.631 7.229,-4.195 14.459,-8.387 21.712,-12.541 2.023,-1.16 3.585,-2.738 4.772,-4.713 1.146,-1.904 1.953,-3.94 1.973,-6.189 0.037,-4.416 0.011,-8.832 0.011,-13.248 l 0.012,0 c 0,-4.205 -0.005,-8.41 0.004,-12.614 z"
         style="clip-rule:evenodd;fill:none;fill-rule:evenodd;stroke:#000000;stroke-width:1.65804231;stroke-miterlimit:4;stroke-dasharray:none;stroke-opacity:1;filter:url(#filter40941)"
         inkscape:connector-curvature="0" />
      <path
         id="path4486"
         d="m 473.47021,326.00263 c 0.002,-0.83563 -0.0929,-1.65601 -0.35575,-2.44864 -0.7656,-2.31205 -2.05268,-4.2295 -4.20939,-5.47568 -5.01104,-2.89525 -10.02624,-5.78148 -15.02549,-8.69408 -1.35921,-0.79264 -2.80718,-1.19139 -4.36334,-1.2323 -1.71565,-0.0444 -3.34532,0.2656 -4.85432,1.14146 -5.04641,2.92854 -10.12402,5.80715 -15.14754,8.77522 -2.99511,1.77043 -4.57137,4.49162 -4.60883,7.96801 -0.061,5.81269 -0.0145,11.62539 -0.0187,17.43809 -8.2e-4,0.89527 0.10957,1.77044 0.40637,2.61439 0.79056,2.24685 2.06725,4.11022 4.18026,5.32726 4.97221,2.86405 9.9458,5.72671 14.90067,8.61849 1.30165,0.76005 2.67334,1.20943 4.16916,1.29056 1.82731,0.10056 3.56515,-0.19625 5.17401,-1.13105 5.01312,-2.90913 10.02694,-5.81617 15.0567,-8.69686 1.4029,-0.80443 2.4861,-1.89873 3.30926,-3.26834 0.79472,-1.32037 1.35435,-2.73229 1.36822,-4.29191 0.0257,-3.06237 0.007,-6.12475 0.007,-9.18713 l 0.008,0 c 0,-2.91606 -0.003,-5.83212 0.002,-8.74749 z"
         style="clip-rule:evenodd;fill-rule:evenodd;stroke-width:2"
         inkscape:connector-curvature="0" />
      <g
         style="fill:#ececec;fill-opacity:1;filter:url(#filter4351)"
         id="g3461"
         transform="matrix(0.11046949,0,0,0.11046949,437.21844,321.93092)">
        <path
           id="path3463"
           d="m 211.80734,139.0875 c -3.18125,16.36625 -28.4925,34.2775 -57.5625,37.74875 -15.15875,1.80875 -30.08375,3.47125 -45.99875,2.74125 -26.0275,-1.1925 -46.565,-6.2125 -46.565,-6.2125 0,2.53375 0.15625,4.94625 0.46875,7.2025 3.38375,25.68625 25.47,27.225 46.39125,27.9425 21.11625,0.7225 39.91875,-5.20625 39.91875,-5.20625 l 0.8675,19.09 c 0,0 -14.77,7.93125 -41.08125,9.39 -14.50875,0.7975 -32.52375,-0.365 -53.50625,-5.91875 C 9.23234,213.82 1.40609,165.31125 0.20859,116.09125 -0.15641,101.4775 0.06859,87.6975 0.06859,76.1725 0.06859,25.8425 33.04484,11.09 33.04484,11.09 49.67234,3.45375 78.20359,0.2425 107.86484,0 l 0.72875,0 c 29.66125,0.2425 58.21125,3.45375 74.8375,11.09 0,0 32.975,14.7525 32.975,65.0825 0,0 0.41375,37.13375 -4.59875,62.915"
           inkscape:connector-curvature="0"
           style="fill:#ececec;fill-opacity:1" />
        <path
           id="path3465"
           d="m 177.50984,80.077 0,60.94125 -24.14375,0 0,-59.15 c 0,-12.46875 -5.24625,-18.7975 -15.74,-18.7975 -11.6025,0 -17.4175,7.5075 -17.4175,22.3525 l 0,32.37625 -24.00125,0 0,-32.37625 c 0,-14.845 -5.81625,-22.3525 -17.41875,-22.3525 -10.49375,0 -15.74,6.32875 -15.74,18.7975 l 0,59.15 -24.14375,0 0,-60.94125 c 0,-12.455 3.17125,-22.3525 9.54125,-29.675 6.56875,-7.3225 15.17125,-11.07625 25.85,-11.07625 12.355,0 21.71125,4.74875 27.8975,14.2475 l 6.01375,10.08125 6.015,-10.08125 c 6.185,-9.49875 15.54125,-14.2475 27.8975,-14.2475 10.6775,0 19.28,3.75375 25.85,11.07625 6.36875,7.3225 9.54,17.22 9.54,29.675"
           inkscape:connector-curvature="0"
           style="fill:#ececec;fill-opacity:1" />
      </g>
      <g
         transform="matrix(0.11046949,0,0,0.11046949,437.21844,321.93092)"
         id="g3457">
        <path
           style="fill:#3088d4"
           inkscape:connector-curvature="0"
           d="m 211.80734,139.0875 c -3.18125,16.36625 -28.4925,34.2775 -57.5625,37.74875 -15.15875,1.80875 -30.08375,3.47125 -45.99875,2.74125 -26.0275,-1.1925 -46.565,-6.2125 -46.565,-6.2125 0,2.53375 0.15625,4.94625 0.46875,7.2025 3.38375,25.68625 25.47,27.225 46.39125,27.9425 21.11625,0.7225 39.91875,-5.20625 39.91875,-5.20625 l 0.8675,19.09 c 0,0 -14.77,7.93125 -41.08125,9.39 -14.50875,0.7975 -32.52375,-0.365 -53.50625,-5.91875 C 9.23234,213.82 1.40609,165.31125 0.20859,116.09125 -0.15641,101.4775 0.06859,87.6975 0.06859,76.1725 0.06859,25.8425 33.04484,11.09 33.04484,11.09 49.67234,3.45375 78.20359,0.2425 107.86484,0 l 0.72875,0 c 29.66125,0.2425 58.21125,3.45375 74.8375,11.09 0,0 32.975,14.7525 32.975,65.0825 0,0 0.41375,37.13375 -4.59875,62.915"
           id="path3447" />
        <path
           style="fill:#ffffff"
           inkscape:connector-curvature="0"
           d="m 177.50984,80.077 0,60.94125 -24.14375,0 0,-59.15 c 0,-12.46875 -5.24625,-18.7975 -15.74,-18.7975 -11.6025,0 -17.4175,7.5075 -17.4175,22.3525 l 0,32.37625 -24.00125,0 0,-32.37625 c 0,-14.845 -5.81625,-22.3525 -17.41875,-22.3525 -10.49375,0 -15.74,6.32875 -15.74,18.7975 l 0,59.15 -24.14375,0 0,-60.94125 c 0,-12.455 3.17125,-22.3525 9.54125,-29.675 6.56875,-7.3225 15.17125,-11.07625 25.85,-11.07625 12.355,0 21.71125,4.74875 27.8975,14.2475 l 6.01375,10.08125 6.015,-10.08125 c 6.185,-9.49875 15.54125,-14.2475 27.8975,-14.2475 10.6775,0 19.28,3.75375 25.85,11.07625 6.36875,7.3225 9.54,17.22 9.54,29.675"
           id="path3449" />
      </g>
    </g>
    <g
       transform="matrix(0.25860981,0,0,0.25860981,549.82241,303.53021)"
       id="g4355"
       inkscape:export-xdpi="96"
       inkscape:export-ydpi="96">
      <path
         style="fill:#3088d4"
         inkscape:connector-curvature="0"
         d="m 211.80734,139.0875 c -3.18125,16.36625 -28.4925,34.2775 -57.5625,37.74875 -15.15875,1.80875 -30.08375,3.47125 -45.99875,2.74125 -26.0275,-1.1925 -46.565,-6.2125 -46.565,-6.2125 0,2.53375 0.15625,4.94625 0.46875,7.2025 3.38375,25.68625 25.47,27.225 46.39125,27.9425 21.11625,0.7225 39.91875,-5.20625 39.91875,-5.20625 l 0.8675,19.09 c 0,0 -14.77,7.93125 -41.08125,9.39 -14.50875,0.7975 -32.52375,-0.365 -53.50625,-5.91875 C 9.23234,213.82 1.40609,165.31125 0.20859,116.09125 -0.15641,101.4775 0.06859,87.6975 0.06859,76.1725 0.06859,25.8425 33.04484,11.09 33.04484,11.09 49.67234,3.45375 78.20359,0.2425 107.86484,0 l 0.72875,0 c 29.66125,0.2425 58.21125,3.45375 74.8375,11.09 0,0 32.975,14.7525 32.975,65.0825 0,0 0.41375,37.13375 -4.59875,62.915"
         id="path4357" />
      <path
         style="fill:#ffffff"
         inkscape:connector-curvature="0"
         d="m 177.50984,80.077 0,60.94125 -24.14375,0 0,-59.15 c 0,-12.46875 -5.24625,-18.7975 -15.74,-18.7975 -11.6025,0 -17.4175,7.5075 -17.4175,22.3525 l 0,32.37625 -24.00125,0 0,-32.37625 c 0,-14.845 -5.81625,-22.3525 -17.41875,-22.3525 -10.49375,0 -15.74,6.32875 -15.74,18.7975 l 0,59.15 -24.14375,0 0,-60.94125 c 0,-12.455 3.17125,-22.3525 9.54125,-29.675 6.56875,-7.3225 15.17125,-11.07625 25.85,-11.07625 12.355,0 21.71125,4.74875 27.8975,14.2475 l 6.01375,10.08125 6.015,-10.08125 c 6.185,-9.49875 15.54125,-14.2475 27.8975,-14.2475 10.6775,0 19.28,3.75375 25.85,11.07625 6.36875,7.3225 9.54,17.22 9.54,29.675"
         id="path4359" />
    </g>
  </g>
</svg>
