<?xml version="1.0" encoding="UTF-8" standalone="no"?>
<!-- Created with Inkscape (http://www.inkscape.org/) -->

<svg
   xmlns:dc="http://purl.org/dc/elements/1.1/"
   xmlns:cc="http://creativecommons.org/ns#"
   xmlns:rdf="http://www.w3.org/1999/02/22-rdf-syntax-ns#"
   xmlns:svg="http://www.w3.org/2000/svg"
   xmlns="http://www.w3.org/2000/svg"
   xmlns:sodipodi="http://sodipodi.sourceforge.net/DTD/sodipodi-0.dtd"
   xmlns:inkscape="http://www.inkscape.org/namespaces/inkscape"
   width="39.356422mm"
   height="42.333332mm"
   viewBox="0 0 139.45189 149.99999"
   id="svg3644"
   version="1.1"
   inkscape:version="0.91 r13725"
   sodipodi:docname="mobile-phone.svg">
  <defs
     id="defs3646">
    <filter
       inkscape:collect="always"
       style="color-interpolation-filters:sRGB"
       id="filter4478"
       x="-0.12567915"
       width="1.2513583"
       y="-0.11481191"
       height="1.2296238">
      <feGaussianBlur
         inkscape:collect="always"
         stdDeviation="3.6696659"
         id="feGaussianBlur4480" />
    </filter>
    <filter
       inkscape:collect="always"
       style="color-interpolation-filters:sRGB"
       id="filter12305"
       x="-0.83531073"
       width="2.6706215"
       y="-0.33675619"
       height="1.6735124">
      <feGaussianBlur
         inkscape:collect="always"
         stdDeviation="13.750955"
         id="feGaussianBlur12307" />
    </filter>
  </defs>
  <sodipodi:namedview
     id="base"
     pagecolor="#ffffff"
     bordercolor="#666666"
     borderopacity="1.0"
     inkscape:pageopacity="0.0"
     inkscape:pageshadow="2"
     inkscape:zoom="3.2193101"
     inkscape:cx="336.79389"
     inkscape:cy="108.97741"
     inkscape:document-units="px"
     inkscape:current-layer="layer1"
     showgrid="false"
     inkscape:window-width="1366"
     inkscape:window-height="713"
     inkscape:window-x="0"
     inkscape:window-y="27"
     inkscape:window-maximized="1"
     fit-margin-top="0"
     fit-margin-left="0"
     fit-margin-right="0"
     fit-margin-bottom="0"
     showborder="false" />
  <metadata
     id="metadata3649">
    <rdf:RDF>
      <cc:Work
         rdf:about="">
        <dc:format>image/svg+xml</dc:format>
        <dc:type
           rdf:resource="http://purl.org/dc/dcmitype/StillImage" />
        <dc:title />
      </cc:Work>
    </rdf:RDF>
  </metadata>
  <g
     inkscape:label="Layer 1"
     inkscape:groupmode="layer"
     id="layer1"
     transform="translate(-304.6452,-257.57164)">
    <g
       id="g4813"
       inkscape:export-xdpi="90"
       inkscape:export-ydpi="90"
       transform="matrix(2,0,0,2,-417.72363,-396.06778)">
      <rect
         y="296.06778"
         x="417.72363"
         height="100"
         width="100"
         id="rect4244"
         style="opacity:1;fill:#ffffff;fill-opacity:1;stroke:none;stroke-width:0.65843624;stroke-linecap:round;stroke-linejoin:round;stroke-miterlimit:4;stroke-dasharray:0.65843621, 1.31687243;stroke-dashoffset:0;stroke-opacity:1" />
      <g
         transform="matrix(0.66666664,0,0,0.66666664,226.22216,115.32365)"
         inkscape:export-ydpi="90"
         inkscape:export-xdpi="90"
         id="g12309">
        <path
           inkscape:connector-curvature="0"
           style="clip-rule:evenodd;fill-rule:evenodd;filter:url(#filter4478)"
           d="m 383.52919,347.80159 c 0.003,-1.205 -0.134,-2.388 -0.513,-3.531 -1.104,-3.334 -2.96,-6.099 -6.07,-7.896 -7.226,-4.175 -14.458,-8.337 -21.667,-12.537 -1.96,-1.143 -4.048,-1.718 -6.292,-1.777 -2.474,-0.064 -4.824,0.383 -7,1.646 -7.277,4.223 -14.599,8.374 -21.843,12.654 -4.319,2.553 -6.592,6.477 -6.646,11.49 -0.088,8.382 -0.021,16.764 -0.027,25.146 -10e-4,1.291 0.158,2.553 0.586,3.77 1.14,3.24 2.981,5.927 6.028,7.682 7.17,4.13 14.342,8.258 21.487,12.428 1.877,1.096 3.855,1.744 6.012,1.861 2.635,0.145 5.141,-0.283 7.461,-1.631 7.229,-4.195 14.459,-8.387 21.712,-12.541 2.023,-1.16 3.585,-2.738 4.772,-4.713 1.146,-1.904 1.953,-3.94 1.973,-6.189 0.037,-4.416 0.011,-8.832 0.011,-13.248 l 0.012,0 c 0,-4.205 -0.005,-8.41 0.004,-12.614 z"
           id="path3676"
           transform="matrix(1.2722082,0,0,1.2722082,-81.10065,-112.39977)" />
        <path
           inkscape:connector-curvature="0"
           style="clip-rule:evenodd;fill-rule:evenodd"
           d="m 406.82832,330.07627 c 0.004,-1.53302 -0.17047,-3.03804 -0.65264,-4.49217 -1.40452,-4.24155 -3.76574,-7.7592 -7.72231,-10.04536 -9.19297,-5.31147 -18.39358,-10.6064 -27.56493,-15.94967 -2.49353,-1.45414 -5.1499,-2.18566 -8.00473,-2.26072 -3.14745,-0.0814 -6.13714,0.48726 -8.90546,2.09406 -9.25786,5.37254 -18.57296,10.65347 -27.78884,16.09852 -5.49467,3.24794 -8.3864,8.24009 -8.4551,14.61767 -0.11195,10.66365 -0.0267,21.3273 -0.0343,31.99095 -0.002,1.64242 0.20101,3.24795 0.74551,4.79622 1.45031,4.12196 3.79245,7.54038 7.66887,9.7731 9.12173,5.25423 18.24601,10.5059 27.33594,15.81101 2.38794,1.39434 4.90436,2.21873 7.64851,2.36758 3.35227,0.18447 6.54043,-0.36003 9.49195,-2.07497 9.19679,-5.33692 18.39486,-10.67002 27.62218,-15.95477 2.57368,-1.47576 4.56087,-3.4833 6.07098,-5.99591 1.45795,-2.42229 2.48462,-5.0125 2.51007,-7.8737 0.047,-5.61807 0.014,-11.23614 0.014,-16.85421 l 0.0153,0 c 0,-5.34964 -0.006,-10.69927 0.005,-16.04763 z"
           id="path4486" />
        <g
           transform="matrix(0.57848449,0,0,0.57848449,333.32771,317.19184)"
           id="g12301"
           style="fill:#ffffff;filter:url(#filter12305)">
          <path
             id="path12303"
             d="m 61.008,1.305 c -7.916,-0.377 -14.4,-0.377 -19.83,-0.15 -6.182,0.15 -10.932,3.016 -10.932,8.52 0,27.445 0,48.934 0,73.966 0,9.425 3.543,13.646 10.631,14.777 1.961,0.377 3.996,0.377 5.881,0.527 4.373,0.151 8.596,0 12.893,-0.527 7.389,-1.357 10.104,-5.881 10.104,-12.969 0,-25.032 0,-49.234 0,-75.247 C 69.754,4.773 66.287,1.606 61.008,1.305 Z m -14.551,7.037 6.861,0 c 0.828,0 0.828,1.207 -0.152,1.131 l -6.559,0 c -0.904,0 -0.83,-1.131 -0.15,-1.131 z m -10.632,6.008 28.2,0 0,34.531 -28.2,0 0,-34.531 z m -1.804,42.504 c 0,-1.284 0.999,-2.426 2.426,-2.426 l 3.354,0 c 1.428,0 2.496,1.142 2.496,2.426 l 0,5.707 c 0,1.284 -1.068,2.283 -2.496,2.283 l -3.354,0 c -1.427,0 -2.426,-0.999 -2.426,-2.283 l 0,-5.707 z m 9.846,31.625 c 0,1.071 -0.785,1.855 -1.713,1.855 l -6.491,0 c -0.856,0 -1.642,-0.784 -1.642,-1.855 l 0,-1.284 c 0,-0.927 0.785,-1.641 1.642,-1.641 l 6.491,0 c 0.928,0 1.713,0.714 1.713,1.641 l 0,1.284 z m 0.071,-5.778 c 0,0.998 -0.713,1.783 -1.639,1.783 l -6.636,0 c -0.999,0 -1.783,-0.785 -1.783,-1.783 l 0,-1.427 c 0,-1.071 0.784,-1.856 1.783,-1.856 l 6.636,0 c 0.926,0 1.639,0.785 1.639,1.856 l 0,1.427 z m 0,-6.136 c 0,0.927 -0.713,1.854 -1.639,1.854 l -6.636,0 c -0.999,0 -1.783,-0.928 -1.783,-1.854 l 0,-1.427 c 0,-0.999 0.784,-1.784 1.783,-1.784 l 6.636,0 c 0.926,0 1.639,0.785 1.639,1.784 l 0,1.427 z m 0,-6.064 c 0,1.07 -0.713,1.855 -1.639,1.855 l -6.636,0 c -0.999,0 -1.783,-0.785 -1.783,-1.855 l 0,-1.427 c 0,-0.928 0.784,-1.783 1.783,-1.783 l 6.636,0 c 0.926,0 1.639,0.855 1.639,1.783 l 0,1.427 z m 6.966,25.277 -1.959,0 c -0.83,-0.076 -0.68,-1.206 0,-1.206 l 1.959,0 c 0.754,0 0.905,1.13 0,1.206 z m 4.093,-7.156 c 0,0.928 -0.785,1.783 -1.713,1.783 l -6.635,0 c -0.999,0 -1.784,-0.855 -1.784,-1.783 l 0,-1.428 c 0,-0.999 0.785,-1.783 1.784,-1.783 l 6.635,0 c 0.928,0 1.713,0.784 1.713,1.783 l 0,1.428 z m 0,-5.921 c 0,0.998 -0.785,1.783 -1.713,1.783 l -6.635,0 c -0.999,0 -1.784,-0.785 -1.784,-1.783 l 0,-1.427 c 0,-1.071 0.785,-1.856 1.784,-1.856 l 6.635,0 c 0.928,0 1.713,0.785 1.713,1.856 l 0,1.427 z m 0,-6.136 c 0,0.927 -0.785,1.854 -1.713,1.854 l -6.635,0 c -0.999,0 -1.784,-0.928 -1.784,-1.854 l 0,-1.427 c 0,-0.999 0.785,-1.784 1.784,-1.784 l 6.635,0 c 0.928,0 1.713,0.785 1.713,1.784 l 0,1.427 z m 0,-6.064 c 0,1.07 -0.785,1.855 -1.713,1.855 l -6.635,0 c -0.999,0 -1.784,-0.785 -1.784,-1.855 l 0,-1.427 c 0,-0.928 0.785,-1.783 1.784,-1.783 l 6.635,0 c 0.928,0 1.713,0.855 1.713,1.783 l 0,1.427 z m 0.642,-9.367 c 0,2.212 -1.998,4.139 -4.138,4.139 l -2.996,0 c -2.354,0 -4.139,-1.927 -4.139,-4.139 l 0,-2.996 C 44.366,55.856 46.15,54 48.505,54 l 2.996,0 c 2.14,0 4.138,1.855 4.138,4.138 l 0,2.996 z m 10.343,27.345 c 0,1.071 -0.784,1.855 -1.854,1.855 l -6.351,0 c -0.998,0 -1.783,-0.784 -1.783,-1.855 l 0,-1.284 c 0,-0.927 0.785,-1.641 1.783,-1.641 l 6.351,0 c 1.069,0 1.854,0.714 1.854,1.641 l 0,1.284 z m 0,-5.778 c 0,0.998 -0.784,1.783 -1.712,1.783 l -6.564,0 c -0.926,0 -1.854,-0.785 -1.854,-1.783 l 0,-1.427 c 0,-1.071 0.928,-1.856 1.854,-1.856 l 6.564,0 c 0.928,0 1.712,0.785 1.712,1.856 l 0,1.427 z m 0,-6.136 c 0,0.927 -0.784,1.854 -1.712,1.854 l -6.564,0 c -0.926,0 -1.854,-0.928 -1.854,-1.854 l 0,-1.427 c 0,-0.999 0.928,-1.784 1.854,-1.784 l 6.564,0 c 0.928,0 1.712,0.785 1.712,1.784 l 0,1.427 z m 0,-6.064 c 0,1.07 -0.784,1.855 -1.712,1.855 l -6.564,0 c -0.926,0 -1.854,-0.785 -1.854,-1.855 l 0,-1.427 c 0,-0.928 0.928,-1.783 1.854,-1.783 l 6.564,0 c 0.928,0 1.712,0.855 1.712,1.783 l 0,1.427 z m 0.214,-7.94 c 0,1.284 -1.14,2.283 -2.425,2.283 l -3.496,0 c -1.284,0 -2.497,-0.999 -2.497,-2.283 l 0,-5.707 c 0,-1.284 1.213,-2.426 2.497,-2.426 l 3.496,0 c 1.285,0 2.425,1.142 2.425,2.426 l 0,5.707 z"
             inkscape:connector-curvature="0"
             style="fill:#ffffff" />
        </g>
        <g
           id="Your_Icon"
           transform="matrix(0.57848449,0,0,0.57848449,333.32771,317.19184)"
           style="fill:#e6e6e6">
          <path
             inkscape:connector-curvature="0"
             d="m 61.008,1.305 c -7.916,-0.377 -14.4,-0.377 -19.83,-0.15 -6.182,0.15 -10.932,3.016 -10.932,8.52 0,27.445 0,48.934 0,73.966 0,9.425 3.543,13.646 10.631,14.777 1.961,0.377 3.996,0.377 5.881,0.527 4.373,0.151 8.596,0 12.893,-0.527 7.389,-1.357 10.104,-5.881 10.104,-12.969 0,-25.032 0,-49.234 0,-75.247 C 69.754,4.773 66.287,1.606 61.008,1.305 Z m -14.551,7.037 6.861,0 c 0.828,0 0.828,1.207 -0.152,1.131 l -6.559,0 c -0.904,0 -0.83,-1.131 -0.15,-1.131 z m -10.632,6.008 28.2,0 0,34.531 -28.2,0 0,-34.531 z m -1.804,42.504 c 0,-1.284 0.999,-2.426 2.426,-2.426 l 3.354,0 c 1.428,0 2.496,1.142 2.496,2.426 l 0,5.707 c 0,1.284 -1.068,2.283 -2.496,2.283 l -3.354,0 c -1.427,0 -2.426,-0.999 -2.426,-2.283 l 0,-5.707 z m 9.846,31.625 c 0,1.071 -0.785,1.855 -1.713,1.855 l -6.491,0 c -0.856,0 -1.642,-0.784 -1.642,-1.855 l 0,-1.284 c 0,-0.927 0.785,-1.641 1.642,-1.641 l 6.491,0 c 0.928,0 1.713,0.714 1.713,1.641 l 0,1.284 z m 0.071,-5.778 c 0,0.998 -0.713,1.783 -1.639,1.783 l -6.636,0 c -0.999,0 -1.783,-0.785 -1.783,-1.783 l 0,-1.427 c 0,-1.071 0.784,-1.856 1.783,-1.856 l 6.636,0 c 0.926,0 1.639,0.785 1.639,1.856 l 0,1.427 z m 0,-6.136 c 0,0.927 -0.713,1.854 -1.639,1.854 l -6.636,0 c -0.999,0 -1.783,-0.928 -1.783,-1.854 l 0,-1.427 c 0,-0.999 0.784,-1.784 1.783,-1.784 l 6.636,0 c 0.926,0 1.639,0.785 1.639,1.784 l 0,1.427 z m 0,-6.064 c 0,1.07 -0.713,1.855 -1.639,1.855 l -6.636,0 c -0.999,0 -1.783,-0.785 -1.783,-1.855 l 0,-1.427 c 0,-0.928 0.784,-1.783 1.783,-1.783 l 6.636,0 c 0.926,0 1.639,0.855 1.639,1.783 l 0,1.427 z m 6.966,25.277 -1.959,0 c -0.83,-0.076 -0.68,-1.206 0,-1.206 l 1.959,0 c 0.754,0 0.905,1.13 0,1.206 z m 4.093,-7.156 c 0,0.928 -0.785,1.783 -1.713,1.783 l -6.635,0 c -0.999,0 -1.784,-0.855 -1.784,-1.783 l 0,-1.428 c 0,-0.999 0.785,-1.783 1.784,-1.783 l 6.635,0 c 0.928,0 1.713,0.784 1.713,1.783 l 0,1.428 z m 0,-5.921 c 0,0.998 -0.785,1.783 -1.713,1.783 l -6.635,0 c -0.999,0 -1.784,-0.785 -1.784,-1.783 l 0,-1.427 c 0,-1.071 0.785,-1.856 1.784,-1.856 l 6.635,0 c 0.928,0 1.713,0.785 1.713,1.856 l 0,1.427 z m 0,-6.136 c 0,0.927 -0.785,1.854 -1.713,1.854 l -6.635,0 c -0.999,0 -1.784,-0.928 -1.784,-1.854 l 0,-1.427 c 0,-0.999 0.785,-1.784 1.784,-1.784 l 6.635,0 c 0.928,0 1.713,0.785 1.713,1.784 l 0,1.427 z m 0,-6.064 c 0,1.07 -0.785,1.855 -1.713,1.855 l -6.635,0 c -0.999,0 -1.784,-0.785 -1.784,-1.855 l 0,-1.427 c 0,-0.928 0.785,-1.783 1.784,-1.783 l 6.635,0 c 0.928,0 1.713,0.855 1.713,1.783 l 0,1.427 z m 0.642,-9.367 c 0,2.212 -1.998,4.139 -4.138,4.139 l -2.996,0 c -2.354,0 -4.139,-1.927 -4.139,-4.139 l 0,-2.996 C 44.366,55.856 46.15,54 48.505,54 l 2.996,0 c 2.14,0 4.138,1.855 4.138,4.138 l 0,2.996 z m 10.343,27.345 c 0,1.071 -0.784,1.855 -1.854,1.855 l -6.351,0 c -0.998,0 -1.783,-0.784 -1.783,-1.855 l 0,-1.284 c 0,-0.927 0.785,-1.641 1.783,-1.641 l 6.351,0 c 1.069,0 1.854,0.714 1.854,1.641 l 0,1.284 z m 0,-5.778 c 0,0.998 -0.784,1.783 -1.712,1.783 l -6.564,0 c -0.926,0 -1.854,-0.785 -1.854,-1.783 l 0,-1.427 c 0,-1.071 0.928,-1.856 1.854,-1.856 l 6.564,0 c 0.928,0 1.712,0.785 1.712,1.856 l 0,1.427 z m 0,-6.136 c 0,0.927 -0.784,1.854 -1.712,1.854 l -6.564,0 c -0.926,0 -1.854,-0.928 -1.854,-1.854 l 0,-1.427 c 0,-0.999 0.928,-1.784 1.854,-1.784 l 6.564,0 c 0.928,0 1.712,0.785 1.712,1.784 l 0,1.427 z m 0,-6.064 c 0,1.07 -0.784,1.855 -1.712,1.855 l -6.564,0 c -0.926,0 -1.854,-0.785 -1.854,-1.855 l 0,-1.427 c 0,-0.928 0.928,-1.783 1.854,-1.783 l 6.564,0 c 0.928,0 1.712,0.855 1.712,1.783 l 0,1.427 z m 0.214,-7.94 c 0,1.284 -1.14,2.283 -2.425,2.283 l -3.496,0 c -1.284,0 -2.497,-0.999 -2.497,-2.283 l 0,-5.707 c 0,-1.284 1.213,-2.426 2.497,-2.426 l 3.496,0 c 1.285,0 2.425,1.142 2.425,2.426 l 0,5.707 z"
             id="path12177"
             style="fill:#e6e6e6" />
        </g>
      </g>
    </g>
  </g>
</svg>
