<?xml version="1.0" encoding="UTF-8" standalone="no"?>
<!-- Created with Inkscape (http://www.inkscape.org/) -->

<svg
   xmlns:dc="http://purl.org/dc/elements/1.1/"
   xmlns:cc="http://creativecommons.org/ns#"
   xmlns:rdf="http://www.w3.org/1999/02/22-rdf-syntax-ns#"
   xmlns:svg="http://www.w3.org/2000/svg"
   xmlns="http://www.w3.org/2000/svg"
   xmlns:sodipodi="http://sodipodi.sourceforge.net/DTD/sodipodi-0.dtd"
   xmlns:inkscape="http://www.inkscape.org/namespaces/inkscape"
   width="14.576842mm"
   height="15.875001mm"
   viewBox="0 0 14.576842 15.875001"
   version="1.1"
   id="svg54"
   inkscape:version="0.92.2 (5c3e80d, 2017-08-06)"
   sodipodi:docname="twitter.svg">
  <defs
     id="defs48">
    <filter
       inkscape:collect="always"
       style="color-interpolation-filters:sRGB"
       id="filter40941"
       x="-0.031419788"
       width="1.0628396"
       y="-0.028702978"
       height="1.0574059">
      <feGaussianBlur
         inkscape:collect="always"
         stdDeviation="0.91741647"
         id="feGaussianBlur40943" />
    </filter>
    <filter
       inkscape:collect="always"
       style="color-interpolation-filters:sRGB"
       id="filter4474"
       x="-0.48002413"
       width="1.9600483"
       y="-0.47997588"
       height="1.9599518">
      <feGaussianBlur
         inkscape:collect="always"
         stdDeviation="6.2697849"
         id="feGaussianBlur4476" />
    </filter>
  </defs>
  <sodipodi:namedview
     id="base"
     pagecolor="#ffffff"
     bordercolor="#666666"
     borderopacity="1.0"
     inkscape:pageopacity="0.0"
     inkscape:pageshadow="2"
     inkscape:zoom="6.375746"
     inkscape:cx="9.9713707"
     inkscape:cy="35.394344"
     inkscape:document-units="mm"
     inkscape:current-layer="layer1"
     showgrid="false"
     showborder="false"
     fit-margin-top="0"
     fit-margin-left="0"
     fit-margin-right="0"
     fit-margin-bottom="0"
     inkscape:window-width="1366"
     inkscape:window-height="708"
     inkscape:window-x="0"
     inkscape:window-y="23"
     inkscape:window-maximized="1" />
  <metadata
     id="metadata51">
    <rdf:RDF>
      <cc:Work
         rdf:about="">
        <dc:format>image/svg+xml</dc:format>
        <dc:type
           rdf:resource="http://purl.org/dc/dcmitype/StillImage" />
        <dc:title />
      </cc:Work>
    </rdf:RDF>
  </metadata>
  <g
     inkscape:label="Layer 1"
     inkscape:groupmode="layer"
     id="layer1"
     transform="translate(-141.6342,-156.77083)">
    <g
       id="g1150">
      <g
         id="g1137">
        <path
           inkscape:connector-curvature="0"
           style="clip-rule:evenodd;fill:none;fill-rule:evenodd;stroke:#000000;stroke-width:1.65804231;stroke-miterlimit:4;stroke-dasharray:none;stroke-opacity:1;filter:url(#filter40941)"
           d="m 383.52919,347.80159 c 0.003,-1.205 -0.134,-2.388 -0.513,-3.531 -1.104,-3.334 -2.96,-6.099 -6.07,-7.896 -7.226,-4.175 -14.458,-8.337 -21.667,-12.537 -1.96,-1.143 -4.048,-1.718 -6.292,-1.777 -2.474,-0.064 -4.824,0.383 -7,1.646 -7.277,4.223 -14.599,8.374 -21.843,12.654 -4.319,2.553 -6.592,6.477 -6.646,11.49 -0.088,8.382 -0.021,16.764 -0.027,25.146 -10e-4,1.291 0.158,2.553 0.586,3.77 1.14,3.24 2.981,5.927 6.028,7.682 7.17,4.13 14.342,8.258 21.487,12.428 1.877,1.096 3.855,1.744 6.012,1.861 2.635,0.145 5.141,-0.283 7.461,-1.631 7.229,-4.195 14.459,-8.387 21.712,-12.541 2.023,-1.16 3.585,-2.738 4.772,-4.713 1.146,-1.904 1.953,-3.94 1.973,-6.189 0.037,-4.416 0.011,-8.832 0.011,-13.248 h 0.012 c 0,-4.205 -0.005,-8.41 0.004,-12.614 z"
           id="path3676"
           transform="matrix(0.19571368,0,0,0.19571368,80.453615,94.435837)" />
        <path
           inkscape:connector-curvature="0"
           style="clip-rule:evenodd;fill-rule:evenodd;stroke-width:0.23075669"
           d="m 155.5155,162.50535 c 6.9e-4,-0.23583 -0.0262,-0.46736 -0.1004,-0.69106 -0.21607,-0.65251 -0.57932,-1.19366 -1.18799,-1.54536 -1.41423,-0.8171 -2.82963,-1.63166 -4.24053,-2.45366 -0.38359,-0.2237 -0.79224,-0.33624 -1.23143,-0.34778 -0.48419,-0.0125 -0.94412,0.075 -1.36999,0.32214 -1.42421,0.8265 -2.85723,1.63891 -4.27498,2.47656 -0.84528,0.49966 -1.29014,1.26764 -1.30071,2.24875 -0.0172,1.64047 -0.004,3.28095 -0.005,4.92142 -2.3e-4,0.25267 0.0309,0.49966 0.11469,0.73784 0.22312,0.63411 0.58343,1.15999 1.17976,1.50347 1.40327,0.8083 2.80693,1.61621 4.20531,2.43233 0.36735,0.2145 0.75447,0.34133 1.17663,0.36423 0.5157,0.0284 1.00616,-0.0554 1.46022,-0.31921 1.41481,-0.82102 2.82982,-1.64146 4.24933,-2.45445 0.39593,-0.22703 0.70164,-0.53586 0.93395,-0.9224 0.22429,-0.37264 0.38222,-0.77111 0.38614,-1.21127 0.007,-0.86427 0.002,-1.72854 0.002,-2.59281 h 0.002 c 0,-0.82298 -9.2e-4,-1.64596 6.9e-4,-2.46874 z"
           id="path4486" />
        <g
           transform="matrix(0.23075668,0,0,0.23075668,51.002759,80.00005)"
           id="g3650"
           style="fill:#ffffff;filter:url(#filter4474)">
          <path
             sodipodi:nodetypes="ccccssccscccscccssssssscsscsccscssscccssccsccccccccccsccsccscscsscccssccccscc"
             inkscape:connector-curvature="0"
             id="path3652"
             d="m 413.17495,373.5323 c -1.16558,-0.79319 -1.17585,-0.83382 -1.23279,-4.87808 -0.0315,-2.23946 0.0121,-3.84826 0.11352,-4.18916 0.21575,-0.72494 1.0872,-1.55567 1.80073,-1.71659 1.07507,-0.24247 2.21298,0.22624 2.77097,1.14137 0.28003,0.45926 0.30568,0.81042 0.30622,4.1923 4.1e-4,2.6099 0.0627,3.91929 0.21255,4.47028 0.11658,0.42857 0.2401,0.8851 0.27449,1.0145 0.0526,0.19788 -0.23815,0.24225 -1.82891,0.27908 -1.74954,0.0405 -1.93084,0.017 -2.41678,-0.3137 z m 1.90387,-1.95033 c 0.35593,-0.32211 0.36465,-0.64928 0.0273,-1.02209 -0.3702,-0.40907 -0.93946,-0.36092 -1.24493,0.10528 -0.23801,0.36325 -0.23801,0.42102 0,0.78426 0.29629,0.4522 0.80346,0.50741 1.21767,0.13255 z m 0.0404,-2.81023 c 0.31743,-0.31743 0.31291,-0.67496 -0.0131,-1.0352 -0.3702,-0.40906 -0.93946,-0.36092 -1.24493,0.10529 -0.23801,0.36325 -0.23801,0.42101 0,0.78426 0.29542,0.45087 0.8846,0.51908 1.25803,0.14565 z m 0,-2.82334 c 0.31743,-0.31743 0.31291,-0.67495 -0.0131,-1.03519 -0.3702,-0.40907 -0.93946,-0.36092 -1.24493,0.10529 -0.23801,0.36324 -0.23801,0.42101 0,0.78426 0.29542,0.45086 0.8846,0.51907 1.25803,0.14564 z m 13.69681,7.84101 c -0.0502,-0.0502 0.023,-0.35015 0.1626,-0.66662 0.20674,-0.46867 0.26383,-1.31731 0.30779,-4.57513 0.0319,-2.36118 0.12352,-4.17773 0.22373,-4.43424 0.38406,-0.98301 1.73014,-1.63171 2.85394,-1.37536 0.7783,0.17754 1.62701,1.00047 1.83732,1.78152 0.0995,0.36935 0.14468,2.02268 0.11461,4.19022 -0.0552,3.9789 -0.0685,4.03116 -1.22446,4.81791 -0.46469,0.31627 -0.70886,0.35292 -2.35142,0.35292 -1.00809,0 -1.87394,-0.041 -1.92411,-0.0912 z m 3.58253,-2.33999 c 0.23801,-0.36324 0.23801,-0.42101 0,-0.78426 -0.43386,-0.66215 -1.50452,-0.3831 -1.50452,0.39213 0,0.77524 1.07066,1.05429 1.50452,0.39213 z m 0,-2.82333 c 0.23801,-0.36325 0.23801,-0.42101 0,-0.78426 -0.29629,-0.4522 -0.80346,-0.5074 -1.21768,-0.13254 -0.35203,0.31859 -0.36785,0.73496 -0.0404,1.06245 0.37344,0.37343 0.96262,0.30522 1.25804,-0.14565 z m 0,-2.82333 c 0.23801,-0.36325 0.23801,-0.42102 0,-0.78426 -0.29629,-0.4522 -0.80346,-0.50741 -1.21768,-0.13255 -0.35203,0.31859 -0.36785,0.73496 -0.0404,1.06245 0.37344,0.37343 0.96262,0.30522 1.25804,-0.14564 z m -10.41237,6.24776 c -1.30261,-0.642 -1.47886,-1.35843 -1.41578,-5.75497 0.0474,-3.30063 0.0676,-3.50162 0.40867,-4.05005 0.57948,-0.93191 1.38878,-1.22673 3.36745,-1.22673 0.91842,0 1.70921,0.069 1.76153,0.15361 0.0522,0.0845 0.003,0.31388 -0.10839,0.50977 -0.14673,0.25705 -0.22514,1.53468 -0.28174,4.59116 -0.0744,4.01876 -0.096,4.26334 -0.42359,4.78996 -0.685,1.10133 -2.17466,1.54589 -3.30815,0.98725 z m 1.65776,-1.8648 c 0.74358,-0.52082 0.1425,-1.68897 -0.71489,-1.38934 -0.58648,0.20495 -0.68383,1.01992 -0.16523,1.38316 0.43895,0.30745 0.44988,0.30753 0.88012,0.006 z m 0,-2.82334 c 0.74358,-0.52082 0.1425,-1.68896 -0.71489,-1.38934 -0.5192,0.18144 -0.67252,0.97305 -0.26701,1.37856 0.31861,0.31861 0.53896,0.32103 0.9819,0.0108 z m 0,-2.82333 c 0.7808,-0.54689 0.0387,-1.74771 -0.83421,-1.34996 -0.45582,0.20768 -0.53291,0.95395 -0.13922,1.34765 0.31013,0.31013 0.5332,0.31066 0.97343,0.002 z"
             style="fill:#ffffff" />
          <path
             inkscape:connector-curvature="0"
             id="path3654"
             d="m 420.72497,383.73822 c -1.50796,-0.21593 -3.72818,-0.98569 -5.09504,-1.76647 -8.68406,-4.96055 -10.77182,-16.2392 -4.40879,-23.8175 4.43229,-5.27881 11.72378,-7.02945 18.14468,-4.35642 3.47038,1.44472 6.83385,4.80819 8.27857,8.27857 1.86918,4.48996 1.58333,9.77812 -0.74629,13.80606 -3.35288,5.79719 -9.54492,8.80485 -16.17313,7.85576 z"
             style="fill:#ffffff"
             sodipodi:nodetypes="sssssss" />
        </g>
        <g
           id="g259"
           transform="matrix(0.01852083,0,0,0.01852083,144.95387,161.26875)">
          <g
             id="Dark_Blue">
            <circle
               id="circle240"
               r="200"
               cy="200"
               cx="200"
               class="st0"
               style="fill:#1da1f2" />
          </g>
          <g
             id="Logo__x2014__FIXED">
            <path
               id="path243"
               d="m 163.4,305.5 c 88.7,0 137.2,-73.5 137.2,-137.2 0,-2.1 0,-4.2 -0.1,-6.2 9.4,-6.8 17.6,-15.3 24.1,-25 -8.6,3.8 -17.9,6.4 -27.7,7.6 10,-6 17.6,-15.4 21.2,-26.7 -9.3,5.5 -19.6,9.5 -30.6,11.7 -8.8,-9.4 -21.3,-15.2 -35.2,-15.2 -26.6,0 -48.2,21.6 -48.2,48.2 0,3.8 0.4,7.5 1.3,11 -40.1,-2 -75.6,-21.2 -99.4,-50.4 -4.1,7.1 -6.5,15.4 -6.5,24.2 0,16.7 8.5,31.5 21.5,40.1 -7.9,-0.2 -15.3,-2.4 -21.8,-6 0,0.2 0,0.4 0,0.6 0,23.4 16.6,42.8 38.7,47.3 -4,1.1 -8.3,1.7 -12.7,1.7 -3.1,0 -6.1,-0.3 -9.1,-0.9 6.1,19.2 23.9,33.1 45,33.5 -16.5,12.9 -37.3,20.6 -59.9,20.6 -3.9,0 -7.7,-0.2 -11.5,-0.7 21.1,13.8 46.5,21.8 73.7,21.8"
               class="st1"
               inkscape:connector-curvature="0"
               style="fill:#ffffff" />
          </g>
        </g>
      </g>
    </g>
    <g
       id="g1125"
       inkscape:export-xdpi="96"
       inkscape:export-ydpi="96">
      <g
         transform="matrix(0.13779156,0,0,0.13779156,108.65589,117.08928)"
         id="g1115"
         style="fill:#ffffff;filter:url(#filter4474)">
        <path
           sodipodi:nodetypes="ccccssccscccscccssssssscsscsccscssscccssccsccccccccccsccsccscscsscccssccccscc"
           inkscape:connector-curvature="0"
           id="path1111"
           d="m 413.17495,373.5323 c -1.16558,-0.79319 -1.17585,-0.83382 -1.23279,-4.87808 -0.0315,-2.23946 0.0121,-3.84826 0.11352,-4.18916 0.21575,-0.72494 1.0872,-1.55567 1.80073,-1.71659 1.07507,-0.24247 2.21298,0.22624 2.77097,1.14137 0.28003,0.45926 0.30568,0.81042 0.30622,4.1923 4.1e-4,2.6099 0.0627,3.91929 0.21255,4.47028 0.11658,0.42857 0.2401,0.8851 0.27449,1.0145 0.0526,0.19788 -0.23815,0.24225 -1.82891,0.27908 -1.74954,0.0405 -1.93084,0.017 -2.41678,-0.3137 z m 1.90387,-1.95033 c 0.35593,-0.32211 0.36465,-0.64928 0.0273,-1.02209 -0.3702,-0.40907 -0.93946,-0.36092 -1.24493,0.10528 -0.23801,0.36325 -0.23801,0.42102 0,0.78426 0.29629,0.4522 0.80346,0.50741 1.21767,0.13255 z m 0.0404,-2.81023 c 0.31743,-0.31743 0.31291,-0.67496 -0.0131,-1.0352 -0.3702,-0.40906 -0.93946,-0.36092 -1.24493,0.10529 -0.23801,0.36325 -0.23801,0.42101 0,0.78426 0.29542,0.45087 0.8846,0.51908 1.25803,0.14565 z m 0,-2.82334 c 0.31743,-0.31743 0.31291,-0.67495 -0.0131,-1.03519 -0.3702,-0.40907 -0.93946,-0.36092 -1.24493,0.10529 -0.23801,0.36324 -0.23801,0.42101 0,0.78426 0.29542,0.45086 0.8846,0.51907 1.25803,0.14564 z m 13.69681,7.84101 c -0.0502,-0.0502 0.023,-0.35015 0.1626,-0.66662 0.20674,-0.46867 0.26383,-1.31731 0.30779,-4.57513 0.0319,-2.36118 0.12352,-4.17773 0.22373,-4.43424 0.38406,-0.98301 1.73014,-1.63171 2.85394,-1.37536 0.7783,0.17754 1.62701,1.00047 1.83732,1.78152 0.0995,0.36935 0.14468,2.02268 0.11461,4.19022 -0.0552,3.9789 -0.0685,4.03116 -1.22446,4.81791 -0.46469,0.31627 -0.70886,0.35292 -2.35142,0.35292 -1.00809,0 -1.87394,-0.041 -1.92411,-0.0912 z m 3.58253,-2.33999 c 0.23801,-0.36324 0.23801,-0.42101 0,-0.78426 -0.43386,-0.66215 -1.50452,-0.3831 -1.50452,0.39213 0,0.77524 1.07066,1.05429 1.50452,0.39213 z m 0,-2.82333 c 0.23801,-0.36325 0.23801,-0.42101 0,-0.78426 -0.29629,-0.4522 -0.80346,-0.5074 -1.21768,-0.13254 -0.35203,0.31859 -0.36785,0.73496 -0.0404,1.06245 0.37344,0.37343 0.96262,0.30522 1.25804,-0.14565 z m 0,-2.82333 c 0.23801,-0.36325 0.23801,-0.42102 0,-0.78426 -0.29629,-0.4522 -0.80346,-0.50741 -1.21768,-0.13255 -0.35203,0.31859 -0.36785,0.73496 -0.0404,1.06245 0.37344,0.37343 0.96262,0.30522 1.25804,-0.14564 z m -10.41237,6.24776 c -1.30261,-0.642 -1.47886,-1.35843 -1.41578,-5.75497 0.0474,-3.30063 0.0676,-3.50162 0.40867,-4.05005 0.57948,-0.93191 1.38878,-1.22673 3.36745,-1.22673 0.91842,0 1.70921,0.069 1.76153,0.15361 0.0522,0.0845 0.003,0.31388 -0.10839,0.50977 -0.14673,0.25705 -0.22514,1.53468 -0.28174,4.59116 -0.0744,4.01876 -0.096,4.26334 -0.42359,4.78996 -0.685,1.10133 -2.17466,1.54589 -3.30815,0.98725 z m 1.65776,-1.8648 c 0.74358,-0.52082 0.1425,-1.68897 -0.71489,-1.38934 -0.58648,0.20495 -0.68383,1.01992 -0.16523,1.38316 0.43895,0.30745 0.44988,0.30753 0.88012,0.006 z m 0,-2.82334 c 0.74358,-0.52082 0.1425,-1.68896 -0.71489,-1.38934 -0.5192,0.18144 -0.67252,0.97305 -0.26701,1.37856 0.31861,0.31861 0.53896,0.32103 0.9819,0.0108 z m 0,-2.82333 c 0.7808,-0.54689 0.0387,-1.74771 -0.83421,-1.34996 -0.45582,0.20768 -0.53291,0.95395 -0.13922,1.34765 0.31013,0.31013 0.5332,0.31066 0.97343,0.002 z"
           style="fill:#ffffff" />
        <path
           inkscape:connector-curvature="0"
           id="path1113"
           d="m 420.72497,383.73822 c -1.50796,-0.21593 -3.72818,-0.98569 -5.09504,-1.76647 -8.68406,-4.96055 -10.77182,-16.2392 -4.40879,-23.8175 4.43229,-5.27881 11.72378,-7.02945 18.14468,-4.35642 3.47038,1.44472 6.83385,4.80819 8.27857,8.27857 1.86918,4.48996 1.58333,9.77812 -0.74629,13.80606 -3.35288,5.79719 -9.54492,8.80485 -16.17313,7.85576 z"
           style="fill:#ffffff"
           sodipodi:nodetypes="sssssss" />
      </g>
      <g
         id="g1109"
         transform="matrix(0.01105933,0,0,0.01105933,164.75685,165.61719)">
        <g
           id="g1103">
          <circle
             id="circle1101"
             r="200"
             cy="200"
             cx="200"
             class="st0"
             style="fill:#1da1f2" />
        </g>
        <g
           id="g1107">
          <path
             id="path1105"
             d="m 163.4,305.5 c 88.7,0 137.2,-73.5 137.2,-137.2 0,-2.1 0,-4.2 -0.1,-6.2 9.4,-6.8 17.6,-15.3 24.1,-25 -8.6,3.8 -17.9,6.4 -27.7,7.6 10,-6 17.6,-15.4 21.2,-26.7 -9.3,5.5 -19.6,9.5 -30.6,11.7 -8.8,-9.4 -21.3,-15.2 -35.2,-15.2 -26.6,0 -48.2,21.6 -48.2,48.2 0,3.8 0.4,7.5 1.3,11 -40.1,-2 -75.6,-21.2 -99.4,-50.4 -4.1,7.1 -6.5,15.4 -6.5,24.2 0,16.7 8.5,31.5 21.5,40.1 -7.9,-0.2 -15.3,-2.4 -21.8,-6 0,0.2 0,0.4 0,0.6 0,23.4 16.6,42.8 38.7,47.3 -4,1.1 -8.3,1.7 -12.7,1.7 -3.1,0 -6.1,-0.3 -9.1,-0.9 6.1,19.2 23.9,33.1 45,33.5 -16.5,12.9 -37.3,20.6 -59.9,20.6 -3.9,0 -7.7,-0.2 -11.5,-0.7 21.1,13.8 46.5,21.8 73.7,21.8"
             class="st1"
             inkscape:connector-curvature="0"
             style="fill:#ffffff" />
        </g>
      </g>
    </g>
  </g>
  <style
     id="style238"
     type="text/css">
	.st0{fill:#1DA1F2;}
	.st1{fill:#FFFFFF;}
</style>
</svg>
