<?xml version="1.0" encoding="UTF-8" standalone="no"?>
<!-- Created with Inkscape (http://www.inkscape.org/) -->

<svg
   xmlns:dc="http://purl.org/dc/elements/1.1/"
   xmlns:cc="http://creativecommons.org/ns#"
   xmlns:rdf="http://www.w3.org/1999/02/22-rdf-syntax-ns#"
   xmlns:svg="http://www.w3.org/2000/svg"
   xmlns="http://www.w3.org/2000/svg"
   xmlns:sodipodi="http://sodipodi.sourceforge.net/DTD/sodipodi-0.dtd"
   xmlns:inkscape="http://www.inkscape.org/namespaces/inkscape"
   sodipodi:docname="composition-frames-1.svg"
   inkscape:version="0.91 r13725"
   version="1.1"
   id="svg4084"
   viewBox="0 0 599.99998 322.03223"
   height="90.884651mm"
   width="169.33333mm">
  <sodipodi:namedview
     fit-margin-bottom="0"
     fit-margin-right="0"
     fit-margin-left="0"
     fit-margin-top="0"
     showborder="false"
     inkscape:window-maximized="1"
     inkscape:window-y="0"
     inkscape:window-x="0"
     inkscape:window-height="768"
     inkscape:window-width="1366"
     showgrid="false"
     inkscape:current-layer="svg4084"
     inkscape:document-units="px"
     inkscape:cy="-879.53784"
     inkscape:cx="185.95658"
     inkscape:zoom="0.70710678"
     inkscape:pageshadow="2"
     inkscape:pageopacity="0.0"
     borderopacity="1.0"
     bordercolor="#666666"
     pagecolor="#ffffff"
     id="base" />
  <defs
     id="defs4086">
    <filter
       inkscape:collect="always"
       style="color-interpolation-filters:sRGB"
       id="filter4399"
       x="-0.070962255"
       width="1.1419245"
       y="-0.38839957"
       height="1.7767991">
      <feGaussianBlur
         inkscape:collect="always"
         stdDeviation="7.300695"
         id="feGaussianBlur4401" />
    </filter>
    <style
       type="text/css"
       id="style5113">
   
    .fil0 {fill:black}
   
  </style>
    <filter
       inkscape:collect="always"
       style="color-interpolation-filters:sRGB"
       id="filter5363"
       x="-0.091706274"
       width="1.1834125"
       y="-0.044585227"
       height="1.0891705">
      <feGaussianBlur
         inkscape:collect="always"
         stdDeviation="0.9718035"
         id="feGaussianBlur5365" />
    </filter>
  </defs>
  <metadata
     id="metadata4089">
    <rdf:RDF>
      <cc:Work
         rdf:about="">
        <dc:format>image/svg+xml</dc:format>
        <dc:type
           rdf:resource="http://purl.org/dc/dcmitype/StillImage" />
        <dc:title />
      </cc:Work>
    </rdf:RDF>
  </metadata>
  <g
     inkscape:label="Layer 1"
     inkscape:groupmode="layer"
     id="layer1"
     transform="translate(100.27949,-143.99925)">
    <g
       id="g4377">
      <rect
         ry="0"
         rx="0"
         y="145.38608"
         x="-98.892647"
         height="319.25858"
         width="597.22632"
         id="rect4111"
         style="opacity:1;fill:#ffffff;fill-opacity:1;stroke:#000000;stroke-width:2.77367473;stroke-linecap:round;stroke-linejoin:round;stroke-miterlimit:4;stroke-dasharray:none;stroke-dashoffset:0;stroke-opacity:1" />
      <path
         sodipodi:nodetypes="ccc"
         inkscape:connector-curvature="0"
         id="path6738"
         d="m 489.04138,154.98364 -74.70322,50.08511 0,215.62066"
         style="fill:none;fill-rule:evenodd;stroke:#000000;stroke-width:0.92455828px;stroke-linecap:round;stroke-linejoin:round;stroke-opacity:1" />
      <path
         sodipodi:nodetypes="ccccccccccccccccc"
         inkscape:connector-curvature="0"
         id="path6740"
         d="m 414.01981,205.06874 -28.65038,0 -28.65038,0 -16.65039,0 -28.65038,0 -20.65038,0 -48.65038,0 -28.65039,0 -28.65038,0 -20.65038,0 -40.65038,0 -36.650385,0 -28.650383,0 -16.650382,0 -28.650382,0 -34.650383,0 -22.650382,0"
         style="fill:none;fill-rule:evenodd;stroke:#000000;stroke-width:0.92455828px;stroke-linecap:round;stroke-linejoin:round;stroke-opacity:1" />
    </g>
  </g>
  <g
     id="g5387"
     inkscape:export-xdpi="90"
     inkscape:export-ydpi="90">
    <rect
       style="opacity:1;fill:#ffffff;fill-opacity:1;stroke:#000000;stroke-width:2.77367473;stroke-linecap:round;stroke-linejoin:round;stroke-miterlimit:4;stroke-dasharray:none;stroke-dashoffset:0;stroke-opacity:1"
       id="rect4111-3"
       width="597.22632"
       height="319.25858"
       x="1.3868432"
       y="373.12076"
       rx="0"
       ry="0" />
    <path
       style="fill:none;fill-rule:evenodd;stroke:#000000;stroke-width:2;stroke-linecap:round;stroke-linejoin:round;stroke-miterlimit:4;stroke-dasharray:none;stroke-opacity:1"
       d="m 590.7844,381.23497 c 0,0 -6.21701,4.16039 -9.30423,6.27193 -3.20103,2.18938 -6.30579,4.52102 -9.55851,6.63283 -3.60249,2.3389 -7.45276,4.28591 -11.01836,6.68068 -3.3204,2.23009 -6.46282,4.71551 -9.64032,7.14488 -3.0217,2.31025 -5.66143,5.17232 -8.96052,7.06543 -3.06698,1.75992 -7.00159,3.81547 -9.87402,5.8777 -3.10682,2.23051 -4.29141,4.53442 -7.38881,6.77801 -2.84887,2.06357 -7.84404,1.00978 -9.78997,3.94026 -2.49816,3.76209 0.0896,9.03199 0.21402,13.54626 0.12445,4.51719 0.60031,9.02785 0.53251,13.54625 -0.0679,4.52577 -0.82082,9.02155 -0.94026,13.54626 -0.11918,4.51446 0.40058,9.03368 0.22373,13.54625 -0.17762,4.53233 -0.98562,9.02059 -1.28879,13.54626 -0.30204,4.50874 -0.59552,9.02793 -0.52756,13.54626 0.0681,4.52568 0.91574,9.02011 0.93626,13.54625 0.0205,4.5235 -1.0413,9.02848 -0.81294,13.54626 0.23093,4.56871 1.84669,8.98532 2.19926,13.54625 0.34801,4.50209 -0.12981,9.03091 -0.0901,13.54626 0.0397,4.51657 0.51148,9.03322 0.32829,13.54625 -0.18416,4.53687 -1.4227,9.00567 -1.43266,13.54626 -0.01,4.53853 1.29116,9.00845 1.3726,13.54626 0.0812,4.52427 -0.60668,9.0297 -0.88301,13.54625 -0.27619,4.51435 -0.72862,9.0237 -0.77458,13.54626 -0.0459,4.51824 0.49864,13.54625 0.49864,13.54625"
       id="path6738-6"
       inkscape:connector-curvature="0"
       sodipodi:nodetypes="csssssssssssssssssssssssc" />
    <path
       style="fill:none;fill-rule:evenodd;stroke:#000000;stroke-width:2;stroke-linecap:round;stroke-linejoin:round;stroke-miterlimit:4;stroke-dasharray:none;stroke-opacity:1"
       d="m 514.2993,432.22621 c 0,0 -9.54638,0.8355 -14.32519,0.69933 -4.79994,-0.13677 -9.52923,-1.28198 -14.32519,-1.52062 -4.76926,-0.23731 -9.55669,-0.16167 -14.32519,0.0905 -4.79203,0.25341 -9.53317,1.17423 -14.32519,1.42787 -2.77124,0.14668 -5.55556,0.22782 -8.32519,0.0534 -2.79396,-0.17595 -5.53435,-0.88715 -8.3252,-1.10702 -4.76181,-0.37515 -9.54867,-0.33894 -14.32519,-0.35883 -4.77569,-0.0199 -9.56895,-0.19158 -14.32519,0.23947 -3.47433,0.31487 -6.84091,1.53627 -10.32519,1.70917 -3.44475,0.17094 -6.87744,-0.57865 -10.32519,-0.67087 -8.10602,-0.21682 -16.2165,0.33888 -24.32519,0.27732 -8.11103,-0.0616 -16.21785,-0.89888 -24.32519,-0.64677 -4.79162,0.149 -9.53425,1.44409 -14.32519,1.27479 -4.83336,-0.1708 -9.48983,-0.40163 -14.3252,-0.30298 -4.87136,0.0994 -9.45312,0.8517 -14.32519,0.90679 -4.85105,0.0548 -9.50262,-2.04325 -14.32519,-2.57098 -3.4241,-0.3747 -6.88066,-0.40717 -10.32519,-0.41746 -3.44376,-0.0103 -6.88443,0.21178 -10.32519,0.3557 -6.77734,0.28349 -13.54287,0.88713 -20.32519,1.00025 -6.77497,0.113 -13.55366,-0.0779 -20.32519,-0.32155 -6.11407,-0.21998 -12.21424,0.67667 -18.32519,0.97072 -6.17276,0.29702 -12.16617,0.30457 -18.3252,0.81215 -4.75928,0.39222 -9.5499,0.21031 -14.32519,0.17453 -4.77669,-0.0358 -9.61145,0.38449 -14.32519,-0.38927 -2.86488,-0.47027 -5.43333,-0.30256 -8.32519,-0.55917 -2.78464,-0.2471 -5.55216,-1.34017 -8.32519,-0.98582 -4.77873,0.61065 -9.51058,2.0855 -14.32519,1.91612 -4.87246,-0.17142 -9.45184,-0.80927 -14.32519,-0.95313 -5.83316,-0.1722 -11.51066,0.0206 -17.325194,0.51713 -5.756082,0.49152 -11.563941,0.87886 -17.325191,0.45216 -3.822438,-0.28311 -7.517311,0.44715 -11.325191,0.01 -3.756037,-0.43135 -11.325191,-0.62043 -11.325191,-0.62043"
       id="path6740-7"
       inkscape:connector-curvature="0"
       sodipodi:nodetypes="csssssssssssssssssssssssssssssssc" />
    <path
       sodipodi:nodetypes="cssssssssssccssssssssssssc"
       inkscape:connector-curvature="0"
       id="path4440"
       d="m 514.2993,649.05353 c 0,0 -9.54638,-0.95639 -14.32519,-1.09256 -4.79994,-0.13677 -9.52923,-1.29391 -14.32519,-1.53255 -4.76926,-0.23731 -9.55669,1.15937 -14.32519,1.41154 -4.79203,0.25341 -9.53317,-0.0288 -14.32519,0.22481 -2.77124,0.14668 -5.55556,0.47239 -8.32519,0.29797 -2.79396,-0.17595 -5.53435,0.61012 -8.3252,0.39025 -4.76181,-0.37515 -9.54867,-1.45893 -14.32519,-1.47882 -4.77569,-0.0199 -9.56895,-0.75224 -14.32519,-0.32119 -3.47433,0.31487 -6.84091,1.49358 -10.32519,1.66648 -3.44475,0.17094 -6.87744,-0.27716 -10.32519,-0.36938 -8.10602,-0.21682 -16.2165,1.87195 -24.32519,1.81039 m -122.60153,-2.38412 c -6.77497,0.113 -13.55366,0.64512 -20.32519,0.40147 -6.11407,-0.21998 -12.21424,1.79577 -18.32519,2.08982 -6.17276,0.29702 -12.16617,-1.40404 -18.3252,-0.89646 -4.75928,0.39222 -9.5499,0.94284 -14.32519,0.90706 -4.77669,-0.0358 -9.61145,1.49394 -14.32519,0.72018 -2.86488,-0.47027 -5.43333,-2.02861 -8.32519,-2.28522 -2.78464,-0.2471 -5.55216,-1.47893 -8.32519,-1.12458 -4.77873,0.61065 -9.51058,3.16409 -14.32519,2.99471 -4.87246,-0.17142 -9.45184,-1.53709 -14.32519,-1.68095 -5.83316,-0.1722 -11.51066,-0.24835 -17.325194,0.24818 -5.756082,0.49152 -11.563941,2.62909 -17.325191,2.20239 -3.822438,-0.28311 -7.517311,-0.23609 -11.325191,-0.67324 -3.756037,-0.43135 -11.325191,0.0767 -11.325191,0.0767"
       style="fill:none;fill-rule:evenodd;stroke:#000000;stroke-width:2;stroke-linecap:round;stroke-linejoin:round;stroke-miterlimit:4;stroke-dasharray:none;stroke-opacity:1" />
  </g>
  <g
     id="g5487"
     inkscape:export-xdpi="90"
     inkscape:export-ydpi="90">
    <rect
       ry="0"
       rx="0"
       y="753.12073"
       x="1.3868432"
       height="319.25858"
       width="597.22632"
       id="rect4476"
       style="opacity:1;fill:#ffffff;fill-opacity:1;stroke:#000000;stroke-width:2.77367473;stroke-linecap:round;stroke-linejoin:round;stroke-miterlimit:4;stroke-dasharray:none;stroke-dashoffset:0;stroke-opacity:1" />
    <path
       transform="matrix(0,-1,1,0,-471.64256,1340.2931)"
       style="opacity:1;fill:#e6e6e6;fill-opacity:1;stroke:none;stroke-width:2;stroke-linecap:round;stroke-linejoin:round;stroke-miterlimit:4;stroke-dasharray:none;stroke-dashoffset:0;stroke-opacity:1;filter:url(#filter4399)"
       d="m 530.33009,526.48302 -220.08864,-4.08158 -28.5703,-42.35522 c 292.39206,6.50653 287.91366,9.06761 248.65894,46.4368 z"
       id="path5443"
       inkscape:connector-curvature="0"
       sodipodi:nodetypes="cccc" />
    <path
       transform="matrix(1,0,0,-1,0,1987.5377)"
       sodipodi:nodetypes="ccccc"
       inkscape:connector-curvature="0"
       id="path5385"
       d="M 525.35953,960.56271 70.00386,966.30956 6.85849,921.22819 590.71312,918.14683 Z"
       style="opacity:1;fill:#dadada;fill-opacity:1;stroke:none;stroke-width:2;stroke-linecap:round;stroke-linejoin:round;stroke-miterlimit:4;stroke-dasharray:none;stroke-dashoffset:0;stroke-opacity:1;filter:url(#filter4399)" />
    <path
       sodipodi:nodetypes="ccccc"
       inkscape:connector-curvature="0"
       id="path4407"
       d="M 513.60218,551.41194 64.705305,530.52277 63.048477,317.351 518.16538,320.4534 Z"
       style="opacity:1;fill:#f2f2f2;fill-opacity:1;stroke:none;stroke-width:2;stroke-linecap:round;stroke-linejoin:round;stroke-miterlimit:4;stroke-dasharray:none;stroke-dashoffset:0;stroke-opacity:1;filter:url(#filter4399)"
       transform="matrix(1,0,0,-1,-12.718509,1341.6185)" />
    <path
       sodipodi:nodetypes="ccccc"
       inkscape:connector-curvature="0"
       id="path4478"
       d="M 528.91588,527.89723 310.24145,522.40144 273.18587,456.00459 573.88469,444.17627 Z"
       style="opacity:1;fill:#e6e6e6;fill-opacity:1;stroke:none;stroke-width:2;stroke-linecap:round;stroke-linejoin:round;stroke-miterlimit:4;stroke-dasharray:none;stroke-dashoffset:0;stroke-opacity:1;filter:url(#filter4399)"
       transform="matrix(0,-1,-1,0,1037.8321,1341.7073)" />
    <path
       style="opacity:1;fill:#cccccc;fill-opacity:1;stroke:none;stroke-width:2;stroke-linecap:round;stroke-linejoin:round;stroke-miterlimit:4;stroke-dasharray:none;stroke-dashoffset:0;stroke-opacity:1;filter:url(#filter4399)"
       d="M 513.35953,804.56271 47.00386,809.30956 6.85849,761.22819 578.71312,762.14683 Z"
       id="path4480"
       inkscape:connector-curvature="0"
       sodipodi:nodetypes="ccccc" />
    <path
       sodipodi:nodetypes="csssssssssssssssssssssssc"
       inkscape:connector-curvature="0"
       id="path4482"
       d="m 590.7844,761.23497 c 0,0 -6.21701,4.16039 -9.30423,6.27193 -3.20103,2.18938 -6.30579,4.52102 -9.55851,6.63283 -3.60249,2.3389 -7.45276,4.28591 -11.01836,6.68068 -3.3204,2.23009 -6.46282,4.71551 -9.64032,7.14488 -3.0217,2.31025 -5.66143,5.17232 -8.96052,7.06543 -3.06698,1.75992 -7.00159,3.81547 -9.87402,5.8777 -3.10682,2.23051 -4.29141,4.53442 -7.38881,6.77801 -2.84887,2.06357 -7.84404,1.00978 -9.78997,3.94026 -2.49816,3.76209 0.0896,9.03199 0.21402,13.54626 0.12445,4.51719 0.60031,9.02785 0.53251,13.54625 -0.0679,4.52577 -0.82082,9.02155 -0.94026,13.54626 -0.11918,4.51446 0.40058,9.03368 0.22373,13.54625 -0.17762,4.53233 -0.98562,9.02059 -1.28879,13.54626 -0.30204,4.50874 -0.59552,9.02793 -0.52756,13.54626 0.0681,4.52568 0.91574,9.02011 0.93626,13.54625 0.0205,4.5235 -1.0413,9.02848 -0.81294,13.54626 0.23093,4.56871 1.84669,8.98532 2.19926,13.54625 0.34801,4.50209 -0.12981,9.03091 -0.0901,13.54626 0.0397,4.51657 0.51148,9.03322 0.32829,13.54625 -0.18416,4.5369 -1.4227,9.0057 -1.43266,13.5463 -0.01,4.5385 1.29116,9.0084 1.3726,13.5462 0.0812,4.5243 -0.60668,9.0297 -0.88301,13.5463 -0.27619,4.5143 -0.72862,9.0237 -0.77458,13.5462 -0.0459,4.5183 0.49864,13.5463 0.49864,13.5463"
       style="fill:none;fill-rule:evenodd;stroke:#000000;stroke-width:2;stroke-linecap:round;stroke-linejoin:round;stroke-miterlimit:4;stroke-dasharray:none;stroke-opacity:1" />
    <path
       sodipodi:nodetypes="csssssssssssssssssssssssssssssssc"
       inkscape:connector-curvature="0"
       id="path4484"
       d="m 514.2993,812.22621 c 0,0 -9.54638,0.8355 -14.32519,0.69933 -4.79994,-0.13677 -9.52923,-1.28198 -14.32519,-1.52062 -4.76926,-0.23731 -9.55669,-0.16167 -14.32519,0.0905 -4.79203,0.25341 -9.53317,1.17423 -14.32519,1.42787 -2.77124,0.14668 -5.55556,0.22782 -8.32519,0.0534 -2.79396,-0.17595 -5.53435,-0.88715 -8.3252,-1.10702 -4.76181,-0.37515 -9.54867,-0.33894 -14.32519,-0.35883 -4.77569,-0.0199 -9.56895,-0.19158 -14.32519,0.23947 -3.47433,0.31487 -6.84091,1.53627 -10.32519,1.70917 -3.44475,0.17094 -6.87744,-0.57865 -10.32519,-0.67087 -8.10602,-0.21682 -16.2165,0.33888 -24.32519,0.27732 -8.11103,-0.0616 -16.21785,-0.89888 -24.32519,-0.64677 -4.79162,0.149 -9.53425,1.44409 -14.32519,1.27479 -4.83336,-0.1708 -9.48983,-0.40163 -14.3252,-0.30298 -4.87136,0.0994 -9.45312,0.8517 -14.32519,0.90679 -4.85105,0.0548 -9.50262,-2.04325 -14.32519,-2.57098 -3.4241,-0.3747 -6.88066,-0.40717 -10.32519,-0.41746 -3.44376,-0.0103 -6.88443,0.21178 -10.32519,0.3557 -6.77734,0.28349 -13.54287,0.88713 -20.32519,1.00025 -6.77497,0.113 -13.55366,-0.0779 -20.32519,-0.32155 -6.11407,-0.21998 -12.21424,0.67667 -18.32519,0.97072 -6.17276,0.29702 -12.16617,0.30457 -18.3252,0.81215 -4.75928,0.39222 -9.5499,0.21031 -14.32519,0.17453 -4.77669,-0.0358 -9.61145,0.38449 -14.32519,-0.38927 -2.86488,-0.47027 -5.43333,-0.30256 -8.32519,-0.55917 -2.78464,-0.2471 -5.55216,-1.34017 -8.32519,-0.98582 -4.77873,0.61065 -9.51058,2.0855 -14.32519,1.91612 -4.87246,-0.17142 -9.45184,-0.80927 -14.32519,-0.95313 -5.83316,-0.1722 -11.51066,0.0206 -17.325194,0.51713 -5.756082,0.49152 -11.563941,0.87886 -17.325191,0.45216 -3.822438,-0.28311 -7.517311,0.44715 -11.325191,0.01 -3.756037,-0.43135 -11.325191,-0.62043 -11.325191,-0.62043"
       style="fill:none;fill-rule:evenodd;stroke:#000000;stroke-width:2;stroke-linecap:round;stroke-linejoin:round;stroke-miterlimit:4;stroke-dasharray:none;stroke-opacity:1" />
    <path
       style="fill:none;fill-rule:evenodd;stroke:#000000;stroke-width:2;stroke-linecap:round;stroke-linejoin:round;stroke-miterlimit:4;stroke-dasharray:none;stroke-opacity:1"
       d="m 514.2993,1029.0535 c 0,0 -9.54638,-0.9564 -14.32519,-1.0925 -4.79994,-0.1368 -9.52923,-1.2939 -14.32519,-1.5326 -4.76926,-0.2373 -9.55669,1.1594 -14.32519,1.4116 -4.79203,0.2534 -9.53317,-0.029 -14.32519,0.2248 -2.77124,0.1466 -5.55556,0.4724 -8.32519,0.2979 -2.79396,-0.1759 -5.53435,0.6102 -8.3252,0.3903 -4.76181,-0.3752 -9.54867,-1.4588 -14.32519,-1.4788 -1.19392,-0.01 -4.88894,1.9455 -9.83421,1.8808 -4.94526,-0.065 -11.14078,-0.1447 -17.33568,-0.2106 -6.1949,-0.066 -12.3892,-2.1176 -17.33203,-2.1259 -4.94284,-0.01 -8.63421,0.027 -9.82327,0.1345 -3.47432,0.3149 -6.84091,1.4936 -10.32519,1.6665 -3.44475,0.1709 -6.87744,-0.2772 -10.32519,-0.3694 -8.10602,-0.2168 -16.2165,1.8719 -24.32519,1.8104 m -56.60153,-2.3842 c -6.77497,0.1131 -13.55366,0.6452 -20.32519,0.4015 -6.11407,-0.22 -12.21425,1.7957 -18.32519,2.0898 -3.09069,0.1488 -12.65461,1.7966 -22.20776,1.4715 -9.52647,-0.3242 -19.04223,-2.6213 -22.11744,-2.3679 -4.75928,0.3922 -9.5499,0.9428 -14.32519,0.907 -4.77669,-0.036 -9.61145,1.494 -14.32519,0.7202 -2.86488,-0.4703 -5.43333,-2.0286 -8.32519,-2.2852 -2.78464,-0.2471 -5.55216,-1.4789 -8.32519,-1.1246 -4.77873,0.6107 -9.51058,3.1641 -14.32519,2.9947 -4.87246,-0.1714 -9.45184,-1.5371 -14.32519,-1.6809 -5.83316,-0.1722 -11.51066,-0.2484 -17.325194,0.2482 -5.756082,0.4915 -11.563941,2.6291 -17.325191,2.2024 -3.822438,-0.2832 -7.517311,-0.2361 -11.325191,-0.6733 -3.756037,-0.4313 -11.325191,0.077 -11.325191,0.077"
       id="path4486"
       inkscape:connector-curvature="0"
       sodipodi:nodetypes="csssssssssssssccsssssssssssssc" />
  </g>
  <g
     id="g5449"
     inkscape:export-xdpi="90"
     inkscape:export-ydpi="90">
    <rect
       style="opacity:1;fill:#ffffff;fill-opacity:1;stroke:#000000;stroke-width:2.77367473;stroke-linecap:round;stroke-linejoin:round;stroke-miterlimit:4;stroke-dasharray:none;stroke-dashoffset:0;stroke-opacity:1"
       id="rect5393"
       width="597.22632"
       height="319.25858"
       x="1.3868432"
       y="1173.1207"
       rx="0"
       ry="0" />
    <path
       sodipodi:nodetypes="cccc"
       inkscape:connector-curvature="0"
       id="path5447"
       d="m 530.33009,526.48302 -220.08864,-4.08158 -28.5703,-42.35522 c 292.39206,6.50653 287.91366,9.06761 248.65894,46.4368 z"
       style="opacity:1;fill:#e6e6e6;fill-opacity:1;stroke:none;stroke-width:2;stroke-linecap:round;stroke-linejoin:round;stroke-miterlimit:4;stroke-dasharray:none;stroke-dashoffset:0;stroke-opacity:1;filter:url(#filter4399)"
       transform="matrix(0,-1,1,0,-471.64256,1760.2931)" />
    <path
       transform="matrix(1,0,0,-1,-8.718509,1763.6185)"
       style="opacity:1;fill:#f2f2f2;fill-opacity:1;stroke:none;stroke-width:2;stroke-linecap:round;stroke-linejoin:round;stroke-miterlimit:4;stroke-dasharray:none;stroke-dashoffset:0;stroke-opacity:1;filter:url(#filter4399)"
       d="M 513.60218,551.41194 64.705305,530.52277 63.048477,317.351 518.16538,320.4534 Z"
       id="path5441"
       inkscape:connector-curvature="0"
       sodipodi:nodetypes="ccccc" />
    <path
       style="opacity:1;fill:#dadada;fill-opacity:1;stroke:none;stroke-width:2;stroke-linecap:round;stroke-linejoin:round;stroke-miterlimit:4;stroke-dasharray:none;stroke-dashoffset:0;stroke-opacity:1;filter:url(#filter4399)"
       d="M 525.35953,960.56271 70.00386,966.30956 6.85849,921.22819 590.71312,918.14683 Z"
       id="path5395"
       inkscape:connector-curvature="0"
       sodipodi:nodetypes="ccccc"
       transform="matrix(1,0,0,-1,0,2407.5377)" />
    <path
       transform="matrix(0,-1,-1,0,1037.8321,1761.7073)"
       style="opacity:1;fill:#e6e6e6;fill-opacity:1;stroke:none;stroke-width:2;stroke-linecap:round;stroke-linejoin:round;stroke-miterlimit:4;stroke-dasharray:none;stroke-dashoffset:0;stroke-opacity:1;filter:url(#filter4399)"
       d="M 528.91588,527.89723 310.24145,522.40144 273.18587,456.00459 573.88469,444.17627 Z"
       id="path5397"
       inkscape:connector-curvature="0"
       sodipodi:nodetypes="ccccc" />
    <path
       sodipodi:nodetypes="ccccc"
       inkscape:connector-curvature="0"
       id="path5399"
       d="m 513.35953,1224.5627 -467.397301,7.4038 -39.103739,-50.7383 571.85463,0.9186 z"
       style="opacity:1;fill:#cccccc;fill-opacity:1;stroke:none;stroke-width:2;stroke-linecap:round;stroke-linejoin:round;stroke-miterlimit:4;stroke-dasharray:none;stroke-dashoffset:0;stroke-opacity:1;filter:url(#filter4399)" />
    <path
       style="fill:none;fill-rule:evenodd;stroke:#000000;stroke-width:2;stroke-linecap:round;stroke-linejoin:round;stroke-miterlimit:4;stroke-dasharray:none;stroke-opacity:1"
       d="m 590.7844,1181.235 c 0,0 -6.21701,4.1604 -9.30423,6.2719 -3.20103,2.1894 -6.30579,4.521 -9.55851,6.6328 -3.60249,2.3389 -7.45276,4.2859 -11.01836,6.6807 -3.3204,2.2301 -6.46282,4.7155 -9.64032,7.1449 -3.0217,2.3102 -5.66143,5.1723 -8.96052,7.0654 -3.06698,1.7599 -7.00159,3.8155 -9.87402,5.8777 -3.10682,2.2305 -4.29141,4.5344 -7.38881,6.778 -2.84887,2.0636 -7.84404,1.0098 -9.78997,3.9403 -2.49816,3.7621 0.0896,9.032 0.21402,13.5462 0.12445,4.5172 0.60031,9.0279 0.53251,13.5463 -0.0679,4.5258 -0.82082,9.0215 -0.94026,13.5463 -0.11918,4.5144 0.40058,9.0336 0.22373,13.5462 -0.17762,4.5323 -0.98562,9.0206 -1.28879,13.5463 -0.30204,4.5087 -0.59552,9.0279 -0.52756,13.5462 0.0681,4.5257 0.91574,9.0201 0.93626,13.5463 0.0205,4.5235 -1.0413,9.0285 -0.81294,13.5462 0.23093,4.5687 1.84669,8.9854 2.19926,13.5463 0.34801,4.5021 -0.12981,9.0309 -0.0901,13.5462 0.0397,4.5166 0.51148,9.0333 0.32829,13.5463 -0.18416,4.5369 -1.4227,9.0057 -1.43266,13.5463 -0.01,4.5385 1.29116,9.0084 1.3726,13.5462 0.0812,4.5243 -0.60668,9.0297 -0.88301,13.5463 -0.27619,4.5143 -0.72862,9.0237 -0.77458,13.5462 -0.0459,4.5183 0.49864,13.5463 0.49864,13.5463"
       id="path5401"
       inkscape:connector-curvature="0"
       sodipodi:nodetypes="csssssssssssssssssssssssc" />
    <path
       style="fill:none;fill-rule:evenodd;stroke:#000000;stroke-width:2;stroke-linecap:round;stroke-linejoin:round;stroke-miterlimit:4;stroke-dasharray:none;stroke-opacity:1"
       d="m 514.2993,1232.2262 c 0,0 -9.54638,0.8355 -14.32519,0.6993 -4.79994,-0.1367 -9.52923,-1.2819 -14.32519,-1.5206 -4.76926,-0.2373 -9.55669,-0.1617 -14.32519,0.091 -4.79203,0.2534 -9.53317,1.1743 -14.32519,1.4279 -2.77124,0.1467 -5.55556,0.2278 -8.32519,0.053 -2.79396,-0.176 -5.53435,-0.8872 -8.3252,-1.107 -4.76181,-0.3752 -9.54867,-0.339 -14.32519,-0.3589 -4.77569,-0.02 -9.56895,-0.1915 -14.32519,0.2395 -3.47433,0.3149 -6.84091,1.5363 -10.32519,1.7092 -3.44475,0.1709 -6.87744,-0.5787 -10.32519,-0.6709 -8.10602,-0.2168 -16.2165,0.3389 -24.32519,0.2773 -8.11103,-0.062 -16.21785,-0.8988 -24.32519,-0.6467 -4.79162,0.149 -9.53425,1.444 -14.32519,1.2748 -4.83336,-0.1709 -9.48983,-0.4017 -14.3252,-0.303 -4.87136,0.099 -9.45312,0.8517 -14.32519,0.9068 -4.85105,0.055 -9.50262,-2.0433 -14.32519,-2.571 -3.4241,-0.3747 -6.88066,-0.4072 -10.32519,-0.4175 -3.44376,-0.01 -6.88443,0.2118 -10.32519,0.3557 -6.77734,0.2835 -13.54287,0.8871 -20.32519,1.0003 -6.77497,0.113 -13.55366,-0.078 -20.32519,-0.3216 -6.11407,-0.22 -12.21424,0.6767 -18.32519,0.9707 -6.17276,0.2971 -12.16617,0.3046 -18.3252,0.8122 -4.75928,0.3922 -9.5499,0.2103 -14.32519,0.1745 -4.77669,-0.036 -9.61145,0.3845 -14.32519,-0.3893 -2.86488,-0.4702 -5.43333,-0.3025 -8.32519,-0.5591 -2.78464,-0.2471 -5.55216,-1.3402 -8.32519,-0.9858 -4.77873,0.6106 -9.51058,2.0855 -14.32519,1.9161 -4.87246,-0.1714 -9.45184,-0.8093 -14.32519,-0.9531 -5.83316,-0.1722 -11.51066,0.021 -17.325194,0.5171 -5.756082,0.4915 -11.563941,0.8788 -17.325191,0.4521 -3.822438,-0.2831 -7.517311,0.4472 -11.325191,0.01 -3.756037,-0.4313 -11.325191,-0.6204 -11.325191,-0.6204"
       id="path5403"
       inkscape:connector-curvature="0"
       sodipodi:nodetypes="csssssssssssssssssssssssssssssssc" />
    <path
       sodipodi:nodetypes="csssssssssssssccsssssssssssssc"
       inkscape:connector-curvature="0"
       id="path5405"
       d="m 514.2993,1449.0535 c 0,0 -9.54638,-0.9564 -14.32519,-1.0925 -4.79994,-0.1368 -9.52923,-1.2939 -14.32519,-1.5326 -4.76926,-0.2373 -9.55669,1.1594 -14.32519,1.4116 -4.79203,0.2534 -9.53317,-0.029 -14.32519,0.2248 -2.77124,0.1466 -5.55556,0.4724 -8.32519,0.2979 -2.79396,-0.1759 -5.53435,0.6102 -8.3252,0.3903 -4.76181,-0.3752 -9.54867,-1.4588 -14.32519,-1.4788 -1.19392,-0.01 -4.88894,1.9455 -9.83421,1.8808 -4.94526,-0.065 -11.14078,-0.1447 -17.33568,-0.2106 -6.1949,-0.066 -12.3892,-2.1176 -17.33203,-2.1259 -4.94284,-0.01 -8.63421,0.027 -9.82327,0.1345 -3.47432,0.3149 -6.84091,1.4936 -10.32519,1.6665 -3.44475,0.1709 -6.87744,-0.2772 -10.32519,-0.3694 -8.10602,-0.2168 -16.2165,1.8719 -24.32519,1.8104 m -56.60153,-2.3842 c -6.77497,0.1131 -13.55366,0.6452 -20.32519,0.4015 -6.11407,-0.22 -12.21425,1.7957 -18.32519,2.0898 -3.09069,0.1488 -12.65461,1.7966 -22.20776,1.4715 -9.52647,-0.3242 -19.04223,-2.6213 -22.11744,-2.3679 -4.75928,0.3922 -9.5499,0.9428 -14.32519,0.907 -4.77669,-0.036 -9.61145,1.494 -14.32519,0.7202 -2.86488,-0.4703 -5.43333,-2.0286 -8.32519,-2.2852 -2.78464,-0.2471 -5.55216,-1.4789 -8.32519,-1.1246 -4.77873,0.6107 -9.51058,3.1641 -14.32519,2.9947 -4.87246,-0.1714 -9.45184,-1.5371 -14.32519,-1.6809 -5.83316,-0.1722 -11.51066,-0.2484 -17.325194,0.2482 -5.756082,0.4915 -11.563941,2.6291 -17.325191,2.2024 -3.822438,-0.2832 -7.517311,-0.2361 -11.325191,-0.6733 -3.756037,-0.4313 -11.325191,0.077 -11.325191,0.077"
       style="fill:none;fill-rule:evenodd;stroke:#000000;stroke-width:2;stroke-linecap:round;stroke-linejoin:round;stroke-miterlimit:4;stroke-dasharray:none;stroke-opacity:1" />
    <g
       id="g5407"
       transform="matrix(1.1562854,0,0,1.1562854,-80.597888,-39.34422)">
      <g
         style="filter:url(#filter5363)"
         transform="translate(72.75,18.5)"
         id="g5409">
        <path
           inkscape:connector-curvature="0"
           style="clip-rule:evenodd;fill:#000000;fill-rule:evenodd;image-rendering:optimizeQuality;shape-rendering:geometricPrecision;text-rendering:geometricPrecision"
           d="m 247.12384,1236.3141 c 0,0 0.0123,0.443 0.91049,0.6029 l -3.60506,0 0,0.972 16.45039,0 0,-0.972 -2.97755,0 c 0.45524,-0.1353 0.9351,-0.3937 1.11966,-0.9105 0,0 1.52569,-3.5804 -0.23378,-8.2559 0,0 -2.54692,-5.5491 -2.96525,-7.2963 0,0 -1.538,-5.7951 0.12304,-9.2156 0,0 0.3076,-0.7752 0.0492,-1.3166 -1.8825,0.062 -2.71917,-0.2091 -3.08829,-0.4798 -0.0369,0.062 -0.0861,0.1599 -0.0984,0.283 -0.50447,2.0793 -1.00893,4.1587 -1.51339,6.2381 -0.67672,3.1252 -1.75947,6.1027 -3.00217,9.0065 -2.07937,4.1833 -3.10059,8.1206 -1.18118,11.3565 z"
           id="path5411" />
        <path
           inkscape:connector-curvature="0"
           style="clip-rule:evenodd;fill:#000000;fill-rule:evenodd;image-rendering:optimizeQuality;shape-rendering:geometricPrecision;text-rendering:geometricPrecision"
           d="m 268.81572,1193.0534 c 0,0 0.38142,0.123 0.65211,-0.123 0,0 0.33221,0.098 0.39373,-0.2584 0,0 0.0246,-0.283 -0.36912,-0.3199 0,0 -0.9105,-0.012 -1.18118,-0.086 0,0 0,-0.1846 -0.0615,-0.3076 0,0 0.24608,-0.9598 -0.43064,-1.4273 0,0 -0.56598,-0.6275 -1.41496,-0.3445 0,0 -0.99662,0.1722 -1.31652,0.7874 0,0 -0.18456,0.4922 -0.20917,0.7506 0,0 -0.95971,0.1845 -0.88588,0.689 0,0 -0.0123,0.4306 0.54137,0.7998 0.13534,0.098 0.25838,0.1968 0.39373,0.2953 0,0 0.19686,0.1107 0.3322,-0.025 0,0 0.12304,-0.123 0,-0.2706 0,0 -0.0615,-0.086 -0.22147,-0.16 0,0 -0.20916,-0.1107 -0.3199,-0.1723 0,0 -0.18456,-0.098 -0.11074,-0.3076 0,0 0.13535,-0.3075 0.55368,-0.1845 0,0 0.19687,0.062 0.34451,0.2584 0,0 0.24608,0.283 0.45525,0.2707 0,0 -0.20917,1.4395 -2.09167,1.1565 0,0 -0.11074,-0.1722 -0.33221,-0.2214 0,0 -0.0861,-0.025 -0.0369,-0.099 0,0 0.3199,-0.037 0.22147,-0.7874 0,0 -0.54137,-1.8456 -0.70133,-2.2024 -0.15995,-0.3445 -0.55367,-1.0951 -0.61519,-1.3904 -0.0615,-0.2953 -0.20917,-1.1689 -0.41834,-1.5749 -0.18456,-0.5783 -0.36912,-1.1443 -0.55368,-1.7225 0,0 -0.13534,-0.3569 -0.41833,-0.086 0,0 -0.0246,0.2092 0.0615,0.4061 0.11073,0.4798 0.22147,0.972 0.3322,1.4518 0,0 0.15996,0.7137 -0.0984,0.8613 0,0 -0.13534,0.062 -0.14764,-0.1969 0,0 -0.43064,-1.2057 -0.94741,-1.7471 0,0 -0.0984,-0.1231 -0.22147,-0.3322 0,0 -0.34451,-0.6767 -0.99662,-0.849 0,0 -0.19686,-0.049 -0.23378,0.1107 0,0 -0.0492,0.1477 0.17226,0.1477 0,0 0.29529,0.098 0.43064,0.3937 0,0 -0.12304,0.1846 0.12304,0.2092 0,0 -0.0615,0.1968 0.0984,0.2707 0,0 0,0.1722 0.12304,0.2091 0,0 0.15995,0.3938 0.36912,0.5168 0,0 0.46755,1.3288 0.83667,2.4731 0,0 0.40603,1.0827 0.76284,1.7102 0,0 0.3199,0.6275 0.43064,0.9721 0,0 0.15995,0.3322 0.14765,0.5167 -0.0246,0.1477 -0.0615,0.3076 -0.0861,0.4553 0,0 -2.11628,-0.726 -3.48202,3.0267 0,0 -0.35682,-0.049 -0.55368,1.0951 0,0 0.0246,-1.6979 0.0861,-2.2885 0.0738,-0.5906 0.22147,-1.3289 0.40603,-1.5503 0,0 0.57829,-0.4184 0.78745,-0.8367 0,0 0.73824,-0.1969 0.68903,-1.1074 0,0 -0.0123,-0.2337 -0.0615,-0.1722 0,0 0.11073,-0.3691 -0.0123,-0.4922 0,0 0.13534,-0.2584 0.13534,-0.4552 0,0 -0.20916,0.025 -0.43063,0.2584 0,0 -0.44295,0.1476 -0.63981,0.4552 0,0 -0.3076,-0.086 -0.51677,0.3322 0,0 -0.39372,0.5537 -0.3199,0.8859 0,0 -0.0123,0.2707 -0.0984,0.4922 0,0 -0.13534,0.3076 -0.0492,0.6152 0,0 -0.40603,1.7717 -0.40603,3.6419 0,0 -0.0738,0.5414 -0.0861,0.7998 0,0 -0.0861,0.689 -0.24608,1.1935 -0.15996,0.4921 -0.70133,2.2762 -0.94741,3.1129 -0.24608,0.8366 -0.6275,1.7225 -0.95971,2.6699 -0.13534,0.3691 -0.3076,0.8121 -0.47985,1.2919 0.0246,-0.5413 0.0123,-1.0458 0.0615,-1.5256 0.0615,-0.5291 0.15995,-1.6611 0.18456,-1.9687 0.0246,-0.3199 0.13534,-0.7259 0.13534,-0.7259 0.0615,-0.1477 0.13534,-0.4676 0.13534,-0.4676 0.44295,-1.0458 0.6152,-2.1409 0.6152,-2.1409 0.12304,-0.1476 0.11074,-0.3568 0.11074,-0.3568 0,-0.1476 0.0615,-0.2953 0.0615,-0.2953 0.11073,-0.1722 0.0246,-0.5782 0.0246,-0.5782 -0.0123,-0.283 -0.20917,-0.3076 -0.20917,-0.3076 -0.0369,-0.2215 -0.24608,-0.4061 -0.24608,-0.4061 -0.0615,-0.1845 -0.18456,-0.2461 -0.18456,-0.2461 -0.0492,0.1108 -0.0246,0.283 -0.0246,0.283 -0.0984,0.037 -0.12304,0.2707 -0.12304,0.2707 -0.0123,-0.049 -0.0738,0.086 -0.0738,0.086 -0.23378,0.5045 0.13534,0.7875 0.13534,0.7875 0.0246,0.283 0.24608,0.6521 0.24608,0.6521 0.0492,0.1723 -0.0369,0.6275 -0.13534,0.972 -0.0984,0.3445 -0.47986,1.3042 -0.47986,1.3042 0.15995,-0.689 -0.0492,-0.7505 -0.0492,-0.7505 0.0984,-2.4362 -1.25501,-2.51 -1.25501,-2.51 0.0123,-0.098 0.0369,-0.1846 0.0492,-0.283 0.0369,-0.1107 0.19686,-0.2584 0.19686,-0.2584 0.13535,-0.1599 0.46755,-0.4429 0.46755,-0.4429 0.34451,-0.2707 0.82437,-0.7875 0.82437,-0.7875 0.47985,-0.5537 1.04583,-1.1935 1.04583,-1.1935 0.14765,-0.012 0.33221,-0.1968 0.33221,-0.1968 0.0738,0 0.11074,-0.086 0.11074,-0.086 0.11073,-0.012 0.12304,-0.1353 0.12304,-0.1353 0.14764,0.037 0.12304,-0.086 0.12304,-0.086 0.14764,-0.1354 0.3322,-0.1231 0.3322,-0.1231 0.12304,0.049 0.12304,-0.049 0.12304,-0.049 0.0123,-0.098 -0.11073,-0.1107 -0.11073,-0.1107 -0.40603,-0.049 -0.75054,0.2461 -0.75054,0.2461 -0.12304,0.086 -0.19687,0.1353 -0.19687,0.1353 -0.41833,0.1846 -0.9351,0.7629 -0.9351,0.7629 -0.0738,0.1476 -0.13534,0.074 -0.13534,0.074 -0.11074,-0.1354 0.14765,-0.5045 0.14765,-0.5045 0.17225,-0.2461 0.34451,-0.4921 0.51676,-0.7382 0.0984,-0.086 0.13535,-0.2092 0.13535,-0.2092 -0.0984,-0.2215 -0.24608,-0.049 -0.24608,-0.049 -0.23378,0.283 -0.46755,0.5537 -0.70133,0.8367 -0.20917,0.1845 -0.49216,0.6398 -0.59059,0.7874 -0.0984,0.16 -0.50446,0.4799 -0.66441,0.6398 -0.17226,0.16 -0.9105,1.0705 -0.9105,1.0705 -0.23377,0.3937 -0.0615,0.4921 -0.0615,0.4921 0.0123,0.062 -0.0369,0.049 -0.0369,0.049 -0.13534,-0.025 -0.23377,0.049 -0.23377,0.049 -1.13197,-0.283 -0.9105,-1.1443 -0.9105,-1.1443 0.12304,0.049 0.31991,-0.049 0.31991,-0.049 0.12304,-0.086 0.25838,-0.062 0.25838,-0.062 0.27069,0.025 0.27069,0.2337 0.27069,0.2337 -0.0123,0.1354 -0.13535,0.1477 -0.13535,0.1477 -0.0738,0.012 -0.22147,0.025 -0.22147,0.025 -0.11073,0 -0.15995,0.037 -0.15995,0.037 -0.11074,0.049 -0.0615,0.1476 -0.0615,0.1476 0.0492,0.1108 0.18456,0.086 0.18456,0.086 0.0984,-0.025 0.19686,-0.049 0.2953,-0.074 0.40603,-0.086 0.49215,-0.3199 0.49215,-0.3199 0.15995,-0.2706 -0.34451,-0.5905 -0.34451,-0.5905 0.0492,-0.1477 0.0615,-0.4676 0.0615,-0.4676 -0.0369,-0.4183 -0.55368,-0.7505 -0.55368,-0.7505 -0.40603,-0.3569 -0.87358,-0.1354 -0.87358,-0.1354 -0.49216,0.1108 -0.57828,0.7013 -0.57828,0.7013 -0.0615,0.049 -0.0984,0.16 -0.0984,0.16 -0.17226,-0.025 -0.68903,-0.2215 -0.68903,-0.2215 -0.23377,-0.074 -0.28299,0.086 -0.28299,0.086 -0.0492,0.2214 0.15995,0.2337 0.15995,0.2337 0.0861,0.1969 0.33221,0.2215 0.33221,0.2215 0.20917,0.025 0.41834,0.049 0.63981,0.062 0.24608,0.049 0.49216,0.099 0.73823,0.16 0.0615,0.025 0.0492,0.086 0,0.086 -0.0246,0 -0.0492,-0.012 -0.0738,-0.012 -0.50446,0.6767 0.0123,1.9563 1.07045,1.7964 -0.0123,0.049 -0.38143,0.566 -0.45525,0.6644 -0.0738,0.086 -0.23378,0.4183 -0.25838,0.6767 -0.0123,0.2584 -0.0123,0.8121 -0.0123,0.8121 -0.13534,0.5783 0.25838,0.8859 0.25838,0.8859 0.14765,0.1722 0.65211,0.2706 0.65211,0.2706 -0.0246,0.086 -0.14764,0.2338 -0.14764,0.2338 -0.43064,0.3199 -0.2953,0.566 -0.2953,0.566 0.2953,0.1599 0.87358,-0.062 0.87358,-0.062 0.31991,-0.1108 0.3076,-0.037 0.3076,-0.037 -0.6152,0.5413 -0.34451,1.3042 -0.34451,1.3042 1.29192,-0.7383 1.58721,-2.1286 1.58721,-2.1286 0.0738,-0.049 0.0369,0.7136 0.0369,0.7136 -0.0123,0.1846 -0.17225,2.2147 -0.17225,2.2147 -0.13535,0.8244 -0.0984,2.4608 -0.0984,2.4608 0,0.037 0,0.086 0,0.1231 -0.13535,0.4306 -0.25839,0.8489 -0.34451,1.255 -0.0246,0.1107 -0.0492,0.2338 -0.0738,0.3691 -0.3322,-0.025 -0.71363,-0.025 -1.13196,0.049 0,0 -0.0738,0.012 -0.14765,0.098 0.33221,0.2584 1.10736,0.5045 2.96525,0.4553 -0.0369,-0.062 -0.0861,-0.1107 -0.14764,-0.16 0,0 -0.35682,-0.2214 -0.98432,-0.3445 0.0246,-0.086 0.0369,-0.1722 0.0492,-0.2461 0.0123,-0.049 0.0123,-0.098 0.0246,-0.1476 0.17226,-0.689 0.40603,-1.5257 0.72594,-2.3378 0,0 1.07044,-2.4607 1.39035,-3.8019 0,0 1.02122,-3.1867 1.11966,-3.4697 0,0 0.41833,-1.1812 0.49215,-1.0581 0,0 -0.41833,2.3008 1.08275,4.2325 0,0 0.87358,-0.9843 0.28299,-2.1901 0,0 0.0369,-0.1107 0.44295,0.2584 0,0 0.75054,0.689 1.29191,0.6275 0,0 0.36912,-0.283 -0.0861,-1.0458 0,0 -0.11073,-0.2953 -0.0861,-0.443 0,0 0.83667,0.16 1.16887,0 0,0 0.81206,-0.2337 0.95971,-1.1935 0,0 0.35682,-0.8489 0.49216,-1.2427 0.13534,-0.3937 0.0738,-0.9966 0.0246,-1.1811 -0.0492,-0.1846 -0.2953,-1.1935 -0.27069,-1.2796 1.51339,0.8981 3.07599,-0.726 2.74378,-2.0671 -0.0369,-0.012 -0.0861,-0.025 -0.12304,-0.037 -0.0615,-0.025 -0.0492,-0.1477 0.0615,-0.1354 0.40603,0.074 0.81207,0.1477 1.20579,0.2215 0.33221,0.098 0.67672,0.1969 1.00893,0.2953 z"
           id="path5413" />
        <path
           inkscape:connector-curvature="0"
           style="clip-rule:evenodd;fill:#000000;fill-rule:evenodd;image-rendering:optimizeQuality;shape-rendering:geometricPrecision;text-rendering:geometricPrecision"
           d="m 253.06665,1202.8104 c 0,0 -0.12304,0.283 0.22147,0.037 0.76285,-0.6522 1.2304,-1.4519 1.08275,-2.6085 -0.0492,-0.3937 -0.39373,-0.8982 -0.36912,-1.1073 0,0 0,-0.2338 -0.12304,-0.2215 -0.12304,0.012 -0.3199,0.049 -0.18456,0.4306 0.13535,0.3691 0.51677,0.4061 0.51677,1.009 0,0.6028 -0.11074,0.9474 -0.28299,1.3657 0,0 -0.23378,0.4306 -0.45525,0.6152 0,0 -0.44294,-0.1107 -0.40603,-0.6152 0.0369,-0.5045 0.12304,-0.5537 0.14765,-0.6767 0.0246,-0.1231 0.11073,-0.6152 0.0984,-0.726 -0.0123,-0.1107 -0.0615,-0.4921 -0.14765,-0.7259 -0.0738,-0.2215 -0.0615,-0.1476 -0.0369,-0.4183 0.0246,-0.2707 -0.18456,-0.049 0.0984,-0.3815 0,0 0.20917,-0.3075 0.45525,-0.086 0,0 0.0738,0.1969 -0.12304,0.2338 0,0 -0.18456,0.049 -0.15995,0.2953 0.0246,0.2461 0.18456,0.5906 0.12304,1.095 -0.0615,0.5168 -0.14765,1.0213 -0.23378,1.1935 -0.0861,0.1723 -0.0615,0.5168 0.0123,0.6152 0.0738,0.098 0.13534,0.074 0.13534,0.074 l 0.0246,0.099 c -0.0738,0.098 -0.15995,0.1968 -0.23378,0.283 -0.0615,0.062 -0.11073,0.1353 -0.17225,0.1968 z"
           id="path5415" />
        <path
           inkscape:connector-curvature="0"
           style="clip-rule:evenodd;fill:#000000;fill-rule:evenodd;image-rendering:optimizeQuality;shape-rendering:geometricPrecision;text-rendering:geometricPrecision"
           d="m 260.94118,1200.4727 c 0,0 0.0123,0.5045 -0.36911,-0.086 -0.75055,-1.4519 -0.95971,-2.9776 -0.0123,-4.6386 0.33221,-0.566 1.16888,-1.1197 1.25501,-1.4519 0,0 0.13534,-0.3568 0.3199,-0.2584 0.18456,0.098 0.45524,0.283 0.0246,0.7629 -0.44295,0.4921 -1.03354,0.283 -1.41496,1.2058 -0.38142,0.9228 -0.43064,1.5133 -0.41833,2.2516 0,0 0.0861,0.7997 0.3076,1.2181 0,0 0.73823,0.1107 0.99662,-0.6767 0.25838,-0.7998 0.14764,-0.9228 0.19686,-1.132 0.0369,-0.2092 0.20917,-1.0089 0.29529,-1.1689 0.0984,-0.1599 0.41834,-0.7136 0.67672,-1.0089 0.25839,-0.2953 0.18456,-0.1969 0.3076,-0.6152 0.13534,-0.4183 0.3076,0.037 0.0861,-0.6521 0,0 -0.12304,-0.5906 -0.63981,-0.4061 0,0 -0.23377,0.2461 0.0369,0.4307 0,0 0.24608,0.1845 0.0615,0.5537 -0.18455,0.3691 -0.65211,0.7751 -0.87358,1.5995 -0.22147,0.8243 -0.41833,1.6364 -0.39372,1.9686 0.0246,0.3322 -0.22147,0.8121 -0.39373,0.9228 -0.17226,0.1107 -0.25838,0.037 -0.25838,0.037 l -0.0984,0.1477 c 0.0615,0.1968 0.11073,0.3814 0.17225,0.5783 0.0492,0.1353 0.0861,0.2706 0.13534,0.406 z"
           id="path5417" />
      </g>
      <path
         inkscape:connector-curvature="0"
         style="fill:#000000;fill-opacity:1;stroke:none"
         d="m 326.58948,1250.8374 c -7.1476,0 -12.94763,1.5867 -12.94763,3.5384 -0.083,0.3873 -0.0543,0.6536 0,1.0295 0,1.9519 5.80003,3.5384 12.94763,3.5384 7.1476,0 12.93155,-1.5865 12.93155,-3.5384 0.009,-0.3669 0.0164,-0.6396 0,-1.0295 0,-1.9517 -5.78395,-3.5384 -12.93155,-3.5384 z"
         id="path5419" />
      <path
         inkscape:connector-curvature="0"
         style="fill:#000000;fill-opacity:1;stroke:none"
         d="m 316.6901,1256.4796 1.77435,0.2627 -4.58112,30.9357 -1.77435,-0.2628 z"
         id="path5421" />
      <path
         inkscape:connector-curvature="0"
         style="fill:#000000;fill-opacity:1;stroke:none"
         d="m 320.81335,1257.9515 2.41786,0.2203 -3.51585,38.5868 -2.41786,-0.2203 z"
         id="path5423" />
      <path
         inkscape:connector-curvature="0"
         style="fill:#000000;fill-opacity:1;stroke:none"
         d="m 332.26829,1255.9891 2.39183,-0.4168 6.65186,38.1711 -2.39183,0.4168 z"
         id="path5425" />
      <path
         inkscape:connector-curvature="0"
         style="fill:#000000;fill-opacity:1;stroke:none"
         d="m 328.51148,1256.171 2.0393,-0.1789 2.57166,29.3064 -2.0393,0.179 z"
         id="path5427" />
      <path
         inkscape:connector-curvature="0"
         style="color:#000000;text-indent:0;text-transform:none;direction:ltr;block-progression:tb;baseline-shift:baseline;display:inline;overflow:visible;visibility:visible;fill:none;fill-opacity:1;stroke:#000000;stroke-width:0.30199999;stroke-linecap:round;stroke-linejoin:round;stroke-miterlimit:4;stroke-dasharray:none;stroke-opacity:1;marker:none;enable-background:accumulate"
         d="m 326.32091,1271.5483 c 1.49479,0 2.71949,1.052 4.01295,1.2304 1.29347,0.1792 2.33694,0.3605 3.30136,0.6786 0.96443,0.3181 2.38071,0.7008 2.90523,1.1099 0.52453,0.4091 0.0775,0.1848 0.0775,0.6477 0,0.4628 -0.25016,0.8653 -0.77469,1.2744 -0.52452,0.4092 -0.76201,1.5868 -1.72644,1.9049 -0.96442,0.3181 -1.9083,0.4388 -3.20177,0.6179 -1.29346,0.179 -2.60821,-0.2041 -4.103,-0.2041 -1.4948,0 -3.39717,-0.4564 -4.68482,-0.6348 -1.28768,-0.1792 -1.43689,0.031 -2.4013,-0.2871 -0.96444,-0.3181 -2.43094,-0.2612 -2.95546,-0.6703 -0.52453,-0.4091 -1.01278,-0.7625 -1.01278,-1.2253 0,-0.4628 0.68037,-1.4762 1.2049,-1.8853 0.52452,-0.4092 0.63011,-0.233 1.59454,-0.5511 0.96442,-0.3182 1.88794,-1.3514 3.17562,-1.5306 1.28765,-0.179 2.88414,-0.5746 4.37087,-0.4195 0.50844,0.053 1.52533,0.1591 1.52533,0.1591"
         visibility="visible"
         display="inline"
         overflow="visible"
         id="path5429"
         sodipodi:nodetypes="sssssssssssssssssc" />
      <g
         id="g5431"
         transform="translate(72.75,18.5)">
        <path
           id="path5433"
           d="m 247.12384,1236.3141 c 0,0 0.0123,0.443 0.91049,0.6029 l -3.60506,0 0,0.972 16.45039,0 0,-0.972 -2.97755,0 c 0.45524,-0.1353 0.9351,-0.3937 1.11966,-0.9105 0,0 1.52569,-3.5804 -0.23378,-8.2559 0,0 -2.54692,-5.5491 -2.96525,-7.2963 0,0 -1.538,-5.7951 0.12304,-9.2156 0,0 0.3076,-0.7752 0.0492,-1.3166 -1.8825,0.062 -2.71917,-0.2091 -3.08829,-0.4798 -0.0369,0.062 -0.0861,0.1599 -0.0984,0.283 -0.50447,2.0793 -1.00893,4.1587 -1.51339,6.2381 -0.67672,3.1252 -1.75947,6.1027 -3.00217,9.0065 -2.07937,4.1833 -3.10059,8.1206 -1.18118,11.3565 z"
           style="clip-rule:evenodd;fill:#000000;fill-rule:evenodd;image-rendering:optimizeQuality;shape-rendering:geometricPrecision;text-rendering:geometricPrecision"
           inkscape:connector-curvature="0" />
        <path
           id="path5435"
           d="m 268.81572,1193.0534 c 0,0 0.38142,0.123 0.65211,-0.123 0,0 0.33221,0.098 0.39373,-0.2584 0,0 0.0246,-0.283 -0.36912,-0.3199 0,0 -0.9105,-0.012 -1.18118,-0.086 0,0 0,-0.1846 -0.0615,-0.3076 0,0 0.24608,-0.9598 -0.43064,-1.4273 0,0 -0.56598,-0.6275 -1.41496,-0.3445 0,0 -0.99662,0.1722 -1.31652,0.7874 0,0 -0.18456,0.4922 -0.20917,0.7506 0,0 -0.95971,0.1845 -0.88588,0.689 0,0 -0.0123,0.4306 0.54137,0.7998 0.13534,0.098 0.25838,0.1968 0.39373,0.2953 0,0 0.19686,0.1107 0.3322,-0.025 0,0 0.12304,-0.123 0,-0.2706 0,0 -0.0615,-0.086 -0.22147,-0.16 0,0 -0.20916,-0.1107 -0.3199,-0.1723 0,0 -0.18456,-0.098 -0.11074,-0.3076 0,0 0.13535,-0.3075 0.55368,-0.1845 0,0 0.19687,0.062 0.34451,0.2584 0,0 0.24608,0.283 0.45525,0.2707 0,0 -0.20917,1.4395 -2.09167,1.1565 0,0 -0.11074,-0.1722 -0.33221,-0.2214 0,0 -0.0861,-0.025 -0.0369,-0.099 0,0 0.3199,-0.037 0.22147,-0.7874 0,0 -0.54137,-1.8456 -0.70133,-2.2024 -0.15995,-0.3445 -0.55367,-1.0951 -0.61519,-1.3904 -0.0615,-0.2953 -0.20917,-1.1689 -0.41834,-1.5749 -0.18456,-0.5783 -0.36912,-1.1443 -0.55368,-1.7225 0,0 -0.13534,-0.3569 -0.41833,-0.086 0,0 -0.0246,0.2092 0.0615,0.4061 0.11073,0.4798 0.22147,0.972 0.3322,1.4518 0,0 0.15996,0.7137 -0.0984,0.8613 0,0 -0.13534,0.062 -0.14764,-0.1969 0,0 -0.43064,-1.2057 -0.94741,-1.7471 0,0 -0.0984,-0.1231 -0.22147,-0.3322 0,0 -0.34451,-0.6767 -0.99662,-0.849 0,0 -0.19686,-0.049 -0.23378,0.1107 0,0 -0.0492,0.1477 0.17226,0.1477 0,0 0.29529,0.098 0.43064,0.3937 0,0 -0.12304,0.1846 0.12304,0.2092 0,0 -0.0615,0.1968 0.0984,0.2707 0,0 0,0.1722 0.12304,0.2091 0,0 0.15995,0.3938 0.36912,0.5168 0,0 0.46755,1.3288 0.83667,2.4731 0,0 0.40603,1.0827 0.76284,1.7102 0,0 0.3199,0.6275 0.43064,0.9721 0,0 0.15995,0.3322 0.14765,0.5167 -0.0246,0.1477 -0.0615,0.3076 -0.0861,0.4553 0,0 -2.11628,-0.726 -3.48202,3.0267 0,0 -0.35682,-0.049 -0.55368,1.0951 0,0 0.0246,-1.6979 0.0861,-2.2885 0.0738,-0.5906 0.22147,-1.3289 0.40603,-1.5503 0,0 0.57829,-0.4184 0.78745,-0.8367 0,0 0.73824,-0.1969 0.68903,-1.1074 0,0 -0.0123,-0.2337 -0.0615,-0.1722 0,0 0.11073,-0.3691 -0.0123,-0.4922 0,0 0.13534,-0.2584 0.13534,-0.4552 0,0 -0.20916,0.025 -0.43063,0.2584 0,0 -0.44295,0.1476 -0.63981,0.4552 0,0 -0.3076,-0.086 -0.51677,0.3322 0,0 -0.39372,0.5537 -0.3199,0.8859 0,0 -0.0123,0.2707 -0.0984,0.4922 0,0 -0.13534,0.3076 -0.0492,0.6152 0,0 -0.40603,1.7717 -0.40603,3.6419 0,0 -0.0738,0.5414 -0.0861,0.7998 0,0 -0.0861,0.689 -0.24608,1.1935 -0.15996,0.4921 -0.70133,2.2762 -0.94741,3.1129 -0.24608,0.8366 -0.6275,1.7225 -0.95971,2.6699 -0.13534,0.3691 -0.3076,0.8121 -0.47985,1.2919 0.0246,-0.5413 0.0123,-1.0458 0.0615,-1.5256 0.0615,-0.5291 0.15995,-1.6611 0.18456,-1.9687 0.0246,-0.3199 0.13534,-0.7259 0.13534,-0.7259 0.0615,-0.1477 0.13534,-0.4676 0.13534,-0.4676 0.44295,-1.0458 0.6152,-2.1409 0.6152,-2.1409 0.12304,-0.1476 0.11074,-0.3568 0.11074,-0.3568 0,-0.1476 0.0615,-0.2953 0.0615,-0.2953 0.11073,-0.1722 0.0246,-0.5782 0.0246,-0.5782 -0.0123,-0.283 -0.20917,-0.3076 -0.20917,-0.3076 -0.0369,-0.2215 -0.24608,-0.4061 -0.24608,-0.4061 -0.0615,-0.1845 -0.18456,-0.2461 -0.18456,-0.2461 -0.0492,0.1108 -0.0246,0.283 -0.0246,0.283 -0.0984,0.037 -0.12304,0.2707 -0.12304,0.2707 -0.0123,-0.049 -0.0738,0.086 -0.0738,0.086 -0.23378,0.5045 0.13534,0.7875 0.13534,0.7875 0.0246,0.283 0.24608,0.6521 0.24608,0.6521 0.0492,0.1723 -0.0369,0.6275 -0.13534,0.972 -0.0984,0.3445 -0.47986,1.3042 -0.47986,1.3042 0.15995,-0.689 -0.0492,-0.7505 -0.0492,-0.7505 0.0984,-2.4362 -1.25501,-2.51 -1.25501,-2.51 0.0123,-0.098 0.0369,-0.1846 0.0492,-0.283 0.0369,-0.1107 0.19686,-0.2584 0.19686,-0.2584 0.13535,-0.1599 0.46755,-0.4429 0.46755,-0.4429 0.34451,-0.2707 0.82437,-0.7875 0.82437,-0.7875 0.47985,-0.5537 1.04583,-1.1935 1.04583,-1.1935 0.14765,-0.012 0.33221,-0.1968 0.33221,-0.1968 0.0738,0 0.11074,-0.086 0.11074,-0.086 0.11073,-0.012 0.12304,-0.1353 0.12304,-0.1353 0.14764,0.037 0.12304,-0.086 0.12304,-0.086 0.14764,-0.1354 0.3322,-0.1231 0.3322,-0.1231 0.12304,0.049 0.12304,-0.049 0.12304,-0.049 0.0123,-0.098 -0.11073,-0.1107 -0.11073,-0.1107 -0.40603,-0.049 -0.75054,0.2461 -0.75054,0.2461 -0.12304,0.086 -0.19687,0.1353 -0.19687,0.1353 -0.41833,0.1846 -0.9351,0.7629 -0.9351,0.7629 -0.0738,0.1476 -0.13534,0.074 -0.13534,0.074 -0.11074,-0.1354 0.14765,-0.5045 0.14765,-0.5045 0.17225,-0.2461 0.34451,-0.4921 0.51676,-0.7382 0.0984,-0.086 0.13535,-0.2092 0.13535,-0.2092 -0.0984,-0.2215 -0.24608,-0.049 -0.24608,-0.049 -0.23378,0.283 -0.46755,0.5537 -0.70133,0.8367 -0.20917,0.1845 -0.49216,0.6398 -0.59059,0.7874 -0.0984,0.16 -0.50446,0.4799 -0.66441,0.6398 -0.17226,0.16 -0.9105,1.0705 -0.9105,1.0705 -0.23377,0.3937 -0.0615,0.4921 -0.0615,0.4921 0.0123,0.062 -0.0369,0.049 -0.0369,0.049 -0.13534,-0.025 -0.23377,0.049 -0.23377,0.049 -1.13197,-0.283 -0.9105,-1.1443 -0.9105,-1.1443 0.12304,0.049 0.31991,-0.049 0.31991,-0.049 0.12304,-0.086 0.25838,-0.062 0.25838,-0.062 0.27069,0.025 0.27069,0.2337 0.27069,0.2337 -0.0123,0.1354 -0.13535,0.1477 -0.13535,0.1477 -0.0738,0.012 -0.22147,0.025 -0.22147,0.025 -0.11073,0 -0.15995,0.037 -0.15995,0.037 -0.11074,0.049 -0.0615,0.1476 -0.0615,0.1476 0.0492,0.1108 0.18456,0.086 0.18456,0.086 0.0984,-0.025 0.19686,-0.049 0.2953,-0.074 0.40603,-0.086 0.49215,-0.3199 0.49215,-0.3199 0.15995,-0.2706 -0.34451,-0.5905 -0.34451,-0.5905 0.0492,-0.1477 0.0615,-0.4676 0.0615,-0.4676 -0.0369,-0.4183 -0.55368,-0.7505 -0.55368,-0.7505 -0.40603,-0.3569 -0.87358,-0.1354 -0.87358,-0.1354 -0.49216,0.1108 -0.57828,0.7013 -0.57828,0.7013 -0.0615,0.049 -0.0984,0.16 -0.0984,0.16 -0.17226,-0.025 -0.68903,-0.2215 -0.68903,-0.2215 -0.23377,-0.074 -0.28299,0.086 -0.28299,0.086 -0.0492,0.2214 0.15995,0.2337 0.15995,0.2337 0.0861,0.1969 0.33221,0.2215 0.33221,0.2215 0.20917,0.025 0.41834,0.049 0.63981,0.062 0.24608,0.049 0.49216,0.099 0.73823,0.16 0.0615,0.025 0.0492,0.086 0,0.086 -0.0246,0 -0.0492,-0.012 -0.0738,-0.012 -0.50446,0.6767 0.0123,1.9563 1.07045,1.7964 -0.0123,0.049 -0.38143,0.566 -0.45525,0.6644 -0.0738,0.086 -0.23378,0.4183 -0.25838,0.6767 -0.0123,0.2584 -0.0123,0.8121 -0.0123,0.8121 -0.13534,0.5783 0.25838,0.8859 0.25838,0.8859 0.14765,0.1722 0.65211,0.2706 0.65211,0.2706 -0.0246,0.086 -0.14764,0.2338 -0.14764,0.2338 -0.43064,0.3199 -0.2953,0.566 -0.2953,0.566 0.2953,0.1599 0.87358,-0.062 0.87358,-0.062 0.31991,-0.1108 0.3076,-0.037 0.3076,-0.037 -0.6152,0.5413 -0.34451,1.3042 -0.34451,1.3042 1.29192,-0.7383 1.58721,-2.1286 1.58721,-2.1286 0.0738,-0.049 0.0369,0.7136 0.0369,0.7136 -0.0123,0.1846 -0.17225,2.2147 -0.17225,2.2147 -0.13535,0.8244 -0.0984,2.4608 -0.0984,2.4608 0,0.037 0,0.086 0,0.1231 -0.13535,0.4306 -0.25839,0.8489 -0.34451,1.255 -0.0246,0.1107 -0.0492,0.2338 -0.0738,0.3691 -0.3322,-0.025 -0.71363,-0.025 -1.13196,0.049 0,0 -0.0738,0.012 -0.14765,0.098 0.33221,0.2584 1.10736,0.5045 2.96525,0.4553 -0.0369,-0.062 -0.0861,-0.1107 -0.14764,-0.16 0,0 -0.35682,-0.2214 -0.98432,-0.3445 0.0246,-0.086 0.0369,-0.1722 0.0492,-0.2461 0.0123,-0.049 0.0123,-0.098 0.0246,-0.1476 0.17226,-0.689 0.40603,-1.5257 0.72594,-2.3378 0,0 1.07044,-2.4607 1.39035,-3.8019 0,0 1.02122,-3.1867 1.11966,-3.4697 0,0 0.41833,-1.1812 0.49215,-1.0581 0,0 -0.41833,2.3008 1.08275,4.2325 0,0 0.87358,-0.9843 0.28299,-2.1901 0,0 0.0369,-0.1107 0.44295,0.2584 0,0 0.75054,0.689 1.29191,0.6275 0,0 0.36912,-0.283 -0.0861,-1.0458 0,0 -0.11073,-0.2953 -0.0861,-0.443 0,0 0.83667,0.16 1.16887,0 0,0 0.81206,-0.2337 0.95971,-1.1935 0,0 0.35682,-0.8489 0.49216,-1.2427 0.13534,-0.3937 0.0738,-0.9966 0.0246,-1.1811 -0.0492,-0.1846 -0.2953,-1.1935 -0.27069,-1.2796 1.51339,0.8981 3.07599,-0.726 2.74378,-2.0671 -0.0369,-0.012 -0.0861,-0.025 -0.12304,-0.037 -0.0615,-0.025 -0.0492,-0.1477 0.0615,-0.1354 0.40603,0.074 0.81207,0.1477 1.20579,0.2215 0.33221,0.098 0.67672,0.1969 1.00893,0.2953 z"
           style="clip-rule:evenodd;fill:#000000;fill-rule:evenodd;image-rendering:optimizeQuality;shape-rendering:geometricPrecision;text-rendering:geometricPrecision"
           inkscape:connector-curvature="0" />
        <path
           id="path5437"
           d="m 253.06665,1202.8104 c 0,0 -0.12304,0.283 0.22147,0.037 0.76285,-0.6522 1.2304,-1.4519 1.08275,-2.6085 -0.0492,-0.3937 -0.39373,-0.8982 -0.36912,-1.1073 0,0 0,-0.2338 -0.12304,-0.2215 -0.12304,0.012 -0.3199,0.049 -0.18456,0.4306 0.13535,0.3691 0.51677,0.4061 0.51677,1.009 0,0.6028 -0.11074,0.9474 -0.28299,1.3657 0,0 -0.23378,0.4306 -0.45525,0.6152 0,0 -0.44294,-0.1107 -0.40603,-0.6152 0.0369,-0.5045 0.12304,-0.5537 0.14765,-0.6767 0.0246,-0.1231 0.11073,-0.6152 0.0984,-0.726 -0.0123,-0.1107 -0.0615,-0.4921 -0.14765,-0.7259 -0.0738,-0.2215 -0.0615,-0.1476 -0.0369,-0.4183 0.0246,-0.2707 -0.18456,-0.049 0.0984,-0.3815 0,0 0.20917,-0.3075 0.45525,-0.086 0,0 0.0738,0.1969 -0.12304,0.2338 0,0 -0.18456,0.049 -0.15995,0.2953 0.0246,0.2461 0.18456,0.5906 0.12304,1.095 -0.0615,0.5168 -0.14765,1.0213 -0.23378,1.1935 -0.0861,0.1723 -0.0615,0.5168 0.0123,0.6152 0.0738,0.098 0.13534,0.074 0.13534,0.074 l 0.0246,0.099 c -0.0738,0.098 -0.15995,0.1968 -0.23378,0.283 -0.0615,0.062 -0.11073,0.1353 -0.17225,0.1968 z"
           style="clip-rule:evenodd;fill:#000000;fill-rule:evenodd;image-rendering:optimizeQuality;shape-rendering:geometricPrecision;text-rendering:geometricPrecision"
           inkscape:connector-curvature="0" />
        <path
           id="path5439"
           d="m 260.94118,1200.4727 c 0,0 0.0123,0.5045 -0.36911,-0.086 -0.75055,-1.4519 -0.95971,-2.9776 -0.0123,-4.6386 0.33221,-0.566 1.16888,-1.1197 1.25501,-1.4519 0,0 0.13534,-0.3568 0.3199,-0.2584 0.18456,0.098 0.45524,0.283 0.0246,0.7629 -0.44295,0.4921 -1.03354,0.283 -1.41496,1.2058 -0.38142,0.9228 -0.43064,1.5133 -0.41833,2.2516 0,0 0.0861,0.7997 0.3076,1.2181 0,0 0.73823,0.1107 0.99662,-0.6767 0.25838,-0.7998 0.14764,-0.9228 0.19686,-1.132 0.0369,-0.2092 0.20917,-1.0089 0.29529,-1.1689 0.0984,-0.1599 0.41834,-0.7136 0.67672,-1.0089 0.25839,-0.2953 0.18456,-0.1969 0.3076,-0.6152 0.13534,-0.4183 0.3076,0.037 0.0861,-0.6521 0,0 -0.12304,-0.5906 -0.63981,-0.4061 0,0 -0.23377,0.2461 0.0369,0.4307 0,0 0.24608,0.1845 0.0615,0.5537 -0.18455,0.3691 -0.65211,0.7751 -0.87358,1.5995 -0.22147,0.8243 -0.41833,1.6364 -0.39372,1.9686 0.0246,0.3322 -0.22147,0.8121 -0.39373,0.9228 -0.17226,0.1107 -0.25838,0.037 -0.25838,0.037 l -0.0984,0.1477 c 0.0615,0.1968 0.11073,0.3814 0.17225,0.5783 0.0492,0.1353 0.0861,0.2706 0.13534,0.406 z"
           style="clip-rule:evenodd;fill:#000000;fill-rule:evenodd;image-rendering:optimizeQuality;shape-rendering:geometricPrecision;text-rendering:geometricPrecision"
           inkscape:connector-curvature="0" />
      </g>
    </g>
  </g>
</svg>
