<?xml version="1.0" encoding="UTF-8" standalone="no"?>
<svg
   xmlns:dc="http://purl.org/dc/elements/1.1/"
   xmlns:cc="http://creativecommons.org/ns#"
   xmlns:rdf="http://www.w3.org/1999/02/22-rdf-syntax-ns#"
   xmlns:svg="http://www.w3.org/2000/svg"
   xmlns="http://www.w3.org/2000/svg"
   xmlns:sodipodi="http://sodipodi.sourceforge.net/DTD/sodipodi-0.dtd"
   xmlns:inkscape="http://www.inkscape.org/namespaces/inkscape"
   version="1.1"
   x="0px"
   y="0px"
   viewBox="0 0 150 150"
   enable-background="new 0 0 100 100"
   xml:space="preserve"
   id="svg3555"
   inkscape:version="0.91 r13725"
   sodipodi:docname="Activism.svg"
   width="150"
   height="150"><metadata
     id="metadata3593"><rdf:RDF><cc:Work
         rdf:about=""><dc:format>image/svg+xml</dc:format><dc:type
           rdf:resource="http://purl.org/dc/dcmitype/StillImage" /><dc:title /></cc:Work></rdf:RDF></metadata><defs
     id="defs3591"><filter
       inkscape:collect="always"
       style="color-interpolation-filters:sRGB"
       id="filter4187"
       x="-0.0532299"
       width="1.1064598"
       y="-0.068743172"
       height="1.1374863"><feGaussianBlur
         inkscape:collect="always"
         stdDeviation="2.2179125"
         id="feGaussianBlur4189" /></filter></defs><sodipodi:namedview
     pagecolor="#ffffff"
     bordercolor="#666666"
     borderopacity="1"
     objecttolerance="10"
     gridtolerance="10"
     guidetolerance="10"
     inkscape:pageopacity="0"
     inkscape:pageshadow="2"
     inkscape:window-width="1366"
     inkscape:window-height="713"
     id="namedview3589"
     showgrid="false"
     showborder="false"
     inkscape:zoom="1"
     inkscape:cx="52.70822"
     inkscape:cy="-7.5671077"
     inkscape:window-x="0"
     inkscape:window-y="27"
     inkscape:window-maximized="1"
     inkscape:current-layer="svg3555"
     showguides="true"
     inkscape:guide-bbox="true"
     fit-margin-top="0"
     fit-margin-left="0"
     fit-margin-right="0"
     fit-margin-bottom="0" /><g
     id="g3419"
     transform="matrix(1.171875,0,0,1.171875,0.85937631,-26.640627)"><rect
       ry="0"
       rx="0"
       style="opacity:1;fill:#333333;fill-opacity:1;stroke:none;stroke-width:6.79094839;stroke-linecap:round;stroke-linejoin:round;stroke-miterlimit:4;stroke-dasharray:none;stroke-dashoffset:0;stroke-opacity:1"
       id="rect5453"
       width="128"
       height="128"
       x="-5.0000076"
       y="27.00001" /><g
       transform="matrix(0.76061815,0,0,0.76061815,4.2354787,48.193648)"
       id="g4191"><g
         style="fill:#e6e6e6;filter:url(#filter4187)"
         transform="matrix(1.2167395,0,0,1.2167395,11.16303,27.892105)"
         id="g3373"><path
           id="path3375"
           d="M 27.957,37.612 C 16.815,25.559 9.62,13.275 8.645,5.764 L 0,0 C 0.117,0.078 -1.111,8.063 8.608,14.746 L 0.15,9.094 C 0.267,9.173 -0.961,17.157 8.757,23.84 L 0.074,18.039 c 0.118,0.079 -1.157,8.216 8.833,14.933 l -8.87,-5.951 c 0.118,0.079 -1.16,8.244 8.907,14.97 l 3.031,2.021 c 8.938,3.497 21.479,13.597 33.196,27.433 1.697,2.004 3.297,3.989 4.828,5.988 L 43.375,51.684 C 38.365,47.914 33.082,43.156 27.957,37.612 Z"
           inkscape:connector-curvature="0"
           style="fill:#e6e6e6" /><path
           id="path3377"
           d="M 100,0 91.354,5.764 C 90.38,13.275 83.184,25.559 72.042,37.613 66.918,43.156 61.634,47.914 56.623,51.685 L 50,77.433 c 1.529,-1.999 3.131,-3.984 4.828,-5.988 C 66.544,57.609 79.086,47.509 88.024,44.012 l 3.031,-2.021 c 10.067,-6.726 8.789,-14.891 8.907,-14.97 l -8.87,5.951 c 9.99,-6.717 8.714,-14.854 8.832,-14.933 L 91.241,23.84 C 100.96,17.157 99.732,9.173 99.849,9.094 l -8.458,5.651 C 101.111,8.063 99.883,0.078 100,0 Z"
           inkscape:connector-curvature="0"
           style="fill:#e6e6e6" /><path
           id="path3379"
           d="M 42.777,49.364 36.34,24.289 26.16,17.477 11.527,7.709 c 0.659,6.72 7.232,17.996 17.478,29.08 4.566,4.94 9.3,9.19 13.772,12.575 z"
           inkscape:connector-curvature="0"
           style="fill:#e6e6e6" /><path
           id="path3381"
           d="M 70.995,36.789 C 81.24,25.706 87.814,14.43 88.473,7.709 L 73.84,17.478 63.66,24.29 57.222,49.365 c 4.473,-3.386 9.208,-7.636 13.773,-12.576 z"
           inkscape:connector-curvature="0"
           style="fill:#e6e6e6" /><path
           id="path3383"
           d="m 12.201,47.081 c 0.555,3.006 2.437,7.729 8.683,11.901 l 13.099,8.72 13.623,9.132 C 46.459,75.364 45.296,73.89 44.05,72.418 32.646,58.952 20.309,49.429 12.201,47.081 Z"
           inkscape:connector-curvature="0"
           style="fill:#e6e6e6" /><path
           id="path3385"
           d="m 55.95,72.417 c -1.246,1.472 -2.409,2.946 -3.555,4.416 l 13.622,-9.132 13.1,-8.72 C 85.362,54.808 87.245,50.085 87.8,47.08 79.692,49.429 67.354,58.952 55.95,72.417 Z"
           inkscape:connector-curvature="0"
           style="fill:#e6e6e6" /></g><g
         id="g19611"
         transform="matrix(1.2167395,0,0,1.2167395,11.16303,27.892105)"
         style="fill:#e6e6e6"><path
           style="fill:#e6e6e6"
           inkscape:connector-curvature="0"
           d="M 27.957,37.612 C 16.815,25.559 9.62,13.275 8.645,5.764 L 0,0 C 0.117,0.078 -1.111,8.063 8.608,14.746 L 0.15,9.094 C 0.267,9.173 -0.961,17.157 8.757,23.84 L 0.074,18.039 c 0.118,0.079 -1.157,8.216 8.833,14.933 l -8.87,-5.951 c 0.118,0.079 -1.16,8.244 8.907,14.97 l 3.031,2.021 c 8.938,3.497 21.479,13.597 33.196,27.433 1.697,2.004 3.297,3.989 4.828,5.988 L 43.375,51.684 C 38.365,47.914 33.082,43.156 27.957,37.612 Z"
           id="path19613" /><path
           style="fill:#e6e6e6"
           inkscape:connector-curvature="0"
           d="M 100,0 91.354,5.764 C 90.38,13.275 83.184,25.559 72.042,37.613 66.918,43.156 61.634,47.914 56.623,51.685 L 50,77.433 c 1.529,-1.999 3.131,-3.984 4.828,-5.988 C 66.544,57.609 79.086,47.509 88.024,44.012 l 3.031,-2.021 c 10.067,-6.726 8.789,-14.891 8.907,-14.97 l -8.87,5.951 c 9.99,-6.717 8.714,-14.854 8.832,-14.933 L 91.241,23.84 C 100.96,17.157 99.732,9.173 99.849,9.094 l -8.458,5.651 C 101.111,8.063 99.883,0.078 100,0 Z"
           id="path19615" /><path
           style="fill:#e6e6e6"
           inkscape:connector-curvature="0"
           d="M 42.777,49.364 36.34,24.289 26.16,17.477 11.527,7.709 c 0.659,6.72 7.232,17.996 17.478,29.08 4.566,4.94 9.3,9.19 13.772,12.575 z"
           id="path19617" /><path
           style="fill:#e6e6e6"
           inkscape:connector-curvature="0"
           d="M 70.995,36.789 C 81.24,25.706 87.814,14.43 88.473,7.709 L 73.84,17.478 63.66,24.29 57.222,49.365 c 4.473,-3.386 9.208,-7.636 13.773,-12.576 z"
           id="path19619" /><path
           style="fill:#e6e6e6"
           inkscape:connector-curvature="0"
           d="m 12.201,47.081 c 0.555,3.006 2.437,7.729 8.683,11.901 l 13.099,8.72 13.623,9.132 C 46.459,75.364 45.296,73.89 44.05,72.418 32.646,58.952 20.309,49.429 12.201,47.081 Z"
           id="path19621" /><path
           style="fill:#e6e6e6"
           inkscape:connector-curvature="0"
           d="m 55.95,72.417 c -1.246,1.472 -2.409,2.946 -3.555,4.416 l 13.622,-9.132 13.1,-8.72 C 85.362,54.808 87.245,50.085 87.8,47.08 79.692,49.429 67.354,58.952 55.95,72.417 Z"
           id="path19623" /></g></g></g></svg>