<?xml version="1.0" encoding="UTF-8" standalone="no"?>
<svg
   xmlns:dc="http://purl.org/dc/elements/1.1/"
   xmlns:cc="http://creativecommons.org/ns#"
   xmlns:rdf="http://www.w3.org/1999/02/22-rdf-syntax-ns#"
   xmlns:svg="http://www.w3.org/2000/svg"
   xmlns="http://www.w3.org/2000/svg"
   xmlns:sodipodi="http://sodipodi.sourceforge.net/DTD/sodipodi-0.dtd"
   xmlns:inkscape="http://www.inkscape.org/namespaces/inkscape"
   version="1.1"
   x="0px"
   y="0px"
   viewBox="0 0 150 150"
   enable-background="new 0 0 100 100"
   xml:space="preserve"
   id="svg3555"
   inkscape:version="0.91 r13725"
   sodipodi:docname="Artwork-category.svg"
   width="150"
   height="150"><metadata
     id="metadata3593"><rdf:RDF><cc:Work
         rdf:about=""><dc:format>image/svg+xml</dc:format><dc:type
           rdf:resource="http://purl.org/dc/dcmitype/StillImage" /><dc:title></dc:title></cc:Work></rdf:RDF></metadata><defs
     id="defs3591" /><sodipodi:namedview
     pagecolor="#ffffff"
     bordercolor="#666666"
     borderopacity="1"
     objecttolerance="10"
     gridtolerance="10"
     guidetolerance="10"
     inkscape:pageopacity="0"
     inkscape:pageshadow="2"
     inkscape:window-width="1366"
     inkscape:window-height="704"
     id="namedview3589"
     showgrid="false"
     showborder="false"
     inkscape:zoom="1"
     inkscape:cx="187.14996"
     inkscape:cy="11.263291"
     inkscape:window-x="0"
     inkscape:window-y="27"
     inkscape:window-maximized="1"
     inkscape:current-layer="svg3555"
     showguides="true"
     inkscape:guide-bbox="true"
     fit-margin-top="0"
     fit-margin-left="0"
     fit-margin-right="0"
     fit-margin-bottom="0"><sodipodi:guide
       position="105.16327,148.44575"
       orientation="-0.70710678,0.70710678"
       id="guide6034" /><sodipodi:guide
       position="80.768093,156.22392"
       orientation="1,0"
       id="guide6036" /><sodipodi:guide
       position="-42.622037,74.90665"
       orientation="0,1"
       id="guide6038" /><sodipodi:guide
       position="122.31061,123.36555"
       orientation="0.70710678,0.70710678"
       id="guide6040"
       inkscape:label=""
       inkscape:color="rgb(0,0,255)" /><sodipodi:guide
       position="34.540983,19.752316"
       orientation="0.70710678,0.70710678"
       id="guide3622"
       inkscape:label=""
       inkscape:color="rgb(0,0,255)" /></sodipodi:namedview><g
     style="fill:#00a99d;fill-opacity:1"
     id="g3567"
     transform="matrix(0.9999875,0,0,0.9999875,-151.98181,95.416412)"
     inkscape:export-xdpi="90"
     inkscape:export-ydpi="90" /><g
     id="g6567"
     transform="translate(-124.99998,-75.000008)"
     inkscape:export-xdpi="90"
     inkscape:export-ydpi="90"><rect
       ry="17.745853"
       rx="17.745853"
       style="opacity:1;fill:#87cdde;fill-opacity:1;stroke:none;stroke-width:6.79094839;stroke-linecap:round;stroke-linejoin:round;stroke-miterlimit:4;stroke-dasharray:none;stroke-dashoffset:0;stroke-opacity:1"
       id="rect5453"
       width="150"
       height="150"
       x="124.99998"
       y="75.000008" /><path
       sodipodi:nodetypes="ccccccccccc"
       inkscape:connector-curvature="0"
       id="path4445"
       d="m 247.79031,102.11613 27.20967,27.20644 -0.008,78.54744 c 0,0 0.0645,6.78339 -4.8227,11.65989 -5.47882,5.47882 -11.60993,5.44471 -11.60993,5.44471 l -79.26905,0.0254 -27.11409,-27.10268 8.85484,-8.64832 0.17237,-78.69576 78.18667,0.29564 z"
       style="fill:#216778;fill-opacity:1;fill-rule:evenodd;stroke:none;stroke-width:1px;stroke-linecap:butt;stroke-linejoin:miter;stroke-opacity:1" /><g
       style="fill:#ffffff"
       transform="translate(490.99997,-18.041992)"
       id="g4854"><path
         id="path4856"
         d="m -240.99999,189.347 c 0,4.075 -3.297,7.377 -7.368,7.389 l 0,6.529 c 4.071,0.011 7.368,3.314 7.368,7.388 0,4.081 -3.308,7.389 -7.389,7.389 -4.081,0 -7.389,-3.308 -7.389,-7.389 0,-0.007 10e-4,-0.014 10e-4,-0.021 l -6.53,0 c 0,0.007 10e-4,0.014 10e-4,0.021 0,4.081 -3.308,7.389 -7.389,7.389 -4.081,0 -7.389,-3.308 -7.389,-7.389 0,-0.007 10e-4,-0.014 10e-4,-0.021 l -6.529,0 c 0,0.007 10e-4,0.014 10e-4,0.021 0,4.081 -3.309,7.389 -7.39,7.389 -4.081,0 -7.389,-3.308 -7.389,-7.389 0,-0.007 0.001,-0.014 0.001,-0.021 l -6.529,0 c 0,0.007 10e-4,0.014 10e-4,0.021 0,4.081 -3.308,7.389 -7.389,7.389 -4.081,0 -7.389,-3.308 -7.389,-7.389 0,-0.007 0.001,-0.014 0.001,-0.021 l -6.529,0 c 0,0.007 10e-4,0.014 10e-4,0.021 0,4.081 -3.308,7.389 -7.389,7.389 -4.081,0 -7.39,-3.308 -7.39,-7.389 0,-4.08 3.309,-7.389 7.39,-7.389 0.006,0 0.013,10e-4 0.02,10e-4 l 0,-6.529 c -0.007,0 -0.014,0.001 -0.02,0.001 -4.081,0 -7.39,-3.309 -7.39,-7.39 0,-4.08 3.309,-7.389 7.39,-7.389 0.006,0 0.013,0.001 0.02,0.001 l 0,-6.529 c -0.007,0 -0.014,0.001 -0.02,0.001 -4.081,0 -7.39,-3.308 -7.39,-7.389 0,-4.081 3.309,-7.389 7.39,-7.389 0.006,0 0.013,0.001 0.02,0.001 l 0,-6.529 c -0.007,0 -0.014,0.001 -0.02,0.001 -4.081,0 -7.39,-3.308 -7.39,-7.389 0,-4.081 3.309,-7.389 7.39,-7.389 0.006,0 0.013,10e-4 0.02,10e-4 l 0,-6.529 c -0.007,0 -0.014,0.001 -0.02,0.001 -4.08,-0.001 -7.389,-3.31 -7.389,-7.39 0,-4.081 3.309,-7.389 7.39,-7.389 4.074,0 7.376,3.297 7.388,7.369 l 6.529,0 c 0.011,-4.071 3.314,-7.369 7.388,-7.369 4.074,0 7.377,3.297 7.388,7.369 l 6.529,0 c 0.012,-4.072 3.314,-7.369 7.388,-7.369 4.074,0 7.377,3.297 7.389,7.369 l 6.529,0 c 0.011,-4.071 3.313,-7.369 7.388,-7.369 4.075,0 7.377,3.297 7.388,7.369 l 6.53,0 c 0.011,-4.071 3.313,-7.369 7.388,-7.369 4.081,0 7.389,3.308 7.389,7.389 0,4.074 -3.297,7.377 -7.368,7.388 l 0,6.529 c 4.071,0.011 7.368,3.314 7.368,7.388 0,4.074 -3.297,7.377 -7.368,7.388 l 0,6.529 c 4.071,0.012 7.368,3.314 7.368,7.388 0,4.075 -3.297,7.376 -7.368,7.388 l 0,6.529 c 4.07,0.012 7.367,3.315 7.367,7.389 z m -14.758,0.405 c -0.007,-0.135 -0.02,-0.269 -0.02,-0.405 0,-0.136 0.013,-0.27 0.02,-0.404 l 0,-20.497 c -0.007,-0.135 -0.02,-0.268 -0.02,-0.405 0,-0.136 0.013,-0.27 0.02,-0.404 l 0,-20.496 c -0.007,-0.135 -0.02,-0.268 -0.02,-0.405 0,-0.136 0.013,-0.27 0.02,-0.404 l 0,-13.533 -13.532,0 c -0.135,0.007 -0.268,0.021 -0.404,0.021 -0.136,0 -0.27,-0.013 -0.404,-0.021 l -20.498,0 c -0.134,0.008 -0.267,0.021 -0.404,0.021 -0.136,0 -0.27,-0.013 -0.404,-0.021 l -20.497,0 c -0.135,0.007 -0.268,0.021 -0.404,0.021 -0.137,0 -0.27,-0.013 -0.404,-0.021 l -13.492,0 0,70.444 70.443,0 0,-13.491 z m -5.433,-16.543 -13.779,-14.778 -17.241,24.631 -11.33,-9.853 -17.257,14.778 0,-49.754 59.606,0 0,34.976 z m -44.074,-29.08 c -4.489,0 -8.128,3.639 -8.128,8.128 0,4.489 3.639,8.128 8.128,8.128 4.489,0 8.128,-3.639 8.128,-8.128 0,-4.488 -3.639,-8.128 -8.128,-8.128 z"
         inkscape:connector-curvature="0"
         style="clip-rule:evenodd;fill:#ffffff;fill-rule:evenodd" /></g></g></svg>