<?xml version="1.0" encoding="UTF-8" standalone="no"?>
<!-- Created with Inkscape (http://www.inkscape.org/) -->

<svg
   xmlns:dc="http://purl.org/dc/elements/1.1/"
   xmlns:cc="http://creativecommons.org/ns#"
   xmlns:rdf="http://www.w3.org/1999/02/22-rdf-syntax-ns#"
   xmlns:svg="http://www.w3.org/2000/svg"
   xmlns="http://www.w3.org/2000/svg"
   xmlns:sodipodi="http://sodipodi.sourceforge.net/DTD/sodipodi-0.dtd"
   xmlns:inkscape="http://www.inkscape.org/namespaces/inkscape"
   width="42.333332mm"
   height="42.334583mm"
   viewBox="0 0 149.99999 150.00443"
   id="svg4759"
   version="1.1"
   inkscape:version="0.91 r13725"
   sodipodi:docname="Communications.svg">
  <defs
     id="defs4761">
    <filter
       inkscape:collect="always"
       style="color-interpolation-filters:sRGB"
       id="filter4254"
       x="-0.057525091"
       width="1.1150502"
       y="-0.062697439"
       height="1.1253949">
      <feGaussianBlur
         inkscape:collect="always"
         stdDeviation="2.2051285"
         id="feGaussianBlur4256" />
    </filter>
  </defs>
  <sodipodi:namedview
     id="base"
     pagecolor="#ffffff"
     bordercolor="#666666"
     borderopacity="1.0"
     inkscape:pageopacity="0.0"
     inkscape:pageshadow="2"
     inkscape:zoom="2.2995071"
     inkscape:cx="235.25137"
     inkscape:cy="67.021589"
     inkscape:document-units="px"
     inkscape:current-layer="layer1"
     showgrid="false"
     fit-margin-top="0"
     fit-margin-left="0"
     fit-margin-right="0"
     fit-margin-bottom="0"
     inkscape:window-width="1366"
     inkscape:window-height="713"
     inkscape:window-x="0"
     inkscape:window-y="27"
     inkscape:window-maximized="1"
     showborder="false" />
  <metadata
     id="metadata4764">
    <rdf:RDF>
      <cc:Work
         rdf:about="">
        <dc:format>image/svg+xml</dc:format>
        <dc:type
           rdf:resource="http://purl.org/dc/dcmitype/StillImage" />
        <dc:title />
      </cc:Work>
    </rdf:RDF>
  </metadata>
  <g
     inkscape:label="Layer 1"
     inkscape:groupmode="layer"
     id="layer1"
     transform="translate(-259.28568,-948.79077)">
    <g
       id="g4258">
      <rect
         ry="0"
         rx="0"
         style="opacity:1;fill:#333333;fill-opacity:1;stroke:none;stroke-width:6.79094839;stroke-linecap:round;stroke-linejoin:round;stroke-miterlimit:4;stroke-dasharray:none;stroke-dashoffset:0;stroke-opacity:1"
         id="rect5453"
         width="150"
         height="150"
         x="259.28568"
         y="948.79077" />
      <path
         style="filter:url(#filter4254);fill:#b3b3b3"
         inkscape:connector-curvature="0"
         d="m 352.59337,1008.8677 c -1.4359,-1.4359 -2.46154,-3.2821 -2.97436,-5.2308 l 2.8718,0 c 0.41025,1.0257 0.92308,1.9487 1.53846,2.7693 l -1.4359,2.4615 z m 22.05128,-8.8205 c 0,-7.07696 -5.74359,-12.82055 -12.82051,-12.82055 -5.84615,0 -10.76923,3.89743 -12.30769,9.23077 l 2.87179,0 c 1.4359,-3.79487 5.12821,-6.46154 9.4359,-6.46154 5.53846,0 10.05128,4.51282 10.05128,10.05132 0,5.5384 -4.51282,10.0513 -10.05128,10.0513 -0.51282,0 -1.1282,-0.1026 -1.64102,-0.1026 l -1.4359,2.4615 c 1.02564,0.2052 1.94872,0.4103 3.07692,0.4103 7.07692,0 12.82051,-5.7436 12.82051,-12.8205 z m -43.38461,34.9743 1.4359,2.4616 c 0.51282,-0.1026 1.02564,-0.1026 1.64102,-0.1026 0.61539,0 1.12821,0.1026 1.64103,0.1026 l 1.4359,-2.4616 c -1.02565,-0.2051 -1.94872,-0.4102 -3.07693,-0.4102 -1.1282,0 -2.05128,0.2051 -3.07692,0.4102 z m 3.07692,25.2308 c 7.07693,0 12.82051,-5.7436 12.82051,-12.8205 0,-3.3846 -1.33333,-6.5641 -3.58974,-8.8205 l -1.4359,2.4615 c 1.4359,1.7436 2.25641,3.8975 2.25641,6.359 0,5.5385 -4.51282,10.0513 -10.05128,10.0513 -5.53846,0 -10.05128,-4.5128 -10.05128,-10.0513 0,-2.359 0.82051,-4.6154 2.25641,-6.359 l -1.4359,-2.4615 c -2.15384,2.2564 -3.58974,5.4359 -3.58974,8.8205 0,7.0769 5.74359,12.8205 12.82051,12.8205 z m 15.28205,-46.359 1.4359,-2.3589 c -2.25641,-2.0513 -3.79487,-4.8206 -4.51282,-7.8975 l -2.76923,0 c 0.71795,4 2.87179,7.5898 5.84615,10.2564 z m -38.15384,1.2308 c -1.4359,0.4103 -2.97436,0.718 -4.61539,0.718 -8.71795,0 -15.79487,-7.077 -15.79487,-15.7949 0,-8.71799 7.07692,-15.79491 15.79487,-15.79491 7.48718,0 13.64103,5.23077 15.28205,12.20513 l 2.76923,0 c -1.64102,-8.51282 -9.1282,-14.8718 -18.15384,-14.8718 -10.15385,0 -18.46154,8.30769 -18.46154,18.46158 0,10.1538 8.30769,18.4615 18.46154,18.4615 2.05128,0 4.10256,-0.4102 5.94872,-1.0256 l -1.23077,-2.359 z m 50.35897,-33.53848 c -8.92308,0 -16.41025,6.35898 -18.15384,14.8718 l 2.76923,0 c 1.64102,-6.97436 7.89743,-12.20513 15.28205,-12.20513 8.71795,0 15.79487,7.07692 15.79487,15.79491 0,8.7179 -7.07692,15.7949 -15.79487,15.7949 -1.64103,0 -3.07693,-0.2052 -4.61539,-0.718 l -1.23077,2.359 c 1.84616,0.6154 3.89744,1.0256 5.94872,1.0256 10.15385,0 18.46154,-8.3077 18.46154,-18.4615 0,-10.15389 -8.30769,-18.46158 -18.46154,-18.46158 z m -36.82051,22.05128 -2.76923,0 c -0.71795,3.0769 -2.35898,5.7436 -4.51282,7.8975 l 1.43589,2.3589 c 2.8718,-2.6666 5.02565,-6.2564 5.84616,-10.2564 z m 9.33333,25.3334 c -2.05128,0 -4.10256,0.4102 -5.94872,1.0256 l 1.4359,2.359 c 1.4359,-0.4103 2.97436,-0.718 4.61539,-0.718 1.64102,0 3.07692,0.2052 4.61538,0.718 l 1.4359,-2.359 c -2.05128,-0.6154 -4.10257,-1.0256 -6.15385,-1.0256 z m 12.20513,4.6153 -1.4359,2.4616 c 3.07693,2.8718 4.92308,6.9743 4.92308,11.4872 0,8.7179 -7.07692,15.7948 -15.69231,15.7948 -8.61538,0 -15.69231,-7.0769 -15.69231,-15.7948 0,-4.5129 1.94872,-8.6154 4.92308,-11.4872 l -1.4359,-2.359 c -3.89743,3.3846 -6.25641,8.3077 -6.25641,13.8462 0,10.1538 8.3077,18.4615 18.46154,18.4615 10.15385,0 18.46154,-8.3077 18.46154,-18.4615 0,-5.6411 -2.46154,-10.5641 -6.25641,-13.9488 z m -27.38462,-29.9487 -2.87179,0 c -0.41026,1.0257 -0.92308,1.9487 -1.53846,2.7693 l 1.4359,2.4615 c 1.33333,-1.4359 2.35897,-3.2821 2.97435,-5.2308 z m -12.30769,-16.41025 c -7.07692,0 -12.82051,5.74359 -12.82051,12.82055 0,7.0769 5.74359,12.8205 12.82051,12.8205 1.02564,0 2.05128,-0.1026 3.07693,-0.4103 l -1.4359,-2.4615 c -0.51282,0.1026 -1.02564,0.1026 -1.64103,0.1026 -5.53846,0 -10.05128,-4.5129 -10.05128,-10.0513 0,-5.5385 4.51282,-10.05132 10.05128,-10.05132 4.30769,0 8,2.66667 9.4359,6.46154 l 2.87179,0 c -1.53846,-5.33334 -6.46153,-9.23077 -12.30769,-9.23077 z m 60.82052,12.82055 c 0,3.282 -2.66667,5.8461 -5.84616,5.8461 -0.51282,0 -1.02564,-0.1025 -1.53846,-0.2051 l -21.74359,37.641 c 1.02564,1.0257 1.74359,2.5641 1.74359,4.1026 0,3.282 -2.66667,5.8462 -5.84615,5.8462 -3.17949,0 -5.84616,-2.6667 -5.84616,-5.8462 0,-1.641 0.61539,-3.0769 1.74359,-4.1026 l -21.94872,-37.641 c -0.51282,0.1026 -1.02564,0.2051 -1.53846,0.2051 -3.28205,0 -5.84615,-2.6666 -5.84615,-5.8461 0,-3.28209 2.66667,-5.84619 5.84615,-5.84619 2.76923,0 5.02564,1.84615 5.64103,4.30769 l 43.58974,0 c 0.71795,-2.46154 2.97436,-4.30769 5.64103,-4.30769 3.38461,-0.10257 5.94872,2.5641 5.94872,5.84619 z m -31.79488,41.7436 21.74359,-37.6411 c -0.71795,-0.7179 -1.23077,-1.641 -1.53846,-2.5641 l -43.48718,0 c -0.30769,1.0257 -0.82051,1.8462 -1.53846,2.5641 l 21.74359,37.6411 c 0.51282,-0.1026 1.02564,-0.2052 1.53846,-0.2052 0.51282,0 1.02564,0.1026 1.53846,0.2052 z"
         id="path4236" />
      <path
         style="fill:#b3b3b3"
         id="path3416"
         d="m 352.59337,1008.8677 c -1.4359,-1.4359 -2.46154,-3.2821 -2.97436,-5.2308 l 2.8718,0 c 0.41025,1.0257 0.92308,1.9487 1.53846,2.7693 l -1.4359,2.4615 z m 22.05128,-8.8205 c 0,-7.07696 -5.74359,-12.82055 -12.82051,-12.82055 -5.84615,0 -10.76923,3.89743 -12.30769,9.23077 l 2.87179,0 c 1.4359,-3.79487 5.12821,-6.46154 9.4359,-6.46154 5.53846,0 10.05128,4.51282 10.05128,10.05132 0,5.5384 -4.51282,10.0513 -10.05128,10.0513 -0.51282,0 -1.1282,-0.1026 -1.64102,-0.1026 l -1.4359,2.4615 c 1.02564,0.2052 1.94872,0.4103 3.07692,0.4103 7.07692,0 12.82051,-5.7436 12.82051,-12.8205 z m -43.38461,34.9743 1.4359,2.4616 c 0.51282,-0.1026 1.02564,-0.1026 1.64102,-0.1026 0.61539,0 1.12821,0.1026 1.64103,0.1026 l 1.4359,-2.4616 c -1.02565,-0.2051 -1.94872,-0.4102 -3.07693,-0.4102 -1.1282,0 -2.05128,0.2051 -3.07692,0.4102 z m 3.07692,25.2308 c 7.07693,0 12.82051,-5.7436 12.82051,-12.8205 0,-3.3846 -1.33333,-6.5641 -3.58974,-8.8205 l -1.4359,2.4615 c 1.4359,1.7436 2.25641,3.8975 2.25641,6.359 0,5.5385 -4.51282,10.0513 -10.05128,10.0513 -5.53846,0 -10.05128,-4.5128 -10.05128,-10.0513 0,-2.359 0.82051,-4.6154 2.25641,-6.359 l -1.4359,-2.4615 c -2.15384,2.2564 -3.58974,5.4359 -3.58974,8.8205 0,7.0769 5.74359,12.8205 12.82051,12.8205 z m 15.28205,-46.359 1.4359,-2.3589 c -2.25641,-2.0513 -3.79487,-4.8206 -4.51282,-7.8975 l -2.76923,0 c 0.71795,4 2.87179,7.5898 5.84615,10.2564 z m -38.15384,1.2308 c -1.4359,0.4103 -2.97436,0.718 -4.61539,0.718 -8.71795,0 -15.79487,-7.077 -15.79487,-15.7949 0,-8.71799 7.07692,-15.79491 15.79487,-15.79491 7.48718,0 13.64103,5.23077 15.28205,12.20513 l 2.76923,0 c -1.64102,-8.51282 -9.1282,-14.8718 -18.15384,-14.8718 -10.15385,0 -18.46154,8.30769 -18.46154,18.46158 0,10.1538 8.30769,18.4615 18.46154,18.4615 2.05128,0 4.10256,-0.4102 5.94872,-1.0256 l -1.23077,-2.359 z m 50.35897,-33.53848 c -8.92308,0 -16.41025,6.35898 -18.15384,14.8718 l 2.76923,0 c 1.64102,-6.97436 7.89743,-12.20513 15.28205,-12.20513 8.71795,0 15.79487,7.07692 15.79487,15.79491 0,8.7179 -7.07692,15.7949 -15.79487,15.7949 -1.64103,0 -3.07693,-0.2052 -4.61539,-0.718 l -1.23077,2.359 c 1.84616,0.6154 3.89744,1.0256 5.94872,1.0256 10.15385,0 18.46154,-8.3077 18.46154,-18.4615 0,-10.15389 -8.30769,-18.46158 -18.46154,-18.46158 z m -36.82051,22.05128 -2.76923,0 c -0.71795,3.0769 -2.35898,5.7436 -4.51282,7.8975 l 1.43589,2.3589 c 2.8718,-2.6666 5.02565,-6.2564 5.84616,-10.2564 z m 9.33333,25.3334 c -2.05128,0 -4.10256,0.4102 -5.94872,1.0256 l 1.4359,2.359 c 1.4359,-0.4103 2.97436,-0.718 4.61539,-0.718 1.64102,0 3.07692,0.2052 4.61538,0.718 l 1.4359,-2.359 c -2.05128,-0.6154 -4.10257,-1.0256 -6.15385,-1.0256 z m 12.20513,4.6153 -1.4359,2.4616 c 3.07693,2.8718 4.92308,6.9743 4.92308,11.4872 0,8.7179 -7.07692,15.7948 -15.69231,15.7948 -8.61538,0 -15.69231,-7.0769 -15.69231,-15.7948 0,-4.5129 1.94872,-8.6154 4.92308,-11.4872 l -1.4359,-2.359 c -3.89743,3.3846 -6.25641,8.3077 -6.25641,13.8462 0,10.1538 8.3077,18.4615 18.46154,18.4615 10.15385,0 18.46154,-8.3077 18.46154,-18.4615 0,-5.6411 -2.46154,-10.5641 -6.25641,-13.9488 z m -27.38462,-29.9487 -2.87179,0 c -0.41026,1.0257 -0.92308,1.9487 -1.53846,2.7693 l 1.4359,2.4615 c 1.33333,-1.4359 2.35897,-3.2821 2.97435,-5.2308 z m -12.30769,-16.41025 c -7.07692,0 -12.82051,5.74359 -12.82051,12.82055 0,7.0769 5.74359,12.8205 12.82051,12.8205 1.02564,0 2.05128,-0.1026 3.07693,-0.4103 l -1.4359,-2.4615 c -0.51282,0.1026 -1.02564,0.1026 -1.64103,0.1026 -5.53846,0 -10.05128,-4.5129 -10.05128,-10.0513 0,-5.5385 4.51282,-10.05132 10.05128,-10.05132 4.30769,0 8,2.66667 9.4359,6.46154 l 2.87179,0 c -1.53846,-5.33334 -6.46153,-9.23077 -12.30769,-9.23077 z m 60.82052,12.82055 c 0,3.282 -2.66667,5.8461 -5.84616,5.8461 -0.51282,0 -1.02564,-0.1025 -1.53846,-0.2051 l -21.74359,37.641 c 1.02564,1.0257 1.74359,2.5641 1.74359,4.1026 0,3.282 -2.66667,5.8462 -5.84615,5.8462 -3.17949,0 -5.84616,-2.6667 -5.84616,-5.8462 0,-1.641 0.61539,-3.0769 1.74359,-4.1026 l -21.94872,-37.641 c -0.51282,0.1026 -1.02564,0.2051 -1.53846,0.2051 -3.28205,0 -5.84615,-2.6666 -5.84615,-5.8461 0,-3.28209 2.66667,-5.84619 5.84615,-5.84619 2.76923,0 5.02564,1.84615 5.64103,4.30769 l 43.58974,0 c 0.71795,-2.46154 2.97436,-4.30769 5.64103,-4.30769 3.38461,-0.10257 5.94872,2.5641 5.94872,5.84619 z m -31.79488,41.7436 21.74359,-37.6411 c -0.71795,-0.7179 -1.23077,-1.641 -1.53846,-2.5641 l -43.48718,0 c -0.30769,1.0257 -0.82051,1.8462 -1.53846,2.5641 l 21.74359,37.6411 c 0.51282,-0.1026 1.02564,-0.2052 1.53846,-0.2052 0.51282,0 1.02564,0.1026 1.53846,0.2052 z"
         inkscape:connector-curvature="0" />
    </g>
  </g>
</svg>
