<?xml version="1.0" encoding="UTF-8" standalone="no"?>
<svg
   xmlns:dc="http://purl.org/dc/elements/1.1/"
   xmlns:cc="http://creativecommons.org/ns#"
   xmlns:rdf="http://www.w3.org/1999/02/22-rdf-syntax-ns#"
   xmlns:svg="http://www.w3.org/2000/svg"
   xmlns="http://www.w3.org/2000/svg"
   xmlns:sodipodi="http://sodipodi.sourceforge.net/DTD/sodipodi-0.dtd"
   xmlns:inkscape="http://www.inkscape.org/namespaces/inkscape"
   version="1.1"
   x="0px"
   y="0px"
   viewBox="0 0 150 150"
   enable-background="new 0 0 100 100"
   xml:space="preserve"
   id="svg3555"
   inkscape:version="0.91 r13725"
   sodipodi:docname="Hackwork.svg"
   width="150"
   height="150"><metadata
     id="metadata3593"><rdf:RDF><cc:Work
         rdf:about=""><dc:format>image/svg+xml</dc:format><dc:type
           rdf:resource="http://purl.org/dc/dcmitype/StillImage" /><dc:title /></cc:Work></rdf:RDF></metadata><defs
     id="defs3591"><filter
       inkscape:collect="always"
       style="color-interpolation-filters:sRGB"
       id="filter8581"
       x="-0.067758119"
       width="1.1355162"
       y="-0.053835933"
       height="1.1076719"><feGaussianBlur
         inkscape:collect="always"
         stdDeviation="2.2219863"
         id="feGaussianBlur8583" /></filter></defs><sodipodi:namedview
     pagecolor="#ffffff"
     bordercolor="#666666"
     borderopacity="1"
     objecttolerance="10"
     gridtolerance="10"
     guidetolerance="10"
     inkscape:pageopacity="0"
     inkscape:pageshadow="2"
     inkscape:window-width="1366"
     inkscape:window-height="713"
     id="namedview3589"
     showgrid="false"
     showborder="false"
     inkscape:zoom="1"
     inkscape:cx="75"
     inkscape:cy="74.432892"
     inkscape:window-x="0"
     inkscape:window-y="27"
     inkscape:window-maximized="1"
     inkscape:current-layer="svg3555"
     showguides="true"
     inkscape:guide-bbox="true"
     fit-margin-top="0"
     fit-margin-left="0"
     fit-margin-right="0"
     fit-margin-bottom="0" /><g
     id="g8585"><rect
       ry="0"
       rx="0"
       style="opacity:1;fill:#333333;fill-opacity:1;stroke:none;stroke-width:6.79094839;stroke-linecap:round;stroke-linejoin:round;stroke-miterlimit:4;stroke-dasharray:none;stroke-dashoffset:0;stroke-opacity:1"
       id="rect5453"
       width="150"
       height="150"
       x="-5.0000076"
       y="5.0000091" /><g
       id="g7767"
       transform="matrix(0.92876843,0,0,0.92876843,23.289909,33.561545)"
       style="fill:#f2f2f2;filter:url(#filter8581)"><path
         id="path7769"
         d="m 44.843,66.412 c 0.107,0.039 2.472,1.005 5.326,1.005 2.303,0 4.148,-0.62 5.017,-0.913 0.782,-0.184 1.35,-0.881 1.35,-1.716 0,-0.972 -0.782,-1.755 -1.755,-1.755 l -0.848,0.183 c -0.17,0.059 -0.561,0.17 -0.9,0.261 -0.365,-1.154 -1.493,-2.016 -2.876,-2.016 -1.402,0 -2.528,0.875 -2.883,2.049 -0.652,-0.177 -1.086,-0.34 -1.092,-0.346 -0.917,-0.365 -1.925,0.071 -2.287,0.965 -0.37,0.893 0.051,1.918 0.948,2.283 z"
         inkscape:connector-curvature="0"
         style="fill:#f2f2f2" /><path
         id="path7771"
         d="m 81.452,38.723 c 0,-9.839 0,-14.97 0,-14.97 C 75.36,8.999 56.854,4.778 56.854,4.778 l 0,-4.223 c 0,0 -37.714,-2.958 -37.714,26.463 0,0 0,1.866 0,11.705 0,0 -8.199,0.235 -8.199,10.548 0,8.075 5.567,12.229 7.991,13.658 0.372,3.549 2.439,18.179 11.232,27.865 4.599,5.056 11.007,8.734 19.979,8.734 26.033,0 30.703,-30.886 31.342,-36.501 C 83.8,61.703 89.644,57.554 89.644,49.27 89.645,38.958 81.452,38.723 81.452,38.723 Z m -58.637,20.958 0,-14.66 c 0,0 -3.675,-24.216 27.481,-24.216 0,0 3.088,-0.046 7.178,0.789 -2.772,4.918 -8.023,12.964 -15.426,19.458 -1.699,-0.339 -3.598,-0.493 -5.639,-0.493 -6.852,0 -12.41,1.406 -12.41,7.622 0,3.659 1.957,6.882 4.938,8.937 -1.145,1.271 -3.108,3.34 -5.857,5.884 -0.085,-1.11 -0.265,-2.187 -0.265,-3.321 z m 21.65,-9.478 c 0,0.098 -0.023,0.176 -0.065,0.28 -0.02,0.052 0,0.117 -0.036,0.17 -0.144,0.202 -3.555,5.009 -7.955,5.009 -4.4,0 -7.808,-4.807 -7.951,-5.009 -0.036,-0.053 -0.017,-0.118 -0.036,-0.17 -0.042,-0.098 -0.065,-0.176 -0.065,-0.28 0,-0.104 0.023,-0.183 0.065,-0.28 0.02,-0.053 0,-0.118 0.036,-0.17 0.144,-0.202 3.552,-5.013 7.951,-5.013 4.399,0 7.811,4.811 7.955,5.013 0.036,0.052 0.016,0.117 0.036,0.17 0.042,0.104 0.065,0.182 0.065,0.28 z m 33.308,9.478 c 0,19.177 -12.309,34.728 -27.477,34.728 -12.7,0 -23.287,-10.952 -26.434,-25.746 1.729,-1.532 6.692,-6.066 9.37,-9.641 1.021,0.242 2.071,0.418 3.177,0.418 6.852,0 12.41,-5.042 12.41,-11.259 0,-2.27 -0.757,-3.887 -2.032,-5.042 7.622,-7.175 12.813,-15.491 15.391,-20.233 7.43,2.632 15.596,8.581 15.596,22.115 -0.001,8.111 -0.001,12.449 -0.001,14.66 z"
         inkscape:connector-curvature="0"
         style="fill:#f2f2f2" /><path
         id="path7773"
         d="m 36.409,76.398 0,2.27 c 0,0 4.723,4.006 13.74,4.006 9.015,0 13.73,-4.293 13.73,-4.293 l 0,-2.837 -27.47,0 0,0.854 z"
         inkscape:connector-curvature="0"
         style="fill:#f2f2f2" /><path
         id="path7775"
         d="m 36.712,49.74 0.897,-3.122 c -0.388,-0.14 -0.815,-0.222 -1.252,-0.222 -2.035,0 -3.692,1.654 -3.692,3.689 0,2.041 1.657,3.691 3.692,3.691 2.042,0 3.689,-1.65 3.689,-3.691 0,-0.281 -0.029,-0.555 -0.085,-0.809 l -3.249,0.464 z"
         inkscape:connector-curvature="0"
         style="fill:#f2f2f2" /><path
         id="path7777"
         d="m 64.199,49.721 0.939,-3.249 c -0.404,-0.144 -0.854,-0.228 -1.305,-0.228 -2.119,0 -3.848,1.722 -3.848,3.842 0,2.126 1.729,3.842 3.848,3.842 2.127,0 3.836,-1.716 3.836,-3.842 0,-0.294 -0.026,-0.574 -0.085,-0.842 l -3.385,0.477 z"
         inkscape:connector-curvature="0"
         style="fill:#f2f2f2" /><path
         id="path7779"
         d="m 54.508,43.502 c -0.713,0.893 -0.561,2.185 0.332,2.898 0.382,0.299 0.822,0.442 1.277,0.444 0.609,10e-4 1.206,-0.266 1.623,-0.783 4.403,-5.56 12.034,-2.455 12.347,-2.311 1.064,0.443 2.258,-0.056 2.703,-1.098 0.441,-1.049 -0.038,-2.253 -1.086,-2.703 C 67.988,38.376 59.6,37.064 54.508,43.502 Z"
         inkscape:connector-curvature="0"
         style="fill:#f2f2f2" /></g><g
       style="fill:#e6e6e6"
       transform="matrix(0.92876843,0,0,0.92876843,23.289906,33.561545)"
       id="g4712"><path
         style="fill:#e6e6e6"
         inkscape:connector-curvature="0"
         d="m 44.843,66.412 c 0.107,0.039 2.472,1.005 5.326,1.005 2.303,0 4.148,-0.62 5.017,-0.913 0.782,-0.184 1.35,-0.881 1.35,-1.716 0,-0.972 -0.782,-1.755 -1.755,-1.755 l -0.848,0.183 c -0.17,0.059 -0.561,0.17 -0.9,0.261 -0.365,-1.154 -1.493,-2.016 -2.876,-2.016 -1.402,0 -2.528,0.875 -2.883,2.049 -0.652,-0.177 -1.086,-0.34 -1.092,-0.346 -0.917,-0.365 -1.925,0.071 -2.287,0.965 -0.37,0.893 0.051,1.918 0.948,2.283 z"
         id="path4714" /><path
         style="fill:#e6e6e6"
         inkscape:connector-curvature="0"
         d="m 81.452,38.723 c 0,-9.839 0,-14.97 0,-14.97 C 75.36,8.999 56.854,4.778 56.854,4.778 l 0,-4.223 c 0,0 -37.714,-2.958 -37.714,26.463 0,0 0,1.866 0,11.705 0,0 -8.199,0.235 -8.199,10.548 0,8.075 5.567,12.229 7.991,13.658 0.372,3.549 2.439,18.179 11.232,27.865 4.599,5.056 11.007,8.734 19.979,8.734 26.033,0 30.703,-30.886 31.342,-36.501 C 83.8,61.703 89.644,57.554 89.644,49.27 89.645,38.958 81.452,38.723 81.452,38.723 Z m -58.637,20.958 0,-14.66 c 0,0 -3.675,-24.216 27.481,-24.216 0,0 3.088,-0.046 7.178,0.789 -2.772,4.918 -8.023,12.964 -15.426,19.458 -1.699,-0.339 -3.598,-0.493 -5.639,-0.493 -6.852,0 -12.41,1.406 -12.41,7.622 0,3.659 1.957,6.882 4.938,8.937 -1.145,1.271 -3.108,3.34 -5.857,5.884 -0.085,-1.11 -0.265,-2.187 -0.265,-3.321 z m 21.65,-9.478 c 0,0.098 -0.023,0.176 -0.065,0.28 -0.02,0.052 0,0.117 -0.036,0.17 -0.144,0.202 -3.555,5.009 -7.955,5.009 -4.4,0 -7.808,-4.807 -7.951,-5.009 -0.036,-0.053 -0.017,-0.118 -0.036,-0.17 -0.042,-0.098 -0.065,-0.176 -0.065,-0.28 0,-0.104 0.023,-0.183 0.065,-0.28 0.02,-0.053 0,-0.118 0.036,-0.17 0.144,-0.202 3.552,-5.013 7.951,-5.013 4.399,0 7.811,4.811 7.955,5.013 0.036,0.052 0.016,0.117 0.036,0.17 0.042,0.104 0.065,0.182 0.065,0.28 z m 33.308,9.478 c 0,19.177 -12.309,34.728 -27.477,34.728 -12.7,0 -23.287,-10.952 -26.434,-25.746 1.729,-1.532 6.692,-6.066 9.37,-9.641 1.021,0.242 2.071,0.418 3.177,0.418 6.852,0 12.41,-5.042 12.41,-11.259 0,-2.27 -0.757,-3.887 -2.032,-5.042 7.622,-7.175 12.813,-15.491 15.391,-20.233 7.43,2.632 15.596,8.581 15.596,22.115 -0.001,8.111 -0.001,12.449 -0.001,14.66 z"
         id="path4716" /><path
         style="fill:#e6e6e6"
         inkscape:connector-curvature="0"
         d="m 36.409,76.398 0,2.27 c 0,0 4.723,4.006 13.74,4.006 9.015,0 13.73,-4.293 13.73,-4.293 l 0,-2.837 -27.47,0 0,0.854 z"
         id="path4718" /><path
         style="fill:#e6e6e6"
         inkscape:connector-curvature="0"
         d="m 36.712,49.74 0.897,-3.122 c -0.388,-0.14 -0.815,-0.222 -1.252,-0.222 -2.035,0 -3.692,1.654 -3.692,3.689 0,2.041 1.657,3.691 3.692,3.691 2.042,0 3.689,-1.65 3.689,-3.691 0,-0.281 -0.029,-0.555 -0.085,-0.809 l -3.249,0.464 z"
         id="path4720" /><path
         style="fill:#e6e6e6"
         inkscape:connector-curvature="0"
         d="m 64.199,49.721 0.939,-3.249 c -0.404,-0.144 -0.854,-0.228 -1.305,-0.228 -2.119,0 -3.848,1.722 -3.848,3.842 0,2.126 1.729,3.842 3.848,3.842 2.127,0 3.836,-1.716 3.836,-3.842 0,-0.294 -0.026,-0.574 -0.085,-0.842 l -3.385,0.477 z"
         id="path4722" /><path
         style="fill:#e6e6e6"
         inkscape:connector-curvature="0"
         d="m 54.508,43.502 c -0.713,0.893 -0.561,2.185 0.332,2.898 0.382,0.299 0.822,0.442 1.277,0.444 0.609,10e-4 1.206,-0.266 1.623,-0.783 4.403,-5.56 12.034,-2.455 12.347,-2.311 1.064,0.443 2.258,-0.056 2.703,-1.098 0.441,-1.049 -0.038,-2.253 -1.086,-2.703 C 67.988,38.376 59.6,37.064 54.508,43.502 Z"
         id="path4724" /></g></g></svg>