<?xml version="1.0" encoding="UTF-8" standalone="no"?>
<svg
   xmlns:dc="http://purl.org/dc/elements/1.1/"
   xmlns:cc="http://creativecommons.org/ns#"
   xmlns:rdf="http://www.w3.org/1999/02/22-rdf-syntax-ns#"
   xmlns:svg="http://www.w3.org/2000/svg"
   xmlns="http://www.w3.org/2000/svg"
   xmlns:sodipodi="http://sodipodi.sourceforge.net/DTD/sodipodi-0.dtd"
   xmlns:inkscape="http://www.inkscape.org/namespaces/inkscape"
   version="1.1"
   x="0px"
   y="0px"
   viewBox="0 0 150 150"
   enable-background="new 0 0 100 100"
   xml:space="preserve"
   id="svg3555"
   inkscape:version="0.91 r13725"
   sodipodi:docname="Polygon-Art.svg"
   width="150"
   height="150"><metadata
     id="metadata3593"><rdf:RDF><cc:Work
         rdf:about=""><dc:format>image/svg+xml</dc:format><dc:type
           rdf:resource="http://purl.org/dc/dcmitype/StillImage" /><dc:title></dc:title></cc:Work></rdf:RDF></metadata><defs
     id="defs3591"><filter
       inkscape:collect="always"
       style="color-interpolation-filters:sRGB"
       id="filter13505"
       x="-0.0698753"
       width="1.1397506"
       y="-0.052570363"
       height="1.1051407"><feGaussianBlur
         inkscape:collect="always"
         stdDeviation="2.6203238"
         id="feGaussianBlur13507" /></filter></defs><sodipodi:namedview
     pagecolor="#ffffff"
     bordercolor="#666666"
     borderopacity="1"
     objecttolerance="10"
     gridtolerance="10"
     guidetolerance="10"
     inkscape:pageopacity="0"
     inkscape:pageshadow="2"
     inkscape:window-width="1366"
     inkscape:window-height="713"
     id="namedview3589"
     showgrid="false"
     showborder="false"
     inkscape:zoom="1.4142136"
     inkscape:cx="280.08266"
     inkscape:cy="39.054141"
     inkscape:window-x="0"
     inkscape:window-y="27"
     inkscape:window-maximized="1"
     inkscape:current-layer="svg3555"
     showguides="true"
     inkscape:guide-bbox="true"
     fit-margin-top="0"
     fit-margin-left="0"
     fit-margin-right="0"
     fit-margin-bottom="0" /><g
     id="g13509"><rect
       ry="0"
       rx="0"
       style="opacity:1;fill:#333333;fill-opacity:1;stroke:none;stroke-width:6.79094839;stroke-linecap:round;stroke-linejoin:round;stroke-miterlimit:4;stroke-dasharray:none;stroke-dashoffset:0;stroke-opacity:1"
       id="rect5453"
       width="150"
       height="150"
       x="-2.8881836e-06"
       y="-3.7060545e-07" /><g
       transform="translate(1.1611642,-2.3665416)"
       style="filter:url(#filter13505)"
       id="g13299"><g
         style="fill:#b3b3b3"
         transform="matrix(2.1802326,0,0,2.1802326,28.838832,73.366267)"
         id="g13301"><g
           style="fill:#b3b3b3"
           id="g13303"><g
             style="fill:#b3b3b3"
             id="g13305"><polygon
               style="fill:#b3b3b3"
               points="34.874,23.105 37.723,18.175 32.028,18.175 "
               id="polygon13307" /><polygon
               style="fill:#b3b3b3"
               points="34.162,23.516 31.316,18.585 28.469,23.516 "
               id="polygon13309" /><polygon
               style="fill:#b3b3b3"
               points="38.434,16.942 41.28,12.011 35.586,12.011 "
               id="polygon13311" /><polygon
               style="fill:#b3b3b3"
               points="24.199,29.269 27.045,24.338 21.352,24.338 "
               id="polygon13313" /><polygon
               style="fill:#b3b3b3"
               points="37.723,17.352 34.874,12.422 32.028,17.352 "
               id="polygon13315" /><polygon
               style="fill:#b3b3b3"
               points="31.316,16.942 34.162,12.011 28.469,12.011 "
               id="polygon13317" /><polygon
               style="fill:#b3b3b3"
               points="9.964,16.942 12.811,12.011 7.117,12.011 "
               id="polygon13319" /><polygon
               style="fill:#b3b3b3"
               points="2.847,16.942 5.693,12.011 0,12.011 "
               id="polygon13321" /><polygon
               style="fill:#b3b3b3"
               points="9.252,17.352 6.405,12.422 3.558,17.352 "
               id="polygon13323" /><polygon
               style="fill:#b3b3b3"
               points="16.369,17.352 13.523,12.422 10.676,17.352 "
               id="polygon13325" /><polygon
               style="fill:#b3b3b3"
               points="30.604,17.352 27.758,12.422 24.911,17.352 "
               id="polygon13327" /><polygon
               style="fill:#b3b3b3"
               points="27.758,23.105 30.604,18.175 24.911,18.175 "
               id="polygon13329" /><polygon
               style="fill:#b3b3b3"
               points="13.523,23.105 16.369,18.175 10.676,18.175 "
               id="polygon13331" /><polygon
               style="fill:#b3b3b3"
               points="6.405,23.105 9.252,18.175 3.558,18.175 "
               id="polygon13333" /><polygon
               style="fill:#b3b3b3"
               points="12.811,23.516 9.964,18.585 7.117,23.516 "
               id="polygon13335" /><polygon
               style="fill:#b3b3b3"
               points="19.928,23.516 17.081,18.585 14.235,23.516 "
               id="polygon13337" /><polygon
               style="fill:#b3b3b3"
               points="27.045,23.516 24.199,18.585 21.352,23.516 "
               id="polygon13339" /><polygon
               style="fill:#b3b3b3"
               points="17.081,29.269 19.928,24.338 14.235,24.338 "
               id="polygon13341" /></g></g><g
           style="fill:#b3b3b3"
           id="g13343" /><g
           style="fill:#b3b3b3"
           id="g13345" /><g
           style="fill:#b3b3b3"
           id="g13347" /><g
           style="fill:#b3b3b3"
           id="g13349" /><g
           style="fill:#b3b3b3"
           id="g13351" /><g
           style="fill:#b3b3b3"
           id="g13353" /><g
           style="fill:#b3b3b3"
           id="g13355" /><g
           style="fill:#b3b3b3"
           id="g13357" /><g
           style="fill:#b3b3b3"
           id="g13359" /><g
           style="fill:#b3b3b3"
           id="g13361" /><g
           style="fill:#b3b3b3"
           id="g13363" /><g
           style="fill:#b3b3b3"
           id="g13365" /><g
           style="fill:#b3b3b3"
           id="g13367" /><g
           style="fill:#b3b3b3"
           id="g13369" /><g
           style="fill:#b3b3b3"
           id="g13371" /></g><g
         style="fill:#b3b3b3"
         transform="matrix(2.2435897,0,0,2.2435897,33.884987,17.553592)"
         id="g13373"><g
           style="fill:#b3b3b3"
           id="g13375"><g
             style="fill:#b3b3b3"
             id="g13377"><polygon
               style="fill:#b3b3b3"
               points="7.526,11.054 11.78,8.598 7.526,6.141 "
               id="polygon13379" /><polygon
               style="fill:#b3b3b3"
               points="7.526,17.193 11.78,14.738 7.526,12.282 "
               id="polygon13381" /><polygon
               style="fill:#b3b3b3"
               points="7.526,29.475 11.78,27.02 7.526,24.562 "
               id="polygon13383" /><polygon
               style="fill:#b3b3b3"
               points="12.135,32.546 12.135,27.635 7.881,30.09 "
               id="polygon13385" /><polygon
               style="fill:#b3b3b3"
               points="12.135,20.266 12.135,15.352 7.881,17.809 "
               id="polygon13387" /><polygon
               style="fill:#b3b3b3"
               points="12.135,14.124 12.135,9.211 7.881,11.668 "
               id="polygon13389" /><polygon
               style="fill:#b3b3b3"
               points="12.135,7.983 12.135,3.071 7.881,5.527 "
               id="polygon13391" /><polygon
               style="fill:#b3b3b3"
               points="12.844,7.983 17.099,5.527 12.844,3.071 "
               id="polygon13393" /><polygon
               style="fill:#b3b3b3"
               points="12.844,14.124 17.099,11.668 12.844,9.211 "
               id="polygon13395" /><polygon
               style="fill:#b3b3b3"
               points="12.844,20.266 17.099,17.809 12.844,15.352 "
               id="polygon13397" /><polygon
               style="fill:#b3b3b3"
               points="12.844,26.405 17.099,23.949 12.844,21.493 "
               id="polygon13399" /><polygon
               style="fill:#b3b3b3"
               points="12.844,32.546 17.099,30.09 12.844,27.635 "
               id="polygon13401" /><polygon
               style="fill:#b3b3b3"
               points="17.453,35.616 17.453,30.704 13.199,33.16 "
               id="polygon13403" /><polygon
               style="fill:#b3b3b3"
               points="17.453,29.475 17.453,24.562 13.199,27.02 "
               id="polygon13405" /><polygon
               style="fill:#b3b3b3"
               points="17.453,23.335 17.453,18.422 13.199,20.879 "
               id="polygon13407" /><polygon
               style="fill:#b3b3b3"
               points="17.453,17.193 17.453,12.282 13.199,14.738 "
               id="polygon13409" /><polygon
               style="fill:#b3b3b3"
               points="17.453,4.913 17.453,0 13.199,2.456 "
               id="polygon13411" /><polygon
               style="fill:#b3b3b3"
               points="2.208,14.124 6.462,11.668 2.208,9.211 "
               id="polygon13413" /><polygon
               style="fill:#b3b3b3"
               points="2.208,20.266 6.462,17.809 2.208,15.352 "
               id="polygon13415" /><polygon
               style="fill:#b3b3b3"
               points="2.208,26.405 6.462,23.949 2.208,21.493 "
               id="polygon13417" /><polygon
               style="fill:#b3b3b3"
               points="6.817,29.475 6.817,24.562 2.562,27.02 "
               id="polygon13419" /><polygon
               style="fill:#b3b3b3"
               points="6.817,23.335 6.817,18.422 2.562,20.879 "
               id="polygon13421" /><polygon
               style="fill:#b3b3b3"
               points="6.817,17.193 6.817,12.282 2.562,14.738 "
               id="polygon13423" /><polygon
               style="fill:#b3b3b3"
               points="6.817,11.054 6.817,6.141 2.562,8.598 "
               id="polygon13425" /><polygon
               style="fill:#b3b3b3"
               points="18.162,4.913 22.416,2.456 18.162,0 "
               id="polygon13427" /><polygon
               style="fill:#b3b3b3"
               points="18.162,17.193 22.416,14.738 18.162,12.282 "
               id="polygon13429" /><polygon
               style="fill:#b3b3b3"
               points="18.162,23.335 22.416,20.879 18.162,18.422 "
               id="polygon13431" /><polygon
               style="fill:#b3b3b3"
               points="18.162,29.475 22.416,27.02 18.162,24.562 "
               id="polygon13433" /><polygon
               style="fill:#b3b3b3"
               points="18.162,35.616 22.416,33.16 18.162,30.704 "
               id="polygon13435" /><polygon
               style="fill:#b3b3b3"
               points="22.771,32.546 22.771,27.635 18.517,30.09 "
               id="polygon13437" /><polygon
               style="fill:#b3b3b3"
               points="22.771,26.405 22.771,21.493 18.517,23.949 "
               id="polygon13439" /><polygon
               style="fill:#b3b3b3"
               points="22.771,20.266 22.771,15.352 18.517,17.809 "
               id="polygon13441" /><polygon
               style="fill:#b3b3b3"
               points="22.771,14.124 22.771,9.211 18.517,11.668 "
               id="polygon13443" /><polygon
               style="fill:#b3b3b3"
               points="22.771,7.983 22.771,3.071 18.517,5.527 "
               id="polygon13445" /><polygon
               style="fill:#b3b3b3"
               points="23.479,7.983 27.735,5.527 23.479,3.071 "
               id="polygon13447" /><polygon
               style="fill:#b3b3b3"
               points="23.479,14.124 27.735,11.668 23.479,9.211 "
               id="polygon13449" /><polygon
               style="fill:#b3b3b3"
               points="23.479,20.266 27.735,17.809 23.479,15.352 "
               id="polygon13451" /><polygon
               style="fill:#b3b3b3"
               points="23.479,32.546 27.735,30.09 23.479,27.635 "
               id="polygon13453" /><polygon
               style="fill:#b3b3b3"
               points="28.089,29.475 28.089,24.562 23.835,27.02 "
               id="polygon13455" /><polygon
               style="fill:#b3b3b3"
               points="28.089,17.193 28.089,12.282 23.835,14.738 "
               id="polygon13457" /><polygon
               style="fill:#b3b3b3"
               points="28.089,11.054 28.089,6.141 23.835,8.598 "
               id="polygon13459" /><polygon
               style="fill:#b3b3b3"
               points="28.798,11.054 33.052,8.598 28.798,6.141 "
               id="polygon13461" /><polygon
               style="fill:#b3b3b3"
               points="28.798,17.193 33.052,14.738 28.798,12.282 "
               id="polygon13463" /><polygon
               style="fill:#b3b3b3"
               points="28.798,23.335 33.052,20.879 28.798,18.422 "
               id="polygon13465" /><polygon
               style="fill:#b3b3b3"
               points="28.798,29.475 33.052,27.02 28.798,24.562 "
               id="polygon13467" /><polygon
               style="fill:#b3b3b3"
               points="33.408,26.405 33.408,21.493 29.153,23.949 "
               id="polygon13469" /><polygon
               style="fill:#b3b3b3"
               points="33.408,20.266 33.408,15.352 29.153,17.809 "
               id="polygon13471" /><polygon
               style="fill:#b3b3b3"
               points="33.408,14.124 33.408,9.211 29.153,11.668 "
               id="polygon13473" /></g></g><g
           style="fill:#b3b3b3"
           id="g13475" /><g
           style="fill:#b3b3b3"
           id="g13477" /><g
           style="fill:#b3b3b3"
           id="g13479" /><g
           style="fill:#b3b3b3"
           id="g13481" /><g
           style="fill:#b3b3b3"
           id="g13483" /><g
           style="fill:#b3b3b3"
           id="g13485" /><g
           style="fill:#b3b3b3"
           id="g13487" /><g
           style="fill:#b3b3b3"
           id="g13489" /><g
           style="fill:#b3b3b3"
           id="g13491" /><g
           style="fill:#b3b3b3"
           id="g13493" /><g
           style="fill:#b3b3b3"
           id="g13495" /><g
           style="fill:#b3b3b3"
           id="g13497" /><g
           style="fill:#b3b3b3"
           id="g13499" /><g
           style="fill:#b3b3b3"
           id="g13501" /><g
           style="fill:#b3b3b3"
           id="g13503" /></g></g><g
       transform="translate(1.1611642,-2.3665439)"
       id="g13195"><g
         id="g8453"
         transform="matrix(2.1802326,0,0,2.1802326,28.838832,73.366267)"
         style="fill:#b3b3b3"><g
           id="g8377"
           style="fill:#b3b3b3"><g
             id="g8379"
             style="fill:#b3b3b3"><polygon
               id="polygon8381"
               points="34.874,23.105 37.723,18.175 32.028,18.175 "
               style="fill:#b3b3b3" /><polygon
               id="polygon8383"
               points="34.162,23.516 31.316,18.585 28.469,23.516 "
               style="fill:#b3b3b3" /><polygon
               id="polygon8385"
               points="38.434,16.942 41.28,12.011 35.586,12.011 "
               style="fill:#b3b3b3" /><polygon
               id="polygon8387"
               points="24.199,29.269 27.045,24.338 21.352,24.338 "
               style="fill:#b3b3b3" /><polygon
               id="polygon8389"
               points="37.723,17.352 34.874,12.422 32.028,17.352 "
               style="fill:#b3b3b3" /><polygon
               id="polygon8391"
               points="31.316,16.942 34.162,12.011 28.469,12.011 "
               style="fill:#b3b3b3" /><polygon
               id="polygon8393"
               points="9.964,16.942 12.811,12.011 7.117,12.011 "
               style="fill:#b3b3b3" /><polygon
               id="polygon8395"
               points="2.847,16.942 5.693,12.011 0,12.011 "
               style="fill:#b3b3b3" /><polygon
               id="polygon8397"
               points="9.252,17.352 6.405,12.422 3.558,17.352 "
               style="fill:#b3b3b3" /><polygon
               id="polygon8399"
               points="16.369,17.352 13.523,12.422 10.676,17.352 "
               style="fill:#b3b3b3" /><polygon
               id="polygon8401"
               points="30.604,17.352 27.758,12.422 24.911,17.352 "
               style="fill:#b3b3b3" /><polygon
               id="polygon8403"
               points="27.758,23.105 30.604,18.175 24.911,18.175 "
               style="fill:#b3b3b3" /><polygon
               id="polygon8405"
               points="13.523,23.105 16.369,18.175 10.676,18.175 "
               style="fill:#b3b3b3" /><polygon
               id="polygon8407"
               points="6.405,23.105 9.252,18.175 3.558,18.175 "
               style="fill:#b3b3b3" /><polygon
               id="polygon8409"
               points="12.811,23.516 9.964,18.585 7.117,23.516 "
               style="fill:#b3b3b3" /><polygon
               id="polygon8411"
               points="19.928,23.516 17.081,18.585 14.235,23.516 "
               style="fill:#b3b3b3" /><polygon
               id="polygon8413"
               points="27.045,23.516 24.199,18.585 21.352,23.516 "
               style="fill:#b3b3b3" /><polygon
               id="polygon8415"
               points="17.081,29.269 19.928,24.338 14.235,24.338 "
               style="fill:#b3b3b3" /></g></g><g
           id="g8417"
           style="fill:#b3b3b3" /><g
           id="g8419"
           style="fill:#b3b3b3" /><g
           id="g8421"
           style="fill:#b3b3b3" /><g
           id="g8423"
           style="fill:#b3b3b3" /><g
           id="g8425"
           style="fill:#b3b3b3" /><g
           id="g8427"
           style="fill:#b3b3b3" /><g
           id="g8429"
           style="fill:#b3b3b3" /><g
           id="g8431"
           style="fill:#b3b3b3" /><g
           id="g8433"
           style="fill:#b3b3b3" /><g
           id="g8435"
           style="fill:#b3b3b3" /><g
           id="g8437"
           style="fill:#b3b3b3" /><g
           id="g8439"
           style="fill:#b3b3b3" /><g
           id="g8441"
           style="fill:#b3b3b3" /><g
           id="g8443"
           style="fill:#b3b3b3" /><g
           id="g8445"
           style="fill:#b3b3b3" /></g><g
         id="g13128"
         transform="matrix(2.2435897,0,0,2.2435897,33.884987,17.553592)"
         style="fill:#b3b3b3"><g
           id="g12992"
           style="fill:#b3b3b3"><g
             id="g12994"
             style="fill:#b3b3b3"><polygon
               id="polygon12996"
               points="7.526,11.054 11.78,8.598 7.526,6.141 "
               style="fill:#b3b3b3" /><polygon
               id="polygon12998"
               points="7.526,17.193 11.78,14.738 7.526,12.282 "
               style="fill:#b3b3b3" /><polygon
               id="polygon13000"
               points="7.526,29.475 11.78,27.02 7.526,24.562 "
               style="fill:#b3b3b3" /><polygon
               id="polygon13002"
               points="12.135,32.546 12.135,27.635 7.881,30.09 "
               style="fill:#b3b3b3" /><polygon
               id="polygon13004"
               points="12.135,20.266 12.135,15.352 7.881,17.809 "
               style="fill:#b3b3b3" /><polygon
               id="polygon13006"
               points="12.135,14.124 12.135,9.211 7.881,11.668 "
               style="fill:#b3b3b3" /><polygon
               id="polygon13008"
               points="12.135,7.983 12.135,3.071 7.881,5.527 "
               style="fill:#b3b3b3" /><polygon
               id="polygon13010"
               points="12.844,7.983 17.099,5.527 12.844,3.071 "
               style="fill:#b3b3b3" /><polygon
               id="polygon13012"
               points="12.844,14.124 17.099,11.668 12.844,9.211 "
               style="fill:#b3b3b3" /><polygon
               id="polygon13014"
               points="12.844,20.266 17.099,17.809 12.844,15.352 "
               style="fill:#b3b3b3" /><polygon
               id="polygon13016"
               points="12.844,26.405 17.099,23.949 12.844,21.493 "
               style="fill:#b3b3b3" /><polygon
               id="polygon13018"
               points="12.844,32.546 17.099,30.09 12.844,27.635 "
               style="fill:#b3b3b3" /><polygon
               id="polygon13020"
               points="17.453,35.616 17.453,30.704 13.199,33.16 "
               style="fill:#b3b3b3" /><polygon
               id="polygon13022"
               points="17.453,29.475 17.453,24.562 13.199,27.02 "
               style="fill:#b3b3b3" /><polygon
               id="polygon13024"
               points="17.453,23.335 17.453,18.422 13.199,20.879 "
               style="fill:#b3b3b3" /><polygon
               id="polygon13026"
               points="17.453,17.193 17.453,12.282 13.199,14.738 "
               style="fill:#b3b3b3" /><polygon
               id="polygon13028"
               points="17.453,4.913 17.453,0 13.199,2.456 "
               style="fill:#b3b3b3" /><polygon
               id="polygon13030"
               points="2.208,14.124 6.462,11.668 2.208,9.211 "
               style="fill:#b3b3b3" /><polygon
               id="polygon13032"
               points="2.208,20.266 6.462,17.809 2.208,15.352 "
               style="fill:#b3b3b3" /><polygon
               id="polygon13034"
               points="2.208,26.405 6.462,23.949 2.208,21.493 "
               style="fill:#b3b3b3" /><polygon
               id="polygon13036"
               points="6.817,29.475 6.817,24.562 2.562,27.02 "
               style="fill:#b3b3b3" /><polygon
               id="polygon13038"
               points="6.817,23.335 6.817,18.422 2.562,20.879 "
               style="fill:#b3b3b3" /><polygon
               id="polygon13040"
               points="6.817,17.193 6.817,12.282 2.562,14.738 "
               style="fill:#b3b3b3" /><polygon
               id="polygon13042"
               points="6.817,11.054 6.817,6.141 2.562,8.598 "
               style="fill:#b3b3b3" /><polygon
               id="polygon13044"
               points="18.162,4.913 22.416,2.456 18.162,0 "
               style="fill:#b3b3b3" /><polygon
               id="polygon13046"
               points="18.162,17.193 22.416,14.738 18.162,12.282 "
               style="fill:#b3b3b3" /><polygon
               id="polygon13048"
               points="18.162,23.335 22.416,20.879 18.162,18.422 "
               style="fill:#b3b3b3" /><polygon
               id="polygon13050"
               points="18.162,29.475 22.416,27.02 18.162,24.562 "
               style="fill:#b3b3b3" /><polygon
               id="polygon13052"
               points="18.162,35.616 22.416,33.16 18.162,30.704 "
               style="fill:#b3b3b3" /><polygon
               id="polygon13054"
               points="22.771,32.546 22.771,27.635 18.517,30.09 "
               style="fill:#b3b3b3" /><polygon
               id="polygon13056"
               points="22.771,26.405 22.771,21.493 18.517,23.949 "
               style="fill:#b3b3b3" /><polygon
               id="polygon13058"
               points="22.771,20.266 22.771,15.352 18.517,17.809 "
               style="fill:#b3b3b3" /><polygon
               id="polygon13060"
               points="22.771,14.124 22.771,9.211 18.517,11.668 "
               style="fill:#b3b3b3" /><polygon
               id="polygon13062"
               points="22.771,7.983 22.771,3.071 18.517,5.527 "
               style="fill:#b3b3b3" /><polygon
               id="polygon13064"
               points="23.479,7.983 27.735,5.527 23.479,3.071 "
               style="fill:#b3b3b3" /><polygon
               id="polygon13066"
               points="23.479,14.124 27.735,11.668 23.479,9.211 "
               style="fill:#b3b3b3" /><polygon
               id="polygon13068"
               points="23.479,20.266 27.735,17.809 23.479,15.352 "
               style="fill:#b3b3b3" /><polygon
               id="polygon13070"
               points="23.479,32.546 27.735,30.09 23.479,27.635 "
               style="fill:#b3b3b3" /><polygon
               id="polygon13072"
               points="28.089,29.475 28.089,24.562 23.835,27.02 "
               style="fill:#b3b3b3" /><polygon
               id="polygon13074"
               points="28.089,17.193 28.089,12.282 23.835,14.738 "
               style="fill:#b3b3b3" /><polygon
               id="polygon13076"
               points="28.089,11.054 28.089,6.141 23.835,8.598 "
               style="fill:#b3b3b3" /><polygon
               id="polygon13078"
               points="28.798,11.054 33.052,8.598 28.798,6.141 "
               style="fill:#b3b3b3" /><polygon
               id="polygon13080"
               points="28.798,17.193 33.052,14.738 28.798,12.282 "
               style="fill:#b3b3b3" /><polygon
               id="polygon13082"
               points="28.798,23.335 33.052,20.879 28.798,18.422 "
               style="fill:#b3b3b3" /><polygon
               id="polygon13084"
               points="28.798,29.475 33.052,27.02 28.798,24.562 "
               style="fill:#b3b3b3" /><polygon
               id="polygon13086"
               points="33.408,26.405 33.408,21.493 29.153,23.949 "
               style="fill:#b3b3b3" /><polygon
               id="polygon13088"
               points="33.408,20.266 33.408,15.352 29.153,17.809 "
               style="fill:#b3b3b3" /><polygon
               id="polygon13090"
               points="33.408,14.124 33.408,9.211 29.153,11.668 "
               style="fill:#b3b3b3" /></g></g><g
           id="g13092"
           style="fill:#b3b3b3" /><g
           id="g13094"
           style="fill:#b3b3b3" /><g
           id="g13096"
           style="fill:#b3b3b3" /><g
           id="g13098"
           style="fill:#b3b3b3" /><g
           id="g13100"
           style="fill:#b3b3b3" /><g
           id="g13102"
           style="fill:#b3b3b3" /><g
           id="g13104"
           style="fill:#b3b3b3" /><g
           id="g13106"
           style="fill:#b3b3b3" /><g
           id="g13108"
           style="fill:#b3b3b3" /><g
           id="g13110"
           style="fill:#b3b3b3" /><g
           id="g13112"
           style="fill:#b3b3b3" /><g
           id="g13114"
           style="fill:#b3b3b3" /><g
           id="g13116"
           style="fill:#b3b3b3" /><g
           id="g13118"
           style="fill:#b3b3b3" /><g
           id="g13120"
           style="fill:#b3b3b3" /></g></g></g></svg>