<?xml version="1.0" encoding="UTF-8" standalone="no"?>
<svg
   xmlns:dc="http://purl.org/dc/elements/1.1/"
   xmlns:cc="http://creativecommons.org/ns#"
   xmlns:rdf="http://www.w3.org/1999/02/22-rdf-syntax-ns#"
   xmlns:svg="http://www.w3.org/2000/svg"
   xmlns="http://www.w3.org/2000/svg"
   xmlns:sodipodi="http://sodipodi.sourceforge.net/DTD/sodipodi-0.dtd"
   xmlns:inkscape="http://www.inkscape.org/namespaces/inkscape"
   version="1.1"
   x="0px"
   y="0px"
   viewBox="0 0 150 150"
   enable-background="new 0 0 100 100"
   xml:space="preserve"
   id="svg3555"
   inkscape:version="0.91 r13725"
   sodipodi:docname="Presentations.svg"
   width="150"
   height="150"><metadata
     id="metadata3593"><rdf:RDF><cc:Work
         rdf:about=""><dc:format>image/svg+xml</dc:format><dc:type
           rdf:resource="http://purl.org/dc/dcmitype/StillImage" /><dc:title /></cc:Work></rdf:RDF></metadata><defs
     id="defs3591"><filter
       inkscape:collect="always"
       style="color-interpolation-filters:sRGB"
       id="filter16519"
       x="-0.063365673"
       width="1.1267313"
       y="-0.056973831"
       height="1.1139477"><feGaussianBlur
         inkscape:collect="always"
         stdDeviation="1.6869239"
         id="feGaussianBlur16521" /></filter></defs><sodipodi:namedview
     pagecolor="#ffffff"
     bordercolor="#666666"
     borderopacity="1"
     objecttolerance="10"
     gridtolerance="10"
     guidetolerance="10"
     inkscape:pageopacity="0"
     inkscape:pageshadow="2"
     inkscape:window-width="1366"
     inkscape:window-height="713"
     id="namedview3589"
     showgrid="false"
     showborder="false"
     inkscape:zoom="2.1445313"
     inkscape:cx="127.82343"
     inkscape:cy="61.088976"
     inkscape:window-x="0"
     inkscape:window-y="27"
     inkscape:window-maximized="1"
     inkscape:current-layer="svg3555"
     showguides="true"
     inkscape:guide-bbox="true"
     fit-margin-top="0"
     fit-margin-left="0"
     fit-margin-right="0"
     fit-margin-bottom="0"><sodipodi:guide
       position="62.736873,156.93103"
       orientation="-0.70710678,0.70710678"
       id="guide6034" /><sodipodi:guide
       position="80.768093,156.22392"
       orientation="1,0"
       id="guide6036" /><sodipodi:guide
       position="-42.622037,74.90665"
       orientation="0,1"
       id="guide6038" /><sodipodi:guide
       position="88.546273,111.23426"
       orientation="0.70710678,0.70710678"
       id="guide6040"
       inkscape:label=""
       inkscape:color="rgb(0,0,255)" /><sodipodi:guide
       position="28.795743,43.4404"
       orientation="0.70710678,0.70710678"
       id="guide3622"
       inkscape:label=""
       inkscape:color="rgb(0,0,255)" /></sodipodi:namedview><g
     id="g14974"><path
       style="clip-rule:evenodd;fill-rule:evenodd"
       inkscape:connector-curvature="0"
       d="m -277.47781,121.94092 c 1.004,0.093 1.935,0.25501 2.859,0.23 0.383,-0.011 0.763,-0.40999 1.126,-0.658 0.261,-0.178 0.491,-0.401 0.736,-0.602 0.046,-0.038 0.13,-0.061 0.141,-0.10399 0.191,-0.79 1.012,-0.863 1.507,-1.30501 0.491,-0.43699 1.102,-0.73699 1.646,-1.11699 0.383,-0.268 0.717,-0.62 1.123,-0.838 0.286,-0.15301 0.661,-0.208 0.99,-0.192 0.45,0.021 0.555,-0.05 0.674,-0.531 0.109,-0.443 0.314,-0.861 0.454,-1.298 0.163,-0.51401 0.281,-1.04201 0.456,-1.552 0.133,-0.388 0.321,-0.757 0.489,-1.13301 0.177,-0.396 0.337,-0.801 0.545,-1.18099 0.23,-0.42001 0.516,-0.81101 0.758,-1.226 0.051,-0.087 0.017,-0.22401 0.021,-0.288 0.229,-0.316 0.46,-0.60601 0.66,-0.91801 0.331,-0.51599 0.727,-0.948 1.219,-1.32999 0.438,-0.339 0.779,-0.81401 1.127,-1.256 0.195,-0.24801 0.356,-0.297 0.632,-0.13801 0.74,0.42801 1.481,0.858 2.246,1.241 0.729,0.36501 1.491,0.66501 2.23,1.009 0.187,0.086 0.335,0.25 0.518,0.34701 0.413,0.22199 0.839,0.36499 1.317,0.456 0.622,0.119 1.196,0.487 1.79,0.75099 0.108,0.048 0.221,0.16801 0.313,0.152 0.823,-0.14099 1.405,0.39701 2.084,0.68201 0.578,0.24299 1.165,0.46999 1.835,0.481 0.277,0.004 0.612,0.385 0.808,0.672 0.465,0.68 0.406,0.709 -0.152,1.279 -0.337,0.345 -0.629,0.758 -0.853,1.187 -0.396,0.76 -0.77,1.539 -1.07,2.34099 -0.241,0.64501 -0.333,1.34401 -0.543,2.00301 -0.372,1.171 -0.655,2.38399 -1.428,3.389 -0.409,0.532 -0.761,1.12099 -1.234,1.586 -0.254,0.25 -0.703,0.327 -1.079,0.423 -0.785,0.202 -1.59,0.313 -2.266,0.835 -0.749,0.578 -1.523,1.123 -2.306,1.655 -0.644,0.438 -1.308,0.847 -1.977,1.24699 -0.341,0.20401 -0.664,0.11501 -0.979,-0.12699 -0.696,-0.536 -1.517,-0.813 -2.355,-1.021 -0.158,-0.04 -0.41,0.076 -0.545,0.2 -0.797,0.729 -1.771,1.123 -2.73,1.57 -0.984,0.46 -2.042,0.463 -3.071,0.648 -0.087,0.016 -0.19,0.031 -0.267,-0.001 -0.79,-0.33 -1.588,-0.077 -2.38,-0.037 -0.287,0.015 -0.589,0.067 -0.848,0.18301 -0.11,0.049 -0.204,0.323 -0.173,0.46599 0.18,0.82401 0.396,1.64101 0.606,2.45801 0.335,1.299 0.66,2.592 0.873,3.926 0.154,0.971 0.198,1.933 0.235,2.896 0.029,0.748 -0.128,1.505 -0.212,2.257 -0.1,0.898 -0.197,1.799 -0.32,2.694 -0.09,0.659 -0.23,1.312 -0.327,1.97 -0.113,0.774 -0.216,1.551 -0.29,2.329 -0.011,0.109 0.155,0.253 0.266,0.351 0.255,0.228 0.539,0.423 0.783,0.661 0.079,0.076 0.108,0.24899 0.092,0.368 -0.058,0.416 -0.776,1.063 -1.2,1.108 -0.859,0.093 -0.788,0.12 -1.113,0.95799 -0.331,0.85201 -0.764,1.68001 -1.256,2.45001 -1.102,1.723 -2.265,3.405 -3.411,5.099 -0.14,0.208 -0.33,0.382 -0.491,0.563 0.574,1.017 0.09,2.024 -0.952,2.43 -0.798,0.311 -1.498,0.224 -2.285,0.069 -0.826,-0.163 -1.688,-0.14 -2.535,-0.194 -0.625,-0.04 -1.251,-0.115 -1.875,-0.104 -1.295,0.023 -2.589,0.105 -3.883,0.142 -0.339,0.009 -0.68,-0.068 -1.021,-0.1 -0.484,-0.045 -0.967,-0.11 -1.452,-0.121 -1.607,-0.036 -3.216,-0.06 -4.824,-0.069 -0.307,-0.001 -0.615,0.077 -0.921,0.129 -0.379,0.064 -0.761,0.217 -1.134,0.195 -1.444,-0.083 -2.884,-0.235 -4.327,-0.33 -0.581,-0.038 -1.167,0.01 -1.75,0.01 -0.863,-0.001 -1.727,0.01 -2.588,-0.022 -0.876,-0.032 -1.75,-0.152 -2.625,-0.159 -0.932,-0.007 -1.865,0.073 -2.797,0.115 -0.829,0.038 -1.659,0.076 -2.488,0.113 -1.01,0.045 -2.021,0.091 -3.031,0.133 -0.594,0.025 -0.896,-0.163 -0.938,-0.576 -0.055,-0.538 0.303,-1.012 0.84,-1.081 0.384,-0.05 0.774,-0.055 1.159,-0.1 0.943,-0.111 1.883,-0.286 2.829,-0.336 0.711,-0.037 1.433,0.132 2.147,0.115 0.786,-0.02 1.568,-0.146 2.353,-0.227 0.917,-0.094 1.833,-0.212 2.752,-0.279 1.362,-0.1 2.729,-0.131 4.087,-0.263 0.448,-0.043 0.874,-0.306 1.365,-0.48901 -0.2,-0.29099 -0.38,-0.50899 -0.512,-0.75399 -0.327,-0.60901 -0.648,-1.22401 -0.939,-1.851 -0.236,-0.50801 -0.462,-1.026 -0.625,-1.562 -0.221,-0.73 -0.549,-1.487 -0.522,-2.222 0.042,-1.137 -0.296,-2.202 -0.356,-3.3 -0.087,-1.594 0.372,-3.139 0.764,-4.67401 0.303,-1.18799 0.706,-2.35199 0.983,-3.54599 0.401,-1.729 0.731,-3.474 1.088,-5.212 0.063,-0.305 0.114,-0.61 0.167,-0.916 0.059,-0.338 -0.135,-0.537 -0.426,-0.551 -0.651,-0.032 -1.304,-0.005 -1.957,-0.007 -0.325,0 -0.666,0.051 -0.972,-0.028 -0.712,-0.185 -0.971,-0.92 -0.52,-1.499 0.485,-0.623 0.716,-1.332 0.962,-2.069 0.448,-1.34 1.022,-2.638 1.544,-3.953 0.293,-0.737 0.573,-1.48 0.886,-2.209 0.3,-0.699 0.639,-1.381 0.951,-2.075 0.071,-0.158 0.091,-0.338 0.154,-0.501 0.232,-0.606 0.865,-0.675 1.334,-0.95 0.32,-0.187 0.707,-0.26 1.065,-0.381 0.097,-0.032 0.224,-0.105 0.293,-0.071 0.495,0.245 0.458,-0.1 0.429,-0.38901 -0.063,-0.62199 -0.007,-1.31 -0.263,-1.84399 -0.375,-0.78101 -0.319,-1.586 -0.437,-2.382 -0.049,-0.33401 0,-0.682 -0.015,-1.023 -0.055,-1.243 -0.06,-2.483 -0.359,-3.711 -0.144,-0.59 -0.05,-1.235 -0.082,-1.854 -0.01,-0.201 -0.094,-0.398 -0.109,-0.599 -0.035,-0.47401 -0.018,-0.955 -0.083,-1.424 -0.054,-0.387 -0.197,-0.761 -0.298,-1.141 -0.133,-0.499 -0.364,-0.998 -0.365,-1.497 0,-0.439 0.158,-0.963 0.433,-1.292 0.243,-0.291 0.73,-0.453 1.135,-0.521 1.358,-0.23001 2.726,-0.404 4.093,-0.57501 0.671,-0.084 1.357,-0.068 2.022,-0.17999 0.883,-0.149 1.748,-0.401 2.628,-0.567 0.706,-0.133 1.422,-0.211 2.135,-0.299 0.912,-0.113 1.83,-0.188 2.738,-0.32401 0.595,-0.088 1.174,-0.282 1.769,-0.37799 0.575,-0.093 1.165,-0.094 1.741,-0.18401 0.74,-0.117 1.472,-0.28499 2.208,-0.42399 0.109,-0.021 0.227,-0.009 0.34,0 0.606,0.051 1.215,0.16499 1.818,0.142 0.602,-0.022 1.201,-0.163 1.795,-0.284 0.89,-0.181005 1.402,0.36399 1.089,1.24499 -0.349,0.979 -0.771,1.93301 -1.16,2.89801 -0.034,0.083 -0.077,0.163 -0.108,0.246 -0.163,0.44099 -0.011,0.654 0.445,0.54899 1.203,-0.27899 2.396,-0.604 3.6,-0.88599 0.745,-0.175 1.497,-0.332 2.254,-0.44401 0.555,-0.082 1.064,0.282 1.171,0.74901 0.156,0.686 -0.039,1.12299 -0.643,1.375 -0.473,0.198 -0.769,0.543 -1.063,0.964 -0.783,1.118 -1.647,2.178 -2.47,3.27 -0.406,0.53999 -0.819,1.07899 -1.174,1.65299 -0.295,0.477 -0.981,0.727 -1.58,0.40301 -1.479,-0.797 -3.053,-1.312 -4.668,-1.73901 -1.372,-0.363 -2.743,-0.744 -4.092,-1.18299 -1.427,-0.465 -2.906,-0.565 -4.376,-0.714 -1.256,-0.12701 -2.523,-0.15701 -3.786,-0.212 -0.279,-0.012 -0.563,0.078 -0.844,0.072 -0.804,-0.02 -1.607,-0.064 -2.411,-0.099 -0.134,-0.005 -0.268,-0.013 -0.402,-0.007 -0.426,0.02 -0.852,0.059 -1.278,0.065 -0.668,0.009 -0.901,0.026 -0.824,0.813 0.078,0.78899 -0.023,1.59599 -0.046,2.395 -0.013,0.44099 -0.046,0.883 -0.04,1.325 0.014,0.95599 0.029,1.912 0.08,2.86599 0.047,0.89601 0.108,1.79401 0.224,2.68301 0.141,1.081 0.326,2.15699 0.531,3.22799 0.131,0.68301 0.986,1.09 1.613,1.035 0.645,-0.057 1.291,-0.10399 1.936,-0.155 0.045,-0.003 0.099,-0.017 0.134,0.002 0.772,0.43 1.517,-0.093 2.277,-0.068 0.147,0.005 0.313,-0.082 0.442,-0.04 0.774,0.25101 1.482,-0.092 2.219,-0.19999 0.466,-0.069 0.947,-0.028 1.417,-0.073 0.381,-0.036 0.754,-0.15001 1.136,-0.18801 1.186,-0.11999 2.367,-0.491 3.568,-0.072 0.156,0.054 0.359,0.017 0.53,-0.023 1.086,-0.25 2.151,-0.033 3.222,0.115 0.279,0.039 0.565,0.038 0.849,0.035 0.256,-0.002 0.438,-0.118 0.498,-0.393 0.316,-1.441 0.621,-2.885 0.963,-4.32 0.121,-0.51 0.341,-0.997 0.503,-1.499 0.264,-0.814 0.521,-1.631 0.774,-2.449 0.14,-0.456 0.447,-0.644 0.873,-0.445 0.106,0.05 0.181,0.36 0.135,0.51 -0.25,0.829 -0.553,1.641 -0.816,2.465 -0.441,1.382 -0.881,2.765 -1.291,4.156 -0.179,0.618 -0.288,1.258 -0.435,1.904 z m -28.258,11.36001 c 0.864,-0.013 1.654,-0.037 2.443,-0.03 0.305,0.002 0.537,-0.063 0.742,-0.30801 0.213,-0.253 0.886,-0.344 1.091,-0.10699 0.475,0.54999 1.107,0.45799 1.675,0.41799 0.963,-0.067 1.915,-0.278 2.875,-0.40599 0.906,-0.121 1.814,-0.226 2.723,-0.31301 0.452,-0.043 0.828,-0.34999 0.903,-0.789 0.062,-0.36399 0.121,-0.731 0.214,-1.088 0.083,-0.32 -0.016,-0.51 -0.338,-0.537 -0.487,-0.041 -0.976,-0.068 -1.464,-0.068 -0.505,0 -1.015,0.089 -1.516,0.052 -0.677,-0.05 -1.35,-0.173 -2.021,-0.285 -0.437,-0.072 -0.708,-0.47 -0.634,-0.877 0.069,-0.38 0.546,-0.75199 0.921,-0.69199 1.116,0.18099 2.236,0.15 3.358,0.101 0.506,-0.022 1.03,0.054 1.515,-0.051 0.757,-0.165 1.536,-0.272 2.251,-0.611 0.167,-0.079 0.375,-0.063 0.552,-0.127 0.778,-0.28199 1.373,-1.04 2.32,-0.89599 0.056,0.008 0.146,-0.057 0.184,-0.113 0.268,-0.38801 0.657,-0.40601 1.074,-0.39001 0.363,0.015 0.739,-0.068 1.089,-0.003 0.533,0.1 1.129,-0.081 1.587,0.40899 0.325,0.346 0.377,0.744 -0.044,0.953 -0.649,0.32301 -1.326,0.59701 -2.007,0.84701 -0.485,0.17699 -1.003,0.26499 -1.496,0.423 -0.183,0.059 -0.338,0.204 -0.549,0.338 0.241,0.18999 0.41,0.33299 0.589,0.462 0.12,0.086 0.253,0.154 0.382,0.22699 0.319,0.18101 0.67,0.957 0.563,1.364 -0.109,0.416 -0.426,0.60901 -0.856,0.66901 -1.098,0.15099 -2.146,0.47899 -3.141,0.96799 -0.426,0.21001 -0.838,0.449 -1.264,0.66 -0.19,0.094 -0.395,0.191 -0.602,0.217 -0.693,0.086 -1.392,0.13001 -2.085,0.209 -0.443,0.05 -0.879,0.16001 -1.322,0.199 -1.088,0.096 -2.179,0.164 -3.269,0.248 -0.102,0.009 -0.212,0.037 -0.3,0.088 -0.414,0.23899 -0.843,0.22899 -1.297,0.142 -0.299,-0.059 -0.491,0.059 -0.545,0.41999 -0.157,1.037 -0.331,2.072 -0.545,3.09901 -0.361,1.726 -0.746,3.447 -1.147,5.16399 -0.106,0.455 -0.359,0.87601 -0.461,1.33101 -0.258,1.156 -0.474,2.322 -0.693,3.48699 -0.059,0.313 -0.067,0.63601 -0.105,1.014 0.55,-0.008 1.02,-0.002 1.488,-0.025 0.52,-0.027 1.038,-0.105 1.557,-0.119 0.714,-0.018 1.425,0.003 2.104,-0.295 0.208,-0.091 0.462,-0.087 0.696,-0.101 0.403,-0.023 0.81,-0.006 1.212,-0.043 1.36,-0.126 2.718,-0.279 4.078,-0.399 0.307,-0.026 0.622,0.07 0.932,0.062 0.727,-0.022 1.452,-0.084 2.179,-0.113 0.582,-0.022 1.164,-0.019 1.746,-0.033 0.436,-0.011 0.872,-0.062 1.306,-0.044 0.919,0.038 1.837,0.115 2.756,0.164 1.413,0.075 2.826,0.14 4.238,0.21 0.223,0.011 0.444,0.029 0.667,0.039 0.719,0.034 1.438,0.084 2.157,0.093 0.414,0.005 0.839,-0.124 1.242,-0.071 0.596,0.078 1.178,0.261 1.764,0.407 0.53,0.133 0.792,-0.019 0.857,-0.566 0.093,-0.772 0.123,-1.553 0.229,-2.322 0.111,-0.801 0.297,-1.592 0.42,-2.392 0.067,-0.438 0.057,-0.889 0.105,-1.33 0.075,-0.673 0.199,-1.342 0.25,-2.017 0.042,-0.559 0.019,-1.123 0.007,-1.686 -0.015,-0.713 0.041,-1.442 -0.091,-2.135 -0.216,-1.131 -0.54,-2.244 -0.852,-3.355 -0.334,-1.192 -0.701,-2.375 -1.066,-3.559 -0.046,-0.148 -0.145,-0.299 -0.261,-0.403 -0.417,-0.375 -0.476,-0.624 -0.211,-1.077 0.317,-0.543 0.722,-0.784 1.135,-0.554 0.37,0.206 0.702,0.266 1.09,0.139 0.067,-0.022 0.148,-0.004 0.224,0 0.854,0.048 1.707,0.096 2.561,0.148 0.25,0.015 0.521,0.114 0.746,0.049 0.691,-0.201 1.484,-0.125 2.044,-0.71 0.048,-0.051 0.121,-0.086 0.189,-0.109 0.504,-0.168 1.009,-0.332 1.515,-0.496 0.003,-0.068 0.007,-0.136 0.011,-0.204 -0.884,-0.367 -1.742,-0.829 -2.658,-1.076 -1.154,-0.312 -2.289,-0.763 -3.524,-0.744 -0.358,0.006 -0.718,-0.155 -1.08,-0.225 -0.343,-0.066 -0.689,-0.115 -1.036,-0.166 -0.246,-0.036 -0.503,-0.033 -0.739,-0.101 -0.452,-0.12899 -0.872,-0.30899 -1.378,-0.20099 -0.318,0.067 -0.677,-0.04 -1.016,-0.08 -0.332,-0.04 -0.661,-0.111 -0.994,-0.135 -0.247,-0.018 -0.517,0.084 -0.744,0.02 -0.543,-0.154 -1.082,-0.092 -1.628,-0.102 -0.727,-0.013 -1.451,-0.133 -2.179,-0.151 -0.502,-0.013 -1.007,0.095 -1.511,0.101 -0.677,0.008 -1.359,-0.089 -2.032,-0.037 -1.124,0.087 -2.242,0.249 -3.36,0.396 -0.512,0.067 -1.018,0.175 -1.528,0.258 -0.175,0.028 -0.359,0.071 -0.53,0.045 -0.812,-0.121 -1.603,-0.09 -2.38,0.202 -0.132,0.049 -0.295,0.027 -0.442,0.019 -0.266,-0.015 -0.531,-0.066 -0.796,-0.065 -0.777,0.004 -1.556,0.058 -2.331,0.025 -0.343,-0.015 -0.699,-0.151 -1.012,-0.306 -0.514,-0.254 -0.452,-0.773 -0.471,-1.24 -0.028,-0.678 -0.36,-0.969 -1.033,-0.9 -0.164,0.016 -0.325,0.054 -0.489,0.068 -0.769,0.062 -1.159,0.453 -1.362,1.202 -0.176,0.647 -0.416,1.283 -0.696,1.893 -0.569,1.24 -1.239,2.437 -1.767,3.693 -0.583,1.388 -1.054,2.822 -1.569,4.237 -0.042,0.108 -0.053,0.227 -0.089,0.399 z m 4.637,25.43099 c 0.313,-0.957 1.001,-1.75199 1.09,-2.79399 0.036,-0.42001 0.294,-0.713 0.699,-0.839 0.865,-0.27 1.615,-0.825 2.58,-0.875 0.912,-0.046 1.811,-0.30701 2.723,-0.39601 0.364,-0.035 0.748,0.20501 1.122,0.202 0.645,-0.007 1.289,-0.113 1.934,-0.16199 0.236,-0.018 0.477,0 0.714,0.021 0.604,0.054 1.207,0.14199 1.813,0.171 0.435,0.021 0.887,-0.104 1.309,-0.03 0.841,0.14701 1.665,0.185 2.521,0.108 0.685,-0.062 1.387,0.10901 2.083,0.12901 0.698,0.02 1.387,0.303 2.103,0.013 0.288,-0.116 0.976,0.425 0.944,0.682 -0.073,0.606 -0.314,1.002 -0.942,1.052 -0.298,0.022 -0.601,0.03 -0.892,0.092 -0.451,0.094 -0.547,0.348 -0.35,0.755 0.101,0.208 0.168,0.434 0.229,0.656 0.187,0.682 0.342,1.371 0.551,2.045 0.094,0.301 0.745,0.598 0.893,0.446 0.382,-0.391 0.806,-0.764 1.095,-1.219 0.561,-0.884 1.308,-1.633 1.754,-2.606 0.289,-0.629 0.773,-1.169 1.174,-1.747 0.134,-0.193 0.319,-0.362 0.411,-0.572 0.334,-0.767 0.62,-1.554 0.959,-2.317 0.23,-0.52 0.22,-0.614 -0.323,-0.777 -0.226,-0.068 -0.464,-0.119 -0.698,-0.13 -0.812,-0.038 -1.624,-0.058 -2.436,-0.08 -0.206,-0.005 -0.42,0.044 -0.616,0.002 -0.762,-0.162 -1.519,-0.304 -2.3,-0.119 -0.154,0.036 -0.327,0.006 -0.49,-0.009 -1.568,-0.142 -3.133,-0.325 -4.704,-0.419 -1.033,-0.061 -2.073,-0.005 -3.11,0.019 -1.909,0.044 -3.817,0.109 -5.726,0.153 -0.74,0.017 -1.528,-0.158 -2.207,0.046 -0.679,0.204 -1.337,0.189 -2.006,0.261 -0.219,0.023 -0.433,0.092 -0.651,0.13 -0.278,0.048 -0.574,0.166 -0.835,0.114 -0.883,-0.176 -1.712,0.063 -2.541,0.271 -0.379,0.096 -0.676,0.342 -0.65,0.837 0.038,0.709 -0.08,1.437 0.331,2.087 0.045,0.07 0.047,0.168 0.069,0.254 0.084,0.324 0.139,0.66 0.259,0.972 0.25,0.647 0.485,1.309 0.82,1.913 0.321,0.578 0.761,1.092 1.151,1.632 0.01,0.014 0.053,0.01 0.146,0.028 z m 24.369,-48.606 c 0.24,-0.13499 0.51,-0.22799 0.7,-0.405 0.463,-0.434 0.896,-0.89999 1.328,-1.36599 0.283,-0.305 0.554,-0.62401 0.812,-0.952 0.247,-0.31501 0.179,-0.54101 -0.208,-0.65801 -0.163,-0.05 -0.352,-0.011 -0.528,-0.014 -0.727,-0.013 -1.458,0.027 -2.176,-0.057 -0.624,-0.073 -0.809,-0.063 -1.139,0.494 -0.174,0.29401 -0.405,0.417 -0.743,0.37201 -0.553,-0.073 -1.021,-0.758 -0.791,-1.261 0.188,-0.40801 0.484,-0.76601 0.735,-1.144 0.072,-0.109 0.191,-0.2 0.229,-0.31801 0.138,-0.43799 0.269,-0.87899 0.365,-1.32799 0.031,-0.149 0.007,-0.39801 -0.091,-0.471 -0.304,-0.229 -0.638,-0.507 -0.991,-0.563 -0.672,-0.107 -1.371,-0.136 -2.05,-0.082 -0.949,0.075 -1.888,0.27 -2.835,0.385 -1.271,0.153 -2.549,0.24 -3.814,0.425 -1.931,0.283 -3.853,0.632 -5.78,0.942 -0.558,0.09 -1.122,0.146 -1.684,0.213 -0.468,0.056 -0.974,0.012 -1.396,0.18 -0.701,0.279 -1.404,0.233 -2.112,0.214 -0.404,-0.011 -0.566,0.082 -0.511,0.488 0.045,0.334 0.163,0.658 0.241,0.989 0.192,0.815 0.773,1.15599 1.625,1.035 1.274,-0.181 2.552,-0.344 3.834,-0.455 0.838,-0.072 1.685,-0.061 2.527,-0.043 0.968,0.021 1.939,0.062 2.903,0.152 0.584,0.055 1.162,0.205 1.736,0.339 1.133,0.266 2.253,0.597 3.396,0.814 1.406,0.268 2.693,0.817 3.988,1.399 0.739,0.331 1.575,0.446 2.43,0.676 z m 10.849,7.81401 c 0.03,0.006 0.06,0.013 0.089,0.019 -0.023,0.17701 -0.071,0.355 -0.063,0.531 0.006,0.13301 0.046,0.33501 0.135,0.379 0.247,0.123 0.522,0.21101 0.797,0.256 0.549,0.09 1.106,0.12801 1.656,0.213 0.469,0.071 0.932,0.175 1.397,0.269 0.261,0.053 0.522,0.107 0.78,0.17501 0.169,0.045 0.328,0.131 0.497,0.17399 0.587,0.149 1.297,0.13001 1.735,0.467 0.624,0.479 1.463,0.22201 2.044,0.857 0.328,0.36 1.03,0.36501 1.552,0.564 0.514,0.197 1.019,0.423 1.514,0.663 0.28,0.136 0.498,0.133 0.784,-0.028 0.595,-0.334 0.776,-0.969 1.022,-1.486 0.463,-0.97299 0.737,-2.036 1.073,-3.066 0.188,-0.578 0.287,-1.191 0.526,-1.745 0.421,-0.975 0.912,-1.92 1.386,-2.871 0.117,-0.235 0.102,-0.39 -0.145,-0.509 -0.225,-0.109 -0.459,-0.208 -0.659,-0.353 -0.894,-0.646 -1.931,-0.976 -2.941,-1.361 -0.733,-0.28 -1.497,-0.481 -2.222,-0.782 -0.761,-0.316 -1.484,-0.724 -2.236,-1.064 -0.731,-0.331 -1.485,-0.611 -2.216,-0.943 -0.728,-0.331 -1.414,-0.468 -2.021,0.218 -0.154,0.174 -0.28,0.379 -0.458,0.521 -1.226,0.982 -1.74,2.438 -2.431,3.754 -0.514,0.979 -0.936,2.034 -1.117,3.159 -0.108,0.671 -0.315,1.327 -0.478,1.989 z m -6.375,4.51999 c 1.233,0.267 2.371,0.45601 3.476,0.765 1.443,0.40301 2.859,0.90301 4.288,1.35601 0.322,0.10199 0.672,0.14099 0.973,0.286 0.996,0.47699 2.002,0.941 2.947,1.506 0.471,0.28199 0.767,0.12799 1.111,-0.113 0.581,-0.40701 1.126,-0.882 1.747,-1.21201 0.335,-0.178 0.684,-0.31799 0.979,-0.566 0.061,-0.05 0.16,-0.055 0.242,-0.079 0.271,-0.079 0.592,-0.092 0.802,-0.25099 0.324,-0.24701 0.571,-0.59401 0.795,-0.83701 -0.235,-0.177 -0.435,-0.327 -0.556,-0.418 -0.214,-0.02 -0.377,0.006 -0.498,-0.054 -0.317,-0.15599 -0.598,-0.393 -0.924,-0.51899 -0.658,-0.25201 -1.327,-0.48701 -2.009,-0.66401 -1.206,-0.313 -2.354,-0.799 -3.576,-1.081 -0.968,-0.223 -1.916,-0.353 -2.9,-0.423 -0.761,-0.055 -1.544,-0.23 -2.077,-0.915 -0.219,-0.281 -0.485,-0.365 -0.787,-0.04 -0.167,0.18 -0.414,0.285 -0.618,0.431 -0.75,0.538 -1.498,1.077 -2.244,1.621 -0.056,0.041 -0.076,0.127 -0.126,0.181 -0.239,0.258 -0.479,0.515 -0.725,0.767 -0.077,0.077 -0.17,0.138 -0.32,0.259 z m -26.982,36.558 c 0.851,0.048 1.62,0.10401 2.39,0.13101 0.894,0.032 1.788,0.039 2.683,0.058 0.533,0.012 1.067,0.057 1.599,0.032 0.756,-0.033 1.518,-0.21499 2.263,-0.15499 1.122,0.089 2.233,0.166 3.35,0.007 0.319,-0.045 0.631,-0.17401 0.949,-0.182 0.778,-0.02 1.557,0.005 2.335,0.02 0.432,0.008 0.592,-0.207 0.466,-0.62399 -0.094,-0.313 -0.129,-0.649 -0.258,-0.94601 -0.19,-0.43699 -0.353,-0.94299 -0.686,-1.24599 -0.412,-0.374 -1,-0.413 -1.573,-0.25 -0.238,0.067 -0.516,0.11 -0.75,0.057 -1.063,-0.246 -2.144,-0.229 -3.221,-0.272 -0.382,-0.015 -0.762,-0.084 -1.144,-0.089 -0.609,-0.009 -1.22,0.049 -1.828,0.018 -1.784,-0.092 -3.509,0.136 -5.17,0.82 -0.336,0.139 -0.527,0.35 -0.656,0.67599 -0.173,0.43801 -0.395,0.85501 -0.577,1.29001 -0.077,0.179 -0.103,0.381 -0.172,0.655 z m 13.767,-31.68499 c -0.004,-0.075 -0.009,-0.15 -0.013,-0.22501 -0.344,-0.025 -0.691,-0.032 -1.032,-0.078 -0.858,-0.113 -1.607,0.285 -2.383,0.52001 -0.534,0.162 -1.018,0.482 -1.54,0.692 -0.71,0.285 -1.42,0.547 -1.615,1.41399 -0.132,0.59101 -0.347,1.18101 0.064,1.75301 0.147,0.20499 0.274,0.34199 0.532,0.108 0.094,-0.085 0.292,-0.05 0.442,-0.078 0.155,-0.029 0.347,-0.021 0.456,-0.111 0.587,-0.48399 1.294,-0.60199 2.007,-0.70999 0.346,-0.052 0.426,-0.19101 0.197,-0.46801 -0.39,-0.473 -0.839,-0.846 -1.533,-0.667 -0.116,0.03 -0.323,-0.025 -0.379,-0.112 -0.054,-0.083 10e-4,-0.277 0.066,-0.388 0.071,-0.121 0.192,-0.245 0.319,-0.294 0.714,-0.273 1.428,-0.553 2.159,-0.77599 0.741,-0.226 1.501,-0.38901 2.253,-0.58001 z"
       id="path14926" /><path
       style="clip-rule:evenodd;fill-rule:evenodd"
       inkscape:connector-curvature="0"
       d="m -296.11981,119.17693 c 0.094,-0.583 0.164,-1.171 0.301,-1.744 0.028,-0.12 0.317,-0.27 0.462,-0.248 0.25,0.038 0.499,0.17399 0.719,0.314 0.744,0.475 1.563,0.716 2.423,0.863 0.356,0.061 0.708,0.16899 1.047,0.297 0.105,0.041 0.244,0.25299 0.215,0.328 -0.061,0.15699 -0.2,0.351 -0.347,0.393 -0.296,0.086 -0.618,0.083 -0.93,0.113 -0.405,0.039 -0.77,0.125 -1.098,0.422 -0.219,0.198 -0.569,0.24699 -0.85,0.385 -0.211,0.103 -0.44,0.20699 -0.6,0.37 -0.242,0.24699 -0.495,0.214 -0.655,0.004 -0.332,-0.437 -0.802,-0.836 -0.687,-1.497 z m 1.338,-0.04 c 0.456,0.22799 0.593,0.195 0.893,-0.196 -0.491,-0.429 -0.683,-0.39201 -0.893,0.196 z"
       id="path14928" /><path
       style="clip-rule:evenodd;fill-rule:evenodd"
       inkscape:connector-curvature="0"
       d="m -292.68381,112.33693 c -0.012,-1.083 0.832,-1.77901 1.712,-1.54401 0.937,0.25101 1.05,0.78101 0.321,1.536 -0.165,0.17101 -0.345,0.32801 -0.528,0.48001 -0.38,0.31699 -1.076,0.25 -1.385,-0.14701 -0.092,-0.11799 -0.11,-0.29299 -0.12,-0.32499 z"
       id="path14930" /><path
       style="clip-rule:evenodd;fill-rule:evenodd"
       inkscape:connector-curvature="0"
       d="m -282.85381,113.85592 c 0.008,-0.929 0.475,-1.137 1.071,-1.16299 0.429,-0.019 1.006,0.60599 0.983,1 -0.025,0.41899 -0.728,0.924 -1.242,0.89199 -0.566,-0.035 -0.827,-0.26999 -0.812,-0.72899 z"
       id="path14932" /><path
       style="clip-rule:evenodd;fill-rule:evenodd"
       inkscape:connector-curvature="0"
       d="m -262.98881,117.09092 c 0.132,-0.682 0.161,-1.406 0.417,-2.03799 0.479,-1.184 1.091,-2.31401 1.646,-3.46801 0.056,-0.116 0.122,-0.235 0.141,-0.358 0.073,-0.502 0.562,-0.728 1.043,-0.526 0.971,0.40601 1.964,0.75701 2.933,1.16801 0.635,0.27 1.233,0.622 1.862,0.90499 0.816,0.36801 1.605,0.822 2.538,0.864 0.249,0.012 0.506,0.077 0.738,0.169 0.298,0.119 0.438,0.387 0.349,0.69 -0.091,0.309 -0.245,0.603 -0.397,0.889 -0.483,0.905 -0.82,1.86 -1.104,2.846 -0.17,0.593 -0.472,1.152 -0.755,1.706 -0.215,0.42 -0.621,0.46901 -0.938,0.098 -0.539,-0.634 -1.343,-0.587 -2.022,-0.84899 -0.633,-0.244 -1.287,-0.44801 -1.949,-0.59401 -1.082,-0.23899 -2.179,-0.414 -3.268,-0.625 -0.275,-0.054 -0.55,-0.127 -0.813,-0.224 -0.289,-0.10499 -0.52,-0.273 -0.421,-0.653 z m 0.941,-0.388 c 0.199,0.18301 0.378,0.474 0.621,0.54501 0.908,0.268 1.842,0.446 2.757,0.691 1.317,0.353 2.63,0.722 3.937,1.112 0.288,0.086 0.464,0.037 0.568,-0.218 0.206,-0.502 0.39,-1.015 0.587,-1.521 0.262,-0.676 0.539,-1.34601 0.782,-2.028 0.049,-0.137 0.024,-0.417 -0.059,-0.46201 -0.31,-0.16799 -0.654,-0.274 -0.991,-0.387 -0.181,-0.061 -0.373,-0.083 -0.558,-0.133 -0.454,-0.122 -0.905,-0.25 -1.358,-0.375 -0.358,-0.099 -0.726,-0.171 -1.073,-0.298 -0.75,-0.274 -1.484,-0.592 -2.236,-0.862 -0.725,-0.25899 -0.97,-0.182 -1.363,0.496 -0.418,0.719 -0.789,1.46601 -1.153,2.214 -0.173,0.35301 -0.281,0.738 -0.461,1.226 z"
       id="path14934" /></g><g
     id="g16543"><rect
       ry="0"
       rx="0"
       style="opacity:1;fill:#333333;fill-opacity:1;stroke:none;stroke-width:6.79094839;stroke-linecap:round;stroke-linejoin:round;stroke-miterlimit:4;stroke-dasharray:none;stroke-dashoffset:0;stroke-opacity:1"
       id="rect5453"
       width="150"
       height="150"
       x="-2.8881836e-06"
       y="-3.7060545e-07" /><g
       inkscape:export-ydpi="90"
       inkscape:export-xdpi="90"
       style="fill:#ececec;filter:url(#filter16519)"
       transform="matrix(1.2437922,0,0,1.2437922,11.45212,12.350809)"
       id="g5918"><g
         style="fill:#ececec"
         id="Captions" /><g
         style="fill:#ececec"
         id="Your_Icon"><path
           style="fill:#ececec"
           inkscape:connector-curvature="0"
           d="m 79,77.17 0,0.01 c -0.05,-0.02 -0.1,-0.029 -0.15,-0.06 0.05,0.02 0.1,0.04 0.15,0.05 z"
           id="path5898" /><g
           style="fill:#ececec"
           id="g5900"><ellipse
             style="fill:#ececec"
             cx="51.755001"
             cy="25.684999"
             rx="9.9110003"
             ry="10.846"
             id="ellipse5902" /><path
             style="fill:#ececec"
             inkscape:connector-curvature="0"
             d="m 69.38,46 -36.43,0 c 3.93,-5.23 11.24,-8.42 18.22,-8.42 6.97,0 14.28,3.19 18.21,8.42 z"
             id="path5904" /><path
             style="fill:#ececec"
             inkscape:connector-curvature="0"
             d="m 81.53,75.04 c -0.61,0.79 -1.96,1.66 -3.53,1.13 -0.05,-0.01 -0.1,-0.03 -0.15,-0.05 -0.1,-0.03 -0.189,-0.08 -0.29,-0.13 -0.3,-0.141 -0.6,-0.34 -0.899,-0.601 -2.12,-1.8 -3.11,-4.26 -1.78,-7 0.311,-0.63 0.7,-1.08 1.11,-1.399 0.069,-0.05 0.13,-0.101 0.2,-0.141 0.06,-0.05 0.13,-0.09 0.189,-0.119 0.29,-0.181 0.58,-0.311 0.86,-0.41 0.069,-0.03 0.14,-0.061 0.2,-0.08 0.199,-0.07 0.38,-0.141 0.56,-0.2 0.59,-0.22 1.01,-0.44 1,-1.021 l 0,-4.38 c 0,0 3.24,2.801 3.86,6.95 0.63,4.151 -0.55,6.441 -1.33,7.451 z"
             id="path5906" /><path
             style="fill:#ececec"
             inkscape:connector-curvature="0"
             d="M 25.68,75.39 C 23.56,77.191 21.59,76.05 20.8,75.04 20.02,74.03 18.685,71.74 19.305,67.59 19.935,63.44 23,60.64 23,60.64 l 0,4.38 c 0,1.49 2.965,0.631 4.295,3.37 1.33,2.74 0.495,5.2 -1.615,7 z"
             id="path5908" /></g><path
           style="fill:#ececec"
           inkscape:connector-curvature="0"
           d="m 77.475,65.1 c 0.209,-0.08 0.48,-0.17 0.619,-0.25 l 0,-17.95 -54,0 0,17.95 c 0,0.08 0.541,0.17 0.75,0.25 0.99,0.34 2.611,0.871 3.52,2.75 1.422,2.91 0.602,5.9 -2.109,8.201 -0.629,0.539 -1.16,0.898 -2.16,1.068 l 0,8.781 54,0 0,-8.781 C 77.406,76.949 76.736,76.59 76.105,76.051 73.396,73.75 72.656,70.76 74.076,67.85 74.984,65.971 76.484,65.439 77.475,65.1 Z M 60.146,59.625 62.369,58.34 c 0.301,-0.174 0.686,-0.07 0.859,0.23 0.173,0.3 0.07,0.686 -0.23,0.859 l -2.223,1.283 c -0.1,0.059 -0.207,0.084 -0.314,0.084 -0.217,0 -0.428,-0.111 -0.545,-0.314 -0.174,-0.298 -0.07,-0.685 0.23,-0.857 z m -4.154,-3.695 1.283,-2.223 c 0.174,-0.301 0.561,-0.404 0.859,-0.23 0.301,0.174 0.404,0.559 0.23,0.859 l -1.285,2.223 c -0.115,0.201 -0.326,0.314 -0.545,0.314 -0.105,0 -0.215,-0.027 -0.312,-0.084 -0.3,-0.174 -0.404,-0.559 -0.23,-0.859 z m -5.445,-3.69 c 0,-0.348 0.281,-0.629 0.629,-0.629 0.348,0 0.629,0.281 0.629,0.629 l 0,2.568 c 0,0.346 -0.281,0.627 -0.629,0.627 -0.348,0 -0.629,-0.281 -0.629,-0.627 l 0,-2.568 z m -6.33,1.237 c 0.301,-0.174 0.686,-0.072 0.859,0.229 l 1.285,2.225 c 0.172,0.301 0.07,0.686 -0.23,0.859 -0.1,0.057 -0.207,0.084 -0.314,0.084 -0.217,0 -0.428,-0.113 -0.545,-0.314 l -1.283,-2.225 c -0.175,-0.302 -0.073,-0.687 0.228,-0.858 z m -6.959,12.052 c 0,-0.348 0.283,-0.629 0.629,-0.629 l 2.568,0 c 0.348,0 0.629,0.281 0.629,0.629 0,0.346 -0.281,0.627 -0.629,0.627 l -2.568,0 c -0.346,0 -0.629,-0.281 -0.629,-0.627 z m 4.949,5.905 -2.225,1.283 c -0.1,0.057 -0.207,0.084 -0.314,0.084 -0.217,0 -0.428,-0.113 -0.545,-0.314 -0.174,-0.301 -0.07,-0.686 0.23,-0.859 l 2.225,-1.283 c 0.299,-0.174 0.684,-0.07 0.857,0.23 0.173,0.3 0.073,0.685 -0.228,0.859 z m 0.229,-10.952 c -0.115,0.201 -0.326,0.314 -0.545,0.314 -0.105,0 -0.215,-0.027 -0.312,-0.084 l -2.225,-1.285 c -0.301,-0.172 -0.404,-0.557 -0.23,-0.857 0.174,-0.3 0.559,-0.404 0.859,-0.23 l 2.225,1.283 c 0.3,0.174 0.401,0.559 0.228,0.859 z m 11.71,20.873 -3.113,0.791 c -0.051,0.014 -0.104,0.02 -0.154,0.02 -0.281,0 -0.537,-0.189 -0.609,-0.475 -0.086,-0.336 0.119,-0.678 0.455,-0.764 l 3.111,-0.791 c 0.336,-0.084 0.68,0.117 0.764,0.455 0.086,0.337 -0.118,0.679 -0.454,0.764 z m 0.002,-1.748 -5.541,1.438 c -0.053,0.016 -0.105,0.021 -0.158,0.021 -0.279,0 -0.535,-0.188 -0.607,-0.471 -0.088,-0.336 0.113,-0.68 0.449,-0.768 l 5.541,-1.438 c 0.338,-0.09 0.68,0.115 0.768,0.449 0.086,0.34 -0.116,0.682 -0.452,0.769 z m 0,-1.793 -5.541,1.439 c -0.053,0.014 -0.105,0.02 -0.158,0.02 -0.279,0 -0.535,-0.188 -0.607,-0.471 -0.088,-0.336 0.113,-0.678 0.449,-0.766 l 5.541,-1.439 c 0.338,-0.088 0.68,0.115 0.768,0.451 0.086,0.337 -0.116,0.681 -0.452,0.766 z m 0,-1.791 -5.541,1.439 c -0.053,0.014 -0.105,0.02 -0.158,0.02 -0.279,0 -0.535,-0.188 -0.607,-0.471 -0.088,-0.336 0.113,-0.68 0.449,-0.766 l 5.541,-1.439 c 0.338,-0.09 0.68,0.115 0.768,0.451 0.086,0.337 -0.116,0.679 -0.452,0.766 z M 56.4,70.656 c -1.504,1.689 -2.266,2.699 -2.266,3.002 0,0.283 -0.189,0.533 -0.465,0.607 -4.842,1.311 -5.004,1.324 -5.109,1.324 -0.012,-0.002 -0.021,-0.002 -0.031,-0.002 -0.59,-0.027 -0.74,-0.58 -0.9,-1.168 -0.23,-0.844 -0.615,-2.256 -1.957,-3.764 -2.32,-2.609 -3.002,-6.316 -1.697,-9.223 1.168,-2.602 3.742,-4.092 7.062,-4.092 3.32,0 5.895,1.49 7.062,4.092 1.305,2.908 0.622,6.615 -1.699,9.224 z m 6.829,1.832 c -0.117,0.201 -0.328,0.314 -0.545,0.314 -0.107,0 -0.215,-0.027 -0.314,-0.086 l -2.223,-1.283 c -0.301,-0.174 -0.404,-0.559 -0.23,-0.859 0.174,-0.3 0.559,-0.404 0.859,-0.23 l 2.223,1.285 c 0.3,0.174 0.403,0.559 0.23,0.859 z m 1.236,-6.33 -2.568,0 c -0.348,0 -0.629,-0.281 -0.629,-0.629 0,-0.348 0.281,-0.629 0.629,-0.629 l 2.568,0 c 0.348,0 0.629,0.281 0.629,0.629 0,0.348 -0.282,0.629 -0.629,0.629 z"
           id="path5910" /></g></g><g
       id="g16523"
       transform="matrix(1.2437922,0,0,1.2437922,11.45212,12.350809)"
       style="fill:#ececec;"
       inkscape:export-xdpi="90"
       inkscape:export-ydpi="90"><g
         id="g16525"
         style="fill:#ececec" /><g
         id="g16527"
         style="fill:#ececec"><path
           id="path16529"
           d="m 79,77.17 0,0.01 c -0.05,-0.02 -0.1,-0.029 -0.15,-0.06 0.05,0.02 0.1,0.04 0.15,0.05 z"
           inkscape:connector-curvature="0"
           style="fill:#ececec" /><g
           id="g16531"
           style="fill:#ececec"><ellipse
             id="ellipse16533"
             ry="10.846"
             rx="9.9110003"
             cy="25.684999"
             cx="51.755001"
             style="fill:#ececec" /><path
             id="path16535"
             d="m 69.38,46 -36.43,0 c 3.93,-5.23 11.24,-8.42 18.22,-8.42 6.97,0 14.28,3.19 18.21,8.42 z"
             inkscape:connector-curvature="0"
             style="fill:#ececec" /><path
             id="path16537"
             d="m 81.53,75.04 c -0.61,0.79 -1.96,1.66 -3.53,1.13 -0.05,-0.01 -0.1,-0.03 -0.15,-0.05 -0.1,-0.03 -0.189,-0.08 -0.29,-0.13 -0.3,-0.141 -0.6,-0.34 -0.899,-0.601 -2.12,-1.8 -3.11,-4.26 -1.78,-7 0.311,-0.63 0.7,-1.08 1.11,-1.399 0.069,-0.05 0.13,-0.101 0.2,-0.141 0.06,-0.05 0.13,-0.09 0.189,-0.119 0.29,-0.181 0.58,-0.311 0.86,-0.41 0.069,-0.03 0.14,-0.061 0.2,-0.08 0.199,-0.07 0.38,-0.141 0.56,-0.2 0.59,-0.22 1.01,-0.44 1,-1.021 l 0,-4.38 c 0,0 3.24,2.801 3.86,6.95 0.63,4.151 -0.55,6.441 -1.33,7.451 z"
             inkscape:connector-curvature="0"
             style="fill:#ececec" /><path
             id="path16539"
             d="M 25.68,75.39 C 23.56,77.191 21.59,76.05 20.8,75.04 20.02,74.03 18.685,71.74 19.305,67.59 19.935,63.44 23,60.64 23,60.64 l 0,4.38 c 0,1.49 2.965,0.631 4.295,3.37 1.33,2.74 0.495,5.2 -1.615,7 z"
             inkscape:connector-curvature="0"
             style="fill:#ececec" /></g><path
           id="path16541"
           d="m 77.475,65.1 c 0.209,-0.08 0.48,-0.17 0.619,-0.25 l 0,-17.95 -54,0 0,17.95 c 0,0.08 0.541,0.17 0.75,0.25 0.99,0.34 2.611,0.871 3.52,2.75 1.422,2.91 0.602,5.9 -2.109,8.201 -0.629,0.539 -1.16,0.898 -2.16,1.068 l 0,8.781 54,0 0,-8.781 C 77.406,76.949 76.736,76.59 76.105,76.051 73.396,73.75 72.656,70.76 74.076,67.85 74.984,65.971 76.484,65.439 77.475,65.1 Z M 60.146,59.625 62.369,58.34 c 0.301,-0.174 0.686,-0.07 0.859,0.23 0.173,0.3 0.07,0.686 -0.23,0.859 l -2.223,1.283 c -0.1,0.059 -0.207,0.084 -0.314,0.084 -0.217,0 -0.428,-0.111 -0.545,-0.314 -0.174,-0.298 -0.07,-0.685 0.23,-0.857 z m -4.154,-3.695 1.283,-2.223 c 0.174,-0.301 0.561,-0.404 0.859,-0.23 0.301,0.174 0.404,0.559 0.23,0.859 l -1.285,2.223 c -0.115,0.201 -0.326,0.314 -0.545,0.314 -0.105,0 -0.215,-0.027 -0.312,-0.084 -0.3,-0.174 -0.404,-0.559 -0.23,-0.859 z m -5.445,-3.69 c 0,-0.348 0.281,-0.629 0.629,-0.629 0.348,0 0.629,0.281 0.629,0.629 l 0,2.568 c 0,0.346 -0.281,0.627 -0.629,0.627 -0.348,0 -0.629,-0.281 -0.629,-0.627 l 0,-2.568 z m -6.33,1.237 c 0.301,-0.174 0.686,-0.072 0.859,0.229 l 1.285,2.225 c 0.172,0.301 0.07,0.686 -0.23,0.859 -0.1,0.057 -0.207,0.084 -0.314,0.084 -0.217,0 -0.428,-0.113 -0.545,-0.314 l -1.283,-2.225 c -0.175,-0.302 -0.073,-0.687 0.228,-0.858 z m -6.959,12.052 c 0,-0.348 0.283,-0.629 0.629,-0.629 l 2.568,0 c 0.348,0 0.629,0.281 0.629,0.629 0,0.346 -0.281,0.627 -0.629,0.627 l -2.568,0 c -0.346,0 -0.629,-0.281 -0.629,-0.627 z m 4.949,5.905 -2.225,1.283 c -0.1,0.057 -0.207,0.084 -0.314,0.084 -0.217,0 -0.428,-0.113 -0.545,-0.314 -0.174,-0.301 -0.07,-0.686 0.23,-0.859 l 2.225,-1.283 c 0.299,-0.174 0.684,-0.07 0.857,0.23 0.173,0.3 0.073,0.685 -0.228,0.859 z m 0.229,-10.952 c -0.115,0.201 -0.326,0.314 -0.545,0.314 -0.105,0 -0.215,-0.027 -0.312,-0.084 l -2.225,-1.285 c -0.301,-0.172 -0.404,-0.557 -0.23,-0.857 0.174,-0.3 0.559,-0.404 0.859,-0.23 l 2.225,1.283 c 0.3,0.174 0.401,0.559 0.228,0.859 z m 11.71,20.873 -3.113,0.791 c -0.051,0.014 -0.104,0.02 -0.154,0.02 -0.281,0 -0.537,-0.189 -0.609,-0.475 -0.086,-0.336 0.119,-0.678 0.455,-0.764 l 3.111,-0.791 c 0.336,-0.084 0.68,0.117 0.764,0.455 0.086,0.337 -0.118,0.679 -0.454,0.764 z m 0.002,-1.748 -5.541,1.438 c -0.053,0.016 -0.105,0.021 -0.158,0.021 -0.279,0 -0.535,-0.188 -0.607,-0.471 -0.088,-0.336 0.113,-0.68 0.449,-0.768 l 5.541,-1.438 c 0.338,-0.09 0.68,0.115 0.768,0.449 0.086,0.34 -0.116,0.682 -0.452,0.769 z m 0,-1.793 -5.541,1.439 c -0.053,0.014 -0.105,0.02 -0.158,0.02 -0.279,0 -0.535,-0.188 -0.607,-0.471 -0.088,-0.336 0.113,-0.678 0.449,-0.766 l 5.541,-1.439 c 0.338,-0.088 0.68,0.115 0.768,0.451 0.086,0.337 -0.116,0.681 -0.452,0.766 z m 0,-1.791 -5.541,1.439 c -0.053,0.014 -0.105,0.02 -0.158,0.02 -0.279,0 -0.535,-0.188 -0.607,-0.471 -0.088,-0.336 0.113,-0.68 0.449,-0.766 l 5.541,-1.439 c 0.338,-0.09 0.68,0.115 0.768,0.451 0.086,0.337 -0.116,0.679 -0.452,0.766 z M 56.4,70.656 c -1.504,1.689 -2.266,2.699 -2.266,3.002 0,0.283 -0.189,0.533 -0.465,0.607 -4.842,1.311 -5.004,1.324 -5.109,1.324 -0.012,-0.002 -0.021,-0.002 -0.031,-0.002 -0.59,-0.027 -0.74,-0.58 -0.9,-1.168 -0.23,-0.844 -0.615,-2.256 -1.957,-3.764 -2.32,-2.609 -3.002,-6.316 -1.697,-9.223 1.168,-2.602 3.742,-4.092 7.062,-4.092 3.32,0 5.895,1.49 7.062,4.092 1.305,2.908 0.622,6.615 -1.699,9.224 z m 6.829,1.832 c -0.117,0.201 -0.328,0.314 -0.545,0.314 -0.107,0 -0.215,-0.027 -0.314,-0.086 l -2.223,-1.283 c -0.301,-0.174 -0.404,-0.559 -0.23,-0.859 0.174,-0.3 0.559,-0.404 0.859,-0.23 l 2.223,1.285 c 0.3,0.174 0.403,0.559 0.23,0.859 z m 1.236,-6.33 -2.568,0 c -0.348,0 -0.629,-0.281 -0.629,-0.629 0,-0.348 0.281,-0.629 0.629,-0.629 l 2.568,0 c 0.348,0 0.629,0.281 0.629,0.629 0,0.348 -0.282,0.629 -0.629,0.629 z"
           inkscape:connector-curvature="0"
           style="fill:#ececec" /></g></g></g></svg>