<?xml version="1.0" encoding="UTF-8" standalone="no"?>
<svg
   xmlns:dc="http://purl.org/dc/elements/1.1/"
   xmlns:cc="http://creativecommons.org/ns#"
   xmlns:rdf="http://www.w3.org/1999/02/22-rdf-syntax-ns#"
   xmlns:svg="http://www.w3.org/2000/svg"
   xmlns="http://www.w3.org/2000/svg"
   xmlns:sodipodi="http://sodipodi.sourceforge.net/DTD/sodipodi-0.dtd"
   xmlns:inkscape="http://www.inkscape.org/namespaces/inkscape"
   version="1.1"
   x="0px"
   y="0px"
   viewBox="0 0 150.00006 150"
   enable-background="new 0 0 100 100"
   xml:space="preserve"
   id="svg3555"
   inkscape:version="0.91 r13725"
   sodipodi:docname="Systems-category.svg"
   width="150.00006"
   height="150"><metadata
     id="metadata3593"><rdf:RDF><cc:Work
         rdf:about=""><dc:format>image/svg+xml</dc:format><dc:type
           rdf:resource="http://purl.org/dc/dcmitype/StillImage" /><dc:title></dc:title></cc:Work></rdf:RDF></metadata><defs
     id="defs3591" /><sodipodi:namedview
     pagecolor="#ffffff"
     bordercolor="#666666"
     borderopacity="1"
     objecttolerance="10"
     gridtolerance="10"
     guidetolerance="10"
     inkscape:pageopacity="0"
     inkscape:pageshadow="2"
     inkscape:window-width="1366"
     inkscape:window-height="704"
     id="namedview3589"
     showgrid="false"
     showborder="false"
     inkscape:zoom="2"
     inkscape:cx="62.022767"
     inkscape:cy="55.331595"
     inkscape:window-x="0"
     inkscape:window-y="27"
     inkscape:window-maximized="1"
     inkscape:current-layer="svg3555"
     showguides="true"
     inkscape:guide-bbox="true"
     fit-margin-top="0"
     fit-margin-left="0"
     fit-margin-right="0"
     fit-margin-bottom="0"><sodipodi:guide
       position="166.68157,91.523658"
       orientation="-0.70710678,0.70710678"
       id="guide6034" /><sodipodi:guide
       position="75.111242,86.927458"
       orientation="1,0"
       id="guide6036" /><sodipodi:guide
       position="-42.622037,74.906648"
       orientation="0,1"
       id="guide6038" /><sodipodi:guide
       position="130.26557,109.90843"
       orientation="0.70710678,0.70710678"
       id="guide6040"
       inkscape:label=""
       inkscape:color="rgb(0,0,255)" /><sodipodi:guide
       position="30.383494,29.035572"
       orientation="0.70710678,0.70710678"
       id="guide3901"
       inkscape:label=""
       inkscape:color="rgb(0,0,255)" /></sodipodi:namedview><g
     id="g3819"
     inkscape:export-xdpi="90"
     inkscape:export-ydpi="90"
     transform="translate(-124.99998,-75.000008)"><g
       inkscape:export-ydpi="90"
       inkscape:export-xdpi="90"
       transform="matrix(0.9999875,0,0,0.9999875,-26.98183,170.41642)"
       id="g3567"
       style="fill:#00a99d;fill-opacity:1" /><rect
       ry="0"
       rx="0"
       style="opacity:1;fill:#ffaaaa;fill-opacity:1;stroke:none;stroke-width:6.79094839;stroke-linecap:round;stroke-linejoin:round;stroke-miterlimit:4;stroke-dasharray:none;stroke-dashoffset:0;stroke-opacity:1"
       id="rect5453"
       width="150"
       height="150"
       x="124.99998"
       y="75.000008" /><path
       sodipodi:nodetypes="cccccccccccccc"
       inkscape:connector-curvature="0"
       id="path4445"
       d="m 245.25238,104.73713 29.74761,30.01419 0,73.07069 0.005,17.17551 -16.43805,-0.0709 -74.15907,0.0684 -29.76429,-29.79368 22.73496,-12.07574 22.27313,0.008 0.35134,-33.20892 32.87863,-0.33301 -0.001,-22.26132 12.37142,-22.59356 z"
       style="fill:#ff5555;fill-opacity:1;fill-rule:evenodd;stroke:none;stroke-width:1px;stroke-linecap:butt;stroke-linejoin:miter;stroke-opacity:1" /><g
       style="fill:#ffffff"
       transform="matrix(1.0314251,0,0,1.0314251,148.42614,98.453507)"
       id="g5952"><path
         style="fill:#ffffff"
         id="path5954"
         d="m 83.778,81.138 -3.973,0 0,-51.014 3.973,0 c 0,0 0,51.014 0,51.014 z"
         inkscape:connector-curvature="0" /><path
         style="fill:#ffffff"
         id="path5956"
         d="m 83.778,79.787 0,3.974 -53.319,0 0,-3.974 53.319,0 z"
         inkscape:connector-curvature="0" /><path
         style="fill:#ffffff"
         id="path5958"
         d="m 51.96,81.298 -3.973,0 0,-19.23 3.973,0 0,19.23 z"
         inkscape:connector-curvature="0" /><path
         style="fill:#ffffff"
         id="path5960"
         d="m 80.997,47.844 0,3.973 -18.435,0 0,-3.973 18.435,0 z"
         inkscape:connector-curvature="0" /><path
         style="fill:#ffffff"
         id="path5962"
         d="m 88.796,49.753 c 0,3.794 -3.075,6.869 -6.869,6.869 -3.794,0 -6.869,-3.075 -6.869,-6.869 0,-3.793 3.076,-6.868 6.869,-6.868 3.794,0 6.869,3.074 6.869,6.868 z"
         inkscape:connector-curvature="0" /><path
         style="fill:#ffffff"
         id="path5964"
         d="m 56.603,81.851 c 0,3.662 -2.968,6.63 -6.63,6.63 -3.662,0 -6.63,-2.968 -6.63,-6.63 0,-3.661 2.968,-6.63 6.63,-6.63 3.662,0 6.63,2.969 6.63,6.63 z"
         inkscape:connector-curvature="0" /><path
         style="fill:#ffffff"
         id="path5966"
         d="m 95.002,8.726 0,18.75 c 0,2.072 -1.679,3.75 -3.75,3.75 l -18.75,0 c -2.071,0 -3.75,-1.678 -3.75,-3.75 l 0,-18.75 c 0,-2.071 1.679,-3.75 3.75,-3.75 l 18.75,0 c 2.072,0 3.75,1.679 3.75,3.75 z"
         inkscape:connector-curvature="0" /><path
         style="fill:#ffffff"
         id="path5968"
         d="m 63.127,40.601 0,18.749 c 0,2.072 -1.679,3.75 -3.75,3.75 l -18.75,0 c -2.071,0 -3.75,-1.678 -3.75,-3.75 l 0,-18.749 c 0,-2.071 1.679,-3.75 3.75,-3.75 l 18.75,0 c 2.072,0 3.751,1.679 3.75,3.75 z"
         inkscape:connector-curvature="0" /><path
         style="fill:#ffffff"
         id="path5970"
         d="m 31.253,72.477 0,18.748 c 0,2.072 -1.679,3.751 -3.75,3.751 l -18.75,0 c -2.071,0 -3.75,-1.679 -3.75,-3.751 l 0,-18.749 c 0,-2.072 1.679,-3.75 3.75,-3.75 l 18.75,0 c 2.071,0 3.749,1.679 3.75,3.751 z"
         inkscape:connector-curvature="0" /></g></g></svg>