<?xml version="1.0" encoding="UTF-8" standalone="no"?>
<!-- Created with Inkscape (http://www.inkscape.org/) -->

<svg
   xmlns:dc="http://purl.org/dc/elements/1.1/"
   xmlns:cc="http://creativecommons.org/ns#"
   xmlns:rdf="http://www.w3.org/1999/02/22-rdf-syntax-ns#"
   xmlns:svg="http://www.w3.org/2000/svg"
   xmlns="http://www.w3.org/2000/svg"
   xmlns:sodipodi="http://sodipodi.sourceforge.net/DTD/sodipodi-0.dtd"
   xmlns:inkscape="http://www.inkscape.org/namespaces/inkscape"
   width="42.333332mm"
   height="42.334583mm"
   viewBox="0 0 149.99999 150.00443"
   id="svg4759"
   version="1.1"
   inkscape:version="0.91 r13725"
   sodipodi:docname="Transit.svg">
  <defs
     id="defs4761">
    <filter
       inkscape:collect="always"
       style="color-interpolation-filters:sRGB"
       id="filter10329"
       x="-0.06"
       width="1.12"
       y="-0.06"
       height="1.12">
      <feGaussianBlur
         inkscape:collect="always"
         stdDeviation="2.5"
         id="feGaussianBlur10331" />
    </filter>
  </defs>
  <sodipodi:namedview
     id="base"
     pagecolor="#ffffff"
     bordercolor="#666666"
     borderopacity="1.0"
     inkscape:pageopacity="0.0"
     inkscape:pageshadow="2"
     inkscape:zoom="1.8407344"
     inkscape:cx="132.84365"
     inkscape:cy="58.726672"
     inkscape:document-units="px"
     inkscape:current-layer="layer1"
     showgrid="false"
     fit-margin-top="0"
     fit-margin-left="0"
     fit-margin-right="0"
     fit-margin-bottom="0"
     inkscape:window-width="1366"
     inkscape:window-height="713"
     inkscape:window-x="0"
     inkscape:window-y="27"
     inkscape:window-maximized="1"
     showborder="false" />
  <metadata
     id="metadata4764">
    <rdf:RDF>
      <cc:Work
         rdf:about="">
        <dc:format>image/svg+xml</dc:format>
        <dc:type
           rdf:resource="http://purl.org/dc/dcmitype/StillImage" />
        <dc:title />
      </cc:Work>
    </rdf:RDF>
  </metadata>
  <g
     inkscape:label="Layer 1"
     inkscape:groupmode="layer"
     id="layer1"
     transform="translate(-259.28568,-948.79077)">
    <g
       id="g10333"
       inkscape:export-xdpi="90"
       inkscape:export-ydpi="90">
      <rect
         ry="0"
         rx="0"
         style="opacity:1;fill:#333333;fill-opacity:1;stroke:none;stroke-width:6.79094839;stroke-linecap:round;stroke-linejoin:round;stroke-miterlimit:4;stroke-dasharray:none;stroke-dashoffset:0;stroke-opacity:1"
         id="rect5453"
         width="150"
         height="150"
         x="259.28568"
         y="948.79077" />
      <g
         style="filter:url(#filter10329)"
         id="g10309"
         transform="translate(-160,-19.999999)">
        <path
           id="path10311"
           d="m 461.52709,993.79077 c -10.34493,0 -17.24141,8.96543 -17.24141,18.79313 0,5.8621 1.55176,9.1379 4.13789,14.6551 5.17246,11.3793 13.10352,23.6207 13.10352,23.6207 0,0 7.93105,-12.2414 13.10351,-23.6207 2.58613,-5.6896 4.13789,-8.7932 4.13789,-14.6551 0,-9.8277 -6.89668,-18.79313 -17.2414,-18.79313"
           style="fill:#999999"
           inkscape:connector-curvature="0" />
        <path
           id="path10313"
           d="m 470.14779,1011.0322 c 0,-4.8276 -3.79316,-8.6207 -8.6207,-8.6207 -4.82754,0 -8.62071,3.7931 -8.62071,8.6207 0,4.8275 3.79317,8.6207 8.62071,8.6207 4.82754,0 8.6207,-3.7932 8.6207,-8.6207"
           style="fill:#666666"
           inkscape:connector-curvature="0" />
        <path
           id="path10315"
           d="m 527.04427,1028.2736 c -10.34492,0 -17.2414,8.9654 -17.2414,18.7931 0,5.8622 1.55176,9.1379 4.13789,14.6553 5.17246,11.3793 13.10351,23.6207 13.10351,23.6207 0,0 7.93106,-12.2414 13.10352,-23.6207 2.58613,-5.6898 4.13789,-8.7933 4.13789,-14.6554 0,-9.8276 -6.89648,-18.793 -17.24141,-18.793"
           style="fill:#999999"
           inkscape:connector-curvature="0" />
        <path
           id="path10317"
           d="m 535.66498,1045.515 c 0,-4.8276 -3.79317,-8.6207 -8.62071,-8.6207 -4.82754,0 -8.6207,3.7931 -8.6207,8.6207 0,4.8275 3.79316,8.6207 8.6207,8.6207 4.82754,0 8.62071,-3.7932 8.62071,-8.6207"
           style="fill:#666666"
           inkscape:connector-curvature="0" />
        <g
           style="fill:#e6e6e6"
           transform="matrix(0.1953125,0,0,0.1953125,444.28568,993.79077)"
           id="g10319">
          <path
             id="path10321"
             d="m 423.724,512 -8.828,0 c -5.297,0 -8.828,-3.531 -8.828,-8.828 0,-5.297 3.531,-8.828 8.828,-8.828 l 8.828,0 c 5.297,0 8.828,3.531 8.828,8.828 0,5.297 -3.531,8.828 -8.828,8.828"
             style="fill:#e6e6e6"
             inkscape:connector-curvature="0" />
          <path
             id="path10323"
             d="m 330.152,512 -16.772,0 c -5.297,0 -8.828,-3.531 -8.828,-8.828 0,-5.297 3.531,-8.828 8.828,-8.828 l 16.772,0 c 5.297,0 8.828,3.531 8.828,8.828 0,5.297 -3.532,8.828 -8.828,8.828 m 51.2,0 -16.772,0 c -5.297,0 -8.828,-3.531 -8.828,-8.828 0,-5.297 3.531,-8.828 8.828,-8.828 l 16.772,0 c 5.297,0 8.828,3.531 8.828,8.828 0,5.297 -4.414,8.828 -8.828,8.828"
             style="fill:#e6e6e6"
             inkscape:connector-curvature="0" />
          <path
             id="path10325"
             d="m 148.303,335.448 -16.772,0 c -5.297,0 -8.828,-3.531 -8.828,-8.828 0,-5.297 3.531,-8.828 8.828,-8.828 l 16.772,0 c 5.297,0 8.828,3.531 8.828,8.828 0,5.297 -4.414,8.828 -8.828,8.828 m 50.318,0 -16.772,0 c -5.297,0 -8.828,-3.531 -8.828,-8.828 0,-5.297 3.531,-8.828 8.828,-8.828 l 16.772,0 c 5.297,0 8.828,3.531 8.828,8.828 0,5.297 -3.532,8.828 -8.828,8.828 m 42.372,22.069 c -2.648,0 -6.179,-1.766 -7.945,-4.414 -2.648,-3.531 -5.297,-7.062 -8.828,-10.593 -3.531,-2.648 -4.414,-8.828 -1.766,-12.359 2.648,-3.531 8.828,-4.414 12.359,-1.766 5.297,4.414 9.71,9.71 13.241,15.007 2.648,4.414 0.883,9.71 -3.531,12.359 0.001,1.766 -1.764,1.766 -3.53,1.766 m -2.648,47.669 c -1.766,0 -3.531,-0.883 -5.297,-1.766 -3.531,-2.648 -4.414,-8.828 -1.766,-12.359 2.648,-3.531 4.414,-7.945 5.297,-12.359 0.883,-4.414 6.179,-7.945 10.593,-6.179 4.414,0.883 7.945,6.179 6.179,10.593 -1.766,6.179 -4.414,12.359 -8.828,18.538 0.001,2.649 -3.53,3.532 -6.178,3.532 m -128.883,18.538 -16.772,0 c -5.297,0 -8.828,-3.531 -8.828,-8.828 0,-5.297 3.531,-8.828 8.828,-8.828 l 16.772,0 c 5.297,0 8.828,3.531 8.828,8.828 0,5.297 -3.531,8.828 -8.828,8.828 m 50.317,0 -16.772,0 c -5.297,0 -8.828,-3.531 -8.828,-8.828 0,-5.297 3.531,-8.828 8.828,-8.828 l 16.772,0 c 5.297,0 8.828,3.531 8.828,8.828 0,5.297 -3.531,8.828 -8.828,8.828 m 43.255,0 -8.828,0 c -5.297,0 -8.828,-3.531 -8.828,-8.828 0,-5.297 3.531,-8.828 8.828,-8.828 l 8.828,0 c 1.766,0 4.414,0 6.179,-0.883 5.297,-0.883 9.71,2.648 10.593,7.062 0.883,4.414 -2.648,9.71 -7.062,10.593 -3.53,0.884 -7.061,0.884 -9.71,0.884 M 42.372,425.49 c -3.531,0 -7.945,-2.648 -8.828,-7.062 -0.883,-4.414 1.766,-9.71 6.179,-10.593 4.414,-0.883 8.828,-1.766 13.241,-1.766 l 6.179,0 c 5.297,0 8.828,3.531 8.828,8.828 0,5.297 -3.531,8.828 -8.828,8.828 l -6.179,0 c -2.648,0 -6.179,0 -8.828,0.883 -0.881,-10e-4 -1.764,0.882 -1.764,0.882 M 9.71,459.917 c -0.883,0 -0.883,0 -1.766,0 -4.414,-0.883 -7.945,-5.297 -7.062,-9.71 0.883,-7.062 3.531,-13.241 7.062,-18.538 2.648,-4.414 7.945,-5.297 12.359,-2.648 4.414,2.648 5.297,7.945 2.648,12.359 -2.648,3.531 -4.414,7.945 -4.414,12.359 -0.882,3.53 -4.413,6.178 -8.827,6.178 m 18.538,44.138 c -1.766,0 -3.531,-0.883 -5.297,-1.766 -5.297,-3.531 -10.593,-7.945 -14.124,-14.124 -2.648,-4.414 -1.766,-9.71 2.648,-12.359 4.414,-2.649 9.71,-1.766 12.359,2.648 2.649,4.414 5.297,7.062 8.828,9.71 4.414,2.648 5.297,7.945 2.648,12.359 -1.765,2.649 -4.413,3.532 -7.062,3.532 M 76.8,512 60.028,512 c -5.297,0 -8.828,-3.531 -8.828,-8.828 0,-5.297 3.531,-8.828 8.828,-8.828 l 16.772,0 c 5.297,0 8.828,3.531 8.828,8.828 0,5.297 -3.531,8.828 -8.828,8.828 m 51.2,0 -16.772,0 c -5.297,0 -8.828,-3.531 -8.828,-8.828 0,-5.297 3.531,-8.828 8.828,-8.828 l 16.772,0 c 5.297,0 8.828,3.531 8.828,8.828 0,5.297 -4.414,8.828 -8.828,8.828 m 50.317,0 -16.772,0 c -5.297,0 -8.828,-3.531 -8.828,-8.828 0,-5.297 3.531,-8.828 8.828,-8.828 l 16.772,0 c 5.297,0 8.828,3.531 8.828,8.828 0,5.297 -3.531,8.828 -8.828,8.828 m 51.2,0 -17.655,0 c -5.297,0 -8.828,-3.531 -8.828,-8.828 0,-5.297 3.531,-8.828 8.828,-8.828 l 17.655,0 c 5.297,0 8.828,3.531 8.828,8.828 0,5.297 -4.414,8.828 -8.828,8.828 m 50.318,0 -16.772,0 c -5.297,0 -8.828,-3.531 -8.828,-8.828 0,-5.297 3.531,-8.828 8.828,-8.828 l 16.772,0 c 5.297,0 8.828,3.531 8.828,8.828 0,5.297 -3.532,8.828 -8.828,8.828"
             style="fill:#e6e6e6"
             inkscape:connector-curvature="0" />
          <path
             id="path10327"
             d="m 97.103,335.448 -8.828,0 c -5.297,0 -8.828,-3.531 -8.828,-8.828 0,-5.297 3.531,-8.828 8.828,-8.828 l 8.828,0 c 5.297,0 8.828,3.531 8.828,8.828 0,5.297 -3.531,8.828 -8.828,8.828"
             style="fill:#e6e6e6"
             inkscape:connector-curvature="0" />
        </g>
      </g>
      <g
         transform="translate(-160,-19.999999)"
         id="g10298">
        <path
           inkscape:connector-curvature="0"
           style="fill:#999999"
           d="m 461.52709,993.79077 c -10.34493,0 -17.24141,8.96543 -17.24141,18.79313 0,5.8621 1.55176,9.1379 4.13789,14.6551 5.17246,11.3793 13.10352,23.6207 13.10352,23.6207 0,0 7.93105,-12.2414 13.10351,-23.6207 2.58613,-5.6896 4.13789,-8.7932 4.13789,-14.6551 0,-9.8277 -6.89668,-18.79313 -17.2414,-18.79313"
           id="path20377" />
        <path
           inkscape:connector-curvature="0"
           style="fill:#666666"
           d="m 470.14779,1011.0322 c 0,-4.8276 -3.79316,-8.6207 -8.6207,-8.6207 -4.82754,0 -8.62071,3.7931 -8.62071,8.6207 0,4.8275 3.79317,8.6207 8.62071,8.6207 4.82754,0 8.6207,-3.7932 8.6207,-8.6207"
           id="path20379" />
        <path
           inkscape:connector-curvature="0"
           style="fill:#999999"
           d="m 527.04427,1028.2736 c -10.34492,0 -17.2414,8.9654 -17.2414,18.7931 0,5.8622 1.55176,9.1379 4.13789,14.6553 5.17246,11.3793 13.10351,23.6207 13.10351,23.6207 0,0 7.93106,-12.2414 13.10352,-23.6207 2.58613,-5.6898 4.13789,-8.7933 4.13789,-14.6554 0,-9.8276 -6.89648,-18.793 -17.24141,-18.793"
           id="path20381" />
        <path
           inkscape:connector-curvature="0"
           style="fill:#666666"
           d="m 535.66498,1045.515 c 0,-4.8276 -3.79317,-8.6207 -8.62071,-8.6207 -4.82754,0 -8.6207,3.7931 -8.6207,8.6207 0,4.8275 3.79316,8.6207 8.6207,8.6207 4.82754,0 8.62071,-3.7932 8.62071,-8.6207"
           id="path20383" />
        <g
           id="g20385"
           transform="matrix(0.1953125,0,0,0.1953125,444.28568,993.79077)"
           style="fill:#e6e6e6">
          <path
             inkscape:connector-curvature="0"
             style="fill:#e6e6e6"
             d="m 423.724,512 -8.828,0 c -5.297,0 -8.828,-3.531 -8.828,-8.828 0,-5.297 3.531,-8.828 8.828,-8.828 l 8.828,0 c 5.297,0 8.828,3.531 8.828,8.828 0,5.297 -3.531,8.828 -8.828,8.828"
             id="path20387" />
          <path
             inkscape:connector-curvature="0"
             style="fill:#e6e6e6"
             d="m 330.152,512 -16.772,0 c -5.297,0 -8.828,-3.531 -8.828,-8.828 0,-5.297 3.531,-8.828 8.828,-8.828 l 16.772,0 c 5.297,0 8.828,3.531 8.828,8.828 0,5.297 -3.532,8.828 -8.828,8.828 m 51.2,0 -16.772,0 c -5.297,0 -8.828,-3.531 -8.828,-8.828 0,-5.297 3.531,-8.828 8.828,-8.828 l 16.772,0 c 5.297,0 8.828,3.531 8.828,8.828 0,5.297 -4.414,8.828 -8.828,8.828"
             id="path20389" />
          <path
             inkscape:connector-curvature="0"
             style="fill:#e6e6e6"
             d="m 148.303,335.448 -16.772,0 c -5.297,0 -8.828,-3.531 -8.828,-8.828 0,-5.297 3.531,-8.828 8.828,-8.828 l 16.772,0 c 5.297,0 8.828,3.531 8.828,8.828 0,5.297 -4.414,8.828 -8.828,8.828 m 50.318,0 -16.772,0 c -5.297,0 -8.828,-3.531 -8.828,-8.828 0,-5.297 3.531,-8.828 8.828,-8.828 l 16.772,0 c 5.297,0 8.828,3.531 8.828,8.828 0,5.297 -3.532,8.828 -8.828,8.828 m 42.372,22.069 c -2.648,0 -6.179,-1.766 -7.945,-4.414 -2.648,-3.531 -5.297,-7.062 -8.828,-10.593 -3.531,-2.648 -4.414,-8.828 -1.766,-12.359 2.648,-3.531 8.828,-4.414 12.359,-1.766 5.297,4.414 9.71,9.71 13.241,15.007 2.648,4.414 0.883,9.71 -3.531,12.359 0.001,1.766 -1.764,1.766 -3.53,1.766 m -2.648,47.669 c -1.766,0 -3.531,-0.883 -5.297,-1.766 -3.531,-2.648 -4.414,-8.828 -1.766,-12.359 2.648,-3.531 4.414,-7.945 5.297,-12.359 0.883,-4.414 6.179,-7.945 10.593,-6.179 4.414,0.883 7.945,6.179 6.179,10.593 -1.766,6.179 -4.414,12.359 -8.828,18.538 0.001,2.649 -3.53,3.532 -6.178,3.532 m -128.883,18.538 -16.772,0 c -5.297,0 -8.828,-3.531 -8.828,-8.828 0,-5.297 3.531,-8.828 8.828,-8.828 l 16.772,0 c 5.297,0 8.828,3.531 8.828,8.828 0,5.297 -3.531,8.828 -8.828,8.828 m 50.317,0 -16.772,0 c -5.297,0 -8.828,-3.531 -8.828,-8.828 0,-5.297 3.531,-8.828 8.828,-8.828 l 16.772,0 c 5.297,0 8.828,3.531 8.828,8.828 0,5.297 -3.531,8.828 -8.828,8.828 m 43.255,0 -8.828,0 c -5.297,0 -8.828,-3.531 -8.828,-8.828 0,-5.297 3.531,-8.828 8.828,-8.828 l 8.828,0 c 1.766,0 4.414,0 6.179,-0.883 5.297,-0.883 9.71,2.648 10.593,7.062 0.883,4.414 -2.648,9.71 -7.062,10.593 -3.53,0.884 -7.061,0.884 -9.71,0.884 M 42.372,425.49 c -3.531,0 -7.945,-2.648 -8.828,-7.062 -0.883,-4.414 1.766,-9.71 6.179,-10.593 4.414,-0.883 8.828,-1.766 13.241,-1.766 l 6.179,0 c 5.297,0 8.828,3.531 8.828,8.828 0,5.297 -3.531,8.828 -8.828,8.828 l -6.179,0 c -2.648,0 -6.179,0 -8.828,0.883 -0.881,-10e-4 -1.764,0.882 -1.764,0.882 M 9.71,459.917 c -0.883,0 -0.883,0 -1.766,0 -4.414,-0.883 -7.945,-5.297 -7.062,-9.71 0.883,-7.062 3.531,-13.241 7.062,-18.538 2.648,-4.414 7.945,-5.297 12.359,-2.648 4.414,2.648 5.297,7.945 2.648,12.359 -2.648,3.531 -4.414,7.945 -4.414,12.359 -0.882,3.53 -4.413,6.178 -8.827,6.178 m 18.538,44.138 c -1.766,0 -3.531,-0.883 -5.297,-1.766 -5.297,-3.531 -10.593,-7.945 -14.124,-14.124 -2.648,-4.414 -1.766,-9.71 2.648,-12.359 4.414,-2.649 9.71,-1.766 12.359,2.648 2.649,4.414 5.297,7.062 8.828,9.71 4.414,2.648 5.297,7.945 2.648,12.359 -1.765,2.649 -4.413,3.532 -7.062,3.532 M 76.8,512 60.028,512 c -5.297,0 -8.828,-3.531 -8.828,-8.828 0,-5.297 3.531,-8.828 8.828,-8.828 l 16.772,0 c 5.297,0 8.828,3.531 8.828,8.828 0,5.297 -3.531,8.828 -8.828,8.828 m 51.2,0 -16.772,0 c -5.297,0 -8.828,-3.531 -8.828,-8.828 0,-5.297 3.531,-8.828 8.828,-8.828 l 16.772,0 c 5.297,0 8.828,3.531 8.828,8.828 0,5.297 -4.414,8.828 -8.828,8.828 m 50.317,0 -16.772,0 c -5.297,0 -8.828,-3.531 -8.828,-8.828 0,-5.297 3.531,-8.828 8.828,-8.828 l 16.772,0 c 5.297,0 8.828,3.531 8.828,8.828 0,5.297 -3.531,8.828 -8.828,8.828 m 51.2,0 -17.655,0 c -5.297,0 -8.828,-3.531 -8.828,-8.828 0,-5.297 3.531,-8.828 8.828,-8.828 l 17.655,0 c 5.297,0 8.828,3.531 8.828,8.828 0,5.297 -4.414,8.828 -8.828,8.828 m 50.318,0 -16.772,0 c -5.297,0 -8.828,-3.531 -8.828,-8.828 0,-5.297 3.531,-8.828 8.828,-8.828 l 16.772,0 c 5.297,0 8.828,3.531 8.828,8.828 0,5.297 -3.532,8.828 -8.828,8.828"
             id="path20391" />
          <path
             inkscape:connector-curvature="0"
             style="fill:#e6e6e6"
             d="m 97.103,335.448 -8.828,0 c -5.297,0 -8.828,-3.531 -8.828,-8.828 0,-5.297 3.531,-8.828 8.828,-8.828 l 8.828,0 c 5.297,0 8.828,3.531 8.828,8.828 0,5.297 -3.531,8.828 -8.828,8.828"
             id="path20393" />
        </g>
      </g>
    </g>
    <g
       id="g20395"
       transform="matrix(0.1953125,0,0,0.1953125,444.28568,993.79077)" />
    <g
       id="g20397"
       transform="matrix(0.1953125,0,0,0.1953125,444.28568,993.79077)" />
    <g
       id="g20399"
       transform="matrix(0.1953125,0,0,0.1953125,444.28568,993.79077)" />
    <g
       id="g20401"
       transform="matrix(0.1953125,0,0,0.1953125,444.28568,993.79077)" />
    <g
       id="g20403"
       transform="matrix(0.1953125,0,0,0.1953125,444.28568,993.79077)" />
    <g
       id="g20405"
       transform="matrix(0.1953125,0,0,0.1953125,444.28568,993.79077)" />
    <g
       id="g20407"
       transform="matrix(0.1953125,0,0,0.1953125,444.28568,993.79077)" />
    <g
       id="g20409"
       transform="matrix(0.1953125,0,0,0.1953125,444.28568,993.79077)" />
    <g
       id="g20411"
       transform="matrix(0.1953125,0,0,0.1953125,444.28568,993.79077)" />
    <g
       id="g20413"
       transform="matrix(0.1953125,0,0,0.1953125,444.28568,993.79077)" />
    <g
       id="g20415"
       transform="matrix(0.1953125,0,0,0.1953125,444.28568,993.79077)" />
    <g
       id="g20417"
       transform="matrix(0.1953125,0,0,0.1953125,444.28568,993.79077)" />
    <g
       id="g20419"
       transform="matrix(0.1953125,0,0,0.1953125,444.28568,993.79077)" />
    <g
       id="g20421"
       transform="matrix(0.1953125,0,0,0.1953125,444.28568,993.79077)" />
    <g
       id="g20423"
       transform="matrix(0.1953125,0,0,0.1953125,444.28568,993.79077)" />
  </g>
</svg>
