<?xml version="1.0" encoding="UTF-8" standalone="no"?>
<!-- Created with Inkscape (http://www.inkscape.org/) -->

<svg
   xmlns:dc="http://purl.org/dc/elements/1.1/"
   xmlns:cc="http://creativecommons.org/ns#"
   xmlns:rdf="http://www.w3.org/1999/02/22-rdf-syntax-ns#"
   xmlns:svg="http://www.w3.org/2000/svg"
   xmlns="http://www.w3.org/2000/svg"
   xmlns:sodipodi="http://sodipodi.sourceforge.net/DTD/sodipodi-0.dtd"
   xmlns:inkscape="http://www.inkscape.org/namespaces/inkscape"
   version="1.1"
   id="svg46904"
   width="162.7117"
   height="149.99995"
   viewBox="0 0 162.7117 149.99996"
   sodipodi:docname="exercise.svg"
   inkscape:version="0.92.1 r">
  <metadata
     id="metadata46910">
    <rdf:RDF>
      <cc:Work
         rdf:about="">
        <dc:format>image/svg+xml</dc:format>
        <dc:type
           rdf:resource="http://purl.org/dc/dcmitype/StillImage" />
        <dc:title />
      </cc:Work>
    </rdf:RDF>
  </metadata>
  <defs
     id="defs46908" />
  <sodipodi:namedview
     pagecolor="#ffffff"
     bordercolor="#666666"
     borderopacity="1"
     objecttolerance="10"
     gridtolerance="10"
     guidetolerance="10"
     inkscape:pageopacity="0"
     inkscape:pageshadow="2"
     inkscape:window-width="1366"
     inkscape:window-height="708"
     id="namedview46906"
     showgrid="false"
     fit-margin-top="0"
     fit-margin-left="0"
     fit-margin-right="0"
     fit-margin-bottom="0"
     inkscape:zoom="1.164"
     inkscape:cx="187.00951"
     inkscape:cy="126.79675"
     inkscape:window-x="0"
     inkscape:window-y="23"
     inkscape:window-maximized="1"
     inkscape:current-layer="svg46904" />
  <path
     style="fill:#000000;stroke-width:0.94284636"
     d="m 138.3376,149.60707 c -0.47938,-0.47938 -28.94365,-1.42048 -54.424273,-1.7994 -14.779117,-0.21977 -32.598914,-0.78625 -39.599549,-1.25885 -7.000634,-0.47259 -15.06197,-0.70354 -17.91408,-0.51321 -12.285571,0.81984 -19.5597155,1.4414 -22.8640242,1.95369 C 1.4594319,148.3112 0,148.15173 0,147.60295 c 0,-1.07721 8.1026707,-2.76032 16.894864,-3.50945 3.328672,-0.28362 6.227226,-0.69077 6.441243,-0.90477 0.214007,-0.21402 0.773313,-6.47117 1.242898,-13.90479 0.469585,-7.43363 1.258436,-16.06136 1.752996,-19.17275 0.49457,-3.11139 1.172656,-10.96059 1.506857,-17.44266 C 28.17306,86.186465 28.61186,79.831464 28.813969,78.546307 29.62311,73.401025 29.293114,26.396467 28.370322,15.355133 27.828572,8.8730645 27.375704,3.2929975 27.363937,2.9549965 c -0.05318,-1.5266 13.117614,-2.00876198 80.352993,-2.94157658 6.2815,-0.087119 9.56348,0.2480912 10.37131,1.05938258 1.35333,1.359113 1.20784,22.7035415 -0.24195,35.4963735 -0.7163,6.320597 -0.49884,102.746774 0.23957,106.232994 0.13275,0.62672 -0.50113,1.30187 -1.40862,1.50033 -1.53509,0.33572 -1.66562,-1.40028 -1.87448,-24.92943 -0.12346,-13.90964 -0.21745,-36.85192 -0.20884,-50.98283 0.0123,-20.239027 -0.24023,-25.692563 -1.18978,-25.692563 -0.66299,0 -1.20542,-0.364193 -1.20542,-0.80933 0,-0.445127 -4.75362,-1.034632 -10.56359,-1.310019 -12.134778,-0.575164 -12.578048,-0.40846 -18.072693,6.796593 -1.992828,2.613165 -4.21803,4.75122 -4.944899,4.75122 -0.726859,0 -2.67394,-2.197888 -4.326844,-4.884209 l -3.005285,-4.884198 -0.801118,2.762794 c -0.440611,1.519548 -1.055969,6.912129 -1.367448,11.983521 -0.52971,8.624234 -0.393846,9.649212 2.100162,15.844467 l 2.666511,6.623731 -2.43904,4.898162 c -4.468026,8.972821 -6.326942,14.295581 -6.120807,17.526111 0.119477,1.87247 -0.284665,3.37153 -0.974406,3.61426 -0.710764,0.25012 -1.178558,-0.40637 -1.178558,-1.65397 v -2.06872 l -1.804532,2.22586 c -2.57481,3.17598 -3.500223,1.48604 -1.552048,-2.83425 1.387606,-3.07715 1.495279,-4.47768 0.67126,-8.73095 -2.435288,-12.569957 -2.360284,-14.013323 1.0962,-21.094853 3.483018,-7.135895 4.064339,-9.270509 4.878383,-17.913487 0.293056,-3.111393 0.694124,-6.293499 0.891263,-7.071348 1.888097,-7.449674 2.010469,-7.378413 -3.5841,-2.087301 -2.858776,2.703706 -5.775056,4.91584 -6.480607,4.91584 -0.70556,0 -2.210428,-1.909263 -3.344154,-4.242808 -1.133725,-2.333545 -2.563769,-4.242809 -3.177882,-4.242809 -0.614114,0 -1.786402,-0.579284 -2.605085,-1.287296 -3.022529,-2.613938 -13.998251,-2.547769 -12.331242,0.07439 0.259283,0.407837 -0.398069,0.865938 -1.46078,1.01801 -1.875727,0.268419 -1.965533,1.177784 -3.072698,31.113929 -0.627286,16.960552 -1.301779,31.898103 -1.498881,33.194513 -1.647105,10.83361 -2.408246,18.05778 -2.893548,27.46324 l -0.565699,10.96343 10.638598,0.61584 c 17.937199,1.03834 32.345882,1.55117 54.480945,1.93905 62.126772,1.08868 79.022352,2.0066 68.211062,3.70584 -3.30478,0.51943 -20.80908,0.51462 -21.32956,-0.006 z M 66.707126,88.211727 c 3.271601,-7.666708 3.503277,-9.932415 1.566426,-15.318632 -1.676541,-4.66229 -3.217152,-6.202816 -3.217152,-3.216954 0,0.83688 -0.918928,3.156621 -2.042075,5.154975 -1.951315,3.471899 -1.988529,3.99319 -0.837483,11.730017 0.662519,4.453167 1.43026,7.870987 1.70608,7.595167 0.27582,-0.27583 1.546713,-2.95088 2.824204,-5.944573 z M 81.932143,45.178193 c 1.593071,-2.006396 2.665502,-4.02173 2.383195,-4.478521 -0.565604,-0.915164 -10.773321,-1.169921 -10.773321,-0.268871 0,1.25985 4.765438,9.132561 5.238294,8.653877 0.140437,-0.142181 1.558761,-1.900099 3.151832,-3.906485 z M 61.168835,38.83459 c -2.244813,-0.309725 -4.819472,-0.370142 -5.721446,-0.13427 -1.531447,0.400483 -1.515616,0.672617 0.239323,4.112573 l 1.87929,3.68371 3.842165,-3.549439 3.842167,-3.549449 z M 115.9701,38.399222 c 0,-0.228678 -0.42428,-0.415777 -0.94285,-0.415777 -0.51856,0 -0.94284,0.449323 -0.94284,0.998493 0,0.549171 0.42428,0.736269 0.94284,0.415777 0.51857,-0.320493 0.94285,-0.769815 0.94285,-0.998493 z M 34.15047,36.333464 c 0.52855,-2.037906 -0.07562,-4.007097 -1.229415,-4.007097 -0.475355,0 -0.864279,1.272843 -0.864279,2.828539 0,3.065505 1.399919,3.853526 2.093694,1.178558 z m 77.57682,-0.235711 c 0.32049,-0.518566 1.33977,-0.942847 2.26506,-0.942847 1.51966,0 1.73973,-1.457706 2.27583,-15.075227 0.32642,-8.291381 0.35824,-15.6883125 0.0707,-16.4376205 -0.44794,-1.167329 -6.08043,-1.299742 -39.338202,-0.924829 -21.348476,0.240662 -40.627609,0.664302 -42.842534,0.941432 l -4.027124,0.503867 0.493807,5.832013 c 0.391074,4.6186655 1.014314,13.4717005 1.389604,19.7389985 0.02329,0.388924 1.103046,0.707135 2.39946,0.707135 1.547474,0 2.357115,0.5264 2.357115,1.532502 0,1.327924 1.073016,1.476186 8.037982,1.110616 5.934888,-0.311497 8.308664,-0.09575 9.072492,0.824614 0.676172,0.81477 3.305469,1.246499 7.591299,1.246499 h 6.55682 l -2.883847,-2.426603 c -1.586124,-1.334628 -3.371752,-4.055051 -3.968074,-6.04539 -0.942912,-3.147174 -0.821172,-4.162157 0.934163,-7.788193 3.205019,-6.620677 5.872388,-8.594695 11.442102,-8.467826 7.547523,0.171919 13.187903,5.787229 13.187903,13.129286 0,2.984618 -4.791809,8.299839 -9.899887,10.981266 l -2.828539,1.484803 5.483349,0.03771 c 3.015845,0.02074 6.331138,-0.415974 7.367326,-0.970519 1.215961,-0.650762 2.280501,-0.686741 3.002268,-0.101459 1.782913,1.445751 4.347182,1.826595 13.083937,1.943206 4.57113,0.061 8.45191,-0.307509 8.77697,-0.833476 z M 77.115254,31.483849 c 5.412843,-2.762606 9.309024,-8.448365 6.836428,-9.976512 -0.539667,-0.333532 -0.981201,-1.399146 -0.981201,-2.368034 0,-3.919365 -9.023059,-7.90521 -13.035002,-5.758085 -2.803101,1.500172 -5.565247,5.775396 -6.31563,9.775271 -0.59041,3.147145 -0.326413,3.8241 2.653285,6.803796 3.763691,3.763692 5.872396,4.060009 10.84212,1.523564 z M 83.913327,66.2455 c 0,-0.531397 0.954632,-1.375679 2.121404,-1.876179 1.166773,-0.500501 3.076036,-1.602452 4.242809,-2.448779 1.882213,-1.365289 2.121404,-1.374076 2.121404,-0.07797 0,0.803456 -1.117923,2.340192 -2.484268,3.414961 -2.621226,2.061883 -6.001349,2.618322 -6.001349,0.987971 z m -2.201971,-3.43576 c -0.515077,-0.515077 6.201893,-5.026521 7.483862,-5.026521 1.43983,0 -0.147225,2.231934 -2.689064,3.781719 -3.360474,2.048927 -3.860786,2.178814 -4.794798,1.244802 z M 45.811858,59.596567 c -1.34251,-1.595475 -2.440926,-3.292599 -2.440926,-3.771386 0,-1.657571 1.848837,-0.860404 3.362577,1.449853 0.836191,1.27619 2.387013,2.595411 3.446273,2.931611 1.523074,0.483407 1.653347,0.783901 0.622788,1.436596 -1.969503,1.247367 -2.350394,1.091166 -4.990712,-2.046674 z m 3.373947,-3.643753 c -3.340976,-4.157405 -3.557095,-4.76952 -1.683971,-4.76952 1.395102,0 6.240408,5.80767 6.240408,7.479864 0,1.92682 -1.589931,0.98106 -4.556437,-2.710344 z M 125.39856,30.799748 c -103.117326,90.493712 -51.55866,45.246857 0,0 z"
     id="path46918"
     inkscape:connector-curvature="0"
     sodipodi:nodetypes="csscssscscscscccsccscsssssccccccsscscccsscccssssccssscsssccscscscsccscccssccccssssscssccsscsccscssccscccsssccscccccssssssssscscssscscsscsccssccc"
     inkscape:export-xdpi="96"
     inkscape:export-ydpi="96" />
</svg>
