<?xml version="1.0" encoding="UTF-8" standalone="no"?>
<!-- Created with Inkscape (http://www.inkscape.org/) -->

<svg
   xmlns:dc="http://purl.org/dc/elements/1.1/"
   xmlns:cc="http://creativecommons.org/ns#"
   xmlns:rdf="http://www.w3.org/1999/02/22-rdf-syntax-ns#"
   xmlns:svg="http://www.w3.org/2000/svg"
   xmlns="http://www.w3.org/2000/svg"
   xmlns:sodipodi="http://sodipodi.sourceforge.net/DTD/sodipodi-0.dtd"
   xmlns:inkscape="http://www.inkscape.org/namespaces/inkscape"
   version="1.1"
   id="svg46697"
   width="215.6739"
   height="100"
   viewBox="0 0 215.6739 99.999999"
   sodipodi:docname="playing.svg"
   inkscape:version="0.92.1 r">
  <metadata
     id="metadata46703">
    <rdf:RDF>
      <cc:Work
         rdf:about="">
        <dc:format>image/svg+xml</dc:format>
        <dc:type
           rdf:resource="http://purl.org/dc/dcmitype/StillImage" />
        <dc:title></dc:title>
      </cc:Work>
    </rdf:RDF>
  </metadata>
  <defs
     id="defs46701" />
  <sodipodi:namedview
     pagecolor="#ffffff"
     bordercolor="#666666"
     borderopacity="1"
     objecttolerance="10"
     gridtolerance="10"
     guidetolerance="10"
     inkscape:pageopacity="0"
     inkscape:pageshadow="2"
     inkscape:window-width="1366"
     inkscape:window-height="708"
     id="namedview46699"
     showgrid="false"
     fit-margin-top="0"
     fit-margin-left="0"
     fit-margin-right="0"
     fit-margin-bottom="0"
     inkscape:zoom="0.78929766"
     inkscape:cx="325.27867"
     inkscape:cy="126.78282"
     inkscape:window-x="0"
     inkscape:window-y="23"
     inkscape:window-maximized="1"
     inkscape:current-layer="svg46697" />
  <path
     style="fill:#000000;stroke-width:2.07013392"
     d="M 12.670507,98.540293 C 3.3405579,97.466825 0.45423206,93.056239 0.02915073,79.222982 -0.19189818,72.029701 0.82366818,68.144473 3.7795505,64.875069 6.6619638,61.68696 7.6628115,58.033152 7.2436921,52.228455 c -0.426696,-5.909798 0.3115345,-8.508872 2.6744062,-9.41557 1.7950757,-0.688858 3.2637937,-2.505359 3.2637937,-4.03672 0,-4.776089 17.452245,-15.06273 32.745361,-19.300667 12.380995,-3.430957 14.999446,-3.614288 17.010622,-1.190968 2.009459,2.421249 3.197881,2.326375 7.684814,-0.613568 4.326663,-2.834945 5.124265,-2.916446 4.315091,-0.440876 -0.545957,1.670308 -3.718541,4.428617 -7.050194,6.129604 l -6.057543,3.092698 5.692869,0.667535 c 6.860838,0.804496 7.531541,3.983725 1.035067,4.906363 -2.561791,0.363826 -4.564646,1.825962 -4.450789,3.249179 0.113858,1.423217 0.346748,8.829122 0.517534,16.457566 0.241522,10.787695 0.862563,13.317855 2.794681,11.385737 3.882764,-3.882744 7.866509,-2.92185 7.866509,1.897443 0,3.533532 -0.981616,4.193947 -5.07158,3.412098 -3.960249,-0.757048 -5.207712,-0.01656 -5.692868,3.381399 -0.490808,3.437105 -1.8566,4.219533 -6.503057,3.725413 -3.713345,-0.394899 -5.385495,0.17741 -4.535623,1.5526 0.740363,1.197946 4.551625,2.178092 8.469436,2.178092 6.534689,0 7.12329,0.513186 7.12329,6.210402 0,6.036677 0.277584,6.210402 9.922567,6.210402 9.408314,0 10.025234,-0.348693 11.90326,-6.727935 l 1.980704,-6.727936 15.111917,-0.152362 c 8.31157,-0.08384 15.58614,0.614809 16.16572,1.552601 0.57957,0.937791 3.82273,1.705066 7.20698,1.705066 7.60108,0 10.45757,5.572283 4.92889,9.614965 -3.385,2.475156 -2.36743,2.805839 8.63422,2.805839 6.8593,0 13.08753,-0.616093 13.84054,-1.369083 0.75299,-0.752991 -1.88643,-3.58127 -5.86539,-6.285031 -8.9205,-6.061642 -9.2322,-11.455977 -1.09154,-18.891298 4.33318,-3.957765 5.81049,-6.881808 5.01459,-9.925361 -1.20097,-4.592489 3.7387,-11.14231 8.40315,-11.14231 1.48712,0 3.86355,1.397341 5.28095,3.105201 1.6135,1.944146 6.15898,3.102303 12.15674,3.097459 l 9.57967,-0.0083 -6.67238,-4.06831 c -6.55013,-3.993786 -7.3717,-5.760521 -9.84278,-21.166292 -1.764,-10.997629 3.16263,-21.4856517 11.78492,-25.0882857 8.52881,-3.563549 18.82657,-2.28567601 23.53853,2.920959 5.58495,6.1712977 6.21682,22.3237867 1.27355,32.5551757 -2.29905,4.758514 -3.40012,8.651835 -2.4468,8.651835 2.60907,0 4.73051,21.201734 3.09189,30.90056 -0.79114,4.682726 -2.82586,9.901472 -4.52161,11.597202 -2.73082,2.730817 -3.68749,2.60783 -8.37082,-1.076077 -7.24712,-5.70059 -11.87004,-5.625444 -8.783,0.142839 1.2663,2.366122 1.69565,5.859473 0.95411,7.763003 -1.17139,3.006932 -1.8972,2.787788 -5.53262,-1.670536 l -4.18436,-5.131531 -4.11506,5.649065 c -3.94495,5.415532 -9.71628,7.292982 -12.83421,4.175025 -0.8107,-0.810706 2.03919,-4.423524 6.33312,-8.028497 l 7.80714,-6.554479 -7.19568,-8.357338 c -8.11387,-9.423768 -10.37384,-10.11186 -17.61918,-5.364525 -6.78449,4.445364 -6.46091,6.423129 2.29602,14.033459 12.14817,10.557518 6.19339,15.745398 -18.07293,15.745398 -11.17744,0 -15.78388,-4.605158 -9.32823,-9.325643 4.82739,-3.529868 4.28555,-4.752489 -1.60694,-3.626067 -3.25363,0.621971 -5.79128,3.095844 -7.13778,6.958383 -2.01532,5.781139 -2.56519,5.993327 -15.53066,5.993327 -7.392764,0 -14.034065,-0.958948 -14.758425,-2.130996 -0.803212,-1.299609 -5.494757,-1.62462 -12.02544,-0.833063 -13.991104,1.695792 -56.171534,2.677056 -66.078348,1.537199 z M 116.17105,92.614058 c 1.42322,-0.43862 2.58767,-2.632776 2.58767,-4.87589 0,-3.236924 -1.89171,-4.362083 -9.16862,-5.453313 -11.232594,-1.684447 -13.602856,-0.38136 -13.602856,7.478256 0,6.004589 0.155674,6.090914 8.798066,4.880568 4.83894,-0.677658 9.96252,-1.59098 11.38574,-2.029621 z M 14.522201,84.958682 c -0.287832,-6.344319 0.137456,-6.764577 7.457762,-7.370444 9.44774,-0.781931 9.600578,-2.21792 0.829606,-7.794862 C 10.28298,61.828474 2.347349,72.201253 8.0399278,89.09895 c 1.919656,5.698209 6.7875762,2.589034 6.4822732,-4.140268 z m 47.977158,3.404356 c -0.964331,-4.78851 -41.03693,-6.726818 -41.03693,-1.984928 0,2.480394 3.973809,3.221688 20.183807,3.765222 11.101094,0.372231 20.485012,0.871734 20.853123,1.110027 0.368132,0.238293 0.368132,-1.062352 0,-2.890321 z M 46.304038,77.195679 c 0,-1.138574 -2.561791,-2.055871 -5.692869,-2.03844 -4.436173,0.02463 -5.007406,0.474702 -2.587667,2.03844 4.050279,2.617498 8.280536,2.617498 8.280536,0 z M 207.19785,65.906907 c -0.65847,-3.698584 -1.07525,-3.468158 -3.27856,1.81263 -1.38831,3.32743 -1.92709,7.519451 -1.19728,9.315603 1.05815,2.604332 1.72216,2.237215 3.27855,-1.81263 1.07342,-2.793087 1.61219,-6.985108 1.19729,-9.315603 z m -14.55191,3.888892 c 0.84441,-2.536556 -13.53104,-7.534605 -16.46164,-5.723383 -2.51673,1.555416 8.97231,9.175952 12.78742,8.481733 1.61353,-0.293587 3.26692,-1.534839 3.67422,-2.75835 z M 58.724842,47.300915 c 0,-12.493114 -0.893221,-22.166271 -2.11665,-22.922408 -3.151365,-1.947644 -22.781991,5.098492 -30.487961,10.943225 -7.386363,5.602342 -8.413481,11.042033 -4.255864,22.539703 2.960809,8.188001 8.640221,10.666241 24.957204,10.890271 l 11.903271,0.16354 z M 201.04752,59.082006 c 0.53749,-1.61429 -1.10413,-2.587667 -4.36409,-2.587667 -5.78638,0 -9.03641,3.180347 -4.96538,4.858915 4.01165,1.654099 8.37628,0.591541 9.32947,-2.271248 z M 166.34011,51.58307 c 0.0166,-0.993354 -1.3554,-0.654908 -3.05072,0.75208 -1.69531,1.407008 -2.51043,3.483642 -1.81136,4.614763 1.28296,2.075889 4.79958,-1.805819 4.86208,-5.366843 z m 36.82975,-12.190585 c 5.36563,-5.711438 7.77928,-19.174616 4.82054,-26.888494 -1.83714,-4.7896897 -3.39744,-5.6928687 -9.83482,-5.6928687 -10.95322,0 -15.22271,4.7075257 -15.22271,16.7845017 0,13.742771 3.39492,20.477911 10.32211,20.477911 3.05311,0 7.48136,-2.090691 9.91488,-4.68105 z M 69.075512,52.354071 c 0,-1.138574 2.383884,-2.070134 5.297515,-2.070134 3.004509,0 4.743712,0.896037 4.018088,2.070134 -0.70368,1.138573 -3.087563,2.070134 -5.297514,2.070134 -2.209951,0 -4.018089,-0.931561 -4.018089,-2.070134 z M 68.040445,39.933266 c 0.70368,-1.138573 2.621783,-2.070134 4.262447,-2.070134 1.640665,0 2.983022,0.931561 2.983022,2.070134 0,1.138574 -1.918103,2.070135 -4.262447,2.070135 -2.344344,0 -3.686702,-0.931561 -2.983022,-2.070135 z"
     id="path46707"
     inkscape:connector-curvature="0"
     sodipodi:nodetypes="cscccsssccscscsscsscccssscccsscsccccscccsscccsscscsccccscsssssscscscccscsccscscscssccsccscccscccccscccccscscccccccsssscsscsssssss"
     inkscape:export-xdpi="96"
     inkscape:export-ydpi="96" />
</svg>
