<?xml version="1.0" encoding="UTF-8" standalone="no"?>
<!-- Created with Inkscape (http://www.inkscape.org/) -->

<svg
   xmlns:dc="http://purl.org/dc/elements/1.1/"
   xmlns:cc="http://creativecommons.org/ns#"
   xmlns:rdf="http://www.w3.org/1999/02/22-rdf-syntax-ns#"
   xmlns:svg="http://www.w3.org/2000/svg"
   xmlns="http://www.w3.org/2000/svg"
   xmlns:sodipodi="http://sodipodi.sourceforge.net/DTD/sodipodi-0.dtd"
   xmlns:inkscape="http://www.inkscape.org/namespaces/inkscape"
   version="1.1"
   id="svg47402"
   width="129.468"
   height="149.99995"
   viewBox="0 0 129.468 149.99995"
   sodipodi:docname="with-my-girl-1.svg"
   inkscape:version="0.92.1 r">
  <metadata
     id="metadata47408">
    <rdf:RDF>
      <cc:Work
         rdf:about="">
        <dc:format>image/svg+xml</dc:format>
        <dc:type
           rdf:resource="http://purl.org/dc/dcmitype/StillImage" />
        <dc:title></dc:title>
      </cc:Work>
    </rdf:RDF>
  </metadata>
  <defs
     id="defs47406" />
  <sodipodi:namedview
     pagecolor="#ffffff"
     bordercolor="#666666"
     borderopacity="1"
     objecttolerance="10"
     gridtolerance="10"
     guidetolerance="10"
     inkscape:pageopacity="0"
     inkscape:pageshadow="2"
     inkscape:window-width="1366"
     inkscape:window-height="708"
     id="namedview47404"
     showgrid="false"
     inkscape:zoom="0.92688321"
     inkscape:cx="354.83239"
     inkscape:cy="148.75318"
     inkscape:window-x="0"
     inkscape:window-y="23"
     inkscape:window-maximized="1"
     inkscape:current-layer="svg47402"
     fit-margin-top="0"
     fit-margin-left="0"
     fit-margin-right="0"
     fit-margin-bottom="0" />
  <path
     style="fill:#000000;stroke-width:0.87722522"
     d="m 0.48377582,149.06088 c -0.23102,-0.60624 -0.84348,-81.91346 -0.19396,-130.63915 L 0.51589582,0 H 64.991946 129.468 V 19.29895 149.7131 l -64.282094,0.225 c -50.96102,0.17838 -64.36913018,-0.004 -64.70213018,-0.87722 z m 8.03521998,-8.37673 c -0.65537,-8.68157 0.1937,-12.42804 3.6648802,-16.171 1.22011,-1.31565 3.43623,-2.77693 4.92469,-3.24729 3.6846,-1.16436 15.46886,-2.69426 20.75287,-2.69426 4.4459,0 5.75494,-1.18163 2.4656,-2.22562 -1.02138,-0.32418 -3.5682,-2.37526 -5.65962,-4.55799 l -3.80255,-3.96857 2.13403,-4.2113 c 1.17372,-2.31622 2.50721,-4.44195 2.96333,-4.72385 0.45612,-0.28189 0.61327,-2.60565 0.34924,-5.1639 -0.51774,-5.01636 0.68164,-8.44359 4.00852,-11.45437 3.49968,-3.16717 10.67759,-0.31027 14.33632,5.70602 1.58417,2.60495 1.58171,2.73027 -0.10733,5.46319 -3.90461,6.31778 -10.13135,9.37581 -14.48834,7.11537 -2.09514,-1.08697 -2.27016,-1.0316 -2.36368,0.74785 -0.36902,7.02026 1.97028,11.59393 7.31534,14.30246 2.59815,1.3166 4.01802,2.53863 3.64705,3.13888 -0.97799,1.58242 5.19544,0.0387 6.42167,-1.60585 1.0859,-1.45631 3.77035,-1.07688 3.77035,0.53293 0,0.49762 0.39475,0.90475 0.87723,0.90475 0.48247,0 0.87722,-0.59212 0.87722,-1.31583 0,-0.73103 0.77976,-1.31584 1.75445,-1.31584 0.96495,0 1.75695,0.49344 1.75999,1.09653 0.006,1.16314 4.69597,4.18514 6.42544,4.14014 0.56399,-0.0146 0.33462,-0.42903 -0.50971,-0.92081 -1.95368,-1.13792 -1.98238,-2.56141 -0.0517,-2.56141 1.29576,0 1.268,-0.16659 -0.21931,-1.31642 -1.67218,-1.29275 -1.66618,-1.34747 0.33355,-3.04229 1.11999,-0.94921 3.35224,-1.97272 4.96054,-2.27444 2.57186,-0.48248 3.03995,-1.00829 3.88492,-4.36397 1.17406,-4.66244 1.17633,-4.79294 0.0835,-4.79294 -0.48247,0 -0.87722,0.5482 -0.87722,1.21821 0,1.5733 -5.5966,2.64356 -7.76243,1.48444 -3.2731,-1.75172 -7.1504,-7.07576 -7.1504,-9.81845 0,-5.6938 8.82055,-10.56872 13.53432,-7.48013 1.16747,0.76494 2.39667,2.28953 2.73157,3.38794 0.3349,1.09842 1.16919,2.63676 1.854,3.41853 1.01819,1.16236 1.04816,1.85363 0.16443,3.79321 -0.78005,1.71205 -0.82027,2.78875 -0.14456,3.87074 1.54009,2.46608 2.22103,6.9634 1.60573,10.60531 -0.53416,3.16166 -0.84215,3.46844 -4.0214,4.00556 -3.43556,0.58045 -4.81754,2.17034 -1.9078,2.19485 0.84433,0.007 2.52203,0.51415 3.72821,1.12676 1.7748,0.9014 3.02422,0.89893 6.55106,-0.0129 2.39689,-0.61975 5.26218,-1.1268 6.36731,-1.1268 1.76139,0 1.87962,-0.2077 0.95814,-1.68322 -1.29786,-2.0782 -0.17382,-3.68696 3.92765,-5.6213 3.765184,-1.77574 15.236694,-2.63473 16.160254,-1.21008 0.37729,0.58197 0.88336,-3.08673 1.1246,-8.15271 0.3373,-7.08332 0.16609,-9.42483 -0.74123,-10.13724 -1.95105,-1.5319 -0.86731,-5.07637 1.84228,-6.0254 3.43349,-1.20255 4.87604,0.37794 3.5504,3.88995 -0.6824,1.80791 -0.70375,2.79087 -0.0692,3.1831 0.62489,0.3862 0.76133,9.354 0.42712,28.075 l -0.49103,27.50753 h 3.88139 3.88138 V 19.29895 1.31584 H 64.991846 1.8316358 v 17.98311 129.09831 h 3.63476 3.63476 z m 104.8632342,1.08588 c 0.48261,-9.55696 -0.49006,-19.69312 -1.98028,-20.63657 -2.11758,-1.34062 -20.193644,-0.94354 -25.237744,0.5544 -4.91996,1.46107 -17.33344,1.0397 -20.66198,-0.70135 -2.51096,-1.31341 -12.60059,-0.83333 -15.95665,0.75923 -2.95553,1.40248 -6.31838,1.37587 -22.82504,-0.18061 -4.32025,-0.40737 -6.04227,-0.16657 -8.77226,1.22674 -6.79073,3.4658 -8.4475002,7.67009 -7.57396,19.22018 l 0.48291,6.38521 h 51.09517 51.095174 z m 5.31935,0.70596 c 0.22179,-3.2567 0.48296,-15.33544 0.58036,-26.84166 0.13864,-16.37746 -0.0604,-20.84123 -0.91638,-20.5559 -1.33167,0.4439 -2.19434,53.31883 -0.86992,53.31883 0.44146,0 0.98413,-2.66457 1.20594,-5.92127 z m -2.96763,-26.09745 c -0.0118,-3.76074 -0.11939,-4.03417 -0.7547,-1.91767 -0.40753,1.35765 -1.18227,3.00019 -1.72164,3.65011 -0.67597,0.81448 -0.69488,1.35829 -0.0609,1.75014 0.50591,0.31265 0.94757,1.43338 0.98149,2.49046 0.13089,4.08045 1.56992,-1.4445 1.55573,-5.97304 z m -52.496454,1.26407 c 0,-0.51096 -0.39475,-0.68503 -0.87723,-0.38684 -0.48247,0.29818 -0.87722,0.71623 -0.87722,0.92899 0,0.21276 0.39475,0.38684 0.87722,0.38684 0.48248,0 0.87723,-0.41805 0.87723,-0.92899 z m 49.580334,-1.04476 c 0.22035,-0.6031 0.50403,-2.08341 0.63038,-3.2896 0.22694,-2.16631 0.1529,-2.19164 -6.06928,-2.07682 -4.97305,0.0918 -6.87349,0.52527 -9.027914,2.05937 -2.18002,1.5523 -2.52354,2.19059 -1.70791,3.17336 1.36338,1.64276 15.580394,1.76027 16.174724,0.13369 z m -31.487844,-6.80607 c 0.0826,-2.9782 0.0172,-3.19048 -0.26841,-0.86965 -0.20777,1.68865 -1.04649,3.59919 -1.86382,4.24563 -1.36625,1.0806 -1.34461,1.1507 0.2684,0.86966 1.42802,-0.24881 1.77481,-1.03876 1.86383,-4.24564 z m -44.19702,-1.32124 c -0.23195,-1.21331 -0.76932,-2.42085 -1.19419,-2.68343 -0.89208,-0.55134 -1.06552,3.42681 -0.18767,4.30465 1.20316,1.20316 1.79013,0.51451 1.38186,-1.62122 z m 38.29747,-5.61591 c 0.91461,-0.57909 1.0814,-1.84407 0.65414,-4.96129 -0.66481,-4.8503 -1.25142,-5.76301 -2.39294,-3.72323 -0.45001,0.80413 -2.19679,1.91702 -3.88172,2.4731 -1.68493,0.55607 -3.06352,1.29974 -3.06352,1.65258 0,1.71608 4.41774,5.29025 6.57919,5.32288 0.48247,0.007 1.42965,-0.33653 2.10485,-0.76404 z m -28.50907,-3.92751 c 1.60956,-0.67253 4.03707,-2.67883 5.39446,-4.45846 2.35419,-3.08651 2.40407,-3.34362 1.08173,-5.57574 -1.85907,-3.13814 -6.55874,-6.28894 -9.36944,-6.28155 -2.89101,0.008 -6.23015,4.64088 -6.23015,8.64479 0,3.54537 2.10986,7.75338 4.15489,8.28673 0.85089,0.2219 1.65843,0.44926 1.79455,0.50523 0.13612,0.056 1.56439,-0.44849 3.17396,-1.121 z m 24.98759,-6.13972 c 1.15074,-0.63786 1.73183,-1.3825 1.29131,-1.65476 -0.44053,-0.27227 -1.77681,0.25482 -2.9695,1.17132 -2.48203,1.90722 -1.43474,2.20892 1.67819,0.48344 z m 47.312654,-3.89086 c 0.1822,-1.23818 -0.18353,-1.90504 -1.04476,-1.90504 -1.70585,0 -2.60291,1.46945 -1.94451,3.18525 0.71436,1.86155 2.6489,1.03305 2.98927,-1.28021 z"
     id="path47433"
     inkscape:connector-curvature="0"
     sodipodi:nodetypes="cscccccscsscscscccccsssccccssssccssccccssssccccccccccscscsccccccccccccccccssssccscscccscscsccccccccsssssccccsccccccccccccccscccsccsccccccccscc"
     inkscape:export-xdpi="96"
     inkscape:export-ydpi="96" />
</svg>
