<?xml version="1.0" encoding="UTF-8" standalone="no"?>
<!-- Created with Inkscape (http://www.inkscape.org/) -->

<svg
   xmlns:dc="http://purl.org/dc/elements/1.1/"
   xmlns:cc="http://creativecommons.org/ns#"
   xmlns:rdf="http://www.w3.org/1999/02/22-rdf-syntax-ns#"
   xmlns:svg="http://www.w3.org/2000/svg"
   xmlns="http://www.w3.org/2000/svg"
   xmlns:xlink="http://www.w3.org/1999/xlink"
   xmlns:sodipodi="http://sodipodi.sourceforge.net/DTD/sodipodi-0.dtd"
   xmlns:inkscape="http://www.inkscape.org/namespaces/inkscape"
   width="13.229167mm"
   height="13.229168mm"
   viewBox="0 0 13.229167 13.229168"
   version="1.1"
   id="svg1995"
   inkscape:version="0.92.2 (5c3e80d, 2017-08-06)"
   sodipodi:docname="Aboutme-category.svg">
  <defs
     id="defs1989">
    <linearGradient
       inkscape:collect="always"
       xlink:href="#linearGradient8143"
       id="linearGradient1962"
       gradientUnits="userSpaceOnUse"
       x1="190.85089"
       y1="127.46812"
       x2="246.80717"
       y2="187.08821"
       gradientTransform="translate(-534.01901,142.3622)" />
    <linearGradient
       inkscape:collect="always"
       id="linearGradient8143">
      <stop
         style="stop-color:#2b9c2b;stop-opacity:1;"
         offset="0"
         id="stop8145" />
      <stop
         style="stop-color:#2b9c2b;stop-opacity:0;"
         offset="1"
         id="stop8147" />
    </linearGradient>
  </defs>
  <sodipodi:namedview
     id="base"
     pagecolor="#ffffff"
     bordercolor="#666666"
     borderopacity="1.0"
     inkscape:pageopacity="0.0"
     inkscape:pageshadow="2"
     inkscape:zoom="12.279999"
     inkscape:cx="25.000001"
     inkscape:cy="25.000002"
     inkscape:document-units="mm"
     inkscape:current-layer="layer1"
     showgrid="false"
     showborder="false"
     fit-margin-top="0"
     fit-margin-left="0"
     fit-margin-right="0"
     fit-margin-bottom="0"
     inkscape:window-width="1366"
     inkscape:window-height="768"
     inkscape:window-x="0"
     inkscape:window-y="0"
     inkscape:window-maximized="1" />
  <metadata
     id="metadata1992">
    <rdf:RDF>
      <cc:Work
         rdf:about="">
        <dc:format>image/svg+xml</dc:format>
        <dc:type
           rdf:resource="http://purl.org/dc/dcmitype/StillImage" />
        <dc:title></dc:title>
      </cc:Work>
    </rdf:RDF>
  </metadata>
  <g
     inkscape:label="Layer 1"
     inkscape:groupmode="layer"
     id="layer1"
     transform="translate(-70.303563,-138.62798)">
    <g
       transform="matrix(0.08819445,0,0,0.08819445,106.37677,119.45784)"
       id="g1971"
       inkscape:export-xdpi="96"
       inkscape:export-ydpi="96">
      <path
         d="m -262.77259,254.19495 c -3.16705,-16.99957 -16.51451,-29.99875 -33.19362,-33.16781 -12.67654,-2.49608 -25.52393,-3.66494 -38.0317,-3.66494 -12.84531,0 -25.69063,1.16886 -38.36508,3.66494 -17.01457,3.16906 -29.8578,16.33492 -33.02902,33.00112 -4.836,25.33164 -4.836,51.16748 0,76.33243 3.16914,17.16833 16.34574,30.00083 33.02902,33.16988 12.67445,2.66277 25.51977,3.83163 38.36508,3.83163 12.84322,0 25.51768,-1.16886 38.1963,-3.66702 17.01666,-3.33366 29.86197,-16.33284 33.02902,-33.16573 5.00477,-25.3358 5.00477,-51.16955 0,-76.3345 z"
         id="path1954"
         inkscape:connector-curvature="0"
         style="fill:#87de87;fill-opacity:1" />
      <path
         style="fill:url(#linearGradient1962);fill-opacity:1"
         d="m -317.85495,237.06532 1.75977,10.9375 -2.57227,8.60547 -4.56836,6.60547 -6.90234,4.60938 -11.5625,-0.72071 -5.23633,-4.38476 -2.23828,5.93945 12.75195,18.26563 10.08594,4.9414 12.41602,-2.38672 6.42187,1.94336 -8.56445,5.94141 -1.57227,5.60742 -14.22851,0.2793 0.30273,9.35937 3.63477,6.36329 -2.69532,7.36328 2.63477,6.36328 -1.0293,6.02929 1.96875,3.03321 -2.69531,5.69726 0.30469,4.36524 -34.88086,1.60937 13.23828,13.19531 c 0.1699,0.0146 0.33984,0.0288 0.50977,0.043 l 34.66601,-0.11718 c 6.71714,-0.60148 13.40951,-1.54041 20.10352,-2.85938 17.01666,-3.33366 29.86224,-16.33117 33.02929,-33.16406 2.29046,-11.59503 3.52086,-23.29455 3.71485,-34.98633 z"
         id="path1956"
         inkscape:connector-curvature="0" />
      <path
         style="fill:#000000"
         d="m -363.8212,341.09991 c 0.30528,-7.15552 0.053,-12.80383 -0.58953,-13.20095 -1.49295,-0.92269 -1.44078,-6.18443 0.0705,-7.11849 1.99619,-1.23372 1.33669,-4.70798 -1.19367,-6.28823 -2.3545,-1.47038 -3.07806,-5.44401 -1.66283,-9.13198 0.51223,-1.33491 2.29935,-1.88816 6.09902,-1.88816 h 5.37443 l -0.70635,-4.47631 c -2.66883,-16.91267 -2.52042,-18.83373 2.20345,-28.52132 4.38603,-8.99474 4.43347,-9.24018 2.54915,-13.19164 -2.51499,-5.27395 -2.42373,-9.0268 0.35114,-14.43765 4.59365,-8.95746 11.35539,-12.78056 20.304,-11.47994 6.41747,0.93273 11.02369,3.07425 14.39432,6.69217 3.80705,4.08642 3.33321,13.37576 -1.03352,20.2614 -6.97926,11.00512 -16.73131,15.33498 -24.37762,10.82354 l -4.06123,-2.39619 2.30241,6.05942 c 3.0148,7.93428 6.01093,12.00968 11.17603,15.20191 4.10717,2.53836 4.36421,2.55438 9.50195,0.59226 2.90436,-1.10917 6.37512,-1.6693 7.71286,-1.24471 1.33774,0.42457 4.35333,0.13795 6.70131,-0.63696 5.63585,-1.85999 6.99609,-0.39446 4.7107,5.07532 -1.42324,3.40627 -2.68522,4.47576 -6.28616,5.32735 -2.64721,0.62603 -4.66137,1.8753 -4.88353,3.02892 -0.20797,1.07987 2.93856,9.92367 6.99228,19.65288 4.05372,9.7292 7.63495,18.36092 7.95827,19.18159 0.32332,0.82064 -0.21073,1.49208 -1.18672,1.49208 -1.13978,0 -3.85428,-5.01732 -7.58823,-14.02574 l -5.81363,-14.02578 -0.74342,13.13052 c -0.40888,7.22177 -0.81173,14.0705 -0.89526,15.21944 -0.0836,1.14891 -0.68903,2.08894 -1.34556,2.08894 -0.74605,0 -1.19367,-7.1621 -1.19367,-19.0989 v -19.09894 h -5.96842 c -5.52292,0 -5.96838,0.21628 -5.96838,2.89757 0,1.59369 1.20858,3.87658 2.68579,5.07316 3.06726,2.48465 4.05771,9.9345 1.32075,9.9345 -2.06783,0 -2.12275,3.46276 -0.0674,4.25146 1.65653,0.6357 2.21062,8.87905 0.59682,8.87905 -0.52522,0 -0.95494,0.80573 -0.95494,1.79053 0,0.98479 0.80573,1.79052 1.79052,1.79052 2.05199,0 2.39289,1.8742 0.54828,3.0142 -0.68321,0.42229 -0.91477,1.79951 -0.51453,3.06055 0.47056,1.48261 0.0659,2.54673 -1.14513,3.01144 -2.66631,1.02318 -2.31612,2.74939 0.81297,4.00711 1.76494,0.70944 -4.37654,1.10547 -17.91254,1.1552 l -20.5983,0.0757 z m 32.90413,8.92578 c 0,-0.73459 -5.96842,-1.19367 -15.51789,-1.19367 -9.54943,0 -15.51785,0.45908 -15.51785,1.19367 0,0.73458 5.96842,1.19367 15.51785,1.19367 9.54947,0 15.51789,-0.45909 15.51789,-1.19367 z m 2.38734,-5.96842 c 0,-0.7261 -5.33904,-1.19367 -13.62973,-1.19367 -7.49631,0 -14.47935,-0.32604 -15.51785,-0.72454 -1.23904,-0.47547 -1.88816,-0.065 -1.88816,1.19367 0,1.66351 2.06085,1.91824 15.51789,1.91824 9.54947,0 15.51785,-0.45912 15.51785,-1.1937 z m -1.95569,-6.56524 c 0.58896,-1.53484 -1.52337,-1.79053 -14.79331,-1.79053 -8.92623,0 -15.48041,0.4777 -15.48041,1.1283 0,1.22417 6.18926,1.90096 20.46332,2.2376 7.14945,0.16861 9.27197,-0.17222 9.8104,-1.57537 z m 1.1937,-5.96843 c 0.58897,-1.53484 -1.52341,-1.79052 -14.79334,-1.79052 -8.92623,0 -15.48041,0.47774 -15.48041,1.1283 0,1.2242 6.1893,1.90096 20.46332,2.2376 7.14948,0.16861 9.27197,-0.17222 9.81043,-1.57538 z m -2.81905,-7.16209 c 0,-1.49608 -2.4537,-1.79052 -14.921,-1.79052 -8.24729,0 -14.92104,0.48943 -14.92104,1.09422 0,1.9093 2.65313,2.29603 16.41311,2.39262 11.18294,0.0784 13.42893,-0.20526 13.42893,-1.69632 z m 0.29844,-5.36118 c 1.1489,-0.006 2.08893,-0.54753 2.08893,-1.20406 0,-0.73212 -5.76947,-1.19367 -14.92103,-1.19367 -8.62908,0 -14.92104,0.47823 -14.92104,1.13412 0,1.33653 11.1992,2.30215 19.69579,1.69819 3.2826,-0.2333 6.90841,-0.42889 8.05735,-0.43458 z m -2.6018,-9.40288 c -0.65653,-1.22673 -0.8371,-2.587 -0.40127,-3.02283 0.43588,-0.43588 -5.89463,-0.64076 -14.06774,-0.45539 -14.38442,0.3263 -14.87243,0.42307 -15.24164,3.02284 -0.37892,2.66804 -0.27806,2.68578 15.26145,2.68578 14.90605,0 15.58667,-0.10504 14.4492,-2.2304 z m 15.43386,-8.51274 c 0,-0.65652 -0.77402,-1.19366 -1.72009,-1.19366 -0.94602,0 -2.05205,0.53714 -2.45781,1.19366 -0.40574,0.65653 0.36828,1.19372 1.7201,1.19372 1.35178,0 2.4578,-0.53719 2.4578,-1.19372 z m -24.17205,-1.94602 c 3.7538,-1.00597 3.35341,-2.10766 -1.3893,-3.82265 -4.93887,-1.78593 -6.6268,-5.82625 -6.76543,-16.19412 l -0.0974,-7.2824 -1.83064,4.17788 c -1.81909,4.15158 -1.65872,16.79994 0.27625,21.78472 0.83408,2.14868 4.77294,2.68552 9.80651,1.33657 z m 23.87365,-2.95242 c 3.44675,-0.83672 6.26683,-1.86613 6.26683,-2.28759 0,-0.42147 -1.25478,-1.43785 -2.78841,-2.25861 -2.43018,-1.30059 -3.37168,-1.09647 -7.32866,1.58881 -2.49718,1.69462 -5.67394,3.08935 -7.0595,3.09939 -2.06013,0.0151 -2.19292,0.22752 -0.72866,1.16645 0.98475,0.63147 2.59626,0.93769 3.58105,0.6805 0.98475,-0.25723 4.61056,-1.15226 8.05735,-1.98895 z m -12.8774,-3.1589 c -0.0249,-0.49239 -2.09512,-2.31151 -4.60049,-4.04248 -2.78029,-1.92093 -5.78585,-5.61685 -7.71361,-9.4854 l -3.15846,-6.3382 0.0181,7.6949 c 0.009,4.23218 0.50155,8.45843 1.09221,9.39167 0.59067,0.93323 3.40252,2.0746 6.24857,2.53638 7.48654,1.21469 8.16367,1.23499 8.11352,0.24313 z m 2.31476,-27.09529 c 7.95857,-4.11553 13.93303,-14.84145 12.43608,-22.32632 -0.79901,-3.99503 -4.90836,-7.47777 -6.88629,-5.83623 -0.8106,0.67271 -2.40602,0.22279 -4.25923,-1.20114 -4.23777,-3.2561 -9.80806,-2.94484 -14.25444,0.79654 -7.68836,6.46933 -9.02085,13.27102 -4.20855,21.48261 5.02734,8.57851 10.17592,10.70257 17.17243,7.08454 z"
         id="path1958"
         inkscape:connector-curvature="0"
         sodipodi:nodetypes="ssscsscsssssssscssssssssscsscscsscssssssssccscscssssssssssssssssssssssssssscsssccscsssssssssssscssssssscccscssccssccsssssss" />
    </g>
  </g>
</svg>
