<?xml version="1.0" encoding="UTF-8" standalone="no"?>
<!-- Created with Inkscape (http://www.inkscape.org/) -->

<svg
   xmlns:dc="http://purl.org/dc/elements/1.1/"
   xmlns:cc="http://creativecommons.org/ns#"
   xmlns:rdf="http://www.w3.org/1999/02/22-rdf-syntax-ns#"
   xmlns:svg="http://www.w3.org/2000/svg"
   xmlns="http://www.w3.org/2000/svg"
   xmlns:xlink="http://www.w3.org/1999/xlink"
   xmlns:sodipodi="http://sodipodi.sourceforge.net/DTD/sodipodi-0.dtd"
   xmlns:inkscape="http://www.inkscape.org/namespaces/inkscape"
   width="13.229167mm"
   height="13.229168mm"
   viewBox="0 0 13.229167 13.229168"
   version="1.1"
   id="svg16032"
   inkscape:version="0.92.2 (5c3e80d, 2017-08-06)"
   sodipodi:docname="Activism-category.svg">
  <defs
     id="defs16026">
    <linearGradient
       inkscape:collect="always"
       xlink:href="#linearGradient14090"
       id="linearGradient15977"
       gradientUnits="userSpaceOnUse"
       x1="173.29082"
       y1="110.16094"
       x2="243.92047"
       y2="191.29842"
       gradientTransform="matrix(0.08819445,0,0,0.08819445,-70.177584,87.60119)" />
    <linearGradient
       inkscape:collect="always"
       id="linearGradient14090">
      <stop
         style="stop-color:#aa4400;stop-opacity:1;"
         offset="0"
         id="stop14092" />
      <stop
         style="stop-color:#aa4400;stop-opacity:0;"
         offset="1"
         id="stop14094" />
    </linearGradient>
  </defs>
  <sodipodi:namedview
     id="base"
     pagecolor="#ffffff"
     bordercolor="#666666"
     borderopacity="1.0"
     inkscape:pageopacity="0.0"
     inkscape:pageshadow="2"
     inkscape:zoom="10.939999"
     inkscape:cx="10.64785"
     inkscape:cy="28.201069"
     inkscape:document-units="mm"
     inkscape:current-layer="layer1"
     showgrid="false"
     fit-margin-top="0"
     fit-margin-left="0"
     fit-margin-right="0"
     fit-margin-bottom="0"
     inkscape:window-width="1920"
     inkscape:window-height="1080"
     inkscape:window-x="1366"
     inkscape:window-y="0"
     inkscape:window-maximized="1"
     showborder="false" />
  <metadata
     id="metadata16029">
    <rdf:RDF>
      <cc:Work
         rdf:about="">
        <dc:format>image/svg+xml</dc:format>
        <dc:type
           rdf:resource="http://purl.org/dc/dcmitype/StillImage" />
        <dc:title></dc:title>
      </cc:Work>
    </rdf:RDF>
  </metadata>
  <g
     inkscape:label="Layer 1"
     inkscape:groupmode="layer"
     id="layer1"
     transform="translate(59.153278,-94.215774)">
    <g
       id="g10801"
       inkscape:export-xdpi="96"
       inkscape:export-ydpi="96">
      <path
         d="m -46.255155,97.464218 c -0.279317,-1.499268 -1.456489,-2.645724 -2.927493,-2.925217 -1.118001,-0.22014 -2.251069,-0.323227 -3.354185,-0.323227 -1.132885,0 -2.265771,0.103087 -3.383587,0.323227 -1.500591,0.279493 -2.633293,1.440649 -2.912977,2.910516 -0.426508,2.23411 -0.426508,4.512683 0,6.732093 0.279501,1.51415 1.441604,2.64591 2.912977,2.9254 1.117816,0.23484 2.250702,0.33793 3.383587,0.33793 1.1327,0 2.250517,-0.10309 3.368701,-0.32341 1.500775,-0.29401 2.63366,-1.44047 2.912977,-2.92503 0.441393,-2.23448 0.441393,-4.512873 0,-6.732282 z"
         id="path15957"
         inkscape:connector-curvature="0"
         style="fill:#ff9955;fill-opacity:1;stroke-width:0.08819445" />
      <path
         sodipodi:nodetypes="ccccccccccccccc"
         style="fill:url(#linearGradient15977);fill-opacity:1;stroke-width:0.08819445"
         d="m -46.021486,99.537122 -1.897354,-2.28629 -1.678949,1.123302 -1.478807,0.983403 -0.365869,1.348973 -0.231855,0.90743 -2.329745,-2.330086 1.069701,4.221446 0.394636,0.88645 2.307698,2.31063 c 0.354922,-0.0467 0.709336,0.48892 1.063845,0.41907 1.500775,-0.29401 2.488574,-1.82728 2.913001,-2.92489 0.213571,-2.18306 0.133167,-1.04707 0.293661,-2.94489 l -0.0066,-1.04353 z"
         id="path15959"
         inkscape:connector-curvature="0" />
      <g
         id="g15973"
         transform="matrix(0.09260417,0,0,0.09260417,-57.168903,97.245048)"
         style="fill:#ffffff">
        <path
           style="fill:#ffffff"
           inkscape:connector-curvature="0"
           d="M 27.957,37.612 C 16.815,25.559 9.62,13.275 8.645,5.764 L 0,0 C 0.117,0.078 -1.111,8.063 8.608,14.746 L 0.15,9.094 C 0.267,9.173 -0.961,17.157 8.757,23.84 L 0.074,18.039 c 0.118,0.079 -1.157,8.216 8.833,14.933 l -8.87,-5.951 c 0.118,0.079 -1.16,8.244 8.907,14.97 l 3.031,2.021 c 8.938,3.497 21.479,13.597 33.196,27.433 1.697,2.004 3.297,3.989 4.828,5.988 L 43.375,51.684 C 38.365,47.914 33.082,43.156 27.957,37.612 Z"
           id="path15961" />
        <path
           style="fill:#ffffff"
           inkscape:connector-curvature="0"
           d="M 100,0 91.354,5.764 C 90.38,13.275 83.184,25.559 72.042,37.613 66.918,43.156 61.634,47.914 56.623,51.685 L 50,77.433 c 1.529,-1.999 3.131,-3.984 4.828,-5.988 C 66.544,57.609 79.086,47.509 88.024,44.012 l 3.031,-2.021 c 10.067,-6.726 8.789,-14.891 8.907,-14.97 l -8.87,5.951 c 9.99,-6.717 8.714,-14.854 8.832,-14.933 L 91.241,23.84 C 100.96,17.157 99.732,9.173 99.849,9.094 l -8.458,5.651 C 101.111,8.063 99.883,0.078 100,0 Z"
           id="path15963" />
        <path
           style="fill:#ffffff"
           inkscape:connector-curvature="0"
           d="M 42.777,49.364 36.34,24.289 26.16,17.477 11.527,7.709 c 0.659,6.72 7.232,17.996 17.478,29.08 4.566,4.94 9.3,9.19 13.772,12.575 z"
           id="path15965" />
        <path
           style="fill:#ffffff"
           inkscape:connector-curvature="0"
           d="M 70.995,36.789 C 81.24,25.706 87.814,14.43 88.473,7.709 L 73.84,17.478 63.66,24.29 57.222,49.365 c 4.473,-3.386 9.208,-7.636 13.773,-12.576 z"
           id="path15967" />
        <path
           style="fill:#ffffff"
           inkscape:connector-curvature="0"
           d="m 12.201,47.081 c 0.555,3.006 2.437,7.729 8.683,11.901 l 13.099,8.72 13.623,9.132 C 46.459,75.364 45.296,73.89 44.05,72.418 32.646,58.952 20.309,49.429 12.201,47.081 Z"
           id="path15969" />
        <path
           style="fill:#ffffff"
           inkscape:connector-curvature="0"
           d="m 55.95,72.417 c -1.246,1.472 -2.409,2.946 -3.555,4.416 l 13.622,-9.132 13.1,-8.72 C 85.362,54.808 87.245,50.085 87.8,47.08 79.692,49.429 67.354,58.952 55.95,72.417 Z"
           id="path15971" />
      </g>
    </g>
  </g>
</svg>
