<?xml version="1.0" encoding="UTF-8" standalone="no"?>
<svg
   xmlns:dc="http://purl.org/dc/elements/1.1/"
   xmlns:cc="http://creativecommons.org/ns#"
   xmlns:rdf="http://www.w3.org/1999/02/22-rdf-syntax-ns#"
   xmlns:svg="http://www.w3.org/2000/svg"
   xmlns="http://www.w3.org/2000/svg"
   xmlns:xlink="http://www.w3.org/1999/xlink"
   xmlns:sodipodi="http://sodipodi.sourceforge.net/DTD/sodipodi-0.dtd"
   xmlns:inkscape="http://www.inkscape.org/namespaces/inkscape"
   version="1.1"
   x="0px"
   y="0px"
   viewBox="0 0 100 100"
   enable-background="new 0 0 100 100"
   xml:space="preserve"
   id="svg3555"
   inkscape:version="0.92.2 (5c3e80d, 2017-08-06)"
   sodipodi:docname="Artwork-category.svg"
   width="100"
   height="100"><metadata
     id="metadata3593"><rdf:RDF><cc:Work
         rdf:about=""><dc:format>image/svg+xml</dc:format><dc:type
           rdf:resource="http://purl.org/dc/dcmitype/StillImage" /><dc:title></dc:title></cc:Work></rdf:RDF></metadata><defs
     id="defs3591"><linearGradient
       inkscape:collect="always"
       xlink:href="#linearGradient20099"
       id="linearGradient28985"
       gradientUnits="userSpaceOnUse"
       x1="162"
       y1="114"
       x2="246"
       y2="198"
       gradientTransform="matrix(0.33333334,0,0,0.33333334,-41.666667,-25)" /><linearGradient
       inkscape:collect="always"
       id="linearGradient20099"><stop
         style="stop-color:#216778;stop-opacity:1;"
         offset="0"
         id="stop20101" /><stop
         style="stop-color:#216778;stop-opacity:0;"
         offset="1"
         id="stop20103" /></linearGradient></defs><sodipodi:namedview
     pagecolor="#ffffff"
     bordercolor="#666666"
     borderopacity="1"
     objecttolerance="10"
     gridtolerance="10"
     guidetolerance="10"
     inkscape:pageopacity="0"
     inkscape:pageshadow="2"
     inkscape:window-width="1366"
     inkscape:window-height="717"
     id="namedview3589"
     showgrid="false"
     showborder="false"
     inkscape:zoom="0.5"
     inkscape:cx="-352.5357"
     inkscape:cy="39.809347"
     inkscape:window-x="0"
     inkscape:window-y="0"
     inkscape:window-maximized="1"
     inkscape:current-layer="svg3555"
     showguides="false"
     inkscape:guide-bbox="true"
     fit-margin-top="0"
     fit-margin-left="0"
     fit-margin-right="0"
     fit-margin-bottom="0"><sodipodi:guide
       position="111.57391,134.3503"
       orientation="-0.70710678,0.70710678"
       id="guide6034"
       inkscape:locked="false" /><sodipodi:guide
       position="87.178731,142.12847"
       orientation="1,0"
       id="guide6036"
       inkscape:locked="false" /><sodipodi:guide
       position="-36.211399,60.8112"
       orientation="0,1"
       id="guide6038"
       inkscape:locked="false" /><sodipodi:guide
       position="128.72125,109.2701"
       orientation="0.70710678,0.70710678"
       id="guide6040"
       inkscape:label=""
       inkscape:color="rgb(0,0,255)"
       inkscape:locked="false" /><sodipodi:guide
       position="40.951621,5.6568655"
       orientation="0.70710678,0.70710678"
       id="guide3622"
       inkscape:label=""
       inkscape:color="rgb(0,0,255)"
       inkscape:locked="false" /></sodipodi:namedview><g
     id="g8382"
     inkscape:export-xdpi="96"
     inkscape:export-ydpi="96"
     transform="matrix(2,0,0,2,-1.385e-6,-10e-7)"><path
       style="fill:#87cdde;fill-opacity:1;stroke-width:0.33333334"
       inkscape:connector-curvature="0"
       id="path28975"
       d="M 48.748808,12.277584 C 47.693125,6.6110606 43.243972,2.2780005 37.684268,1.2216472 33.458755,0.38962051 29.176291,5e-7 25.007035,5e-7 20.725264,5e-7 16.443491,0.38962051 12.218674,1.2216472 6.5471508,2.2780005 2.2660741,6.6666206 1.2090007,12.222021 c -1.61200001,8.44388 -1.61200001,17.055827 0,25.444144 1.05638,5.722776 5.4485801,10.000276 11.0096733,11.056626 4.224817,0.88759 8.50659,1.27721 12.788361,1.27721 4.281073,0 8.505893,-0.38962 12.7321,-1.22234 5.67222,-1.11122 9.95399,-5.44428 11.009673,-11.055243 1.668257,-8.445267 1.668257,-17.056517 0,-25.444834 z" /><path
       sodipodi:nodetypes="cccccccccccc"
       style="fill:url(#linearGradient28985);fill-opacity:1;stroke-width:0.33333334"
       d="m 38.130208,12.77254 -25.331239,-0.09896 -0.05729,25.409105 10.708413,11.603124 c 2.368816,0.26655 -1.011488,0.305839 1.367616,0.312239 l 5.143176,-0.457038 c 4.21241,-0.012 3.617931,0.05604 7.778051,-0.763665 5.67222,-1.11122 9.95408,-5.443724 11.009763,-11.054687 0.83043,-4.203913 1.24697,-6.209812 1.250654,-10.448012 l -0.274223,3.407216 c 0.226519,-3.837762 0.251984,-3.91917 0.135686,-6.452202 z"
       id="path28977"
       inkscape:connector-curvature="0" /><g
       id="g28981"
       transform="matrix(0.299994,0,0,0.299994,112.29825,-25.411591)"
       style="fill:#ffffff"><path
         style="clip-rule:evenodd;fill:#ffffff;fill-rule:evenodd"
         inkscape:connector-curvature="0"
         d="m -240.99999,189.347 c 0,4.075 -3.297,7.377 -7.368,7.389 v 6.529 c 4.071,0.011 7.368,3.314 7.368,7.388 0,4.081 -3.308,7.389 -7.389,7.389 -4.081,0 -7.389,-3.308 -7.389,-7.389 0,-0.007 10e-4,-0.014 10e-4,-0.021 h -6.53 c 0,0.007 10e-4,0.014 10e-4,0.021 0,4.081 -3.308,7.389 -7.389,7.389 -4.081,0 -7.389,-3.308 -7.389,-7.389 0,-0.007 10e-4,-0.014 10e-4,-0.021 h -6.529 c 0,0.007 10e-4,0.014 10e-4,0.021 0,4.081 -3.309,7.389 -7.39,7.389 -4.081,0 -7.389,-3.308 -7.389,-7.389 0,-0.007 0.001,-0.014 0.001,-0.021 h -6.529 c 0,0.007 10e-4,0.014 10e-4,0.021 0,4.081 -3.308,7.389 -7.389,7.389 -4.081,0 -7.389,-3.308 -7.389,-7.389 0,-0.007 0.001,-0.014 0.001,-0.021 h -6.529 c 0,0.007 10e-4,0.014 10e-4,0.021 0,4.081 -3.308,7.389 -7.389,7.389 -4.081,0 -7.39,-3.308 -7.39,-7.389 0,-4.08 3.309,-7.389 7.39,-7.389 0.006,0 0.013,10e-4 0.02,10e-4 v -6.529 c -0.007,0 -0.014,0.001 -0.02,0.001 -4.081,0 -7.39,-3.309 -7.39,-7.39 0,-4.08 3.309,-7.389 7.39,-7.389 0.006,0 0.013,0.001 0.02,0.001 v -6.529 c -0.007,0 -0.014,0.001 -0.02,0.001 -4.081,0 -7.39,-3.308 -7.39,-7.389 0,-4.081 3.309,-7.389 7.39,-7.389 0.006,0 0.013,0.001 0.02,0.001 v -6.529 c -0.007,0 -0.014,0.001 -0.02,0.001 -4.081,0 -7.39,-3.308 -7.39,-7.389 0,-4.081 3.309,-7.389 7.39,-7.389 0.006,0 0.013,10e-4 0.02,10e-4 v -6.529 c -0.007,0 -0.014,0.001 -0.02,0.001 -4.08,-0.001 -7.389,-3.31 -7.389,-7.39 0,-4.081 3.309,-7.389 7.39,-7.389 4.074,0 7.376,3.297 7.388,7.369 h 6.529 c 0.011,-4.071 3.314,-7.369 7.388,-7.369 4.074,0 7.377,3.297 7.388,7.369 h 6.529 c 0.012,-4.072 3.314,-7.369 7.388,-7.369 4.074,0 7.377,3.297 7.389,7.369 h 6.529 c 0.011,-4.071 3.313,-7.369 7.388,-7.369 4.075,0 7.377,3.297 7.388,7.369 h 6.53 c 0.011,-4.071 3.313,-7.369 7.388,-7.369 4.081,0 7.389,3.308 7.389,7.389 0,4.074 -3.297,7.377 -7.368,7.388 v 6.529 c 4.071,0.011 7.368,3.314 7.368,7.388 0,4.074 -3.297,7.377 -7.368,7.388 v 6.529 c 4.071,0.012 7.368,3.314 7.368,7.388 0,4.075 -3.297,7.376 -7.368,7.388 v 6.529 c 4.07,0.012 7.367,3.315 7.367,7.389 z m -14.758,0.405 c -0.007,-0.135 -0.02,-0.269 -0.02,-0.405 0,-0.136 0.013,-0.27 0.02,-0.404 v -20.497 c -0.007,-0.135 -0.02,-0.268 -0.02,-0.405 0,-0.136 0.013,-0.27 0.02,-0.404 v -20.496 c -0.007,-0.135 -0.02,-0.268 -0.02,-0.405 0,-0.136 0.013,-0.27 0.02,-0.404 v -13.533 h -13.532 c -0.135,0.007 -0.268,0.021 -0.404,0.021 -0.136,0 -0.27,-0.013 -0.404,-0.021 h -20.498 c -0.134,0.008 -0.267,0.021 -0.404,0.021 -0.136,0 -0.27,-0.013 -0.404,-0.021 h -20.497 c -0.135,0.007 -0.268,0.021 -0.404,0.021 -0.137,0 -0.27,-0.013 -0.404,-0.021 h -13.492 v 70.444 h 70.443 z m -5.433,-16.543 -13.779,-14.778 -17.241,24.631 -11.33,-9.853 -17.257,14.778 v -49.754 h 59.606 v 34.976 z m -44.074,-29.08 c -4.489,0 -8.128,3.639 -8.128,8.128 0,4.489 3.639,8.128 8.128,8.128 4.489,0 8.128,-3.639 8.128,-8.128 0,-4.488 -3.639,-8.128 -8.128,-8.128 z"
         id="path28979" /></g></g></svg>