<?xml version="1.0" encoding="UTF-8" standalone="no"?>
<!-- Created with Inkscape (http://www.inkscape.org/) -->

<svg
   xmlns:dc="http://purl.org/dc/elements/1.1/"
   xmlns:cc="http://creativecommons.org/ns#"
   xmlns:rdf="http://www.w3.org/1999/02/22-rdf-syntax-ns#"
   xmlns:svg="http://www.w3.org/2000/svg"
   xmlns="http://www.w3.org/2000/svg"
   xmlns:xlink="http://www.w3.org/1999/xlink"
   xmlns:sodipodi="http://sodipodi.sourceforge.net/DTD/sodipodi-0.dtd"
   xmlns:inkscape="http://www.inkscape.org/namespaces/inkscape"
   width="13.229166mm"
   height="13.229166mm"
   viewBox="0 0 13.229166 13.229166"
   version="1.1"
   id="svg28031"
   inkscape:version="0.92.2 (5c3e80d, 2017-08-06)"
   sodipodi:docname="Community-category.svg">
  <defs
     id="defs28025">
    <linearGradient
       inkscape:collect="always"
       xlink:href="#linearGradient20232"
       id="linearGradient27955"
       gradientUnits="userSpaceOnUse"
       x1="141.31627"
       y1="92.510056"
       x2="226.15904"
       y2="170.77148"
       gradientTransform="matrix(0.08819444,0,0,0.08819444,226.15575,93.648809)" />
    <linearGradient
       inkscape:collect="always"
       id="linearGradient20232">
      <stop
         style="stop-color:#00aad4;stop-opacity:1;"
         offset="0"
         id="stop20234" />
      <stop
         style="stop-color:#00aad4;stop-opacity:0;"
         offset="1"
         id="stop20236" />
    </linearGradient>
  </defs>
  <sodipodi:namedview
     id="base"
     pagecolor="#ffffff"
     bordercolor="#666666"
     borderopacity="1.0"
     inkscape:pageopacity="0.0"
     inkscape:pageshadow="2"
     inkscape:zoom="5.4700005"
     inkscape:cx="-23.19336"
     inkscape:cy="27.494014"
     inkscape:document-units="mm"
     inkscape:current-layer="layer1"
     showgrid="false"
     showborder="false"
     fit-margin-top="0"
     fit-margin-left="0"
     fit-margin-right="0"
     fit-margin-bottom="0"
     inkscape:window-width="1920"
     inkscape:window-height="1080"
     inkscape:window-x="1366"
     inkscape:window-y="0"
     inkscape:window-maximized="1"
     inkscape:snap-others="false"
     inkscape:object-nodes="false"
     inkscape:snap-nodes="false" />
  <metadata
     id="metadata28028">
    <rdf:RDF>
      <cc:Work
         rdf:about="">
        <dc:format>image/svg+xml</dc:format>
        <dc:type
           rdf:resource="http://purl.org/dc/dcmitype/StillImage" />
        <dc:title />
      </cc:Work>
    </rdf:RDF>
  </metadata>
  <g
     inkscape:label="Layer 1"
     inkscape:groupmode="layer"
     id="layer1"
     transform="translate(-237.18006,-100.26339)">
    <g
       id="g8726"
       inkscape:export-xdpi="96"
       inkscape:export-ydpi="96">
      <path
         d="m 250.07818,103.51184 c -0.27932,-1.49927 -1.45649,-2.64573 -2.92749,-2.92522 -1.118,-0.22014 -2.25107,-0.32323 -3.35419,-0.32323 -1.13288,0 -2.26577,0.10309 -3.38359,0.32323 -1.50059,0.27949 -2.63329,1.44065 -2.91297,2.91051 -0.42651,2.23411 -0.42651,4.51269 0,6.7321 0.2795,1.51415 1.4416,2.64591 2.91297,2.9254 1.11782,0.23484 2.25071,0.33793 3.38359,0.33793 1.1327,0 2.25052,-0.10309 3.3687,-0.32341 1.50078,-0.29401 2.63366,-1.44047 2.91298,-2.92504 0.44139,-2.23447 0.44139,-4.51287 0,-6.73227 z"
         id="path27919"
         inkscape:connector-curvature="0"
         style="fill:#80e5ff;fill-opacity:1;stroke-width:0.08819444" />
      <path
         sodipodi:nodetypes="cccccccc"
         style="fill:url(#linearGradient27955);fill-opacity:1;stroke-width:0.08819444"
         d="m 240.47008,110.26504 3.38843,3.21603 c 1.18385,-0.0559 0.61285,-0.0362 1.20928,-0.0379 1.11146,-0.004 0.9996,-0.0581 2.09735,-0.27444 1.50077,-0.29401 2.63368,-1.44031 2.913,-2.92488 0.2207,-1.11724 0.33107,-2.24556 0.33107,-3.37189 l -3.22453,-3.36823 z"
         id="path27921"
         inkscape:connector-curvature="0" />
      <g
         transform="matrix(0.76042803,0,0,0.76042803,58.405337,25.593903)"
         id="g8706">
        <path
           style="fill:#ffffff;stroke-width:0.08819444"
           inkscape:connector-curvature="0"
           d="m 248.68325,104.38251 -0.0427,-0.0476 c 0,0 -0.006,-0.007 -0.0191,-0.0197 -0.10258,-0.10252 -0.65358,-0.60559 -1.6073,-0.62708 -0.0182,-0.2423 -0.11811,-1.09779 -0.64145,-1.62103 l -0.0477,-0.0478 -1.60513,1.60505 -0.0519,0.052 0.0562,0.0471 c 2.6e-4,1.7e-4 0.0223,0.019 0.0583,0.0547 0.18283,0.18282 0.60807,0.69082 0.60797,1.45709 l -9e-5,0.0782 0.0773,-0.0115 c 0.008,-0.001 0.76585,-0.10389 1.53515,0.66542 l 0.0477,0.0476 1.58752,-1.58738 0.0452,-0.0453 z"
           id="path27923" />
        <circle
           transform="rotate(-75.000001)"
           style="fill:#ffffff;stroke-width:0.08819444"
           cx="-35.168037"
           cy="266.04556"
           r="0.52640325"
           id="circle27925" />
        <path
           style="fill:#ffffff;stroke-width:0.08819444"
           inkscape:connector-curvature="0"
           d="m 238.94011,109.39285 0.043,0.0475 c 0,0 0.006,0.007 0.0189,0.0199 0.10258,0.10252 0.65362,0.60546 1.6073,0.62708 0.0181,0.2424 0.11794,1.09789 0.64089,1.62102 l 0.0477,0.0478 1.60538,-1.60482 0.0519,-0.0522 -0.0563,-0.0471 c -8e-5,-1.8e-4 -0.0224,-0.0187 -0.0583,-0.0545 -0.1828,-0.18295 -0.60777,-0.69089 -0.60754,-1.45712 l 9e-5,-0.0782 -0.0773,0.0115 c -0.008,0.001 -0.76598,0.10385 -1.53502,-0.66538 l -0.0479,-0.048 -1.58742,1.58713 -0.0454,0.0455 z"
           id="path27927" />
        <circle
           transform="rotate(-75.000001)"
           style="fill:#ffffff;stroke-width:0.08819444"
           cx="-45.117031"
           cy="260.29156"
           r="0.52640325"
           id="circle27929" />
        <circle
           transform="rotate(-75.000001)"
           style="fill:#ffffff;stroke-width:0.08819444"
           cx="-40.158447"
           cy="263.15784"
           r="1.543242"
           id="circle27931" />
        <path
           style="fill:#ffffff;stroke-width:0.08819444"
           inkscape:connector-curvature="0"
           d="m 239.17758,103.93038 -0.0197,0.0609 c 0,0 -0.003,0.009 -0.008,0.0262 -0.0376,0.14027 -0.19767,0.86885 0.26044,1.70554 -0.20094,0.1371 -0.8917,0.65139 -1.08317,1.36596 l -0.0175,0.0652 2.19256,0.58749 0.071,0.0189 0.0128,-0.0722 c 1.8e-4,-4.4e-4 0.005,-0.0291 0.0182,-0.0778 0.0669,-0.24986 0.29422,-0.87183 0.95785,-1.25508 l 0.0677,-0.0391 -0.0487,-0.0612 c -0.005,-0.006 -0.47285,-0.61134 -0.19127,-1.66223 l 0.0174,-0.0649 -2.16814,-0.58095 -0.0619,-0.0166 z"
           id="path27933" />
        <circle
           transform="rotate(-75.000001)"
           style="fill:#ffffff;stroke-width:0.08819444"
           cx="-40.154457"
           cy="257.39676"
           r="0.52640325"
           id="circle27935" />
        <path
           style="fill:#ffffff;stroke-width:0.08819444"
           inkscape:connector-curvature="0"
           d="m 243.53473,112.3509 0.0627,-0.0134 c 0,0 0.009,-0.002 0.0268,-0.006 0.14013,-0.0376 0.85096,-0.2632 1.34673,-1.0785 0.21893,0.10556 1.00974,0.44667 1.72438,0.25543 l 0.0653,-0.0175 -0.58749,-2.19284 -0.019,-0.0709 -0.0689,0.0251 c -4.4e-4,1.8e-4 -0.0279,0.01 -0.0766,0.0232 -0.24962,0.0669 -0.90225,0.18086 -1.56561,-0.20225 l -0.0678,-0.0391 -0.0287,0.0728 c -0.003,0.007 -0.29287,0.71526 -1.34359,0.99675 l -0.0656,0.0174 0.58081,2.16865 0.0165,0.0617 z"
           id="path27937" />
        <circle
           transform="rotate(-75.000001)"
           style="fill:#ffffff;stroke-width:0.08819444"
           cx="-45.115982"
           cy="266.02567"
           r="0.52640325"
           id="circle27939" />
        <path
           id="path27941"
           d="m 240.80998,102.29797 0.0609,-0.0197 c 0,0 0.009,-0.003 0.0262,-0.008 0.14028,-0.0376 0.86886,-0.19767 1.70555,0.26044 0.1371,-0.20094 0.65139,-0.89169 1.36596,-1.08316 l 0.0652,-0.0175 0.5875,2.19256 0.0189,0.071 -0.0722,0.0128 c -4.4e-4,1.7e-4 -0.0291,0.005 -0.0779,0.0182 -0.24986,0.0669 -0.87182,0.29422 -1.25508,0.95784 l -0.0391,0.0677 -0.0612,-0.0487 c -0.006,-0.005 -0.61134,-0.47286 -1.66223,-0.19127 l -0.0649,0.0174 -0.58095,-2.16813 -0.0166,-0.0619 z"
           inkscape:connector-curvature="0"
           style="fill:#ffffff;stroke-width:0.08819444" />
        <circle
           id="circle27943"
           r="0.52640325"
           cy="160.60828"
           cx="-207.79704"
           style="fill:#ffffff;stroke-width:0.08819444"
           transform="matrix(-0.96592583,0.25881903,0.25881903,0.96592583,0,0)" />
        <path
           id="path27945"
           d="m 249.27823,106.60709 -0.0134,0.0627 c 0,0 -0.002,0.009 -0.006,0.0268 -0.0376,0.14014 -0.26321,0.85096 -1.0785,1.34674 0.10556,0.21893 0.44666,1.00973 0.25542,1.72438 l -0.0175,0.0653 -2.19284,-0.58748 -0.0709,-0.019 0.0251,-0.0689 c 1.8e-4,-4.4e-4 0.01,-0.0279 0.0231,-0.0766 0.0669,-0.24962 0.18087,-0.90225 -0.20224,-1.56561 l -0.0392,-0.0678 0.0728,-0.0288 c 0.007,-0.003 0.71526,-0.29286 0.99675,-1.34358 l 0.0174,-0.0656 2.16866,0.58081 0.0617,0.0165 z"
           inkscape:connector-curvature="0"
           style="fill:#ffffff;stroke-width:0.08819444" />
        <circle
           id="circle27947"
           r="0.52640325"
           cy="169.20314"
           cx="-212.81711"
           style="fill:#ffffff;stroke-width:0.08819444"
           transform="matrix(-0.96592583,0.25881903,0.25881903,0.96592583,0,0)" />
        <path
           inkscape:transform-center-y="0.98593419"
           inkscape:transform-center-x="-0.95098945"
           d="m 103.09257,247.98705 a 0.52640325,0.52640325 0 0 1 -0.52541,0.5264 0.52640325,0.52640325 0 0 1 -0.5274,-0.5244 l 0.5264,-0.002 z"
           sodipodi:end="3.1377891"
           sodipodi:start="0"
           sodipodi:ry="0.52640325"
           sodipodi:rx="0.52640325"
           sodipodi:cy="247.98705"
           sodipodi:cx="102.56616"
           sodipodi:type="arc"
           id="path27949"
           style="fill:#ececec;stroke-width:0.08819444"
           transform="rotate(-45)" />
        <path
           sodipodi:open="true"
           transform="rotate(-45)"
           style="fill:#ececec;stroke-width:0.08819444"
           id="path27951"
           sodipodi:type="arc"
           sodipodi:cx="91.072502"
           sodipodi:cy="247.97864"
           sodipodi:rx="0.52640325"
           sodipodi:ry="0.52640325"
           sodipodi:start="0"
           sodipodi:end="3.1364329"
           d="m 91.598905,247.97864 a 0.52640325,0.52640325 0 0 1 -0.525045,0.5264 0.52640325,0.52640325 0 0 1 -0.527754,-0.52369"
           inkscape:transform-center-x="-0.95098945"
           inkscape:transform-center-y="0.98593419" />
      </g>
    </g>
  </g>
</svg>
