<?xml version="1.0" encoding="UTF-8" standalone="no"?>
<!-- Created with Inkscape (http://www.inkscape.org/) -->

<svg
   xmlns:dc="http://purl.org/dc/elements/1.1/"
   xmlns:cc="http://creativecommons.org/ns#"
   xmlns:rdf="http://www.w3.org/1999/02/22-rdf-syntax-ns#"
   xmlns:svg="http://www.w3.org/2000/svg"
   xmlns="http://www.w3.org/2000/svg"
   xmlns:sodipodi="http://sodipodi.sourceforge.net/DTD/sodipodi-0.dtd"
   xmlns:inkscape="http://www.inkscape.org/namespaces/inkscape"
   width="14.111111mm"
   height="14.111111mm"
   viewBox="0 0 49.999998 49.999999"
   id="svg4475"
   version="1.1"
   inkscape:version="0.91 r13725"
   sodipodi:docname="sigh.svg">
  <defs
     id="defs4477" />
  <sodipodi:namedview
     id="base"
     pagecolor="#ffffff"
     bordercolor="#666666"
     borderopacity="1.0"
     inkscape:pageopacity="0.0"
     inkscape:pageshadow="2"
     inkscape:zoom="7.9195959"
     inkscape:cx="38.287478"
     inkscape:cy="22.384661"
     inkscape:document-units="px"
     inkscape:current-layer="layer1"
     showgrid="false"
     inkscape:window-width="1366"
     inkscape:window-height="704"
     inkscape:window-x="0"
     inkscape:window-y="27"
     inkscape:window-maximized="1"
     showborder="false"
     fit-margin-top="0"
     fit-margin-left="0"
     fit-margin-right="0"
     fit-margin-bottom="0" />
  <metadata
     id="metadata4480">
    <rdf:RDF>
      <cc:Work
         rdf:about="">
        <dc:format>image/svg+xml</dc:format>
        <dc:type
           rdf:resource="http://purl.org/dc/dcmitype/StillImage" />
        <dc:title></dc:title>
      </cc:Work>
    </rdf:RDF>
  </metadata>
  <g
     inkscape:label="Layer 1"
     inkscape:groupmode="layer"
     id="layer1"
     transform="translate(-453.98187,-556.15814)">
    <g
       id="g5538"
       inkscape:export-xdpi="90"
       inkscape:export-ydpi="90">
      <g
         transform="translate(257.08382,5.555839)"
         id="g4694" />
      <rect
         y="556.15814"
         x="453.98187"
         height="50"
         width="50"
         id="rect4715"
         style="opacity:1;fill:#fdfdf8;fill-opacity:1;stroke:none;stroke-width:2;stroke-linecap:round;stroke-linejoin:round;stroke-miterlimit:4;stroke-dasharray:none;stroke-dashoffset:0;stroke-opacity:1" />
      <path
         sodipodi:nodetypes="csssssscsssssscscssscsssssssscsssssssssscsssscssssscscsscsssssssssssssscccsssscscscssscsssssssssssscsssssscsssssscsscscssscssssscsssssssssscsssssssssssssssscscssccssss"
         inkscape:connector-curvature="0"
         id="path4696"
         d="m 472.27092,593.57973 c 0,-0.51213 -0.19171,-0.60717 -1.10946,-0.54995 -1.10659,0.0691 -1.11143,0.0634 -1.8668,-2.13058 -0.69109,-2.00737 -0.71287,-2.23382 -0.24904,-2.58933 0.81773,-0.62672 0.33456,-0.71898 -1.74245,-0.33272 -1.7889,0.33268 -1.94576,0.42725 -1.94576,1.17308 0,0.44616 0.35353,1.47533 0.78563,2.28702 0.4321,0.81167 0.78525,1.58832 0.78481,1.72587 -5.7e-4,0.13755 -0.88429,0.27829 -1.96406,0.31279 -1.07979,0.0345 -2.38748,0.10516 -2.90599,0.15714 -1.14147,0.11427 -1.14325,-0.4506 -0.007,-2.12538 0.76999,-1.13463 1.30548,-2.87121 0.98438,-3.1923 -0.1001,-0.1001 -1.06808,-0.26718 -2.15108,-0.37125 -1.85671,-0.17844 -1.96422,-0.23293 -1.88376,-0.95455 0.0469,-0.4209 0.11769,-0.79093 0.15714,-0.82225 0.28821,-0.2287 9.06614,-0.33134 9.20442,-0.1076 0.10022,0.16219 -1.60962,0.28495 -4.00754,0.28771 -2.30029,0.003 -4.37724,0.12819 -4.61542,0.27911 -0.96492,0.61116 0.10884,0.91725 3.34069,0.95229 4.00438,0.0433 7.67207,-0.26884 7.44639,-0.63397 -0.0885,-0.1433 -0.35036,-0.18788 -0.58177,-0.099 -0.23142,0.0887 -0.51266,-0.0781 -0.62499,-0.37077 -0.14433,-0.37609 0.16709,-0.85008 1.06154,-1.6157 0.69616,-0.5959 1.61725,-1.68321 2.04682,-2.41623 0.4296,-0.73304 1.41848,-1.79055 2.19755,-2.35003 0.77906,-0.55948 1.41647,-1.058 1.41647,-1.10785 0,-0.0498 -0.68119,-0.51408 -1.51373,-1.03162 -1.08536,-0.67469 -1.70788,-1.35401 -2.19976,-2.40041 -0.76731,-1.63239 -0.89761,-4.00592 -0.2875,-5.2373 0.51417,-1.03776 2.87215,-2.20004 4.46039,-2.19856 2.55998,0.003 4.15,1.78813 4.4758,5.02681 0.10759,1.06971 0.40485,1.98298 0.77999,2.39647 1.45091,1.59921 1.94891,6.35649 0.88406,8.44516 -0.34568,0.67801 -0.6285,1.26229 -0.6285,1.29834 0,0.0647 1.52033,-0.0196 6.44211,-0.35774 1.38271,-0.0949 4.10926,-0.39451 6.05901,-0.66564 3.75393,-0.52202 4.46836,-0.39014 4.46836,0.82492 0,0.81627 -0.59632,1.16118 -2.43506,1.40838 -0.90721,0.12192 -1.72338,0.34133 -1.8137,0.4875 -0.3255,0.52663 0.2658,2.88088 0.99253,3.95175 0.40822,0.60157 0.74181,1.19354 0.74125,1.31551 -5.6e-4,0.12191 -0.60155,0.22868 -1.33558,0.23717 -0.73399,0.008 -2.00625,0.11184 -2.82724,0.22968 -1.80392,0.25889 -1.90205,-0.0632 -0.66336,-2.17684 0.45614,-0.77833 0.87701,-1.97748 0.93528,-2.66478 l 0.10595,-1.2496 -6.35609,0.21209 c -3.49584,0.1166 -6.44608,0.30071 -6.5561,0.40905 -0.27376,0.26956 -0.89986,4.07391 -0.89986,5.46784 0,0.6238 -0.1414,1.22155 -0.31424,1.32837 -0.41735,0.25793 -0.40202,-1.42683 0.0402,-4.39901 0.19486,-1.31012 0.28432,-2.45199 0.19881,-2.5375 -0.0854,-0.0854 -0.82934,-0.004 -1.65297,0.18013 -0.82365,0.18458 -1.56322,0.26992 -1.6435,0.18962 -0.0803,-0.0803 0.71623,-0.3156 1.77006,-0.52294 1.82475,-0.35899 2.28035,-0.66144 1.61541,-1.0724 -0.16537,-0.10214 -1.23331,-0.0902 -2.37321,0.0265 -1.73998,0.17826 -2.03796,0.29337 -1.85697,0.71722 0.42949,1.00591 1.67839,6.13317 1.53005,6.28151 -0.31497,0.31498 -0.6693,-0.5085 -1.23487,-2.86984 -0.53522,-2.23465 -0.6502,-2.43896 -1.3949,-2.47823 -0.7728,-0.0408 -0.77665,-0.0496 -0.0805,-0.18212 0.49454,-0.0942 0.67248,-0.2921 0.54995,-0.61141 -0.0997,-0.25964 -0.18115,-0.53121 -0.18115,-0.60349 0,-0.0723 -0.63637,-0.13147 -1.41413,-0.13147 -1.20462,0 -1.41412,0.0932 -1.41412,0.6285 0,0.46577 0.22377,0.63958 0.86419,0.67129 0.79275,0.0393 0.80278,0.0545 0.12123,0.18369 -0.67766,0.12847 -0.7252,0.25204 -0.54082,1.40512 0.11114,0.69533 0.48088,2.05725 0.82154,3.02648 0.70757,2.01317 0.74035,2.25541 0.30513,2.25541 -0.17282,0 -0.31424,-0.27859 -0.31424,-0.61909 z m -6.3276,-0.82021 c 0.0631,-0.0545 -0.18447,-0.71683 -0.54992,-1.47176 -0.36547,-0.75495 -0.66448,-1.76258 -0.66448,-2.23919 0,-1.43692 -0.97101,-0.90085 -1.39472,0.76998 -0.19993,0.78837 -0.67287,1.86785 -1.05101,2.39888 l -0.68751,0.96553 2.11657,-0.16216 c 1.1641,-0.0892 2.1681,-0.20676 2.23107,-0.26128 z m 28.50615,-0.76044 1.04521,0 -0.60624,-1.33557 c -0.33342,-0.73456 -0.60933,-1.93657 -0.61312,-2.67112 -0.006,-0.92877 -0.14024,-1.33557 -0.44465,-1.33557 -0.51697,0 -0.81779,0.66985 -0.82305,1.83265 -0.003,0.46116 -0.3556,1.45391 -0.78561,2.20611 -0.43001,0.7522 -0.78184,1.4416 -0.78184,1.53197 0,0.0905 0.44192,0.076 0.98203,-0.032 0.54011,-0.10802 1.45239,-0.1964 2.02727,-0.1964 z m -3.6378,-5.82195 c 6.628,-0.23938 7.54199,-0.36765 7.54199,-1.05844 0,-0.84254 -0.14795,-0.88199 -2.27357,-0.60613 -3.50507,0.45487 -12.28494,1.18844 -14.30311,1.19507 -1.60966,0.006 -1.96405,0.0996 -1.96405,0.52273 0,0.45706 0.35157,0.49373 3.06393,0.31951 1.68516,-0.10829 5.25582,-0.27598 7.93481,-0.37274 z m -17.45262,-1.48436 c -0.12029,-0.56174 -0.27446,-1.08171 -0.3425,-1.15552 -0.1622,-0.17601 -2.00263,1.58976 -2.00263,1.92136 0,0.14051 0.57688,0.25545 1.28198,0.25545 1.28169,0 1.28192,-1.9e-4 1.06315,-1.02129 z m 4.41124,0.7581 c 2.4242,-0.32116 2.04197,-0.9583 -1.08726,-1.81234 -1.46217,-0.39906 -2.71356,-0.6705 -2.78087,-0.60318 -0.0674,0.0674 -0.0252,0.69755 0.0935,1.40055 0.24064,1.42433 0.38716,1.46372 3.77458,1.01497 z m 3.61389,-0.36529 c 0,-0.17284 -0.28282,-0.31426 -0.62851,-0.31426 -0.34567,0 -0.6285,0.14142 -0.6285,0.31426 0,0.17283 0.28283,0.31425 0.6285,0.31425 0.34569,0 0.62851,-0.14142 0.62851,-0.31425 z m -0.006,-1.17844 c -0.003,-0.1297 -0.13638,-0.4437 -0.29718,-0.69796 -0.36205,-0.5725 -0.7868,-0.21445 -0.53233,0.44871 0.18794,0.48979 0.8384,0.68523 0.82951,0.24925 z m -1.56645,-0.84564 c 0,-0.24905 -0.12274,-0.52871 -0.27284,-0.62145 -0.15006,-0.0927 -0.37063,-0.90609 -0.49022,-1.80743 -0.27572,-2.0786 -0.35133,-2.18496 -1.2971,-1.82537 -1.07252,0.40776 -4.28509,2.86496 -4.05469,3.10132 0.32505,0.33345 4.3493,1.53917 5.25068,1.57318 0.55798,0.0211 0.86417,-0.12779 0.86417,-0.42025 z m 2.73636,-2.65767 c -0.21659,-2.5645 -0.75323,-4.15242 -1.1754,-3.4781 -0.50451,0.80586 -1.06418,3.79688 -0.75249,4.0216 0.16026,0.11551 0.55133,0.77132 0.86898,1.45721 0.51681,1.11581 0.61216,1.18534 0.90589,0.66049 0.19075,-0.34089 0.25487,-1.45554 0.15302,-2.6612 z m -2.20542,-2.63289 c 0.44103,-1.49369 0.3273,-1.87757 -0.23827,-0.80422 -0.21272,0.4037 -0.50168,0.80974 -0.64215,0.90234 -0.14047,0.0926 -0.17204,0.4871 -0.0702,0.87667 0.23503,0.8988 0.46788,0.66003 0.95058,-0.97479 z m -2.19509,0.15096 c 0.20816,-0.1323 0.35681,-0.52797 0.33035,-0.87921 -0.0703,-0.93208 0.71209,-2.64162 1.20881,-2.64162 0.66494,0 0.86865,-1.45161 0.42573,-3.03364 -0.47376,-1.69211 -1.71349,-2.61986 -3.50326,-2.62169 -1.15429,-8.7e-4 -1.88458,0.51584 -1.26865,0.89816 0.55454,0.3442 0.61341,1.92892 0.0717,1.92892 -0.17284,0 -0.31425,-0.27031 -0.31425,-0.6007 0,-0.78762 -0.86777,-0.66035 -1.5915,0.23343 -0.30353,0.37484 -0.70598,0.68153 -0.89431,0.68153 -0.56449,0 -0.38716,2.13715 0.287,3.45856 1.06232,2.08235 3.86274,3.45697 5.2484,2.57626 z m -4.29698,-6.19196 c 0,-0.17282 0.13707,-0.52635 0.30462,-0.7856 0.16755,-0.25927 0.30463,-0.32997 0.30463,-0.15715 0,0.17286 -0.13708,0.52638 -0.30463,0.78563 -0.16755,0.25926 -0.30462,0.32997 -0.30462,0.15712 z m 3.91779,-2.04377 c -0.10719,-0.17347 -0.57514,-0.24093 -1.03987,-0.14989 -0.80718,0.15811 -0.81233,0.15122 -0.11524,-0.15419 0.53938,-0.23633 0.94908,-0.20053 1.57126,0.13732 0.57963,0.31474 0.67622,0.46093 0.31022,0.46958 -0.29225,0.007 -0.61911,-0.12928 -0.7263,-0.30282 z m 2.34527,5.51904 c -0.01,-0.47716 -0.13282,-0.36942 -0.47136,0.41037 -0.57838,1.33216 -0.57051,1.63037 0.0222,0.84662 0.25376,-0.3355 0.45584,-0.90115 0.44908,-1.25699 z m -6.1485,-5.48411 c -0.17514,-0.19818 -1.06694,0.63972 -1.06694,1.00244 0,0.18191 0.26459,0.0585 0.58797,-0.27416 0.32338,-0.33271 0.5389,-0.66044 0.47897,-0.72828 z"
         style="fill-opacity:1" />
      <path
         sodipodi:nodetypes="sssssssssssssssssssssssssssssscsscssscssssssscscssscsssssscssssscscssssscsccsssccssssssssscscsssccsscsscsscsscsssssssssscssssscssssscscsccsssscsscsssccsccssccssssssssssss"
         inkscape:connector-curvature="0"
         id="path4698"
         d="m 472.19059,593.50955 c -0.15294,-0.60939 -0.33455,-0.75485 -0.73631,-0.58973 -1.15304,0.47387 -1.35377,0.27485 -2.16015,-2.14179 -0.68956,-2.06656 -0.74803,-2.49604 -0.37546,-2.7581 0.31258,-0.21987 0.13397,-0.25721 -0.61242,-0.12801 -0.57953,0.10031 -1.45761,0.18239 -1.95129,0.18239 -1.21108,0 -1.19447,0.9168 0.0592,3.2661 0.52622,0.98613 0.91258,1.82959 0.85857,1.87436 -0.31967,0.26495 -5.89161,0.39123 -6.04868,0.13708 -0.10228,-0.16549 0.18968,-0.9419 0.64881,-1.72535 0.45913,-0.78344 0.9538,-1.83944 1.09927,-2.34665 0.23195,-0.80875 0.17065,-0.95789 -0.49824,-1.2122 -0.4195,-0.1595 -1.14915,-0.21452 -1.62144,-0.12228 -1.13987,0.22262 -2.09677,-0.48233 -1.82349,-1.34337 0.26211,-0.82582 0.79045,-0.91346 5.98187,-0.99229 4.99033,-0.0758 5.28863,-0.2018 7.16357,-3.0265 0.6374,-0.96029 1.69963,-2.11966 2.36051,-2.57639 1.40612,-0.97175 1.46424,-1.15386 0.52284,-1.6381 -1.16685,-0.60021 -2.44462,-1.94004 -2.91349,-3.05499 -0.52722,-1.25368 -0.58129,-4.07735 -0.0984,-5.13723 0.4934,-1.08291 2.4813,-2.09494 4.2685,-2.17307 2.90235,-0.1269 4.75336,1.93101 4.75336,5.2847 0,0.72609 0.27225,1.50317 0.74278,2.12005 0.40852,0.53561 0.98835,1.98425 1.28851,3.21919 0.45979,1.89178 0.48663,2.48053 0.17039,3.73875 -0.20643,0.82136 -0.5973,1.73925 -0.86859,2.03975 -0.46483,0.51489 -0.37805,0.54583 1.50644,0.53712 1.09982,-0.005 3.96659,-0.22241 6.37058,-0.48295 8.70444,-0.94336 8.22584,-0.93796 8.54322,-0.0965 0.47776,1.2667 -0.0722,1.78413 -2.14583,2.01873 l -1.87038,0.21161 0,1.06243 c 0,1.19514 0.70462,3.0784 1.46695,3.92077 0.27859,0.30784 0.44885,0.60954 0.37836,0.67044 -0.33718,0.29129 -6.21622,0.46584 -6.21622,0.18455 0,-0.16971 0.42148,-1.05539 0.93663,-1.96817 0.58198,-1.03121 0.93662,-2.10565 0.93662,-2.83763 l 0,-1.17803 -2.41961,0.20708 c -1.33078,0.11389 -4.1408,0.22908 -6.24448,0.25596 -3.14059,0.0401 -3.84982,0.13457 -3.9643,0.52788 -0.0767,0.26345 -0.30222,1.6732 -0.50121,3.13276 -0.46043,3.37734 -0.53646,3.63023 -0.96311,3.20358 -0.31062,-0.31062 -0.12487,-2.23713 0.56011,-5.80898 0.16749,-0.8734 0.15024,-0.88535 -1.03176,-0.71426 -0.66116,0.0957 -1.53325,0.17931 -1.93798,0.1858 -0.57771,0.009 -0.68689,0.12922 -0.50796,0.55815 0.21767,0.52184 1.05382,4.03726 1.07676,4.52701 0.006,0.12878 -0.19977,0.23415 -0.45734,0.23415 -0.25757,0 -0.46831,-0.23071 -0.46831,-0.5127 0,-0.28198 -0.27648,-1.44105 -0.61439,-2.57571 l -0.61439,-2.063 -1.41496,0 c -0.77823,0 -1.41496,0.0985 -1.41496,0.21892 0,0.38785 0.87052,3.48783 1.35527,4.82622 0.44164,1.21937 0.40816,1.66731 -0.12463,1.66731 -0.12448,0 -0.31769,-0.364 -0.42935,-0.8089 z m -7.08964,-1.06434 1.05264,0 -0.5237,-0.79927 c -0.28803,-0.43959 -0.6223,-1.37688 -0.74282,-2.08286 -0.29225,-1.71191 -0.87574,-1.84462 -1.14344,-0.26008 -0.11714,0.69335 -0.55219,1.76047 -0.96677,2.37139 -0.41457,0.61091 -0.75377,1.16495 -0.75377,1.2312 0,0.0663 0.45567,-0.0102 1.01261,-0.16997 0.55694,-0.15973 1.4863,-0.29041 2.06525,-0.29041 z m 29.93064,-0.75981 c 0.0389,-0.0319 -0.20701,-0.78865 -0.54636,-1.68176 -0.33935,-0.8931 -0.61701,-2.0438 -0.61701,-2.5571 0,-0.5133 -0.14049,-0.93327 -0.3122,-0.93327 -0.17172,0 -0.31221,0.47746 -0.31221,1.06102 0,0.58356 -0.40067,1.82271 -0.89038,2.75366 l -0.89038,1.69265 1.74895,-0.13864 c 0.96192,-0.0762 1.78074,-0.1647 1.81959,-0.19656 z m -26.32653,-4.488 c 1.07329,-0.19072 1.15817,-0.26645 0.71284,-0.63604 -0.38878,-0.32265 -1.50673,-0.38745 -4.84094,-0.28057 -4.63774,0.14865 -6.35194,0.5651 -3.6466,0.8859 2.24828,0.2666 6.35598,0.28282 7.7747,0.0307 z m 5.20851,-0.63441 c -0.21617,-0.40392 -0.63206,-0.56344 -1.39948,-0.53679 -2.13301,0.0741 -1.84408,1.11148 0.30956,1.11148 1.26044,0 1.36733,-0.0564 1.08992,-0.57469 z m 5.08245,-0.35079 c 0.26351,-0.2635 -0.22352,-0.3339 -1.90935,-0.27597 -1.72443,0.0593 -2.26309,0.18466 -2.26309,0.52687 0,0.36058 0.37635,0.41498 1.90936,0.27597 1.05014,-0.0952 2.06853,-0.33232 2.26308,-0.52687 z m 11.99908,-0.28469 c 6.61063,-0.25408 7.85434,-0.48985 7.01449,-1.32969 -0.26442,-0.26443 -1.09289,-0.26433 -3.26256,2.7e-4 -5.89061,0.71876 -9.01347,0.97852 -11.76279,0.97852 -2.46684,0 -3.46413,0.22156 -3.01572,0.66998 0.073,0.0729 1.08772,0.0885 2.25502,0.0345 1.1673,-0.0539 5.1145,-0.2131 8.77156,-0.35366 z m -17.61081,-1.20943 c -0.32491,-1.37851 -0.59802,-1.42393 -1.49453,-0.24856 l -0.84444,1.10713 1.27066,0 c 1.2271,0 1.26373,-0.0294 1.06831,-0.85857 z m 4.66231,0.5498 c 0.94065,-0.003 1.17227,-0.11257 1.09272,-0.51829 -0.0695,-0.35463 -0.91198,-0.7361 -2.70707,-1.22578 l -2.60613,-0.71091 0.21487,1.14534 c 0.30259,1.61297 0.41143,1.71011 1.68085,1.50015 0.6221,-0.10289 1.66824,-0.18862 2.32476,-0.19051 z m 3.02113,-0.31565 c 0,-0.17171 -0.21074,-0.3122 -0.46831,-0.3122 -0.25758,0 -0.46831,0.14049 -0.46831,0.3122 0,0.17172 0.21073,0.31221 0.46831,0.31221 0.25757,0 0.46831,-0.14049 0.46831,-0.31221 z m 0,-1.56103 c 0,-0.17172 -0.1405,-0.31221 -0.31221,-0.31221 -0.17171,0 -0.31221,0.14049 -0.31221,0.31221 0,0.17171 0.1405,0.3122 0.31221,0.3122 0.17171,0 0.31221,-0.14049 0.31221,-0.3122 z m -1.45197,-0.45831 c 0.0967,-0.25208 0.0653,-0.52665 -0.0698,-0.61017 -0.13514,-0.0835 -0.42007,-0.93098 -0.63317,-1.88324 -0.21853,-0.97647 -0.55856,-1.73139 -0.77987,-1.73139 -0.50038,0 -3.02424,1.66518 -3.76579,2.48458 -0.64979,0.71801 -0.7453,0.65479 2.32973,1.54214 2.57326,0.74257 2.70651,0.75161 2.91893,0.19808 z m 2.91023,-2.4721 c -0.19501,-1.7168 -0.80278,-4.07329 -0.99975,-3.87632 -0.0662,0.0662 -0.32674,0.91266 -0.57897,1.88101 -0.47246,1.81391 -0.38118,2.25922 0.87397,4.26334 0.48828,0.77966 0.90032,-0.54635 0.70475,-2.26803 z m -2.10643,-3.45146 c 0.013,-0.16161 -0.18252,-0.0211 -0.43463,0.31221 -0.25211,0.33331 -0.45216,0.95726 -0.44456,1.38655 0.0122,0.68753 0.064,0.65034 0.43463,-0.31221 0.23144,-0.601 0.4315,-1.22495 0.44456,-1.38655 z m -2.65554,0.88484 c 0.27161,-0.10423 0.49384,-0.45262 0.49384,-0.7742 0,-1.0982 0.99496,-3.13941 1.44591,-2.96636 0.47441,0.18205 0.58784,-1.43354 0.22723,-3.23658 -0.16365,-0.81821 -0.31715,-0.96995 -0.84233,-0.83261 -0.35322,0.0924 -0.82433,0.0168 -1.04692,-0.16794 -0.22259,-0.18473 -0.75675,-0.26858 -1.18703,-0.18633 -0.91924,0.17572 -0.99251,-0.004 -0.23595,-0.57809 0.49728,-0.37748 0.49958,-0.41564 0.0255,-0.42467 -0.28646,-0.005 -0.73778,0.0733 -1.00294,0.17507 -0.43106,0.16541 -0.43225,0.26109 -0.0113,0.90356 0.29503,0.45027 0.39458,1.02232 0.26662,1.53214 -0.28566,1.13815 -0.75832,1.01535 -0.77401,-0.2011 l -0.0131,-1.01467 -0.59824,1.09272 c -0.42445,0.77528 -0.60204,0.91995 -0.61133,0.49798 -0.0129,-0.58472 -0.0242,-0.58472 -0.66977,-5.6e-4 -0.53567,0.48478 -0.63125,0.85891 -0.5187,2.03026 0.16074,1.67279 0.89533,2.78972 2.42422,3.68592 1.13999,0.66824 1.79658,0.7845 2.62822,0.46537 z m 1.8618,-1.54385 c 0.10661,-0.27784 0.0543,-0.40316 -0.1227,-0.29378 -0.16975,0.10491 -0.30864,0.32294 -0.30864,0.48452 0,0.44909 0.22379,0.35013 0.43134,-0.19074 z m -6.01124,-6.30598 c 0.38834,-0.49518 0.3773,-0.50622 -0.11788,-0.11788 -0.3005,0.23567 -0.54636,0.48153 -0.54636,0.54636 0,0.25696 0.25638,0.0916 0.66424,-0.42848 z m 5.2677,-0.51296 c 0,-0.0675 -0.21804,-0.20637 -0.48453,-0.30863 -0.27784,-0.10662 -0.40316,-0.0543 -0.29378,0.1227 0.18335,0.29666 0.77831,0.43879 0.77831,0.18593 z"
         style="fill-opacity:1" />
    </g>
  </g>
</svg>
