<?xml version="1.0" encoding="UTF-8" standalone="no"?>
<!-- Created with Inkscape (http://www.inkscape.org/) -->

<svg
   xmlns:dc="http://purl.org/dc/elements/1.1/"
   xmlns:cc="http://creativecommons.org/ns#"
   xmlns:rdf="http://www.w3.org/1999/02/22-rdf-syntax-ns#"
   xmlns:svg="http://www.w3.org/2000/svg"
   xmlns="http://www.w3.org/2000/svg"
   xmlns:xlink="http://www.w3.org/1999/xlink"
   xmlns:sodipodi="http://sodipodi.sourceforge.net/DTD/sodipodi-0.dtd"
   xmlns:inkscape="http://www.inkscape.org/namespaces/inkscape"
   width="13.229167mm"
   height="13.229172mm"
   viewBox="0 0 46.874999 46.875018"
   id="svg4759"
   version="1.1"
   inkscape:version="0.92.2 (5c3e80d, 2017-08-06)"
   sodipodi:docname="Hackwork-category.svg">
  <defs
     id="defs4761">
    <linearGradient
       inkscape:collect="always"
       xlink:href="#linearGradient20346"
       id="linearGradient29304"
       gradientUnits="userSpaceOnUse"
       x1="325.28571"
       y1="1006.7908"
       x2="389.28571"
       y2="1070.7908"
       gradientTransform="translate(543.74999)" />
    <linearGradient
       inkscape:collect="always"
       id="linearGradient20346">
      <stop
         style="stop-color:#aa8800;stop-opacity:1;"
         offset="0"
         id="stop20348" />
      <stop
         style="stop-color:#aa8800;stop-opacity:0;"
         offset="1"
         id="stop20350" />
    </linearGradient>
  </defs>
  <sodipodi:namedview
     id="base"
     pagecolor="#ffffff"
     bordercolor="#666666"
     borderopacity="1.0"
     inkscape:pageopacity="0.0"
     inkscape:pageshadow="2"
     inkscape:zoom="10.839996"
     inkscape:cx="25"
     inkscape:cy="25.000009"
     inkscape:document-units="px"
     inkscape:current-layer="layer1"
     showgrid="false"
     fit-margin-top="0"
     fit-margin-left="0"
     fit-margin-right="0"
     fit-margin-bottom="0"
     inkscape:window-width="1366"
     inkscape:window-height="713"
     inkscape:window-x="0"
     inkscape:window-y="0"
     inkscape:window-maximized="1"
     showborder="false" />
  <metadata
     id="metadata4764">
    <rdf:RDF>
      <cc:Work
         rdf:about="">
        <dc:format>image/svg+xml</dc:format>
        <dc:type
           rdf:resource="http://purl.org/dc/dcmitype/StillImage" />
        <dc:title></dc:title>
      </cc:Work>
    </rdf:RDF>
  </metadata>
  <g
     inkscape:label="Layer 1"
     inkscape:groupmode="layer"
     id="layer1"
     transform="translate(-757.09815,-1193.4827)">
    <g
       transform="matrix(0.31249999,0,0,0.31249999,506.1495,896.9856)"
       id="g29325"
       inkscape:export-xdpi="96"
       inkscape:export-ydpi="96">
      <path
         style="fill:#ffdd55;fill-opacity:1"
         inkscape:connector-curvature="0"
         id="path29284"
         d="m 949.28213,985.6235 c -3.16705,-16.99957 -16.51451,-29.99875 -33.19362,-33.16781 -12.67654,-2.49608 -25.52393,-3.66494 -38.0317,-3.66494 -12.84531,0 -25.69063,1.16886 -38.36508,3.66494 -17.01457,3.16906 -29.8578,16.33492 -33.02902,33.00112 -4.836,25.33159 -4.836,51.16749 0,76.33239 3.16914,17.1684 16.34574,30.0009 33.02902,33.1699 12.67445,2.6628 25.51977,3.8317 38.36508,3.8317 12.84322,0 25.51768,-1.1689 38.1963,-3.6671 17.01666,-3.3336 29.86197,-16.3328 33.02902,-33.1657 5.00477,-25.3358 5.00477,-51.1696 0,-76.3345 z" />
      <path
         style="fill:url(#linearGradient29304);fill-opacity:1"
         d="m 902.7818,988.42944 4.95508,35.75776 0.1543,10.3262 -2.71289,13.7442 -5.32227,11.8222 -10.66992,8.5586 -12.5293,2.6446 -10.12695,-1.9922 -7.68359,-3.709 32.70703,32.7597 c 8.26285,-0.5459 16.47998,-1.5992 24.69922,-3.2187 17.01666,-3.3336 29.86224,-16.3312 33.02929,-33.1641 1.55902,-7.8922 2.63298,-15.8334 3.22071,-23.7871 z"
         id="path29286"
         inkscape:connector-curvature="0" />
      <g
         id="g29300"
         transform="translate(827.74317,973.79074)"
         style="fill:#ffffff">
        <path
           id="path29288"
           d="m 44.843,66.412 c 0.107,0.039 2.472,1.005 5.326,1.005 2.303,0 4.148,-0.62 5.017,-0.913 0.782,-0.184 1.35,-0.881 1.35,-1.716 0,-0.972 -0.782,-1.755 -1.755,-1.755 l -0.848,0.183 c -0.17,0.059 -0.561,0.17 -0.9,0.261 -0.365,-1.154 -1.493,-2.016 -2.876,-2.016 -1.402,0 -2.528,0.875 -2.883,2.049 -0.652,-0.177 -1.086,-0.34 -1.092,-0.346 -0.917,-0.365 -1.925,0.071 -2.287,0.965 -0.37,0.893 0.051,1.918 0.948,2.283 z"
           inkscape:connector-curvature="0"
           style="fill:#ffffff" />
        <path
           id="path29290"
           d="m 81.452,38.723 c 0,-9.839 0,-14.97 0,-14.97 C 75.36,8.999 56.854,4.778 56.854,4.778 V 0.555 c 0,0 -37.714,-2.958 -37.714,26.463 0,0 0,1.866 0,11.705 0,0 -8.199,0.235 -8.199,10.548 0,8.075 5.567,12.229 7.991,13.658 0.372,3.549 2.439,18.179 11.232,27.865 4.599,5.056 11.007,8.734 19.979,8.734 26.033,0 30.703,-30.886 31.342,-36.501 C 83.8,61.703 89.644,57.554 89.644,49.27 89.645,38.958 81.452,38.723 81.452,38.723 Z M 22.815,59.681 v -14.66 c 0,0 -3.675,-24.216 27.481,-24.216 0,0 3.088,-0.046 7.178,0.789 -2.772,4.918 -8.023,12.964 -15.426,19.458 -1.699,-0.339 -3.598,-0.493 -5.639,-0.493 -6.852,0 -12.41,1.406 -12.41,7.622 0,3.659 1.957,6.882 4.938,8.937 -1.145,1.271 -3.108,3.34 -5.857,5.884 -0.085,-1.11 -0.265,-2.187 -0.265,-3.321 z m 21.65,-9.478 c 0,0.098 -0.023,0.176 -0.065,0.28 -0.02,0.052 0,0.117 -0.036,0.17 -0.144,0.202 -3.555,5.009 -7.955,5.009 -4.4,0 -7.808,-4.807 -7.951,-5.009 -0.036,-0.053 -0.017,-0.118 -0.036,-0.17 -0.042,-0.098 -0.065,-0.176 -0.065,-0.28 0,-0.104 0.023,-0.183 0.065,-0.28 0.02,-0.053 0,-0.118 0.036,-0.17 0.144,-0.202 3.552,-5.013 7.951,-5.013 4.399,0 7.811,4.811 7.955,5.013 0.036,0.052 0.016,0.117 0.036,0.17 0.042,0.104 0.065,0.182 0.065,0.28 z m 33.308,9.478 c 0,19.177 -12.309,34.728 -27.477,34.728 -12.7,0 -23.287,-10.952 -26.434,-25.746 1.729,-1.532 6.692,-6.066 9.37,-9.641 1.021,0.242 2.071,0.418 3.177,0.418 6.852,0 12.41,-5.042 12.41,-11.259 0,-2.27 -0.757,-3.887 -2.032,-5.042 7.622,-7.175 12.813,-15.491 15.391,-20.233 7.43,2.632 15.596,8.581 15.596,22.115 -0.001,8.111 -0.001,12.449 -0.001,14.66 z"
           inkscape:connector-curvature="0"
           style="fill:#ffffff" />
        <path
           id="path29292"
           d="m 36.409,76.398 v 2.27 c 0,0 4.723,4.006 13.74,4.006 9.015,0 13.73,-4.293 13.73,-4.293 v -2.837 h -27.47 z"
           inkscape:connector-curvature="0"
           style="fill:#ffffff" />
        <path
           id="path29294"
           d="m 36.712,49.74 0.897,-3.122 c -0.388,-0.14 -0.815,-0.222 -1.252,-0.222 -2.035,0 -3.692,1.654 -3.692,3.689 0,2.041 1.657,3.691 3.692,3.691 2.042,0 3.689,-1.65 3.689,-3.691 0,-0.281 -0.029,-0.555 -0.085,-0.809 z"
           inkscape:connector-curvature="0"
           style="fill:#ffffff" />
        <path
           id="path29296"
           d="m 64.199,49.721 0.939,-3.249 c -0.404,-0.144 -0.854,-0.228 -1.305,-0.228 -2.119,0 -3.848,1.722 -3.848,3.842 0,2.126 1.729,3.842 3.848,3.842 2.127,0 3.836,-1.716 3.836,-3.842 0,-0.294 -0.026,-0.574 -0.085,-0.842 z"
           inkscape:connector-curvature="0"
           style="fill:#ffffff" />
        <path
           id="path29298"
           d="m 54.508,43.502 c -0.713,0.893 -0.561,2.185 0.332,2.898 0.382,0.299 0.822,0.442 1.277,0.444 0.609,10e-4 1.206,-0.266 1.623,-0.783 4.403,-5.56 12.034,-2.455 12.347,-2.311 1.064,0.443 2.258,-0.056 2.703,-1.098 0.441,-1.049 -0.038,-2.253 -1.086,-2.703 C 67.988,38.376 59.6,37.064 54.508,43.502 Z"
           inkscape:connector-curvature="0"
           style="fill:#ffffff" />
      </g>
    </g>
  </g>
</svg>
