<?xml version="1.0" encoding="UTF-8" standalone="no"?>
<!-- Created with Inkscape (http://www.inkscape.org/) -->

<svg
   xmlns:dc="http://purl.org/dc/elements/1.1/"
   xmlns:cc="http://creativecommons.org/ns#"
   xmlns:rdf="http://www.w3.org/1999/02/22-rdf-syntax-ns#"
   xmlns:svg="http://www.w3.org/2000/svg"
   xmlns="http://www.w3.org/2000/svg"
   xmlns:xlink="http://www.w3.org/1999/xlink"
   xmlns:sodipodi="http://sodipodi.sourceforge.net/DTD/sodipodi-0.dtd"
   xmlns:inkscape="http://www.inkscape.org/namespaces/inkscape"
   width="26.458334mm"
   height="26.458334mm"
   viewBox="0 0 26.458334 26.458334"
   version="1.1"
   id="svg24898"
   inkscape:version="0.92.2 (5c3e80d, 2017-08-06)"
   sodipodi:docname="Meetups-category.svg">
  <defs
     id="defs24892">
    <linearGradient
       inkscape:collect="always"
       xlink:href="#linearGradient10589"
       id="linearGradient24516"
       gradientUnits="userSpaceOnUse"
       x1="-819.14288"
       y1="159.8622"
       x2="-777.64288"
       y2="198.6122"
       gradientTransform="matrix(0.0449402,0,0,0.0449402,398.98232,31.220386)" />
    <linearGradient
       inkscape:collect="always"
       id="linearGradient10589">
      <stop
         style="stop-color:#bababa;stop-opacity:1"
         offset="0"
         id="stop10591" />
      <stop
         style="stop-color:#fcfcfc;stop-opacity:0"
         offset="1"
         id="stop10593" />
    </linearGradient>
    <linearGradient
       inkscape:collect="always"
       xlink:href="#linearGradient10485"
       id="linearGradient24518"
       gradientUnits="userSpaceOnUse"
       x1="-832.1684"
       y1="208.57141"
       x2="-825.13916"
       y2="215.41808"
       gradientTransform="matrix(0.0449402,0,0,0.0449402,398.98232,31.220386)" />
    <linearGradient
       inkscape:collect="always"
       id="linearGradient10485">
      <stop
         style="stop-color:#e6e6e6;stop-opacity:1;"
         offset="0"
         id="stop10487" />
      <stop
         style="stop-color:#e6e6e6;stop-opacity:0;"
         offset="1"
         id="stop10489" />
    </linearGradient>
    <linearGradient
       inkscape:collect="always"
       xlink:href="#linearGradient10485"
       id="linearGradient24520"
       gradientUnits="userSpaceOnUse"
       gradientTransform="matrix(0.0449402,0,0,0.0449402,399.00693,31.868587)"
       x1="-832.1684"
       y1="208.57141"
       x2="-824.81641"
       y2="215.99904" />
    <linearGradient
       inkscape:collect="always"
       xlink:href="#linearGradient10485"
       id="linearGradient24522"
       gradientUnits="userSpaceOnUse"
       x1="-833.28668"
       y1="209.14197"
       x2="-825.13916"
       y2="215.41808"
       gradientTransform="matrix(0.0449402,0,0,0.0449402,398.98232,31.220386)" />
    <linearGradient
       inkscape:collect="always"
       xlink:href="#linearGradient10485"
       id="linearGradient24524"
       gradientUnits="userSpaceOnUse"
       gradientTransform="matrix(0.0449402,0,0,0.0449402,398.69542,32.758827)"
       x1="-832.1684"
       y1="208.57141"
       x2="-827.3725"
       y2="212.84958" />
    <linearGradient
       inkscape:collect="always"
       xlink:href="#linearGradient10485"
       id="linearGradient24526"
       gradientUnits="userSpaceOnUse"
       gradientTransform="matrix(0.0449402,0,0,0.0449402,398.64209,32.689083)"
       x1="-832.1684"
       y1="208.57141"
       x2="-827.3725"
       y2="212.84958" />
    <linearGradient
       inkscape:collect="always"
       xlink:href="#linearGradient10485"
       id="linearGradient24528"
       gradientUnits="userSpaceOnUse"
       gradientTransform="matrix(0.0449402,0,0,0.0449402,399.98398,31.662408)"
       x1="-832.1684"
       y1="208.57141"
       x2="-827.3725"
       y2="212.84958" />
    <linearGradient
       inkscape:collect="always"
       xlink:href="#linearGradient10485"
       id="linearGradient24530"
       gradientUnits="userSpaceOnUse"
       gradientTransform="matrix(0.0449402,0,0,0.0449402,400.4518,31.599264)"
       x1="-832.1684"
       y1="208.57141"
       x2="-827.3725"
       y2="212.84958" />
    <linearGradient
       inkscape:collect="always"
       xlink:href="#linearGradient10533"
       id="linearGradient24532"
       gradientUnits="userSpaceOnUse"
       x1="-844.07208"
       y1="255.48712"
       x2="-839.65265"
       y2="259.99493"
       gradientTransform="matrix(0.0449402,0,0,0.0449402,398.98232,31.220386)" />
    <linearGradient
       inkscape:collect="always"
       id="linearGradient10533">
      <stop
         style="stop-color:#ffff00;stop-opacity:1;"
         offset="0"
         id="stop10535" />
      <stop
         style="stop-color:#ffff00;stop-opacity:0;"
         offset="1"
         id="stop10537" />
    </linearGradient>
    <linearGradient
       inkscape:collect="always"
       xlink:href="#linearGradient10565"
       id="linearGradient24534"
       gradientUnits="userSpaceOnUse"
       x1="-817.01788"
       y1="263.04968"
       x2="-811.20538"
       y2="269.23718"
       gradientTransform="matrix(0.0449402,0,0,0.0449402,398.98232,31.220386)" />
    <linearGradient
       inkscape:collect="always"
       id="linearGradient10565">
      <stop
         style="stop-color:#ffcc00;stop-opacity:1"
         offset="0"
         id="stop10567" />
      <stop
         style="stop-color:#e6e6e6;stop-opacity:0.19631901"
         offset="1"
         id="stop10569" />
    </linearGradient>
    <linearGradient
       inkscape:collect="always"
       xlink:href="#linearGradient10565"
       id="linearGradient24536"
       gradientUnits="userSpaceOnUse"
       gradientTransform="matrix(0.0449402,0,0,0.0449402,399.75332,30.082837)"
       x1="-817.01788"
       y1="263.04968"
       x2="-811.20538"
       y2="269.23718" />
    <linearGradient
       inkscape:collect="always"
       xlink:href="#linearGradient10599"
       id="linearGradient24540"
       gradientUnits="userSpaceOnUse"
       gradientTransform="matrix(0.0449402,0,0,0.0449402,400.47328,32.185237)"
       x1="-820.89288"
       y1="200.8622"
       x2="-800.8432"
       y2="214.9458" />
    <linearGradient
       id="linearGradient10599"
       inkscape:collect="always">
      <stop
         id="stop10601"
         offset="0"
         style="stop-color:#808080;stop-opacity:1" />
      <stop
         id="stop10603"
         offset="1"
         style="stop-color:#fcfcfc;stop-opacity:0" />
    </linearGradient>
    <linearGradient
       inkscape:collect="always"
       xlink:href="#linearGradient10599"
       id="linearGradient24542"
       gradientUnits="userSpaceOnUse"
       gradientTransform="matrix(0.06949539,0,0,0.06949539,408.74547,37.115731)"
       x1="-813.17719"
       y1="162.22064"
       x2="-797.89288"
       y2="175.8622" />
    <linearGradient
       inkscape:collect="always"
       xlink:href="#linearGradient10599"
       id="linearGradient24544"
       gradientUnits="userSpaceOnUse"
       gradientTransform="matrix(0.06949539,0,0,0.06949539,408.97469,40.223838)"
       x1="-817.62146"
       y1="192.62286"
       x2="-808.8576"
       y2="198.24608" />
    <linearGradient
       inkscape:collect="always"
       xlink:href="#linearGradient10599"
       id="linearGradient24546"
       gradientUnits="userSpaceOnUse"
       gradientTransform="matrix(0.06949539,0,0,0.06949539,407.79619,40.194924)"
       x1="-817.62146"
       y1="192.62286"
       x2="-808.8576"
       y2="198.24608" />
    <linearGradient
       inkscape:collect="always"
       xlink:href="#linearGradient10599"
       id="linearGradient24548"
       gradientUnits="userSpaceOnUse"
       gradientTransform="matrix(0.06949539,0,0,0.06949539,408.47519,38.577666)"
       x1="-827.52094"
       y1="171.58644"
       x2="-803.3775"
       y2="199.12996" />
    <filter
       inkscape:collect="always"
       style="color-interpolation-filters:sRGB"
       id="filter16651"
       x="-0.024289688"
       width="1.0485795"
       y="-0.0392204"
       height="1.0784408">
      <feGaussianBlur
         inkscape:collect="always"
         stdDeviation="0.63310125"
         id="feGaussianBlur16653" />
    </filter>
    <filter
       inkscape:collect="always"
       style="color-interpolation-filters:sRGB"
       id="filter16657"
       x="-0.035999559"
       width="1.0719991"
       y="-0.036000442"
       height="1.0720009">
      <feGaussianBlur
         inkscape:collect="always"
         stdDeviation="0.67486502"
         id="feGaussianBlur16659" />
    </filter>
    <filter
       inkscape:collect="always"
       style="color-interpolation-filters:sRGB"
       id="filter16617"
       x="-0.054642808"
       width="1.1092856"
       y="-0.020675683"
       height="1.0413514">
      <feGaussianBlur
         inkscape:collect="always"
         stdDeviation="2.131482"
         id="feGaussianBlur16619" />
    </filter>
    <linearGradient
       inkscape:collect="always"
       xlink:href="#linearGradient10599"
       id="linearGradient24550"
       gradientUnits="userSpaceOnUse"
       gradientTransform="matrix(0.06949539,0,0,0.06949539,411.94575,36.452332)"
       x1="-809.48969"
       y1="166.28314"
       x2="-799.16217"
       y2="176.11067" />
    <linearGradient
       inkscape:collect="always"
       xlink:href="#linearGradient10599"
       id="linearGradient24552"
       gradientUnits="userSpaceOnUse"
       gradientTransform="matrix(0.06949539,0,0,0.06949539,412.0686,38.055546)"
       x1="-803.77094"
       y1="167.33644"
       x2="-795.30621"
       y2="191.29938" />
    <linearGradient
       inkscape:collect="always"
       xlink:href="#linearGradient10599"
       id="linearGradient24554"
       gradientUnits="userSpaceOnUse"
       gradientTransform="matrix(0.06949539,0,0,0.06949539,412.1932,40.106564)"
       x1="-817.62146"
       y1="192.62286"
       x2="-809.79333"
       y2="197.74223" />
    <linearGradient
       inkscape:collect="always"
       xlink:href="#linearGradient10599"
       id="linearGradient24556"
       gradientUnits="userSpaceOnUse"
       gradientTransform="matrix(0.06949539,0,0,0.06949539,413.434,40.081994)"
       x1="-817.62146"
       y1="192.62286"
       x2="-812.16864"
       y2="197.38234" />
    <filter
       inkscape:collect="always"
       style="color-interpolation-filters:sRGB"
       id="filter16663"
       x="-0.035999998"
       width="1.072"
       y="-0.035999998"
       height="1.072">
      <feGaussianBlur
         inkscape:collect="always"
         stdDeviation="0.675"
         id="feGaussianBlur16665" />
    </filter>
    <filter
       inkscape:collect="always"
       style="color-interpolation-filters:sRGB"
       id="filter16631"
       x="-0.027614957"
       width="1.0552299"
       y="-0.032835972"
       height="1.0656719">
      <feGaussianBlur
         inkscape:collect="always"
         stdDeviation="1.0248703"
         id="feGaussianBlur16633" />
    </filter>
    <filter
       inkscape:collect="always"
       style="color-interpolation-filters:sRGB"
       id="filter16641"
       x="-0.037393436"
       width="1.0747869"
       y="-0.025047587"
       height="1.0500952">
      <feGaussianBlur
         inkscape:collect="always"
         stdDeviation="1.1964084"
         id="feGaussianBlur16643" />
    </filter>
    <filter
       inkscape:collect="always"
       style="color-interpolation-filters:sRGB"
       id="filter16669"
       x="-0.040274683"
       width="1.0805494"
       y="-0.059392396"
       height="1.1187848">
      <feGaussianBlur
         inkscape:collect="always"
         stdDeviation="1.5053834"
         id="feGaussianBlur16671" />
    </filter>
    <linearGradient
       inkscape:collect="always"
       xlink:href="#linearGradient10485"
       id="linearGradient24558"
       gradientUnits="userSpaceOnUse"
       gradientTransform="matrix(0.0449402,0,0,0.0449402,399.04796,31.962945)"
       x1="-832.1684"
       y1="208.57141"
       x2="-827.3725"
       y2="212.84958" />
    <linearGradient
       inkscape:collect="always"
       xlink:href="#linearGradient10485"
       id="linearGradient24560"
       gradientUnits="userSpaceOnUse"
       gradientTransform="matrix(0.0449402,0,0,0.0449402,400.0535,31.710157)"
       x1="-832.1684"
       y1="208.57141"
       x2="-827.3725"
       y2="212.84958" />
    <linearGradient
       inkscape:collect="always"
       xlink:href="#linearGradient10485"
       id="linearGradient24562"
       gradientUnits="userSpaceOnUse"
       gradientTransform="matrix(0.0449402,0,0,0.0449402,400.52231,31.664805)"
       x1="-832.1684"
       y1="208.57141"
       x2="-827.3725"
       y2="212.84958" />
    <linearGradient
       inkscape:collect="always"
       xlink:href="#linearGradient10533"
       id="linearGradient24564"
       gradientUnits="userSpaceOnUse"
       gradientTransform="matrix(0.0449402,0,0,0.0449402,399.05382,31.316711)"
       x1="-844.07208"
       y1="255.48712"
       x2="-839.65265"
       y2="259.99493" />
    <linearGradient
       inkscape:collect="always"
       xlink:href="#linearGradient10565"
       id="linearGradient25213"
       gradientUnits="userSpaceOnUse"
       x1="-817.01788"
       y1="263.04968"
       x2="-811.20538"
       y2="269.23718"
       gradientTransform="matrix(0.0449402,0,0,0.0449402,398.98232,31.220386)" />
    <linearGradient
       inkscape:collect="always"
       xlink:href="#linearGradient10565"
       id="linearGradient25215"
       gradientUnits="userSpaceOnUse"
       gradientTransform="matrix(0.0449402,0,0,0.0449402,399.75332,30.082837)"
       x1="-817.01788"
       y1="263.04968"
       x2="-811.20538"
       y2="269.23718" />
  </defs>
  <sodipodi:namedview
     id="base"
     pagecolor="#ffffff"
     bordercolor="#666666"
     borderopacity="1.0"
     inkscape:pageopacity="0.0"
     inkscape:pageshadow="2"
     inkscape:zoom="0.5"
     inkscape:cx="-310.99996"
     inkscape:cy="24.999996"
     inkscape:document-units="mm"
     inkscape:current-layer="layer1"
     showgrid="false"
     showborder="false"
     fit-margin-top="0"
     fit-margin-left="0"
     fit-margin-right="0"
     fit-margin-bottom="0"
     inkscape:snap-nodes="false"
     inkscape:window-width="1366"
     inkscape:window-height="717"
     inkscape:window-x="0"
     inkscape:window-y="0"
     inkscape:window-maximized="1" />
  <metadata
     id="metadata24895">
    <rdf:RDF>
      <cc:Work
         rdf:about="">
        <dc:format>image/svg+xml</dc:format>
        <dc:type
           rdf:resource="http://purl.org/dc/dcmitype/StillImage" />
        <dc:title></dc:title>
      </cc:Work>
    </rdf:RDF>
  </metadata>
  <g
     inkscape:label="Layer 1"
     inkscape:groupmode="layer"
     id="layer1"
     transform="translate(-348.30929,-27.952169)">
    <g
       id="g25533"
       transform="matrix(2.5381382,0,0,2.5381382,-535.74785,-83.69088)"
       inkscape:export-xdpi="96"
       inkscape:export-ydpi="96">
      <path
         d="m 358.47275,46.545904 c -0.2201,-1.181392 -1.14768,-2.084775 -2.30681,-2.30501 -0.88095,-0.173466 -1.77379,-0.254696 -2.64302,-0.254696 -0.89269,0 -1.78538,0.08123 -2.6662,0.254696 -1.18243,0.220235 -2.07498,1.135202 -2.29536,2.293426 -0.33608,1.760432 -0.33608,3.555904 0,5.304752 0.22024,1.19312 1.13595,2.084919 2.29536,2.305154 0.88082,0.18505 1.77351,0.26628 2.6662,0.26628 0.89254,0 1.77336,-0.08123 2.65446,-0.254841 1.18259,-0.231674 2.07527,-1.135057 2.29537,-2.304865 0.34781,-1.760721 0.34781,-3.556048 0,-5.304896 z"
         id="path24380"
         inkscape:connector-curvature="0"
         style="fill:#aaeeff;fill-opacity:1;stroke-width:0.06949539" />
      <g
         id="g25469">
        <path
           sodipodi:nodetypes="ccccc"
           style="fill:url(#linearGradient24542);fill-opacity:1;fill-rule:evenodd;stroke:none;stroke-width:0.06949539px;stroke-linecap:butt;stroke-linejoin:miter;stroke-opacity:1"
           d="m 352.9393,48.205784 -0.7818,0.840951 0.53363,0.166361 1.60852,0.361727 z"
           id="path24408"
           inkscape:connector-curvature="0" />
        <path
           inkscape:connector-curvature="0"
           id="path24410"
           d="m 352.43624,53.547916 -0.35101,-0.207698 -0.23432,0.471187 0.58054,0.577289 1.24255,-0.435089 z"
           style="fill:url(#linearGradient24544);fill-opacity:1;fill-rule:evenodd;stroke:none;stroke-width:0.06949539px;stroke-linecap:butt;stroke-linejoin:miter;stroke-opacity:1"
           sodipodi:nodetypes="cccccc" />
        <path
           sodipodi:nodetypes="cccccc"
           style="fill:url(#linearGradient24546);fill-opacity:1;fill-rule:evenodd;stroke:none;stroke-width:0.06949539px;stroke-linecap:butt;stroke-linejoin:miter;stroke-opacity:1"
           d="m 351.25774,53.519003 -0.35102,-0.207699 -0.23431,0.471188 0.19853,0.2731 1.62455,-0.130901 z"
           id="path24412"
           inkscape:connector-curvature="0" />
        <path
           inkscape:connector-curvature="0"
           id="path24414"
           d="m 352.53872,49.420141 0.10094,0.368604 -0.0465,0.504792 -0.39403,0.400548 -0.30716,0.609034 -0.31584,0.504791 -0.0118,0.5656 0.14457,0.522165 0.19668,0.400548 0.36174,0.530852 1.3758,0.420157 0.27907,-3.421196 z"
           style="fill:url(#linearGradient24548);fill-opacity:1;fill-rule:evenodd;stroke:none;stroke-width:0.06949539px;stroke-linecap:butt;stroke-linejoin:miter;stroke-opacity:1"
           sodipodi:nodetypes="ccccccccccccc" />
        <ellipse
           style="fill:#333333;stroke-width:0.02569306"
           id="ellipse24416"
           ry="0.57799107"
           rx="0.57796538"
           cy="333.68958"
           cx="123.79733"
           transform="rotate(-61.789662)" />
        <path
           style="fill:#333333;stroke-width:0.02569359"
           id="path24418"
           d="m 352.30047,49.289226 c -0.008,-0.0015 -0.0158,-0.0026 -0.0237,-0.0034 -10e-4,-3.34e-4 -0.003,-8.22e-4 -0.004,-0.0011 -0.004,-0.0014 -0.41713,-0.102184 -1.10773,-0.909065 -0.0384,-0.04494 -0.092,-0.06904 -0.14676,-0.07156 l -0.0452,-0.07752 0.1332,-0.07767 -0.34304,-0.588178 -0.44388,0.258863 0.34304,0.588204 0.13317,-0.07767 0.04,0.0686 c -0.0474,0.07428 -0.0431,0.173663 0.0171,0.244114 0.44306,0.518831 0.79735,0.782011 1.03047,0.914487 -0.005,0.0101 -0.01,0.02037 -0.0145,0.03078 0.0158,-0.0039 0.0313,-0.0083 0.0466,-0.0129 0.11087,-0.0335 0.20304,-0.08135 0.21768,-0.09078 l 6.2e-4,-4.11e-4 0.002,-0.0015 c 0.0365,-0.02202 0.0783,-0.03474 0.12073,-0.03669 0.0657,-0.003 0.12852,0.01958 0.17721,0.06061 0.0212,0.01783 0.04,0.0388 0.0547,0.06326 0.0733,0.121223 0.0342,0.279418 -0.087,0.352696 -0.0197,0.01174 -0.0904,0.05239 -0.19498,0.09483 -0.15802,0.06341 -0.30517,0.09753 -0.44992,0.10447 h -6e-5 -5e-5 l -0.004,1.55e-4 c -0.007,3.34e-4 -0.0147,5.39e-4 -0.0222,6.93e-4 -0.075,0.293755 -0.17531,0.618959 -0.33936,0.876357 -0.007,0.01238 -0.0128,0.02428 -0.0187,0.03592 -0.0888,0.07151 -0.24853,0.213899 -0.41076,0.429211 -0.23253,0.308349 -0.47161,0.778362 -0.4714,1.384628 -1.1e-4,0.263411 0.0453,0.549997 0.15079,0.853361 0.0461,0.13263 0.17045,0.215801 0.30337,0.215801 0.035,0 0.0706,-0.0058 0.10547,-0.01788 0.16755,-0.05825 0.25616,-0.241263 0.19797,-0.408811 -0.0832,-0.239644 -0.11516,-0.452156 -0.11524,-0.642468 1.3e-4,-0.252234 0.0569,-0.469859 0.13862,-0.653645 0.0553,0.420707 0.20108,0.948762 0.52574,1.546189 0.0846,0.155909 0.27955,0.213719 0.43546,0.129084 0.15593,-0.08456 0.21372,-0.279597 0.12911,-0.435455 -0.39553,-0.7298 -0.47623,-1.306005 -0.47675,-1.668695 0,-0.07541 0.004,-0.141392 0.009,-0.19761 0.11951,-0.01526 0.24232,-0.08232 0.35884,-0.243472 0.30031,-0.489874 0.40817,-0.811815 0.46755,-1.355594 0.0409,-0.395758 -0.19741,-0.637535 -0.41942,-0.680186 z"
           inkscape:connector-curvature="0" />
        <path
           style="fill:#333333;stroke-width:0.02569359"
           id="path24420"
           d="m 352.18685,49.96954 c 0.11043,-0.04478 0.18098,-0.0871 0.18774,-0.09116 0.0971,-0.05866 0.12832,-0.184994 0.0697,-0.282167 -0.007,-0.0121 -0.0156,-0.02315 -0.0249,-0.03314 -0.0648,-0.0704 -0.17228,-0.08795 -0.25735,-0.03656 l -2.8e-4,1.28e-4 c -0.008,0.0057 -0.083,0.04661 -0.18269,0.08165 -0.0412,0.01447 -0.0864,0.02798 -0.13296,0.03754 -0.0368,0.0076 -0.0744,0.01264 -0.11115,0.01385 -0.10003,0.0041 -0.18507,-0.01405 -0.25848,-0.06701 -0.0729,-0.05344 -0.15113,-0.152106 -0.20503,-0.36156 -0.0279,-0.110046 -0.13972,-0.176669 -0.24977,-0.148715 -0.11007,0.02788 -0.17664,0.139722 -0.14871,0.249768 0.0686,0.273867 0.19529,0.472916 0.36225,0.593393 0.163,0.118319 0.3481,0.151387 0.50814,0.145143 0.002,-7.7e-5 0.005,-1.03e-4 0.007,-2.05e-4 10e-4,-7.8e-5 0.002,-1.29e-4 0.004,-1.8e-4 0.17215,-0.0082 0.32241,-0.05635 0.43302,-0.100771 z"
           inkscape:connector-curvature="0" />
        <path
           inkscape:connector-curvature="0"
           d="m 188.856,395.335 c 4.298,-1.743 7.044,-3.39 7.307,-3.548 3.779,-2.283 4.994,-7.2 2.711,-10.982 -0.284,-0.471 -0.609,-0.901 -0.968,-1.29 -2.523,-2.74 -6.705,-3.423 -10.016,-1.423 l -0.011,0.005 c -0.299,0.222 -3.231,1.814 -7.11,3.178 -1.604,0.563 -3.364,1.089 -5.175,1.461 -1.434,0.294 -2.896,0.492 -4.326,0.539 -3.893,0.158 -7.203,-0.547 -10.06,-2.608 -2.839,-2.08 -5.882,-5.92 -7.98,-14.072 -1.087,-4.283 -5.438,-6.876 -9.721,-5.788 -4.284,1.085 -6.875,5.438 -5.788,9.721 2.669,10.659 7.601,18.406 14.099,23.095 6.344,4.605 13.548,5.892 19.777,5.649 0.089,-0.003 0.18,-0.004 0.269,-0.008 0.047,-0.003 0.092,-0.005 0.139,-0.007 6.7,-0.319 12.548,-2.193 16.853,-3.922 z"
           id="path24446"
           style="fill:#333333;filter:url(#filter16651)"
           transform="matrix(0.02569359,0,0,0.02569359,347.33446,39.811965)" />
        <ellipse
           transform="matrix(0.01214536,-0.02264119,0.02264119,0.01214536,342.31281,49.087117)"
           cx="203.914"
           cy="343.80301"
           rx="22.495001"
           ry="22.496"
           id="ellipse24448"
           style="fill:#333333;filter:url(#filter16657)" />
        <path
           inkscape:connector-curvature="0"
           d="m 193.278,368.857 c -0.308,-0.06 -0.615,-0.101 -0.922,-0.133 -0.056,-0.013 -0.108,-0.032 -0.164,-0.044 -0.166,-0.053 -16.235,-3.977 -43.113,-35.381 -1.496,-1.749 -3.582,-2.687 -5.712,-2.785 l -1.76,-3.017 5.184,-3.023 -13.351,-22.892 -17.276,10.075 13.351,22.893 5.183,-3.023 1.557,2.67 c -1.845,2.891 -1.679,6.759 0.666,9.501 17.244,20.193 31.033,30.436 40.106,35.592 -0.199,0.393 -0.385,0.793 -0.564,1.198 0.615,-0.152 1.218,-0.323 1.812,-0.502 4.315,-1.304 7.902,-3.166 8.472,-3.533 l 0.024,-0.016 0.088,-0.059 c 1.422,-0.857 3.047,-1.352 4.699,-1.428 2.558,-0.118 5.002,0.762 6.897,2.359 0.824,0.694 1.555,1.51 2.13,2.462 2.851,4.718 1.331,10.875 -3.387,13.727 -0.766,0.457 -3.518,2.039 -7.589,3.691 -6.15,2.468 -11.877,3.796 -17.511,4.066 h -0.002 -0.002 l -0.139,0.006 c -0.28,0.013 -0.572,0.021 -0.866,0.027 -2.919,11.433 -6.823,24.09 -13.208,34.108 -0.26,0.482 -0.498,0.945 -0.727,1.398 -3.457,2.783 -9.673,8.325 -15.987,16.705 -9.05,12.001 -18.355,30.294 -18.347,53.89 -0.004,10.252 1.763,21.406 5.869,33.213 1.795,5.162 6.634,8.399 11.807,8.399 1.362,0 2.746,-0.224 4.105,-0.696 6.521,-2.267 9.97,-9.39 7.705,-15.911 -3.238,-9.327 -4.482,-17.598 -4.485,-25.005 0.005,-9.817 2.214,-18.287 5.395,-25.44 2.153,16.374 7.826,36.926 20.462,60.178 3.291,6.068 10.88,8.318 16.948,5.024 6.069,-3.291 8.318,-10.882 5.025,-16.948 -15.394,-28.404 -18.535,-50.83 -18.555,-64.946 0,-2.935 0.141,-5.503 0.343,-7.691 4.651,-0.594 9.431,-3.204 13.966,-9.476 11.688,-19.066 15.886,-31.596 18.197,-52.76 1.594,-15.403 -7.683,-24.813 -16.324,-26.473 z"
           id="path24450"
           style="fill:#333333;filter:url(#filter16617)"
           transform="matrix(0.02569359,0,0,0.02569359,347.33446,39.811965)" />
      </g>
      <g
         id="g25457">
        <path
           inkscape:connector-curvature="0"
           id="path24462"
           d="m 356.13958,47.542385 -0.84322,0.896235 0.009,0.0019 2.19487,0.470865 z"
           style="fill:url(#linearGradient24550);fill-opacity:1;fill-rule:evenodd;stroke:none;stroke-width:0.06949539px;stroke-linecap:butt;stroke-linejoin:miter;stroke-opacity:1"
           sodipodi:nodetypes="ccccc" />
        <path
           sodipodi:nodetypes="cccccccccccccc"
           style="fill:url(#linearGradient24552);fill-opacity:1;fill-rule:evenodd;stroke:none;stroke-width:0.06949539px;stroke-linecap:butt;stroke-linejoin:miter;stroke-opacity:1"
           d="m 357.92598,49.334385 -0.4333,0.331839 -0.16817,0.148628 -0.36796,0.200749 -0.14034,0.08992 -0.34924,0.223761 -0.25504,0.304991 0.15325,0.513479 0.35305,0.956511 -0.0372,0.450934 -0.0881,1.183113 1.94145,-3.737627 -0.48364,-0.564871 z"
           id="path24464"
           inkscape:connector-curvature="0" />
        <path
           sodipodi:nodetypes="cccccc"
           style="fill:url(#linearGradient24554);fill-opacity:1;fill-rule:evenodd;stroke:none;stroke-width:0.06949539px;stroke-linecap:butt;stroke-linejoin:miter;stroke-opacity:1"
           d="m 355.65475,53.430643 -0.35101,-0.207699 -0.23432,0.471188 0.43048,0.427223 0.58725,-0.570147 z"
           id="path24466"
           inkscape:connector-curvature="0" />
        <path
           inkscape:connector-curvature="0"
           id="path24468"
           d="m 356.89555,53.406073 -0.35101,-0.207699 -0.23432,0.471188 0.41076,0.266026 0.65219,-0.363931 z"
           style="fill:url(#linearGradient24556);fill-opacity:1;fill-rule:evenodd;stroke:none;stroke-width:0.06949539px;stroke-linecap:butt;stroke-linejoin:miter;stroke-opacity:1"
           sodipodi:nodetypes="cccccc" />
        <path
           inkscape:connector-curvature="0"
           d="m 357.27494,50.119033 c 0.15064,-0.02396 0.31068,-0.07471 0.47895,-0.156562 0.10491,-0.05096 0.15009,-0.175117 0.10445,-0.281176 -0.12366,0.07571 -0.40782,0.254091 -0.50277,0.351674 -0.0286,0.02942 -0.0551,0.05803 -0.0806,0.08606 z"
           id="path24470"
           style="fill:#333333;stroke-width:0.02716676" />
        <circle
           r="0.61122507"
           transform="rotate(-7.4121351)"
           cx="346.56601"
           cy="93.494278"
           id="circle24472"
           style="fill:#333333;stroke-width:0.02716556" />
        <path
           inkscape:connector-curvature="0"
           d="m 355.90147,51.014042 c -0.0196,0.0107 -0.0418,0.01635 -0.064,0.01635 -0.048,0 -0.092,-0.02592 -0.11462,-0.06756 l -0.0597,-0.109836 c -0.005,2.45e-4 -0.009,6.52e-4 -0.0143,6.52e-4 -0.008,0 -0.0162,-3.26e-4 -0.0246,-0.0011 -0.27172,-0.02437 -0.50361,-0.08359 -0.69345,-0.176829 0.0141,0.03744 0.0287,0.07566 0.0436,0.114644 0.002,0.0047 0.003,0.0094 0.005,0.0141 l -3e-5,2.7e-5 v 0 c 0,5.4e-5 8e-5,2.17e-4 3.8e-4,9.78e-4 h 6e-5 v -2.7e-5 0 c 0,0 0,0 0,0 v 2.7e-5 c 0.0106,0.02575 0.20451,0.529589 0.20394,1.262521 0,0.375662 -0.0502,0.811471 -0.19949,1.279038 -0.0571,0.178648 0.0415,0.369739 0.22011,0.426817 0.0344,0.01097 0.0692,0.01619 0.10345,0.01619 0.14379,0 0.27729,-0.09204 0.32336,-0.236351 0.17327,-0.542438 0.23179,-1.049696 0.23179,-1.485695 -2.7e-4,-0.367214 -0.0413,-0.683924 -0.0903,-0.931983 0.0595,0.042 0.16346,0.127575 0.26461,0.269738 0.14797,0.209809 0.29921,0.539641 0.30052,1.080585 0,0.24423 -0.0321,0.5316 -0.11359,0.868223 -0.0442,0.182289 0.0678,0.365828 0.25007,0.409974 0.0268,0.0065 0.0538,0.0096 0.0803,0.0096 0.15314,2.7e-5 0.2921,-0.104266 0.32981,-0.259687 0.0927,-0.38297 0.13265,-0.724429 0.1326,-1.028127 0.002,-0.717012 -0.22804,-1.222395 -0.47126,-1.534949 -0.0582,-0.07528 -0.11647,-0.139447 -0.172,-0.194133 -0.24086,0.130998 -0.47218,0.25678 -0.47218,0.25678 z"
           id="path24474"
           style="fill:#333333;stroke-width:0.02716676" />
        <path
           inkscape:connector-curvature="0"
           d="m 355.8755,50.966283 c 0,0 0.75162,-0.40867 0.95569,-0.5197 0.20419,-0.110949 0.30647,-0.267647 0.48545,-0.451458 0.12861,-0.13222 0.57338,-0.396498 0.57338,-0.396498 l 0.0401,-0.0229 c 0,0 0.0403,-0.02266 0.0501,-0.02804 0,0 0.063,-0.03339 0.0442,-0.06803 l -0.0767,-0.140886 c -0.0188,-0.03458 -0.081,1.35e-4 -0.081,1.35e-4 -0.01,0.0052 -0.0508,0.02673 -0.0508,0.02673 l -0.041,0.02122 c 0,0 -0.46355,0.229695 -0.64448,0.265745 -0.25156,0.05031 -0.43863,0.05107 -0.64282,0.162104 -0.16949,0.09218 -0.71603,0.389381 -0.89675,0.48767 0.0264,0.0033 0.0536,0.0065 0.0821,0.009 0.14917,0.01339 0.25963,0.145723 0.24621,0.294895 -0.0105,0.116383 -0.0916,0.20894 -0.19905,0.237818 l 0.0504,0.09269 c 0.0201,0.03687 0.067,0.0501 0.10498,0.02945 z"
           id="path24476"
           style="fill:#333333;stroke-width:0.02716676" />
        <circle
           style="fill:#333333;filter:url(#filter16663)"
           id="circle24478"
           cy="22.502001"
           cx="49.369999"
           transform="matrix(0.02693856,-0.00350451,0.00350451,0.02693856,354.32252,47.570905)"
           r="22.5" />
        <path
           style="fill:#333333;filter:url(#filter16631)"
           id="path24480"
           d="m 10.349,111.838 c 7.595,7.356 19.128,12.081 35.257,13.525 0.243,0.021 0.485,0.032 0.725,0.032 4.096,0 7.585,-3.126 7.96,-7.284 0.396,-4.401 -2.85,-8.288 -7.251,-8.683 -13.845,-1.251 -21.472,-5.094 -25.545,-9.068 -4.046,-3.986 -5.434,-8.526 -5.494,-13.851 -0.025,-4.94 1.507,-10.272 3.395,-14.218 l 2.021,0.397 c -1.672,3.342 -3.441,8.716 -3.416,13.811 0.06,5.318 1.571,9.159 4.896,12.435 2.724,2.658 8.014,5.932 18.045,7.677 0.045,-0.027 0.083,-0.062 0.129,-0.087 L 60.884,95.75 c -0.252,-4.938 0.388,-9.496 1.649,-14.047 0.882,1.177 1.848,2.386 2.924,3.608 1.521,1.717 3.259,3.452 5.21,5.118 l 5.581,-3.035 c 4.354,-2.367 8.444,-3.434 12.823,-4.23 -0.97,-0.384 -1.901,-0.819 -2.8,-1.298 C 81.048,79.08 76.983,74.592 74.325,70.715 72.996,68.787 72.018,67.039 71.399,65.821 71.09,65.211 70.868,64.736 70.733,64.435 70.666,64.286 70.62,64.179 70.597,64.124 L 70.591,64.11 C 70.263,63.285 69.81,62.55 69.267,61.906 68.012,58.282 63.502,54.215 60.051,53.876 47.537,52.754 35.024,51.629 22.508,50.508 c -1.68,-0.165 -4.14,0.638 -6.497,1.991 -1.164,0.465 -2.018,1.058 -2.783,1.607 C 11.139,55.713 9.685,57.51 8.207,59.649 6.441,62.297 4.741,65.505 3.348,69.133 1.396,74.215 0.05,80.12 0.001,86.51 c -0.058,8.427 2.727,17.981 10.348,25.328 z"
           inkscape:connector-curvature="0"
           transform="matrix(0.02716676,0,0,0.02716676,354.39018,47.39274)" />
        <path
           style="fill:#333333;filter:url(#filter16641)"
           id="path24482"
           d="m 55.63,133.299 c -0.723,0.394 -1.539,0.602 -2.355,0.602 -1.768,0 -3.385,-0.954 -4.219,-2.487 l -2.199,-4.043 c -0.175,0.009 -0.349,0.024 -0.526,0.024 -0.296,0 -0.598,-0.012 -0.904,-0.04 -10.002,-0.897 -18.538,-3.077 -25.526,-6.509 0.521,1.378 1.058,2.785 1.606,4.22 0.062,0.173 0.112,0.347 0.182,0.519 l -0.001,0.001 v 0 c 0,0.002 0.003,0.008 0.014,0.036 h 0.002 v -0.001 0 c 0,0 0,0 0,0 v 0.001 c 0.389,0.948 7.528,19.494 7.507,46.473 0,13.828 -1.847,29.87 -7.343,47.081 -2.103,6.576 1.526,13.61 8.102,15.711 1.265,0.404 2.547,0.596 3.808,0.596 5.293,0 10.207,-3.388 11.903,-8.7 6.378,-19.967 8.532,-38.639 8.532,-54.688 -0.01,-13.517 -1.519,-25.175 -3.325,-34.306 2.19,1.546 6.017,4.696 9.74,9.929 5.447,7.723 11.014,19.864 11.062,39.776 0,8.99 -1.18,19.568 -4.181,31.959 -1.625,6.71 2.495,13.466 9.205,15.091 0.988,0.239 1.979,0.354 2.954,0.354 5.637,0.001 10.752,-3.838 12.14,-9.559 3.413,-14.097 4.883,-26.666 4.881,-37.845 0.063,-26.393 -8.394,-44.996 -17.347,-56.501 -2.143,-2.771 -4.287,-5.133 -6.331,-7.146 -8.866,4.822 -17.381,9.452 -17.381,9.452 z"
           inkscape:connector-curvature="0"
           transform="matrix(0.02716676,0,0,0.02716676,354.39018,47.39274)" />
        <path
           inkscape:connector-curvature="0"
           d="m 354.67133,50.431016 c 0.20633,0.199839 0.51964,0.328202 0.95782,0.367431 0.007,5.7e-4 0.0132,8.69e-4 0.0197,8.69e-4 0.11128,0 0.20606,-0.08492 0.21625,-0.197883 0.0108,-0.119561 -0.0774,-0.225158 -0.19699,-0.235889 -0.37612,-0.03399 -0.58332,-0.138387 -0.69397,-0.246348 -0.10992,-0.108287 -0.14762,-0.231624 -0.14925,-0.376287 -6.8e-4,-0.134204 0.0409,-0.279057 0.0922,-0.386257 l 0.0549,0.01079 c -0.0454,0.09079 -0.0935,0.236786 -0.0928,0.375201 0.002,0.144472 0.0427,0.24882 0.13301,0.337818 0.074,0.07221 0.21771,0.161153 0.49022,0.208559 0.001,-7.33e-4 0.002,-0.0017 0.004,-0.0024 l 0.53825,-0.292695 c -0.007,-0.134149 0.0105,-0.257975 0.0448,-0.381611 0.024,0.03197 0.0502,0.06482 0.0794,0.09802 0.0413,0.04665 0.0885,0.09378 0.14154,0.13904 l 0.15162,-0.08245 c 0.11829,-0.0643 0.2294,-0.09329 0.34836,-0.114916 -0.0264,-0.01043 -0.0516,-0.02225 -0.0761,-0.03526 -0.14189,-0.07569 -0.25232,-0.197611 -0.32453,-0.302937 -0.0361,-0.05238 -0.0627,-0.09987 -0.0795,-0.132954 -0.008,-0.01657 -0.0144,-0.02948 -0.0181,-0.03765 -0.002,-0.004 -0.003,-0.007 -0.004,-0.0084 l -1.6e-4,-3.8e-4 c -0.009,-0.02241 -0.0212,-0.04238 -0.036,-0.05988 -0.0341,-0.09845 -0.15662,-0.208939 -0.25037,-0.218149 -0.33996,-0.03048 -0.6799,-0.06104 -1.01992,-0.0915 -0.0456,-0.0045 -0.11247,0.01733 -0.1765,0.05409 -0.0316,0.01263 -0.0548,0.02874 -0.0756,0.04366 -0.0568,0.04366 -0.0962,0.09248 -0.1364,0.150585 -0.048,0.07194 -0.0942,0.159089 -0.13201,0.25765 -0.053,0.138061 -0.0896,0.298481 -0.0909,0.472076 -0.002,0.228935 0.0741,0.488486 0.28112,0.68808 z"
           id="path24484"
           style="fill:#333333;stroke-width:0.02716676" />
        <path
           style="fill:#333333;filter:url(#filter16669)"
           id="path24486"
           d="m 54.674,131.541 c 0,0 27.667,-15.043 35.179,-19.13 7.516,-4.084 11.281,-9.852 17.869,-16.618 4.734,-4.867 21.106,-14.595 21.106,-14.595 l 1.476,-0.843 c 0,0 1.485,-0.834 1.844,-1.032 0,0 2.318,-1.229 1.626,-2.504 l -2.822,-5.186 c -0.691,-1.273 -2.982,0.005 -2.982,0.005 -0.362,0.192 -1.869,0.984 -1.869,0.984 l -1.511,0.781 c 0,0 -17.063,8.455 -23.723,9.782 -9.26,1.852 -16.146,1.88 -23.662,5.967 -6.239,3.393 -26.357,14.333 -33.009,17.951 0.973,0.123 1.972,0.238 3.023,0.333 5.491,0.493 9.557,5.364 9.063,10.855 -0.387,4.284 -3.371,7.691 -7.327,8.754 l 1.855,3.412 c 0.74,1.357 2.467,1.844 3.864,1.084 z"
           inkscape:connector-curvature="0"
           transform="matrix(0.02716676,0,0,0.02716676,354.39018,47.39274)" />
        <path
           inkscape:connector-curvature="0"
           d="m 358.20411,49.378797 0.13693,-0.05564 c 0.0197,0.0345 0.0394,0.0573 0.0522,0.05205 l 0.18248,-0.07414 c 0.0417,-0.01695 0.0618,-0.06449 0.0448,-0.106195 l -0.0512,-0.125836 c -0.0169,-0.04167 -0.0645,-0.06175 -0.1062,-0.0448 l -0.18245,0.07414 c -0.0129,0.0052 -0.011,0.03526 -10e-4,0.07379 l -0.13689,0.05564 c -0.0417,0.01695 -0.0618,0.06449 -0.0448,0.106194 0.017,0.04167 0.0645,0.06175 0.10619,0.0448 z"
           id="path24498"
           style="fill:#333333;stroke-width:0.02716676" />
      </g>
      <g
         transform="translate(-10.073561,6.168641)"
         id="g25426">
        <path
           inkscape:connector-curvature="0"
           id="path24382"
           d="m 362.86074,38.324519 -0.11604,0.27849 -0.0812,0.22047 -0.0232,0.174057 0.0696,0.243678 0.16245,0.162452 0.26688,0.127641 0.23208,0.197263 0.0812,0.324905 0.0116,0.162453 -0.15085,0.394527 0.27849,0.266886 0.78906,-1.032733 z"
           style="fill:url(#linearGradient24516);fill-opacity:1;fill-rule:evenodd;stroke:none;stroke-width:0.0449402px;stroke-linecap:butt;stroke-linejoin:miter;stroke-opacity:1" />
        <path
           sodipodi:nodetypes="cccccccccccccccccccccccccccccc"
           style="fill:url(#linearGradient24540);fill-opacity:1;fill-rule:evenodd;stroke:none;stroke-width:0.0449402px;stroke-linecap:butt;stroke-linejoin:miter;stroke-opacity:1"
           d="m 364.35171,39.28937 0.0826,0.258629 0.0856,0.240332 0.0285,0.174056 -0.0297,0.188067 -0.23477,0.277647 -0.003,0.139557 0.25988,0.17343 0.0653,0.08657 -0.27042,0.182314 -0.19057,0.07675 -0.0288,0.08176 10e-4,0.126347 0.0968,0.129245 0.1844,0.03259 0.1422,0.08015 0.0548,0.08957 -0.0239,0.07032 -0.28341,0.130059 -0.21911,0.132645 -0.0936,0.0814 4e-4,0.09418 0.0497,0.09025 0.24318,0.126297 0.0952,0.06675 0.0252,0.117966 -0.19138,0.512165 0.73449,0.731825 0.77836,-3.333618 z"
           id="path24406"
           inkscape:connector-curvature="0" />
        <g
           id="g24458"
           style="fill:#333333"
           transform="matrix(0.01661513,0,0,0.01661513,360.95525,38.289358)">
          <path
             inkscape:connector-curvature="0"
             d="M 150.906,97.576 C 149.199,80.378 135.028,69.581 120.249,63.18 c -7.088,-3.071 -13.156,-6.224 -16.563,-13.542 -0.63,-1.354 -1.04,-2.801 -1.4,-4.245 -0.18,-0.718 -0.284,-1.655 -0.345,-2.552 0.361,-2.628 0.969,-5.23 1.663,-7.777 C 105.992,26.305 110.028,17.608 115,10 c 1.548,-2.369 -1.503,-7.7 0,-10 -4.831,7.393 -8.588,15.714 -11.133,24.15 -1.893,6.271 -2.366,12.488 -2.366,18.995 0,6.626 0.041,12.965 3.426,18.891 4.149,7.266 12.029,9.524 19.118,12.857 7.794,3.664 15.012,8.742 20.241,15.649 2.266,2.993 3.909,6.399 5.108,9.942 0.551,1.629 0.907,3.316 1.218,5.004 0.114,0.622 0.197,1.25 0.268,1.88 -0.006,0.076 -0.012,0.152 -0.02,0.226 -1.005,10.136 -5.034,19.872 -9.526,28.905 -1.344,2.701 1.313,7.359 0,10 7.765,-15.611 11.299,-31.52 9.572,-48.923 z M 101.86,40.207 c 0.002,-0.375 0.01,-0.44 0,0 z m 49.044,66.785 c -0.344,-5.59 0.129,-2.531 0,0 z"
             id="path24454"
             style="fill:#333333" />
          <path
             inkscape:connector-curvature="0"
             d="m 214.18,117.666 c 3.203,-7.209 2.597,-16.096 2.187,-23.76 C 215.723,81.825 209.929,70.275 204,60.002 c 1.424,2.466 -1.461,7.468 0,10 4.634,8.028 8.728,16.4 11.028,25.416 0.402,1.578 0.695,3.182 0.949,4.789 0.036,0.228 0.066,0.477 0.092,0.735 -0.264,1.692 -0.669,3.363 -1.213,4.984 -2.426,7.237 -8.084,12.001 -13.745,16.702 -1.438,1.193 -3.362,2.646 -3.703,4.61 -0.439,2.527 -0.079,5.402 -0.064,7.948 0.008,1.39 -0.172,2.78 0.565,4.008 2.351,3.914 8.84,6.047 12.408,8.279 2.005,1.254 5.164,3.021 7.607,5.198 -3.792,2.043 -9.614,2.938 -12.143,3.708 -6.586,2.006 -15.809,5.013 -16.448,13.121 -0.815,10.333 -0.94,21.186 10.145,25.392 4.376,1.66 14.528,1.636 18.701,5.639 -0.478,0.668 -1.034,1.281 -1.621,1.846 -1.954,1.884 -4.625,2.978 -7.134,3.887 -6.098,2.211 -12.616,2.982 -18.706,5.238 -5.38,1.993 -9.29,5.54 -9.578,11.507 -0.246,5.096 -1.135,12.169 1.763,16.748 3.928,6.208 13.474,5.908 19.314,9.32 1.428,0.833 2.608,1.98 3.487,3.375 0.218,0.346 0.39,0.715 0.541,1.093 -1.942,8.35 -6.924,16.296 -11.247,23.454 -1.494,2.475 1.454,7.592 0,10 4.974,-8.235 10.625,-17.36 11.908,-27.1 0.655,-4.982 1.316,-12.349 -0.98,-17.048 -3.553,-7.27 -14.939,-6.373 -20.834,-10.775 -1.318,-0.984 -2.274,-2.299 -2.944,-3.775 0.37,-0.759 0.832,-1.475 1.35,-2.142 3.916,-5.051 11.989,-6.232 17.777,-7.629 5.968,-1.439 13.268,-2.855 17.048,-8.199 1.66,-2.347 1.703,-5.226 1.719,-7.976 0.019,-3.132 0.706,-7.21 -0.545,-10.193 -1.782,-4.251 -9.373,-4.683 -13.143,-5.451 -5.758,-1.173 -11.883,-2.82 -15.183,-8.105 -0.472,-0.757 -0.799,-1.588 -1.064,-2.438 0.821,-1.948 2.425,-3.491 4.091,-4.728 4.276,-3.177 9.85,-4.567 14.878,-6.041 3.714,-1.089 8.48,-1.953 11.365,-4.743 0.708,-0.686 0.918,-1.495 0.983,-2.362 0,-0.001 0,-0.001 0,-0.002 0.035,-0.474 0.029,-0.963 0.035,-1.461 0.033,-2.992 0.634,-6.682 -0.251,-9.594 -1.744,-5.741 -11.092,-9.969 -15.686,-12.659 -1.041,-0.609 -2.681,-1.349 -4.217,-2.277 0.981,-0.756 1.96,-1.435 2.687,-2.037 4.244,-3.513 7.93,-7.516 10.188,-12.598 z m 2.019,-12.748 c -0.004,0.029 -0.007,0.058 -0.01,0.086 -0.004,-0.121 -0.002,-0.521 0.015,-1.308 0.007,0.567 0.001,1.014 -0.005,1.222 z m -9.285,151.104 c 0.247,1.826 0.033,3.62 0,0 z"
             id="path24456"
             style="fill:#333333" />
        </g>
      </g>
      <g
         transform="matrix(0.8532103,0,0,0.8532103,40.759297,10.748479)"
         id="g25419">
        <path
           sodipodi:nodetypes="ccccc"
           inkscape:connector-curvature="0"
           id="path24384"
           d="m 361.65014,40.518755 -0.12616,0.137435 0.39078,0.29846 0.0513,-0.04102 z"
           style="fill:url(#linearGradient24518);fill-opacity:1;fill-rule:evenodd;stroke:none;stroke-width:0.0449402px;stroke-linecap:butt;stroke-linejoin:miter;stroke-opacity:1" />
        <path
           sodipodi:nodetypes="ccccc"
           style="fill:url(#linearGradient24520);fill-opacity:1;fill-rule:evenodd;stroke:none;stroke-width:0.0449402px;stroke-linecap:butt;stroke-linejoin:miter;stroke-opacity:1"
           d="m 361.6721,41.159953 -0.14716,0.107941 0.42112,0.363384 0.0499,-0.0513 z"
           id="path24386"
           inkscape:connector-curvature="0" />
        <path
           style="fill:url(#linearGradient24522);fill-opacity:1;fill-rule:evenodd;stroke:none;stroke-width:0.0449402px;stroke-linecap:butt;stroke-linejoin:miter;stroke-opacity:1"
           d="m 361.63578,40.633627 -0.0599,-0.01729 -0.0519,0.03985 0.39077,0.29846 0.009,-0.02974 z"
           id="path24388"
           inkscape:connector-curvature="0"
           sodipodi:nodetypes="cccccc" />
        <path
           sodipodi:nodetypes="cccccc"
           style="fill:url(#linearGradient24524);fill-opacity:1;fill-rule:evenodd;stroke:none;stroke-width:0.0449402px;stroke-linecap:butt;stroke-linejoin:miter;stroke-opacity:1"
           d="m 361.35033,42.064552 -0.0661,0.0025 -0.0257,0.06955 0.29395,0.237231 0.0294,-0.01848 z"
           id="path24390"
           inkscape:connector-curvature="0" />
        <path
           inkscape:connector-curvature="0"
           id="path24392"
           d="m 361.31584,41.956279 -0.0465,0.03362 -0.0384,0.0074 -0.018,0.02884 -0.0494,0.04245 0.33567,0.235504 0.0294,-0.01848 z"
           style="fill:url(#linearGradient24526);fill-opacity:1;fill-rule:evenodd;stroke:none;stroke-width:0.0449402px;stroke-linecap:butt;stroke-linejoin:miter;stroke-opacity:1"
           sodipodi:nodetypes="cccccccc" />
        <path
           inkscape:connector-curvature="0"
           id="path24394"
           d="m 362.6396,40.906935 -0.0273,0.04669 -0.0394,0.01699 -10e-4,0.03939 -0.0433,0.05087 0.31262,0.216519 0.0294,-0.01848 z"
           style="fill:url(#linearGradient24528);fill-opacity:1;fill-rule:evenodd;stroke:none;stroke-width:0.0449402px;stroke-linecap:butt;stroke-linejoin:miter;stroke-opacity:1"
           sodipodi:nodetypes="cccccccc" />
        <path
           sodipodi:nodetypes="cccccccc"
           style="fill:url(#linearGradient24530);fill-opacity:1;fill-rule:evenodd;stroke:none;stroke-width:0.0449402px;stroke-linecap:butt;stroke-linejoin:miter;stroke-opacity:1"
           d="m 363.11863,40.855584 -0.051,0.0421 -0.027,0.0098 -0.0126,0.03403 -0.0359,0.05274 0.31671,0.220015 0.0294,-0.01848 z"
           id="path24396"
           inkscape:connector-curvature="0" />
        <path
           sodipodi:nodetypes="cccccccc"
           style="fill:url(#linearGradient24532);fill-opacity:1;fill-rule:evenodd;stroke:none;stroke-width:0.0449402px;stroke-linecap:butt;stroke-linejoin:miter;stroke-opacity:1"
           d="m 361.10731,42.612682 -0.0547,0.03288 -0.0123,0.0429 -0.0379,-0.0099 -0.0462,0.04593 0.3523,0.270756 0.0294,-0.01848 z"
           id="path24398"
           inkscape:connector-curvature="0" />
        <path
           sodipodi:nodetypes="cccccccc"
           style="fill:url(#linearGradient25213);fill-opacity:1;fill-rule:evenodd;stroke:none;stroke-width:0.0449402px;stroke-linecap:butt;stroke-linejoin:miter;stroke-opacity:1"
           d="m 362.37046,43.02579 -0.0465,0.03362 -0.0384,0.0074 -0.018,0.02884 -0.0494,0.04245 0.33567,0.235504 0.0294,-0.01848 z"
           id="path24400"
           inkscape:connector-curvature="0" />
        <path
           sodipodi:nodetypes="cccccc"
           style="fill:url(#linearGradient25215);fill-opacity:1;fill-rule:evenodd;stroke:none;stroke-width:0.0449402px;stroke-linecap:butt;stroke-linejoin:miter;stroke-opacity:1"
           d="m 363.13532,41.963552 -0.0746,0.0275 0.0372,0.08252 0.22683,0.162475 0.0294,-0.01848 z"
           id="path24402"
           inkscape:connector-curvature="0" />
        <path
           inkscape:connector-curvature="0"
           id="path24404"
           d="m 363.04052,41.894214 -0.0354,0.07996 -0.0233,0.100102 0.34296,0.161773 0.0294,-0.01848 z"
           style="fill:url(#linearGradient24536);fill-opacity:1;fill-rule:evenodd;stroke:none;stroke-width:0.0449402px;stroke-linecap:butt;stroke-linejoin:miter;stroke-opacity:1"
           sodipodi:nodetypes="cccccc" />
        <path
           style="fill:#333333;stroke-width:0.01661513"
           id="path24422"
           d="m 362.99772,43.048813 c 0.0382,0.07517 0.059,0.109826 0.0619,0.105589 0.003,-0.004 -0.0105,-0.0424 -0.0404,-0.115026 -0.17761,-0.464809 -0.28353,-0.96195 -0.26205,-1.449803 0.006,-0.157545 -0.006,-0.288589 -0.0518,-0.295667 -0.0442,-0.0071 -0.0974,0.126159 -0.0909,0.29457 0.0188,0.514736 0.16821,1.007641 0.38319,1.460337 z"
           inkscape:connector-curvature="0" />
        <path
           style="fill:#333333;stroke-width:0.01661513"
           id="path24424"
           d="m 361.68055,42.377877 c -0.14401,-0.05561 -0.27597,-0.04283 -0.28222,0.0016 -0.007,0.04609 0.10153,0.09447 0.23771,0.133968 0.42347,0.120393 0.81349,0.370368 1.15024,0.669872 0.052,0.04888 0.0806,0.07229 0.085,0.07091 0.005,-0.0014 -0.0176,-0.03064 -0.0685,-0.08763 -0.31238,-0.330009 -0.68225,-0.619926 -1.12224,-0.788703 z"
           inkscape:connector-curvature="0" />
        <path
           style="fill:#333333;stroke-width:0.01661513"
           id="path24426"
           d="m 362.66976,42.816916 c 0.053,0.07138 0.0825,0.106934 0.0879,0.107499 0.006,6.32e-4 -0.0165,-0.03958 -0.0688,-0.12124 -0.32231,-0.471139 -0.73387,-0.898613 -1.25577,-1.173576 -0.17035,-0.09052 -0.33347,-0.101752 -0.34486,-0.05875 -0.0126,0.04527 0.11951,0.114295 0.28348,0.187519 0.50989,0.223888 0.94687,0.613513 1.2981,1.05855 z"
           inkscape:connector-curvature="0" />
        <path
           style="fill:#333333;stroke-width:0.01661513"
           id="path24428"
           d="m 362.40243,42.051805 c 0.0282,0.0643 0.0445,0.09467 0.0481,0.09208 0.003,-0.0025 -0.005,-0.03604 -0.0261,-0.100272 -0.12488,-0.402302 -0.22261,-0.819508 -0.22952,-1.231646 -10e-4,-0.132589 -0.0226,-0.24082 -0.0683,-0.246336 -0.0451,-0.0057 -0.089,0.111238 -0.0742,0.254045 0.0488,0.434286 0.18733,0.840344 0.34993,1.232128 z"
           inkscape:connector-curvature="0" />
        <polygon
           style="fill:#333333"
           id="polygon24430"
           points="129.039,227.871 128.363,223.93 131.227,221.139 127.27,220.564 125.5,216.979 123.73,220.564 119.773,221.139 122.637,223.93 121.961,227.871 125.5,226.01 "
           transform="matrix(0.01661513,0,0,0.01661513,360.95525,38.289358)" />
        <polygon
           style="fill:#333333"
           id="polygon24432"
           points="37.035,176.576 34.188,179.384 38.149,179.936 39.939,183.51 41.688,179.915 45.642,179.316 42.762,176.543 43.415,172.597 39.886,174.479 36.337,172.64 "
           transform="matrix(0.01661513,0,0,0.01661513,360.95525,38.289358)" />
        <polygon
           style="fill:#333333"
           id="polygon24434"
           points="41.167,141.298 39.732,137.566 41.995,134.269 38.001,134.479 35.564,131.31 34.53,135.171 30.762,136.51 34.117,138.688 34.226,142.683 37.332,140.167 "
           transform="matrix(0.01661513,0,0,0.01661513,360.95525,38.289358)" />
        <polygon
           style="fill:#333333"
           id="polygon24436"
           points="20,228 23.953,227.401 21.073,224.627 21.727,220.682 18.197,222.564 14.648,220.725 15.347,224.661 12.5,227.469 16.461,228.021 18.251,231.595 "
           transform="matrix(0.01661513,0,0,0.01661513,360.95525,38.289358)" />
        <polygon
           style="fill:#333333"
           id="polygon24438"
           points="11.453,266.901 8.573,264.127 9.227,260.182 5.697,262.064 2.148,260.225 2.847,264.161 0,266.969 3.961,267.521 5.751,271.095 7.5,267.5 "
           transform="matrix(0.01661513,0,0,0.01661513,360.95525,38.289358)" />
        <polygon
           style="fill:#333333"
           id="polygon24440"
           points="83.5,292.372 87.453,291.773 84.573,289 85.227,285.054 81.697,286.936 78.148,285.097 78.847,289.033 76,291.841 79.961,292.393 81.751,295.967 "
           transform="matrix(0.01661513,0,0,0.01661513,360.95525,38.289358)" />
        <polygon
           style="fill:#333333"
           id="polygon24442"
           points="129.005,165.777 129.998,161.904 133.752,160.527 130.375,158.385 130.225,154.39 127.146,156.939 123.299,155.847 124.771,159.565 122.545,162.885 126.535,162.633 "
           transform="matrix(0.01661513,0,0,0.01661513,360.95525,38.289358)" />
        <polygon
           style="fill:#333333"
           id="polygon24444"
           points="94.689,159.747 96.558,163.282 94.706,166.825 98.646,166.14 101.442,168.997 102.009,165.039 105.59,163.26 102,161.5 101.416,157.544 98.632,160.414 "
           transform="matrix(0.01661513,0,0,0.01661513,360.95525,38.289358)" />
        <path
           inkscape:connector-curvature="0"
           id="path24502"
           d="m 361.70287,41.26867 -0.0661,0.0025 -0.0155,0.06443 0.28368,0.242359 0.0294,-0.01848 z"
           style="fill:url(#linearGradient24558);fill-opacity:1;fill-rule:evenodd;stroke:none;stroke-width:0.0449402px;stroke-linecap:butt;stroke-linejoin:miter;stroke-opacity:1"
           sodipodi:nodetypes="cccccc" />
        <path
           sodipodi:nodetypes="cccccc"
           style="fill:url(#linearGradient24560);fill-opacity:1;fill-rule:evenodd;stroke:none;stroke-width:0.0449402px;stroke-linecap:butt;stroke-linejoin:miter;stroke-opacity:1"
           d="m 362.70841,41.001731 -0.0661,0.01664 -0.001,0.07833 0.26979,0.228457 0.0294,-0.01848 z"
           id="path24504"
           inkscape:connector-curvature="0" />
        <path
           inkscape:connector-curvature="0"
           id="path24506"
           d="m 363.17723,40.956379 -0.0661,0.01664 -0.0127,0.07038 0.28097,0.236401 0.0294,-0.01848 z"
           style="fill:url(#linearGradient24562);fill-opacity:1;fill-rule:evenodd;stroke:none;stroke-width:0.0449402px;stroke-linecap:butt;stroke-linejoin:miter;stroke-opacity:1"
           sodipodi:nodetypes="cccccc" />
        <path
           inkscape:connector-curvature="0"
           id="path24508"
           d="m 361.14551,42.723262 -0.0353,0.0052 -0.0312,0.0041 -0.0126,0.02635 -0.016,0.03337 0.32953,0.299203 0.0294,-0.01848 z"
           style="fill:url(#linearGradient24564);fill-opacity:1;fill-rule:evenodd;stroke:none;stroke-width:0.0449402px;stroke-linecap:butt;stroke-linejoin:miter;stroke-opacity:1"
           sodipodi:nodetypes="cccccccc" />
        <path
           inkscape:connector-curvature="0"
           id="path24510"
           d="m 362.40697,43.136737 -0.036,0.0062 -0.0279,0.0039 -0.0166,0.03164 -0.0129,0.027 0.24017,0.168093 0.0294,-0.01848 z"
           style="fill:url(#linearGradient24534);fill-opacity:1;fill-rule:evenodd;stroke:none;stroke-width:0.0449402px;stroke-linecap:butt;stroke-linejoin:miter;stroke-opacity:1"
           sodipodi:nodetypes="cccccccc" />
      </g>
    </g>
  </g>
</svg>
