<?xml version="1.0" encoding="UTF-8" standalone="no"?>
<svg
   xmlns:dc="http://purl.org/dc/elements/1.1/"
   xmlns:cc="http://creativecommons.org/ns#"
   xmlns:rdf="http://www.w3.org/1999/02/22-rdf-syntax-ns#"
   xmlns:svg="http://www.w3.org/2000/svg"
   xmlns="http://www.w3.org/2000/svg"
   xmlns:xlink="http://www.w3.org/1999/xlink"
   xmlns:sodipodi="http://sodipodi.sourceforge.net/DTD/sodipodi-0.dtd"
   xmlns:inkscape="http://www.inkscape.org/namespaces/inkscape"
   version="1.1"
   x="0px"
   y="0px"
   viewBox="0 0 400 300"
   enable-background="new 0 0 100 100"
   xml:space="preserve"
   id="svg3555"
   inkscape:version="0.92.2 (5c3e80d, 2017-08-06)"
   sodipodi:docname="Philosophy-caption.svg"
   width="400"
   height="300"><metadata
     id="metadata3593"><rdf:RDF><cc:Work
         rdf:about=""><dc:format>image/svg+xml</dc:format><dc:type
           rdf:resource="http://purl.org/dc/dcmitype/StillImage" /><dc:title></dc:title></cc:Work></rdf:RDF></metadata><defs
     id="defs3591"><linearGradient
       inkscape:collect="always"
       id="linearGradient3349"><stop
         style="stop-color:#168076;stop-opacity:1;"
         offset="0"
         id="stop3351" /><stop
         style="stop-color:#168076;stop-opacity:0;"
         offset="1"
         id="stop3353" /></linearGradient><linearGradient
       inkscape:collect="always"
       xlink:href="#linearGradient3349"
       id="linearGradient3355"
       x1="173.5"
       y1="134.5"
       x2="257.98077"
       y2="195.50703"
       gradientUnits="userSpaceOnUse" /></defs><sodipodi:namedview
     pagecolor="#ffffff"
     bordercolor="#666666"
     borderopacity="1"
     objecttolerance="10"
     gridtolerance="10"
     guidetolerance="10"
     inkscape:pageopacity="0"
     inkscape:pageshadow="2"
     inkscape:window-width="1366"
     inkscape:window-height="713"
     id="namedview3589"
     showgrid="false"
     showborder="false"
     inkscape:zoom="1"
     inkscape:cx="385.36229"
     inkscape:cy="114.92935"
     inkscape:window-x="0"
     inkscape:window-y="0"
     inkscape:window-maximized="1"
     inkscape:current-layer="svg3555"
     showguides="true"
     inkscape:guide-bbox="true"
     fit-margin-top="0"
     fit-margin-left="0"
     fit-margin-right="0"
     fit-margin-bottom="0" /><g
     id="g5597"
     transform="matrix(1.5,0,0,1.5,-627.60924,265.16342)" /><g
     id="g23046"
     inkscape:export-xdpi="90"
     inkscape:export-ydpi="90"><rect
       inkscape:export-ydpi="90"
       inkscape:export-xdpi="90"
       y="0"
       x="0"
       height="300"
       width="400"
       id="rect4420"
       style="opacity:1;fill:#9ddfd3;fill-opacity:1;stroke:none;stroke-width:6.79094839;stroke-linecap:round;stroke-linejoin:round;stroke-miterlimit:4;stroke-dasharray:none;stroke-dashoffset:0;stroke-opacity:1" /><path
       d="M 271.24642,111.83272 C 268.07937,94.83316 254.73191,81.83397 238.0528,78.66491 c -12.67654,-2.49608 -25.52393,-3.66494 -38.0317,-3.66494 -12.84531,0 -25.69063,1.16886 -38.36508,3.66494 -17.01457,3.16906 -29.8578,16.33492 -33.02902,33.00111 -4.836,25.3316 -4.836,51.16751 0,76.3324 3.16914,17.16841 16.34574,30.0009 33.02902,33.16991 12.67445,2.6628 25.51977,3.8317 38.36508,3.8317 12.84322,0 25.51768,-1.1689 38.1963,-3.6671 17.01666,-3.3336 29.86197,-16.3328 33.02902,-33.1657 5.00477,-25.3358 5.00477,-51.1696 0,-76.3345 z"
       id="path21759"
       inkscape:connector-curvature="0"
       style="fill:#3ec2b3;fill-opacity:1" /><path
       inkscape:connector-curvature="0"
       id="path23041"
       d="m 205.3457,86.375 -11.73047,14.22461 -9.32226,8.57812 -16.57031,16.72266 -9.67969,18.75 -2.53666,33.97035 -14.32467,32.27379 c 5.60888,5.18086 12.6567,8.78842 20.47461,10.27344 11.05158,2.32185 22.23352,3.50778 33.43164,3.77344 l 9.93164,-0.002 c 11.13878,-0.26665 22.16608,-1.43383 33.19727,-3.60742 17.01666,-3.3336 29.86224,-16.33116 33.02929,-33.16406 2.47829,-12.5459 3.72614,-25.21485 3.75,-37.86328 L 211.19531,86.392578 Z"
       style="fill:url(#linearGradient3355);fill-opacity:1"
       sodipodi:nodetypes="ccccccccccccccc" /><path
       style="fill:#ffe6d5;fill-opacity:1"
       d="m 179.0691,129.74696 0.8234,-1.0837 0.83048,-1.066 0.8535,-1.05359 5.48047,15.34178 3.80711,0 0.12042,0.15583 0.12041,0.15405 0.12218,0.15406 0.12042,0.14875 0.12572,0.14697 0.12927,0.13989 0.1328,0.13989 0.13458,0.14166 0.13458,0.14167 0.13989,0.1328 0.14167,0.13281 0.1452,0.12927 0.14697,0.12749 0.14875,0.12573 0.14697,0.11864 0.15583,0.12218 0.15406,0.11333 0.15405,0.12042 0.15937,0.10801 0.16114,0.10802 0.16114,0.10625 0.15937,0.10624 0.17,0.10271 0.16645,0.0939 0.16822,0.0939 0.17354,0.0956 0.17531,0.0832 0.16645,0.0885 0.18239,0.0797 0.17353,0.0815 0.17354,0.0814 0.18061,0.0726 0.18239,0.0673 0.18062,0.0655 0.1877,0.0673 0.18061,0.0602 0.18948,0.0549 0.18415,0.0584 0.18239,0.0478 0.1877,0.0478 0.18947,0.046 0.19301,0.0407 0.1877,0.0407 0.19478,0.0319 0.1877,0.0283 0.19302,0.0336 0.18769,0.0195 0.19479,0.0283 0.19478,0.0142 0.19478,0.0124 0.19301,0.0124 0.19479,0.005 0.19478,0.007 0.1877,0 0.19478,0 0.19301,-0.007 0.19656,-0.0124 0.19478,-0.0106 0.19301,-0.0142 0.19478,-0.023 0.1877,-0.0195 0.19302,-0.0266 0.18769,-0.0266 0.19479,-0.0319 0.1877,-0.0407 0.19478,-0.0354 0.1877,-0.0478 0.1877,-0.039 0.18593,-0.0531 0.1877,-0.0531 0.18947,-0.0549 0.18238,-0.0602 0.18593,-0.0584 0.18062,-0.0691 0.18062,-0.0673 0.18061,-0.0744 0.17531,-0.0726 0.18062,-0.0744 0.17353,-0.0779 0.17531,-0.0868 0.17353,-0.0885 0.17354,-0.0868 0.16822,-0.0939 0.16823,-0.0938 0.16645,-0.10093 0.16822,-0.10093 0.16114,-0.10802 0.16114,-0.10802 0.15937,-0.10447 0.16114,-0.1151 0.15583,-0.11333 0.15406,-0.12219 0.14697,-0.12041 0.15229,-0.11864 0.14166,-0.12927 0.14697,-0.12572 0.14167,-0.13458 0.14166,-0.13281 0.14166,-0.13458 0.13281,-0.14166 0.13281,-0.14166 0.13457,-0.14166 0.1275,-0.14698 0.1275,-0.14697 0.45685,-0.54893 5.92316,0 0.0868,0 0.0885,0.007 0.0868,0 0.0797,0.007 0.0868,0.007 0.0868,0.005 0.0903,0.007 0.0797,0.0124 0.085,0.0159 0.0797,0.0142 0.0868,0.0124 0.0832,0.0177 0.0868,0.0212 0.0797,0.0213 0.0903,0.0195 0.0744,0.0195 0.0832,0.0283 0.0797,0.0266 0.0832,0.0248 0.0868,0.0283 0.0726,0.0266 0.0797,0.0336 0.0797,0.0336 0.0832,0.0336 0.0726,0.0336 0.0797,0.0389 0.0761,0.0336 0.0797,0.0407 0.0726,0.0425 0.0726,0.0443 0.0761,0.039 0.0726,0.0496 0.0762,0.0443 0.0655,0.0478 0.0726,0.0478 0.0655,0.046 0.0761,0.0531 0.0655,0.0549 0.0691,0.0531 0.0655,0.046 0.0584,0.0602 0.0655,0.0549 0.062,0.062 0.0708,0.0513 0.0584,0.0602 0.0584,0.0691 0.0549,0.0602 0.062,0.0584 0.0602,0.0673 0.0549,0.062 0.0513,0.0655 0.0514,0.0673 0.0567,0.0655 0.0443,0.0762 0.0549,0.0655 0.0496,0.0691 0.0443,0.0726 0.0478,0.0744 0.046,0.0726 0.0407,0.0726 0.046,0.0744 0.0407,0.0744 0.039,0.0744 0.0336,0.0726 0.0407,0.0832 0.0354,0.0779 0.0319,0.0744 0.0336,0.0779 0.0354,0.0814 0.0301,0.0815 0.0283,0.0797 0.0266,0.0815 0.0248,0.0797 0.0283,0.0815 0.0212,0.0868 0.0195,0.0797 0.0212,0.0797 0.0177,0.0868 0.023,0.0814 0.0106,0.0868 0.0142,0.0797 0.0142,0.0885 0.0142,0.0868 0.007,0.0797 0.0124,0.0885 0.007,0.0868 0,0.0815 0.007,0.0868 0,0.0868 0.004,0.0868 0,0.0868 -0.004,0.0814 0,0.0868 -0.007,0.0868 -0.007,0.0815 -0.007,0.0868 -0.005,0.085 -0.0142,0.0815 -0.0142,0.0885 -0.0142,0.0885 -0.0142,0.0797 -0.0106,0.0868 -0.023,0.0815 -0.0177,0.085 -0.0212,0.0815 -0.023,0.0797 -0.0248,0.0868 -0.0248,0.0814 -0.0266,0.0797 -0.0283,0.0814 -0.0248,0.0797 -0.0336,0.0797 -0.0354,0.0761 -0.0336,0.0779 -0.0319,0.0797 -0.0407,0.0797 -0.0354,0.0761 -0.0372,0.0726 -0.0425,0.0815 -0.0407,0.0726 -0.046,0.0744 -0.0407,0.0744 -0.0443,0.0655 -0.0496,0.0744 -0.0443,0.0726 -0.0549,0.0673 -0.0496,0.0691 -0.0514,0.0744 -0.0549,0.0655 -0.0531,0.062 -0.0514,0.0637 -0.0549,0.0691 -0.0584,0.0602 -0.062,0.0655 -0.0531,0.062 -0.0691,0.0602 -0.0584,0.0602 -0.0584,0.0513 -0.0691,0.062 -0.0584,0.0549 -0.0708,0.0531 -0.0655,0.0531 -0.0691,0.0514 -0.0655,0.0567 -0.0691,0.0478 -0.0726,0.0514 -0.0655,0.0496 -0.0726,0.046 -0.0761,0.0443 -0.0797,-0.13281 -0.0797,-0.12749 -0.0868,-0.1275 -0.085,-0.12041 -0.0868,-0.12042 -0.0974,-0.12572 -0.0939,-0.12218 -0.0921,-0.1151 -0.10093,-0.12042 -0.10094,-0.11333 -0.0992,-0.11332 -0.10447,-0.10625 -0.10802,-0.11333 -0.10271,-0.10979 -0.10801,-0.10093 -0.11333,-0.10625 -0.10802,-0.10093 -0.12041,-0.0992 -0.11333,-0.10093 -0.1151,-0.0939 -0.12042,-0.0956 -0.12218,-0.0921 -0.12749,-0.0868 -0.12042,-0.0885 -0.12926,-0.0868 -0.12396,-0.0797 -0.12749,-0.0868 -0.1275,-0.0744 -0.13635,-0.0797 -0.13103,-0.0726 -0.13458,-0.0744 -0.13458,-0.0673 -0.13458,-0.0691 -0.13989,-0.0673 -0.14166,-0.0584 -0.13281,-0.0602 -0.14166,-0.062 -0.13989,-0.0531 -0.14698,-0.0531 -0.13989,-0.0478 -0.14874,-0.046 -0.14167,-0.0478 -0.14697,-0.0389 -0.14875,-0.0425 -0.14874,-0.0372 -0.1452,-0.0354 -0.14698,-0.0337 -0.15583,-0.0336 -0.1452,-0.0266 -0.14697,-0.0177 -0.15406,-0.0283 -0.14697,-0.0142 -0.15583,-0.0195 -0.14698,-0.0142 -0.15582,-0.0142 -0.14698,-0.005 -0.15406,-0.007 -0.15405,-0.005 -0.15229,0 -0.14874,0 -0.15406,0.005 -0.15583,0.007 -0.1452,0.005 -0.15583,0.0142 -0.1452,0.0142 -0.15583,0.0195 -0.14698,0.0213 -0.15405,0.0212 -0.14875,0.0248 -0.14697,0.0266 -0.15229,0.0336 -0.14874,0.0337 -0.14521,0.0354 -0.14874,0.0301 -0.14875,0.0496 -0.13989,0.039 -14.84597,4.53135 -6.21887,0 -0.15406,0 -0.15406,-0.007 -0.14697,-0.007 -0.15583,-0.007 -0.15406,-0.0124 -0.15405,-0.0142 -0.14698,-0.0142 -0.15406,-0.0177 -0.14697,-0.0283 -0.15406,-0.0212 -0.15405,-0.0248 -0.14698,-0.0354 -0.14697,-0.0301 -0.15406,-0.0354 -0.14875,-0.0407 -0.14874,-0.0407 -0.14697,-0.0443 -0.1399,-0.0425 -0.14874,-0.046 -0.14697,-0.0531 -0.1399,-0.0549 -0.13989,-0.0531 -0.14874,-0.0602 -0.13281,-0.0602 -0.14166,-0.0584 -0.13989,-0.0691 -0.13458,-0.0673 -0.14166,-0.0761 -0.13458,-0.0655 -0.13281,-0.0797 -0.13281,-0.0744 -0.12749,-0.0779 -0.12927,-0.0815 -0.12749,-0.0868 -0.13281,-0.0815 -0.12219,-0.0938 -0.12572,-0.0868 -0.12218,-0.0939 -0.12042,-0.0939 -0.11333,-0.0939 -0.12041,-0.10093 -0.11333,-0.0992 -0.1151,-0.10801 -0.11333,-0.10094 -0.10801,-0.10802 -0.10625,-0.10624 -0.10802,-0.1151 -0.10624,-0.10448 -0.10094,-0.1151 -0.0992,-0.12041 -0.10271,-0.1151 -0.0939,-0.12041 -0.0939,-0.12042 -0.0939,-0.12041 -0.085,-0.12749 -0.0885,-0.11865 -0.0868,-0.12926 -0.0885,-0.13458 -0.0797,-0.12573 -0.0744,-0.12749 -0.0779,-0.13635 -0.0762,-0.13458 -0.0726,-0.13281 -0.0673,-0.14166 -0.0655,-0.13281 -0.0673,-0.13989 -0.062,-0.14166 -0.0602,-0.14166 -0.0584,-0.13989 -0.0549,-0.13989 -0.0549,-0.14875 -3.33078,-9.32831 0.70475,-1.15984 0.72424,-1.14568 0.74372,-1.13328 0.76319,-1.11911 0.77736,-1.10495 z"
       id="polygon3581"
       inkscape:connector-curvature="0" /><path
       style="fill:#ffe6d5;fill-opacity:1"
       d="m 216.35402,156.35425 0.0106,-0.11333 0.007,-0.11333 0.0142,-0.1151 0.007,-0.11156 0,-0.1151 0.007,-0.1151 0,-0.11333 0,-0.11333 -0.007,-0.11333 0,-0.1151 -0.0142,-0.11333 -0.007,-0.1151 -0.0142,-0.11333 -0.0106,-0.1151 -0.0142,-0.11155 -0.0124,-0.1151 -0.0213,-0.1151 -0.0212,-0.11333 -0.0266,-0.10625 -0.0212,-0.11333 -0.0248,-0.10625 -0.0336,-0.11687 -0.0283,-0.10624 -0.0354,-0.11333 -0.0301,-0.10802 -0.0425,-0.10625 -0.0301,-0.10801 -0.0425,-0.10802 -0.0407,-0.10625 -0.0443,-0.10801 -0.0496,-0.0992 -0.0443,-0.10801 -0.0478,-0.10094 -0.0531,-0.0992 -0.0549,-0.10271 -0.0513,-0.10447 -0.0567,-0.0956 -0.0584,-0.0992 -0.062,-0.10093 -0.0584,-0.0939 -0.0691,-0.0939 -0.0584,-0.0956 -0.0655,-0.0921 -0.0708,-0.0938 -0.0726,-0.0885 -0.0655,-0.0939 -0.0761,-0.085 -0.0726,-0.0885 -0.0832,-0.0797 -0.0726,-0.0868 -0.0779,-0.0815 -0.0797,-0.0868 -0.0797,-0.0814 -0.0832,-0.0726 -0.0868,-0.0832 -0.0797,-0.0726 -0.0868,-0.0726 -0.0921,-0.0744 -0.0903,-0.0726 -0.0939,-0.0673 -0.0868,-0.0673 -0.0939,-0.0673 -0.0938,-0.0673 -0.0939,-0.0584 -0.10093,-0.062 -0.0939,-0.0584 -0.10093,-0.062 -0.0992,-0.0531 -0.1027,-0.0531 -0.0974,-0.0531 -0.10094,-0.0549 -0.10802,-0.046 -0.10093,-0.0478 -0.10625,-0.046 -0.10801,-0.0478 -0.0992,-0.0407 -0.10978,-0.039 -0.10625,-0.0337 -0.1151,-0.0407 -0.10625,-0.0336 -0.10624,-0.0319 -0.1151,-0.0283 -0.10625,-0.0248 -0.1151,-0.0354 -0.10625,-0.0195 -0.1151,-0.0248 -0.11156,-0.023 -0.1151,-0.0195 -0.11333,-0.0142 -0.10624,-0.0124 -0.11687,-0.0142 -0.11156,-0.0142 -0.1151,-0.007 -0.1151,-0.005 -0.11333,-0.007 -0.11333,-0.007 -0.1151,0 -0.11333,0 -0.12041,0.007 -0.10802,0.007 -0.11864,0.005 -0.10979,0.007 -0.11864,0.0142 -0.10625,0.0142 -0.11687,0.0124 -0.11156,0.0142 -0.1151,0.0195 -0.11333,0.023 -0.10801,0.0248 -0.11333,0.0195 -0.1151,0.0266 -0.10625,0.0336 -0.11333,0.0283 -0.10802,0.0319 -48.10243,14.68306 0.25676,-1.45909 0.28155,-1.45379 0.30811,-1.44847 0.32759,-1.44848 0.363,-1.43785 0.3754,-1.43785 0.40727,-1.42191 0.43561,-1.41837 0.45862,-1.40598 0.47456,-1.40774 0.50821,-1.39535 0.52945,-1.38119 0.5507,-1.37941 0.5755,-1.36702 0.60383,-1.35463 0.62153,-1.34754 0.65163,-1.33514 0.67112,-1.31921 0.6959,-1.31213 0.71007,-1.29442 0.74372,-1.28556 0.75788,-1.27494 0.78444,-1.26078 0.80392,-1.24306 0.8234,-1.23599 0.85173,-1.21296 0.8659,-1.1988 0.89069,-1.19348 0.91194,-1.16516 0.93141,-1.15984 0.94381,-1.13328 0.97391,-1.1262 0.99162,-1.10672 1.00402,-1.08547 1.02703,-1.0713 1.04297,-1.05183 7.50799,21.02412 0.0531,0.14698 0.062,0.14166 0.0584,0.14697 0.0602,0.14166 0.0691,0.1399 0.0655,0.13989 0.0673,0.13458 0.0744,0.13989 0.0726,0.13458 0.0726,0.1328 0.0815,0.13458 0.0797,0.13635 0.0868,0.13281 0.0885,0.12749 0.085,0.1275 0.0885,0.1275 0.0939,0.12041 0.0956,0.12572 0.10093,0.12219 0.0992,0.12041 0.0939,0.11333 0.10801,0.1151 0.10625,0.12041 0.10625,0.10625 0.10801,0.11333 0.10625,0.10801 0.1151,0.10979 0.11333,0.0974 0.12041,0.10979 0.1151,0.0992 0.12041,0.10093 0.12042,0.0939 0.12572,0.0921 0.12396,0.0956 0.12572,0.0868 0.1275,0.0868 0.13457,0.0885 0.1275,0.0797 0.13281,0.0797 0.13281,0.0797 0.13635,0.0726 0.14166,0.0744 0.13281,0.0744 0.13989,0.0673 0.14166,0.0691 0.13989,0.0673 0.14166,0.0584 0.14697,0.0602 0.1399,0.0549 0.14697,0.0531 0.14875,0.0549 0.14697,0.0443 0.14697,0.0478 0.14875,0.0478 0.14697,0.0407 0.15406,0.039 0.14874,0.0319 0.15406,0.0354 0.15229,0.0319 0.14874,0.0266 0.15406,0.0283 0.15406,0.0195 0.15405,0.0195 0.15229,0.0142 0.15583,0.0213 0.15406,0.007 0.15582,0.0106 0.15229,0.007 0.16114,0 0.15406,0.007 0.15406,-0.007 0.15228,0 0.15583,-0.007 0.15406,-0.0106 0.15582,-0.0142 0.15406,-0.0142 0.15406,-0.0195 0.15229,-0.0195 0.15405,-0.0212 0.15406,-0.0266 0.15583,-0.0248 0.14874,-0.0354 0.15229,-0.0354 0.15406,-0.0319 0.14697,-0.0389 0.14697,-0.0407 0.14875,-0.0478 0.15406,-0.046 0.13989,-0.0531 0.14874,-0.0478 0.14698,-0.0531 0.14697,-0.0602 0.14166,-0.0602 0.14166,-0.062 0.1399,-0.0655 0.13989,-0.0673 0.13989,-0.0673 0.13458,-0.0726 0.13989,-0.0761 0.13458,-0.0726 0.13457,-0.0797 0.1275,-0.0814 0.13458,-0.0868 0.12749,-0.0815 0.1275,-0.0868 0.12573,-0.0939 0.12926,-0.0939 0.12041,-0.0921 0.12042,-0.0956 0.12041,-0.0992 0.12041,-0.10094 0.1151,-0.10801 0.11156,-0.0992 0.11333,-0.10978 0.10979,-0.10625 0.11333,-0.11333 0.10093,-0.11333 0.10802,-0.11333 0.0992,-0.1151 0.0992,-0.12041 19.07098,-22.77185 0.0939,-0.12218 0.0992,-0.11511 0.0868,-0.11864 0.0939,-0.12749 0.0868,-0.12041 0.0903,-0.12219 0.0761,-0.12749 0.0815,-0.1275 0.0797,-0.13281 0.0797,-0.12749 0.0761,-0.13458 0.0726,-0.1275 0.0655,-0.13458 0.0655,-0.13989 0.0691,-0.13458 0.0673,-0.14166 0.062,-0.13281 0.0584,-0.13989 0.0549,-0.14166 0.0549,-0.13989 0.0531,-0.14343 0.0478,-0.14521 0.0443,-0.13989 0.0425,-0.14697 0.0443,-0.14875 0.0425,-0.14697 0.0301,-0.14166 0.0354,-0.14698 0.0337,-0.14697 0.0283,-0.15406 0.0283,-0.14874 0.023,-0.14698 0.0212,-0.15405 0.0142,-0.14875 0.0213,-0.15228 0.009,-0.14875 0.007,-0.15406 0.0142,-0.14697 0.007,-0.15406 0,-0.15583 0.0691,-5.09267 0,-0.0797 -0.007,-0.0744 0,-0.0744 0,-0.0797 -0.007,-0.0744 -0.007,-0.0797 -0.007,-0.0726 -0.0124,-0.0815 -0.007,-0.0726 -0.0142,-0.0815 -0.0142,-0.0726 -0.0142,-0.0761 -0.0106,-0.0726 -0.0195,-0.0797 -0.0213,-0.0744 -0.0142,-0.0726 -0.0266,-0.0744 -0.0177,-0.0726 -0.0213,-0.0744 -0.0283,-0.0744 -0.0266,-0.0744 -0.0283,-0.0726 -0.023,-0.0691 -0.0354,-0.0726 -0.0283,-0.0673 -0.0336,-0.0726 -0.0319,-0.0673 -0.0336,-0.0691 -0.039,-0.0655 -0.0336,-0.0673 -0.039,-0.0655 -0.0407,-0.0691 -0.0425,-0.0655 -0.0407,-0.0673 -0.039,-0.0602 -0.0478,-0.0655 -0.0372,-0.062 -0.0496,-0.0602 -0.0443,-0.0602 -0.0549,-0.0673 -0.0496,-0.0531 -0.0443,-0.062 -0.0549,-0.0584 -0.0531,-0.0531 -0.0549,-0.0549 -0.0513,-0.0602 -0.0549,-0.0531 -0.0531,-0.0478 -0.062,-0.0531 -0.0513,-0.0549 -0.0584,-0.046 -0.0637,-0.0549 -0.0584,-0.046 -0.062,-0.046 -0.062,-0.0478 -0.0655,-0.039 -0.0584,-0.0478 -0.0655,-0.039 -0.0708,-0.0425 -0.0584,-0.0372 -0.0691,-0.0425 -0.0655,-0.0407 -0.0726,-0.0319 -0.0691,-0.0319 -0.0655,-0.0354 -0.0691,-0.0407 -0.0726,-0.0266 -0.0655,-0.0337 -0.0762,-0.0266 -0.0726,-0.0248 -0.0691,-0.0283 -0.0691,-0.0266 -0.0761,-0.0283 -0.0726,-0.0195 -0.0761,-0.0266 -0.0726,-0.0195 -0.0726,-0.0195 -0.0797,-0.0142 -0.0726,-0.0212 -0.0761,-0.0124 -0.0797,-0.0142 -0.0762,-0.0142 -0.0726,-0.0106 -0.0797,-0.007 -0.0762,-0.007 -0.0726,-0.007 -0.0797,-0.007 -0.0726,-0.009 -0.0832,-0.004 -0.0726,0 -0.0797,0 -6.03826,0 -0.0868,0 -0.0903,0 -0.085,0.004 -0.0868,0.009 -0.0797,0.007 -0.0868,0.007 -0.0903,0.0142 -0.0797,0.004 -0.0868,0.0142 -0.0815,0.0142 -0.0868,0.0142 -0.0868,0.0195 -0.0797,0.0213 -0.0868,0.0195 -0.0832,0.0195 -0.0797,0.0266 -0.085,0.0195 -0.0797,0.0283 -0.0797,0.0266 -0.0832,0.0283 -0.0797,0.0319 -0.0797,0.0266 -0.0797,0.0319 -0.0832,0.0354 -0.0726,0.0407 -0.0797,0.0319 -0.0761,0.0389 -0.0726,0.0425 -0.0797,0.0407 -0.0726,0.039 -0.0761,0.0478 -0.0726,0.0389 -0.0691,0.0478 -0.0726,0.046 -0.0726,0.0531 -0.0691,0.0478 -0.0655,0.0531 -0.0726,0.0478 -0.0691,0.0531 -0.0655,0.0549 -0.062,0.0602 -0.0655,0.0531 -0.0602,0.0602 -0.0584,0.0602 -0.0691,0.062 -0.0584,0.0584 -0.0549,0.0602 -0.0584,0.0673 -0.0567,0.062 -0.0602,0.0655 -0.0531,0.0673 -0.0531,0.0673 -0.0549,0.0655 -0.046,0.0691 -0.0549,0.0726 -0.046,0.0673 -0.0478,0.0744 -0.046,0.0726 -0.046,0.0744 -0.0407,0.0726 -0.0478,0.0744 -0.0336,0.0726 -0.039,0.0744 -0.0407,0.0797 -0.0407,0.0744 -0.0336,0.0815 -0.0319,0.0797 -0.0336,0.0744 -0.0336,0.0797 -0.0283,0.0797 -0.0248,0.0832 -0.0266,0.085 -0.0283,0.0815 -0.0248,0.0797 -0.0283,0.0815 -0.0213,0.085 -0.0195,0.0815 -0.0124,0.0885 -0.0195,0.0797 -0.0142,0.0868 -0.0142,0.0797 -0.0142,0.0885 -0.0124,0.0868 -0.007,0.0797 -0.0124,0.0868 -0.007,0.0885 0,0.0868 -0.005,0.0797 0,0.0868 0,0.0868 0,0.0885 0,0.0868 0.005,0.0797 0,0.0868 0.007,0.0885 0.0124,0.0868 0.007,0.0797 0.0124,0.0868 0.007,0.0885 0.0213,0.0797 0.0142,0.0868 0.0124,0.0797 0.0195,0.0885 0.0195,0.0814 0.0213,0.0868 0.0283,0.0797 0.0177,0.0815 0.0283,0.0797 0.0266,0.0868 0.0319,0.0815 0.0283,0.0797 0.0336,0.0797 0.0336,0.0744 0.0319,0.0797 0.0336,0.0815 0.0407,0.0744 0.0354,0.0797 0.0372,0.0744 0.0407,0.0744 0.0478,0.0797 0.0407,0.0744 0.046,0.0655 0.046,0.0744 0.0478,0.0726 0.046,0.0691 0.0478,0.0726 0.0531,0.0673 0.0549,0.0673 0.0531,0.0655 0.0531,0.0691 0.0531,0.0655 0.0637,0.0602 0.0514,0.0673 0.062,0.0602 0.0584,0.0602 0.062,0.0602 0.0655,0.0602 0.0602,0.0602 0.0655,0.0531 0.062,0.0602 0.0655,0.0549 0.0691,0.0549 0.0655,0.0531 0.0726,0.0478 0.0691,0.046 0.0655,0.0531 0.0726,0.0478 0.0762,0.046 0.0726,0.0407 0.0761,0.046 0.0726,0.0407 0.0726,0.039 0.0797,0.0425 0.0761,0.0407 0.0797,0.039 0.0726,0.0319 0.0832,0.0336 0.0797,0.0354 0.0797,0.0266 0.0797,0.0319 0.0832,0.0266 0.0797,0.0266 0.0797,0.0283 0.0779,0.0266 0.0868,0.0212 0.0832,0.0177 0.0797,0.0213 0.0868,0.0195 0.0868,0.0195 0.0832,0.0142 0.085,0.0142 0.0797,0.0124 0.0868,0.0142 0.0903,0.007 0.0868,0.007 0.0797,0.0124 0.0868,0 0.085,0.007 0.0903,0 0.0797,0 -17.17805,20.64163 -9.75152,-27.31736 -0.45508,-0.93673 -0.80569,-1.22182 -0.0726,-0.0868 -0.0744,-0.0868 -0.0814,-0.0815 -0.0726,-0.0868 -0.0797,-0.0797 -0.0868,-0.0815 -0.0815,-0.0726 -0.0868,-0.0797 -0.0797,-0.0744 -0.0868,-0.0726 -0.0885,-0.0744 -0.0939,-0.0726 -0.0868,-0.0691 -0.0939,-0.0673 -0.0938,-0.0673 -0.0939,-0.0655 -0.0939,-0.062 -0.10093,-0.0602 -0.0939,-0.0602 -0.10093,-0.0602 -0.0992,-0.0531 -0.10093,-0.0549 -0.10094,-0.0513 -0.10093,-0.0549 -0.10625,-0.046 -0.0992,-0.046 -0.10979,-0.0478 -0.10801,-0.0407 -0.0992,-0.0478 -0.1151,-0.0319 -0.10624,-0.0407 -0.10802,-0.0407 -0.10625,-0.0336 -0.10624,-0.0266 -0.1151,-0.0319 -0.10625,-0.0266 -0.1151,-0.0283 -0.11333,-0.0283 -0.10802,-0.0177 -0.1151,-0.0212 -0.11156,-0.0195 -0.1151,-0.0212 -0.1151,-0.0106 -0.11156,-0.0142 -0.1151,-0.007 -0.11333,-0.0142 -0.11332,-0.007 -0.11333,0 -0.1151,-0.007 -0.11333,0 -0.1151,0 -0.11333,0.007 -0.11333,0.007 -0.11687,0.007 -0.11156,0.007 -0.1151,0.0142 -0.11333,0.007 -0.11333,0.0177 -0.11333,0.0142 -0.1151,0.0195 -0.10625,0.0212 -0.11333,0.0248 -0.1151,0.0213 -0.10624,0.0283 -0.11687,0.0336 -0.10448,0.0248 -0.1151,0.0336 -0.10802,0.0337 -0.10624,0.0407 -0.10802,0.0337 -0.10625,0.039 -0.10801,0.046 -0.10802,0.0425 -0.0992,0.046 -0.10625,0.0478 -0.10094,0.0531 -0.10093,0.0478 -0.10802,0.0513 -0.0992,0.0549 -0.0939,0.0602 -0.10271,0.0531 -0.10093,0.0602 -0.0921,0.0602 -0.0939,0.0673 -0.0939,0.0691 -0.0939,0.0584 -0.0939,0.0744 -0.0868,0.0655 -0.0938,0.0761 -0.0868,0.0726 -1.25369,1.07307 -1.23953,1.09787 -1.22004,1.11911 -1.1988,1.14036 -1.18109,1.15985 -1.15807,1.17932 -1.14037,1.20588 -1.11911,1.21827 -1.09964,1.23422 -1.0713,1.26077 -1.06068,1.27317 -1.03235,1.29973 -1.00401,1.30682 -0.98631,1.33514 -0.96506,1.33869 -0.9385,1.3617 -0.91725,1.37942 -0.89068,1.39535 -0.87121,1.40775 -0.84465,1.42722 -0.81809,1.43254 -0.79683,1.45556 -0.76497,1.46264 -0.7508,1.47857 -0.71715,1.49452 -0.69059,1.50159 -0.66935,1.51576 -0.6357,1.52108 -0.61799,1.54055 -0.58258,1.54941 -0.56132,1.55472 -0.53831,1.56711 -0.50289,1.57774 -0.48342,1.57951 -0.448,1.59721 -0.42675,1.59191 -0.39842,1.60961 -0.36654,1.61493 -0.34176,1.61492 -0.31519,1.62732 -0.28155,1.63086 -0.26207,1.63618 -0.22666,1.64148 -0.20364,1.64149 -0.17353,1.64148 -0.13989,1.64857 -0.0142,0.15406 -0.007,0.15405 -0.007,0.15583 0,0.15406 0,0.15583 0,0.15051 0.007,0.15406 0.007,0.15406 0.0142,0.15583 0.0142,0.15405 0.0124,0.14698 0.0213,0.15405 0.0177,0.15406 0.0283,0.14875 0.0195,0.15405 0.0336,0.15406 0.0336,0.14698 0.0336,0.15405 0.0319,0.14698 0.0425,0.14697 0.039,0.14875 0.0478,0.14697 0.046,0.14697 0.0478,0.14167 0.0549,0.14874 0.0567,0.13812 0.0567,0.14875 0.0602,0.14166 0.0584,0.13989 0.0691,0.13989 0.0655,0.13281 0.0691,0.14343 0.0726,0.13281 0.0744,0.13458 0.0797,0.1328 0.0726,0.13458 0.0814,0.1275 0.0868,0.13458 0.0868,0.12749 0.0885,0.12573 0.085,0.12218 0.0956,0.11864 0.0939,0.1275 0.0939,0.12218 0.10093,0.11333 0.0974,0.12041 0.10271,0.1151 0.10802,0.11156 0.10624,0.10979 0.10802,0.10625 0.1151,0.10801 0.10448,0.10802 0.1151,0.10448 0.1151,0.10447 0.11864,0.0974 0.12041,0.0939 0.12218,0.0939 0.12042,0.0956 0.12041,0.0921 0.12749,0.0868 0.12573,0.0885 0.12927,0.0868 0.1328,0.0815 0.12927,0.0797 0.13281,0.0744 0.13281,0.0797 0.13457,0.0673 0.1399,0.0744 0.13457,0.0655 0.14344,0.0673 0.13989,0.0602 0.14166,0.0673 0.13989,0.0531 0.14697,0.0549 0.1399,0.0531 0.14697,0.0514 0.14697,0.0478 0.14698,0.0478 0.14343,0.046 0.15229,0.0407 0.14874,0.0336 0.14698,0.0425 0.15405,0.0301 0.14875,0.0283 0.15406,0.0248 0.14697,0.0283 0.15406,0.0212 0.15228,0.0248 0.14875,0.0124 0.15406,0.0142 0.15582,0.0142 0.15406,0.007 0.15229,0.007 0.15405,0.007 0.15406,0 0.15406,0 0.15406,-0.007 0.15405,-0.007 0.15406,-0.007 0.15406,-0.0142 0.15583,-0.0142 0.14697,-0.0177 0.15229,-0.0195 0.15582,-0.0212 0.14698,-0.0283 0.15405,-0.0248 0.14698,-0.0354 0.15583,-0.0301 0.14874,-0.0354 0.14521,-0.0407 0.14874,-0.0407 0.15229,-0.046 43.44359,-13.26292 -8.57752,37.33804 -0.0283,0.11333 -0.0195,0.10802 -0.0195,0.11156 -0.0212,0.1151 -0.0195,0.10624 -0.0142,0.1151 -0.0142,0.1151 -0.005,0.11156 -0.0124,0.1151 -0.007,0.11156 -0.007,0.11687 0,0.11333 0,0.11333 0,0.11333 0,0.1151 0.007,0.11333 0.007,0.1151 0.0124,0.10802 0.005,0.11333 0.0142,0.11333 0.0142,0.11333 0.0195,0.1151 0.0212,0.11332 0.0195,0.10625 0.0195,0.11333 0.0283,0.1151 0.0266,0.10625 0.0248,0.10801 0.0266,0.11333 0.0354,0.10802 0.0336,0.10802 0.0407,0.10802 0.0319,0.10801 0.0407,0.10448 0.0407,0.10801 0.046,0.10625 0.0407,0.10271 0.046,0.10624 0.0531,0.0992 0.0478,0.1027 0.0549,0.0992 0.0531,0.10094 0.0549,0.10093 0.0602,0.0992 0.0584,0.0939 0.0602,0.1027 0.0602,0.0921 0.0673,0.0956 0.0602,0.0939 0.0673,0.0885 0.0744,0.0921 0.0673,0.085 0.0726,0.0885 0.0744,0.0868 0.0726,0.0868 0.0815,0.0868 0.0726,0.0797 0.0815,0.0814 0.0797,0.0797 0.0815,0.0797 0.0868,0.0761 0.0815,0.0797 0.0868,0.0744 0.0868,0.0744 0.0868,0.0673 0.0939,0.0708 0.0868,0.0691 0.0939,0.0655 0.0956,0.062 0.0921,0.0673 0.10094,0.0602 0.0939,0.0602 0.0921,0.0602 0.1027,0.0531 0.0992,0.0549 0.10093,0.0531 0.10094,0.0513 0.10093,0.0496 0.10802,0.0531 0.0992,0.0372 0.10625,0.0496 0.10801,0.0407 0.10802,0.039 0.10802,0.0407 0.10624,0.0389 0.10802,0.0354 0.10625,0.0319 0.10624,0.0283 0.1151,0.0336 0.10625,0.0248 0.1151,0.0301 0.10625,0.0177 0.1151,0.0195 0.11333,0.0195 0.10801,0.023 0.11333,0.0124 0.1151,0.0142 0.11333,0.0124 0.11333,0.0142 0.11333,0.005 0.11333,0.007 0.1151,0 0.11333,0.005 0.1151,0 0.11333,-0.005 0.10802,0 0.1151,-0.007 0.11333,-0.005 0.11333,-0.0142 0.11333,-0.0124 0.11333,-0.0142 0.1151,-0.0124 0.11333,-0.023 0.10624,-0.0124 0.11333,-0.0266 0.1151,-0.0177 0.10802,-0.0301 0.10624,-0.0248 0.11511,-0.0283 0.10624,-0.0336 0.10802,-0.0319 0.1151,-0.0354 0.10625,-0.0389 0.10624,-0.0354 0.10094,-0.0443 0.10801,-0.0407 0.10625,-0.0425 0.0992,-0.0443 0.10979,-0.0478 0.0992,-0.0549 0.10094,-0.0443 0.10093,-0.0531 0.10094,-0.062 0.10093,-0.0531 0.0939,-0.0602 0.10093,-0.0602 0.0921,-0.0602 0.0939,-0.0602 0.0939,-0.0691 0.0939,-0.0655 0.0868,-0.0691 0.0939,-0.0637 0.0868,-0.0744 0.0885,-0.0744 0.0868,-0.0744 0.0868,-0.0726 0.0814,-0.0832 0.0815,-0.0797 0.0797,-0.0744 0.0797,-0.0868 0.0814,-0.0797 0.0726,-0.0797 0.0726,-0.0868 0.0744,-0.0868 0.0744,-0.0885 0.0726,-0.0921 0.0673,-0.0885 0.0673,-0.0921 0.0673,-0.0939 0.0584,-0.0956 0.0691,-0.0921 0.0602,-0.0956 0.0602,-0.10093 0.0549,-0.0921 0.0514,-0.10093 0.0549,-0.10093 0.0531,-0.10094 0.0549,-0.10093 0.046,-0.10625 0.0478,-0.10093 0.046,-0.10802 0.0407,-0.0992 0.0478,-0.10802 0.0336,-0.10625 0.039,-0.10801 0.0336,-0.10802 0.039,-0.10625 0.0283,-0.1151 0.0336,-0.10624 0.0248,-0.10802 0.0283,-0.11333 11.11677,-48.37336 0.0266,-0.11687 0.0213,-0.11156 0.0213,-0.10802 0.0212,-0.11332 0.0124,-0.1151 z"
       id="polygon3563"
       inkscape:connector-curvature="0" /><path
       style="fill:#ffe6d5;fill-opacity:1"
       d="m 201.24947,81.079696 0.24968,0.0301 0.24613,0.03187 0.24791,0.04073 0.2479,0.03896 0.24082,0.04781 0.24791,0.04604 0.24259,0.05489 0.24082,0.06021 0.24083,0.05844 0.24259,0.06729 0.24082,0.06906 0.23551,0.0726 0.23905,0.07968 0.23551,0.08854 0.23551,0.08677 0.22843,0.08677 0.22488,0.100934 0.23551,0.09208 0.22135,0.108017 0.22842,0.106246 0.22135,0.108018 0.22842,0.113329 0.21427,0.122183 0.21957,0.120413 0.21426,0.127495 0.20895,0.134579 0.21603,0.127496 0.20541,0.139891 0.20717,0.139891 0.20187,0.141662 0.20187,0.154057 0.20009,0.148745 0.19478,0.150515 0.19479,0.162911 0.18769,0.161141 0.1877,0.166452 0.17885,0.168224 0.18239,0.166452 0.18238,0.175307 0.17354,0.180615 0.17177,0.184159 0.16999,0.178846 0.16999,0.187698 0.15937,0.18593 0.16114,0.196554 0.15229,0.19301 0.15229,0.194783 0.14874,0.200096 0.14875,0.201865 0.14166,0.208949 0.13281,0.207177 0.13457,0.207178 0.13458,0.21426 0.1275,0.214262 0.11864,0.21426 0.12041,0.221345 0.11333,0.221343 0.1151,0.221343 0.10625,0.228428 0.10802,0.228426 0.10093,0.226657 0.0956,0.226655 0.0939,0.235509 0.0868,0.228428 0.0797,0.235509 0.0797,0.239051 0.0832,0.235511 0.0655,0.242592 0.0726,0.240822 0.0584,0.240823 0.062,0.242593 0.0549,0.240821 0.0531,0.247905 0.0478,0.240823 0.0407,0.246134 0.0319,0.242592 0.0319,0.247906 0.0336,0.247905 0.0213,0.254988 0.0266,0.247904 0.0142,0.246136 0.0106,0.249675 0.007,0.247905 0.0106,0.247905 -0.0106,0.247906 -0.007,0.253217 -0.007,0.249675 -0.0106,0.247905 -0.0195,0.247905 -0.0213,0.247906 -0.0283,0.247905 -0.0301,0.249675 -0.0354,0.246134 -0.0372,0.247906 -0.0496,0.240822 -0.0478,0.249675 -0.0513,0.240823 -0.0637,0.240822 -0.0584,0.240821 -0.0584,0.240822 -0.0761,0.242594 -0.0726,0.235509 -0.0726,0.239051 -0.0903,0.235508 -0.0868,0.23551 -0.085,0.23197 -0.0939,0.2302 -0.10093,0.22842 -0.0992,0.22666 -0.10801,0.22843 -0.10979,0.22134 -0.11156,0.22843 -0.12041,0.21426 -0.12219,0.21957 -0.12749,0.21603 -0.12396,0.21426 -0.13457,0.20718 -0.13635,0.20895 -0.14167,0.20718 -0.14166,0.20718 -0.1452,0.20186 -0.15583,0.19478 -0.15229,0.2001 -0.15405,0.18593 -0.16291,0.19655 -0.16646,0.1877 -0.16645,0.1877 -0.16822,0.18062 -0.17531,0.17353 -0.17353,0.18062 -0.18062,0.16822 -0.18062,0.17354 -0.18947,0.16822 -0.18593,0.16114 -0.19478,0.16114 -0.19301,0.15229 -0.19478,0.15583 -0.20364,0.14697 -0.20009,0.14698 -0.2001,0.14697 -0.20718,0.13458 -0.21426,0.14166 -0.20895,0.1275 -0.21249,0.12749 -0.21603,0.12573 -0.22134,0.12041 -0.22135,0.1151 -0.22134,0.1151 -0.21957,0.11156 -0.22843,0.10093 -0.22843,0.10094 -0.23551,0.10093 -0.22665,0.0939 -0.23374,0.0868 -0.23551,0.0885 -0.23551,0.0797 -0.23374,0.0744 -0.24082,0.0726 -0.24259,0.0673 -0.24083,0.0655 -0.24082,0.062 -0.24082,0.0531 -0.24791,0.0531 -0.24259,0.0478 -0.2479,0.046 -0.24614,0.0354 -0.24259,0.0319 -0.24791,0.0336 -0.2479,0.0283 -0.25676,0.0195 -0.24791,0.0195 -0.24613,0.0124 -0.2479,0.009 -0.24791,0.007 -0.24968,0 -0.25321,-0.007 -0.24791,-0.009 -0.2479,-0.0124 -0.24791,-0.0195 -0.2479,-0.0195 -0.24968,-0.0283 -0.2479,-0.0336 -0.24614,-0.0319 -0.2479,-0.0354 -0.24082,-0.046 -0.24791,-0.0478 -0.24082,-0.0531 -0.24259,-0.0531 -0.24791,-0.062 -0.24259,-0.0655 -0.23374,-0.0673 -0.24082,-0.0726 -0.23551,-0.0744 -0.23374,-0.0797 -0.24082,-0.0885 -0.22843,-0.0868 -0.23551,-0.0939 -0.22666,-0.10093 -0.22665,-0.10094 -0.22843,-0.10093 -0.22312,-0.11156 -0.22665,-0.1151 -0.21426,-0.1151 -0.22135,-0.12041 -0.21426,-0.12573 -0.21426,-0.12749 -0.21603,-0.1275 -0.20718,-0.14166 -0.20717,-0.13458 -0.20187,-0.14697 -0.2001,-0.14698 -0.20009,-0.14697 -0.20187,-0.15583 -0.19478,-0.15229 -0.18947,-0.16114 -0.18593,-0.16114 -0.1877,-0.16822 -0.18238,-0.17354 -0.17885,-0.16822 -0.17353,-0.18062 -0.17531,-0.17353 -0.17531,-0.18062 -0.16822,-0.1877 -0.16114,-0.1877 -0.15937,-0.19655 -0.16114,-0.18593 -0.15406,-0.2001 -0.14697,-0.19478 -0.14698,-0.20186 -0.13989,-0.20718 -0.14166,-0.20718 -0.14166,-0.20895 -0.1275,-0.20718 -0.13458,-0.21426 -0.12749,-0.21603 -0.12041,-0.21957 -0.11156,-0.21426 -0.1151,-0.22843 -0.11333,-0.22134 -0.10625,-0.22843 -0.1027,-0.22666 -0.0939,-0.22842 -0.0921,-0.2302 -0.0956,-0.23197 -0.0868,-0.23551 -0.0797,-0.235508 -0.0814,-0.239051 -0.0744,-0.235509 -0.0655,-0.242594 -0.0673,-0.240822 -0.062,-0.240821 -0.0531,-0.240822 -0.0531,-0.240823 -0.0478,-0.249675 -0.0443,-0.240822 -0.0407,-0.247906 -0.0336,-0.246134 -0.0354,-0.249675 -0.0266,-0.247905 -0.0248,-0.247906 -0.0142,-0.247905 -0.0142,-0.247905 -0.0142,-0.249675 -0.004,-0.253217 0,-0.247906 0.004,-0.247905 0.007,-0.247905 0.0142,-0.249675 0.0142,-0.253219 0.0195,-0.247904 0.0266,-0.247905 0.0266,-0.247905 0.0336,-0.247906 0.0407,-0.242592 0.0407,-0.246134 0.046,-0.240823 0.0549,-0.247905 0.0531,-0.240821 0.0584,-0.242593 0.0602,-0.240823 0.0691,-0.240822 0.0726,-0.242592 0.0744,-0.235511 0.0815,-0.239051 0.0868,-0.235509 0.0868,-0.228428 0.0939,-0.235509 0.0939,-0.226655 0.0992,-0.226657 0.10093,-0.228426 0.11333,-0.228428 0.10979,-0.221343 0.11864,-0.221343 0.1151,-0.221345 0.12573,-0.21426 0.12926,-0.214262 0.12573,-0.21426 0.13458,-0.207178 0.14166,-0.207177 0.13989,-0.208949 0.14697,-0.201865 0.14698,-0.200096 0.15406,-0.194783 0.15582,-0.19301 0.16114,-0.196554 0.15937,-0.18593 0.16823,-0.187698 0.16645,-0.178846 0.17531,-0.184159 0.1753,-0.180615 0.17354,-0.175307 0.18061,-0.166452 0.18947,-0.168224 0.18593,-0.166452 0.1877,-0.161141 0.19479,-0.162911 0.19301,-0.150515 0.20363,-0.148745 0.19833,-0.154057 0.20186,-0.141662 0.20895,-0.139891 0.20718,-0.139891 0.20718,-0.127496 0.21603,-0.134579 0.21249,-0.127495 0.21603,-0.120413 0.21957,-0.122183 0.22135,-0.113329 0.22134,-0.108018 0.22666,-0.106246 0.22842,-0.108017 0.22843,-0.09916 0.22843,-0.09385 0.23374,-0.08677 0.23374,-0.08677 0.2355,-0.08854 0.23552,-0.07968 0.24259,-0.0726 0.23905,-0.06906 0.23551,-0.06729 0.24613,-0.05844 0.2426,-0.06021 0.24082,-0.05489 0.24259,-0.04604 0.24791,-0.04781 0.24613,-0.03896 0.24968,-0.04073 0.2479,-0.03187 0.24791,-0.0301 0.24259,-0.01948 0.25144,-0.01948 0.24968,-0.01948 0.24791,-0.0089 0.2479,-0.0071 0.24968,-0.0053 0.24613,0.0053 0.25499,0.0071 0.2479,0.0089 0.24791,0.01948 0.24968,0.01948 z"
       id="polygon3583"
       inkscape:connector-curvature="0" /><rect
       ry="5.7685242"
       rx="5.7685242"
       y="179.03036"
       x="140.09099"
       height="34"
       width="35.469494"
       id="rect6678"
       style="opacity:1;fill:#ffe6d5;fill-opacity:1;stroke:none;stroke-width:2;stroke-linecap:round;stroke-linejoin:round;stroke-miterlimit:4;stroke-dasharray:none;stroke-dashoffset:0;stroke-opacity:1" /></g></svg>