<?xml version="1.0" encoding="UTF-8" standalone="no"?>
<svg
   xmlns:dc="http://purl.org/dc/elements/1.1/"
   xmlns:cc="http://creativecommons.org/ns#"
   xmlns:rdf="http://www.w3.org/1999/02/22-rdf-syntax-ns#"
   xmlns:svg="http://www.w3.org/2000/svg"
   xmlns="http://www.w3.org/2000/svg"
   xmlns:xlink="http://www.w3.org/1999/xlink"
   xmlns:sodipodi="http://sodipodi.sourceforge.net/DTD/sodipodi-0.dtd"
   xmlns:inkscape="http://www.inkscape.org/namespaces/inkscape"
   version="1.1"
   x="0px"
   y="0px"
   viewBox="0 0 50 50.000023"
   enable-background="new 0 0 100 100"
   xml:space="preserve"
   id="svg3555"
   inkscape:version="0.92.2 (5c3e80d, 2017-08-06)"
   sodipodi:docname="Philosophy-category.svg"
   width="50"
   height="50.000023"><metadata
     id="metadata3593"><rdf:RDF><cc:Work
         rdf:about=""><dc:format>image/svg+xml</dc:format><dc:type
           rdf:resource="http://purl.org/dc/dcmitype/StillImage" /><dc:title /></cc:Work></rdf:RDF></metadata><defs
     id="defs3591"><linearGradient
       inkscape:collect="always"
       xlink:href="#linearGradient3349"
       id="linearGradient46634"
       gradientUnits="userSpaceOnUse"
       x1="173.5"
       y1="134.5"
       x2="257.98077"
       y2="195.50703"
       gradientTransform="matrix(0.33333334,0,0,0.33333334,-41.66667,-24.99999)" /><linearGradient
       inkscape:collect="always"
       id="linearGradient3349"><stop
         style="stop-color:#168076;stop-opacity:1;"
         offset="0"
         id="stop3351" /><stop
         style="stop-color:#168076;stop-opacity:0;"
         offset="1"
         id="stop3353" /></linearGradient></defs><sodipodi:namedview
     pagecolor="#ffffff"
     bordercolor="#666666"
     borderopacity="1"
     objecttolerance="10"
     gridtolerance="10"
     guidetolerance="10"
     inkscape:pageopacity="0"
     inkscape:pageshadow="2"
     inkscape:window-width="1920"
     inkscape:window-height="1080"
     id="namedview3589"
     showgrid="false"
     showborder="false"
     inkscape:zoom="10.939995"
     inkscape:cx="22.086553"
     inkscape:cy="27.737324"
     inkscape:window-x="1366"
     inkscape:window-y="0"
     inkscape:window-maximized="1"
     inkscape:current-layer="svg3555"
     showguides="true"
     inkscape:guide-bbox="true"
     fit-margin-top="0"
     fit-margin-left="0"
     fit-margin-right="0"
     fit-margin-bottom="0" /><g
     id="g134"
     inkscape:export-xdpi="96"
     inkscape:export-ydpi="96"><path
       style="fill:#3ec2b3;fill-opacity:1;stroke-width:0.33333334"
       inkscape:connector-curvature="0"
       id="path46620"
       d="M 48.748805,12.277584 C 47.693121,6.611064 43.243968,2.2780005 37.684265,1.2216472 33.458751,0.38962051 29.176288,4.999998e-7 25.007031,4.999998e-7 20.725261,4.999998e-7 16.443487,0.38962051 12.218671,1.2216472 6.5471472,2.2780005 2.2660705,6.6666206 1.2089971,12.222017 c -1.61200001,8.443867 -1.61200001,17.055837 0,25.444134 1.05638,5.722804 5.4485801,10.0003 11.0096739,11.056637 4.224816,0.8876 8.50659,1.277234 12.78836,1.277234 4.281073,0 8.505893,-0.389634 12.7321,-1.222367 5.67222,-1.1112 9.95399,-5.444267 11.009674,-11.055234 1.668256,-8.445267 1.668256,-17.056533 0,-25.444834 z" /><g
       transform="matrix(0.88951425,0,0,0.88951425,0.52544538,4.9018179)"
       id="g120"><path
         inkscape:connector-curvature="0"
         id="path46622"
         d="m 26.781898,3.7916772 -3.910157,4.7415368 -3.10742,2.859373 -5.523437,5.574221 -3.226563,6.25 -0.845554,11.32345 -4.7748898,10.75793 c 1.8696267,1.726953 4.4368899,3.220126 6.3888898,3.569807 4.010845,0.846613 7.847154,1.532576 11.579861,1.621129 l 5.090796,0.14466 c 3.712927,-0.08888 6.117087,-0.0783 9.79415,-0.802826 9.063346,-3.663672 8.726107,-4.133825 14.817099,-12.108303 0.826096,-4.181967 2.372422,-8.404951 2.380376,-12.621094 L 28.731768,3.7975366 Z"
         style="fill:url(#linearGradient46634);fill-opacity:1;stroke-width:0.33333334"
         sodipodi:nodetypes="ccccccccccccccc" /><path
         style="fill:#ffe6d5;fill-opacity:1;stroke-width:0.33333334"
         d="m 18.023031,18.248998 0.274466,-0.361234 0.276827,-0.355333 0.2845,-0.351197 1.826824,5.113927 h 1.269036 l 0.04014,0.05194 0.04014,0.05135 0.04073,0.05135 0.04014,0.04958 0.04191,0.04899 0.04309,0.04663 0.04427,0.04663 0.04486,0.04722 0.04486,0.04722 0.04663,0.04427 0.04722,0.04427 0.0484,0.04309 0.04899,0.0425 0.04958,0.04191 0.04899,0.03955 0.05194,0.04073 0.05135,0.03778 0.05135,0.04014 0.05312,0.036 0.05371,0.03601 0.05371,0.03542 0.05312,0.03541 0.05667,0.03424 0.05548,0.0313 0.05607,0.0313 0.05785,0.03187 0.05844,0.02773 0.05548,0.0295 0.0608,0.02657 0.05784,0.02717 0.05785,0.02713 0.0602,0.0242 0.0608,0.02243 0.06021,0.02183 0.06257,0.02243 0.0602,0.02007 0.06316,0.0183 0.06138,0.01947 0.0608,0.01593 0.06257,0.01593 0.06316,0.01533 0.06434,0.01357 0.06257,0.01357 0.06493,0.01063 0.06257,0.0094 0.06434,0.0112 0.06256,0.0065 0.06493,0.0094 0.06493,0.0047 0.06493,0.0041 0.06434,0.0041 0.06493,0.0017 0.06493,0.0023 h 0.06257 0.06493 l 0.06434,-0.0023 0.06552,-0.0041 0.06493,-0.0035 0.06434,-0.0047 0.06493,-0.0077 0.06257,-0.0065 0.06434,-0.0089 0.06256,-0.0089 0.06493,-0.01063 0.06257,-0.01357 0.06493,-0.0118 0.06257,-0.01593 0.06257,-0.013 0.06198,-0.0177 0.06257,-0.0177 0.06316,-0.0183 0.06079,-0.02007 0.06198,-0.01947 0.06021,-0.02303 0.06021,-0.02243 0.0602,-0.0248 0.05844,-0.0242 0.06021,-0.0248 0.05784,-0.02597 0.05844,-0.02893 0.05784,-0.0295 0.05785,-0.02893 0.05607,-0.0313 0.05608,-0.03127 0.05548,-0.03364 0.05607,-0.03364 0.05371,-0.03601 0.05371,-0.03601 0.05312,-0.03482 0.05371,-0.03837 0.05194,-0.03778 0.05135,-0.04073 0.04899,-0.04014 0.05076,-0.03955 0.04722,-0.04309 0.04899,-0.04191 0.04722,-0.04486 0.04722,-0.04427 0.04722,-0.04486 0.04427,-0.04722 0.04427,-0.04722 0.04486,-0.04722 0.0425,-0.04899 0.0425,-0.04899 0.152283,-0.182977 h 1.974387 0.02893 l 0.0295,0.0023 h 0.02893 l 0.02657,0.0023 0.02893,0.0023 0.02893,0.0017 0.0301,0.0023 0.02657,0.0041 0.02833,0.0053 0.02657,0.0047 0.02893,0.0041 0.02773,0.0059 0.02893,0.0071 0.02657,0.0071 0.0301,0.0065 0.0248,0.0065 0.02773,0.0094 0.02657,0.0089 0.02773,0.0083 0.02893,0.0094 0.0242,0.0089 0.02657,0.0112 0.02657,0.0112 0.02773,0.0112 0.0242,0.0112 0.02657,0.01297 0.02537,0.0112 0.02657,0.01357 0.0242,0.01417 0.0242,0.01477 0.02537,0.013 0.0242,0.01653 0.0254,0.01477 0.02183,0.01593 0.0242,0.01593 0.02183,0.01533 0.02537,0.0177 0.02183,0.0183 0.02303,0.0177 0.02183,0.01533 0.01947,0.02007 0.02183,0.0183 0.02067,0.02067 0.0236,0.0171 0.01947,0.02007 0.01947,0.02303 0.0183,0.02007 0.02067,0.01947 0.02007,0.02243 0.0183,0.02067 0.0171,0.02183 0.01713,0.02243 0.0189,0.02183 0.01477,0.0254 0.0183,0.02183 0.01653,0.02303 0.01477,0.0242 0.01593,0.0248 0.01533,0.0242 0.01357,0.0242 0.01533,0.0248 0.01357,0.0248 0.013,0.0248 0.0112,0.0242 0.01357,0.02773 0.0118,0.02597 0.01063,0.0248 0.0112,0.02597 0.0118,0.02713 0.01003,0.02717 0.0094,0.02657 0.0089,0.02717 0.0083,0.02657 0.0094,0.02717 0.0071,0.02893 0.0065,0.02657 0.0071,0.02657 0.0059,0.02893 0.0077,0.02713 0.0035,0.02893 0.0047,0.02657 0.0047,0.0295 0.0047,0.02893 0.0023,0.02657 0.0041,0.0295 0.0023,0.02893 v 0.02717 l 0.0023,0.02893 v 0.02893 l 0.0013,0.02893 v 0.02893 l -0.0013,0.02713 v 0.02893 l -0.0023,0.02893 -0.0023,0.02717 -0.0023,0.02893 -0.0017,0.02833 -0.0047,0.02717 -0.0047,0.0295 -0.0047,0.0295 -0.0047,0.02657 -0.0035,0.02893 -0.0077,0.02717 -0.0059,0.02833 -0.0071,0.02717 -0.0077,0.02657 -0.0083,0.02893 -0.0083,0.02713 -0.0089,0.02657 -0.0094,0.02713 -0.0083,0.02657 -0.0112,0.02657 -0.0118,0.02537 -0.0112,0.02597 -0.01063,0.02657 -0.01357,0.02657 -0.0118,0.02537 -0.0124,0.0242 -0.01417,0.02717 -0.01357,0.0242 -0.01533,0.0248 -0.01357,0.0248 -0.01477,0.02183 -0.01653,0.0248 -0.01477,0.0242 -0.0183,0.02243 -0.01653,0.02303 -0.01713,0.0248 -0.0183,0.02183 -0.0177,0.02067 -0.01713,0.02123 -0.0183,0.02303 -0.01947,0.02007 -0.02067,0.02183 -0.0177,0.02067 -0.02303,0.02007 -0.01947,0.02007 -0.01947,0.0171 -0.02303,0.02067 -0.01947,0.0183 -0.0236,0.0177 -0.02183,0.0177 -0.02303,0.01713 -0.02183,0.0189 -0.02303,0.01593 -0.0242,0.01713 -0.02183,0.01653 -0.0242,0.01533 -0.02537,0.01477 -0.02657,-0.04427 -0.02657,-0.0425 -0.02893,-0.0425 -0.02833,-0.04014 -0.02893,-0.04014 -0.03247,-0.04191 -0.0313,-0.04073 -0.0307,-0.03837 -0.03364,-0.04014 -0.03365,-0.03778 -0.03307,-0.03777 -0.03482,-0.03542 -0.03601,-0.03778 -0.03424,-0.0366 -0.036,-0.03364 -0.03778,-0.03542 -0.03601,-0.03364 -0.04014,-0.03307 -0.03778,-0.03364 -0.03837,-0.0313 -0.04014,-0.03187 -0.04073,-0.0307 -0.0425,-0.02893 -0.04014,-0.0295 -0.04309,-0.02893 -0.04132,-0.02657 -0.0425,-0.02893 -0.0425,-0.0248 -0.04545,-0.02657 -0.04368,-0.0242 -0.04486,-0.0248 -0.04486,-0.02243 -0.04486,-0.02303 -0.04663,-0.02243 -0.04722,-0.01947 -0.04427,-0.02007 -0.04722,-0.02067 -0.04663,-0.0177 -0.04899,-0.0177 -0.04663,-0.01593 -0.04958,-0.01533 -0.04722,-0.01593 -0.04899,-0.01297 -0.04958,-0.01417 -0.04958,-0.0124 -0.0484,-0.0118 -0.04899,-0.01123 -0.05194,-0.0112 -0.0484,-0.0089 -0.04899,-0.0059 -0.05135,-0.0094 -0.04899,-0.0047 -0.05194,-0.0065 -0.04899,-0.0047 -0.05194,-0.0047 -0.04899,-0.0017 -0.05135,-0.0023 -0.05135,-0.0017 h -0.05076 -0.04958 l -0.05135,0.0017 -0.05194,0.0023 -0.0484,0.0017 -0.05194,0.0047 -0.0484,0.0047 -0.05194,0.0065 -0.04899,0.0071 -0.05135,0.0071 -0.04958,0.0083 -0.04899,0.0089 -0.05076,0.0112 -0.04958,0.01123 -0.0484,0.0118 -0.04958,0.01003 -0.04958,0.01653 -0.04663,0.013 -4.948656,1.51045 h -2.072957 -0.05135 l -0.05135,-0.0023 -0.04899,-0.0023 -0.05194,-0.0023 -0.05135,-0.0041 -0.05135,-0.0047 -0.04899,-0.0047 -0.05135,-0.0059 -0.04899,-0.0094 -0.05135,-0.0071 -0.05135,-0.0083 -0.04899,-0.0118 -0.04899,-0.01003 -0.05135,-0.0118 -0.04958,-0.01357 -0.04958,-0.01357 -0.04899,-0.01477 -0.04663,-0.01417 -0.04958,-0.01533 -0.04899,-0.0177 -0.04663,-0.0183 -0.04663,-0.0177 -0.04958,-0.02007 -0.04427,-0.02007 -0.04722,-0.01947 -0.04663,-0.02303 -0.04486,-0.02243 -0.04722,-0.02537 -0.04486,-0.02183 -0.04427,-0.02657 -0.04427,-0.0248 -0.0425,-0.02597 -0.04309,-0.02717 -0.0425,-0.02893 -0.04427,-0.02717 -0.04073,-0.03127 -0.04191,-0.02893 -0.04073,-0.0313 -0.04014,-0.0313 -0.03778,-0.0313 -0.04014,-0.03364 -0.03778,-0.03307 -0.03837,-0.036 -0.03778,-0.03365 -0.036,-0.03601 -0.03542,-0.03541 -0.03601,-0.03837 -0.03541,-0.03483 -0.03365,-0.03837 -0.03307,-0.04014 -0.03424,-0.03837 -0.0313,-0.04014 -0.0313,-0.04014 -0.0313,-0.04014 -0.02833,-0.0425 -0.0295,-0.03955 -0.02893,-0.04309 -0.0295,-0.04486 -0.02657,-0.04191 -0.0248,-0.0425 -0.02597,-0.04545 -0.0254,-0.04486 -0.0242,-0.04427 -0.02243,-0.04722 -0.02183,-0.04427 -0.02243,-0.04663 -0.02067,-0.04722 -0.02007,-0.04722 -0.01947,-0.04663 -0.0183,-0.04663 -0.0183,-0.04958 -1.11026,-3.109437 0.234916,-0.386613 0.241414,-0.381894 0.247906,-0.37776 0.254397,-0.373036 0.25912,-0.368317 z"
         id="path46624"
         inkscape:connector-curvature="0" /><path
         style="fill:#ffe6d5;fill-opacity:1;stroke-width:0.33333334"
         d="m 30.451338,27.118094 0.0035,-0.03778 0.0023,-0.03778 0.0047,-0.03837 0.0023,-0.03719 v -0.03837 l 0.0023,-0.03837 v -0.03778 -0.03778 l -0.0023,-0.03778 v -0.03837 l -0.0047,-0.03778 -0.0023,-0.03837 -0.0047,-0.03778 -0.0035,-0.03837 -0.0047,-0.03718 -0.0041,-0.03837 -0.0071,-0.03837 -0.0071,-0.03778 -0.0089,-0.03542 -0.0071,-0.03778 -0.0083,-0.03542 -0.0112,-0.03896 -0.0094,-0.03541 -0.0118,-0.03778 -0.01003,-0.03601 -0.01417,-0.03542 -0.01003,-0.036 -0.01417,-0.03601 -0.01357,-0.03542 -0.01477,-0.036 -0.01653,-0.03307 -0.01477,-0.036 -0.01593,-0.03365 -0.0177,-0.03307 -0.0183,-0.03424 -0.0171,-0.03482 -0.0189,-0.03187 -0.01947,-0.03307 -0.02067,-0.03364 -0.01947,-0.0313 -0.02303,-0.0313 -0.01947,-0.03187 -0.02183,-0.0307 -0.0236,-0.03127 -0.0242,-0.0295 -0.02183,-0.0313 -0.02537,-0.02833 -0.0242,-0.0295 -0.02773,-0.02657 -0.0242,-0.02893 -0.02597,-0.02717 -0.02657,-0.02893 -0.02657,-0.02713 -0.02773,-0.0242 -0.02893,-0.02773 -0.02657,-0.0242 -0.02893,-0.0242 -0.0307,-0.0248 -0.0301,-0.0242 -0.0313,-0.02243 -0.02893,-0.02243 -0.0313,-0.02243 -0.03127,-0.02243 -0.0313,-0.01947 -0.03364,-0.02067 -0.0313,-0.01947 -0.03364,-0.02067 -0.03307,-0.0177 -0.03423,-0.0177 -0.03247,-0.0177 -0.03365,-0.0183 -0.03601,-0.01533 -0.03364,-0.01593 -0.03542,-0.01533 -0.036,-0.01593 -0.03307,-0.01357 -0.03659,-0.013 -0.03542,-0.01123 -0.03837,-0.01357 -0.03542,-0.0112 -0.03541,-0.01063 -0.03837,-0.0094 -0.03542,-0.0083 -0.03837,-0.0118 -0.03542,-0.0065 -0.03837,-0.0083 -0.03719,-0.0077 -0.03837,-0.0065 -0.03778,-0.0047 -0.03541,-0.0041 -0.03896,-0.0047 -0.03719,-0.0047 -0.03837,-0.0023 -0.03837,-0.0017 -0.03778,-0.0023 -0.03778,-0.0023 h -0.03837 -0.03778 l -0.04014,0.0023 -0.03601,0.0023 -0.03955,0.0017 -0.0366,0.0023 -0.03955,0.0047 -0.03542,0.0047 -0.03896,0.0041 -0.03719,0.0047 -0.03837,0.0065 -0.03778,0.0077 -0.036,0.0083 -0.03778,0.0065 -0.03837,0.0089 -0.03542,0.0112 -0.03778,0.0094 -0.03601,0.01063 -16.034143,4.894354 0.08559,-0.486364 0.09385,-0.484596 0.102704,-0.482824 0.109196,-0.482826 0.121,-0.479284 0.125134,-0.479283 0.135756,-0.47397 0.145204,-0.47279 0.152873,-0.46866 0.158187,-0.469247 0.169403,-0.465116 0.176483,-0.460397 0.183567,-0.459803 0.191833,-0.455674 0.201277,-0.451543 0.207177,-0.44918 0.21721,-0.445047 0.223706,-0.439736 0.231967,-0.437377 0.23669,-0.431473 0.247907,-0.42852 0.252626,-0.42498 0.26148,-0.42026 0.267974,-0.414354 0.274466,-0.411996 0.28391,-0.40432 0.288634,-0.3996 0.296896,-0.397827 0.30398,-0.388387 0.31047,-0.386613 0.314604,-0.37776 0.324636,-0.3754 0.33054,-0.368907 0.334674,-0.361823 0.342343,-0.3571 0.347657,-0.35061 2.502663,7.00804 0.0177,0.04899 0.02067,0.04722 0.01947,0.04899 0.02007,0.04722 0.02303,0.04663 0.02183,0.04663 0.02243,0.04486 0.0248,0.04663 0.0242,0.04486 0.0242,0.04427 0.02717,0.04486 0.02657,0.04545 0.02893,0.04427 0.0295,0.0425 0.02833,0.0425 0.0295,0.0425 0.0313,0.04014 0.03187,0.04191 0.03364,0.04073 0.03307,0.04014 0.0313,0.03778 0.036,0.03837 0.03542,0.04014 0.03542,0.03542 0.036,0.03778 0.03542,0.036 0.03837,0.0366 0.03778,0.03247 0.04014,0.0366 0.03837,0.03307 0.04014,0.03364 0.04014,0.0313 0.04191,0.0307 0.04132,0.03187 0.04191,0.02893 0.0425,0.02893 0.04486,0.0295 0.0425,0.02657 0.04427,0.02657 0.04427,0.02657 0.04545,0.0242 0.04722,0.0248 0.04427,0.0248 0.04663,0.02243 0.04722,0.02303 0.04663,0.02243 0.04722,0.01947 0.04899,0.02007 0.04663,0.0183 0.04899,0.0177 0.04958,0.0183 0.04899,0.01477 0.04899,0.01593 0.04958,0.01593 0.04899,0.01357 0.05135,0.013 0.04958,0.01063 0.05135,0.0118 0.05076,0.01063 0.04958,0.0089 0.05135,0.0094 0.05135,0.0065 0.05135,0.0065 0.05076,0.0047 0.05194,0.0071 0.05135,0.0023 0.05194,0.0035 0.05076,0.0023 h 0.05371 l 0.05135,0.0023 0.05135,-0.0023 h 0.05076 l 0.05194,-0.0023 0.05135,-0.0035 0.05194,-0.0047 0.05135,-0.0047 0.05135,-0.0065 0.05076,-0.0065 0.05135,-0.0071 0.05135,-0.0089 0.05194,-0.0083 0.04958,-0.0118 0.05076,-0.0118 0.05135,-0.01063 0.04899,-0.01297 0.04899,-0.01357 0.04958,-0.01593 0.05135,-0.01533 0.04663,-0.0177 0.04958,-0.01593 0.04899,-0.0177 0.04899,-0.02007 0.04722,-0.02007 0.04722,-0.02067 0.04663,-0.02183 0.04663,-0.02243 0.04663,-0.02243 0.04486,-0.0242 0.04663,-0.02537 0.04486,-0.0242 0.04486,-0.02657 0.0425,-0.02713 0.04486,-0.02893 0.0425,-0.02717 0.0425,-0.02893 0.04191,-0.0313 0.04309,-0.0313 0.04014,-0.0307 0.04014,-0.03187 0.04014,-0.03307 0.04014,-0.03365 0.03837,-0.036 0.03719,-0.03307 0.03778,-0.03659 0.0366,-0.03542 0.03778,-0.03778 0.03364,-0.03778 0.03601,-0.03778 0.03307,-0.03837 0.03307,-0.04014 6.356993,-7.590617 0.0313,-0.04073 0.03307,-0.03837 0.02893,-0.03955 0.0313,-0.0425 0.02893,-0.04014 0.0301,-0.04073 0.02537,-0.0425 0.02717,-0.0425 0.02657,-0.04427 0.02657,-0.0425 0.02537,-0.04486 0.0242,-0.0425 0.02183,-0.04486 0.02183,-0.04663 0.02303,-0.04486 0.02243,-0.04722 0.02067,-0.04427 0.01947,-0.04663 0.0183,-0.04722 0.0183,-0.04663 0.0177,-0.04781 0.01593,-0.0484 0.01477,-0.04663 0.01417,-0.04899 0.01477,-0.04958 0.01417,-0.04899 0.01003,-0.04722 0.0118,-0.04899 0.01123,-0.04899 0.0094,-0.05135 0.0094,-0.04958 0.0077,-0.04899 0.0071,-0.05135 0.0047,-0.04958 0.0071,-0.05076 0.003,-0.04958 0.0023,-0.05135 0.0047,-0.04899 0.0023,-0.05135 v -0.05194 l 0.02303,-1.697557 v -0.02657 l -0.0023,-0.0248 v -0.0248 -0.02657 l -0.0023,-0.0248 -0.0023,-0.02657 -0.0023,-0.0242 -0.0041,-0.02717 -0.0023,-0.0242 -0.0047,-0.02717 -0.0047,-0.0242 -0.0047,-0.02537 -0.0035,-0.0242 -0.0065,-0.02657 -0.0071,-0.0248 -0.0047,-0.0242 -0.0089,-0.0248 -0.0059,-0.0242 -0.0071,-0.0248 -0.0094,-0.0248 -0.0089,-0.0248 -0.0094,-0.0242 -0.0077,-0.02303 -0.0118,-0.0242 -0.0094,-0.02243 -0.0112,-0.0242 -0.01063,-0.02243 -0.0112,-0.02303 -0.013,-0.02183 -0.0112,-0.02243 -0.013,-0.02183 -0.01357,-0.02303 -0.01417,-0.02183 -0.01357,-0.02243 -0.013,-0.02007 -0.01593,-0.021833 -0.0124,-0.020667 -0.01653,-0.020067 -0.01477,-0.020067 -0.0183,-0.022433 -0.01653,-0.0177 -0.01477,-0.020667 -0.0183,-0.019467 -0.0177,-0.0177 -0.0183,-0.0183 -0.0171,-0.020067 -0.0183,-0.0177 -0.0177,-0.015933 -0.02067,-0.0177 -0.0171,-0.0183 -0.01947,-0.015333 -0.02123,-0.0183 -0.01947,-0.015333 -0.02067,-0.015333 -0.02067,-0.015933 -0.02183,-0.013 -0.01947,-0.015933 -0.02183,-0.013 -0.0236,-0.014167 -0.01947,-0.0124 -0.02303,-0.014167 -0.02183,-0.013567 -0.0242,-0.010633 -0.02303,-0.010633 -0.02183,-0.0118 -0.02303,-0.013567 -0.0242,-0.00887 -0.02183,-0.011233 -0.0254,-0.00887 -0.0242,-0.00827 -0.02303,-0.00943 -0.02303,-0.00887 -0.02537,-0.00943 -0.0242,-0.0065 -0.02537,-0.00887 -0.0242,-0.0065 -0.0242,-0.0065 -0.02657,-0.00473 -0.0242,-0.00707 -0.02537,-0.00413 -0.02657,-0.00473 -0.0254,-0.00473 -0.0242,-0.00353 -0.02657,-0.00233 -0.0254,-0.00233 -0.0242,-0.00233 -0.02657,-0.00233 -0.0242,-0.003 -0.02773,-0.00133 h -0.0242 -0.02657 -2.012754 -0.02893 -0.0301 l -0.02833,0.00133 -0.02893,0.003 -0.02657,0.00233 -0.02893,0.00233 -0.0301,0.00473 -0.02657,0.00133 -0.02893,0.00473 -0.02717,0.00473 -0.02893,0.00473 -0.02893,0.0065 -0.02657,0.0071 -0.02893,0.0065 -0.02773,0.0065 -0.02657,0.00887 -0.02833,0.0065 -0.02657,0.00943 -0.02657,0.00887 -0.02773,0.00943 -0.02657,0.010633 -0.02657,0.00887 -0.02657,0.010633 -0.02773,0.0118 -0.0242,0.013567 -0.02657,0.010633 -0.02537,0.012967 -0.0242,0.014167 -0.02657,0.013567 -0.0242,0.013 -0.02537,0.015933 -0.0242,0.012967 -0.02303,0.015933 -0.0242,0.015333 -0.0242,0.0177 -0.02303,0.015933 -0.02183,0.0177 -0.0242,0.015933 -0.02303,0.0177 -0.02183,0.0183 -0.02067,0.020067 -0.02183,0.0177 -0.02007,0.020067 -0.01947,0.020067 -0.02303,0.020667 -0.01947,0.019467 -0.0183,0.020067 -0.01947,0.022433 -0.0189,0.020667 -0.02007,0.021833 -0.0177,0.022433 -0.0177,0.022433 -0.0183,0.021834 -0.01533,0.02303 -0.0183,0.0242 -0.01533,0.02243 -0.01593,0.0248 -0.01533,0.0242 -0.01533,0.0248 -0.01357,0.0242 -0.01593,0.0248 -0.0112,0.0242 -0.013,0.0248 -0.01357,0.02657 -0.01357,0.0248 -0.0112,0.02717 -0.01063,0.02657 -0.0112,0.0248 -0.0112,0.02657 -0.0094,0.02657 -0.0083,0.02773 -0.0089,0.02833 -0.0094,0.02717 -0.0083,0.02657 -0.0094,0.02717 -0.0071,0.02833 -0.0065,0.02717 -0.0041,0.0295 -0.0065,0.02657 -0.0047,0.02893 -0.0047,0.02657 -0.0047,0.0295 -0.0041,0.02893 -0.0023,0.02657 -0.0041,0.02893 -0.0023,0.0295 v 0.02893 l -0.0017,0.02657 v 0.02893 0.02893 0.0295 0.02893 l 0.0017,0.02657 v 0.02893 l 0.0023,0.0295 0.0041,0.02893 0.0023,0.02657 0.0041,0.02893 0.0023,0.0295 0.0071,0.02657 0.0047,0.02893 0.0041,0.02657 0.0065,0.0295 0.0065,0.02713 0.0071,0.02893 0.0094,0.02657 0.0059,0.02717 0.0094,0.02657 0.0089,0.02893 0.01063,0.02717 0.0094,0.02657 0.0112,0.02657 0.0112,0.0248 0.01063,0.02657 0.0112,0.02717 0.01357,0.0248 0.0118,0.02657 0.0124,0.0248 0.01357,0.0248 0.01593,0.02657 0.01357,0.0248 0.01533,0.02183 0.01533,0.0248 0.01593,0.0242 0.01533,0.02303 0.01593,0.0242 0.0177,0.02243 0.0183,0.02243 0.0177,0.02183 0.0177,0.02303 0.0177,0.02183 0.02123,0.02007 0.01713,0.02243 0.02067,0.02007 0.01947,0.02007 0.02067,0.02007 0.02183,0.02007 0.02007,0.02007 0.02183,0.0177 0.02067,0.02007 0.02183,0.0183 0.02303,0.0183 0.02183,0.0177 0.0242,0.01593 0.02303,0.01533 0.02183,0.0177 0.0242,0.01593 0.0254,0.01533 0.0242,0.01357 0.02537,0.01533 0.0242,0.01357 0.0242,0.013 0.02657,0.01417 0.02537,0.01357 0.02657,0.013 0.0242,0.01063 0.02773,0.0112 0.02657,0.0118 0.02657,0.0089 0.02657,0.01063 0.02773,0.0089 0.02657,0.0089 0.02657,0.0094 0.02597,0.0089 0.02893,0.0071 0.02773,0.0059 0.02657,0.0071 0.02893,0.0065 0.02893,0.0065 0.02773,0.0047 0.02833,0.0047 0.02657,0.0041 0.02893,0.0047 0.0301,0.0023 0.02893,0.0023 0.02657,0.0041 h 0.02893 l 0.02833,0.0023 h 0.0301 0.02657 l -5.726017,6.880543 -3.250506,-9.105787 -0.151694,-0.312243 -0.268563,-0.4072733 -0.0242,-0.028933 -0.0248,-0.028933 -0.02713,-0.027167 -0.0242,-0.028933 -0.02657,-0.026567 -0.02893,-0.027167 -0.02717,-0.0242 -0.02893,-0.026567 -0.02657,-0.0248 -0.02893,-0.0242 -0.0295,-0.0248 -0.0313,-0.0242 -0.02893,-0.023033 -0.0313,-0.022433 -0.03127,-0.022433 -0.0313,-0.021833 -0.0313,-0.020667 -0.03364,-0.020067 -0.0313,-0.020067 -0.03364,-0.020067 -0.03307,-0.0177 -0.03364,-0.0183 -0.03365,-0.0171 -0.03364,-0.0183 -0.03542,-0.015333 -0.03307,-0.015333 -0.0366,-0.015933 -0.036,-0.013567 -0.03307,-0.015933 -0.03837,-0.010633 -0.03541,-0.013567 -0.03601,-0.013567 -0.03542,-0.0112 -0.03541,-0.00887 -0.03837,-0.010633 -0.03542,-0.00887 -0.03837,-0.00943 -0.03778,-0.00943 -0.03601,-0.0059 -0.03837,-0.00707 -0.03719,-0.0065 -0.03837,-0.00707 -0.03837,-0.00353 -0.03719,-0.00473 -0.03837,-0.00233 -0.03778,-0.00473 -0.03777,-0.00233 h -0.03778 l -0.03837,-0.00233 h -0.03778 -0.03837 l -0.03778,0.00233 -0.03778,0.00233 -0.03896,0.00233 -0.03719,0.00233 -0.03837,0.00473 -0.03778,0.00233 -0.03778,0.0059 -0.03778,0.00473 -0.03837,0.0065 -0.03542,0.00707 -0.03778,0.00827 -0.03837,0.0071 -0.03541,0.00943 -0.03896,0.0112 -0.03483,0.00827 -0.03837,0.0112 -0.03601,0.011233 -0.03541,0.013567 -0.03601,0.011233 -0.03542,0.013 -0.036,0.015333 -0.03601,0.014167 -0.03307,0.015333 -0.03542,0.015933 -0.03365,0.0177 -0.03364,0.015933 -0.03601,0.0171 -0.03307,0.0183 -0.0313,0.020067 -0.03424,0.0177 -0.03364,0.020067 -0.0307,0.020067 -0.0313,0.022433 -0.0313,0.023033 -0.0313,0.019467 -0.0313,0.0248 -0.02893,0.021833 -0.03127,0.025367 -0.02893,0.0242 -0.417896,0.35769 -0.413177,0.3659573 -0.40668,0.373036 -0.3996,0.38012 -0.393697,0.386617 -0.386023,0.393107 -0.380123,0.40196 -0.373037,0.40609 -0.366547,0.411406 -0.3571,0.420257 -0.35356,0.42439 -0.344116,0.433243 -0.33467,0.435607 -0.32877,0.445047 -0.321687,0.44623 -0.312833,0.4539 -0.30575,0.459806 -0.296894,0.465117 -0.290403,0.46925 -0.28155,0.47574 -0.272697,0.477514 -0.26561,0.485186 -0.25499,0.487547 -0.250266,0.492857 -0.2390504,0.498173 -0.2301966,0.50053 -0.2231167,0.505253 -0.2119,0.507027 -0.2059967,0.513517 -0.1941933,0.51647 -0.1871067,0.51824 -0.1794367,0.52237 -0.16763,0.525913 -0.16114,0.526503 -0.1493333,0.532404 -0.14225,0.530636 -0.1328067,0.536537 -0.12218,0.53831 -0.11392,0.538307 -0.1050633,0.54244 -0.09385,0.54362 -0.087357,0.545393 -0.075553,0.54716 -0.06788,0.547163 -0.057843,0.54716 -0.04663,0.549524 -0.00473,0.05135 -0.00233,0.05135 -0.00233,0.05194 v 0.05135 0.05194 0.05017 l 0.00233,0.05135 0.00233,0.05135 0.00473,0.05194 0.00473,0.05135 0.00413,0.04899 0.0071,0.05135 0.0059,0.05135 0.00943,0.04958 0.0065,0.05135 0.0112,0.05135 0.0112,0.04899 0.0112,0.05135 0.010633,0.04899 0.014167,0.04899 0.013,0.04958 0.015933,0.04899 0.015333,0.04899 0.015933,0.04722 0.0183,0.04958 0.0189,0.04604 0.0189,0.04958 0.020067,0.04722 0.019467,0.04663 0.023033,0.04663 0.021833,0.04427 0.023033,0.04781 0.0242,0.04427 0.0248,0.04486 0.026567,0.04427 0.0242,0.04486 0.027133,0.0425 0.028933,0.04486 0.028933,0.0425 0.0295,0.04191 0.028333,0.04073 0.031867,0.03955 0.0313,0.0425 0.0313,0.04073 0.033643,0.03778 0.032467,0.04014 0.034237,0.03837 0.036007,0.03719 0.035413,0.0366 0.036007,0.03542 0.038367,0.036 0.034827,0.03601 0.038367,0.03483 0.038367,0.03482 0.039547,0.03247 0.040137,0.0313 0.040727,0.0313 0.04014,0.03187 0.040137,0.0307 0.042497,0.02893 0.04191,0.0295 0.04309,0.02893 0.044267,0.02717 0.04309,0.02657 0.04427,0.0248 0.04427,0.02657 0.044857,0.02243 0.046633,0.0248 0.044857,0.02183 0.047813,0.02243 0.04663,0.02007 0.04722,0.02243 0.04663,0.0177 0.04899,0.0183 0.046633,0.0177 0.04899,0.01713 0.04899,0.01593 0.048993,0.01593 0.04781,0.01533 0.050763,0.01357 0.04958,0.0112 0.048993,0.01417 0.05135,0.01003 0.049583,0.0094 0.051353,0.0083 0.04899,0.0094 0.051353,0.0071 0.05076,0.0083 0.049583,0.0041 0.051353,0.0047 0.05194,0.0047 0.051353,0.0023 0.050763,0.0023 0.05135,0.0023 h 0.051353 0.051354 l 0.05135,-0.0023 0.05135,-0.0023 0.05135,-0.0023 0.05135,-0.0047 0.05194,-0.0047 0.04899,-0.0059 0.05076,-0.0065 0.05194,-0.0071 0.04899,-0.0094 0.05135,-0.0083 0.04899,-0.0118 0.05194,-0.01003 0.04958,-0.0118 0.0484,-0.01357 0.04958,-0.01357 0.05076,-0.01533 14.481197,-4.420974 -2.859173,12.446014 -0.0094,0.03778 -0.0065,0.03601 -0.0065,0.03719 -0.0071,0.03837 -0.0065,0.03541 -0.0047,0.03837 -0.0047,0.03837 -0.0017,0.03719 -0.0041,0.03837 -0.0023,0.03719 -0.0023,0.03896 v 0.03778 0.03778 0.03778 0.03837 l 0.0023,0.03778 0.0023,0.03837 0.0041,0.03601 0.0017,0.03778 0.0047,0.03778 0.0047,0.03778 0.0065,0.03837 0.0071,0.03777 0.0065,0.03542 0.0065,0.03778 0.0094,0.03837 0.0089,0.03542 0.0083,0.036 0.0089,0.03778 0.0118,0.03601 0.0112,0.03601 0.01357,0.03601 0.01063,0.036 0.01357,0.03483 0.01357,0.036 0.01533,0.03542 0.01357,0.03424 0.01533,0.03541 0.0177,0.03307 0.01593,0.03423 0.0183,0.03307 0.0177,0.03365 0.0183,0.03364 0.02007,0.03307 0.01947,0.0313 0.02007,0.03423 0.02007,0.0307 0.02243,0.03187 0.02007,0.0313 0.02243,0.0295 0.0248,0.0307 0.02243,0.02833 0.0242,0.0295 0.0248,0.02893 0.0242,0.02893 0.02717,0.02893 0.0242,0.02657 0.02717,0.02713 0.02657,0.02657 0.02717,0.02657 0.02893,0.02537 0.02717,0.02657 0.02893,0.0248 0.02893,0.0248 0.02893,0.02243 0.0313,0.0236 0.02893,0.02303 0.0313,0.02183 0.03187,0.02067 0.0307,0.02243 0.03365,0.02007 0.0313,0.02007 0.0307,0.02007 0.03423,0.0177 0.03307,0.0183 0.03364,0.0177 0.03365,0.0171 0.03364,0.01653 0.03601,0.0177 0.03307,0.0124 0.03542,0.01653 0.036,0.01357 0.03601,0.013 0.03601,0.01357 0.03541,0.01297 0.03601,0.0118 0.03542,0.01063 0.03541,0.0094 0.03837,0.0112 0.03542,0.0083 0.03837,0.01003 0.03542,0.0059 0.03837,0.0065 0.03778,0.0065 0.036,0.0077 0.03778,0.0041 0.03837,0.0047 0.03778,0.0041 0.03778,0.0047 0.03778,0.0017 0.03778,0.0023 h 0.03837 l 0.03778,0.0017 h 0.03837 l 0.03778,-0.0017 h 0.03601 l 0.03837,-0.0023 0.03778,-0.0017 0.03778,-0.0047 0.03778,-0.0041 0.03778,-0.0047 0.03837,-0.0041 0.03778,-0.0077 0.03541,-0.0041 0.03778,-0.0089 0.03837,-0.0059 0.03601,-0.01003 0.03541,-0.0083 0.03837,-0.0094 0.03541,-0.0112 0.03601,-0.01063 0.03837,-0.0118 0.03542,-0.01297 0.03541,-0.0118 0.03365,-0.01477 0.036,-0.01357 0.03542,-0.01417 0.03307,-0.01477 0.0366,-0.01593 0.03307,-0.0183 0.03365,-0.01477 0.03364,-0.0177 0.03365,-0.02067 0.03364,-0.0177 0.0313,-0.02007 0.03364,-0.02007 0.0307,-0.02007 0.0313,-0.02007 0.0313,-0.02303 0.0313,-0.02183 0.02893,-0.02303 0.0313,-0.02123 0.02893,-0.0248 0.0295,-0.0248 0.02893,-0.0248 0.02893,-0.0242 0.02713,-0.02773 0.02717,-0.02657 0.02657,-0.0248 0.02657,-0.02893 0.02713,-0.02657 0.0242,-0.02657 0.0242,-0.02893 0.0248,-0.02893 0.0248,-0.0295 0.0242,-0.0307 0.02243,-0.0295 0.02243,-0.0307 0.02243,-0.0313 0.01947,-0.03187 0.02303,-0.0307 0.02007,-0.03187 0.02007,-0.03364 0.0183,-0.0307 0.01713,-0.03364 0.0183,-0.03364 0.0177,-0.03365 0.0183,-0.03364 0.01533,-0.03542 0.01593,-0.03364 0.01533,-0.03601 0.01357,-0.03307 0.01593,-0.03601 0.0112,-0.03542 0.013,-0.036 0.0112,-0.03601 0.013,-0.03542 0.0094,-0.03837 0.0112,-0.03541 0.0083,-0.03601 0.0094,-0.03778 3.70559,-16.124454 0.0089,-0.03896 0.0071,-0.03719 0.0071,-0.03601 0.0071,-0.03777 0.0041,-0.03837 z"
         id="path46626"
         inkscape:connector-curvature="0" /><path
         style="fill:#ffe6d5;fill-opacity:1;stroke-width:0.33333334"
         d="m 25.416488,2.0265759 0.08323,0.010033 0.08204,0.010623 0.08264,0.013577 0.08263,0.012987 0.08027,0.015937 0.08264,0.015347 0.08086,0.018297 0.08027,0.02007 0.08028,0.01948 0.08086,0.02243 0.08027,0.02302 0.0785,0.0242 0.07968,0.02656 0.0785,0.029513 0.0785,0.028923 0.07614,0.028923 0.07496,0.033645 0.0785,0.030693 0.07378,0.036006 0.07614,0.035415 0.07378,0.036006 0.07614,0.037776 0.07142,0.040728 0.07319,0.040138 0.07142,0.042498 0.06965,0.04486 0.07201,0.042499 0.06847,0.04663 0.06906,0.04663 0.06729,0.047221 0.06729,0.051352 0.0667,0.049582 0.06493,0.050172 0.06493,0.054304 0.06256,0.053714 0.06257,0.055484 0.05962,0.056075 0.0608,0.055484 0.06079,0.058436 0.05785,0.060205 0.05726,0.061386 0.05666,0.059615 0.05666,0.062566 0.05312,0.061977 0.05371,0.065518 0.05076,0.064337 0.05076,0.064928 0.04958,0.066699 0.04958,0.067288 0.04722,0.06965 0.04427,0.069059 0.04486,0.069059 0.04486,0.07142 0.0425,0.071421 0.03955,0.07142 0.04014,0.073782 0.03778,0.073781 0.03837,0.073781 0.03542,0.076143 0.03601,0.076142 0.03364,0.075552 0.03187,0.075552 0.0313,0.078503 0.02893,0.076143 0.02657,0.078503 0.02657,0.079684 0.02773,0.078504 0.02183,0.080864 0.0242,0.080274 0.01947,0.080274 0.02067,0.080864 0.0183,0.080274 0.0177,0.082635 0.01593,0.080274 0.01357,0.082045 0.01063,0.080864 0.01063,0.082635 0.0112,0.082635 0.0071,0.084996 0.0089,0.082635 0.0047,0.082045 0.0035,0.083225 0.0023,0.082635 0.0035,0.082635 -0.0035,0.082635 -0.0023,0.084406 -0.0023,0.083225 -0.0035,0.082635 -0.0065,0.082635 -0.0071,0.082635 -0.0094,0.082635 -0.01003,0.083225 -0.0118,0.082045 -0.0124,0.082635 -0.01653,0.080274 -0.01593,0.083225 -0.0171,0.080274 -0.02123,0.080274 -0.01947,0.080274 -0.01947,0.080274 -0.02537,0.080865 -0.0242,0.078503 -0.0242,0.079684 -0.0301,0.078502 -0.02893,0.078503 -0.02833,0.077323 -0.0313,0.076733 -0.03364,0.07614 -0.03307,0.075553 -0.036,0.076143 -0.0366,0.07378 -0.03719,0.076143 -0.04014,0.07142 -0.04073,0.07319 -0.0425,0.07201 -0.04132,0.07142 -0.04486,0.06906 -0.04545,0.06965 -0.04722,0.06906 -0.04722,0.06906 -0.0484,0.067287 -0.05194,0.064927 -0.05076,0.0667 -0.05135,0.061977 -0.0543,0.065517 -0.05549,0.062567 -0.05548,0.062566 -0.05607,0.06021 -0.05844,0.05784 -0.05784,0.06021 -0.06021,0.05607 -0.06021,0.05785 -0.06316,0.05607 -0.06198,0.05371 -0.06493,0.05371 -0.06434,0.05076 -0.06493,0.05194 -0.06788,0.04899 -0.0667,0.04899 -0.0667,0.04899 -0.06906,0.04486 -0.07142,0.04722 -0.06965,0.0425 -0.07083,0.0425 -0.07201,0.04191 -0.07378,0.04014 -0.07378,0.03837 -0.07378,0.03837 -0.07319,0.03719 -0.07614,0.03364 -0.07614,0.03365 -0.0785,0.03364 -0.07555,0.0313 -0.07791,0.02893 -0.0785,0.0295 -0.0785,0.02657 -0.07791,0.0248 -0.08027,0.0242 -0.08086,0.02243 -0.08028,0.02183 -0.08027,0.02067 -0.08027,0.0177 -0.08264,0.0177 -0.08086,0.01593 -0.08263,0.01533 -0.08205,0.0118 -0.08086,0.01063 -0.08264,0.0112 -0.08263,0.0094 -0.08559,0.0065 -0.08264,0.0065 -0.08204,0.0041 -0.08263,0.003 -0.08264,0.0023 h -0.08323 l -0.0844,-0.0023 -0.08264,-0.003 -0.08263,-0.0041 -0.08264,-0.0065 -0.08263,-0.0065 -0.08323,-0.0094 -0.08263,-0.0112 -0.08205,-0.01063 -0.08263,-0.0118 -0.08027,-0.01533 -0.08264,-0.01593 -0.08027,-0.0177 -0.08086,-0.0177 -0.08264,-0.02067 -0.08086,-0.02183 -0.07791,-0.02243 -0.08027,-0.0242 -0.0785,-0.0248 -0.07791,-0.02657 -0.08027,-0.0295 -0.07614,-0.02893 -0.0785,-0.0313 -0.07555,-0.03364 -0.07555,-0.03365 -0.07614,-0.03364 -0.07437,-0.03719 -0.07555,-0.03837 -0.07142,-0.03837 -0.07378,-0.04014 -0.07142,-0.04191 -0.07142,-0.0425 -0.07201,-0.0425 -0.06906,-0.04722 -0.06906,-0.04486 -0.06729,-0.04899 -0.0667,-0.04899 -0.0667,-0.04899 -0.06729,-0.05194 -0.06493,-0.05076 -0.06316,-0.05371 -0.06198,-0.05371 -0.06257,-0.05607 -0.06079,-0.05785 -0.05962,-0.05607 -0.05784,-0.06021 -0.05844,-0.05784 -0.05844,-0.06021 -0.05607,-0.062566 -0.05371,-0.062567 -0.05312,-0.065517 -0.05371,-0.061977 -0.05135,-0.0667 -0.04899,-0.064927 -0.04899,-0.067287 -0.04663,-0.06906 -0.04722,-0.06906 -0.04722,-0.06965 -0.0425,-0.06906 -0.04486,-0.07142 -0.0425,-0.07201 -0.04014,-0.07319 -0.03719,-0.07142 -0.03837,-0.076143 -0.03778,-0.07378 -0.03542,-0.076143 -0.03423,-0.075553 -0.0313,-0.07614 -0.0307,-0.076733 -0.03187,-0.077323 -0.02893,-0.078503 -0.02657,-0.078502 -0.02713,-0.079684 -0.0248,-0.078503 -0.02183,-0.080865 -0.02243,-0.080274 -0.02067,-0.080274 -0.0177,-0.080274 -0.0177,-0.080274 -0.01593,-0.083225 -0.01477,-0.080274 -0.01357,-0.082635 -0.0112,-0.082045 -0.0118,-0.083225 -0.0089,-0.082635 -0.0083,-0.082635 -0.0047,-0.082635 -0.0047,-0.082635 -0.0047,-0.083225 -0.0013,-0.084406 v -0.082635 l 0.0013,-0.082635 0.0023,-0.082635 0.0047,-0.083225 0.0047,-0.084406 0.0065,-0.082635 0.0089,-0.082635 0.0089,-0.082635 0.0112,-0.082635 0.01357,-0.080864 0.01357,-0.082045 0.01533,-0.080274 0.0183,-0.082635 0.0177,-0.080274 0.01947,-0.080864 0.02007,-0.080274 0.02303,-0.080274 0.0242,-0.080864 0.0248,-0.078504 0.02717,-0.079684 0.02893,-0.078503 0.02893,-0.076143 0.0313,-0.078503 0.0313,-0.075552 0.03307,-0.075552 0.03364,-0.076142 0.03778,-0.076143 0.0366,-0.073781 0.03955,-0.073781 0.03837,-0.073782 0.04191,-0.07142 0.04309,-0.071421 0.04191,-0.07142 0.04486,-0.069059 0.04722,-0.069059 0.04663,-0.06965 0.04899,-0.067288 0.04899,-0.066699 0.05135,-0.064928 0.05194,-0.064337 0.05371,-0.065518 0.05312,-0.061977 0.05608,-0.062566 0.05548,-0.059615 0.05844,-0.061386 0.05843,-0.060205 0.05785,-0.058436 0.0602,-0.055484 0.06316,-0.056075 0.06198,-0.055484 0.06257,-0.053714 0.06493,-0.054304 0.06434,-0.050172 0.06788,-0.049582 0.06611,-0.051352 0.06729,-0.047221 0.06965,-0.04663 0.06906,-0.04663 0.06906,-0.042499 0.07201,-0.04486 0.07083,-0.042498 0.07201,-0.040138 0.07319,-0.040728 0.07378,-0.037776 0.07378,-0.036006 0.07555,-0.035415 0.07614,-0.036006 0.07614,-0.033053 0.07614,-0.031283 0.07791,-0.028923 0.07791,-0.028923 0.0785,-0.029513 0.07851,-0.02656 0.08086,-0.0242 0.07968,-0.02302 0.0785,-0.02243 0.08204,-0.01948 0.08087,-0.02007 0.08027,-0.018297 0.08086,-0.015347 0.08264,-0.015937 0.08204,-0.012987 0.08323,-0.013577 0.08263,-0.010623 0.08264,-0.010033 0.08086,-0.00649 0.08381,-0.00649 0.08323,-0.00649 0.08264,-0.00297 0.08263,-0.00237 0.08323,-0.00177 0.08204,0.00177 0.085,0.00237 0.08263,0.00297 0.08264,0.00649 0.08323,0.00649 z"
         id="path46628"
         inkscape:connector-curvature="0" /><rect
         ry="1.9228414"
         rx="1.9228414"
         y="34.6768"
         x="5.0303316"
         height="11.333334"
         width="11.823165"
         id="rect46630"
         style="opacity:1;fill:#ffe6d5;fill-opacity:1;stroke:none;stroke-width:0.66666669;stroke-linecap:round;stroke-linejoin:round;stroke-miterlimit:4;stroke-dasharray:none;stroke-dashoffset:0;stroke-opacity:1" /></g></g></svg>