<?xml version="1.0" encoding="UTF-8" standalone="no"?>
<svg
   xmlns:dc="http://purl.org/dc/elements/1.1/"
   xmlns:cc="http://creativecommons.org/ns#"
   xmlns:rdf="http://www.w3.org/1999/02/22-rdf-syntax-ns#"
   xmlns:svg="http://www.w3.org/2000/svg"
   xmlns="http://www.w3.org/2000/svg"
   xmlns:xlink="http://www.w3.org/1999/xlink"
   xmlns:sodipodi="http://sodipodi.sourceforge.net/DTD/sodipodi-0.dtd"
   xmlns:inkscape="http://www.inkscape.org/namespaces/inkscape"
   version="1.1"
   x="0px"
   y="0px"
   viewBox="0 0 100 100.00005"
   enable-background="new 0 0 100 100"
   xml:space="preserve"
   id="svg3555"
   inkscape:version="0.92.2 (5c3e80d, 2017-08-06)"
   sodipodi:docname="Presentations-category.svg"
   width="100"
   height="100.00005"><metadata
     id="metadata3593"><rdf:RDF><cc:Work
         rdf:about=""><dc:format>image/svg+xml</dc:format><dc:type
           rdf:resource="http://purl.org/dc/dcmitype/StillImage" /><dc:title></dc:title></cc:Work></rdf:RDF></metadata><defs
     id="defs3591"><linearGradient
       inkscape:collect="always"
       xlink:href="#linearGradient24501"
       id="linearGradient28658"
       gradientUnits="userSpaceOnUse"
       x1="205.76807"
       y1="132"
       x2="263"
       y2="189"
       gradientTransform="translate(480)" /><linearGradient
       inkscape:collect="always"
       id="linearGradient24501"><stop
         style="stop-color:#c837ab;stop-opacity:1;"
         offset="0"
         id="stop24503" /><stop
         style="stop-color:#c837ab;stop-opacity:0;"
         offset="1"
         id="stop24505" /></linearGradient></defs><sodipodi:namedview
     pagecolor="#ffffff"
     bordercolor="#666666"
     borderopacity="1"
     objecttolerance="10"
     gridtolerance="10"
     guidetolerance="10"
     inkscape:pageopacity="0"
     inkscape:pageshadow="2"
     inkscape:window-width="1366"
     inkscape:window-height="717"
     id="namedview3589"
     showgrid="false"
     showborder="false"
     inkscape:zoom="0.5"
     inkscape:cx="-321.32907"
     inkscape:cy="21.343702"
     inkscape:window-x="0"
     inkscape:window-y="0"
     inkscape:window-maximized="1"
     inkscape:current-layer="svg3555"
     showguides="false"
     inkscape:guide-bbox="true"
     fit-margin-top="0"
     fit-margin-left="0"
     fit-margin-right="0"
     fit-margin-bottom="0"><sodipodi:guide
       position="-98.263128,135.93106"
       orientation="-0.70710678,0.70710678"
       id="guide6034"
       inkscape:locked="false" /><sodipodi:guide
       position="-80.231908,135.22395"
       orientation="1,0"
       id="guide6036"
       inkscape:locked="false" /><sodipodi:guide
       position="-203.62204,53.90668"
       orientation="0,1"
       id="guide6038"
       inkscape:locked="false" /><sodipodi:guide
       position="-72.453728,90.234289"
       orientation="0.70710678,0.70710678"
       id="guide6040"
       inkscape:label=""
       inkscape:color="rgb(0,0,255)"
       inkscape:locked="false" /><sodipodi:guide
       position="-132.20426,22.440431"
       orientation="0.70710678,0.70710678"
       id="guide3622"
       inkscape:label=""
       inkscape:color="rgb(0,0,255)"
       inkscape:locked="false" /></sodipodi:namedview><g
     transform="matrix(0.66666668,0,0,0.66666668,-403.33334,-49.999981)"
     id="g28685"
     inkscape:export-xdpi="96"
     inkscape:export-ydpi="96"><path
       d="M 751.24642,111.83272 C 748.07937,94.83316 734.73191,81.83397 718.0528,78.66491 c -12.67654,-2.49608 -25.52393,-3.66494 -38.0317,-3.66494 -12.84531,0 -25.69063,1.16886 -38.36508,3.66494 -17.01457,3.16906 -29.8578,16.33492 -33.02902,33.00111 -4.836,25.3316 -4.836,51.16751 0,76.3324 3.16914,17.16841 16.34574,30.0009 33.02902,33.16991 12.67445,2.6628 25.51977,3.8317 38.36508,3.8317 12.84322,0 25.51768,-1.1689 38.1963,-3.6671 17.01666,-3.3336 29.86197,-16.3328 33.02902,-33.1657 5.00477,-25.3358 5.00477,-51.1696 0,-76.3345 z"
       id="path28632"
       inkscape:connector-curvature="0"
       style="fill:#ff80e5;fill-opacity:1" /><path
       style="fill:url(#linearGradient28658);fill-opacity:1"
       d="m 688.58008,108.87305 -8.5293,11.58398 0.041,31.02735 0.041,42.69726 -33.81445,-0.0859 30.94141,30.87305 c 0.88871,0.0117 1.77724,0.0289 2.66601,0.0293 h 0.19922 c 12.80775,-0.006 25.4473,-1.17454 38.0918,-3.66602 17.01666,-3.3336 29.86224,-16.33116 33.02929,-33.16406 0.94657,-4.79186 1.71227,-9.60229 2.30079,-14.42188 l -64.9668,-64.87304 z"
       id="path28634"
       inkscape:connector-curvature="0" /><g
       id="g28654"
       transform="matrix(1.2437922,0,0,1.2437922,616.4521,87.350817)"
       style="fill:#ffffff"><g
         id="g28636"
         style="fill:#ffffff" /><g
         id="g28652"
         style="fill:#ffffff"><path
           id="path28638"
           d="m 79,77.17 v 0.01 c -0.05,-0.02 -0.1,-0.029 -0.15,-0.06 0.05,0.02 0.1,0.04 0.15,0.05 z"
           inkscape:connector-curvature="0"
           style="fill:#ffffff" /><g
           id="g28648"
           style="fill:#ffffff"><ellipse
             id="ellipse28640"
             ry="10.846"
             rx="9.9110003"
             cy="25.684999"
             cx="51.755001"
             style="fill:#ffffff" /><path
             id="path28642"
             d="M 69.38,46 H 32.95 c 3.93,-5.23 11.24,-8.42 18.22,-8.42 6.97,0 14.28,3.19 18.21,8.42 z"
             inkscape:connector-curvature="0"
             style="fill:#ffffff" /><path
             id="path28644"
             d="m 81.53,75.04 c -0.61,0.79 -1.96,1.66 -3.53,1.13 -0.05,-0.01 -0.1,-0.03 -0.15,-0.05 -0.1,-0.03 -0.189,-0.08 -0.29,-0.13 -0.3,-0.141 -0.6,-0.34 -0.899,-0.601 -2.12,-1.8 -3.11,-4.26 -1.78,-7 0.311,-0.63 0.7,-1.08 1.11,-1.399 0.069,-0.05 0.13,-0.101 0.2,-0.141 0.06,-0.05 0.13,-0.09 0.189,-0.119 0.29,-0.181 0.58,-0.311 0.86,-0.41 0.069,-0.03 0.14,-0.061 0.2,-0.08 0.199,-0.07 0.38,-0.141 0.56,-0.2 0.59,-0.22 1.01,-0.44 1,-1.021 v -4.38 c 0,0 3.24,2.801 3.86,6.95 0.63,4.151 -0.55,6.441 -1.33,7.451 z"
             inkscape:connector-curvature="0"
             style="fill:#ffffff" /><path
             id="path28646"
             d="M 25.68,75.39 C 23.56,77.191 21.59,76.05 20.8,75.04 20.02,74.03 18.685,71.74 19.305,67.59 19.935,63.44 23,60.64 23,60.64 v 4.38 c 0,1.49 2.965,0.631 4.295,3.37 1.33,2.74 0.495,5.2 -1.615,7 z"
             inkscape:connector-curvature="0"
             style="fill:#ffffff" /></g><path
           id="path28650"
           d="m 77.475,65.1 c 0.209,-0.08 0.48,-0.17 0.619,-0.25 V 46.9 h -54 v 17.95 c 0,0.08 0.541,0.17 0.75,0.25 0.99,0.34 2.611,0.871 3.52,2.75 1.422,2.91 0.602,5.9 -2.109,8.201 -0.629,0.539 -1.16,0.898 -2.16,1.068 V 85.9 h 54 V 77.119 C 77.406,76.949 76.736,76.59 76.105,76.051 73.396,73.75 72.656,70.76 74.076,67.85 74.984,65.971 76.484,65.439 77.475,65.1 Z M 60.146,59.625 62.369,58.34 c 0.301,-0.174 0.686,-0.07 0.859,0.23 0.173,0.3 0.07,0.686 -0.23,0.859 l -2.223,1.283 c -0.1,0.059 -0.207,0.084 -0.314,0.084 -0.217,0 -0.428,-0.111 -0.545,-0.314 -0.174,-0.298 -0.07,-0.685 0.23,-0.857 z m -4.154,-3.695 1.283,-2.223 c 0.174,-0.301 0.561,-0.404 0.859,-0.23 0.301,0.174 0.404,0.559 0.23,0.859 l -1.285,2.223 c -0.115,0.201 -0.326,0.314 -0.545,0.314 -0.105,0 -0.215,-0.027 -0.312,-0.084 -0.3,-0.174 -0.404,-0.559 -0.23,-0.859 z m -5.445,-3.69 c 0,-0.348 0.281,-0.629 0.629,-0.629 0.348,0 0.629,0.281 0.629,0.629 v 2.568 c 0,0.346 -0.281,0.627 -0.629,0.627 -0.348,0 -0.629,-0.281 -0.629,-0.627 z m -6.33,1.237 c 0.301,-0.174 0.686,-0.072 0.859,0.229 l 1.285,2.225 c 0.172,0.301 0.07,0.686 -0.23,0.859 -0.1,0.057 -0.207,0.084 -0.314,0.084 -0.217,0 -0.428,-0.113 -0.545,-0.314 l -1.283,-2.225 c -0.175,-0.302 -0.073,-0.687 0.228,-0.858 z m -6.959,12.052 c 0,-0.348 0.283,-0.629 0.629,-0.629 h 2.568 c 0.348,0 0.629,0.281 0.629,0.629 0,0.346 -0.281,0.627 -0.629,0.627 h -2.568 c -0.346,0 -0.629,-0.281 -0.629,-0.627 z m 4.949,5.905 -2.225,1.283 c -0.1,0.057 -0.207,0.084 -0.314,0.084 -0.217,0 -0.428,-0.113 -0.545,-0.314 -0.174,-0.301 -0.07,-0.686 0.23,-0.859 l 2.225,-1.283 c 0.299,-0.174 0.684,-0.07 0.857,0.23 0.173,0.3 0.073,0.685 -0.228,0.859 z m 0.229,-10.952 c -0.115,0.201 -0.326,0.314 -0.545,0.314 -0.105,0 -0.215,-0.027 -0.312,-0.084 l -2.225,-1.285 c -0.301,-0.172 -0.404,-0.557 -0.23,-0.857 0.174,-0.3 0.559,-0.404 0.859,-0.23 l 2.225,1.283 c 0.3,0.174 0.401,0.559 0.228,0.859 z m 11.71,20.873 -3.113,0.791 c -0.051,0.014 -0.104,0.02 -0.154,0.02 -0.281,0 -0.537,-0.189 -0.609,-0.475 -0.086,-0.336 0.119,-0.678 0.455,-0.764 l 3.111,-0.791 c 0.336,-0.084 0.68,0.117 0.764,0.455 0.086,0.337 -0.118,0.679 -0.454,0.764 z m 0.002,-1.748 -5.541,1.438 c -0.053,0.016 -0.105,0.021 -0.158,0.021 -0.279,0 -0.535,-0.188 -0.607,-0.471 -0.088,-0.336 0.113,-0.68 0.449,-0.768 l 5.541,-1.438 c 0.338,-0.09 0.68,0.115 0.768,0.449 0.086,0.34 -0.116,0.682 -0.452,0.769 z m 0,-1.793 -5.541,1.439 c -0.053,0.014 -0.105,0.02 -0.158,0.02 -0.279,0 -0.535,-0.188 -0.607,-0.471 -0.088,-0.336 0.113,-0.678 0.449,-0.766 l 5.541,-1.439 c 0.338,-0.088 0.68,0.115 0.768,0.451 0.086,0.337 -0.116,0.681 -0.452,0.766 z m 0,-1.791 -5.541,1.439 c -0.053,0.014 -0.105,0.02 -0.158,0.02 -0.279,0 -0.535,-0.188 -0.607,-0.471 -0.088,-0.336 0.113,-0.68 0.449,-0.766 l 5.541,-1.439 c 0.338,-0.09 0.68,0.115 0.768,0.451 0.086,0.337 -0.116,0.679 -0.452,0.766 z M 56.4,70.656 c -1.504,1.689 -2.266,2.699 -2.266,3.002 0,0.283 -0.189,0.533 -0.465,0.607 -4.842,1.311 -5.004,1.324 -5.109,1.324 -0.012,-0.002 -0.021,-0.002 -0.031,-0.002 -0.59,-0.027 -0.74,-0.58 -0.9,-1.168 -0.23,-0.844 -0.615,-2.256 -1.957,-3.764 -2.32,-2.609 -3.002,-6.316 -1.697,-9.223 1.168,-2.602 3.742,-4.092 7.062,-4.092 3.32,0 5.895,1.49 7.062,4.092 1.305,2.908 0.622,6.615 -1.699,9.224 z m 6.829,1.832 c -0.117,0.201 -0.328,0.314 -0.545,0.314 -0.107,0 -0.215,-0.027 -0.314,-0.086 l -2.223,-1.283 c -0.301,-0.174 -0.404,-0.559 -0.23,-0.859 0.174,-0.3 0.559,-0.404 0.859,-0.23 l 2.223,1.285 c 0.3,0.174 0.403,0.559 0.23,0.859 z m 1.236,-6.33 h -2.568 c -0.348,0 -0.629,-0.281 -0.629,-0.629 0,-0.348 0.281,-0.629 0.629,-0.629 h 2.568 c 0.348,0 0.629,0.281 0.629,0.629 0,0.348 -0.282,0.629 -0.629,0.629 z"
           inkscape:connector-curvature="0"
           style="fill:#ffffff" /></g></g></g></svg>