<?xml version="1.0" encoding="UTF-8" standalone="no"?>
<svg
   xmlns:dc="http://purl.org/dc/elements/1.1/"
   xmlns:cc="http://creativecommons.org/ns#"
   xmlns:rdf="http://www.w3.org/1999/02/22-rdf-syntax-ns#"
   xmlns:svg="http://www.w3.org/2000/svg"
   xmlns="http://www.w3.org/2000/svg"
   xmlns:xlink="http://www.w3.org/1999/xlink"
   xmlns:sodipodi="http://sodipodi.sourceforge.net/DTD/sodipodi-0.dtd"
   xmlns:inkscape="http://www.inkscape.org/namespaces/inkscape"
   version="1.1"
   x="0px"
   y="0px"
   viewBox="0 0 100 100.00005"
   enable-background="new 0 0 100 100"
   xml:space="preserve"
   id="svg3555"
   inkscape:version="0.92.2 (5c3e80d, 2017-08-06)"
   sodipodi:docname="Publications-category.svg"
   width="100"
   height="100.00005"><metadata
     id="metadata3593"><rdf:RDF><cc:Work
         rdf:about=""><dc:format>image/svg+xml</dc:format><dc:type
           rdf:resource="http://purl.org/dc/dcmitype/StillImage" /><dc:title></dc:title></cc:Work></rdf:RDF></metadata><defs
     id="defs3591"><linearGradient
       inkscape:collect="always"
       xlink:href="#linearGradient24613"
       id="linearGradient28335"
       gradientUnits="userSpaceOnUse"
       x1="221.68839"
       y1="137.84335"
       x2="268.13687"
       y2="185.75505"
       gradientTransform="translate(560)" /><linearGradient
       inkscape:collect="always"
       id="linearGradient24613"><stop
         style="stop-color:#00aa44;stop-opacity:1;"
         offset="0"
         id="stop24615" /><stop
         style="stop-color:#00aa44;stop-opacity:0;"
         offset="1"
         id="stop24617" /></linearGradient></defs><sodipodi:namedview
     pagecolor="#ffffff"
     bordercolor="#666666"
     borderopacity="1"
     objecttolerance="10"
     gridtolerance="10"
     guidetolerance="10"
     inkscape:pageopacity="0"
     inkscape:pageshadow="2"
     inkscape:window-width="1366"
     inkscape:window-height="717"
     id="namedview3589"
     showgrid="false"
     showborder="false"
     inkscape:zoom="2"
     inkscape:cx="-146.08077"
     inkscape:cy="55.632701"
     inkscape:window-x="0"
     inkscape:window-y="0"
     inkscape:window-maximized="1"
     inkscape:current-layer="svg3555"
     showguides="false"
     inkscape:guide-bbox="true"
     fit-margin-top="0"
     fit-margin-left="0"
     fit-margin-right="0"
     fit-margin-bottom="0"><sodipodi:guide
       position="62.801308,156.85488"
       orientation="-0.70710678,0.70710678"
       id="guide6034"
       inkscape:locked="false" /><sodipodi:guide
       position="75.175678,205.64525"
       orientation="1,0"
       id="guide6036"
       inkscape:locked="false" /><sodipodi:guide
       position="-42.5576,74.8305"
       orientation="0,1"
       id="guide6038"
       inkscape:locked="false" /><sodipodi:guide
       position="91.970708,114.26761"
       orientation="0.70710678,0.70710678"
       id="guide6040"
       inkscape:label=""
       inkscape:color="rgb(0,0,255)"
       inkscape:locked="false" /><sodipodi:guide
       position="53.730458,38.22667"
       orientation="0.70710678,0.70710678"
       id="guide3622"
       inkscape:label=""
       inkscape:color="rgb(0,0,255)"
       inkscape:locked="false" /></sodipodi:namedview><g
     transform="matrix(0.66666668,0,0,0.66666668,-456.66668,-49.99998)"
     id="g28353"
     inkscape:export-xdpi="96"
     inkscape:export-ydpi="96"><path
       style="fill:#55ff99;fill-opacity:1"
       inkscape:connector-curvature="0"
       id="path28319"
       d="M 831.24642,111.83272 C 828.07937,94.833158 814.73191,81.833968 798.0528,78.664908 c -12.67654,-2.49608 -25.52393,-3.66494 -38.0317,-3.66494 -12.84531,0 -25.69063,1.16886 -38.36508,3.66494 -17.01457,3.16906 -29.8578,16.33492 -33.02902,33.001112 -4.836,25.3316 -4.836,51.16751 0,76.3324 3.16914,17.16841 16.34574,30.0009 33.02902,33.16991 12.67445,2.6628 25.51977,3.8317 38.36508,3.8317 12.84322,0 25.51768,-1.1689 38.1963,-3.6671 17.01666,-3.3336 29.86197,-16.3328 33.02902,-33.1657 5.00477,-25.3358 5.00477,-51.1696 0,-76.3345 z" /><path
       style="fill:url(#linearGradient28335);fill-opacity:1"
       d="m 777.4707,111.23242 0.58008,14.22461 0.041,18.27735 4.20898,14.92773 0.50195,14.50586 -8.89062,13.79492 -13.7793,3.46875 -20.65625,-2.93164 36.83008,36.8418 c 7.32403,-0.58785 14.6163,-1.57258 21.91016,-3.00977 17.01666,-3.3336 29.86224,-16.33116 33.02929,-33.16406 1.32844,-6.72498 2.29476,-13.48643 2.91797,-20.25977 z"
       id="path28321"
       inkscape:connector-curvature="0" /><g
       id="g28331"
       transform="matrix(1.3824351,0,0,1.3824351,-22.25839,22.66278)"><g
         transform="matrix(0.06803327,0,0,0.06803327,544.08448,58.093975)"
         id="g28327"
         style="fill:none;stroke:#f68212;stroke-width:104.76399994"><path
           id="path28323"
           d="m 111.387,308.135 v -35.727 a 209.21,209.214 0 0 1 418.42,0 v 258.426"
           inkscape:connector-curvature="0" /><circle
           id="circle28325"
           r="256.08301"
           cy="680.729"
           cx="320.004" /></g><circle
         id="circle28329"
         r="5.8800273"
         cy="104.46947"
         cx="565.92383"
         style="fill:#f68212" /></g></g></svg>