<?xml version="1.0" encoding="UTF-8" standalone="no"?>
<svg
   xmlns:dc="http://purl.org/dc/elements/1.1/"
   xmlns:cc="http://creativecommons.org/ns#"
   xmlns:rdf="http://www.w3.org/1999/02/22-rdf-syntax-ns#"
   xmlns:svg="http://www.w3.org/2000/svg"
   xmlns="http://www.w3.org/2000/svg"
   xmlns:xlink="http://www.w3.org/1999/xlink"
   xmlns:sodipodi="http://sodipodi.sourceforge.net/DTD/sodipodi-0.dtd"
   xmlns:inkscape="http://www.inkscape.org/namespaces/inkscape"
   version="1.1"
   x="0px"
   y="0px"
   viewBox="0 0 50 50.000023"
   enable-background="new 0 0 100 100"
   xml:space="preserve"
   id="svg3555"
   inkscape:version="0.92.2 (5c3e80d, 2017-08-06)"
   sodipodi:docname="Research-category.svg"
   width="50"
   height="50.000023"><metadata
     id="metadata3593"><rdf:RDF><cc:Work
         rdf:about=""><dc:format>image/svg+xml</dc:format><dc:type
           rdf:resource="http://purl.org/dc/dcmitype/StillImage" /><dc:title></dc:title></cc:Work></rdf:RDF></metadata><defs
     id="defs3591"><linearGradient
       inkscape:collect="always"
       xlink:href="#linearGradient24880"
       id="linearGradient39830"
       gradientUnits="userSpaceOnUse"
       x1="200.11122"
       y1="150.09335"
       x2="255.00894"
       y2="204.99106"
       gradientTransform="translate(560)" /><linearGradient
       inkscape:collect="always"
       id="linearGradient24880"><stop
         style="stop-color:#ff9955;stop-opacity:1;"
         offset="0"
         id="stop24882" /><stop
         style="stop-color:#ff9955;stop-opacity:0;"
         offset="1"
         id="stop24884" /></linearGradient></defs><sodipodi:namedview
     pagecolor="#ffffff"
     bordercolor="#666666"
     borderopacity="1"
     objecttolerance="10"
     gridtolerance="10"
     guidetolerance="10"
     inkscape:pageopacity="0"
     inkscape:pageshadow="2"
     inkscape:window-width="1366"
     inkscape:window-height="713"
     id="namedview3589"
     showgrid="false"
     showborder="false"
     inkscape:zoom="2"
     inkscape:cx="-89.16373"
     inkscape:cy="15.349686"
     inkscape:window-x="0"
     inkscape:window-y="0"
     inkscape:window-maximized="1"
     inkscape:current-layer="svg3555"
     showguides="false"
     inkscape:guide-bbox="true"
     fit-margin-top="0"
     fit-margin-left="0"
     fit-margin-right="0"
     fit-margin-bottom="0"><sodipodi:guide
       position="56.613023,78.908461"
       orientation="-0.70710678,0.70710678"
       id="guide6034"
       inkscape:locked="false" /><sodipodi:guide
       position="21.611244,55.927489"
       orientation="1,0"
       id="guide6036"
       inkscape:locked="false" /><sodipodi:guide
       position="353.95142,43.906679"
       orientation="0,1"
       id="guide6038"
       inkscape:locked="false" /><sodipodi:guide
       position="-4.7284847,-8.2424494"
       orientation="0.70710678,0.70710678"
       id="guide6040"
       inkscape:label=""
       inkscape:color="rgb(0,0,255)"
       inkscape:locked="false" /></sodipodi:namedview><g
     transform="matrix(0.33333334,0,0,0.33333334,-228.33334,-24.99999)"
     id="g39842"
     inkscape:export-xdpi="96"
     inkscape:export-ydpi="96"><path
       d="M 831.24642,111.83272 C 828.07937,94.83316 814.73191,81.83397 798.0528,78.66491 c -12.67654,-2.49608 -25.52393,-3.66494 -38.0317,-3.66494 -12.84531,0 -25.69063,1.16886 -38.36508,3.66494 -17.01457,3.16906 -29.8578,16.33492 -33.02902,33.00111 -4.836,25.3316 -4.836,51.16751 0,76.3324 3.16914,17.16841 16.34574,30.0009 33.02902,33.16991 12.67445,2.6628 25.51977,3.8317 38.36508,3.8317 12.84322,0 25.51768,-1.1689 38.1963,-3.6671 17.01666,-3.3336 29.86197,-16.3328 33.02902,-33.1657 5.00477,-25.3358 5.00477,-51.1696 0,-76.3345 z"
       id="path39820"
       inkscape:connector-curvature="0"
       style="fill:#ffccaa;fill-opacity:1" /><path
       style="fill:url(#linearGradient39830);fill-opacity:1"
       d="m 784.74609,125.59766 -24.71484,24.75 -18.93945,10.32812 -20.32618,28.60352 35.91211,35.67187 7.92383,-0.004 c 11.28087,-0.24721 22.44613,-1.41447 33.61524,-3.61524 17.01666,-3.3336 29.86224,-16.33116 33.02929,-33.16406 0.89386,-4.52499 1.62075,-9.06708 2.19532,-13.61719 l -48.69532,-48.95312 z"
       id="path39822"
       inkscape:connector-curvature="0" /><g
       id="g39826"
       transform="translate(709.55495,100.70801)"
       style="fill:#ffffff"><path
         inkscape:connector-curvature="0"
         d="m 31.771,28.241 c 0,-3.732 3.022,-6.751 6.749,-6.751 3.727,0 6.752,3.02 6.752,6.751 0,3.727 -3.025,6.749 -6.752,6.749 -3.727,0 -6.749,-3.023 -6.749,-6.749 M 96.081,89.577 90.287,67.31 c 0,0 -5.167,-17.58 -27.114,-19.084 l -0.961,0.009 v -2.519 c 0.812,-0.274 1.597,-0.596 2.357,-0.959 0.907,-0.4 1.828,-0.862 2.756,-1.405 l -0.13,-0.089 c 5.144,-3.441 8.496,-9.022 8.496,-15.328 0,-10.453 -9.199,-18.928 -20.547,-18.928 -4.957,0 -9.502,1.614 -13.049,4.308 6.888,1.66 12.008,7.858 12.008,15.256 0,4.964 -2.312,9.378 -5.909,12.254 -1.527,1.175 -3.269,2.084 -5.161,2.648 0.544,0.417 2.752,1.727 6.032,2.578 V 48.3 l -1.85,0.011 c -15.39,0.184 -23.413,9.523 -23.413,9.523 l 6.177,-16.392 c -1.412,-0.912 -2.671,-1.91 -3.722,-3.024 l 3.894,-2.578 c 2.073,2.28 5.05,3.721 8.367,3.721 6.244,0 11.323,-5.08 11.323,-11.321 0,-6.244 -5.08,-11.324 -11.323,-11.324 -6.243,0 -11.322,5.08 -11.322,11.324 0,1.29 0.224,2.523 0.625,3.679 l -3.295,2.18 c -1.571,-1.584 -5.237,-1.2 -8.549,0.993 -3.314,2.195 -5.102,5.419 -4.256,7.482 l -3.308,2.191 0.013,0.019 c -0.895,0.731 -1.117,2.027 -0.466,3.012 0.652,0.983 1.934,1.288 2.956,0.75 L 10.93,48.564 16.142,45.115 6.084,74.57 c -1.508,3.349 -1.959,7.694 0.213,10.682 1.654,2.276 4.27,3.601 6.982,3.558 2.386,-0.041 5.271,-1.773 6.686,-3.85 L 30.629,67.194 28.818,89.577 h 48.826 l 0.854,-14.301 2.967,14.301 z"
         id="path39824"
         style="fill:#ffffff" /></g></g></svg>