<?xml version="1.0" encoding="UTF-8" standalone="no"?>
<svg
   xmlns:dc="http://purl.org/dc/elements/1.1/"
   xmlns:cc="http://creativecommons.org/ns#"
   xmlns:rdf="http://www.w3.org/1999/02/22-rdf-syntax-ns#"
   xmlns:svg="http://www.w3.org/2000/svg"
   xmlns="http://www.w3.org/2000/svg"
   xmlns:xlink="http://www.w3.org/1999/xlink"
   xmlns:sodipodi="http://sodipodi.sourceforge.net/DTD/sodipodi-0.dtd"
   xmlns:inkscape="http://www.inkscape.org/namespaces/inkscape"
   version="1.1"
   x="0px"
   y="0px"
   viewBox="0 0 50 50.000019"
   enable-background="new 0 0 100 100"
   xml:space="preserve"
   id="svg3555"
   inkscape:version="0.92.2 (5c3e80d, 2017-08-06)"
   sodipodi:docname="Systems-category.svg"
   width="50"
   height="50.000019"><metadata
     id="metadata3593"><rdf:RDF><cc:Work
         rdf:about=""><dc:format>image/svg+xml</dc:format><dc:type
           rdf:resource="http://purl.org/dc/dcmitype/StillImage" /><dc:title></dc:title></cc:Work></rdf:RDF></metadata><defs
     id="defs3591"><linearGradient
       inkscape:collect="always"
       xlink:href="#linearGradient3438"
       id="linearGradient46326"
       gradientUnits="userSpaceOnUse"
       x1="203.21663"
       y1="153.86307"
       x2="252.18198"
       y2="205.71231"
       gradientTransform="translate(460)" /><linearGradient
       inkscape:collect="always"
       id="linearGradient3438"><stop
         style="stop-color:#ff5555;stop-opacity:1;"
         offset="0"
         id="stop3440" /><stop
         style="stop-color:#ff5555;stop-opacity:0;"
         offset="1"
         id="stop3442" /></linearGradient></defs><sodipodi:namedview
     pagecolor="#ffffff"
     bordercolor="#666666"
     borderopacity="1"
     objecttolerance="10"
     gridtolerance="10"
     guidetolerance="10"
     inkscape:pageopacity="0"
     inkscape:pageshadow="2"
     inkscape:window-width="1366"
     inkscape:window-height="713"
     id="namedview3589"
     showgrid="false"
     showborder="false"
     inkscape:zoom="10.939996"
     inkscape:cx="39.259603"
     inkscape:cy="25.00001"
     inkscape:window-x="0"
     inkscape:window-y="0"
     inkscape:window-maximized="1"
     inkscape:current-layer="svg3555"
     showguides="false"
     inkscape:guide-bbox="true"
     fit-margin-top="0"
     fit-margin-left="0"
     fit-margin-right="0"
     fit-margin-bottom="0"><sodipodi:guide
       position="195.18157,51.023688"
       orientation="-0.70710678,0.70710678"
       id="guide6034"
       inkscape:locked="false" /><sodipodi:guide
       position="103.61124,46.427488"
       orientation="1,0"
       id="guide6036"
       inkscape:locked="false" /><sodipodi:guide
       position="-14.122035,34.406677"
       orientation="0,1"
       id="guide6038"
       inkscape:locked="false" /><sodipodi:guide
       position="158.76557,69.40846"
       orientation="0.70710678,0.70710678"
       id="guide6040"
       inkscape:label=""
       inkscape:color="rgb(0,0,255)"
       inkscape:locked="false" /><sodipodi:guide
       position="58.883496,-11.464399"
       orientation="0.70710678,0.70710678"
       id="guide3901"
       inkscape:label=""
       inkscape:color="rgb(0,0,255)"
       inkscape:locked="false" /></sodipodi:namedview><g
     transform="matrix(0.33333333,0,0,0.33333333,-195,-24.99999)"
     id="g46353"
     inkscape:export-xdpi="96"
     inkscape:export-ydpi="96"><path
       style="fill:#ffaaaa;fill-opacity:1"
       inkscape:connector-curvature="0"
       id="path46300"
       d="M 731.24642,111.83272 C 728.07937,94.83316 714.73191,81.83397 698.0528,78.66491 c -12.67654,-2.49608 -25.52393,-3.66494 -38.0317,-3.66494 -12.84531,0 -25.69063,1.16886 -38.36508,3.66494 -17.01457,3.16906 -29.8578,16.33492 -33.02902,33.00111 -4.836,25.3316 -4.836,51.16751 0,76.3324 3.16914,17.16841 16.34574,30.0009 33.02902,33.16991 12.67445,2.6628 25.51977,3.8317 38.36508,3.8317 12.84322,0 25.51768,-1.1689 38.1963,-3.6671 17.01666,-3.3336 29.86197,-16.3328 33.02902,-33.1657 5.00477,-25.3358 5.00477,-51.1696 0,-76.3345 z" /><path
       style="fill:url(#linearGradient46326);fill-opacity:1"
       d="m 705.25195,104.73633 -12.37109,22.59375 0.002,22.26172 -32.8789,0.33203 -0.35157,33.20898 -22.27343,-0.008 -22.625,11.98828 28.93359,29.2168 c 3.89499,0.31923 7.79563,0.53028 11.69922,0.61719 l 9.47656,-0.004 c 11.19195,-0.25944 22.27071,-1.42757 33.35352,-3.61133 17.01666,-3.3336 29.86224,-16.33116 33.02929,-33.16406 C 733.74848,175.50007 735,162.70658 735,149.93555 c 0,-5.28969 -0.22695,-10.57371 -0.65625,-15.84571 z"
       id="path46302"
       inkscape:connector-curvature="0" /><g
       id="g46322"
       transform="matrix(1.0314251,0,0,1.0314251,608.42614,98.453507)"
       style="fill:#ffffff"><path
         inkscape:connector-curvature="0"
         d="M 83.778,81.138 H 79.805 V 30.124 h 3.973 c 0,0 0,51.014 0,51.014 z"
         id="path46304"
         style="fill:#ffffff" /><path
         inkscape:connector-curvature="0"
         d="m 83.778,79.787 v 3.974 H 30.459 v -3.974 z"
         id="path46306"
         style="fill:#ffffff" /><path
         inkscape:connector-curvature="0"
         d="M 51.96,81.298 H 47.987 V 62.068 H 51.96 Z"
         id="path46308"
         style="fill:#ffffff" /><path
         inkscape:connector-curvature="0"
         d="m 80.997,47.844 v 3.973 H 62.562 v -3.973 z"
         id="path46310"
         style="fill:#ffffff" /><path
         inkscape:connector-curvature="0"
         d="m 88.796,49.753 c 0,3.794 -3.075,6.869 -6.869,6.869 -3.794,0 -6.869,-3.075 -6.869,-6.869 0,-3.793 3.076,-6.868 6.869,-6.868 3.794,0 6.869,3.074 6.869,6.868 z"
         id="path46312"
         style="fill:#ffffff" /><path
         inkscape:connector-curvature="0"
         d="m 56.603,81.851 c 0,3.662 -2.968,6.63 -6.63,6.63 -3.662,0 -6.63,-2.968 -6.63,-6.63 0,-3.661 2.968,-6.63 6.63,-6.63 3.662,0 6.63,2.969 6.63,6.63 z"
         id="path46314"
         style="fill:#ffffff" /><path
         inkscape:connector-curvature="0"
         d="m 95.002,8.726 v 18.75 c 0,2.072 -1.679,3.75 -3.75,3.75 h -18.75 c -2.071,0 -3.75,-1.678 -3.75,-3.75 V 8.726 c 0,-2.071 1.679,-3.75 3.75,-3.75 h 18.75 c 2.072,0 3.75,1.679 3.75,3.75 z"
         id="path46316"
         style="fill:#ffffff" /><path
         inkscape:connector-curvature="0"
         d="M 63.127,40.601 V 59.35 c 0,2.072 -1.679,3.75 -3.75,3.75 h -18.75 c -2.071,0 -3.75,-1.678 -3.75,-3.75 V 40.601 c 0,-2.071 1.679,-3.75 3.75,-3.75 h 18.75 c 2.072,0 3.751,1.679 3.75,3.75 z"
         id="path46318"
         style="fill:#ffffff" /><path
         inkscape:connector-curvature="0"
         d="m 31.253,72.477 v 18.748 c 0,2.072 -1.679,3.751 -3.75,3.751 H 8.753 c -2.071,0 -3.75,-1.679 -3.75,-3.751 V 72.476 c 0,-2.072 1.679,-3.75 3.75,-3.75 h 18.75 c 2.071,0 3.749,1.679 3.75,3.751 z"
         id="path46320"
         style="fill:#ffffff" /></g></g></svg>