<?xml version="1.0" encoding="UTF-8" standalone="no"?>
<svg
   xmlns:dc="http://purl.org/dc/elements/1.1/"
   xmlns:cc="http://creativecommons.org/ns#"
   xmlns:rdf="http://www.w3.org/1999/02/22-rdf-syntax-ns#"
   xmlns:svg="http://www.w3.org/2000/svg"
   xmlns="http://www.w3.org/2000/svg"
   xmlns:sodipodi="http://sodipodi.sourceforge.net/DTD/sodipodi-0.dtd"
   xmlns:inkscape="http://www.inkscape.org/namespaces/inkscape"
   version="1.1"
   x="0px"
   y="0px"
   viewBox="0 0 400 300"
   enable-background="new 0 0 100 100"
   xml:space="preserve"
   id="svg3555"
   inkscape:version="0.91 r13725"
   sodipodi:docname="Systems-caption.svg"
   width="400"
   height="300"><metadata
     id="metadata3593"><rdf:RDF><cc:Work
         rdf:about=""><dc:format>image/svg+xml</dc:format><dc:type
           rdf:resource="http://purl.org/dc/dcmitype/StillImage" /><dc:title /></cc:Work></rdf:RDF></metadata><defs
     id="defs3591" /><sodipodi:namedview
     pagecolor="#ffffff"
     bordercolor="#666666"
     borderopacity="1"
     objecttolerance="10"
     gridtolerance="10"
     guidetolerance="10"
     inkscape:pageopacity="0"
     inkscape:pageshadow="2"
     inkscape:window-width="1366"
     inkscape:window-height="713"
     id="namedview3589"
     showgrid="false"
     showborder="false"
     inkscape:zoom="1"
     inkscape:cx="569.1204"
     inkscape:cy="147.89238"
     inkscape:window-x="0"
     inkscape:window-y="27"
     inkscape:window-maximized="1"
     inkscape:current-layer="svg3555"
     showguides="true"
     inkscape:guide-bbox="true"
     fit-margin-top="0"
     fit-margin-left="0"
     fit-margin-right="0"
     fit-margin-bottom="0"><sodipodi:guide
       position="291.68155,166.52365"
       orientation="-0.70710678,0.70710678"
       id="guide6034" /><sodipodi:guide
       position="200.11122,161.92745"
       orientation="1,0"
       id="guide6036" /><sodipodi:guide
       position="82.37794,149.90664"
       orientation="0,1"
       id="guide6038" /><sodipodi:guide
       position="255.26555,184.90842"
       orientation="0.70710678,0.70710678"
       id="guide6040"
       inkscape:label=""
       inkscape:color="rgb(0,0,255)" /></sodipodi:namedview><g
     style="fill:#00a99d;fill-opacity:1"
     id="g3567"
     transform="matrix(0.9999875,0,0,0.9999875,-26.98183,170.41642)"
     inkscape:export-xdpi="90"
     inkscape:export-ydpi="90" /><g
     id="g23563"
     inkscape:export-xdpi="90"
     inkscape:export-ydpi="90"><rect
       inkscape:export-ydpi="90"
       inkscape:export-xdpi="90"
       y="0"
       x="0"
       height="300"
       width="400"
       id="rect4420"
       style="opacity:1;fill:#ffe680;fill-opacity:1;stroke:none;stroke-width:6.79094839;stroke-linecap:round;stroke-linejoin:round;stroke-miterlimit:4;stroke-dasharray:none;stroke-dashoffset:0;stroke-opacity:1" /><path
       d="M 271.24642,111.83272 C 268.07937,94.83316 254.73191,81.83397 238.0528,78.66491 c -12.67654,-2.49608 -25.52393,-3.66494 -38.0317,-3.66494 -12.84531,0 -25.69063,1.16886 -38.36508,3.66494 -17.01457,3.16906 -29.8578,16.33492 -33.02902,33.00111 -4.836,25.3316 -4.836,51.16751 0,76.3324 3.16914,17.16841 16.34574,30.0009 33.02902,33.16991 12.67445,2.6628 25.51977,3.8317 38.36508,3.8317 12.84322,0 25.51768,-1.1689 38.1963,-3.6671 17.01666,-3.3336 29.86197,-16.3328 33.02902,-33.1657 5.00477,-25.3358 5.00477,-51.1696 0,-76.3345 z"
       id="path23419"
       inkscape:connector-curvature="0"
       style="fill:#ffaaaa;fill-opacity:1" /><path
       inkscape:connector-curvature="0"
       id="path23558"
       d="m 245.25195,104.73633 -12.37109,22.59375 0.002,22.26172 -32.8789,0.33203 -0.35157,33.20898 -22.27343,-0.008 -22.625,11.98828 28.93359,29.2168 c 3.89499,0.31923 7.79563,0.53028 11.69922,0.61719 l 9.47656,-0.004 c 11.19195,-0.25944 22.27071,-1.42757 33.35352,-3.61133 17.01666,-3.3336 29.86224,-16.33116 33.02929,-33.16406 C 273.74848,175.50007 275,162.70658 275,149.93555 c 0,-5.28969 -0.22695,-10.57371 -0.65625,-15.84571 l -29.0918,-29.35351 z"
       style="fill:#ff5555;fill-opacity:1" /><g
       style="fill:#ffffff"
       transform="matrix(1.0314251,0,0,1.0314251,148.42614,98.453507)"
       id="g5952"><path
         style="fill:#ffffff"
         id="path5954"
         d="m 83.778,81.138 -3.973,0 0,-51.014 3.973,0 c 0,0 0,51.014 0,51.014 z"
         inkscape:connector-curvature="0" /><path
         style="fill:#ffffff"
         id="path5956"
         d="m 83.778,79.787 0,3.974 -53.319,0 0,-3.974 53.319,0 z"
         inkscape:connector-curvature="0" /><path
         style="fill:#ffffff"
         id="path5958"
         d="m 51.96,81.298 -3.973,0 0,-19.23 3.973,0 0,19.23 z"
         inkscape:connector-curvature="0" /><path
         style="fill:#ffffff"
         id="path5960"
         d="m 80.997,47.844 0,3.973 -18.435,0 0,-3.973 18.435,0 z"
         inkscape:connector-curvature="0" /><path
         style="fill:#ffffff"
         id="path5962"
         d="m 88.796,49.753 c 0,3.794 -3.075,6.869 -6.869,6.869 -3.794,0 -6.869,-3.075 -6.869,-6.869 0,-3.793 3.076,-6.868 6.869,-6.868 3.794,0 6.869,3.074 6.869,6.868 z"
         inkscape:connector-curvature="0" /><path
         style="fill:#ffffff"
         id="path5964"
         d="m 56.603,81.851 c 0,3.662 -2.968,6.63 -6.63,6.63 -3.662,0 -6.63,-2.968 -6.63,-6.63 0,-3.661 2.968,-6.63 6.63,-6.63 3.662,0 6.63,2.969 6.63,6.63 z"
         inkscape:connector-curvature="0" /><path
         style="fill:#ffffff"
         id="path5966"
         d="m 95.002,8.726 0,18.75 c 0,2.072 -1.679,3.75 -3.75,3.75 l -18.75,0 c -2.071,0 -3.75,-1.678 -3.75,-3.75 l 0,-18.75 c 0,-2.071 1.679,-3.75 3.75,-3.75 l 18.75,0 c 2.072,0 3.75,1.679 3.75,3.75 z"
         inkscape:connector-curvature="0" /><path
         style="fill:#ffffff"
         id="path5968"
         d="m 63.127,40.601 0,18.749 c 0,2.072 -1.679,3.75 -3.75,3.75 l -18.75,0 c -2.071,0 -3.75,-1.678 -3.75,-3.75 l 0,-18.749 c 0,-2.071 1.679,-3.75 3.75,-3.75 l 18.75,0 c 2.072,0 3.751,1.679 3.75,3.75 z"
         inkscape:connector-curvature="0" /><path
         style="fill:#ffffff"
         id="path5970"
         d="m 31.253,72.477 0,18.748 c 0,2.072 -1.679,3.751 -3.75,3.751 l -18.75,0 c -2.071,0 -3.75,-1.679 -3.75,-3.751 l 0,-18.749 c 0,-2.072 1.679,-3.75 3.75,-3.75 l 18.75,0 c 2.071,0 3.749,1.679 3.75,3.751 z"
         inkscape:connector-curvature="0" /></g></g></svg>